G04*
G04 #@! TF.GenerationSoftware,Altium Limited,Altium Designer,21.9.1 (22)*
G04*
G04 Layer_Color=65535*
%FSLAX25Y25*%
%MOIN*%
G70*
G04*
G04 #@! TF.SameCoordinates,29281BF1-B37C-4538-9C3D-308B06FF8435*
G04*
G04*
G04 #@! TF.FilePolarity,Positive*
G04*
G01*
G75*
%ADD10C,0.00984*%
%ADD11C,0.01500*%
%ADD12C,0.00787*%
%ADD13C,0.01000*%
G36*
X1673382Y916984D02*
Y916183D01*
X1672582D01*
Y916984D01*
Y917784D01*
X1673382D01*
Y916984D01*
D02*
G37*
G36*
X1674182Y913783D02*
Y912984D01*
X1673382D01*
Y912183D01*
Y911384D01*
Y910583D01*
X1674182D01*
Y909783D01*
Y908984D01*
X1673382D01*
Y909783D01*
Y910583D01*
X1672582D01*
Y909783D01*
Y908984D01*
X1673382D01*
Y908183D01*
X1672582D01*
Y908984D01*
X1670982D01*
Y909783D01*
X1670182D01*
Y910583D01*
X1671782D01*
Y911384D01*
Y912183D01*
X1672582D01*
Y912984D01*
X1671782D01*
Y913783D01*
X1673382D01*
Y914583D01*
X1674182D01*
Y913783D01*
D02*
G37*
G36*
X1675782Y918583D02*
X1674982D01*
Y917784D01*
Y916984D01*
X1675782D01*
Y917784D01*
X1677382D01*
Y916984D01*
X1676582D01*
Y916183D01*
X1678182D01*
Y915384D01*
X1676582D01*
Y914583D01*
X1677382D01*
Y913783D01*
Y912984D01*
Y912183D01*
Y911384D01*
X1679782D01*
Y910583D01*
X1684582D01*
Y909783D01*
X1686982D01*
Y908984D01*
X1687782D01*
Y908183D01*
X1689382D01*
Y907384D01*
X1690182D01*
Y906583D01*
X1690982D01*
Y905783D01*
X1691782D01*
Y904984D01*
X1692582D01*
Y904183D01*
X1693382D01*
Y903384D01*
X1694182D01*
Y902584D01*
Y901783D01*
X1694982D01*
Y900984D01*
Y900183D01*
X1695782D01*
Y899384D01*
Y898584D01*
X1696582D01*
Y897783D01*
Y896984D01*
Y896183D01*
Y895383D01*
Y894584D01*
Y893783D01*
Y892984D01*
Y892183D01*
Y891383D01*
Y890584D01*
Y889783D01*
Y888984D01*
X1695782D01*
Y888183D01*
Y887383D01*
Y886584D01*
X1694982D01*
Y885783D01*
Y884984D01*
X1694182D01*
Y884184D01*
X1693382D01*
Y883383D01*
Y882584D01*
X1692582D01*
Y881783D01*
X1691782D01*
Y880984D01*
X1690982D01*
Y880184D01*
X1689382D01*
Y879383D01*
X1688582D01*
Y878584D01*
X1687782D01*
Y877783D01*
X1685382D01*
Y876984D01*
X1682982D01*
Y876184D01*
Y875383D01*
Y874584D01*
X1682182D01*
Y875383D01*
X1681382D01*
Y874584D01*
X1682182D01*
Y873783D01*
X1681382D01*
Y874584D01*
X1680582D01*
Y873783D01*
Y872983D01*
X1679782D01*
Y873783D01*
Y874584D01*
X1677382D01*
Y873783D01*
Y872983D01*
X1676582D01*
Y873783D01*
Y874584D01*
X1675782D01*
Y875383D01*
X1672582D01*
Y876184D01*
X1669382D01*
Y876984D01*
X1667782D01*
Y877783D01*
X1666182D01*
Y878584D01*
X1665382D01*
Y879383D01*
X1663782D01*
Y880184D01*
X1662982D01*
Y880984D01*
X1662182D01*
Y881783D01*
Y882584D01*
X1661382D01*
Y883383D01*
X1660582D01*
Y884184D01*
Y884984D01*
X1659782D01*
Y885783D01*
Y886584D01*
X1658982D01*
Y887383D01*
Y888183D01*
Y888984D01*
X1658182D01*
Y889783D01*
Y890584D01*
Y891383D01*
Y892183D01*
Y892984D01*
Y893783D01*
Y894584D01*
Y895383D01*
Y896183D01*
Y896984D01*
Y897783D01*
X1658982D01*
Y898584D01*
Y899384D01*
Y900183D01*
X1659782D01*
Y900984D01*
Y901783D01*
X1660582D01*
Y902584D01*
X1661382D01*
Y903384D01*
Y904183D01*
X1662182D01*
Y904984D01*
X1662982D01*
Y905783D01*
X1663782D01*
Y906583D01*
X1664582D01*
Y907384D01*
X1666182D01*
Y908183D01*
X1666982D01*
Y908984D01*
X1668582D01*
Y908183D01*
X1669382D01*
Y908984D01*
X1668582D01*
Y909783D01*
X1670182D01*
Y908984D01*
X1670982D01*
Y908183D01*
X1670182D01*
Y907384D01*
X1668582D01*
Y908183D01*
X1667782D01*
Y907384D01*
X1668582D01*
Y906583D01*
X1667782D01*
Y905783D01*
X1666982D01*
Y904984D01*
X1666182D01*
Y904183D01*
X1665382D01*
Y904984D01*
Y905783D01*
X1664582D01*
Y904984D01*
X1663782D01*
Y904183D01*
X1662982D01*
Y903384D01*
X1662182D01*
Y902584D01*
Y901783D01*
X1661382D01*
Y900984D01*
X1660582D01*
Y900183D01*
Y899384D01*
X1659782D01*
Y898584D01*
Y897783D01*
Y896984D01*
Y896183D01*
Y895383D01*
X1658982D01*
Y894584D01*
X1659782D01*
Y893783D01*
Y892984D01*
Y892183D01*
Y891383D01*
Y890584D01*
Y889783D01*
X1660582D01*
Y888984D01*
Y888183D01*
Y887383D01*
X1661382D01*
Y886584D01*
Y885783D01*
X1662182D01*
Y884984D01*
Y884184D01*
X1662982D01*
Y883383D01*
X1663782D01*
Y882584D01*
X1664582D01*
Y881783D01*
X1665382D01*
Y880984D01*
X1666182D01*
Y880184D01*
X1666982D01*
Y879383D01*
X1668582D01*
Y878584D01*
X1669382D01*
Y879383D01*
X1668582D01*
Y880184D01*
X1666982D01*
Y880984D01*
Y881783D01*
X1666182D01*
Y882584D01*
Y883383D01*
X1665382D01*
Y884184D01*
X1664582D01*
Y884984D01*
X1666182D01*
Y884184D01*
Y883383D01*
X1666982D01*
Y882584D01*
Y881783D01*
X1667782D01*
Y880984D01*
X1668582D01*
Y880184D01*
X1670182D01*
Y879383D01*
X1670982D01*
Y878584D01*
X1672582D01*
Y877783D01*
X1673382D01*
Y876984D01*
X1674982D01*
Y877783D01*
X1674182D01*
Y878584D01*
X1673382D01*
Y879383D01*
Y880184D01*
X1672582D01*
Y880984D01*
X1671782D01*
Y881783D01*
Y882584D01*
X1672582D01*
Y881783D01*
Y880984D01*
X1673382D01*
Y880184D01*
X1674182D01*
Y879383D01*
X1674982D01*
Y878584D01*
X1675782D01*
Y877783D01*
X1676582D01*
Y876984D01*
X1678982D01*
Y877783D01*
X1678182D01*
Y878584D01*
Y879383D01*
X1677382D01*
Y880184D01*
X1678182D01*
Y879383D01*
X1678982D01*
Y878584D01*
Y877783D01*
X1680582D01*
Y878584D01*
X1679782D01*
Y879383D01*
Y880184D01*
Y880984D01*
Y881783D01*
Y882584D01*
Y883383D01*
Y884184D01*
Y884984D01*
Y885783D01*
Y886584D01*
Y887383D01*
Y888183D01*
Y888984D01*
X1680582D01*
Y888183D01*
Y887383D01*
Y886584D01*
Y885783D01*
Y884984D01*
Y884184D01*
Y883383D01*
Y882584D01*
Y881783D01*
Y880984D01*
Y880184D01*
Y879383D01*
X1681382D01*
Y878584D01*
Y877783D01*
X1682182D01*
Y878584D01*
X1682982D01*
Y879383D01*
Y880184D01*
X1683782D01*
Y879383D01*
X1684582D01*
Y880184D01*
X1685382D01*
Y880984D01*
X1686182D01*
Y881783D01*
X1686982D01*
Y882584D01*
Y883383D01*
X1687782D01*
Y884184D01*
X1688582D01*
Y883383D01*
Y882584D01*
X1689382D01*
Y883383D01*
Y884184D01*
X1688582D01*
Y884984D01*
Y885783D01*
Y886584D01*
X1689382D01*
Y885783D01*
Y884984D01*
Y884184D01*
X1690182D01*
Y884984D01*
X1690982D01*
Y884184D01*
Y883383D01*
X1691782D01*
Y884184D01*
X1692582D01*
Y884984D01*
X1693382D01*
Y885783D01*
Y886584D01*
Y887383D01*
X1694182D01*
Y888183D01*
Y888984D01*
Y889783D01*
X1694982D01*
Y890584D01*
Y891383D01*
Y892183D01*
Y892984D01*
Y893783D01*
Y894584D01*
Y895383D01*
Y896183D01*
Y896984D01*
X1694182D01*
Y897783D01*
Y898584D01*
Y899384D01*
X1693382D01*
Y900183D01*
Y900984D01*
Y901783D01*
X1692582D01*
Y902584D01*
X1691782D01*
Y903384D01*
Y904183D01*
X1690982D01*
Y904984D01*
X1690182D01*
Y905783D01*
X1689382D01*
Y906583D01*
X1688582D01*
Y907384D01*
X1687782D01*
Y908183D01*
X1686182D01*
Y907384D01*
X1686982D01*
Y906583D01*
X1687782D01*
Y905783D01*
X1688582D01*
Y904984D01*
X1689382D01*
Y904183D01*
X1690182D01*
Y903384D01*
X1689382D01*
Y904183D01*
X1688582D01*
Y904984D01*
X1687782D01*
Y905783D01*
X1686982D01*
Y906583D01*
X1686182D01*
Y907384D01*
X1684582D01*
Y908183D01*
X1682982D01*
Y908984D01*
X1681382D01*
Y909783D01*
X1676582D01*
Y910583D01*
X1675782D01*
Y911384D01*
X1674982D01*
Y912183D01*
Y912984D01*
Y913783D01*
Y914583D01*
X1674182D01*
Y915384D01*
Y916183D01*
Y916984D01*
Y917784D01*
X1673382D01*
Y918583D01*
X1674182D01*
Y919384D01*
X1675782D01*
Y918583D01*
D02*
G37*
G36*
Y908984D02*
Y908183D01*
Y907384D01*
X1676582D01*
Y906583D01*
X1677382D01*
Y905783D01*
Y904984D01*
X1678182D01*
Y904183D01*
X1678982D01*
Y903384D01*
X1678182D01*
Y904183D01*
X1677382D01*
Y904984D01*
X1676582D01*
Y905783D01*
Y906583D01*
X1675782D01*
Y907384D01*
X1674982D01*
Y908183D01*
Y908984D01*
Y909783D01*
X1675782D01*
Y908984D01*
D02*
G37*
G36*
X1678982Y908183D02*
X1681382D01*
Y907384D01*
X1682182D01*
Y906583D01*
X1682982D01*
Y905783D01*
X1684582D01*
Y904984D01*
X1685382D01*
Y904183D01*
X1686182D01*
Y903384D01*
Y902584D01*
X1686982D01*
Y901783D01*
X1686182D01*
Y902584D01*
X1685382D01*
Y903384D01*
X1684582D01*
Y904183D01*
X1683782D01*
Y904984D01*
X1682982D01*
Y905783D01*
X1682182D01*
Y906583D01*
X1680582D01*
Y907384D01*
X1678982D01*
Y908183D01*
X1677382D01*
Y908984D01*
X1678982D01*
Y908183D01*
D02*
G37*
G36*
X1669382Y902584D02*
Y901783D01*
Y900984D01*
X1668582D01*
Y901783D01*
Y902584D01*
Y903384D01*
X1669382D01*
Y902584D01*
D02*
G37*
G36*
X1692582Y887383D02*
Y886584D01*
Y885783D01*
X1691782D01*
Y884984D01*
X1690982D01*
Y885783D01*
Y886584D01*
X1691782D01*
Y887383D01*
Y888183D01*
X1692582D01*
Y887383D01*
D02*
G37*
G36*
X1684582Y882584D02*
Y881783D01*
Y880984D01*
X1683782D01*
Y881783D01*
Y882584D01*
Y883383D01*
X1684582D01*
Y882584D01*
D02*
G37*
G36*
X1676582Y884184D02*
Y883383D01*
Y882584D01*
X1677382D01*
Y881783D01*
Y880984D01*
X1676582D01*
Y881783D01*
Y882584D01*
X1675782D01*
Y883383D01*
Y884184D01*
Y884984D01*
X1676582D01*
Y884184D01*
D02*
G37*
G36*
X1675782Y873783D02*
Y872983D01*
X1674982D01*
Y873783D01*
Y874584D01*
X1675782D01*
Y873783D01*
D02*
G37*
%LPC*%
G36*
Y916183D02*
X1674982D01*
Y915384D01*
Y914583D01*
X1675782D01*
Y913783D01*
Y912984D01*
Y912183D01*
Y911384D01*
X1676582D01*
Y912183D01*
Y912984D01*
Y913783D01*
Y914583D01*
X1675782D01*
Y915384D01*
Y916183D01*
D02*
G37*
G36*
X1666182Y906583D02*
X1665382D01*
Y905783D01*
X1666182D01*
Y906583D01*
D02*
G37*
G36*
X1690982Y883383D02*
X1690182D01*
Y882584D01*
X1690982D01*
Y883383D01*
D02*
G37*
G36*
X1688582Y881783D02*
X1687782D01*
Y880984D01*
X1688582D01*
Y881783D01*
D02*
G37*
G36*
X1676582Y876984D02*
X1675782D01*
Y876184D01*
X1676582D01*
Y876984D01*
D02*
G37*
%LPD*%
D10*
X1839469Y849218D02*
X1838730Y849644D01*
Y848792D01*
X1839469Y849218D01*
X1718957Y863120D02*
X1718218Y863547D01*
Y862694D01*
X1718957Y863120D01*
X1522441Y948917D02*
X1521703Y949343D01*
Y948491D01*
X1522441Y948917D01*
D11*
X1866878Y572705D02*
X1873878D01*
X1823878D02*
X1830878D01*
X1823878Y565705D02*
Y572705D01*
Y522705D02*
Y529705D01*
Y522705D02*
X1830878D01*
X1866878D02*
X1873878D01*
Y529705D01*
Y565705D02*
Y572705D01*
X1748878Y528433D02*
Y535433D01*
Y485433D02*
Y492433D01*
Y485433D02*
X1755878D01*
X1791878D02*
X1798878D01*
Y492433D01*
Y528433D02*
Y535433D01*
X1791878D02*
X1798878D01*
X1748878D02*
X1755878D01*
X1673878Y528433D02*
Y535433D01*
Y485433D02*
Y492433D01*
Y485433D02*
X1680878D01*
X1716878D02*
X1723878D01*
Y492433D01*
Y528433D02*
Y535433D01*
X1716878D02*
X1723878D01*
X1673878D02*
X1680878D01*
X1598878Y528433D02*
Y535433D01*
Y485433D02*
Y492433D01*
Y485433D02*
X1605878D01*
X1641878D02*
X1648878D01*
Y492433D01*
Y528433D02*
Y535433D01*
X1641878D02*
X1648878D01*
X1598878D02*
X1605878D01*
X1523878Y528433D02*
Y535433D01*
Y485433D02*
Y492433D01*
Y485433D02*
X1530878D01*
X1566878D02*
X1573878D01*
Y492433D01*
Y528433D02*
Y535433D01*
X1566878D02*
X1573878D01*
X1523878D02*
X1530878D01*
X1523878Y603433D02*
Y610433D01*
Y560433D02*
Y567433D01*
Y560433D02*
X1530878D01*
X1566878D02*
X1573878D01*
Y567433D01*
Y603433D02*
Y610433D01*
X1566878D02*
X1573878D01*
X1523878D02*
X1530878D01*
X1598878Y603433D02*
Y610433D01*
Y560433D02*
Y567433D01*
Y560433D02*
X1605878D01*
X1641878D02*
X1648878D01*
Y567433D01*
Y603433D02*
Y610433D01*
X1641878D02*
X1648878D01*
X1598878D02*
X1605878D01*
X1673878Y603433D02*
Y610433D01*
Y560433D02*
Y567433D01*
Y560433D02*
X1680878D01*
X1716878D02*
X1723878D01*
Y567433D01*
Y603433D02*
Y610433D01*
X1716878D02*
X1723878D01*
X1673878D02*
X1680878D01*
X1748878Y603433D02*
Y610433D01*
Y560433D02*
Y567433D01*
Y560433D02*
X1755878D01*
X1791878D02*
X1798878D01*
Y567433D01*
Y603433D02*
Y610433D01*
X1791878D02*
X1798878D01*
X1748878D02*
X1755878D01*
X1748878Y678433D02*
Y685433D01*
Y635433D02*
Y642433D01*
Y635433D02*
X1755878D01*
X1791878D02*
X1798878D01*
Y642433D01*
Y678433D02*
Y685433D01*
X1791878D02*
X1798878D01*
X1748878D02*
X1755878D01*
X1673878Y678433D02*
Y685433D01*
Y635433D02*
Y642433D01*
Y635433D02*
X1680878D01*
X1716878D02*
X1723878D01*
Y642433D01*
Y678433D02*
Y685433D01*
X1716878D02*
X1723878D01*
X1673878D02*
X1680878D01*
X1598878Y678433D02*
Y685433D01*
Y635433D02*
Y642433D01*
Y635433D02*
X1605878D01*
X1641878D02*
X1648878D01*
Y642433D01*
Y678433D02*
Y685433D01*
X1641878D02*
X1648878D01*
X1598878D02*
X1605878D01*
X1523878Y678433D02*
Y685433D01*
Y635433D02*
Y642433D01*
Y635433D02*
X1530878D01*
X1566878D02*
X1573878D01*
Y642433D01*
Y678433D02*
Y685433D01*
X1566878D02*
X1573878D01*
X1523878D02*
X1530878D01*
X1523878Y760433D02*
X1530878D01*
X1566878D02*
X1573878D01*
Y753433D02*
Y760433D01*
Y710433D02*
Y717433D01*
X1566878Y710433D02*
X1573878D01*
X1523878D02*
X1530878D01*
X1523878D02*
Y717433D01*
Y753433D02*
Y760433D01*
X1598878Y753433D02*
Y760433D01*
Y710433D02*
Y717433D01*
Y710433D02*
X1605878D01*
X1641878D02*
X1648878D01*
Y717433D01*
Y753433D02*
Y760433D01*
X1641878D02*
X1648878D01*
X1598878D02*
X1605878D01*
X1673878Y753433D02*
Y760433D01*
Y710433D02*
Y717433D01*
Y710433D02*
X1680878D01*
X1716878D02*
X1723878D01*
Y717433D01*
Y753433D02*
Y760433D01*
X1716878D02*
X1723878D01*
X1673878D02*
X1680878D01*
X1748878Y753433D02*
Y760433D01*
Y710433D02*
Y717433D01*
Y710433D02*
X1755878D01*
X1791878D02*
X1798878D01*
Y717433D01*
Y753433D02*
Y760433D01*
X1791878D02*
X1798878D01*
X1748878D02*
X1755878D01*
X1866878Y722705D02*
X1873878D01*
X1823878D02*
X1830878D01*
X1823878Y715705D02*
Y722705D01*
Y672705D02*
Y679705D01*
Y672705D02*
X1830878D01*
X1866878D02*
X1873878D01*
Y679705D01*
Y715705D02*
Y722705D01*
X1823878Y835433D02*
X1830878D01*
X1866878D02*
X1873878D01*
Y828433D02*
Y835433D01*
Y785433D02*
Y792433D01*
X1866878Y785433D02*
X1873878D01*
X1823878D02*
X1830878D01*
X1823878D02*
Y792433D01*
Y828433D02*
Y835433D01*
X1748878D02*
X1755878D01*
X1791878D02*
X1798878D01*
Y828433D02*
Y835433D01*
Y785433D02*
Y792433D01*
X1791878Y785433D02*
X1798878D01*
X1748878D02*
X1755878D01*
X1748878D02*
Y792433D01*
Y828433D02*
Y835433D01*
X1673878D02*
X1680878D01*
X1716878D02*
X1723878D01*
Y828433D02*
Y835433D01*
Y785433D02*
Y792433D01*
X1716878Y785433D02*
X1723878D01*
X1673878D02*
X1680878D01*
X1673878D02*
Y792433D01*
Y828433D02*
Y835433D01*
X1598878D02*
X1605878D01*
X1641878D02*
X1648878D01*
Y828433D02*
Y835433D01*
Y785433D02*
Y792433D01*
X1641878Y785433D02*
X1648878D01*
X1598878D02*
X1605878D01*
X1598878D02*
Y792433D01*
Y828433D02*
Y835433D01*
D12*
X1823425Y894789D02*
Y911423D01*
Y856699D02*
Y873333D01*
X1863189Y856699D02*
X1874213D01*
X1823425D02*
X1834449D01*
X1874213Y894789D02*
Y911423D01*
Y856699D02*
Y873333D01*
X1863189Y911423D02*
X1874213D01*
X1823425D02*
X1834449D01*
X1756378Y951595D02*
Y961594D01*
X1716378Y951595D02*
X1756378D01*
X1716378Y961594D02*
X1756378D01*
X1716378Y951595D02*
Y961594D01*
X1748189Y867542D02*
Y876416D01*
X1727016Y883790D02*
X1745740D01*
X1724567Y867648D02*
Y876416D01*
X1728110Y860168D02*
X1745740D01*
X1530709Y952264D02*
Y953150D01*
Y936516D02*
Y945374D01*
Y928740D02*
Y929626D01*
Y928740D02*
X1557087D01*
Y952264D02*
Y953150D01*
Y936516D02*
Y945374D01*
Y928740D02*
Y929626D01*
X1530709Y953150D02*
X1557087D01*
D13*
X1513878Y785886D02*
Y915886D01*
Y785886D02*
X1583878D01*
Y915886D01*
X1513878D02*
X1583878D01*
X1613660Y937053D02*
X1612660Y938052D01*
X1610661D01*
X1609661Y937053D01*
Y936053D01*
X1610661Y935053D01*
X1612660D01*
X1613660Y934054D01*
Y933054D01*
X1612660Y932054D01*
X1610661D01*
X1609661Y933054D01*
X1616659Y937053D02*
Y936053D01*
X1615660D01*
X1617659D01*
X1616659D01*
Y933054D01*
X1617659Y932054D01*
X1620658Y936053D02*
Y932054D01*
Y934054D01*
X1621658Y935053D01*
X1622657Y936053D01*
X1623657D01*
X1626656Y932054D02*
Y936053D01*
X1627656D01*
X1628655Y935053D01*
Y932054D01*
Y935053D01*
X1629655Y936053D01*
X1630655Y935053D01*
Y932054D01*
X1632654D02*
Y938052D01*
X1635653D01*
X1636653Y937053D01*
Y935053D01*
X1635653Y934054D01*
X1632654D01*
X1639652Y936053D02*
X1641651D01*
X1642651Y935053D01*
Y932054D01*
X1639652D01*
X1638652Y933054D01*
X1639652Y934054D01*
X1642651D01*
X1648649Y938052D02*
Y932054D01*
X1645650D01*
X1644650Y933054D01*
Y935053D01*
X1645650Y936053D01*
X1648649D01*
X1656646D02*
X1658646Y932054D01*
X1660645Y936053D01*
X1662644Y932054D02*
X1664644D01*
X1663644D01*
Y938052D01*
X1662644Y937053D01*
X1609661Y928455D02*
Y922457D01*
Y925456D01*
X1613660D01*
Y928455D01*
Y922457D01*
X1616659D02*
X1618658D01*
X1619658Y923456D01*
Y925456D01*
X1618658Y926455D01*
X1616659D01*
X1615660Y925456D01*
Y923456D01*
X1616659Y922457D01*
X1621658Y926455D02*
Y923456D01*
X1622657Y922457D01*
X1623657Y923456D01*
X1624657Y922457D01*
X1625656Y923456D01*
Y926455D01*
X1627656Y922457D02*
X1629655D01*
X1628655D01*
Y926455D01*
X1627656D01*
X1632654Y922457D02*
Y926455D01*
X1635653D01*
X1636653Y925456D01*
Y922457D01*
X1644650Y928455D02*
X1648649D01*
X1646650D01*
Y922457D01*
X1651648Y926455D02*
X1653647D01*
X1654647Y925456D01*
Y922457D01*
X1651648D01*
X1650648Y923456D01*
X1651648Y924456D01*
X1654647D01*
X1656646Y922457D02*
Y926455D01*
X1657646D01*
X1658646Y925456D01*
Y922457D01*
Y925456D01*
X1659645Y926455D01*
X1660645Y925456D01*
Y922457D01*
X1671641D02*
Y928455D01*
X1668642Y925456D01*
X1672641D01*
X1674640Y923456D02*
X1675640Y922457D01*
X1677639D01*
X1678639Y923456D01*
Y927455D01*
X1677639Y928455D01*
X1675640D01*
X1674640Y927455D01*
Y926455D01*
X1675640Y925456D01*
X1678639D01*
X1684637Y922457D02*
X1680639D01*
X1684637Y926455D01*
Y927455D01*
X1683637Y928455D01*
X1681638D01*
X1680639Y927455D01*
X1686637Y922457D02*
X1688636D01*
X1687636D01*
Y928455D01*
X1686637Y927455D01*
X1514400Y925398D02*
Y920400D01*
X1515400Y919400D01*
X1517399D01*
X1518399Y920400D01*
Y925398D01*
X1520398Y919400D02*
X1522397D01*
X1521398D01*
Y925398D01*
X1520398Y924398D01*
X1586454Y919147D02*
Y925145D01*
X1589453D01*
X1590453Y924145D01*
Y922146D01*
X1589453Y921146D01*
X1586454D01*
X1588453D02*
X1590453Y919147D01*
X1592452D02*
X1594452D01*
X1593452D01*
Y925145D01*
X1592452Y924145D01*
X1722499Y892298D02*
X1721499Y893298D01*
X1719500D01*
X1718500Y892298D01*
Y891299D01*
X1719500Y890299D01*
X1721499D01*
X1722499Y889299D01*
Y888300D01*
X1721499Y887300D01*
X1719500D01*
X1718500Y888300D01*
X1724498Y893298D02*
Y887300D01*
X1726497Y889299D01*
X1728497Y887300D01*
Y893298D01*
X1734495Y887300D02*
X1730496D01*
X1734495Y891299D01*
Y892298D01*
X1733495Y893298D01*
X1731496D01*
X1730496Y892298D01*
X1833646Y842550D02*
X1832646Y843550D01*
X1830647D01*
X1829647Y842550D01*
Y841551D01*
X1830647Y840551D01*
X1832646D01*
X1833646Y839552D01*
Y838552D01*
X1832646Y837552D01*
X1830647D01*
X1829647Y838552D01*
X1835645Y842550D02*
X1836645Y843550D01*
X1838644D01*
X1839644Y842550D01*
Y841551D01*
X1838644Y840551D01*
X1839644Y839552D01*
Y838552D01*
X1838644Y837552D01*
X1836645D01*
X1835645Y838552D01*
Y839552D01*
X1836645Y840551D01*
X1835645Y841551D01*
Y842550D01*
X1836645Y840551D02*
X1838644D01*
X1608268Y842550D02*
X1607268Y843550D01*
X1605269D01*
X1604269Y842550D01*
Y841551D01*
X1605269Y840551D01*
X1607268D01*
X1608268Y839552D01*
Y838552D01*
X1607268Y837552D01*
X1605269D01*
X1604269Y838552D01*
X1610267Y837552D02*
X1612266D01*
X1611267D01*
Y843550D01*
X1610267Y842550D01*
X1825899Y924498D02*
X1821900D01*
Y918500D01*
X1825899D01*
X1821900Y921499D02*
X1823899D01*
X1827898Y918500D02*
Y924498D01*
X1831897Y918500D01*
Y924498D01*
X1837895Y923498D02*
X1836895Y924498D01*
X1834896D01*
X1833896Y923498D01*
Y919500D01*
X1834896Y918500D01*
X1836895D01*
X1837895Y919500D01*
X1839894Y918500D02*
X1841894D01*
X1840894D01*
Y924498D01*
X1839894Y923498D01*
X1525999Y961898D02*
X1524999Y962898D01*
X1523000D01*
X1522000Y961898D01*
Y960899D01*
X1523000Y959899D01*
X1524999D01*
X1525999Y958899D01*
Y957900D01*
X1524999Y956900D01*
X1523000D01*
X1522000Y957900D01*
X1527998Y962898D02*
Y956900D01*
X1529997Y958899D01*
X1531997Y956900D01*
Y962898D01*
X1533996Y956900D02*
X1535995D01*
X1534996D01*
Y962898D01*
X1533996Y961898D01*
X1756828Y543338D02*
X1755828Y544338D01*
X1753829D01*
X1752829Y543338D01*
Y542338D01*
X1753829Y541339D01*
X1755828D01*
X1756828Y540339D01*
Y539339D01*
X1755828Y538340D01*
X1753829D01*
X1752829Y539339D01*
X1762826Y538340D02*
X1758827D01*
X1762826Y542338D01*
Y543338D01*
X1761827Y544338D01*
X1759827D01*
X1758827Y543338D01*
X1768824Y538340D02*
X1764825D01*
X1768824Y542338D01*
Y543338D01*
X1767825Y544338D01*
X1765825D01*
X1764825Y543338D01*
X1682040D02*
X1681041Y544338D01*
X1679041D01*
X1678042Y543338D01*
Y542338D01*
X1679041Y541339D01*
X1681041D01*
X1682040Y540339D01*
Y539339D01*
X1681041Y538340D01*
X1679041D01*
X1678042Y539339D01*
X1688038Y538340D02*
X1684040D01*
X1688038Y542338D01*
Y543338D01*
X1687039Y544338D01*
X1685039D01*
X1684040Y543338D01*
X1690038Y538340D02*
X1692037D01*
X1691037D01*
Y544338D01*
X1690038Y543338D01*
X1607222D02*
X1606222Y544338D01*
X1604223D01*
X1603223Y543338D01*
Y542338D01*
X1604223Y541339D01*
X1606222D01*
X1607222Y540339D01*
Y539339D01*
X1606222Y538340D01*
X1604223D01*
X1603223Y539339D01*
X1613220Y538340D02*
X1609221D01*
X1613220Y542338D01*
Y543338D01*
X1612220Y544338D01*
X1610221D01*
X1609221Y543338D01*
X1615219D02*
X1616219Y544338D01*
X1618218D01*
X1619218Y543338D01*
Y539339D01*
X1618218Y538340D01*
X1616219D01*
X1615219Y539339D01*
Y543338D01*
X1531934D02*
X1530935Y544338D01*
X1528935D01*
X1527936Y543338D01*
Y542338D01*
X1528935Y541339D01*
X1530935D01*
X1531934Y540339D01*
Y539339D01*
X1530935Y538340D01*
X1528935D01*
X1527936Y539339D01*
X1533934Y538340D02*
X1535933D01*
X1534933D01*
Y544338D01*
X1533934Y543338D01*
X1538932Y539339D02*
X1539932Y538340D01*
X1541931D01*
X1542931Y539339D01*
Y543338D01*
X1541931Y544338D01*
X1539932D01*
X1538932Y543338D01*
Y542338D01*
X1539932Y541339D01*
X1542931D01*
X1880928Y564452D02*
X1881928Y565451D01*
Y567451D01*
X1880928Y568450D01*
X1879929D01*
X1878929Y567451D01*
Y565451D01*
X1877929Y564452D01*
X1876930D01*
X1875930Y565451D01*
Y567451D01*
X1876930Y568450D01*
X1875930Y562452D02*
Y560453D01*
Y561453D01*
X1881928D01*
X1880928Y562452D01*
Y557454D02*
X1881928Y556454D01*
Y554455D01*
X1880928Y553455D01*
X1879929D01*
X1878929Y554455D01*
X1877929Y553455D01*
X1876930D01*
X1875930Y554455D01*
Y556454D01*
X1876930Y557454D01*
X1877929D01*
X1878929Y556454D01*
X1879929Y557454D01*
X1880928D01*
X1878929Y556454D02*
Y554455D01*
X1758312Y618141D02*
X1757313Y619141D01*
X1755313D01*
X1754313Y618141D01*
Y617141D01*
X1755313Y616142D01*
X1757313D01*
X1758312Y615142D01*
Y614142D01*
X1757313Y613143D01*
X1755313D01*
X1754313Y614142D01*
X1760312Y613143D02*
X1762311D01*
X1761311D01*
Y619141D01*
X1760312Y618141D01*
X1765310Y619141D02*
X1769309D01*
Y618141D01*
X1765310Y614142D01*
Y613143D01*
X1682525Y618141D02*
X1681525Y619141D01*
X1679526D01*
X1678526Y618141D01*
Y617141D01*
X1679526Y616142D01*
X1681525D01*
X1682525Y615142D01*
Y614142D01*
X1681525Y613143D01*
X1679526D01*
X1678526Y614142D01*
X1684524Y613143D02*
X1686523D01*
X1685524D01*
Y619141D01*
X1684524Y618141D01*
X1693521Y619141D02*
X1691522Y618141D01*
X1689523Y616142D01*
Y614142D01*
X1690522Y613143D01*
X1692521D01*
X1693521Y614142D01*
Y615142D01*
X1692521Y616142D01*
X1689523D01*
X1607722Y618141D02*
X1606722Y619141D01*
X1604723D01*
X1603723Y618141D01*
Y617141D01*
X1604723Y616142D01*
X1606722D01*
X1607722Y615142D01*
Y614142D01*
X1606722Y613143D01*
X1604723D01*
X1603723Y614142D01*
X1609721Y613143D02*
X1611720D01*
X1610721D01*
Y619141D01*
X1609721Y618141D01*
X1618718Y619141D02*
X1614719D01*
Y616142D01*
X1616719Y617141D01*
X1617718D01*
X1618718Y616142D01*
Y614142D01*
X1617718Y613143D01*
X1615719D01*
X1614719Y614142D01*
X1532918Y618141D02*
X1531919Y619141D01*
X1529919D01*
X1528920Y618141D01*
Y617141D01*
X1529919Y616142D01*
X1531919D01*
X1532918Y615142D01*
Y614142D01*
X1531919Y613143D01*
X1529919D01*
X1528920Y614142D01*
X1534918Y613143D02*
X1536917D01*
X1535917D01*
Y619141D01*
X1534918Y618141D01*
X1542915Y613143D02*
Y619141D01*
X1539916Y616142D01*
X1543915D01*
X1881519Y713467D02*
X1882519Y714467D01*
Y716466D01*
X1881519Y717466D01*
X1880519D01*
X1879520Y716466D01*
Y714467D01*
X1878520Y713467D01*
X1877520D01*
X1876521Y714467D01*
Y716466D01*
X1877520Y717466D01*
X1876521Y711468D02*
Y709469D01*
Y710468D01*
X1882519D01*
X1881519Y711468D01*
Y706470D02*
X1882519Y705470D01*
Y703471D01*
X1881519Y702471D01*
X1880519D01*
X1879520Y703471D01*
Y704470D01*
Y703471D01*
X1878520Y702471D01*
X1877520D01*
X1876521Y703471D01*
Y705470D01*
X1877520Y706470D01*
X1757328Y692944D02*
X1756328Y693944D01*
X1754329D01*
X1753329Y692944D01*
Y691945D01*
X1754329Y690945D01*
X1756328D01*
X1757328Y689945D01*
Y688945D01*
X1756328Y687946D01*
X1754329D01*
X1753329Y688945D01*
X1759327Y687946D02*
X1761327D01*
X1760327D01*
Y693944D01*
X1759327Y692944D01*
X1768324Y687946D02*
X1764326D01*
X1768324Y691945D01*
Y692944D01*
X1767325Y693944D01*
X1765325D01*
X1764326Y692944D01*
X1683524D02*
X1682525Y693944D01*
X1680525D01*
X1679526Y692944D01*
Y691945D01*
X1680525Y690945D01*
X1682525D01*
X1683524Y689945D01*
Y688945D01*
X1682525Y687946D01*
X1680525D01*
X1679526Y688945D01*
X1685524Y687946D02*
X1687523D01*
X1686523D01*
Y693944D01*
X1685524Y692944D01*
X1690522Y687946D02*
X1692521D01*
X1691522D01*
Y693944D01*
X1690522Y692944D01*
X1608706D02*
X1607706Y693944D01*
X1605707D01*
X1604707Y692944D01*
Y691945D01*
X1605707Y690945D01*
X1607706D01*
X1608706Y689945D01*
Y688945D01*
X1607706Y687946D01*
X1605707D01*
X1604707Y688945D01*
X1610705Y687946D02*
X1612705D01*
X1611705D01*
Y693944D01*
X1610705Y692944D01*
X1615704D02*
X1616703Y693944D01*
X1618703D01*
X1619702Y692944D01*
Y688945D01*
X1618703Y687946D01*
X1616703D01*
X1615704Y688945D01*
Y692944D01*
X1533449D02*
X1532450Y693944D01*
X1530450D01*
X1529450Y692944D01*
Y691945D01*
X1530450Y690945D01*
X1532450D01*
X1533449Y689945D01*
Y688945D01*
X1532450Y687946D01*
X1530450D01*
X1529450Y688945D01*
X1535448D02*
X1536448Y687946D01*
X1538447D01*
X1539447Y688945D01*
Y692944D01*
X1538447Y693944D01*
X1536448D01*
X1535448Y692944D01*
Y691945D01*
X1536448Y690945D01*
X1539447D01*
X1757859Y767747D02*
X1756859Y768747D01*
X1754860D01*
X1753860Y767747D01*
Y766748D01*
X1754860Y765748D01*
X1756859D01*
X1757859Y764748D01*
Y763749D01*
X1756859Y762749D01*
X1754860D01*
X1753860Y763749D01*
X1759858Y768747D02*
X1763857D01*
Y767747D01*
X1759858Y763749D01*
Y762749D01*
X1684040Y767747D02*
X1683040Y768747D01*
X1681041D01*
X1680041Y767747D01*
Y766748D01*
X1681041Y765748D01*
X1683040D01*
X1684040Y764748D01*
Y763749D01*
X1683040Y762749D01*
X1681041D01*
X1680041Y763749D01*
X1690038Y768747D02*
X1688038Y767747D01*
X1686039Y765748D01*
Y763749D01*
X1687039Y762749D01*
X1689038D01*
X1690038Y763749D01*
Y764748D01*
X1689038Y765748D01*
X1686039D01*
X1608252Y767747D02*
X1607253Y768747D01*
X1605253D01*
X1604254Y767747D01*
Y766748D01*
X1605253Y765748D01*
X1607253D01*
X1608252Y764748D01*
Y763749D01*
X1607253Y762749D01*
X1605253D01*
X1604254Y763749D01*
X1614250Y768747D02*
X1610252D01*
Y765748D01*
X1612251Y766748D01*
X1613251D01*
X1614250Y765748D01*
Y763749D01*
X1613251Y762749D01*
X1611251D01*
X1610252Y763749D01*
X1533449Y767747D02*
X1532450Y768747D01*
X1530450D01*
X1529450Y767747D01*
Y766748D01*
X1530450Y765748D01*
X1532450D01*
X1533449Y764748D01*
Y763749D01*
X1532450Y762749D01*
X1530450D01*
X1529450Y763749D01*
X1538447Y762749D02*
Y768747D01*
X1535448Y765748D01*
X1539447D01*
X1758843Y842550D02*
X1757843Y843550D01*
X1755844D01*
X1754844Y842550D01*
Y841551D01*
X1755844Y840551D01*
X1757843D01*
X1758843Y839552D01*
Y838552D01*
X1757843Y837552D01*
X1755844D01*
X1754844Y838552D01*
X1760842Y842550D02*
X1761842Y843550D01*
X1763841D01*
X1764841Y842550D01*
Y841551D01*
X1763841Y840551D01*
X1762841D01*
X1763841D01*
X1764841Y839552D01*
Y838552D01*
X1763841Y837552D01*
X1761842D01*
X1760842Y838552D01*
X1684040Y842550D02*
X1683040Y843550D01*
X1681041D01*
X1680041Y842550D01*
Y841551D01*
X1681041Y840551D01*
X1683040D01*
X1684040Y839552D01*
Y838552D01*
X1683040Y837552D01*
X1681041D01*
X1680041Y838552D01*
X1690038Y837552D02*
X1686039D01*
X1690038Y841551D01*
Y842550D01*
X1689038Y843550D01*
X1687039D01*
X1686039Y842550D01*
X1717458Y963536D02*
Y969534D01*
X1720457D01*
X1721457Y968535D01*
Y966535D01*
X1720457Y965536D01*
X1717458D01*
X1723456Y963536D02*
X1725455D01*
X1724456D01*
Y969534D01*
X1723456Y968535D01*
M02*
