M48
;Layer_Color=9474304
;FILE_FORMAT=2:4
INCH,TZ
;TYPE=PLATED
T7F00S00C0.1102
%
G90
G05
T07
G00X184967Y53050
M15
G01X184809
M16
G00X177467Y49380
M15
G01X177309
M16
G00X177309Y56886
M15
G01X177467
M16
G00X169809Y56886
M15
G01X169967
M16
G00X162309Y56886
M15
G01X162467
M16
G00X162467Y49380
M15
G01X162309
M16
G00X169967Y49380
M15
G01X169809
M16
G00X154967Y49380
M15
G01X154809
M16
G00X154809Y56886
M15
G01X154967
M16
G00X154967Y64369
M15
G01X154809
M16
G00X154809Y71879
M15
G01X154967
M16
G00X162309Y71879
M15
G01X162467
M16
G00X169809Y71879
M15
G01X169967
M16
G00X169967Y64369
M15
G01X169809
M16
G00X162467Y64369
M15
G01X162309
M16
G00X177467Y64369
M15
G01X177309
M16
G00X177309Y71879
M15
G01X177467
M16
G00X184809Y68106
M15
G01X184967
M16
G00X184967Y79376
M15
G01X184809
M16
G00X177467Y79376
M15
G01X177309
M16
G00X169967Y79376
M15
G01X169809
M16
G00X162467Y79376
M15
G01X162309
M16
G00X154967Y79376
M15
G01X154809
M16
M30
