G04*
G04 #@! TF.GenerationSoftware,Altium Limited,Altium Designer,21.9.1 (22)*
G04*
G04 Layer_Color=16711935*
%FSLAX25Y25*%
%MOIN*%
G70*
G04*
G04 #@! TF.SameCoordinates,29281BF1-B37C-4538-9C3D-308B06FF8435*
G04*
G04*
G04 #@! TF.FilePolarity,Negative*
G04*
G01*
G75*
%ADD16C,0.16291*%
%ADD17C,0.12591*%
%ADD18C,0.12213*%
%ADD19C,0.07102*%
%ADD20C,0.16102*%
%ADD21C,0.13189*%
G04:AMPARAMS|DCode=22|XSize=102.36mil|YSize=185.04mil|CornerRadius=51.18mil|HoleSize=0mil|Usage=FLASHONLY|Rotation=0.000|XOffset=0mil|YOffset=0mil|HoleType=Round|Shape=RoundedRectangle|*
%AMROUNDEDRECTD22*
21,1,0.10236,0.08268,0,0,0.0*
21,1,0.00000,0.18504,0,0,0.0*
1,1,0.10236,0.00000,-0.04134*
1,1,0.10236,0.00000,-0.04134*
1,1,0.10236,0.00000,0.04134*
1,1,0.10236,0.00000,0.04134*
%
%ADD22ROUNDEDRECTD22*%
%ADD23C,0.06102*%
%ADD24R,0.06102X0.06102*%
%ADD25R,0.06496X0.06496*%
%ADD26C,0.06496*%
%ADD27C,0.07991*%
%ADD28C,0.05591*%
%ADD44R,0.05315X0.03740*%
%ADD47R,0.10244X0.12213*%
%ADD48R,0.12213X0.10244*%
%ADD49R,0.06496X0.04134*%
%ADD50R,0.04134X0.04331*%
D16*
X1816378Y744705D02*
D03*
Y650705D02*
D03*
Y594705D02*
D03*
Y500705D02*
D03*
D17*
X1868878Y650705D02*
D03*
X1876378Y744705D02*
D03*
Y594705D02*
D03*
Y500705D02*
D03*
D18*
X1858878Y562705D02*
D03*
X1868878Y537705D02*
D03*
X1758878Y520433D02*
D03*
X1783878Y530433D02*
D03*
X1683878Y520433D02*
D03*
X1708878Y530433D02*
D03*
X1608878Y520433D02*
D03*
X1633878Y530433D02*
D03*
X1533878Y520433D02*
D03*
X1558878Y530433D02*
D03*
X1533878Y595433D02*
D03*
X1558878Y605433D02*
D03*
X1608878Y595433D02*
D03*
X1633878Y605433D02*
D03*
X1683878Y595433D02*
D03*
X1708878Y605433D02*
D03*
X1758878Y595433D02*
D03*
X1783878Y605433D02*
D03*
X1758878Y670433D02*
D03*
X1783878Y680433D02*
D03*
X1683878Y670433D02*
D03*
X1708878Y680433D02*
D03*
X1608878Y670433D02*
D03*
X1633878Y680433D02*
D03*
X1533878Y670433D02*
D03*
X1558878Y680433D02*
D03*
Y755433D02*
D03*
X1533878Y745433D02*
D03*
X1608878D02*
D03*
X1633878Y755433D02*
D03*
X1683878Y745433D02*
D03*
X1708878Y755433D02*
D03*
X1758878Y745433D02*
D03*
X1783878Y755433D02*
D03*
X1858878Y712705D02*
D03*
X1868878Y687705D02*
D03*
X1858878Y830433D02*
D03*
X1833878Y820433D02*
D03*
X1783878Y830433D02*
D03*
X1758878Y820433D02*
D03*
X1708878Y830433D02*
D03*
X1683878Y820433D02*
D03*
X1633878Y830433D02*
D03*
X1608878Y820433D02*
D03*
D19*
X1848878Y527705D02*
D03*
Y567705D02*
D03*
X1793878Y510433D02*
D03*
X1753878D02*
D03*
X1718878D02*
D03*
X1678878D02*
D03*
X1643878D02*
D03*
X1603878D02*
D03*
X1568878D02*
D03*
X1528878D02*
D03*
X1568878Y585433D02*
D03*
X1528878D02*
D03*
X1643878D02*
D03*
X1603878D02*
D03*
X1718878D02*
D03*
X1678878D02*
D03*
X1793878D02*
D03*
X1753878D02*
D03*
X1793878Y660433D02*
D03*
X1753878D02*
D03*
X1718878D02*
D03*
X1678878D02*
D03*
X1643878D02*
D03*
X1603878D02*
D03*
X1568878D02*
D03*
X1528878D02*
D03*
Y735433D02*
D03*
X1568878D02*
D03*
X1643878D02*
D03*
X1603878D02*
D03*
X1718878D02*
D03*
X1678878D02*
D03*
X1793878D02*
D03*
X1753878D02*
D03*
X1848878Y677705D02*
D03*
Y717705D02*
D03*
X1828878Y810433D02*
D03*
X1868878D02*
D03*
X1753878D02*
D03*
X1793878D02*
D03*
X1678878D02*
D03*
X1718878D02*
D03*
X1603878D02*
D03*
X1643878D02*
D03*
D20*
X1848878Y547705D02*
D03*
X1773878Y510433D02*
D03*
X1698878D02*
D03*
X1623878D02*
D03*
X1548878D02*
D03*
Y585433D02*
D03*
X1623878D02*
D03*
X1698878D02*
D03*
X1773878D02*
D03*
Y660433D02*
D03*
X1698878D02*
D03*
X1623878D02*
D03*
X1548878D02*
D03*
Y735433D02*
D03*
X1623878D02*
D03*
X1698878D02*
D03*
X1773878D02*
D03*
X1848878Y697705D02*
D03*
Y810433D02*
D03*
X1773878D02*
D03*
X1698878D02*
D03*
X1623878D02*
D03*
D21*
X1551575Y623228D02*
D03*
X1865158Y936024D02*
D03*
X1633858Y887795D02*
D03*
X1846700Y612400D02*
D03*
D22*
X1870866Y884061D02*
D03*
X1826772D02*
D03*
D23*
X1858661Y911620D02*
D03*
X1838976D02*
D03*
X1858661Y854533D02*
D03*
X1848819D02*
D03*
D24*
X1838976D02*
D03*
D25*
X1721378Y956594D02*
D03*
D26*
X1731378D02*
D03*
X1741378D02*
D03*
X1751378D02*
D03*
X1749173Y880837D02*
D03*
Y863120D02*
D03*
X1723583D02*
D03*
Y880837D02*
D03*
D27*
X1578878Y900886D02*
D03*
Y890886D02*
D03*
Y880886D02*
D03*
Y870886D02*
D03*
Y860886D02*
D03*
Y850886D02*
D03*
Y840886D02*
D03*
Y830886D02*
D03*
Y820886D02*
D03*
Y810886D02*
D03*
Y800886D02*
D03*
Y790886D02*
D03*
X1518878Y900886D02*
D03*
Y890886D02*
D03*
Y880886D02*
D03*
Y870886D02*
D03*
Y860886D02*
D03*
Y850886D02*
D03*
Y840886D02*
D03*
Y830886D02*
D03*
Y820886D02*
D03*
Y810886D02*
D03*
Y800886D02*
D03*
Y790886D02*
D03*
D28*
X1616142Y633858D02*
D03*
X1519685Y933071D02*
D03*
X1556102Y909449D02*
D03*
X1729331Y920276D02*
D03*
Y927165D02*
D03*
X1785433Y856299D02*
D03*
X1541339Y710630D02*
D03*
X1579724Y704724D02*
D03*
X1616142D02*
D03*
X1654528D02*
D03*
X1664370D02*
D03*
X1690945D02*
D03*
X1840846Y779823D02*
D03*
X1765748Y705709D02*
D03*
X1742126Y783465D02*
D03*
X1765748D02*
D03*
X1690945D02*
D03*
X1616142D02*
D03*
X1756890Y873032D02*
D03*
X1580646Y633858D02*
D03*
X1541339D02*
D03*
X1590551D02*
D03*
X1840551Y669291D02*
D03*
X1690945Y633858D02*
D03*
X1765748D02*
D03*
X1541339Y559055D02*
D03*
X1616142D02*
D03*
X1690945D02*
D03*
X1765748D02*
D03*
X1841043Y514272D02*
D03*
X1657480Y790158D02*
D03*
X1732185Y794882D02*
D03*
X1596555Y840433D02*
D03*
X1804823Y818012D02*
D03*
X1725197Y841043D02*
D03*
X1543898Y901024D02*
D03*
X1574508Y945177D02*
D03*
X1518878Y482933D02*
D03*
D44*
X1670276Y951181D02*
D03*
Y957087D02*
D03*
X1612500Y951280D02*
D03*
Y957185D02*
D03*
X1804429Y961220D02*
D03*
Y955315D02*
D03*
D47*
X1858878Y578413D02*
D03*
X1868878Y521721D02*
D03*
X1858878Y728413D02*
D03*
X1868878Y671721D02*
D03*
D48*
X1743169Y520433D02*
D03*
X1799862Y530433D02*
D03*
X1668169Y520433D02*
D03*
X1724862Y530433D02*
D03*
X1593169Y520433D02*
D03*
X1649862Y530433D02*
D03*
X1518169Y520433D02*
D03*
X1574862Y530433D02*
D03*
X1518169Y595433D02*
D03*
X1574862Y605433D02*
D03*
X1593169Y595433D02*
D03*
X1649862Y605433D02*
D03*
X1668169Y595433D02*
D03*
X1724862Y605433D02*
D03*
X1743169Y595433D02*
D03*
X1799862Y605433D02*
D03*
X1743169Y670433D02*
D03*
X1799862Y680433D02*
D03*
X1668169Y670433D02*
D03*
X1724862Y680433D02*
D03*
X1593169Y670433D02*
D03*
X1649862Y680433D02*
D03*
X1518169Y670433D02*
D03*
X1574862Y680433D02*
D03*
Y755433D02*
D03*
X1518169Y745433D02*
D03*
X1593169D02*
D03*
X1649862Y755433D02*
D03*
X1668169Y745433D02*
D03*
X1724862Y755433D02*
D03*
X1743169Y745433D02*
D03*
X1799862Y755433D02*
D03*
X1874862Y830433D02*
D03*
X1818169Y820433D02*
D03*
X1799862Y830433D02*
D03*
X1743169Y820433D02*
D03*
X1724862Y830433D02*
D03*
X1668169Y820433D02*
D03*
X1649862Y830433D02*
D03*
X1593169Y820433D02*
D03*
D49*
X1692520Y951378D02*
D03*
Y938386D02*
D03*
X1711811D02*
D03*
Y951378D02*
D03*
X1565453D02*
D03*
Y938386D02*
D03*
X1584744D02*
D03*
Y951378D02*
D03*
X1819193D02*
D03*
Y938386D02*
D03*
X1838484D02*
D03*
Y951378D02*
D03*
D50*
X1753642Y492126D02*
D03*
X1766043Y492126D02*
D03*
X1691240D02*
D03*
X1678839Y492126D02*
D03*
X1840846Y791339D02*
D03*
X1828445Y791339D02*
D03*
X1541634Y716535D02*
D03*
X1529232Y716535D02*
D03*
X1616437Y791339D02*
D03*
X1604035Y791339D02*
D03*
X1616437Y492126D02*
D03*
X1604035Y492126D02*
D03*
X1541634Y492126D02*
D03*
X1529232Y492126D02*
D03*
X1840846Y527559D02*
D03*
X1828445Y527559D02*
D03*
X1766043Y566929D02*
D03*
X1753642Y566929D02*
D03*
X1691240Y566929D02*
D03*
X1678839Y566929D02*
D03*
X1616437Y566929D02*
D03*
X1604035Y566929D02*
D03*
X1541634Y566929D02*
D03*
X1529232Y566929D02*
D03*
X1840846Y677165D02*
D03*
X1828445Y677165D02*
D03*
X1766043Y641732D02*
D03*
X1753642Y641732D02*
D03*
X1691240Y641732D02*
D03*
X1678839Y641732D02*
D03*
X1616437Y641732D02*
D03*
X1604035Y641732D02*
D03*
X1541634Y641732D02*
D03*
X1529232Y641732D02*
D03*
X1766043Y716535D02*
D03*
X1753642Y716535D02*
D03*
X1691240Y716535D02*
D03*
X1678839Y716535D02*
D03*
X1616437Y716535D02*
D03*
X1604035Y716535D02*
D03*
X1798476Y920292D02*
D03*
X1810878Y920292D02*
D03*
X1780118Y920177D02*
D03*
X1767716Y920177D02*
D03*
X1766043Y791339D02*
D03*
X1753642Y791339D02*
D03*
X1691240Y791339D02*
D03*
X1678839Y791339D02*
D03*
M02*
