G04*
G04 #@! TF.GenerationSoftware,Altium Limited,Altium Designer,21.9.1 (22)*
G04*
G04 Layer_Physical_Order=1*
G04 Layer_Color=255*
%FSLAX25Y25*%
%MOIN*%
G70*
G04*
G04 #@! TF.SameCoordinates,29281BF1-B37C-4538-9C3D-308B06FF8435*
G04*
G04*
G04 #@! TF.FilePolarity,Positive*
G04*
G01*
G75*
%ADD15R,0.12598X0.03937*%
G04:AMPARAMS|DCode=22|XSize=102.36mil|YSize=185.04mil|CornerRadius=51.18mil|HoleSize=0mil|Usage=FLASHONLY|Rotation=0.000|XOffset=0mil|YOffset=0mil|HoleType=Round|Shape=RoundedRectangle|*
%AMROUNDEDRECTD22*
21,1,0.10236,0.08268,0,0,0.0*
21,1,0.00000,0.18504,0,0,0.0*
1,1,0.10236,0.00000,-0.04134*
1,1,0.10236,0.00000,-0.04134*
1,1,0.10236,0.00000,0.04134*
1,1,0.10236,0.00000,0.04134*
%
%ADD22ROUNDEDRECTD22*%
%ADD23C,0.06102*%
%ADD24R,0.06102X0.06102*%
%ADD29C,0.02000*%
%ADD30C,0.05000*%
%ADD31R,0.05512X0.06102*%
%ADD32C,0.15701*%
%ADD33C,0.12000*%
%ADD34C,0.11811*%
%ADD35C,0.06700*%
%ADD36C,0.15700*%
%ADD37C,0.12598*%
%ADD38R,0.05906X0.05906*%
%ADD39C,0.05906*%
%ADD40C,0.07400*%
%ADD41C,0.05000*%
D15*
X1557283Y933071D02*
D03*
X1530512D02*
D03*
X1557283Y948819D02*
D03*
X1530512D02*
D03*
D22*
X1870866Y884061D02*
D03*
X1826772D02*
D03*
D23*
X1858661Y911620D02*
D03*
X1838976D02*
D03*
X1858661Y854533D02*
D03*
X1848819D02*
D03*
D24*
X1838976D02*
D03*
D29*
X1830846Y733400D02*
X1831827Y733448D01*
X1832797Y733592D01*
X1833749Y733831D01*
X1834673Y734161D01*
X1835560Y734581D01*
X1836402Y735085D01*
X1837190Y735670D01*
X1837918Y736329D01*
X1838577Y737056D01*
X1839161Y737844D01*
X1839666Y738686D01*
X1840085Y739573D01*
X1840416Y740497D01*
X1840654Y741449D01*
X1840798Y742420D01*
X1840846Y743400D01*
X1817087Y733400D02*
X1816106Y733352D01*
X1815136Y733208D01*
X1814184Y732969D01*
X1813260Y732639D01*
X1812373Y732219D01*
X1811531Y731715D01*
X1810743Y731130D01*
X1810015Y730471D01*
X1809356Y729744D01*
X1808772Y728956D01*
X1808267Y728114D01*
X1807848Y727227D01*
X1807517Y726303D01*
X1807279Y725351D01*
X1807135Y724380D01*
X1807087Y723400D01*
X1798228Y705709D02*
X1799220Y705764D01*
X1800200Y705931D01*
X1801154Y706206D01*
X1802072Y706586D01*
X1802941Y707066D01*
X1803751Y707641D01*
X1804492Y708303D01*
X1805154Y709044D01*
X1805729Y709854D01*
X1806209Y710723D01*
X1806590Y711641D01*
X1806865Y712596D01*
X1807031Y713575D01*
X1807087Y714567D01*
X1542165Y860886D02*
X1543145Y860934D01*
X1544116Y861078D01*
X1545068Y861316D01*
X1545992Y861647D01*
X1546879Y862067D01*
X1547721Y862571D01*
X1548509Y863156D01*
X1549236Y863815D01*
X1549895Y864542D01*
X1550480Y865330D01*
X1550985Y866172D01*
X1551404Y867059D01*
X1551735Y867983D01*
X1551973Y868935D01*
X1552117Y869906D01*
X1552165Y870886D01*
X1556102Y909449D02*
X1555083Y909315D01*
X1554134Y908921D01*
X1553319Y908296D01*
X1552693Y907480D01*
X1552299Y906531D01*
X1552165Y905512D01*
X1731378Y927165D02*
X1732358Y927213D01*
X1733329Y927357D01*
X1734281Y927596D01*
X1735205Y927927D01*
X1736092Y928346D01*
X1736934Y928851D01*
X1737722Y929435D01*
X1738449Y930094D01*
X1739108Y930821D01*
X1739693Y931610D01*
X1740197Y932451D01*
X1740617Y933339D01*
X1740947Y934262D01*
X1741186Y935215D01*
X1741330Y936185D01*
X1741378Y937165D01*
Y920276D02*
X1742358Y920324D01*
X1743329Y920468D01*
X1744281Y920706D01*
X1745205Y921037D01*
X1746092Y921456D01*
X1746934Y921961D01*
X1747722Y922546D01*
X1748449Y923205D01*
X1749108Y923932D01*
X1749693Y924720D01*
X1750197Y925562D01*
X1750617Y926449D01*
X1750947Y927373D01*
X1751186Y928325D01*
X1751330Y929295D01*
X1751378Y930276D01*
X1723583Y863120D02*
X1723652Y862150D01*
X1723859Y861199D01*
X1724199Y860287D01*
X1724665Y859433D01*
X1725249Y858654D01*
X1725937Y857965D01*
X1726716Y857382D01*
X1727570Y856916D01*
X1728482Y856575D01*
X1729433Y856369D01*
X1730404Y856299D01*
X1541339Y710630D02*
X1541428Y709604D01*
X1541695Y708610D01*
X1542130Y707677D01*
X1542720Y706834D01*
X1543448Y706106D01*
X1544291Y705516D01*
X1545224Y705081D01*
X1546219Y704814D01*
X1547244Y704724D01*
X1734252Y714567D02*
X1734308Y713575D01*
X1734474Y712596D01*
X1734749Y711641D01*
X1735129Y710723D01*
X1735610Y709854D01*
X1736185Y709044D01*
X1736847Y708303D01*
X1737587Y707641D01*
X1738397Y707066D01*
X1739267Y706586D01*
X1740185Y706206D01*
X1741139Y705931D01*
X1742118Y705764D01*
X1743110Y705709D01*
X1724409Y704724D02*
X1725438Y704778D01*
X1726456Y704940D01*
X1727451Y705206D01*
X1728413Y705575D01*
X1729331Y706043D01*
X1730195Y706604D01*
X1730995Y707253D01*
X1731724Y707981D01*
X1732372Y708782D01*
X1732933Y709646D01*
X1733401Y710564D01*
X1733770Y711525D01*
X1734037Y712521D01*
X1734198Y713538D01*
X1734252Y714567D01*
Y769528D02*
X1734195Y770537D01*
X1734026Y771534D01*
X1733746Y772505D01*
X1733359Y773439D01*
X1732870Y774324D01*
X1732285Y775149D01*
X1731611Y775903D01*
X1730857Y776576D01*
X1730033Y777161D01*
X1729148Y777650D01*
X1728214Y778037D01*
X1727242Y778317D01*
X1726246Y778487D01*
X1725236Y778543D01*
X1545276Y789528D02*
X1545323Y788514D01*
X1545463Y787509D01*
X1545695Y786522D01*
X1546017Y785560D01*
X1546427Y784631D01*
X1546921Y783745D01*
X1547494Y782908D01*
X1548142Y782128D01*
X1548860Y781410D01*
X1549640Y780762D01*
X1550477Y780189D01*
X1551364Y779695D01*
X1552292Y779285D01*
X1553254Y778963D01*
X1554241Y778730D01*
X1555246Y778590D01*
X1556260Y778543D01*
X1545276Y810886D02*
X1545227Y811866D01*
X1545083Y812837D01*
X1544845Y813789D01*
X1544514Y814713D01*
X1544095Y815600D01*
X1543590Y816442D01*
X1543006Y817230D01*
X1542347Y817957D01*
X1541619Y818616D01*
X1540831Y819201D01*
X1539990Y819705D01*
X1539102Y820125D01*
X1538178Y820455D01*
X1537226Y820694D01*
X1536256Y820838D01*
X1535276Y820886D01*
X1567913Y793465D02*
X1567962Y792484D01*
X1568106Y791514D01*
X1568344Y790562D01*
X1568675Y789638D01*
X1569094Y788751D01*
X1569599Y787909D01*
X1570183Y787121D01*
X1570842Y786393D01*
X1571570Y785735D01*
X1572358Y785150D01*
X1573199Y784645D01*
X1574087Y784226D01*
X1575010Y783895D01*
X1575963Y783657D01*
X1576933Y783513D01*
X1577913Y783465D01*
X1567913Y820886D02*
X1567865Y821866D01*
X1567721Y822837D01*
X1567483Y823789D01*
X1567152Y824713D01*
X1566733Y825600D01*
X1566228Y826441D01*
X1565644Y827230D01*
X1564985Y827957D01*
X1564257Y828616D01*
X1563469Y829200D01*
X1562627Y829705D01*
X1561740Y830125D01*
X1560816Y830455D01*
X1559864Y830694D01*
X1558894Y830838D01*
X1557913Y830886D01*
X1822008Y911620D02*
X1821028Y911572D01*
X1820057Y911428D01*
X1819105Y911189D01*
X1818181Y910859D01*
X1817294Y910439D01*
X1816452Y909935D01*
X1815664Y909350D01*
X1814937Y908691D01*
X1814278Y907964D01*
X1813693Y907176D01*
X1813189Y906334D01*
X1812769Y905447D01*
X1812439Y904523D01*
X1812200Y903571D01*
X1812056Y902600D01*
X1812008Y901620D01*
X1802008Y873032D02*
X1802988Y873080D01*
X1803959Y873224D01*
X1804911Y873462D01*
X1805835Y873793D01*
X1806722Y874212D01*
X1807564Y874717D01*
X1808352Y875301D01*
X1809079Y875960D01*
X1809738Y876688D01*
X1810323Y877476D01*
X1810827Y878318D01*
X1811247Y879205D01*
X1811577Y880129D01*
X1811816Y881081D01*
X1811960Y882051D01*
X1812008Y883031D01*
X1580709Y559055D02*
X1581728Y559189D01*
X1582677Y559583D01*
X1583492Y560208D01*
X1584118Y561024D01*
X1584511Y561973D01*
X1584646Y562992D01*
X1584752Y562050D01*
X1585065Y561156D01*
X1585569Y560353D01*
X1586239Y559683D01*
X1587042Y559179D01*
X1587936Y558866D01*
X1588878Y558760D01*
X1584646Y757717D02*
X1584605Y758705D01*
X1584482Y759687D01*
X1584279Y760655D01*
X1583997Y761603D01*
X1583638Y762524D01*
X1583203Y763413D01*
X1582697Y764263D01*
X1582122Y765068D01*
X1581483Y765823D01*
X1580783Y766522D01*
X1580028Y767161D01*
X1579223Y767736D01*
X1578374Y768243D01*
X1577485Y768677D01*
X1576563Y769036D01*
X1575615Y769319D01*
X1574647Y769522D01*
X1573666Y769644D01*
X1572677Y769685D01*
X1659449Y643701D02*
X1659503Y642672D01*
X1659664Y641654D01*
X1659930Y640659D01*
X1660300Y639698D01*
X1660768Y638779D01*
X1661329Y637916D01*
X1661977Y637115D01*
X1662705Y636386D01*
X1663506Y635738D01*
X1664370Y635177D01*
X1665288Y634709D01*
X1666250Y634340D01*
X1667245Y634073D01*
X1668262Y633912D01*
X1669291Y633858D01*
X1651575D02*
X1652603Y633926D01*
X1653613Y634127D01*
X1654588Y634458D01*
X1655512Y634913D01*
X1656368Y635485D01*
X1657143Y636165D01*
X1657822Y636939D01*
X1658394Y637795D01*
X1658850Y638719D01*
X1659180Y639694D01*
X1659381Y640704D01*
X1659449Y641732D01*
X1830551Y633858D02*
X1831531Y633906D01*
X1832502Y634050D01*
X1833454Y634289D01*
X1834378Y634620D01*
X1835265Y635039D01*
X1836107Y635544D01*
X1836895Y636128D01*
X1837622Y636787D01*
X1838281Y637514D01*
X1838866Y638303D01*
X1839370Y639144D01*
X1839790Y640031D01*
X1840121Y640955D01*
X1840359Y641907D01*
X1840503Y642878D01*
X1840551Y643858D01*
X1659449Y765748D02*
X1659395Y766777D01*
X1659234Y767794D01*
X1658967Y768789D01*
X1658598Y769751D01*
X1658130Y770669D01*
X1657569Y771533D01*
X1656921Y772334D01*
X1656192Y773062D01*
X1655392Y773711D01*
X1654528Y774272D01*
X1653610Y774740D01*
X1652648Y775109D01*
X1651653Y775376D01*
X1650635Y775537D01*
X1649606Y775591D01*
X1531496Y783465D02*
X1531563Y782437D01*
X1531764Y781427D01*
X1532095Y780451D01*
X1532551Y779528D01*
X1533123Y778671D01*
X1533802Y777897D01*
X1534577Y777218D01*
X1535433Y776646D01*
X1536357Y776190D01*
X1537332Y775859D01*
X1538342Y775658D01*
X1539370Y775591D01*
X1531496Y800886D02*
X1531448Y801866D01*
X1531304Y802837D01*
X1531065Y803789D01*
X1530735Y804713D01*
X1530315Y805600D01*
X1529811Y806441D01*
X1529226Y807230D01*
X1528567Y807957D01*
X1527840Y808616D01*
X1527052Y809200D01*
X1526210Y809705D01*
X1525323Y810125D01*
X1524399Y810455D01*
X1523447Y810694D01*
X1522476Y810838D01*
X1521496Y810886D01*
X1525591Y775591D02*
X1525680Y774565D01*
X1525947Y773571D01*
X1526382Y772638D01*
X1526972Y771795D01*
X1527700Y771067D01*
X1528543Y770476D01*
X1529476Y770041D01*
X1530471Y769775D01*
X1531496Y769685D01*
X1525591Y794173D02*
X1525522Y795128D01*
X1525319Y796064D01*
X1524984Y796962D01*
X1524525Y797802D01*
X1523951Y798569D01*
X1523274Y799246D01*
X1522507Y799820D01*
X1521667Y800279D01*
X1520769Y800614D01*
X1519833Y800817D01*
X1518878Y800886D01*
X1810728Y548760D02*
X1810680Y549740D01*
X1810536Y550711D01*
X1810298Y551663D01*
X1809967Y552587D01*
X1809548Y553474D01*
X1809043Y554316D01*
X1808459Y555104D01*
X1807799Y555831D01*
X1807072Y556490D01*
X1806284Y557074D01*
X1805442Y557579D01*
X1804555Y557999D01*
X1803631Y558329D01*
X1802679Y558568D01*
X1801708Y558712D01*
X1800728Y558760D01*
X1810728Y524272D02*
X1810777Y523291D01*
X1810921Y522321D01*
X1811159Y521369D01*
X1811489Y520445D01*
X1811909Y519558D01*
X1812414Y518716D01*
X1812998Y517928D01*
X1813657Y517201D01*
X1814384Y516542D01*
X1815173Y515957D01*
X1816014Y515452D01*
X1816902Y515033D01*
X1817826Y514702D01*
X1818777Y514464D01*
X1819748Y514320D01*
X1820728Y514272D01*
X1578878Y790886D02*
X1579606Y790158D01*
X1588287Y797539D02*
X1588124Y798573D01*
X1587648Y799506D01*
X1586908Y800247D01*
X1585975Y800722D01*
X1584941Y800886D01*
X1588287Y797539D02*
X1588490Y796522D01*
X1589066Y795660D01*
X1589928Y795084D01*
X1590945Y794882D01*
X1592028Y806299D02*
X1592106Y805298D01*
X1592341Y804322D01*
X1592725Y803395D01*
X1593249Y802539D01*
X1593901Y801775D01*
X1594665Y801123D01*
X1595521Y800599D01*
X1596448Y800215D01*
X1597424Y799980D01*
X1598425Y799902D01*
X1592028Y806299D02*
X1591913Y807320D01*
X1591573Y808289D01*
X1591027Y809159D01*
X1590301Y809885D01*
X1589431Y810432D01*
X1588462Y810771D01*
X1587441Y810886D01*
X1796004Y799902D02*
X1796991Y799957D01*
X1797966Y800123D01*
X1798917Y800397D01*
X1799830Y800775D01*
X1800696Y801253D01*
X1801502Y801826D01*
X1802240Y802485D01*
X1802899Y803222D01*
X1803471Y804029D01*
X1803950Y804894D01*
X1804328Y805808D01*
X1804602Y806758D01*
X1804767Y807733D01*
X1804823Y808720D01*
X1586555Y820886D02*
X1587535Y820934D01*
X1588506Y821078D01*
X1589458Y821316D01*
X1590382Y821647D01*
X1591269Y822067D01*
X1592111Y822571D01*
X1592899Y823156D01*
X1593626Y823815D01*
X1594285Y824542D01*
X1594870Y825330D01*
X1595374Y826172D01*
X1595794Y827059D01*
X1596124Y827983D01*
X1596363Y828935D01*
X1596507Y829906D01*
X1596555Y830886D01*
X1849601Y845472D02*
X1850615Y845529D01*
X1851617Y845700D01*
X1852593Y845981D01*
X1853532Y846370D01*
X1854421Y846861D01*
X1855250Y847449D01*
X1856008Y848126D01*
X1856685Y848884D01*
X1857273Y849713D01*
X1857764Y850602D01*
X1858153Y851541D01*
X1858434Y852517D01*
X1858604Y853519D01*
X1858661Y854533D01*
X1583465Y845472D02*
X1582444Y845357D01*
X1581474Y845018D01*
X1580605Y844472D01*
X1579879Y843746D01*
X1579332Y842876D01*
X1578993Y841907D01*
X1578878Y840886D01*
X1578543Y941142D02*
X1578406Y942186D01*
X1578003Y943159D01*
X1577361Y943995D01*
X1576526Y944637D01*
X1575552Y945040D01*
X1574508Y945177D01*
X1571063Y868701D02*
X1571130Y867681D01*
X1571329Y866678D01*
X1571658Y865710D01*
X1572110Y864793D01*
X1572678Y863943D01*
X1573352Y863175D01*
X1574121Y862501D01*
X1574971Y861933D01*
X1575887Y861481D01*
X1576855Y861152D01*
X1577858Y860953D01*
X1578878Y860886D01*
X1835329Y850886D02*
X1836273Y851010D01*
X1837153Y851375D01*
X1837908Y851954D01*
X1838488Y852710D01*
X1838852Y853589D01*
X1838976Y854533D01*
X1543898Y938976D02*
X1543844Y940005D01*
X1543683Y941023D01*
X1543416Y942018D01*
X1543047Y942980D01*
X1542579Y943898D01*
X1542018Y944762D01*
X1541370Y945562D01*
X1540641Y946291D01*
X1539840Y946939D01*
X1538976Y947500D01*
X1538058Y947968D01*
X1537097Y948337D01*
X1536102Y948604D01*
X1535084Y948765D01*
X1534055Y948819D01*
X1518878Y790886D02*
X1518740Y791024D01*
X1817087Y733400D02*
X1830846D01*
X1807087Y714567D02*
Y723400D01*
X1616142Y633858D02*
X1651575D01*
X1590551D02*
X1616142D01*
X1756890Y873032D02*
X1802008D01*
X1518878Y860886D02*
X1542165D01*
X1552165Y870886D02*
Y905512D01*
X1729331Y920276D02*
X1741378D01*
X1729331Y927165D02*
X1731378D01*
X1751378Y930276D02*
Y956594D01*
X1741378Y937165D02*
Y956594D01*
X1730404Y856299D02*
X1785433D01*
X1547244Y704724D02*
X1579724D01*
X1616142D02*
X1654528D01*
X1690945D02*
X1724409D01*
X1664370D02*
X1690945D01*
X1734252Y714567D02*
Y769528D01*
X1743110Y705709D02*
X1765748D01*
X1798228D01*
X1840846Y743400D02*
Y779823D01*
X1545276Y789528D02*
Y810886D01*
X1556260Y778543D02*
X1725236D01*
X1518878Y820886D02*
X1535276D01*
X1742126Y783465D02*
X1765748D01*
X1690945D02*
X1742126D01*
X1518878Y830886D02*
X1557913D01*
X1567913Y793465D02*
Y820886D01*
X1577913Y783465D02*
X1616142D01*
X1690945D01*
X1590945Y794882D02*
X1732185D01*
X1539370Y775591D02*
X1649606D01*
X1531496Y769685D02*
X1572677D01*
X1822008Y911620D02*
X1838976D01*
X1812008Y883031D02*
Y901620D01*
X1584646Y562992D02*
Y757717D01*
X1690945Y558760D02*
X1765748D01*
X1616142D02*
X1690945D01*
X1541339Y559055D02*
X1580709D01*
X1588878Y558760D02*
X1616142D01*
X1765748D02*
X1800728D01*
X1541339Y633858D02*
X1580646D01*
X1659449Y643701D02*
Y765748D01*
X1765748Y633858D02*
X1830551D01*
X1840551Y643858D02*
Y669291D01*
X1690945Y633858D02*
X1765748D01*
X1669291D02*
X1690945D01*
X1531496Y783465D02*
Y800886D01*
X1518878Y810886D02*
X1521496D01*
X1525591Y775591D02*
Y794173D01*
X1810728Y524272D02*
Y548760D01*
X1820728Y514272D02*
X1841043D01*
X1578878Y790886D02*
X1579291Y790472D01*
X1579606Y790158D02*
X1657480D01*
X1578878Y800886D02*
X1584941D01*
X1598425Y799902D02*
X1796004D01*
X1578878Y810886D02*
X1587441D01*
X1578878Y820886D02*
X1586555D01*
X1596555Y830886D02*
Y840433D01*
X1804823Y808720D02*
Y818012D01*
X1725098Y840945D02*
X1725197Y841043D01*
X1583465Y845472D02*
X1849601D01*
X1543898Y901024D02*
Y938976D01*
X1578543Y922638D02*
Y941142D01*
X1571063Y868701D02*
Y922638D01*
X1578878Y850886D02*
X1835329D01*
X1530512Y948819D02*
X1534055D01*
X1518878Y482933D02*
Y790886D01*
D30*
X1711378Y902067D02*
X1712358Y902115D01*
X1713329Y902259D01*
X1714281Y902497D01*
X1715205Y902828D01*
X1716092Y903248D01*
X1716934Y903752D01*
X1717722Y904337D01*
X1718449Y904996D01*
X1719108Y905723D01*
X1719693Y906511D01*
X1720197Y907353D01*
X1720617Y908240D01*
X1720947Y909164D01*
X1721186Y910116D01*
X1721330Y911087D01*
X1721378Y912067D01*
X1585945Y870886D02*
X1586941Y870938D01*
X1587926Y871094D01*
X1588889Y871352D01*
X1589820Y871710D01*
X1590709Y872162D01*
X1591545Y872705D01*
X1592320Y873333D01*
X1593025Y874038D01*
X1593653Y874813D01*
X1594196Y875650D01*
X1594649Y876538D01*
X1595006Y877469D01*
X1595264Y878432D01*
X1595420Y879418D01*
X1595472Y880413D01*
X1605472Y902067D02*
X1604492Y902019D01*
X1603522Y901875D01*
X1602570Y901636D01*
X1601646Y901306D01*
X1600759Y900886D01*
X1599917Y900382D01*
X1599129Y899797D01*
X1598401Y899138D01*
X1597742Y898411D01*
X1597158Y897623D01*
X1596653Y896781D01*
X1596234Y895894D01*
X1595903Y894970D01*
X1595665Y894018D01*
X1595521Y893047D01*
X1595472Y892067D01*
X1530512Y933071D02*
Y933071D01*
X1519685D02*
X1530512D01*
X1721378Y912067D02*
Y956594D01*
X1605472Y902067D02*
X1711378D01*
X1578878Y870886D02*
X1585945D01*
X1595472Y880413D02*
Y892067D01*
D31*
X1571063Y922638D02*
D03*
X1578543D02*
D03*
D32*
X1816378Y744705D02*
D03*
Y650705D02*
D03*
Y594705D02*
D03*
Y500705D02*
D03*
D33*
X1868878Y650705D02*
D03*
X1876378Y744705D02*
D03*
Y594705D02*
D03*
Y500705D02*
D03*
D34*
X1858878Y562705D02*
D03*
X1868878Y537705D02*
D03*
X1758878Y520433D02*
D03*
X1783878Y530433D02*
D03*
X1683878Y520433D02*
D03*
X1708878Y530433D02*
D03*
X1608878Y520433D02*
D03*
X1633878Y530433D02*
D03*
X1533878Y520433D02*
D03*
X1558878Y530433D02*
D03*
X1533878Y595433D02*
D03*
X1558878Y605433D02*
D03*
X1608878Y595433D02*
D03*
X1633878Y605433D02*
D03*
X1683878Y595433D02*
D03*
X1708878Y605433D02*
D03*
X1758878Y595433D02*
D03*
X1783878Y605433D02*
D03*
X1758878Y670433D02*
D03*
X1783878Y680433D02*
D03*
X1683878Y670433D02*
D03*
X1708878Y680433D02*
D03*
X1608878Y670433D02*
D03*
X1633878Y680433D02*
D03*
X1533878Y670433D02*
D03*
X1558878Y680433D02*
D03*
Y755433D02*
D03*
X1533878Y745433D02*
D03*
X1608878D02*
D03*
X1633878Y755433D02*
D03*
X1683878Y745433D02*
D03*
X1708878Y755433D02*
D03*
X1758878Y745433D02*
D03*
X1783878Y755433D02*
D03*
X1858878Y712705D02*
D03*
X1868878Y687705D02*
D03*
X1858878Y830433D02*
D03*
X1833878Y820433D02*
D03*
X1783878Y830433D02*
D03*
X1758878Y820433D02*
D03*
X1708878Y830433D02*
D03*
X1683878Y820433D02*
D03*
X1633878Y830433D02*
D03*
X1608878Y820433D02*
D03*
D35*
X1848878Y527705D02*
D03*
Y567705D02*
D03*
X1793878Y510433D02*
D03*
X1753878D02*
D03*
X1718878D02*
D03*
X1678878D02*
D03*
X1643878D02*
D03*
X1603878D02*
D03*
X1568878D02*
D03*
X1528878D02*
D03*
X1568878Y585433D02*
D03*
X1528878D02*
D03*
X1643878D02*
D03*
X1603878D02*
D03*
X1718878D02*
D03*
X1678878D02*
D03*
X1793878D02*
D03*
X1753878D02*
D03*
X1793878Y660433D02*
D03*
X1753878D02*
D03*
X1718878D02*
D03*
X1678878D02*
D03*
X1643878D02*
D03*
X1603878D02*
D03*
X1568878D02*
D03*
X1528878D02*
D03*
Y735433D02*
D03*
X1568878D02*
D03*
X1643878D02*
D03*
X1603878D02*
D03*
X1718878D02*
D03*
X1678878D02*
D03*
X1793878D02*
D03*
X1753878D02*
D03*
X1848878Y677705D02*
D03*
Y717705D02*
D03*
X1828878Y810433D02*
D03*
X1868878D02*
D03*
X1753878D02*
D03*
X1793878D02*
D03*
X1678878D02*
D03*
X1718878D02*
D03*
X1603878D02*
D03*
X1643878D02*
D03*
D36*
X1848878Y547705D02*
D03*
X1773878Y510433D02*
D03*
X1698878D02*
D03*
X1623878D02*
D03*
X1548878D02*
D03*
Y585433D02*
D03*
X1623878D02*
D03*
X1698878D02*
D03*
X1773878D02*
D03*
Y660433D02*
D03*
X1698878D02*
D03*
X1623878D02*
D03*
X1548878D02*
D03*
Y735433D02*
D03*
X1623878D02*
D03*
X1698878D02*
D03*
X1773878D02*
D03*
X1848878Y697705D02*
D03*
Y810433D02*
D03*
X1773878D02*
D03*
X1698878D02*
D03*
X1623878D02*
D03*
D37*
X1551575Y623228D02*
D03*
X1865158Y936024D02*
D03*
X1633858Y887795D02*
D03*
X1846700Y612400D02*
D03*
D38*
X1721378Y956594D02*
D03*
D39*
X1731378D02*
D03*
X1741378D02*
D03*
X1751378D02*
D03*
X1749173Y880837D02*
D03*
Y863120D02*
D03*
X1723583D02*
D03*
Y880837D02*
D03*
D40*
X1578878Y900886D02*
D03*
Y890886D02*
D03*
Y880886D02*
D03*
Y870886D02*
D03*
Y860886D02*
D03*
Y850886D02*
D03*
Y840886D02*
D03*
Y830886D02*
D03*
Y820886D02*
D03*
Y810886D02*
D03*
Y800886D02*
D03*
Y790886D02*
D03*
X1518878Y900886D02*
D03*
Y890886D02*
D03*
Y880886D02*
D03*
Y870886D02*
D03*
Y860886D02*
D03*
Y850886D02*
D03*
Y840886D02*
D03*
Y830886D02*
D03*
Y820886D02*
D03*
Y810886D02*
D03*
Y800886D02*
D03*
Y790886D02*
D03*
D41*
X1616142Y633858D02*
D03*
X1519685Y933071D02*
D03*
X1556102Y909449D02*
D03*
X1729331Y920276D02*
D03*
Y927165D02*
D03*
X1785433Y856299D02*
D03*
X1541339Y710630D02*
D03*
X1579724Y704724D02*
D03*
X1616142D02*
D03*
X1654528D02*
D03*
X1664370D02*
D03*
X1690945D02*
D03*
X1840846Y779823D02*
D03*
X1765748Y705709D02*
D03*
X1742126Y783465D02*
D03*
X1765748D02*
D03*
X1690945D02*
D03*
X1616142D02*
D03*
X1756890Y873032D02*
D03*
X1580646Y633858D02*
D03*
X1541339D02*
D03*
X1590551D02*
D03*
X1840551Y669291D02*
D03*
X1690945Y633858D02*
D03*
X1765748D02*
D03*
X1541339Y559055D02*
D03*
X1616142D02*
D03*
X1690945D02*
D03*
X1765748D02*
D03*
X1841043Y514272D02*
D03*
X1657480Y790158D02*
D03*
X1732185Y794882D02*
D03*
X1596555Y840433D02*
D03*
X1804823Y818012D02*
D03*
X1725197Y841043D02*
D03*
X1543898Y901024D02*
D03*
X1574508Y945177D02*
D03*
X1518878Y482933D02*
D03*
M02*
