M48
;Layer_Color=9474304
;FILE_FORMAT=2:4
INCH,LZ
;TYPE=PLATED
T1F00S00C0.0280
T2F00S00C0.0354
T3F00S00C0.0394
T4F00S00C0.0400
T5F00S00C0.0670
T7F00S00C0.1181
T8F00S00C0.1200
T9F00S00C0.1260
T10F00S00C0.1570
%
T01
X184104Y051427
X176575Y055906
X169094
X161614
X154134
X151888Y048293
X154134Y063386
Y071063
X157972Y070472
X161614
X165453
X166437
X169094
Y063386
X161614
X159055
X158065
X176575
Y070571
X184055Y066929
X184085Y077982
X180482Y081801
X178543Y08563
X175689Y087303
X17252Y084104
X173218Y079488
X174213Y078346
X176575
X172933Y092028
Y092717
X169094Y078346
X165748Y079016
X161614Y078346
X159656Y084043
X15561Y090945
X15439Y090102
X151968Y093307
X157451Y094518
T02
X175138Y095659
X174138
X173138
X172138
T03
X185866Y085453
X184882
X183898
Y091162
X185866
X174917Y088084
Y086312
X172358
Y088084
T04
X157888Y079089
Y080089
Y081089
Y082089
Y083089
Y084089
Y085089
Y086089
Y087089
Y088089
Y089089
Y090089
X151888
Y089089
Y088089
Y087089
Y086089
Y085089
Y084089
Y083089
Y082089
Y081089
Y080089
Y079089
T05
X184888Y05277
Y05677
X179388Y058543
X175388
X171888
Y051043
X175388
X179388
X167888
X164388
X160388
X156888
Y058543
X160388
X164388
X167888
X152888
Y051043
Y066043
Y073543
X156888
X160388
X164388
X167888
Y066043
X164388
X160388
X156888
X171888
X175388
X179388
X184888Y06777
Y07177
X179388Y073543
X175388
X171888
Y081043
X175388
X179388
X182888
X186888
X167888
X164388
X160388
T07
X186888Y05377
X185888Y05627
X178388Y053043
X175888Y052043
Y059543
X178388Y060543
X170888
X168388Y059543
X163388Y060543
X160888Y059543
Y052043
X163388Y053043
X168388Y052043
X170888Y053043
X155888
X153388Y052043
Y059543
X155888Y060543
Y068043
X153388Y067043
Y074543
X155888Y075543
X160888Y074543
X163388Y075543
X168388Y074543
X170888Y075543
Y068043
X168388Y067043
X163388Y068043
X160888Y067043
X175888
X178388Y068043
Y075543
X175888Y074543
X185888Y07127
X186888Y06877
X185888Y083043
X183388Y082043
X178388Y083043
X175888Y082043
X170888Y083043
X168388Y082043
X163388Y083043
X160888Y082043
T08
X187638Y05007
Y05947
X186888Y06507
X187638Y07447
T09
X18467Y06124
X155157Y062323
X186516Y093602
X163386Y08878
T10
X181638Y05007
X177388Y051043
Y058543
X181638Y05947
X184888Y05477
X169888Y051043
X162388
Y058543
X169888
X154888
Y051043
Y066043
Y073543
X162388
Y066043
X169888
Y073543
X177388
X181638Y07447
X184888Y06977
X181638Y06507
X177388Y066043
Y081043
X184888
X169888
X162388
M30
