G04*
G04 #@! TF.GenerationSoftware,Altium Limited,Altium Designer,21.9.1 (22)*
G04*
G04 Layer_Color=32896*
%FSLAX25Y25*%
%MOIN*%
G70*
G04*
G04 #@! TF.SameCoordinates,29281BF1-B37C-4538-9C3D-308B06FF8435*
G04*
G04*
G04 #@! TF.FilePolarity,Positive*
G04*
G01*
G75*
G36*
X1519878Y791886D02*
X1517878D01*
Y789886D01*
X1519878D01*
Y791886D01*
D02*
G37*
G36*
Y801886D02*
X1517878D01*
Y799886D01*
X1519878D01*
Y801886D01*
D02*
G37*
G36*
Y811886D02*
X1517878D01*
Y809886D01*
X1519878D01*
Y811886D01*
D02*
G37*
G36*
Y821886D02*
X1517878D01*
Y819886D01*
X1519878D01*
Y821886D01*
D02*
G37*
G36*
Y831886D02*
X1517878D01*
Y829886D01*
X1519878D01*
Y831886D01*
D02*
G37*
G36*
Y841886D02*
X1517878D01*
Y839886D01*
X1519878D01*
Y841886D01*
D02*
G37*
G36*
X1579878Y791886D02*
X1577878D01*
Y789886D01*
X1579878D01*
Y791886D01*
D02*
G37*
G36*
Y801886D02*
X1577878D01*
Y799886D01*
X1579878D01*
Y801886D01*
D02*
G37*
G36*
Y811886D02*
X1577878D01*
Y809886D01*
X1579878D01*
Y811886D01*
D02*
G37*
G36*
Y821886D02*
X1577878D01*
Y819886D01*
X1579878D01*
Y821886D01*
D02*
G37*
G36*
Y831886D02*
X1577878D01*
Y829886D01*
X1579878D01*
Y831886D01*
D02*
G37*
G36*
Y841886D02*
X1577878D01*
Y839886D01*
X1579878D01*
Y841886D01*
D02*
G37*
G36*
X1519878Y851886D02*
X1517878D01*
Y849886D01*
X1519878D01*
Y851886D01*
D02*
G37*
G36*
Y861886D02*
X1517878D01*
Y859886D01*
X1519878D01*
Y861886D01*
D02*
G37*
G36*
Y871886D02*
X1517878D01*
Y869886D01*
X1519878D01*
Y871886D01*
D02*
G37*
G36*
Y881886D02*
X1517878D01*
Y879886D01*
X1519878D01*
Y881886D01*
D02*
G37*
G36*
Y891886D02*
X1517878D01*
Y889886D01*
X1519878D01*
Y891886D01*
D02*
G37*
G36*
Y901886D02*
X1517878D01*
Y899886D01*
X1519878D01*
Y901886D01*
D02*
G37*
G36*
X1579878Y851886D02*
X1577878D01*
Y849886D01*
X1579878D01*
Y851886D01*
D02*
G37*
G36*
Y861886D02*
X1577878D01*
Y859886D01*
X1579878D01*
Y861886D01*
D02*
G37*
G36*
Y871886D02*
X1577878D01*
Y869886D01*
X1579878D01*
Y871886D01*
D02*
G37*
G36*
Y881886D02*
X1577878D01*
Y879886D01*
X1579878D01*
Y881886D01*
D02*
G37*
G36*
Y891886D02*
X1577878D01*
Y889886D01*
X1579878D01*
Y891886D01*
D02*
G37*
G36*
Y901886D02*
X1577878D01*
Y899886D01*
X1579878D01*
Y901886D01*
D02*
G37*
M02*
