%FSTAX23Y23*%
%MOIN*%
%SFA1B1*%

%IPPOS*%
%ADD9500C,0.028000*%
%ADD9501C,0.035400*%
%ADD9502C,0.039400*%
%ADD9503C,0.040000*%
%ADD9504C,0.067000*%
%ADD9505C,0.118100*%
%ADD9506C,0.120000*%
%ADD9507C,0.126000*%
%ADD9508C,0.157000*%
%LNnumpadpcb-roundholes-1*%
%LPD*%
G54D9500*
X1841Y05142D03*
X17657Y0559D03*
X16909D03*
X16161D03*
X15413D03*
X15188Y04829D03*
X15413Y06338D03*
Y07106D03*
X15797Y07047D03*
X16161D03*
X16545D03*
X16643D03*
X16909D03*
Y06338D03*
X16161D03*
X15905D03*
X15806D03*
X17657D03*
Y07057D03*
X18405Y06692D03*
X18408Y07798D03*
X18048Y0818D03*
X17854Y08563D03*
X17568Y0873D03*
X17252Y0841D03*
X17321Y07948D03*
X17421Y07834D03*
X17657D03*
X17293Y09202D03*
Y09271D03*
X16909Y07834D03*
X16574Y07901D03*
X16161Y07834D03*
X15965Y08404D03*
X15561Y09094D03*
X15439Y0901D03*
X15196Y0933D03*
X15745Y09451D03*
G54D9501*
X17513Y09565D03*
X17413D03*
X17313D03*
X17213D03*
G54D9502*
X18586Y08545D03*
X18488D03*
X18389D03*
Y09116D03*
X18586D03*
X17491Y08808D03*
Y08631D03*
X17235D03*
Y08808D03*
G54D9503*
X15788Y07908D03*
Y08008D03*
Y08108D03*
Y08208D03*
Y08308D03*
Y08408D03*
Y08508D03*
Y08608D03*
Y08708D03*
Y08808D03*
Y08908D03*
Y09008D03*
X15188D03*
Y08908D03*
Y08808D03*
Y08708D03*
Y08608D03*
Y08508D03*
Y08408D03*
Y08308D03*
Y08208D03*
Y08108D03*
Y08008D03*
Y07908D03*
G54D9504*
X18488Y05277D03*
Y05677D03*
X17938Y05854D03*
X17538D03*
X17188D03*
Y05104D03*
X17538D03*
X17938D03*
X16788D03*
X16438D03*
X16038D03*
X15688D03*
Y05854D03*
X16038D03*
X16438D03*
X16788D03*
X15288D03*
Y05104D03*
Y06604D03*
Y07354D03*
X15688D03*
X16038D03*
X16438D03*
X16788D03*
Y06604D03*
X16438D03*
X16038D03*
X15688D03*
X17188D03*
X17538D03*
X17938D03*
X18488Y06777D03*
Y07177D03*
X17938Y07354D03*
X17538D03*
X17188D03*
Y08104D03*
X17538D03*
X17938D03*
X18288D03*
X18688D03*
X16788D03*
X16438D03*
X16038D03*
G54D9505*
X18688Y05377D03*
X18588Y05627D03*
X17838Y05304D03*
X17588Y05204D03*
Y05954D03*
X17838Y06054D03*
X17088D03*
X16838Y05954D03*
X16338Y06054D03*
X16088Y05954D03*
Y05204D03*
X16338Y05304D03*
X16838Y05204D03*
X17088Y05304D03*
X15588D03*
X15338Y05204D03*
Y05954D03*
X15588Y06054D03*
Y06804D03*
X15338Y06704D03*
Y07454D03*
X15588Y07554D03*
X16088Y07454D03*
X16338Y07554D03*
X16838Y07454D03*
X17088Y07554D03*
Y06804D03*
X16838Y06704D03*
X16338Y06804D03*
X16088Y06704D03*
X17588D03*
X17838Y06804D03*
Y07554D03*
X17588Y07454D03*
X18588Y07127D03*
X18688Y06877D03*
X18588Y08304D03*
X18338Y08204D03*
X17838Y08304D03*
X17588Y08204D03*
X17088Y08304D03*
X16838Y08204D03*
X16338Y08304D03*
X16088Y08204D03*
G54D9506*
X18763Y05007D03*
Y05947D03*
X18688Y06507D03*
X18763Y07447D03*
G54D9507*
X18467Y06124D03*
X15515Y06232D03*
X18651Y0936D03*
X16338Y08878D03*
G54D9508*
X18163Y05007D03*
X17738Y05104D03*
Y05854D03*
X18163Y05947D03*
X18488Y05477D03*
X16988Y05104D03*
X16238D03*
Y05854D03*
X16988D03*
X15488D03*
Y05104D03*
Y06604D03*
Y07354D03*
X16238D03*
Y06604D03*
X16988D03*
Y07354D03*
X17738D03*
X18163Y07447D03*
X18488Y06977D03*
X18163Y06507D03*
X17738Y06604D03*
Y08104D03*
X18488D03*
X16988D03*
X16238D03*
M02*