%FSTAX23Y23*%
%MOIN*%
%SFA1B1*%

%IPPOS*%
%AMD22*
4,1,8,0.000000,0.092500,0.000000,0.092500,-0.051200,0.041300,-0.051200,-0.041300,0.000000,-0.092500,0.000000,-0.092500,0.051200,-0.041300,0.051200,0.041300,0.000000,0.092500,0.0*
1,1,0.102360,0.000000,0.041300*
1,1,0.102360,0.000000,0.041300*
1,1,0.102360,0.000000,-0.041300*
1,1,0.102360,0.000000,-0.041300*
%
G04~CAMADD=22~8~0.0~0.0~1023.6~1850.4~511.8~0.0~15~0.0~0.0~0.0~0.0~0~0.0~0.0~0.0~0.0~0~0.0~0.0~0.0~0.0~1023.6~1850.4*
%ADD22D22*%
%ADD23C,0.061020*%
%ADD24R,0.061020X0.061020*%
%ADD29C,0.020000*%
%ADD30C,0.050000*%
%ADD32C,0.157010*%
%ADD33C,0.120000*%
%ADD34C,0.118110*%
%ADD35C,0.067000*%
%ADD36C,0.157000*%
%ADD37C,0.125980*%
%ADD38R,0.059060X0.059060*%
%ADD39C,0.059060*%
%ADD40C,0.074000*%
%ADD41C,0.050000*%
%ADD42R,0.098430X0.118110*%
%ADD43R,0.118110X0.098430*%
%ADD44R,0.053150X0.037400*%
%ADD45R,0.059060X0.035430*%
%ADD46R,0.035430X0.037400*%
%LNnumpadpcb-1*%
%LPD*%
G36*
X18034Y0964D02*
X18029Y09638D01*
X18025Y09635*
X18012*
Y09588*
X1802*
X1802Y09588*
X18018Y09583*
X1784*
Y09583*
X17836Y09584*
X17832Y09586*
X1783Y09589*
X17829Y09594*
X17827Y09611*
X17823Y09627*
X17816Y0964*
X17818Y09645*
X18033*
X18034Y0964*
G37*
G36*
X16832Y0961D02*
X16822Y09605D01*
X16813Y09597*
X16805Y09587*
X16799Y09576*
X16795Y09564*
X16794Y09552*
X16793Y09547*
X16791Y09545*
X16788Y09542*
X16784Y09542*
Y09542*
X16728*
X16726Y09547*
X16726Y09547*
X16734*
Y09581*
X16734Y09582*
X16738Y09593*
X16745Y09602*
X16755Y09609*
X16765Y09614*
X16776Y09615*
X16831*
X16832Y0961*
G37*
G36*
X18818Y08304D02*
X18816Y08302D01*
X18813Y08302*
X18812Y08303*
Y08358*
X18763*
Y08573*
X18764*
X18762Y08592*
X18756Y0861*
X18747Y08626*
X18735Y08641*
X18721Y08653*
X18704Y08662*
X18686Y08668*
X18667Y08669*
Y08669*
X18624*
X18623Y08669*
X18608Y08671*
X18592Y08676*
X18577Y08683*
X18564Y08694*
X18554Y08707*
X18546Y08722*
X18541Y08737*
X18539Y08753*
X18539Y08754*
Y09016*
X18539*
X18538Y09034*
X18534Y09051*
X18527Y09068*
X18517Y09084*
X18506Y09097*
X18492Y09109*
X18476Y09118*
X1846Y09125*
X18442Y0913*
X18424Y09131*
X1842Y09133*
X18418Y09138*
X18411Y09144*
X18403Y09149*
X18394Y09151*
X18385*
X18376Y09149*
X18367Y09144*
X18361Y09138*
X18356Y09129*
X18354Y0912*
Y09111*
X18356Y09102*
X18361Y09094*
X18367Y09087*
X18376Y09083*
X18385Y0908*
X18394*
X18403Y09083*
X18411Y09087*
X18418Y09094*
X18421Y091*
X18424*
X18425Y09101*
X18441Y09099*
X18457Y09094*
X18471Y09086*
X18484Y09076*
X18495Y09063*
X18503Y09048*
X18507Y09032*
X18509Y09016*
X18509Y09016*
Y08754*
X18509*
X1851Y08736*
X18514Y08718*
X18521Y08702*
X18531Y08686*
X18543Y08672*
X18556Y08661*
X18572Y08651*
X18588Y08644*
X18606Y0864*
X18624Y08639*
Y08639*
X18667*
X18667Y08639*
X1868Y08638*
X18692Y08634*
X18704Y08628*
X18714Y08619*
X18722Y08609*
X18728Y08598*
X18732Y08586*
X18733Y08573*
X18733Y08573*
Y08358*
X18684*
Y0825*
X18812*
X18814Y0825*
X18818Y08245*
Y07497*
X18813Y07495*
X18808Y07501*
X18796Y07508*
X18784Y07514*
X1877Y07516*
X18756*
X18743Y07514*
X1873Y07508*
X18719Y07501*
X18709Y07491*
X18701Y0748*
X18696Y07467*
X18693Y07453*
Y0744*
X18696Y07426*
X18701Y07413*
X18709Y07402*
X18719Y07392*
X1873Y07385*
X18743Y07379*
X18756Y07377*
X1877*
X18784Y07379*
X18796Y07385*
X18808Y07392*
X18813Y07398*
X18818Y07396*
Y06775*
X18815Y06769*
X18805Y06756*
X18792Y06746*
X18778Y06738*
X18762Y06733*
X18747Y06732*
X18742Y06735*
Y06781*
X18634*
Y06653*
X18742*
Y06698*
X18746Y06701*
X18764Y06703*
X18781Y06707*
X18798Y06714*
X18813Y06723*
X18814Y06724*
X18818Y06722*
Y05997*
X18813Y05995*
X18808Y06001*
X18796Y06008*
X18784Y06014*
X1877Y06016*
X18756*
X18743Y06014*
X1873Y06008*
X18719Y06001*
X18709Y05991*
X18701Y0598*
X18696Y05967*
X18693Y05953*
Y0594*
X18696Y05926*
X18701Y05913*
X18709Y05902*
X18719Y05892*
X1873Y05885*
X18743Y05879*
X18756Y05877*
X1877*
X18784Y05879*
X18796Y05885*
X18808Y05892*
X18813Y05898*
X18818Y05896*
Y05276*
X18815Y0527*
X18805Y05257*
X18792Y05246*
X18777Y05238*
X18761Y05233*
X18747Y05232*
X18742Y05236*
Y05281*
X18634*
Y05153*
X18742*
Y05197*
X18745Y05201*
X18763Y05203*
X1878Y05207*
X18797Y05214*
X18812Y05223*
X18814Y05225*
X18818Y05223*
Y05057*
X18813Y05055*
X18808Y05061*
X18796Y05068*
X18784Y05074*
X1877Y05076*
X18756*
X18743Y05074*
X1873Y05068*
X18719Y05061*
X18709Y05051*
X18701Y0504*
X18696Y05027*
X18693Y05013*
Y05*
X18696Y04986*
X18701Y04973*
X18709Y04962*
X18719Y04952*
X1873Y04945*
X18743Y04939*
X18756Y04937*
X1877*
X18784Y04939*
X18796Y04945*
X18808Y04952*
X18813Y04958*
X18818Y04956*
Y04773*
X15167*
Y04801*
X15172Y04804*
X15177Y04801*
X15184Y04799*
X15192*
X152Y04801*
X15207Y04805*
X15212Y0481*
X15214Y04814*
X15507*
X15508Y04814*
Y04814*
X16237*
X16238Y04813*
Y04814*
X16987*
X16988Y04813*
Y04814*
X17568*
Y04814*
X17585Y04815*
X17601Y04819*
X17617Y04825*
X17631Y04834*
X17644Y04845*
X17655Y04858*
X17664Y04872*
X1767Y04888*
X17672Y04897*
X17683*
Y04944*
X17637*
Y04897*
X1764Y04894*
X17639Y04891*
X17632Y04878*
X17622Y04866*
X17611Y04857*
X17597Y0485*
X17583Y04845*
X17569Y04844*
X17568Y04844*
X16987*
X16976Y04845*
X16965Y04849*
X16954Y04854*
X16945Y04862*
X16937Y04871*
X16932Y04882*
X16929Y04892*
X16931Y04896*
X16932Y04897*
X16935*
Y04944*
X16889*
Y04897*
X16897*
X16898Y04887*
X16903Y0487*
X16912Y04854*
X16916Y04849*
X16914Y04844*
X16237*
X16227Y04845*
X16216Y04849*
X16205Y04854*
X16196Y04861*
X16189Y0487*
X16184Y04881*
X1618Y04892*
X1618Y04893*
X16183Y04897*
X16187*
Y04944*
X16141*
Y04897*
X16149*
X1615Y04886*
X16155Y04869*
X16164Y04853*
X16167Y04849*
X16165Y04844*
X15506*
X15493Y04845*
X15478Y0485*
X15465Y04857*
X15453Y04866*
X15444Y04878*
X15437Y04891*
X15436Y04894*
X15439Y04897*
Y04944*
X15393*
Y04897*
X15403*
X15406Y04888*
X15412Y04872*
X15421Y04858*
X15428Y04849*
X15426Y04844*
X15214*
X15212Y04847*
X15207Y04853*
X152Y04857*
X15192Y04859*
X15184*
X15177Y04857*
X15172Y04854*
X15167Y04856*
Y04984*
X15171Y04985*
X15178Y04968*
X15188Y04953*
X152Y04939*
X15213Y04927*
X15229Y04918*
X15246Y04911*
X15263Y04907*
X15269Y04906*
Y04897*
X15315*
Y04944*
X15269*
Y04941*
X15266Y04938*
X15264Y04938*
X15249Y04942*
X15234Y0495*
X15221Y04961*
X15211Y04974*
X15203Y04988*
X15198Y05004*
X15196Y0502*
X15196Y05021*
Y0515*
X15245*
Y05258*
X15167*
Y05732*
X15171Y05733*
X15178Y05716*
X15188Y05701*
X152Y05687*
X15213Y05675*
X15229Y05666*
X15246Y05659*
X15263Y05655*
X15269Y05654*
Y05645*
X15315*
Y05692*
X15269*
Y05689*
X15266Y05686*
X15264Y05686*
X15249Y0569*
X15234Y05698*
X15221Y05709*
X15211Y05722*
X15203Y05736*
X15198Y05752*
X15196Y05768*
X15196Y05769*
Y059*
X15245*
Y06008*
X15167*
Y0648*
X15171Y06481*
X15178Y06464*
X15188Y06449*
X152Y06435*
X15213Y06424*
X15229Y06414*
X15246Y06407*
X15263Y06403*
X15269Y06402*
Y06393*
X15315*
Y06441*
X15269*
Y06437*
X15266Y06434*
X15264Y06434*
X15249Y06438*
X15234Y06446*
X15221Y06457*
X15211Y0647*
X15203Y06484*
X15198Y065*
X15196Y06516*
X15196Y06517*
Y0665*
X15245*
Y06758*
X15167*
Y07228*
X15171Y07229*
X15178Y07212*
X15188Y07197*
X152Y07183*
X15213Y07172*
X15229Y07162*
X15246Y07155*
X15263Y07151*
X15269Y0715*
Y07141*
X15315*
Y07189*
X15269*
Y07185*
X15266Y07182*
X15264Y07182*
X15249Y07186*
X15234Y07194*
X15221Y07205*
X15211Y07218*
X15203Y07232*
X15198Y07248*
X15196Y07264*
X15196Y07265*
Y074*
X15245*
Y07508*
X15167*
Y07867*
X15171Y0787*
X15172Y07869*
X15183Y07866*
X15194*
X15204Y07869*
X15214Y07875*
X15222Y07883*
X15227Y07892*
X1523Y07903*
Y07914*
X15227Y07925*
X15222Y07934*
X15214Y07942*
X15204Y07948*
X15194Y0795*
X15183*
X15172Y07948*
X15171Y07947*
X15167Y07949*
Y07967*
X15171Y0797*
X15172Y07969*
X15183Y07966*
X15194*
X15204Y07969*
X15214Y07975*
X15222Y07983*
X15227Y07992*
X1523Y08003*
Y08014*
X15227Y08025*
X15222Y08034*
X15214Y08042*
X15204Y08048*
X15194Y0805*
X15183*
X15172Y08048*
X15171Y08047*
X15167Y08049*
Y08067*
X15171Y0807*
X15172Y08069*
X15183Y08066*
X15194*
X15204Y08069*
X15214Y08075*
X15222Y08083*
X15227Y08092*
X1523Y08103*
Y08114*
X15227Y08125*
X15222Y08134*
X15214Y08142*
X15204Y08148*
X15194Y0815*
X15183*
X15172Y08148*
X15171Y08147*
X15167Y08149*
Y08167*
X15171Y0817*
X15172Y08169*
X15183Y08166*
X15194*
X15204Y08169*
X15214Y08175*
X15222Y08183*
X15227Y08192*
X1523Y08203*
Y08214*
X15227Y08225*
X15222Y08234*
X15214Y08242*
X15204Y08248*
X15194Y0825*
X15183*
X15172Y08248*
X15171Y08247*
X15167Y08249*
Y08267*
X15171Y0827*
X15172Y08269*
X15183Y08266*
X15194*
X15204Y08269*
X15214Y08275*
X15222Y08283*
X15227Y08292*
X1523Y08303*
Y08314*
X15227Y08325*
X15222Y08334*
X15214Y08342*
X15204Y08348*
X15194Y0835*
X15183*
X15172Y08348*
X15171Y08347*
X15167Y08349*
Y08367*
X15171Y0837*
X15172Y08369*
X15183Y08366*
X15194*
X15204Y08369*
X15214Y08375*
X15222Y08383*
X15227Y08392*
X1523Y08403*
Y08414*
X15227Y08425*
X15222Y08434*
X15214Y08442*
X15204Y08448*
X15194Y0845*
X15183*
X15172Y08448*
X15171Y08447*
X15167Y08449*
Y08467*
X15171Y0847*
X15172Y08469*
X15183Y08466*
X15194*
X15204Y08469*
X15214Y08475*
X15222Y08483*
X15227Y08492*
X15228Y08493*
X153*
Y08493*
X15317Y08495*
X15334Y085*
X15349Y08508*
X15363Y08519*
X15374Y08533*
X15382Y08548*
X15387Y08565*
X15389Y08582*
X15389*
Y09053*
X15389Y09054*
X1539Y0907*
X15395Y09086*
X15403Y091*
X15413Y09113*
X15426Y09124*
X15441Y09131*
X15457Y09136*
X15473Y09138*
X15474Y09138*
X15856*
Y09138*
X1587Y09139*
X15883Y09145*
X15895Y09154*
X15903Y09165*
X15909Y09178*
X15911Y09192*
X1591*
Y09222*
X1591Y09222*
X15912Y09231*
X15915Y09239*
X1592Y09246*
X15927Y09251*
X15936Y09255*
X15944Y09256*
X15944Y09256*
X17267*
X17269Y09253*
X17274Y09247*
X17281Y09243*
X17289Y09241*
X17297*
X17304Y09243*
X17311Y09247*
X17317Y09253*
X17321Y0926*
X17323Y09267*
Y09275*
X17321Y09283*
X17317Y0929*
X17311Y09295*
X17304Y09299*
X17297Y09301*
X17289*
X17281Y09299*
X17274Y09295*
X17269Y0929*
X17267Y09286*
X15944*
Y09286*
X15932Y09285*
X1592Y09282*
X15909Y09276*
X15899Y09268*
X15891Y09258*
X15885Y09247*
X15881Y09235*
X1588Y09222*
X1588*
Y09192*
X1588Y09192*
X15878Y09183*
X15873Y09175*
X15865Y0917*
X15856Y09168*
X15856Y09168*
X15474*
Y09168*
X15455Y09167*
X15438Y09163*
X15421Y09156*
X15406Y09146*
X15392Y09135*
X1538Y09121*
X15371Y09105*
X15364Y09089*
X1536Y09071*
X15358Y09053*
X15358*
Y08582*
X15358Y08582*
X15357Y08571*
X15354Y0856*
X15348Y0855*
X15341Y08541*
X15332Y08533*
X15322Y08528*
X15311Y08525*
X153Y08524*
X153Y08524*
X15228*
X15227Y08525*
X15222Y08534*
X15214Y08542*
X15204Y08548*
X15194Y0855*
X15183*
X15172Y08548*
X15171Y08547*
X15167Y08549*
Y08567*
X15171Y0857*
X15172Y08569*
X15183Y08566*
X15194*
X15204Y08569*
X15214Y08575*
X15222Y08583*
X15227Y08592*
X1523Y08603*
Y08614*
X15227Y08625*
X15222Y08634*
X15214Y08642*
X15204Y08648*
X15194Y0865*
X15183*
X15172Y08648*
X15171Y08647*
X15167Y08649*
Y08667*
X15171Y0867*
X15172Y08669*
X15183Y08666*
X15186*
Y08708*
Y0875*
X15183*
X15172Y08748*
X15171Y08747*
X15167Y08749*
Y08767*
X15171Y0877*
X15172Y08769*
X15183Y08766*
X15186*
Y08808*
Y0885*
X15183*
X15172Y08848*
X15171Y08847*
X15167Y08849*
Y08867*
X15171Y0887*
X15172Y08869*
X15183Y08866*
X15194*
X15204Y08869*
X15214Y08875*
X15222Y08883*
X15227Y08892*
X1523Y08903*
Y08914*
X15227Y08925*
X15222Y08934*
X15214Y08942*
X15204Y08948*
X15194Y0895*
X15183*
X15172Y08948*
X15171Y08947*
X15167Y08949*
Y08967*
X15171Y0897*
X15172Y08969*
X15183Y08966*
X15194*
X15204Y08969*
X15214Y08975*
X15222Y08983*
X15227Y08992*
X1523Y09003*
Y09014*
X15227Y09025*
X15222Y09034*
X15214Y09042*
X15204Y09048*
X15194Y0905*
X15183*
X15172Y09048*
X15171Y09047*
X15167Y09049*
Y09645*
X16118*
X16121Y0964*
X16114Y09633*
X16106Y09619*
X16099Y09604*
X16097Y09595*
X16093*
Y09548*
X16101*
X16101Y09548*
X16098Y09543*
X15859*
X15854Y09543*
X15848Y09545*
Y09544*
X15847Y09544*
X15839Y09543*
X15832Y09539*
X15827Y09536*
X15812*
Y09491*
X15827*
X15832Y09486*
X1584Y09483*
X15848Y09482*
Y09482*
X16125*
X16132Y09483*
X1614Y09486*
X16143Y09489*
X16156*
Y09536*
X16143*
X1614Y09539*
X16138Y09539*
Y09545*
X1614Y09545*
X16143Y09548*
X16156*
Y09582*
X16156Y09583*
X1616Y09593*
X16167Y09602*
X16176Y09609*
X16187Y09614*
X16198Y09615*
X16198Y09615*
X16678*
X1668Y09611*
X16677Y09603*
X16675Y09594*
X16671*
Y09547*
X16684*
X16687Y09544*
X16689Y09544*
Y09538*
X16687Y09538*
X16684Y09535*
X16671*
Y09488*
X16684*
X16687Y09485*
X16694Y09482*
X16702Y09481*
X16784*
Y09481*
X16798Y09482*
X16811Y09486*
X16823Y09493*
X16834Y09502*
X16843Y09512*
X16849Y09525*
X16853Y09538*
X16855Y09551*
X16856Y09553*
X16858Y09555*
X17057*
X17057Y09555*
X17065Y09554*
X17072Y09551*
X17078Y09546*
X17082Y09541*
X17083Y09536*
Y09491*
X17098*
X17102Y09487*
X1711Y09484*
X17118Y09483*
X17125Y09484*
X17133Y09487*
X17137Y09491*
X17152*
Y09536*
X17147*
X17146Y09542*
X17141Y09559*
X17133Y09575*
X17121Y09589*
X17107Y096*
X17092Y09609*
X17087Y0961*
X17088Y09615*
X1719*
X17193Y09611*
X17189Y09601*
X17188Y096*
X17179*
Y09531*
X17248*
Y09586*
X17251Y09593*
X17259Y09604*
X17271Y09613*
X17284Y09618*
X17297Y0962*
X17298Y0962*
X17743*
Y0962*
X17749Y09619*
X17756Y09616*
X17761Y09612*
X17765Y09607*
X17768Y09601*
X17768Y09594*
X17768Y09594*
X1777Y0958*
X17774Y09567*
X1778Y09554*
X17789Y09543*
X178Y09534*
X17813Y09528*
X17826Y09524*
X1784Y09522*
Y09522*
X18032*
X18033Y09517*
X18026Y09514*
X18012Y09503*
X18012Y09503*
X18012*
X18009Y09499*
X18004Y09491*
X17998Y09479*
X17997Y09465*
X17996Y0946*
X17996Y09452*
X17992Y09439*
X17986Y09428*
X17977Y09418*
X17967Y0941*
X17956Y09404*
X17944Y094*
X17931Y09399*
X17931Y09399*
X17152*
Y09406*
X17083*
Y09361*
X17152*
Y09368*
X17931*
Y09368*
X1795Y0937*
X17968Y09375*
X17984Y09384*
X17999Y09396*
X18011Y09411*
X1802Y09428*
X18026Y09446*
X18027Y09465*
X18028Y09469*
X18029Y09474*
X18033Y0948*
X18034Y09481*
X18038Y09484*
X18043Y09488*
X18053Y09494*
X18064Y09497*
X18071Y09498*
X18075Y09498*
X18075*
X18075Y09498*
X18076Y09498*
X1808*
X18157*
Y09491*
X18226*
Y09536*
X18157*
Y09529*
X1808*
X18075Y09529*
X18075Y09533*
X18075Y09534*
Y09576*
X18067*
X18067Y09576*
X1807Y09581*
X18286*
X18286Y09582*
X18299Y0958*
X18312Y09576*
X18324Y0957*
X18334Y09562*
X18343Y09551*
X18348Y0954*
X1835Y09536*
Y09491*
X18365*
X18369Y09487*
X18377Y09484*
X18384Y09483*
X18392Y09484*
X18399Y09487*
X18404Y09491*
X18419*
Y09536*
X18413*
X18408Y09553*
X18401Y09572*
X1839Y09589*
X18377Y09604*
X18362Y09618*
X18344Y09628*
X18326Y09636*
X18308Y0964*
X18308Y09645*
X18818*
Y08304*
G37*
%LNnumpadpcb-2*%
%LPC*%
G36*
X17318Y096D02*
X17316D01*
Y09568*
X17348*
Y0957*
X17345Y09579*
X17341Y09587*
X17334Y09593*
X17327Y09598*
X17318Y096*
G37*
G36*
X17311D02*
X17309D01*
X173Y09598*
X17292Y09593*
X17286Y09587*
X17281Y09579*
X17279Y0957*
Y09568*
X17311*
Y096*
G37*
G36*
X17518D02*
X17509D01*
X175Y09598*
X17492Y09593*
X17486Y09587*
X17481Y09579*
X17479Y0957*
Y09561*
X17481Y09552*
X17486Y09544*
X17492Y09538*
X175Y09533*
X17509Y09531*
X17518*
X17527Y09533*
X17534Y09538*
X17541Y09544*
X17545Y09552*
X17548Y09561*
Y0957*
X17545Y09579*
X17541Y09587*
X17534Y09593*
X17527Y09598*
X17518Y096*
G37*
G36*
X17418D02*
X17409D01*
X174Y09598*
X17392Y09593*
X17386Y09587*
X17381Y09579*
X17379Y0957*
Y09561*
X17381Y09552*
X17386Y09544*
X17392Y09538*
X174Y09533*
X17409Y09531*
X17418*
X17427Y09533*
X17434Y09538*
X17441Y09544*
X17445Y09552*
X17448Y09561*
Y0957*
X17445Y09579*
X17441Y09587*
X17434Y09593*
X17427Y09598*
X17418Y096*
G37*
G36*
X17348Y09563D02*
X17316D01*
Y09531*
X17318*
X17327Y09533*
X17334Y09538*
X17341Y09544*
X17345Y09552*
X17348Y09561*
Y09563*
G37*
G36*
X17311D02*
X17279D01*
Y09561*
X17281Y09552*
X17286Y09544*
X17292Y09538*
X173Y09533*
X17309Y09531*
X17311*
Y09563*
G37*
G36*
X15689Y09536D02*
X1562D01*
Y09491*
X15689*
Y09494*
X15692Y09497*
X15695Y09497*
X15706Y09492*
X15716Y09484*
X15723Y09475*
X15724Y09473*
X15721Y0947*
X15717Y09463*
X15715Y09455*
Y09447*
X15717Y0944*
X15721Y09433*
X15726Y09427*
X15733Y09423*
X15741Y09421*
X15749*
X15756Y09423*
X15763Y09427*
X15769Y09433*
X15773Y0944*
X15775Y09447*
Y09455*
X15773Y09463*
X15769Y0947*
X15763Y09475*
X15756Y09479*
X15754Y0948*
X15754Y09481*
X15747Y09494*
X15737Y09506*
X15726Y09516*
X15712Y09523*
X15698Y09527*
X15689Y09528*
Y09536*
G37*
G36*
X16959D02*
X1689D01*
Y09523*
X1689Y09522*
X16876Y09515*
X16863Y09505*
X16853Y09493*
X16846Y09478*
X16841Y09463*
X16839Y09447*
X16839Y09442*
X16838Y09435*
X16833Y09423*
X16825Y09413*
X16815Y09405*
X16803Y094*
X16791Y09399*
X16791Y09399*
X15881*
Y09406*
X15812*
Y09361*
X15881*
Y09368*
X16791*
Y09368*
X16806Y0937*
X16821Y09374*
X16835Y09381*
X16847Y09391*
X16857Y09403*
X16864Y09417*
X16869Y09432*
X1687Y09447*
X16871Y09452*
X16872Y09461*
X16877Y09473*
X16885Y09483*
X16894Y09491*
X16959*
Y09536*
G37*
G36*
X15689Y09406D02*
X15657D01*
Y09386*
X15689*
Y09406*
G37*
G36*
X18226D02*
X18194D01*
Y09386*
X18226*
Y09406*
G37*
G36*
X16959D02*
X16927D01*
Y09386*
X16959*
Y09406*
G37*
G36*
X16922D02*
X1689D01*
Y09386*
X16922*
Y09406*
G37*
G36*
X15652D02*
X1562D01*
Y09386*
X15652*
Y09406*
G37*
G36*
X18189D02*
X18157D01*
Y09386*
X18189*
Y09406*
G37*
G36*
X18419D02*
X1835D01*
Y09361*
X18419*
Y09406*
G37*
G36*
X18226Y09381D02*
X18194D01*
Y09361*
X18226*
Y09381*
G37*
G36*
X18189D02*
X18157D01*
Y09361*
X18189*
Y09381*
G37*
G36*
X16959D02*
X16927D01*
Y09361*
X16959*
Y09381*
G37*
G36*
X16922D02*
X1689D01*
Y09361*
X16922*
Y09381*
G37*
G36*
X15689D02*
X15657D01*
Y09361*
X15689*
Y09381*
G37*
G36*
X15652D02*
X1562D01*
Y09361*
X15652*
Y09381*
G37*
G36*
X18658Y09433D02*
X18644D01*
X1863Y0943*
X18617Y09424*
X18605Y09416*
X18595Y09406*
X18587Y09394*
X18581Y09381*
X18578Y09367*
Y09353*
X18581Y09338*
X18587Y09325*
X18595Y09313*
X18605Y09303*
X18617Y09295*
X1863Y0929*
X18644Y09287*
X18658*
X18672Y0929*
X18686Y09295*
X18698Y09303*
X18708Y09313*
X18716Y09325*
X18721Y09338*
X18724Y09353*
Y09367*
X18721Y09381*
X18716Y09394*
X18708Y09406*
X18698Y09416*
X18686Y09424*
X18672Y0943*
X18658Y09433*
G37*
G36*
X17297Y09232D02*
X17289D01*
X17281Y0923*
X17274Y09226*
X17269Y09221*
X17267Y09218*
X15984*
X15975Y09216*
X15966Y09213*
X15959Y09207*
X15953Y092*
X1595Y09192*
X15949Y09183*
Y09153*
X15949Y09153*
X15947Y09142*
X15943Y09131*
X15936Y09122*
X15927Y09115*
X15916Y09111*
X15906Y09109*
X15905Y09109*
X15586*
X15585Y09112*
X15579Y09118*
X15572Y09122*
X15564Y09124*
X15557*
X15549Y09122*
X15542Y09118*
X15537Y09112*
X15533Y09106*
X15531Y09098*
Y0909*
X15533Y09082*
X15537Y09076*
X15542Y0907*
X15549Y09066*
X15557Y09064*
X15564*
X15572Y09066*
X15579Y0907*
X15585Y09076*
X15586Y09079*
X15905*
Y09079*
X1592Y0908*
X15933Y09084*
X15946Y09091*
X15958Y091*
X15967Y09112*
X15974Y09125*
X15978Y09139*
X15979Y09153*
X15979*
Y09183*
X15979Y09183*
X15981Y09186*
X15984Y09187*
X15984Y09187*
X17267*
X17269Y09184*
X17274Y09178*
X17281Y09174*
X17289Y09172*
X17297*
X17304Y09174*
X17311Y09178*
X17317Y09184*
X17321Y09191*
X17323Y09198*
Y09206*
X17321Y09214*
X17317Y09221*
X17311Y09226*
X17304Y0923*
X17297Y09232*
G37*
G36*
X17699Y09225D02*
X17654D01*
Y09217*
X17562*
Y09217*
X17545Y09215*
X17529Y0921*
X17514Y09202*
X17501Y09191*
X1749Y09178*
X17482Y09163*
X17477Y09147*
X17476Y0913*
X17476Y09129*
X17476Y09129*
Y08839*
X1747Y08836*
X17464Y08829*
X17459Y08821*
X17457Y08812*
Y08803*
X17459Y08795*
X17464Y08787*
X1747Y0878*
X17478Y08776*
X17487Y08773*
X17496*
X17505Y08776*
X17512Y0878*
X17519Y08787*
X17523Y08795*
X17526Y08803*
Y08812*
X17523Y08821*
X17519Y08829*
X17512Y08836*
X17507Y08839*
Y09124*
Y09129*
X17507Y09129*
X17506Y09129*
X17507Y09134*
X17508Y09145*
X17514Y09158*
X17523Y0917*
X17534Y09179*
X17548Y09184*
X17557Y09186*
X17562Y09186*
X17654*
Y09178*
X17699*
Y09225*
G37*
G36*
X18007Y09226D02*
X17962D01*
Y09217*
X17823*
Y09225*
X17778*
Y09178*
X17785*
Y08515*
X17786Y08514*
X17784Y08498*
X17779Y08482*
X17771Y08468*
X17761Y08455*
X17748Y08444*
X17733Y08436*
X17717Y08432*
X17701Y0843*
X17701Y0843*
X17452*
Y0843*
X17434Y08429*
X17416Y08425*
X17399Y08418*
X17384Y08408*
X1737Y08396*
X17359Y08383*
X17349Y08367*
X17342Y08351*
X17341Y08346*
X17336Y08347*
X17335Y08357*
X1733Y08373*
X17322Y08387*
X17312Y084*
X17299Y08411*
X17284Y08419*
X1728Y0842*
X17279Y08422*
X17275Y08428*
X1727Y08434*
X17263Y08438*
X17255Y0844*
X17248*
X1724Y08438*
X17233Y08434*
X17227Y08428*
X17224Y08422*
X17221Y08414*
Y08406*
X17224Y08398*
X17227Y08392*
X17233Y08386*
X17236Y08384*
Y08358*
X17184*
Y0825*
X17233*
Y08123*
X17228Y08122*
X17223Y0813*
X17215Y08139*
X17205Y08144*
X17194Y08147*
X17183*
X17172Y08144*
X17162Y08139*
X17154Y0813*
X17148Y08121*
X17145Y0811*
Y08098*
X17148Y08087*
X17154Y08077*
X17162Y08069*
X17172Y08063*
X17183Y0806*
X17194*
X17205Y08063*
X17215Y08069*
X17223Y08077*
X17228Y08086*
X17233Y08084*
Y07832*
X17233Y07831*
X17231Y07815*
X17227Y07799*
X17219Y07785*
X17208Y07772*
X17195Y07761*
X17181Y07753*
X17165Y07749*
X17149Y07747*
X17148Y07747*
X16598*
Y07747*
X1658Y07746*
X16562Y07741*
X16546Y07735*
X1653Y07725*
X16517Y07713*
X16505Y077*
X16495Y07684*
X16488Y07667*
X16484Y0765*
X16483Y07632*
X16483*
Y07608*
X16434*
Y075*
X16483*
Y07373*
X16478Y07372*
X16473Y0738*
X16465Y07389*
X16455Y07394*
X16444Y07397*
X16433*
X16422Y07394*
X16412Y07389*
X16404Y0738*
X16398Y07371*
X16395Y0736*
Y07348*
X16398Y07337*
X16404Y07327*
X16412Y07319*
X16422Y07313*
X16433Y0731*
X16444*
X16455Y07313*
X16465Y07319*
X16473Y07327*
X16478Y07336*
X16483Y07334*
Y06858*
X16434*
Y0675*
X16483*
Y06623*
X16478Y06622*
X16473Y0663*
X16465Y06639*
X16455Y06644*
X16444Y06647*
X16433*
X16422Y06644*
X16412Y06639*
X16404Y0663*
X16398Y06621*
X16395Y0661*
Y06598*
X16398Y06587*
X16404Y06577*
X16412Y06569*
X16422Y06563*
X16433Y0656*
X16444*
X16455Y06563*
X16465Y06569*
X16473Y06577*
X16478Y06586*
X16483Y06584*
Y06108*
X16434*
Y06*
X16483*
Y05873*
X16478Y05872*
X16473Y0588*
X16465Y05889*
X16455Y05894*
X16444Y05897*
X16433*
X16422Y05894*
X16412Y05889*
X16404Y0588*
X16398Y05871*
X16395Y0586*
Y05848*
X16398Y05837*
X16404Y05827*
X16412Y05819*
X16422Y05813*
X16433Y0581*
X16444*
X16455Y05813*
X16465Y05819*
X16473Y05827*
X16478Y05836*
X16483Y05834*
Y05358*
X16434*
Y0525*
X16562*
Y05358*
X16513*
Y06*
X16562*
Y06108*
X16513*
Y0675*
X16562*
Y06858*
X16513*
Y07031*
X16518Y07032*
X16521Y07028*
X16526Y07023*
X16533Y07019*
X16541Y07017*
X16549*
X16556Y07019*
X16563Y07023*
X16569Y07028*
X16571Y07031*
X16617*
X16619Y07028*
X16625Y07023*
X16632Y07019*
X16639Y07017*
X16647*
X16655Y07019*
X16662Y07023*
X16667Y07028*
X16671Y07035*
X16673Y07043*
Y07051*
X16671Y07058*
X16667Y07065*
X16662Y07071*
X16655Y07075*
X16647Y07077*
X16639*
X16632Y07075*
X16625Y07071*
X16619Y07065*
X16617Y07062*
X16571*
X16569Y07065*
X16563Y07071*
X16556Y07075*
X16549Y07077*
X16541*
X16533Y07075*
X16526Y07071*
X16521Y07065*
X16518Y07061*
X16513Y07062*
Y075*
X16562*
Y07608*
X16513*
Y07632*
X16513Y07632*
X16515Y07648*
X1652Y07664*
X16528Y07679*
X16538Y07692*
X16551Y07702*
X16566Y0771*
X16582Y07715*
X16597Y07717*
X16598Y07716*
X17148*
Y07716*
X17166Y07718*
X17184Y07722*
X172Y07729*
X17216Y07738*
X1723Y0775*
X17241Y07764*
X17251Y07779*
X17258Y07796*
X17262Y07814*
X17263Y07832*
X17263*
Y0825*
X17306*
Y07974*
X17303Y07972*
X17297Y07967*
X17293Y0796*
X17291Y07952*
Y07944*
X17293Y07937*
X17297Y0793*
X17303Y07924*
X1731Y0792*
X17317Y07918*
X17325*
X17333Y0792*
X1734Y07924*
X17345Y0793*
X17349Y07937*
X17351Y07944*
Y07952*
X17349Y0796*
X17345Y07967*
X1734Y07972*
X17337Y07974*
Y07988*
X17342Y07989*
X17344Y07984*
X17352Y07973*
X17364Y07964*
X17377Y07958*
X17391Y07956*
X17396Y07956*
X17397Y07956*
X17401Y07953*
X17404Y07948*
X17406Y07943*
X17405Y07942*
Y0786*
X17402Y07858*
X17397Y07853*
X17393Y07846*
X17391Y07838*
Y0783*
X17393Y07823*
X17397Y07816*
X17402Y0781*
X17409Y07806*
X17417Y07804*
X17425*
X17432Y07806*
X17439Y0781*
X17445Y07816*
X17449Y07823*
X17451Y0783*
Y07838*
X17449Y07846*
X17445Y07853*
X17439Y07858*
X17436Y0786*
Y0794*
X17441Y07941*
X1745Y07931*
X17463Y0792*
X17479Y0791*
X17496Y07903*
X17513Y07899*
X17513*
Y07889*
X17559*
Y07937*
X17513*
Y07934*
X17509Y07931*
X17499Y07934*
X17484Y07942*
X17471Y07953*
X17461Y07966*
X17453Y0798*
X17448Y07996*
X17446Y08012*
X17446Y08013*
Y0815*
X17495*
Y08258*
X17367*
Y08315*
X17367Y08316*
X17369Y08331*
X17373Y08347*
X17381Y08362*
X17392Y08375*
X17405Y08385*
X17419Y08393*
X17435Y08398*
X17451Y084*
X17452Y084*
X17701*
Y084*
X17719Y08401*
X17736Y08405*
X17753Y08412*
X17768Y08422*
X17782Y08433*
X17794Y08447*
X17803Y08462*
X1781Y08479*
X17815Y08497*
X17816Y08515*
X17816*
Y09178*
X17823*
Y09186*
X17962*
Y09179*
X18007*
Y09226*
G37*
G36*
X18131D02*
X18086D01*
Y09179*
X18131*
Y09187*
X18499*
X185Y09187*
X18513Y09186*
X18527Y09182*
X18539Y09175*
X1855Y09166*
X18559Y09155*
X18565Y09144*
X18564Y09144*
X18558Y09138*
X18553Y09129*
X18551Y0912*
Y09111*
X18553Y09102*
X18558Y09094*
X18564Y09087*
X18572Y09083*
X18581Y0908*
X18591*
X186Y09083*
X18608Y09087*
X18615Y09094*
X18619Y09102*
X18622Y09111*
Y0912*
X18619Y09129*
X18615Y09138*
X18608Y09144*
X186Y09149*
X18595Y0915*
X18594Y09155*
X18584Y09172*
X18572Y09188*
X18556Y09201*
X18539Y0921*
X18519Y09216*
X18499Y09218*
Y09218*
X18131*
Y09226*
G37*
G36*
X15794Y0905D02*
X15783D01*
X15772Y09048*
X15762Y09042*
X15755Y09034*
X15749Y09025*
X15746Y09014*
Y09003*
X15749Y08992*
X15755Y08983*
X15762Y08975*
X15772Y08969*
X15783Y08966*
X15794*
X15804Y08969*
X15814Y08975*
X15822Y08983*
X15827Y08992*
X1583Y09003*
Y09014*
X15827Y09025*
X15822Y09034*
X15814Y09042*
X15804Y09048*
X15794Y0905*
G37*
G36*
Y0895D02*
X15791D01*
Y08911*
X1583*
Y08914*
X15827Y08925*
X15822Y08934*
X15814Y08942*
X15804Y08948*
X15794Y0895*
G37*
G36*
X15786D02*
X15783D01*
X15772Y08948*
X15762Y08942*
X15755Y08934*
X15749Y08925*
X15746Y08914*
Y08911*
X15786*
Y0895*
G37*
G36*
X1583Y08906D02*
X15791D01*
Y08866*
X15794*
X15804Y08869*
X15814Y08875*
X15822Y08883*
X15827Y08892*
X1583Y08903*
Y08906*
G37*
G36*
X15786D02*
X15746D01*
Y08903*
X15749Y08892*
X15755Y08883*
X15762Y08875*
X15772Y08869*
X15783Y08866*
X15786*
Y08906*
G37*
G36*
X18711Y08938D02*
Y08843D01*
X18765*
Y08881*
X18763Y08896*
X18757Y0891*
X18748Y08922*
X18736Y08931*
X18723Y08936*
X18711Y08938*
G37*
G36*
X18706D02*
X18693Y08936D01*
X1868Y08931*
X18668Y08922*
X18659Y0891*
X18653Y08896*
X18652Y08881*
Y08843*
X18706*
Y08938*
G37*
G36*
X1827D02*
Y08843D01*
X18324*
Y08881*
X18322Y08896*
X18316Y0891*
X18307Y08922*
X18296Y08931*
X18282Y08936*
X1827Y08938*
G37*
G36*
X18265D02*
X18253Y08936D01*
X18239Y08931*
X18227Y08922*
X18218Y0891*
X18212Y08896*
X18211Y08881*
Y08843*
X18265*
Y08938*
G37*
G36*
X15194Y0885D02*
X15191D01*
Y08811*
X1523*
Y08814*
X15227Y08825*
X15222Y08834*
X15214Y08842*
X15204Y08848*
X15194Y0885*
G37*
G36*
X16345Y0895D02*
X16331D01*
X16317Y08947*
X16304Y08942*
X16292Y08934*
X16282Y08924*
X16274Y08912*
X16268Y08899*
X16265Y08885*
Y0887*
X16268Y08856*
X16274Y08843*
X16282Y08831*
X16292Y08821*
X16304Y08813*
X16317Y08807*
X16331Y08805*
X16345*
X16359Y08807*
X16373Y08813*
X16385Y08821*
X16395Y08831*
X16403Y08843*
X16408Y08856*
X16411Y0887*
Y08885*
X16408Y08899*
X16403Y08912*
X16395Y08924*
X16385Y08934*
X16373Y08942*
X16359Y08947*
X16345Y0895*
G37*
G36*
X1724Y08842D02*
X17231D01*
X17222Y0884*
X17214Y08836*
X17208Y08829*
X17203Y08821*
X17201Y08812*
Y08803*
X17203Y08795*
X17208Y08787*
X17214Y0878*
X17222Y08776*
X17231Y08773*
X1724*
X17249Y08776*
X17257Y0878*
X17263Y08787*
X17268Y08795*
X1727Y08803*
Y08812*
X17268Y08821*
X17263Y08829*
X17257Y08836*
X17249Y0884*
X1724Y08842*
G37*
G36*
X15442Y0904D02*
X15435D01*
X15427Y09038*
X1542Y09034*
X15414Y09028*
X15411Y09021*
X15408Y09014*
Y09006*
X15411Y08998*
X15414Y08991*
X1542Y08986*
X15423Y08984*
Y08908*
X15423*
X15425Y0889*
X15429Y08873*
X15436Y08856*
X15445Y08841*
X15457Y08827*
X15471Y08815*
X15486Y08806*
X15503Y08799*
X1552Y08794*
X15538Y08793*
Y08793*
X15749*
X15749Y08792*
X15755Y08783*
X15762Y08775*
X15772Y08769*
X15783Y08766*
X15794*
X15804Y08769*
X15814Y08775*
X15822Y08783*
X15827Y08792*
X1583Y08803*
Y08814*
X15827Y08825*
X15822Y08834*
X15814Y08842*
X15804Y08848*
X15794Y0885*
X15783*
X15772Y08848*
X15762Y08842*
X15755Y08834*
X15749Y08825*
X15749Y08824*
X15538*
X15538Y08824*
X15522Y08825*
X15506Y0883*
X15491Y08838*
X15478Y08848*
X15468Y08861*
X1546Y08876*
X15455Y08892*
X15454Y08908*
X15454Y08908*
Y08984*
X15457Y08986*
X15462Y08991*
X15466Y08998*
X15468Y09006*
Y09014*
X15466Y09021*
X15462Y09028*
X15457Y09034*
X1545Y09038*
X15442Y0904*
G37*
G36*
X1523Y08806D02*
X15191D01*
Y08766*
X15194*
X15204Y08769*
X15214Y08775*
X15222Y08783*
X15227Y08792*
X1523Y08803*
Y08806*
G37*
G36*
X17572Y0876D02*
X17564D01*
X17557Y08758*
X1755Y08754*
X17544Y08748*
X17544Y08747*
X16015*
Y08747*
X15997Y08746*
X15979Y08741*
X15962Y08735*
X15947Y08725*
X15933Y08713*
X15922Y087*
X15912Y08684*
X15905Y08667*
X15901Y0865*
X159Y08632*
X159*
Y08408*
X159Y08408*
X15898Y08392*
X15893Y08376*
X15885Y08361*
X15875Y08348*
X15862Y08338*
X15847Y0833*
X15831Y08325*
X15827Y08325*
X15822Y08334*
X15814Y08342*
X15804Y08348*
X15794Y0835*
X15783*
X15772Y08348*
X15762Y08342*
X15755Y08334*
X15749Y08325*
X15746Y08314*
Y08303*
X15749Y08292*
X15755Y08283*
X15762Y08275*
X15772Y08269*
X15783Y08266*
X15794*
X15804Y08269*
X15814Y08275*
X15822Y08283*
X15827Y08292*
X15828Y08294*
X15833Y08294*
X15851Y08299*
X15867Y08306*
X15883Y08315*
X15896Y08327*
X15908Y08341*
X15918Y08356*
X15925Y08373*
X15929Y0839*
X1593Y08403*
X1593Y08403*
X1593Y08404*
X1593Y08403*
X1593Y08406*
X15935Y08406*
Y084*
X15937Y08392*
X15941Y08385*
X15947Y0838*
X15953Y08376*
X15961Y08374*
X15969*
X15977Y08376*
X15983Y0838*
X15989Y08385*
X15993Y08392*
X15995Y084*
Y08408*
X15993Y08415*
X15989Y08422*
X15983Y08428*
X1598Y0843*
Y08531*
X1598Y08531*
X15982Y08547*
X15987Y08563*
X15994Y08578*
X16005Y08591*
X16018Y08601*
X16033Y08609*
X16048Y08614*
X16064Y08616*
X16065Y08615*
X17204*
X17208Y0861*
X17214Y08603*
X17222Y08599*
X17231Y08596*
X1724*
X17249Y08599*
X17257Y08603*
X17263Y0861*
X17268Y08617*
X1727Y08626*
Y08635*
X17268Y08644*
X17263Y08652*
X17257Y08658*
X17249Y08663*
X1724Y08665*
X17231*
X17222Y08663*
X17214Y08658*
X17208Y08652*
X17204Y08646*
X16065*
Y08646*
X16047Y08645*
X16029Y0864*
X16013Y08633*
X15997Y08624*
X15983Y08612*
X15972Y08599*
X15962Y08583*
X15955Y08566*
X15951Y08549*
X1595Y08531*
X1595*
Y0843*
X15947Y08428*
X15941Y08422*
X15937Y08415*
X15936Y0841*
X1593Y08408*
X1593Y08408*
X1593Y08413*
Y08632*
X1593Y08632*
X15932Y08648*
X15936Y08664*
X15944Y08679*
X15955Y08692*
X15968Y08702*
X15982Y0871*
X15998Y08715*
X16014Y08717*
X16015Y08716*
X17541*
X17544Y08711*
X1755Y08706*
X17557Y08702*
X17564Y087*
X17572*
X1758Y08702*
X17587Y08706*
X17592Y08711*
X17596Y08718*
X17598Y08726*
Y08734*
X17596Y08741*
X17592Y08748*
X17587Y08754*
X1758Y08758*
X17572Y0876*
G37*
G36*
X18765Y08838D02*
X18711D01*
Y08742*
X18723Y08744*
X18736Y0875*
X18748Y08759*
X18757Y0877*
X18763Y08784*
X18765Y08799*
Y08838*
G37*
G36*
X18706D02*
X18652D01*
Y08799*
X18653Y08784*
X18659Y0877*
X18668Y08759*
X1868Y0875*
X18693Y08744*
X18706Y08742*
Y08838*
G37*
G36*
X18324D02*
X1827D01*
Y08742*
X18282Y08744*
X18296Y0875*
X18307Y08759*
X18316Y0877*
X18322Y08784*
X18324Y08799*
Y08838*
G37*
G36*
X18265D02*
X18211D01*
Y08799*
X18212Y08784*
X18218Y0877*
X18227Y08759*
X18239Y0875*
X18253Y08744*
X18265Y08742*
Y08838*
G37*
G36*
X15194Y0875D02*
X15191D01*
Y08711*
X1523*
Y08714*
X15227Y08725*
X15222Y08734*
X15214Y08742*
X15204Y08748*
X15194Y0875*
G37*
G36*
X15794D02*
X15783D01*
X15772Y08748*
X15762Y08742*
X15755Y08734*
X15749Y08725*
X15746Y08714*
Y08703*
X15749Y08692*
X15755Y08683*
X15762Y08675*
X15772Y08669*
X15783Y08666*
X15794*
X15804Y08669*
X15814Y08675*
X15822Y08683*
X15827Y08692*
X1583Y08703*
Y08714*
X15827Y08725*
X15822Y08734*
X15814Y08742*
X15804Y08748*
X15794Y0875*
G37*
G36*
X1523Y08706D02*
X15191D01*
Y08666*
X15194*
X15204Y08669*
X15214Y08675*
X15222Y08683*
X15227Y08692*
X1523Y08703*
Y08706*
G37*
G36*
X17496Y08665D02*
X17487D01*
X17478Y08663*
X1747Y08658*
X17464Y08652*
X17459Y08644*
X17457Y08635*
Y08626*
X17459Y08617*
X17464Y0861*
X1747Y08603*
X17478Y08599*
X17487Y08596*
X17496*
X17505Y08599*
X17512Y08603*
X17519Y0861*
X17523Y08617*
X17526Y08626*
Y08635*
X17523Y08644*
X17519Y08652*
X17512Y08658*
X17505Y08663*
X17496Y08665*
G37*
G36*
X15794Y0865D02*
X15783D01*
X15772Y08648*
X15762Y08642*
X15755Y08634*
X15749Y08625*
X15746Y08614*
Y08603*
X15749Y08592*
X15755Y08583*
X15762Y08575*
X15772Y08569*
X15783Y08566*
X15794*
X15804Y08569*
X15814Y08575*
X15822Y08583*
X15827Y08592*
X1583Y08603*
Y08614*
X15827Y08625*
X15822Y08634*
X15814Y08642*
X15804Y08648*
X15794Y0865*
G37*
G36*
X18492Y0858D02*
X1849D01*
Y08547*
X18523*
Y0855*
X18521Y08559*
X18516Y08567*
X18509Y08573*
X18501Y08578*
X18492Y0858*
G37*
G36*
X18485D02*
X18483D01*
X18474Y08578*
X18466Y08573*
X18459Y08567*
X18455Y08559*
X18452Y0855*
Y08547*
X18485*
Y0858*
G37*
G36*
X18591D02*
X18581D01*
X18572Y08578*
X18564Y08573*
X18558Y08567*
X18553Y08559*
X18551Y0855*
Y0854*
X18553Y08531*
X18558Y08523*
X18564Y08516*
X18572Y08512*
X18581Y08509*
X18591*
X186Y08512*
X18608Y08516*
X18615Y08523*
X18619Y08531*
X18622Y0854*
Y0855*
X18619Y08559*
X18615Y08567*
X18608Y08573*
X186Y08578*
X18591Y0858*
G37*
G36*
X18523Y08542D02*
X1849D01*
Y08509*
X18492*
X18501Y08512*
X18509Y08516*
X18516Y08523*
X18521Y08531*
X18523Y0854*
Y08542*
G37*
G36*
X18485D02*
X18452D01*
Y0854*
X18455Y08531*
X18459Y08523*
X18466Y08516*
X18474Y08512*
X18483Y08509*
X18485*
Y08542*
G37*
G36*
X18425Y0858D02*
X18354D01*
Y08509*
X18425*
Y0858*
G37*
G36*
X15794Y0855D02*
X15783D01*
X15772Y08548*
X15762Y08542*
X15755Y08534*
X15749Y08525*
X15746Y08514*
Y08503*
X15749Y08492*
X15755Y08483*
X15762Y08475*
X15772Y08469*
X15783Y08466*
X15794*
X15804Y08469*
X15814Y08475*
X15822Y08483*
X15827Y08492*
X1583Y08503*
Y08514*
X15827Y08525*
X15822Y08534*
X15814Y08542*
X15804Y08548*
X15794Y0855*
G37*
G36*
Y0845D02*
X15783D01*
X15772Y08448*
X15762Y08442*
X15755Y08434*
X15749Y08425*
X15746Y08414*
Y08403*
X15749Y08392*
X15755Y08383*
X15762Y08375*
X15772Y08369*
X15783Y08366*
X15794*
X15804Y08369*
X15814Y08375*
X15822Y08383*
X15827Y08392*
X1583Y08403*
Y08414*
X15827Y08425*
X15822Y08434*
X15814Y08442*
X15804Y08448*
X15794Y0845*
G37*
G36*
X18595Y08373D02*
X18581D01*
X18568Y0837*
X18556Y08365*
X18544Y08357*
X18535Y08348*
X18527Y08336*
X18522Y08324*
X18519Y08311*
Y08297*
X18522Y08284*
X18527Y08271*
X18535Y0826*
X18544Y0825*
X18556Y08243*
X18568Y08238*
X18581Y08235*
X18595*
X18608Y08238*
X18621Y08243*
X18632Y0825*
X18642Y0826*
X18649Y08271*
X18655Y08284*
X18657Y08297*
Y08311*
X18655Y08324*
X18649Y08336*
X18642Y08348*
X18632Y08357*
X18621Y08365*
X18608Y0837*
X18595Y08373*
G37*
G36*
X17845D02*
X17831D01*
X17818Y0837*
X17806Y08365*
X17794Y08357*
X17785Y08348*
X17777Y08336*
X17772Y08324*
X17769Y08311*
Y08297*
X17772Y08284*
X17777Y08271*
X17785Y0826*
X17794Y0825*
X17806Y08243*
X17818Y08238*
X17831Y08235*
X17845*
X17858Y08238*
X17871Y08243*
X17882Y0825*
X17892Y0826*
X17899Y08271*
X17905Y08284*
X17907Y08297*
Y08311*
X17905Y08324*
X17899Y08336*
X17892Y08348*
X17882Y08357*
X17871Y08365*
X17858Y0837*
X17845Y08373*
G37*
G36*
X17095D02*
X17081D01*
X17068Y0837*
X17056Y08365*
X17044Y08357*
X17035Y08348*
X17027Y08336*
X17022Y08324*
X17019Y08311*
Y08297*
X17022Y08284*
X17027Y08271*
X17035Y0826*
X17044Y0825*
X17056Y08243*
X17068Y08238*
X17081Y08235*
X17095*
X17108Y08238*
X17121Y08243*
X17132Y0825*
X17142Y0826*
X17149Y08271*
X17155Y08284*
X17157Y08297*
Y08311*
X17155Y08324*
X17149Y08336*
X17142Y08348*
X17132Y08357*
X17121Y08365*
X17108Y0837*
X17095Y08373*
G37*
G36*
X16345D02*
X16331D01*
X16318Y0837*
X16306Y08365*
X16294Y08357*
X16285Y08348*
X16277Y08336*
X16272Y08324*
X16269Y08311*
Y08297*
X16272Y08284*
X16277Y08271*
X16285Y0826*
X16294Y0825*
X16306Y08243*
X16318Y08238*
X16331Y08235*
X16345*
X16358Y08238*
X16371Y08243*
X16382Y0825*
X16392Y0826*
X16399Y08271*
X16405Y08284*
X16407Y08297*
Y08311*
X16405Y08324*
X16399Y08336*
X16392Y08348*
X16382Y08357*
X16371Y08365*
X16358Y0837*
X16345Y08373*
G37*
G36*
X17858Y08592D02*
X1785D01*
X17842Y0859*
X17835Y08587*
X1783Y08581*
X17826Y08574*
X17824Y08566*
Y08559*
X17826Y08551*
X1783Y08544*
X17835Y08538*
X17842Y08535*
X1785Y08532*
X17858*
X17865Y08535*
X17872Y08538*
X17878Y08544*
X1788Y08547*
X17994*
X17995Y08547*
X18011Y08546*
X18026Y08541*
X18041Y08533*
X18054Y08523*
X18065Y0851*
X18072Y08495*
X18077Y08479*
X18079Y08463*
X18079Y08462*
Y08196*
X18074Y08195*
X18072Y08198*
X18066Y08204*
X18063Y08205*
Y08254*
X18063*
X18062Y08263*
Y08358*
X17934*
Y0825*
X17983*
Y08123*
X17978Y08122*
X17973Y0813*
X17965Y08139*
X17955Y08144*
X17944Y08147*
X17933*
X17922Y08144*
X17912Y08139*
X17904Y0813*
X17898Y08121*
X17895Y0811*
Y08098*
X17898Y08087*
X17904Y08077*
X17912Y08069*
X17922Y08063*
X17933Y0806*
X17944*
X17955Y08063*
X17965Y08069*
X17973Y08077*
X17978Y08086*
X17983Y08084*
Y07814*
X17983Y07813*
X17982Y07801*
X17978Y07787*
X17971Y07775*
X17963Y07765*
X17952Y07756*
X1794Y07749*
X17927Y07745*
X17913Y07744*
X17913Y07744*
X17335*
Y07744*
X17315Y07742*
X17296Y07737*
X17278Y07727*
X17263Y07714*
X1725Y07699*
X1724Y07681*
X17235Y07662*
X17233Y07642*
X17233*
Y07608*
X17184*
Y075*
X17233*
Y07373*
X17228Y07372*
X17223Y0738*
X17215Y07389*
X17205Y07394*
X17194Y07397*
X17183*
X17172Y07394*
X17162Y07389*
X17154Y0738*
X17148Y07371*
X17145Y0736*
Y07348*
X17148Y07337*
X17154Y07327*
X17162Y07319*
X17172Y07313*
X17183Y0731*
X17194*
X17205Y07313*
X17215Y07319*
X17223Y07327*
X17228Y07336*
X17233Y07334*
Y06858*
X17184*
Y0675*
X17233*
Y06623*
X17228Y06622*
X17223Y0663*
X17215Y06639*
X17205Y06644*
X17194Y06647*
X17183*
X17172Y06644*
X17162Y06639*
X17154Y0663*
X17148Y06621*
X17145Y0661*
Y06598*
X17148Y06587*
X17154Y06577*
X17162Y06569*
X17172Y06563*
X17183Y0656*
X17194*
X17205Y06563*
X17215Y06569*
X17223Y06577*
X17228Y06586*
X17233Y06584*
Y06108*
X17184*
Y06*
X17233*
Y05873*
X17228Y05872*
X17223Y0588*
X17215Y05889*
X17205Y05894*
X17194Y05897*
X17183*
X17172Y05894*
X17162Y05889*
X17154Y0588*
X17148Y05871*
X17145Y0586*
Y05848*
X17148Y05837*
X17154Y05827*
X17162Y05819*
X17172Y05813*
X17183Y0581*
X17194*
X17205Y05813*
X17215Y05819*
X17223Y05827*
X17228Y05836*
X17233Y05834*
Y05358*
X17184*
Y0525*
X17312*
Y05358*
X17263*
Y06*
X17312*
Y06108*
X17263*
Y0675*
X17312*
Y06858*
X17263*
Y075*
X17312*
Y07608*
X17263*
Y07642*
X17263Y07642*
X17265Y07656*
X17269Y07669*
X17275Y07682*
X17284Y07693*
X17295Y07702*
X17308Y07708*
X17321Y07712*
X17335Y07714*
X17335Y07714*
X17913*
Y07713*
X17933Y07715*
X17952Y07721*
X17969Y0773*
X17984Y07743*
X17997Y07758*
X18006Y07776*
X18012Y07795*
X18014Y07814*
X18014*
X18013Y07816*
Y08172*
X18018Y08173*
X1802Y08168*
X18024Y08161*
X18029Y08156*
X18036Y08152*
X18044Y0815*
X18052*
X18059Y08152*
X18066Y08156*
X18072Y08161*
X18074Y08165*
X18079Y08163*
Y07704*
X18079Y07704*
X18078Y07695*
X18074Y07687*
X18068Y07679*
X18061Y07674*
X18053Y0767*
X18044Y07669*
X18044Y07669*
X18038*
Y07669*
X18024Y07667*
X1801Y07662*
X17999Y07653*
X1799Y07641*
X17985Y07628*
X17983Y07614*
X17983*
Y07608*
X17934*
Y075*
X17983*
Y07373*
X17978Y07372*
X17973Y0738*
X17965Y07389*
X17955Y07394*
X17944Y07397*
X17933*
X17922Y07394*
X17912Y07389*
X17904Y0738*
X17898Y07371*
X17895Y0736*
Y07348*
X17898Y07337*
X17904Y07327*
X17912Y07319*
X17922Y07313*
X17933Y0731*
X17944*
X17955Y07313*
X17965Y07319*
X17973Y07327*
X17978Y07336*
X17983Y07334*
Y06858*
X17934*
Y0675*
X17983*
Y06623*
X17978Y06622*
X17973Y0663*
X17965Y06639*
X17955Y06644*
X17944Y06647*
X17933*
X17922Y06644*
X17912Y06639*
X17904Y0663*
X17898Y06621*
X17895Y0661*
Y06598*
X17898Y06587*
X17904Y06577*
X17912Y06569*
X17922Y06563*
X17933Y0656*
X17944*
X17955Y06563*
X17965Y06569*
X17973Y06577*
X17978Y06586*
X17983Y06584*
Y06108*
X17934*
Y06*
X17983*
Y05873*
X17978Y05872*
X17973Y0588*
X17965Y05889*
X17955Y05894*
X17944Y05897*
X17933*
X17922Y05894*
X17912Y05889*
X17904Y0588*
X17898Y05871*
X17895Y0586*
Y05848*
X17898Y05837*
X17904Y05827*
X17912Y05819*
X17922Y05813*
X17933Y0581*
X17944*
X17955Y05813*
X17965Y05819*
X17973Y05827*
X17978Y05836*
X17983Y05834*
Y05358*
X17934*
Y0525*
X18062*
Y05358*
X18013*
Y06*
X18062*
Y06108*
X18013*
Y0675*
X18062*
Y06858*
X18013*
Y075*
X18062*
Y07608*
X18013*
Y07614*
X18013Y07614*
X18015Y07623*
X18021Y07631*
X18029Y07637*
X18038Y07639*
X18038Y07639*
X18044*
Y07639*
X18056Y0764*
X18069Y07644*
X1808Y0765*
X1809Y07658*
X18098Y07668*
X18104Y07679*
X18108Y07691*
X18109Y07704*
X18109*
Y08462*
X18109*
X18108Y08481*
X18104Y08498*
X18097Y08515*
X18087Y0853*
X18076Y08544*
X18062Y08556*
X18046Y08565*
X1803Y08572*
X18012Y08576*
X17994Y08578*
Y08578*
X1788*
X17878Y08581*
X17872Y08587*
X17865Y0859*
X17858Y08592*
G37*
G36*
X15794Y0825D02*
X15783D01*
X15772Y08248*
X15762Y08242*
X15755Y08234*
X15749Y08225*
X15746Y08214*
Y08203*
X15749Y08192*
X15755Y08183*
X15762Y08175*
X15772Y08169*
X15783Y08166*
X15794*
X15804Y08169*
X15814Y08175*
X15822Y08183*
X15827Y08192*
X1583Y08203*
Y08214*
X15827Y08225*
X15822Y08234*
X15814Y08242*
X15804Y08248*
X15794Y0825*
G37*
G36*
X18345Y08273D02*
X18331D01*
X18318Y0827*
X18306Y08265*
X18294Y08257*
X18285Y08248*
X18277Y08236*
X18272Y08224*
X18269Y08211*
Y08197*
X18272Y08184*
X18277Y08171*
X18285Y0816*
X18293Y08152*
X1829Y08147*
X18283*
X18272Y08144*
X18262Y08139*
X18254Y0813*
X18248Y08121*
X18245Y0811*
Y08098*
X18248Y08087*
X18254Y08077*
X18262Y08069*
X18272Y08063*
X18283Y0806*
X18294*
X18305Y08063*
X18315Y08069*
X18323Y08077*
X18329Y08087*
X18332Y08098*
Y0811*
X18329Y08121*
X18323Y0813*
X18322Y08132*
X18324Y08136*
X18331Y08135*
X18345*
X18358Y08138*
X18371Y08143*
X18382Y0815*
X18392Y0816*
X18399Y08171*
X18405Y08184*
X18407Y08197*
Y08211*
X18405Y08224*
X18399Y08236*
X18392Y08248*
X18382Y08257*
X18371Y08265*
X18358Y0827*
X18345Y08273*
G37*
G36*
X17595D02*
X17581D01*
X17568Y0827*
X17556Y08265*
X17544Y08257*
X17535Y08248*
X17527Y08236*
X17522Y08224*
X17519Y08211*
Y08197*
X17522Y08184*
X17527Y08171*
X17535Y0816*
X17543Y08152*
X1754Y08147*
X17533*
X17522Y08144*
X17512Y08139*
X17504Y0813*
X17498Y08121*
X17495Y0811*
Y08098*
X17498Y08087*
X17504Y08077*
X17512Y08069*
X17522Y08063*
X17533Y0806*
X17544*
X17555Y08063*
X17565Y08069*
X17573Y08077*
X17579Y08087*
X17582Y08098*
Y0811*
X17579Y08121*
X17573Y0813*
X17572Y08132*
X17574Y08136*
X17581Y08135*
X17595*
X17608Y08138*
X17621Y08143*
X17632Y0815*
X17642Y0816*
X17649Y08171*
X17655Y08184*
X17657Y08197*
Y08211*
X17655Y08224*
X17649Y08236*
X17642Y08248*
X17632Y08257*
X17621Y08265*
X17608Y0827*
X17595Y08273*
G37*
G36*
X16845D02*
X16831D01*
X16818Y0827*
X16806Y08265*
X16794Y08257*
X16785Y08248*
X16777Y08236*
X16772Y08224*
X16769Y08211*
Y08197*
X16772Y08184*
X16777Y08171*
X16785Y0816*
X16793Y08152*
X1679Y08147*
X16783*
X16772Y08144*
X16762Y08139*
X16754Y0813*
X16748Y08121*
X16745Y0811*
Y08098*
X16748Y08087*
X16754Y08077*
X16762Y08069*
X16772Y08063*
X16783Y0806*
X16794*
X16805Y08063*
X16815Y08069*
X16823Y08077*
X16829Y08087*
X16832Y08098*
Y0811*
X16829Y08121*
X16823Y0813*
X16822Y08132*
X16824Y08136*
X16831Y08135*
X16845*
X16858Y08138*
X16871Y08143*
X16882Y0815*
X16892Y0816*
X16899Y08171*
X16905Y08184*
X16907Y08197*
Y08211*
X16905Y08224*
X16899Y08236*
X16892Y08248*
X16882Y08257*
X16871Y08265*
X16858Y0827*
X16845Y08273*
G37*
G36*
X16095D02*
X16081D01*
X16068Y0827*
X16056Y08265*
X16044Y08257*
X16035Y08248*
X16027Y08236*
X16022Y08224*
X16019Y08211*
Y08197*
X16022Y08184*
X16027Y08171*
X16035Y0816*
X16043Y08152*
X1604Y08147*
X16033*
X16022Y08144*
X16012Y08139*
X16004Y0813*
X15998Y08121*
X15995Y0811*
Y08098*
X15998Y08087*
X16004Y08077*
X16012Y08069*
X16022Y08063*
X16033Y0806*
X16044*
X16055Y08063*
X16065Y08069*
X16073Y08077*
X16079Y08087*
X16082Y08098*
Y0811*
X16079Y08121*
X16073Y0813*
X16072Y08132*
X16074Y08136*
X16081Y08135*
X16095*
X16108Y08138*
X16121Y08143*
X16132Y0815*
X16142Y0816*
X16149Y08171*
X16155Y08184*
X16157Y08197*
Y08211*
X16155Y08224*
X16149Y08236*
X16142Y08248*
X16132Y08257*
X16121Y08265*
X16108Y0827*
X16095Y08273*
G37*
G36*
X15794Y0815D02*
X15783D01*
X15772Y08148*
X15762Y08142*
X15755Y08134*
X15749Y08125*
X15746Y08114*
Y08103*
X15749Y08092*
X15755Y08083*
X15762Y08075*
X15772Y08069*
X15783Y08066*
X15794*
X15804Y08069*
X15814Y08075*
X15822Y08083*
X15827Y08092*
X1583Y08103*
Y08114*
X15827Y08125*
X15822Y08134*
X15814Y08142*
X15804Y08148*
X15794Y0815*
G37*
G36*
X18694Y08147D02*
X18683D01*
X18672Y08144*
X18662Y08139*
X18654Y0813*
X18648Y08121*
X18645Y0811*
Y08098*
X18648Y08087*
X18654Y08077*
X18662Y08069*
X18672Y08063*
X18683Y0806*
X18694*
X18705Y08063*
X18715Y08069*
X18723Y08077*
X18729Y08087*
X18732Y08098*
Y0811*
X18729Y08121*
X18723Y0813*
X18715Y08139*
X18705Y08144*
X18694Y08147*
G37*
G36*
X18497Y08192D02*
X1848D01*
X18463Y08189*
X18446Y08182*
X18432Y08172*
X1842Y0816*
X1841Y08146*
X18403Y0813*
X184Y08113*
Y08095*
X18403Y08078*
X1841Y08062*
X1842Y08048*
X18432Y08035*
X18446Y08026*
X18463Y08019*
X1848Y08015*
X18497*
X18514Y08019*
X1853Y08026*
X18545Y08035*
X18557Y08048*
X18567Y08062*
X18573Y08078*
X18577Y08095*
Y08113*
X18573Y0813*
X18567Y08146*
X18557Y0816*
X18545Y08172*
X1853Y08182*
X18514Y08189*
X18497Y08192*
G37*
G36*
X17747D02*
X1773D01*
X17713Y08189*
X17696Y08182*
X17682Y08172*
X1767Y0816*
X1766Y08146*
X17653Y0813*
X1765Y08113*
Y08095*
X17653Y08078*
X1766Y08062*
X1767Y08048*
X17682Y08035*
X17696Y08026*
X17713Y08019*
X1773Y08015*
X17747*
X17764Y08019*
X1778Y08026*
X17795Y08035*
X17807Y08048*
X17817Y08062*
X17823Y08078*
X17827Y08095*
Y08113*
X17823Y0813*
X17817Y08146*
X17807Y0816*
X17795Y08172*
X1778Y08182*
X17764Y08189*
X17747Y08192*
G37*
G36*
X16997D02*
X1698D01*
X16963Y08189*
X16946Y08182*
X16932Y08172*
X1692Y0816*
X1691Y08146*
X16903Y0813*
X169Y08113*
Y08095*
X16903Y08078*
X1691Y08062*
X1692Y08048*
X16932Y08035*
X16946Y08026*
X16963Y08019*
X1698Y08015*
X16997*
X17014Y08019*
X1703Y08026*
X17045Y08035*
X17057Y08048*
X17067Y08062*
X17073Y08078*
X17077Y08095*
Y08113*
X17073Y0813*
X17067Y08146*
X17057Y0816*
X17045Y08172*
X1703Y08182*
X17014Y08189*
X16997Y08192*
G37*
G36*
X16247D02*
X1623D01*
X16213Y08189*
X16196Y08182*
X16182Y08172*
X1617Y0816*
X1616Y08146*
X16153Y0813*
X1615Y08113*
Y08095*
X16153Y08078*
X1616Y08062*
X1617Y08048*
X16182Y08035*
X16196Y08026*
X16213Y08019*
X1623Y08015*
X16247*
X16264Y08019*
X1628Y08026*
X16295Y08035*
X16307Y08048*
X16317Y08062*
X16323Y08078*
X16327Y08095*
Y08113*
X16323Y0813*
X16317Y08146*
X16307Y0816*
X16295Y08172*
X1628Y08182*
X16264Y08189*
X16247Y08192*
G37*
G36*
X15794Y0805D02*
X15783D01*
X15772Y08048*
X15762Y08042*
X15755Y08034*
X15749Y08025*
X15746Y08014*
Y08003*
X15749Y07992*
X15755Y07983*
X15762Y07975*
X15772Y07969*
X15783Y07966*
X15794*
X15804Y07969*
X15814Y07975*
X15822Y07983*
X15827Y07992*
X1583Y08003*
Y08014*
X15827Y08025*
X15822Y08034*
X15814Y08042*
X15804Y08048*
X15794Y0805*
G37*
G36*
X18245Y08258D02*
X18117D01*
Y0815*
X18166*
Y08013*
X18166*
X18167Y07995*
X18171Y07977*
X18178Y07961*
X18188Y07945*
X182Y07931*
X18213Y0792*
X18229Y0791*
X18246Y07903*
X18261Y07899*
Y07889*
X18307*
Y07937*
X18261*
Y07935*
X18257Y07932*
X18249Y07934*
X18234Y07942*
X18221Y07953*
X18211Y07966*
X18203Y0798*
X18198Y07996*
X18196Y08012*
X18196Y08013*
Y0815*
X18245*
Y08258*
G37*
G36*
X16745D02*
X16617D01*
Y0815*
X16666*
Y08013*
X16666*
X16667Y07995*
X16671Y07977*
X16678Y07961*
X16688Y07945*
X167Y07931*
X16713Y0792*
X16729Y0791*
X16746Y07903*
X16763Y07899*
X16765Y07899*
Y07889*
X16811*
Y07937*
X16765*
Y07935*
X1676Y07931*
X16749Y07934*
X16734Y07942*
X16721Y07953*
X16711Y07966*
X16703Y0798*
X16698Y07996*
X16696Y08012*
X16696Y08013*
Y0815*
X16745*
Y08258*
G37*
G36*
X15995D02*
X15867D01*
Y0815*
X15916*
Y08013*
X15916*
X15917Y07995*
X15921Y07977*
X15928Y07961*
X15938Y07945*
X1595Y07931*
X15963Y0792*
X15979Y0791*
X15996Y07903*
X16013Y07899*
X16017Y07899*
Y07889*
X16063*
Y07937*
X16017*
Y07934*
X16012Y0793*
X15999Y07934*
X15984Y07942*
X15971Y07953*
X15961Y07966*
X15953Y0798*
X15948Y07996*
X15946Y08012*
X15946Y08013*
Y0815*
X15995*
Y08258*
G37*
G36*
X16562Y08358D02*
X16434D01*
Y0825*
X16483*
Y08123*
X16478Y08122*
X16473Y0813*
X16465Y08139*
X16455Y08144*
X16444Y08147*
X16433*
X16422Y08144*
X16412Y08139*
X16404Y0813*
X16398Y08121*
X16395Y0811*
Y08098*
X16398Y08087*
X16404Y08077*
X16412Y08069*
X16422Y08063*
X16433Y0806*
X16444*
X16455Y08063*
X16465Y08069*
X16473Y08077*
X16478Y08086*
X16483Y08084*
Y07824*
X16483Y07823*
X16481Y07807*
X16477Y07791*
X16469Y07777*
X16458Y07764*
X16445Y07753*
X16431Y07745*
X16415Y07741*
X16399Y07739*
X16398Y07739*
X15848*
Y07739*
X1583Y07738*
X15812Y07734*
X15796Y07727*
X1578Y07717*
X15767Y07705*
X15755Y07692*
X15745Y07676*
X15738Y07659*
X15734Y07642*
X15733Y07624*
X15733*
Y07608*
X15684*
Y075*
X15733*
Y07373*
X15728Y07372*
X15723Y0738*
X15715Y07389*
X15705Y07394*
X15694Y07397*
X15683*
X15672Y07394*
X15662Y07389*
X15654Y0738*
X15648Y07371*
X15645Y0736*
Y07348*
X15648Y07337*
X15654Y07327*
X15662Y07319*
X15672Y07313*
X15683Y0731*
X15694*
X15705Y07313*
X15715Y07319*
X15723Y07327*
X15728Y07336*
X15733Y07334*
Y06858*
X15684*
Y0675*
X15733*
Y06623*
X15728Y06622*
X15723Y0663*
X15715Y06639*
X15705Y06644*
X15694Y06647*
X15683*
X15672Y06644*
X15662Y06639*
X15654Y0663*
X15648Y06621*
X15645Y0661*
Y06598*
X15648Y06587*
X15654Y06577*
X15662Y06569*
X15672Y06563*
X15683Y0656*
X15694*
X15705Y06563*
X15715Y06569*
X15723Y06577*
X15728Y06586*
X15733Y06584*
Y06108*
X15684*
Y06*
X15733*
Y05873*
X15728Y05872*
X15723Y0588*
X15715Y05889*
X15705Y05894*
X15694Y05897*
X15683*
X15672Y05894*
X15662Y05889*
X15654Y0588*
X15648Y05871*
X15645Y0586*
Y05848*
X15648Y05837*
X15654Y05827*
X15662Y05819*
X15672Y05813*
X15683Y0581*
X15694*
X15705Y05813*
X15715Y05819*
X15723Y05827*
X15728Y05836*
X15733Y05834*
Y05358*
X15684*
Y0525*
X15812*
Y05358*
X15763*
Y06*
X15812*
Y06108*
X15763*
Y0675*
X15812*
Y06858*
X15763*
Y07036*
X15768Y07037*
X15769Y07035*
X15773Y07028*
X15778Y07023*
X15785Y07019*
X15793Y07017*
X15801*
X15808Y07019*
X15815Y07023*
X15821Y07028*
X15823Y07031*
X16135*
X16137Y07028*
X16143Y07023*
X16149Y07019*
X16157Y07017*
X16165*
X16173Y07019*
X16179Y07023*
X16185Y07028*
X16189Y07035*
X16191Y07043*
Y07051*
X16189Y07058*
X16185Y07065*
X16179Y07071*
X16179Y07071*
Y07141*
X16187*
Y07189*
X16141*
Y07141*
X16149*
Y07074*
X16143Y07071*
X16137Y07065*
X16135Y07062*
X15823*
X15821Y07065*
X15815Y07071*
X15808Y07075*
X15801Y07077*
X15793*
X15785Y07075*
X15778Y07071*
X15773Y07065*
X15769Y07058*
X15768Y07057*
X15763Y07058*
Y075*
X15812*
Y07608*
X15763*
Y07624*
X15763Y07625*
X15765Y0764*
X1577Y07656*
X15778Y07671*
X15788Y07684*
X15801Y07694*
X15816Y07702*
X15832Y07707*
X15847Y07709*
X15848Y07709*
X16398*
Y07708*
X16416Y0771*
X16434Y07714*
X1645Y07721*
X16466Y07731*
X1648Y07742*
X16491Y07756*
X16501Y07771*
X16508Y07788*
X16512Y07806*
X16513Y07824*
X16513*
Y0825*
X16555*
X16558Y0824*
X16559Y08228*
X16559Y08228*
Y07927*
X16556Y07925*
X1655Y07919*
X16546Y07913*
X16544Y07905*
Y07897*
X16546Y0789*
X1655Y07883*
X16556Y07877*
X16563Y07873*
X1657Y07871*
X16578*
X16586Y07873*
X16593Y07877*
X16598Y07883*
X16602Y0789*
X16604Y07897*
Y07905*
X16602Y07913*
X16598Y07919*
X16593Y07925*
X1659Y07927*
Y08228*
X1659*
X16588Y08246*
X16583Y08263*
X16574Y08279*
X16563Y08292*
X16562Y08293*
Y08358*
G37*
G36*
X15794Y0795D02*
X15783D01*
X15772Y07948*
X15762Y07942*
X15755Y07934*
X15749Y07925*
X15746Y07914*
Y07903*
X15749Y07892*
X15755Y07883*
X15762Y07875*
X15772Y07869*
X15783Y07866*
X15794*
X15804Y07869*
X15814Y07875*
X15822Y07883*
X15827Y07892*
X1583Y07903*
Y07914*
X15827Y07925*
X15822Y07934*
X15814Y07942*
X15804Y07948*
X15794Y0795*
G37*
G36*
X17683Y07937D02*
X17637D01*
Y07889*
X17642*
Y0786*
X17639Y07858*
X17633Y07853*
X17629Y07846*
X17627Y07838*
Y0783*
X17629Y07823*
X17633Y07816*
X17639Y0781*
X17645Y07806*
X17653Y07804*
X17661*
X17669Y07806*
X17675Y0781*
X17681Y07816*
X17685Y07823*
X17687Y0783*
Y07838*
X17685Y07846*
X17681Y07853*
X17675Y07858*
X17672Y0786*
Y07889*
X17683*
Y07937*
G37*
G36*
X16935D02*
X16889D01*
Y07889*
X16897*
Y07862*
X16891Y07858*
X16885Y07853*
X16881Y07846*
X16879Y07838*
Y0783*
X16881Y07823*
X16885Y07816*
X16891Y0781*
X16897Y07806*
X16905Y07804*
X16913*
X16921Y07806*
X16927Y0781*
X16933Y07816*
X16937Y07823*
X16939Y0783*
Y07838*
X16937Y07846*
X16933Y07853*
X16927Y07858*
X16927Y07858*
Y07889*
X16935*
Y07937*
G37*
G36*
X16187D02*
X16141D01*
Y07889*
X16149*
Y07862*
X16143Y07858*
X16137Y07853*
X16133Y07846*
X16131Y07838*
Y0783*
X16133Y07823*
X16137Y07816*
X16143Y0781*
X16149Y07806*
X16157Y07804*
X16165*
X16173Y07806*
X16179Y0781*
X16185Y07816*
X16189Y07823*
X16191Y0783*
Y07838*
X16189Y07846*
X16185Y07853*
X16179Y07858*
X16179Y07858*
Y07889*
X16187*
Y07937*
G37*
G36*
X18431D02*
X18385D01*
Y07889*
X18393*
Y07824*
X1839Y07822*
X18384Y07816*
X1838Y07809*
X18378Y07802*
Y07794*
X1838Y07786*
X18384Y07779*
X1839Y07774*
X18396Y0777*
X18404Y07768*
X18412*
X1842Y0777*
X18426Y07774*
X18432Y07779*
X18436Y07786*
X18438Y07794*
Y07802*
X18436Y07809*
X18432Y07816*
X18426Y07822*
X18423Y07824*
Y07889*
X18431*
Y07937*
G37*
G36*
X17845Y07623D02*
X17831D01*
X17818Y0762*
X17806Y07615*
X17794Y07607*
X17785Y07598*
X17777Y07586*
X17772Y07574*
X17769Y07561*
Y07547*
X17772Y07534*
X17777Y07521*
X17785Y0751*
X17794Y075*
X17806Y07493*
X17818Y07488*
X17831Y07485*
X17845*
X17858Y07488*
X17871Y07493*
X17882Y075*
X17892Y0751*
X17899Y07521*
X17905Y07534*
X17907Y07547*
Y07561*
X17905Y07574*
X17899Y07586*
X17892Y07598*
X17882Y07607*
X17871Y07615*
X17858Y0762*
X17845Y07623*
G37*
G36*
X17095D02*
X17081D01*
X17068Y0762*
X17056Y07615*
X17044Y07607*
X17035Y07598*
X17027Y07586*
X17022Y07574*
X17019Y07561*
Y07547*
X17022Y07534*
X17027Y07521*
X17035Y0751*
X17044Y075*
X17056Y07493*
X17068Y07488*
X17081Y07485*
X17095*
X17108Y07488*
X17121Y07493*
X17132Y075*
X17142Y0751*
X17149Y07521*
X17155Y07534*
X17157Y07547*
Y07561*
X17155Y07574*
X17149Y07586*
X17142Y07598*
X17132Y07607*
X17121Y07615*
X17108Y0762*
X17095Y07623*
G37*
G36*
X16345D02*
X16331D01*
X16318Y0762*
X16306Y07615*
X16294Y07607*
X16285Y07598*
X16277Y07586*
X16272Y07574*
X16269Y07561*
Y07547*
X16272Y07534*
X16277Y07521*
X16285Y0751*
X16294Y075*
X16306Y07493*
X16318Y07488*
X16331Y07485*
X16345*
X16358Y07488*
X16371Y07493*
X16382Y075*
X16392Y0751*
X16399Y07521*
X16405Y07534*
X16407Y07547*
Y07561*
X16405Y07574*
X16399Y07586*
X16392Y07598*
X16382Y07607*
X16371Y07615*
X16358Y0762*
X16345Y07623*
G37*
G36*
X15595D02*
X15581D01*
X15568Y0762*
X15556Y07615*
X15544Y07607*
X15535Y07598*
X15527Y07586*
X15522Y07574*
X15519Y07561*
Y07547*
X15522Y07534*
X15527Y07521*
X15535Y0751*
X15544Y075*
X15556Y07493*
X15568Y07488*
X15581Y07485*
X15595*
X15608Y07488*
X15621Y07493*
X15632Y075*
X15642Y0751*
X15649Y07521*
X15655Y07534*
X15657Y07547*
Y07561*
X15655Y07574*
X15649Y07586*
X15642Y07598*
X15632Y07607*
X15621Y07615*
X15608Y0762*
X15595Y07623*
G37*
G36*
X17595Y07523D02*
X17581D01*
X17568Y0752*
X17556Y07515*
X17544Y07507*
X17535Y07498*
X17527Y07486*
X17522Y07474*
X17519Y07461*
Y07447*
X17522Y07434*
X17527Y07421*
X17535Y0741*
X17543Y07402*
X1754Y07397*
X17533*
X17522Y07394*
X17512Y07389*
X17504Y0738*
X17498Y07371*
X17495Y0736*
Y07348*
X17498Y07337*
X17504Y07327*
X17512Y07319*
X17522Y07313*
X17533Y0731*
X17544*
X17555Y07313*
X17565Y07319*
X17573Y07327*
X17579Y07337*
X17582Y07348*
Y0736*
X17579Y07371*
X17573Y0738*
X17572Y07382*
X17574Y07386*
X17581Y07385*
X17595*
X17608Y07388*
X17621Y07393*
X17632Y074*
X17642Y0741*
X17649Y07421*
X17655Y07434*
X17657Y07447*
Y07461*
X17655Y07474*
X17649Y07486*
X17642Y07498*
X17632Y07507*
X17621Y07515*
X17608Y0752*
X17595Y07523*
G37*
G36*
X16845D02*
X16831D01*
X16818Y0752*
X16806Y07515*
X16794Y07507*
X16785Y07498*
X16777Y07486*
X16772Y07474*
X16769Y07461*
Y07447*
X16772Y07434*
X16777Y07421*
X16785Y0741*
X16793Y07402*
X1679Y07397*
X16783*
X16772Y07394*
X16762Y07389*
X16754Y0738*
X16748Y07371*
X16745Y0736*
Y07348*
X16748Y07337*
X16754Y07327*
X16762Y07319*
X16772Y07313*
X16783Y0731*
X16794*
X16805Y07313*
X16815Y07319*
X16823Y07327*
X16829Y07337*
X16832Y07348*
Y0736*
X16829Y07371*
X16823Y0738*
X16822Y07382*
X16824Y07386*
X16831Y07385*
X16845*
X16858Y07388*
X16871Y07393*
X16882Y074*
X16892Y0741*
X16899Y07421*
X16905Y07434*
X16907Y07447*
Y07461*
X16905Y07474*
X16899Y07486*
X16892Y07498*
X16882Y07507*
X16871Y07515*
X16858Y0752*
X16845Y07523*
G37*
G36*
X16095D02*
X16081D01*
X16068Y0752*
X16056Y07515*
X16044Y07507*
X16035Y07498*
X16027Y07486*
X16022Y07474*
X16019Y07461*
Y07447*
X16022Y07434*
X16027Y07421*
X16035Y0741*
X16043Y07402*
X1604Y07397*
X16033*
X16022Y07394*
X16012Y07389*
X16004Y0738*
X15998Y07371*
X15995Y0736*
Y07348*
X15998Y07337*
X16004Y07327*
X16012Y07319*
X16022Y07313*
X16033Y0731*
X16044*
X16055Y07313*
X16065Y07319*
X16073Y07327*
X16079Y07337*
X16082Y07348*
Y0736*
X16079Y07371*
X16073Y0738*
X16072Y07382*
X16074Y07386*
X16081Y07385*
X16095*
X16108Y07388*
X16121Y07393*
X16132Y074*
X16142Y0741*
X16149Y07421*
X16155Y07434*
X16157Y07447*
Y07461*
X16155Y07474*
X16149Y07486*
X16142Y07498*
X16132Y07507*
X16121Y07515*
X16108Y0752*
X16095Y07523*
G37*
G36*
X15345D02*
X15331D01*
X15318Y0752*
X15306Y07515*
X15294Y07507*
X15285Y07498*
X15277Y07486*
X15272Y07474*
X15269Y07461*
Y07447*
X15272Y07434*
X15277Y07421*
X15285Y0741*
X15293Y07402*
X1529Y07397*
X15283*
X15272Y07394*
X15262Y07389*
X15254Y0738*
X15248Y07371*
X15245Y0736*
Y07348*
X15248Y07337*
X15254Y07327*
X15262Y07319*
X15272Y07313*
X15283Y0731*
X15294*
X15305Y07313*
X15315Y07319*
X15323Y07327*
X15329Y07337*
X15332Y07348*
Y0736*
X15329Y07371*
X15323Y0738*
X15322Y07382*
X15324Y07386*
X15331Y07385*
X15345*
X15358Y07388*
X15371Y07393*
X15382Y074*
X15392Y0741*
X15399Y07421*
X15405Y07434*
X15407Y07447*
Y07461*
X15405Y07474*
X15399Y07486*
X15392Y07498*
X15382Y07507*
X15371Y07515*
X15358Y0752*
X15345Y07523*
G37*
G36*
X18172Y07535D02*
X18155D01*
X18138Y07532*
X18121Y07525*
X18107Y07515*
X18095Y07503*
X18085Y07488*
X18078Y07472*
X18075Y07455*
Y07438*
X18078Y07421*
X18085Y07405*
X18095Y0739*
X18107Y07378*
X18121Y07368*
X18138Y07362*
X18155Y07358*
X18172*
X18189Y07362*
X18205Y07368*
X1822Y07378*
X18232Y0739*
X18242Y07405*
X18248Y07421*
X18252Y07438*
Y07455*
X18248Y07472*
X18242Y07488*
X18232Y07503*
X1822Y07515*
X18205Y07525*
X18189Y07532*
X18172Y07535*
G37*
G36*
X18642Y07348D02*
X18534D01*
Y07299*
X18281*
Y07299*
X18263Y07298*
X18246Y07293*
X18229Y07286*
X18213Y07277*
X182Y07265*
X18188Y07251*
X18178Y07236*
X18171Y07219*
X18167Y07202*
X18166Y07184*
X18166*
Y06871*
X18166*
X18167Y06853*
X18171Y06836*
X18178Y06819*
X18188Y06803*
X182Y0679*
X18213Y06778*
X18229Y06768*
X18246Y06761*
X18261Y06758*
Y06747*
X18307*
Y06795*
X18261*
Y06793*
X18257Y0679*
X18249Y06793*
X18234Y06801*
X18221Y06811*
X18211Y06824*
X18203Y06839*
X18198Y06855*
X18196Y0687*
X18196Y06871*
Y07184*
X18196Y07184*
X18198Y072*
X18203Y07216*
X18211Y07231*
X18221Y07244*
X18234Y07254*
X18249Y07262*
X18265Y07267*
X18281Y07268*
X18281Y07268*
X18534*
Y0722*
X18642*
Y07348*
G37*
G36*
X17747Y07442D02*
X1773D01*
X17713Y07439*
X17696Y07432*
X17682Y07422*
X1767Y0741*
X1766Y07396*
X17653Y0738*
X1765Y07363*
Y07345*
X17653Y07328*
X1766Y07312*
X1767Y07298*
X17682Y07285*
X17696Y07276*
X17713Y07269*
X1773Y07265*
X17747*
X17764Y07269*
X1778Y07276*
X17795Y07285*
X17807Y07298*
X17817Y07312*
X17823Y07328*
X17827Y07345*
Y07363*
X17823Y0738*
X17817Y07396*
X17807Y0741*
X17795Y07422*
X1778Y07432*
X17764Y07439*
X17747Y07442*
G37*
G36*
X16997D02*
X1698D01*
X16963Y07439*
X16946Y07432*
X16932Y07422*
X1692Y0741*
X1691Y07396*
X16903Y0738*
X169Y07363*
Y07345*
X16903Y07328*
X1691Y07312*
X1692Y07298*
X16932Y07285*
X16946Y07276*
X16963Y07269*
X1698Y07265*
X16997*
X17014Y07269*
X1703Y07276*
X17045Y07285*
X17057Y07298*
X17067Y07312*
X17073Y07328*
X17077Y07345*
Y07363*
X17073Y0738*
X17067Y07396*
X17057Y0741*
X17045Y07422*
X1703Y07432*
X17014Y07439*
X16997Y07442*
G37*
G36*
X16247D02*
X1623D01*
X16213Y07439*
X16196Y07432*
X16182Y07422*
X1617Y0741*
X1616Y07396*
X16153Y0738*
X1615Y07363*
Y07345*
X16153Y07328*
X1616Y07312*
X1617Y07298*
X16182Y07285*
X16196Y07276*
X16213Y07269*
X1623Y07265*
X16247*
X16264Y07269*
X1628Y07276*
X16295Y07285*
X16307Y07298*
X16317Y07312*
X16323Y07328*
X16327Y07345*
Y07363*
X16323Y0738*
X16317Y07396*
X16307Y0741*
X16295Y07422*
X1628Y07432*
X16264Y07439*
X16247Y07442*
G37*
G36*
X15497D02*
X1548D01*
X15463Y07439*
X15446Y07432*
X15432Y07422*
X1542Y0741*
X1541Y07396*
X15403Y0738*
X154Y07363*
Y07345*
X15403Y07328*
X1541Y07312*
X1542Y07298*
X15432Y07285*
X15446Y07276*
X15463Y07269*
X1548Y07265*
X15497*
X15514Y07269*
X1553Y07276*
X15545Y07285*
X15557Y07298*
X15567Y07312*
X15573Y07328*
X15577Y07345*
Y07363*
X15573Y0738*
X15567Y07396*
X15557Y0741*
X15545Y07422*
X1553Y07432*
X15514Y07439*
X15497Y07442*
G37*
G36*
X17495Y07508D02*
X17367D01*
Y074*
X17416*
Y07265*
X17416*
X17417Y07247*
X17421Y07229*
X17428Y07212*
X17438Y07197*
X1745Y07183*
X17463Y07172*
X17479Y07162*
X17496Y07155*
X17513Y07151*
X17513Y07151*
Y07141*
X17559*
Y07189*
X17513*
Y07186*
X17509Y07183*
X17499Y07186*
X17484Y07194*
X17471Y07205*
X17461Y07218*
X17453Y07232*
X17448Y07248*
X17446Y07264*
X17446Y07265*
Y074*
X17495*
Y07508*
G37*
G36*
X16745D02*
X16617D01*
Y074*
X16666*
Y07265*
X16666*
X16667Y07247*
X16671Y07229*
X16678Y07212*
X16688Y07197*
X167Y07183*
X16713Y07172*
X16729Y07162*
X16746Y07155*
X16763Y07151*
X16765Y07151*
Y07141*
X16811*
Y07189*
X16765*
Y07187*
X1676Y07183*
X16749Y07186*
X16734Y07194*
X16721Y07205*
X16711Y07218*
X16703Y07232*
X16698Y07248*
X16696Y07264*
X16696Y07265*
Y074*
X16745*
Y07508*
G37*
G36*
X15995D02*
X15867D01*
Y074*
X15916*
Y07265*
X15916*
X15917Y07247*
X15921Y07229*
X15928Y07212*
X15938Y07197*
X1595Y07183*
X15963Y07172*
X15979Y07162*
X15996Y07155*
X16013Y07151*
X16017Y07151*
Y07141*
X16063*
Y07189*
X16017*
Y07185*
X16012Y07182*
X15999Y07186*
X15984Y07194*
X15971Y07205*
X15961Y07218*
X15953Y07232*
X15948Y07248*
X15946Y07264*
X15946Y07265*
Y074*
X15995*
Y07508*
G37*
G36*
X15439Y07189D02*
X15393D01*
Y07141*
X15398*
Y07132*
X15394Y0713*
X15389Y07124*
X15385Y07117*
X15383Y0711*
Y07102*
X15385Y07094*
X15389Y07087*
X15394Y07082*
X15401Y07078*
X15409Y07076*
X15417*
X15424Y07078*
X15431Y07082*
X15437Y07087*
X15441Y07094*
X15443Y07102*
Y0711*
X15441Y07117*
X15437Y07124*
X15431Y0713*
X15428Y07132*
Y07141*
X15439*
Y07189*
G37*
G36*
X18494Y0722D02*
X18483D01*
X18472Y07217*
X18462Y07211*
X18454Y07203*
X18448Y07193*
X18445Y07182*
Y07171*
X18448Y0716*
X18454Y0715*
X18462Y07142*
X18472Y07136*
X18483Y07133*
X18494*
X18505Y07136*
X18515Y07142*
X18516Y07143*
X18521Y07141*
X18519Y07133*
Y0712*
X18522Y07106*
X18527Y07094*
X18535Y07083*
X18544Y07073*
X18556Y07065*
X18568Y0706*
X18581Y07058*
X18595*
X18608Y0706*
X18621Y07065*
X18632Y07073*
X18642Y07083*
X18649Y07094*
X18655Y07106*
X18657Y0712*
Y07133*
X18655Y07147*
X18649Y07159*
X18642Y0717*
X18632Y0718*
X18621Y07188*
X18608Y07193*
X18595Y07195*
X18581*
X18568Y07193*
X18556Y07188*
X18544Y0718*
X18537Y07172*
X18532Y07174*
Y07182*
X18529Y07193*
X18523Y07203*
X18515Y07211*
X18505Y07217*
X18494Y0722*
G37*
G36*
X17683Y07189D02*
X17637D01*
Y07141*
X17645*
Y07084*
X17639Y07081*
X17633Y07075*
X17629Y07068*
X17627Y07061*
Y07053*
X17629Y07045*
X17633Y07038*
X17639Y07033*
X17645Y07029*
X17653Y07027*
X17661*
X17669Y07029*
X17675Y07033*
X17681Y07038*
X17685Y07045*
X17687Y07053*
Y07061*
X17685Y07068*
X17681Y07075*
X17675Y07081*
X17675Y07081*
Y07141*
X17683*
Y07189*
G37*
G36*
X16935D02*
X16889D01*
Y07141*
X16894*
Y07073*
X16891Y07071*
X16885Y07065*
X16881Y07058*
X16879Y07051*
Y07043*
X16881Y07035*
X16885Y07028*
X16891Y07023*
X16897Y07019*
X16905Y07017*
X16913*
X16921Y07019*
X16927Y07023*
X16933Y07028*
X16937Y07035*
X16939Y07043*
Y07051*
X16937Y07058*
X16933Y07065*
X16927Y07071*
X16924Y07073*
Y07141*
X16935*
Y07189*
G37*
G36*
X18497Y07065D02*
X1848D01*
X18463Y07062*
X18446Y07055*
X18432Y07045*
X1842Y07033*
X1841Y07018*
X18403Y07002*
X184Y06985*
Y06968*
X18403Y06951*
X1841Y06935*
X1842Y0692*
X18432Y06908*
X18446Y06898*
X18463Y06892*
X1848Y06888*
X18497*
X18514Y06892*
X1853Y06898*
X18545Y06908*
X18557Y0692*
X18567Y06935*
X18573Y06951*
X18577Y06968*
Y06985*
X18573Y07002*
X18567Y07018*
X18557Y07033*
X18545Y07045*
X1853Y07055*
X18514Y07062*
X18497Y07065*
G37*
G36*
X18695Y06945D02*
X18681D01*
X18668Y06943*
X18656Y06938*
X18644Y0693*
X18635Y0692*
X18627Y06909*
X18622Y06897*
X18619Y06883*
Y0687*
X18622Y06856*
X18627Y06844*
X18635Y06833*
X18644Y06823*
X18656Y06815*
X18668Y0681*
X18681Y06808*
X18695*
X18708Y0681*
X18721Y06815*
X18732Y06823*
X18742Y06833*
X18749Y06844*
X18755Y06856*
X18757Y0687*
Y06883*
X18755Y06897*
X18749Y06909*
X18742Y0692*
X18732Y0693*
X18721Y06938*
X18708Y06943*
X18695Y06945*
G37*
G36*
X17845Y06873D02*
X17831D01*
X17818Y0687*
X17806Y06865*
X17794Y06857*
X17785Y06848*
X17777Y06836*
X17772Y06824*
X17769Y06811*
Y06797*
X17772Y06784*
X17777Y06771*
X17785Y0676*
X17794Y0675*
X17806Y06743*
X17818Y06738*
X17831Y06735*
X17845*
X17858Y06738*
X17871Y06743*
X17882Y0675*
X17892Y0676*
X17899Y06771*
X17905Y06784*
X17907Y06797*
Y06811*
X17905Y06824*
X17899Y06836*
X17892Y06848*
X17882Y06857*
X17871Y06865*
X17858Y0687*
X17845Y06873*
G37*
G36*
X17095D02*
X17081D01*
X17068Y0687*
X17056Y06865*
X17044Y06857*
X17035Y06848*
X17027Y06836*
X17022Y06824*
X17019Y06811*
Y06797*
X17022Y06784*
X17027Y06771*
X17035Y0676*
X17044Y0675*
X17056Y06743*
X17068Y06738*
X17081Y06735*
X17095*
X17108Y06738*
X17121Y06743*
X17132Y0675*
X17142Y0676*
X17149Y06771*
X17155Y06784*
X17157Y06797*
Y06811*
X17155Y06824*
X17149Y06836*
X17142Y06848*
X17132Y06857*
X17121Y06865*
X17108Y0687*
X17095Y06873*
G37*
G36*
X16345D02*
X16331D01*
X16318Y0687*
X16306Y06865*
X16294Y06857*
X16285Y06848*
X16277Y06836*
X16272Y06824*
X16269Y06811*
Y06797*
X16272Y06784*
X16277Y06771*
X16285Y0676*
X16294Y0675*
X16306Y06743*
X16318Y06738*
X16331Y06735*
X16345*
X16358Y06738*
X16371Y06743*
X16382Y0675*
X16392Y0676*
X16399Y06771*
X16405Y06784*
X16407Y06797*
Y06811*
X16405Y06824*
X16399Y06836*
X16392Y06848*
X16382Y06857*
X16371Y06865*
X16358Y0687*
X16345Y06873*
G37*
G36*
X15595D02*
X15581D01*
X15568Y0687*
X15556Y06865*
X15544Y06857*
X15535Y06848*
X15527Y06836*
X15522Y06824*
X15519Y06811*
Y06797*
X15522Y06784*
X15527Y06771*
X15535Y0676*
X15544Y0675*
X15556Y06743*
X15568Y06738*
X15581Y06735*
X15595*
X15608Y06738*
X15621Y06743*
X15632Y0675*
X15642Y0676*
X15649Y06771*
X15655Y06784*
X15657Y06797*
Y06811*
X15655Y06824*
X15649Y06836*
X15642Y06848*
X15632Y06857*
X15621Y06865*
X15608Y0687*
X15595Y06873*
G37*
G36*
X18494Y0682D02*
X18483D01*
X18472Y06817*
X18462Y06811*
X18454Y06803*
X18448Y06793*
X18445Y06782*
Y06771*
X18448Y0676*
X18454Y0675*
X18462Y06742*
X18472Y06736*
X18483Y06733*
X18494*
X18505Y06736*
X18515Y06742*
X18523Y0675*
X18529Y0676*
X18532Y06771*
Y06782*
X18529Y06793*
X18523Y06803*
X18515Y06811*
X18505Y06817*
X18494Y0682*
G37*
G36*
X18431Y06795D02*
X18385D01*
Y06747*
X1839*
Y06718*
X18387Y06716*
X18381Y06711*
X18377Y06704*
X18375Y06696*
Y06688*
X18377Y06681*
X18381Y06674*
X18387Y06668*
X18393Y06664*
X18401Y06662*
X18409*
X18417Y06664*
X18423Y06668*
X18429Y06674*
X18433Y06681*
X18435Y06688*
Y06696*
X18433Y06704*
X18429Y06711*
X18423Y06716*
X1842Y06718*
Y06747*
X18431*
Y06795*
G37*
G36*
X17595Y06773D02*
X17581D01*
X17568Y0677*
X17556Y06765*
X17544Y06757*
X17535Y06748*
X17527Y06736*
X17522Y06724*
X17519Y06711*
Y06697*
X17522Y06684*
X17527Y06671*
X17535Y0666*
X17543Y06652*
X1754Y06647*
X17533*
X17522Y06644*
X17512Y06639*
X17504Y0663*
X17498Y06621*
X17495Y0661*
Y06598*
X17498Y06587*
X17504Y06577*
X17512Y06569*
X17522Y06563*
X17533Y0656*
X17544*
X17555Y06563*
X17565Y06569*
X17573Y06577*
X17579Y06587*
X17582Y06598*
Y0661*
X17579Y06621*
X17573Y0663*
X17572Y06632*
X17574Y06636*
X17581Y06635*
X17595*
X17608Y06638*
X17621Y06643*
X17632Y0665*
X17642Y0666*
X17649Y06671*
X17655Y06684*
X17657Y06697*
Y06711*
X17655Y06724*
X17649Y06736*
X17642Y06748*
X17632Y06757*
X17621Y06765*
X17608Y0677*
X17595Y06773*
G37*
G36*
X16845D02*
X16831D01*
X16818Y0677*
X16806Y06765*
X16794Y06757*
X16785Y06748*
X16777Y06736*
X16772Y06724*
X16769Y06711*
Y06697*
X16772Y06684*
X16777Y06671*
X16785Y0666*
X16793Y06652*
X1679Y06647*
X16783*
X16772Y06644*
X16762Y06639*
X16754Y0663*
X16748Y06621*
X16745Y0661*
Y06598*
X16748Y06587*
X16754Y06577*
X16762Y06569*
X16772Y06563*
X16783Y0656*
X16794*
X16805Y06563*
X16815Y06569*
X16823Y06577*
X16829Y06587*
X16832Y06598*
Y0661*
X16829Y06621*
X16823Y0663*
X16822Y06632*
X16824Y06636*
X16831Y06635*
X16845*
X16858Y06638*
X16871Y06643*
X16882Y0665*
X16892Y0666*
X16899Y06671*
X16905Y06684*
X16907Y06697*
Y06711*
X16905Y06724*
X16899Y06736*
X16892Y06748*
X16882Y06757*
X16871Y06765*
X16858Y0677*
X16845Y06773*
G37*
G36*
X16095D02*
X16081D01*
X16068Y0677*
X16056Y06765*
X16044Y06757*
X16035Y06748*
X16027Y06736*
X16022Y06724*
X16019Y06711*
Y06697*
X16022Y06684*
X16027Y06671*
X16035Y0666*
X16043Y06652*
X1604Y06647*
X16033*
X16022Y06644*
X16012Y06639*
X16004Y0663*
X15998Y06621*
X15995Y0661*
Y06598*
X15998Y06587*
X16004Y06577*
X16012Y06569*
X16022Y06563*
X16033Y0656*
X16044*
X16055Y06563*
X16065Y06569*
X16073Y06577*
X16079Y06587*
X16082Y06598*
Y0661*
X16079Y06621*
X16073Y0663*
X16072Y06632*
X16074Y06636*
X16081Y06635*
X16095*
X16108Y06638*
X16121Y06643*
X16132Y0665*
X16142Y0666*
X16149Y06671*
X16155Y06684*
X16157Y06697*
Y06711*
X16155Y06724*
X16149Y06736*
X16142Y06748*
X16132Y06757*
X16121Y06765*
X16108Y0677*
X16095Y06773*
G37*
G36*
X15345D02*
X15331D01*
X15318Y0677*
X15306Y06765*
X15294Y06757*
X15285Y06748*
X15277Y06736*
X15272Y06724*
X15269Y06711*
Y06697*
X15272Y06684*
X15277Y06671*
X15285Y0666*
X15293Y06652*
X1529Y06647*
X15283*
X15272Y06644*
X15262Y06639*
X15254Y0663*
X15248Y06621*
X15245Y0661*
Y06598*
X15248Y06587*
X15254Y06577*
X15262Y06569*
X15272Y06563*
X15283Y0656*
X15294*
X15305Y06563*
X15315Y06569*
X15323Y06577*
X15329Y06587*
X15332Y06598*
Y0661*
X15329Y06621*
X15323Y0663*
X15322Y06632*
X15324Y06636*
X15331Y06635*
X15345*
X15358Y06638*
X15371Y06643*
X15382Y0665*
X15392Y0666*
X15399Y06671*
X15405Y06684*
X15407Y06697*
Y06711*
X15405Y06724*
X15399Y06736*
X15392Y06748*
X15382Y06757*
X15371Y06765*
X15358Y0677*
X15345Y06773*
G37*
G36*
X17747Y06692D02*
X1773D01*
X17713Y06689*
X17696Y06682*
X17682Y06672*
X1767Y0666*
X1766Y06646*
X17653Y0663*
X1765Y06613*
Y06595*
X17653Y06578*
X1766Y06562*
X1767Y06548*
X17682Y06535*
X17696Y06526*
X17713Y06519*
X1773Y06515*
X17747*
X17764Y06519*
X1778Y06526*
X17795Y06535*
X17807Y06548*
X17817Y06562*
X17823Y06578*
X17827Y06595*
Y06613*
X17823Y0663*
X17817Y06646*
X17807Y0666*
X17795Y06672*
X1778Y06682*
X17764Y06689*
X17747Y06692*
G37*
G36*
X16997D02*
X1698D01*
X16963Y06689*
X16946Y06682*
X16932Y06672*
X1692Y0666*
X1691Y06646*
X16903Y0663*
X169Y06613*
Y06595*
X16903Y06578*
X1691Y06562*
X1692Y06548*
X16932Y06535*
X16946Y06526*
X16963Y06519*
X1698Y06515*
X16997*
X17014Y06519*
X1703Y06526*
X17045Y06535*
X17057Y06548*
X17067Y06562*
X17073Y06578*
X17077Y06595*
Y06613*
X17073Y0663*
X17067Y06646*
X17057Y0666*
X17045Y06672*
X1703Y06682*
X17014Y06689*
X16997Y06692*
G37*
G36*
X16247D02*
X1623D01*
X16213Y06689*
X16196Y06682*
X16182Y06672*
X1617Y0666*
X1616Y06646*
X16153Y0663*
X1615Y06613*
Y06595*
X16153Y06578*
X1616Y06562*
X1617Y06548*
X16182Y06535*
X16196Y06526*
X16213Y06519*
X1623Y06515*
X16247*
X16264Y06519*
X1628Y06526*
X16295Y06535*
X16307Y06548*
X16317Y06562*
X16323Y06578*
X16327Y06595*
Y06613*
X16323Y0663*
X16317Y06646*
X16307Y0666*
X16295Y06672*
X1628Y06682*
X16264Y06689*
X16247Y06692*
G37*
G36*
X15497D02*
X1548D01*
X15463Y06689*
X15446Y06682*
X15432Y06672*
X1542Y0666*
X1541Y06646*
X15403Y0663*
X154Y06613*
Y06595*
X15403Y06578*
X1541Y06562*
X1542Y06548*
X15432Y06535*
X15446Y06526*
X15463Y06519*
X1548Y06515*
X15497*
X15514Y06519*
X1553Y06526*
X15545Y06535*
X15557Y06548*
X15567Y06562*
X15573Y06578*
X15577Y06595*
Y06613*
X15573Y0663*
X15567Y06646*
X15557Y0666*
X15545Y06672*
X1553Y06682*
X15514Y06689*
X15497Y06692*
G37*
G36*
X18695Y06576D02*
X18681D01*
X18668Y06574*
X18655Y06568*
X18644Y06561*
X18634Y06551*
X18626Y0654*
X18621Y06527*
X18618Y06513*
Y065*
X18621Y06486*
X18626Y06473*
X18634Y06462*
X18644Y06452*
X18655Y06445*
X18668Y06439*
X18681Y06437*
X18695*
X18709Y06439*
X18721Y06445*
X18733Y06452*
X18743Y06462*
X1875Y06473*
X18755Y06486*
X18758Y065*
Y06513*
X18755Y06527*
X1875Y0654*
X18743Y06551*
X18733Y06561*
X18721Y06568*
X18709Y06574*
X18695Y06576*
G37*
G36*
X18172Y06595D02*
X18155D01*
X18138Y06592*
X18121Y06585*
X18107Y06575*
X18095Y06563*
X18085Y06548*
X18078Y06532*
X18075Y06515*
Y06498*
X18078Y06481*
X18085Y06465*
X18095Y0645*
X18107Y06438*
X18121Y06428*
X18138Y06422*
X18155Y06418*
X18172*
X18189Y06422*
X18205Y06428*
X1822Y06438*
X18232Y0645*
X18242Y06465*
X18248Y06481*
X18252Y06498*
Y06515*
X18248Y06532*
X18242Y06548*
X18232Y06563*
X1822Y06575*
X18205Y06585*
X18189Y06592*
X18172Y06595*
G37*
G36*
X17495Y06758D02*
X17367D01*
Y0665*
X17416*
Y06517*
X17416*
X17417Y06499*
X17421Y06481*
X17428Y06464*
X17438Y06449*
X1745Y06435*
X17463Y06424*
X17479Y06414*
X17496Y06407*
X17513Y06403*
X17513Y06403*
Y06393*
X17559*
Y06441*
X17513*
Y06438*
X17509Y06435*
X17499Y06438*
X17484Y06446*
X17471Y06457*
X17461Y0647*
X17453Y06484*
X17448Y065*
X17446Y06516*
X17446Y06517*
Y0665*
X17495*
Y06758*
G37*
G36*
X16745D02*
X16617D01*
Y0665*
X16666*
Y06517*
X16666*
X16667Y06499*
X16671Y06481*
X16678Y06464*
X16688Y06449*
X167Y06435*
X16713Y06424*
X16729Y06414*
X16746Y06407*
X16763Y06403*
X16765Y06403*
Y06393*
X16811*
Y06441*
X16765*
Y06439*
X1676Y06435*
X16749Y06438*
X16734Y06446*
X16721Y06457*
X16711Y0647*
X16703Y06484*
X16698Y065*
X16696Y06516*
X16696Y06517*
Y0665*
X16745*
Y06758*
G37*
G36*
X15995D02*
X15867D01*
Y0665*
X15916*
Y06517*
X15916*
X15917Y06499*
X15921Y06481*
X15928Y06464*
X15938Y06449*
X1595Y06435*
X15963Y06424*
X15979Y06414*
X15996Y06407*
X16013Y06403*
X16017Y06403*
Y06393*
X16063*
Y06441*
X16017*
Y06437*
X16012Y06434*
X15999Y06438*
X15984Y06446*
X15971Y06457*
X15961Y0647*
X15953Y06484*
X15948Y065*
X15946Y06516*
X15946Y06517*
Y0665*
X15995*
Y06758*
G37*
G36*
X15909Y06368D02*
X15901D01*
X15893Y06366*
X15887Y06362*
X15881Y06357*
X15879Y06353*
X15832*
X1583Y06357*
X15824Y06362*
X15818Y06366*
X1581Y06368*
X15802*
X15794Y06366*
X15788Y06362*
X15782Y06357*
X15778Y0635*
X15776Y06342*
Y06334*
X15778Y06327*
X15782Y0632*
X15788Y06314*
X15794Y0631*
X15802Y06308*
X1581*
X15818Y0631*
X15824Y06314*
X1583Y0632*
X15832Y06323*
X15879*
X15881Y0632*
X15887Y06314*
X15893Y0631*
X15901Y06308*
X15909*
X15917Y0631*
X15923Y06314*
X15929Y0632*
X15933Y06327*
X15935Y06334*
Y06342*
X15933Y0635*
X15929Y06357*
X15923Y06362*
X15917Y06366*
X15909Y06368*
G37*
G36*
X17683Y06441D02*
X17637D01*
Y06393*
X17642*
Y06364*
X17639Y06362*
X17633Y06357*
X17629Y0635*
X17627Y06342*
Y06334*
X17629Y06327*
X17633Y0632*
X17639Y06314*
X17645Y0631*
X17653Y06308*
X17661*
X17669Y0631*
X17675Y06314*
X17681Y0632*
X17685Y06327*
X17687Y06334*
Y06342*
X17685Y0635*
X17681Y06357*
X17675Y06362*
X17672Y06364*
Y06393*
X17683*
Y06441*
G37*
G36*
X16935D02*
X16889D01*
Y06393*
X16894*
Y06364*
X16891Y06362*
X16885Y06357*
X16881Y0635*
X16879Y06342*
Y06334*
X16881Y06327*
X16885Y0632*
X16891Y06314*
X16897Y0631*
X16905Y06308*
X16913*
X16921Y0631*
X16927Y06314*
X16933Y0632*
X16937Y06327*
X16939Y06334*
Y06342*
X16937Y0635*
X16933Y06357*
X16927Y06362*
X16924Y06364*
Y06393*
X16935*
Y06441*
G37*
G36*
X16187D02*
X16141D01*
Y06393*
X16146*
Y06364*
X16143Y06362*
X16137Y06357*
X16133Y0635*
X16131Y06342*
Y06334*
X16133Y06327*
X16137Y0632*
X16143Y06314*
X16149Y0631*
X16157Y06308*
X16165*
X16173Y0631*
X16179Y06314*
X16185Y0632*
X16189Y06327*
X16191Y06334*
Y06342*
X16189Y0635*
X16185Y06357*
X16179Y06362*
X16176Y06364*
Y06393*
X16187*
Y06441*
G37*
G36*
X15439D02*
X15393D01*
Y06393*
X15398*
Y06364*
X15394Y06362*
X15389Y06357*
X15385Y0635*
X15383Y06342*
Y06334*
X15385Y06327*
X15389Y0632*
X15394Y06314*
X15401Y0631*
X15409Y06308*
X15417*
X15424Y0631*
X15431Y06314*
X15437Y0632*
X15441Y06327*
X15443Y06334*
Y06342*
X15441Y0635*
X15437Y06357*
X15431Y06362*
X15428Y06364*
Y06393*
X15439*
Y06441*
G37*
G36*
X15522Y06305D02*
X15508D01*
X15494Y06302*
X15481Y06296*
X15469Y06288*
X15459Y06278*
X15451Y06266*
X15445Y06253*
X15442Y06239*
Y06225*
X15445Y06211*
X15451Y06197*
X15459Y06185*
X15469Y06175*
X15481Y06167*
X15494Y06162*
X15508Y06159*
X15522*
X15536Y06162*
X1555Y06167*
X15562Y06175*
X15572Y06185*
X1558Y06197*
X15585Y06211*
X15588Y06225*
Y06239*
X15585Y06253*
X1558Y06266*
X15572Y06278*
X15562Y06288*
X1555Y06296*
X15536Y06302*
X15522Y06305*
G37*
G36*
X18474Y06196D02*
X18459D01*
X18445Y06194*
X18432Y06188*
X1842Y0618*
X1841Y0617*
X18402Y06158*
X18396Y06145*
X18394Y06131*
Y06116*
X18396Y06102*
X18402Y06089*
X1841Y06077*
X1842Y06067*
X18432Y06059*
X18445Y06053*
X18459Y06051*
X18474*
X18488Y06053*
X18501Y06059*
X18513Y06067*
X18523Y06077*
X18531Y06089*
X18537Y06102*
X18539Y06116*
Y06131*
X18537Y06145*
X18531Y06158*
X18523Y0617*
X18513Y0618*
X18501Y06188*
X18488Y06194*
X18474Y06196*
G37*
G36*
X17845Y06123D02*
X17831D01*
X17818Y0612*
X17806Y06115*
X17794Y06107*
X17785Y06098*
X17777Y06086*
X17772Y06074*
X17769Y06061*
Y06047*
X17772Y06034*
X17777Y06021*
X17785Y0601*
X17794Y06*
X17806Y05993*
X17818Y05988*
X17831Y05985*
X17845*
X17858Y05988*
X17871Y05993*
X17882Y06*
X17892Y0601*
X17899Y06021*
X17905Y06034*
X17907Y06047*
Y06061*
X17905Y06074*
X17899Y06086*
X17892Y06098*
X17882Y06107*
X17871Y06115*
X17858Y0612*
X17845Y06123*
G37*
G36*
X17095D02*
X17081D01*
X17068Y0612*
X17056Y06115*
X17044Y06107*
X17035Y06098*
X17027Y06086*
X17022Y06074*
X17019Y06061*
Y06047*
X17022Y06034*
X17027Y06021*
X17035Y0601*
X17044Y06*
X17056Y05993*
X17068Y05988*
X17081Y05985*
X17095*
X17108Y05988*
X17121Y05993*
X17132Y06*
X17142Y0601*
X17149Y06021*
X17155Y06034*
X17157Y06047*
Y06061*
X17155Y06074*
X17149Y06086*
X17142Y06098*
X17132Y06107*
X17121Y06115*
X17108Y0612*
X17095Y06123*
G37*
G36*
X16345D02*
X16331D01*
X16318Y0612*
X16306Y06115*
X16294Y06107*
X16285Y06098*
X16277Y06086*
X16272Y06074*
X16269Y06061*
Y06047*
X16272Y06034*
X16277Y06021*
X16285Y0601*
X16294Y06*
X16306Y05993*
X16318Y05988*
X16331Y05985*
X16345*
X16358Y05988*
X16371Y05993*
X16382Y06*
X16392Y0601*
X16399Y06021*
X16405Y06034*
X16407Y06047*
Y06061*
X16405Y06074*
X16399Y06086*
X16392Y06098*
X16382Y06107*
X16371Y06115*
X16358Y0612*
X16345Y06123*
G37*
G36*
X15595D02*
X15581D01*
X15568Y0612*
X15556Y06115*
X15544Y06107*
X15535Y06098*
X15527Y06086*
X15522Y06074*
X15519Y06061*
Y06047*
X15522Y06034*
X15527Y06021*
X15535Y0601*
X15544Y06*
X15556Y05993*
X15568Y05988*
X15581Y05985*
X15595*
X15608Y05988*
X15621Y05993*
X15632Y06*
X15642Y0601*
X15649Y06021*
X15655Y06034*
X15657Y06047*
Y06061*
X15655Y06074*
X15649Y06086*
X15642Y06098*
X15632Y06107*
X15621Y06115*
X15608Y0612*
X15595Y06123*
G37*
G36*
X17595Y06023D02*
X17581D01*
X17568Y0602*
X17556Y06015*
X17544Y06007*
X17535Y05998*
X17527Y05986*
X17522Y05974*
X17519Y05961*
Y05947*
X17522Y05934*
X17527Y05921*
X17535Y0591*
X17543Y05902*
X1754Y05897*
X17533*
X17522Y05894*
X17512Y05889*
X17504Y0588*
X17498Y05871*
X17495Y0586*
Y05848*
X17498Y05837*
X17504Y05827*
X17512Y05819*
X17522Y05813*
X17533Y0581*
X17544*
X17555Y05813*
X17565Y05819*
X17573Y05827*
X17579Y05837*
X17582Y05848*
Y0586*
X17579Y05871*
X17573Y0588*
X17572Y05882*
X17574Y05886*
X17581Y05885*
X17595*
X17608Y05888*
X17621Y05893*
X17632Y059*
X17642Y0591*
X17649Y05921*
X17655Y05934*
X17657Y05947*
Y05961*
X17655Y05974*
X17649Y05986*
X17642Y05998*
X17632Y06007*
X17621Y06015*
X17608Y0602*
X17595Y06023*
G37*
G36*
X16845D02*
X16831D01*
X16818Y0602*
X16806Y06015*
X16794Y06007*
X16785Y05998*
X16777Y05986*
X16772Y05974*
X16769Y05961*
Y05947*
X16772Y05934*
X16777Y05921*
X16785Y0591*
X16793Y05902*
X1679Y05897*
X16783*
X16772Y05894*
X16762Y05889*
X16754Y0588*
X16748Y05871*
X16745Y0586*
Y05848*
X16748Y05837*
X16754Y05827*
X16762Y05819*
X16772Y05813*
X16783Y0581*
X16794*
X16805Y05813*
X16815Y05819*
X16823Y05827*
X16829Y05837*
X16832Y05848*
Y0586*
X16829Y05871*
X16823Y0588*
X16822Y05882*
X16824Y05886*
X16831Y05885*
X16845*
X16858Y05888*
X16871Y05893*
X16882Y059*
X16892Y0591*
X16899Y05921*
X16905Y05934*
X16907Y05947*
Y05961*
X16905Y05974*
X16899Y05986*
X16892Y05998*
X16882Y06007*
X16871Y06015*
X16858Y0602*
X16845Y06023*
G37*
G36*
X16095D02*
X16081D01*
X16068Y0602*
X16056Y06015*
X16044Y06007*
X16035Y05998*
X16027Y05986*
X16022Y05974*
X16019Y05961*
Y05947*
X16022Y05934*
X16027Y05921*
X16035Y0591*
X16043Y05902*
X1604Y05897*
X16033*
X16022Y05894*
X16012Y05889*
X16004Y0588*
X15998Y05871*
X15995Y0586*
Y05848*
X15998Y05837*
X16004Y05827*
X16012Y05819*
X16022Y05813*
X16033Y0581*
X16044*
X16055Y05813*
X16065Y05819*
X16073Y05827*
X16079Y05837*
X16082Y05848*
Y0586*
X16079Y05871*
X16073Y0588*
X16072Y05882*
X16074Y05886*
X16081Y05885*
X16095*
X16108Y05888*
X16121Y05893*
X16132Y059*
X16142Y0591*
X16149Y05921*
X16155Y05934*
X16157Y05947*
Y05961*
X16155Y05974*
X16149Y05986*
X16142Y05998*
X16132Y06007*
X16121Y06015*
X16108Y0602*
X16095Y06023*
G37*
G36*
X15345D02*
X15331D01*
X15318Y0602*
X15306Y06015*
X15294Y06007*
X15285Y05998*
X15277Y05986*
X15272Y05974*
X15269Y05961*
Y05947*
X15272Y05934*
X15277Y05921*
X15285Y0591*
X15293Y05902*
X1529Y05897*
X15283*
X15272Y05894*
X15262Y05889*
X15254Y0588*
X15248Y05871*
X15245Y0586*
Y05848*
X15248Y05837*
X15254Y05827*
X15262Y05819*
X15272Y05813*
X15283Y0581*
X15294*
X15305Y05813*
X15315Y05819*
X15323Y05827*
X15329Y05837*
X15332Y05848*
Y0586*
X15329Y05871*
X15323Y0588*
X15322Y05882*
X15324Y05886*
X15331Y05885*
X15345*
X15358Y05888*
X15371Y05893*
X15382Y059*
X15392Y0591*
X15399Y05921*
X15405Y05934*
X15407Y05947*
Y05961*
X15405Y05974*
X15399Y05986*
X15392Y05998*
X15382Y06007*
X15371Y06015*
X15358Y0602*
X15345Y06023*
G37*
G36*
X18172Y06035D02*
X18155D01*
X18138Y06032*
X18121Y06025*
X18107Y06015*
X18095Y06003*
X18085Y05988*
X18078Y05972*
X18075Y05955*
Y05938*
X18078Y05921*
X18085Y05905*
X18095Y0589*
X18107Y05878*
X18121Y05868*
X18138Y05862*
X18155Y05858*
X18172*
X18189Y05862*
X18205Y05868*
X1822Y05878*
X18232Y0589*
X18242Y05905*
X18248Y05921*
X18252Y05938*
Y05955*
X18248Y05972*
X18242Y05988*
X18232Y06003*
X1822Y06015*
X18205Y06025*
X18189Y06032*
X18172Y06035*
G37*
G36*
X18642Y05848D02*
X18534D01*
Y05799*
X18281*
Y05799*
X18263Y05798*
X18246Y05793*
X18229Y05786*
X18213Y05777*
X182Y05765*
X18188Y05751*
X18178Y05736*
X18171Y05719*
X18167Y05702*
X18166Y05684*
X18166*
Y05375*
X18166*
X18167Y05357*
X18171Y05339*
X18178Y05323*
X18188Y05307*
X182Y05294*
X18213Y05282*
X18229Y05272*
X18246Y05265*
X18261Y05262*
Y05251*
X18307*
Y05299*
X18261*
Y05297*
X18257Y05294*
X18249Y05297*
X18234Y05304*
X18221Y05315*
X18211Y05328*
X18203Y05343*
X18198Y05359*
X18196Y05374*
X18196Y05375*
Y05684*
X18196Y05684*
X18198Y057*
X18203Y05716*
X18211Y05731*
X18221Y05744*
X18234Y05754*
X18249Y05762*
X18265Y05767*
X18281Y05768*
X18281Y05768*
X18534*
Y0572*
X18642*
Y05848*
G37*
G36*
X17747Y05942D02*
X1773D01*
X17713Y05939*
X17696Y05932*
X17682Y05922*
X1767Y0591*
X1766Y05896*
X17653Y0588*
X1765Y05863*
Y05845*
X17653Y05828*
X1766Y05812*
X1767Y05798*
X17682Y05785*
X17696Y05776*
X17713Y05769*
X1773Y05765*
X17747*
X17764Y05769*
X1778Y05776*
X17795Y05785*
X17807Y05798*
X17817Y05812*
X17823Y05828*
X17827Y05845*
Y05863*
X17823Y0588*
X17817Y05896*
X17807Y0591*
X17795Y05922*
X1778Y05932*
X17764Y05939*
X17747Y05942*
G37*
G36*
X16997D02*
X1698D01*
X16963Y05939*
X16946Y05932*
X16932Y05922*
X1692Y0591*
X1691Y05896*
X16903Y0588*
X169Y05863*
Y05845*
X16903Y05828*
X1691Y05812*
X1692Y05798*
X16932Y05785*
X16946Y05776*
X16963Y05769*
X1698Y05765*
X16997*
X17014Y05769*
X1703Y05776*
X17045Y05785*
X17057Y05798*
X17067Y05812*
X17073Y05828*
X17077Y05845*
Y05863*
X17073Y0588*
X17067Y05896*
X17057Y0591*
X17045Y05922*
X1703Y05932*
X17014Y05939*
X16997Y05942*
G37*
G36*
X16247D02*
X1623D01*
X16213Y05939*
X16196Y05932*
X16182Y05922*
X1617Y0591*
X1616Y05896*
X16153Y0588*
X1615Y05863*
Y05845*
X16153Y05828*
X1616Y05812*
X1617Y05798*
X16182Y05785*
X16196Y05776*
X16213Y05769*
X1623Y05765*
X16247*
X16264Y05769*
X1628Y05776*
X16295Y05785*
X16307Y05798*
X16317Y05812*
X16323Y05828*
X16327Y05845*
Y05863*
X16323Y0588*
X16317Y05896*
X16307Y0591*
X16295Y05922*
X1628Y05932*
X16264Y05939*
X16247Y05942*
G37*
G36*
X15497D02*
X1548D01*
X15463Y05939*
X15446Y05932*
X15432Y05922*
X1542Y0591*
X1541Y05896*
X15403Y0588*
X154Y05863*
Y05845*
X15403Y05828*
X1541Y05812*
X1542Y05798*
X15432Y05785*
X15446Y05776*
X15463Y05769*
X1548Y05765*
X15497*
X15514Y05769*
X1553Y05776*
X15545Y05785*
X15557Y05798*
X15567Y05812*
X15573Y05828*
X15577Y05845*
Y05863*
X15573Y0588*
X15567Y05896*
X15557Y0591*
X15545Y05922*
X1553Y05932*
X15514Y05939*
X15497Y05942*
G37*
G36*
X17495Y06008D02*
X17367D01*
Y059*
X17416*
Y05769*
X17416*
X17417Y05751*
X17421Y05733*
X17428Y05716*
X17438Y05701*
X1745Y05687*
X17463Y05675*
X17479Y05666*
X17496Y05659*
X17513Y05655*
X17513Y05655*
Y05645*
X17559*
Y05692*
X17513*
Y0569*
X17509Y05687*
X17499Y0569*
X17484Y05698*
X17471Y05709*
X17461Y05722*
X17453Y05736*
X17448Y05752*
X17446Y05768*
X17446Y05769*
Y059*
X17495*
Y06008*
G37*
G36*
X16745D02*
X16617D01*
Y059*
X16666*
Y05769*
X16666*
X16667Y05751*
X16671Y05733*
X16678Y05716*
X16688Y05701*
X167Y05687*
X16713Y05675*
X16729Y05666*
X16746Y05659*
X16763Y05655*
X16765Y05655*
Y05645*
X16811*
Y05692*
X16765*
Y05691*
X1676Y05687*
X16749Y0569*
X16734Y05698*
X16721Y05709*
X16711Y05722*
X16703Y05736*
X16698Y05752*
X16696Y05768*
X16696Y05769*
Y059*
X16745*
Y06008*
G37*
G36*
X15995D02*
X15867D01*
Y059*
X15916*
Y05769*
X15916*
X15917Y05751*
X15921Y05733*
X15928Y05716*
X15938Y05701*
X1595Y05687*
X15963Y05675*
X15979Y05666*
X15996Y05659*
X16013Y05655*
X16017Y05655*
Y05645*
X16063*
Y05692*
X16017*
Y05689*
X16012Y05686*
X15999Y0569*
X15984Y05698*
X15971Y05709*
X15961Y05722*
X15953Y05736*
X15948Y05752*
X15946Y05768*
X15946Y05769*
Y059*
X15995*
Y06008*
G37*
G36*
X17683Y05692D02*
X17637D01*
Y05645*
X17642*
Y05616*
X17639Y05614*
X17633Y05608*
X17629Y05602*
X17627Y05594*
Y05586*
X17629Y05578*
X17633Y05572*
X17639Y05566*
X17645Y05562*
X17653Y0556*
X17661*
X17669Y05562*
X17675Y05566*
X17681Y05572*
X17685Y05578*
X17687Y05586*
Y05594*
X17685Y05602*
X17681Y05608*
X17675Y05614*
X17672Y05616*
Y05645*
X17683*
Y05692*
G37*
G36*
X16935D02*
X16889D01*
Y05645*
X16894*
Y05616*
X16891Y05614*
X16885Y05608*
X16881Y05602*
X16879Y05594*
Y05586*
X16881Y05578*
X16885Y05572*
X16891Y05566*
X16897Y05562*
X16905Y0556*
X16913*
X16921Y05562*
X16927Y05566*
X16933Y05572*
X16937Y05578*
X16939Y05586*
Y05594*
X16937Y05602*
X16933Y05608*
X16927Y05614*
X16924Y05616*
Y05645*
X16935*
Y05692*
G37*
G36*
X16187D02*
X16141D01*
Y05645*
X16146*
Y05616*
X16143Y05614*
X16137Y05608*
X16133Y05602*
X16131Y05594*
Y05586*
X16133Y05578*
X16137Y05572*
X16143Y05566*
X16149Y05562*
X16157Y0556*
X16165*
X16173Y05562*
X16179Y05566*
X16185Y05572*
X16189Y05578*
X16191Y05586*
Y05594*
X16189Y05602*
X16185Y05608*
X16179Y05614*
X16176Y05616*
Y05645*
X16187*
Y05692*
G37*
G36*
X15439D02*
X15393D01*
Y05645*
X15398*
Y05616*
X15394Y05614*
X15389Y05608*
X15385Y05602*
X15383Y05594*
Y05586*
X15385Y05578*
X15389Y05572*
X15394Y05566*
X15401Y05562*
X15409Y0556*
X15417*
X15424Y05562*
X15431Y05566*
X15437Y05572*
X15441Y05578*
X15443Y05586*
Y05594*
X15441Y05602*
X15437Y05608*
X15431Y05614*
X15428Y05616*
Y05645*
X15439*
Y05692*
G37*
G36*
X18494Y0572D02*
X18483D01*
X18472Y05717*
X18462Y05711*
X18454Y05703*
X18448Y05693*
X18445Y05682*
Y05671*
X18448Y0566*
X18454Y0565*
X18462Y05642*
X18472Y05636*
X18483Y05633*
X18494*
X18505Y05636*
X18515Y05642*
X18516Y05643*
X18521Y05641*
X18519Y05633*
Y0562*
X18522Y05606*
X18527Y05594*
X18535Y05583*
X18544Y05573*
X18556Y05565*
X18568Y0556*
X18581Y05558*
X18595*
X18608Y0556*
X18621Y05565*
X18632Y05573*
X18642Y05583*
X18649Y05594*
X18655Y05606*
X18657Y0562*
Y05633*
X18655Y05647*
X18649Y05659*
X18642Y0567*
X18632Y0568*
X18621Y05688*
X18608Y05693*
X18595Y05695*
X18581*
X18568Y05693*
X18556Y05688*
X18544Y0568*
X18537Y05672*
X18532Y05674*
Y05682*
X18529Y05693*
X18523Y05703*
X18515Y05711*
X18505Y05717*
X18494Y0572*
G37*
G36*
X18497Y05565D02*
X1848D01*
X18463Y05562*
X18446Y05555*
X18432Y05545*
X1842Y05533*
X1841Y05518*
X18403Y05502*
X184Y05485*
Y05468*
X18403Y05451*
X1841Y05435*
X1842Y0542*
X18432Y05408*
X18446Y05398*
X18463Y05392*
X1848Y05388*
X18497*
X18514Y05392*
X1853Y05398*
X18545Y05408*
X18557Y0542*
X18567Y05435*
X18573Y05451*
X18577Y05468*
Y05485*
X18573Y05502*
X18567Y05518*
X18557Y05533*
X18545Y05545*
X1853Y05555*
X18514Y05562*
X18497Y05565*
G37*
G36*
X18695Y05445D02*
X18681D01*
X18668Y05443*
X18656Y05438*
X18644Y0543*
X18635Y0542*
X18627Y05409*
X18622Y05397*
X18619Y05383*
Y0537*
X18622Y05356*
X18627Y05344*
X18635Y05333*
X18644Y05323*
X18656Y05315*
X18668Y0531*
X18681Y05308*
X18695*
X18708Y0531*
X18721Y05315*
X18732Y05323*
X18742Y05333*
X18749Y05344*
X18755Y05356*
X18757Y0537*
Y05383*
X18755Y05397*
X18749Y05409*
X18742Y0542*
X18732Y0543*
X18721Y05438*
X18708Y05443*
X18695Y05445*
G37*
G36*
X17845Y05373D02*
X17831D01*
X17818Y0537*
X17806Y05365*
X17794Y05357*
X17785Y05348*
X17777Y05336*
X17772Y05324*
X17769Y05311*
Y05297*
X17772Y05284*
X17777Y05271*
X17785Y0526*
X17794Y0525*
X17806Y05243*
X17818Y05238*
X17831Y05235*
X17845*
X17858Y05238*
X17871Y05243*
X17882Y0525*
X17892Y0526*
X17899Y05271*
X17905Y05284*
X17907Y05297*
Y05311*
X17905Y05324*
X17899Y05336*
X17892Y05348*
X17882Y05357*
X17871Y05365*
X17858Y0537*
X17845Y05373*
G37*
G36*
X17095D02*
X17081D01*
X17068Y0537*
X17056Y05365*
X17044Y05357*
X17035Y05348*
X17027Y05336*
X17022Y05324*
X17019Y05311*
Y05297*
X17022Y05284*
X17027Y05271*
X17035Y0526*
X17044Y0525*
X17056Y05243*
X17068Y05238*
X17081Y05235*
X17095*
X17108Y05238*
X17121Y05243*
X17132Y0525*
X17142Y0526*
X17149Y05271*
X17155Y05284*
X17157Y05297*
Y05311*
X17155Y05324*
X17149Y05336*
X17142Y05348*
X17132Y05357*
X17121Y05365*
X17108Y0537*
X17095Y05373*
G37*
G36*
X16345D02*
X16331D01*
X16318Y0537*
X16306Y05365*
X16294Y05357*
X16285Y05348*
X16277Y05336*
X16272Y05324*
X16269Y05311*
Y05297*
X16272Y05284*
X16277Y05271*
X16285Y0526*
X16294Y0525*
X16306Y05243*
X16318Y05238*
X16331Y05235*
X16345*
X16358Y05238*
X16371Y05243*
X16382Y0525*
X16392Y0526*
X16399Y05271*
X16405Y05284*
X16407Y05297*
Y05311*
X16405Y05324*
X16399Y05336*
X16392Y05348*
X16382Y05357*
X16371Y05365*
X16358Y0537*
X16345Y05373*
G37*
G36*
X15595D02*
X15581D01*
X15568Y0537*
X15556Y05365*
X15544Y05357*
X15535Y05348*
X15527Y05336*
X15522Y05324*
X15519Y05311*
Y05297*
X15522Y05284*
X15527Y05271*
X15535Y0526*
X15544Y0525*
X15556Y05243*
X15568Y05238*
X15581Y05235*
X15595*
X15608Y05238*
X15621Y05243*
X15632Y0525*
X15642Y0526*
X15649Y05271*
X15655Y05284*
X15657Y05297*
Y05311*
X15655Y05324*
X15649Y05336*
X15642Y05348*
X15632Y05357*
X15621Y05365*
X15608Y0537*
X15595Y05373*
G37*
G36*
X18494Y0532D02*
X18483D01*
X18472Y05317*
X18462Y05311*
X18454Y05303*
X18448Y05293*
X18445Y05282*
Y05271*
X18448Y0526*
X18454Y0525*
X18462Y05242*
X18472Y05236*
X18483Y05233*
X18494*
X18505Y05236*
X18515Y05242*
X18523Y0525*
X18529Y0526*
X18532Y05271*
Y05282*
X18529Y05293*
X18523Y05303*
X18515Y05311*
X18505Y05317*
X18494Y0532*
G37*
G36*
X17595Y05273D02*
X17581D01*
X17568Y0527*
X17556Y05265*
X17544Y05257*
X17535Y05248*
X17527Y05236*
X17522Y05224*
X17519Y05211*
Y05197*
X17522Y05184*
X17527Y05171*
X17535Y0516*
X17543Y05152*
X1754Y05147*
X17533*
X17522Y05144*
X17512Y05139*
X17504Y0513*
X17498Y05121*
X17495Y0511*
Y05098*
X17498Y05087*
X17504Y05077*
X17512Y05069*
X17522Y05063*
X17533Y0506*
X17544*
X17555Y05063*
X17565Y05069*
X17573Y05077*
X17579Y05087*
X17582Y05098*
Y0511*
X17579Y05121*
X17573Y0513*
X17572Y05132*
X17574Y05136*
X17581Y05135*
X17595*
X17608Y05138*
X17621Y05143*
X17632Y0515*
X17642Y0516*
X17649Y05171*
X17655Y05184*
X17657Y05197*
Y05211*
X17655Y05224*
X17649Y05236*
X17642Y05248*
X17632Y05257*
X17621Y05265*
X17608Y0527*
X17595Y05273*
G37*
G36*
X16845D02*
X16831D01*
X16818Y0527*
X16806Y05265*
X16794Y05257*
X16785Y05248*
X16777Y05236*
X16772Y05224*
X16769Y05211*
Y05197*
X16772Y05184*
X16777Y05171*
X16785Y0516*
X16793Y05152*
X1679Y05147*
X16783*
X16772Y05144*
X16762Y05139*
X16754Y0513*
X16748Y05121*
X16745Y0511*
Y05098*
X16748Y05087*
X16754Y05077*
X16762Y05069*
X16772Y05063*
X16783Y0506*
X16794*
X16805Y05063*
X16815Y05069*
X16823Y05077*
X16829Y05087*
X16832Y05098*
Y0511*
X16829Y05121*
X16823Y0513*
X16822Y05132*
X16824Y05136*
X16831Y05135*
X16845*
X16858Y05138*
X16871Y05143*
X16882Y0515*
X16892Y0516*
X16899Y05171*
X16905Y05184*
X16907Y05197*
Y05211*
X16905Y05224*
X16899Y05236*
X16892Y05248*
X16882Y05257*
X16871Y05265*
X16858Y0527*
X16845Y05273*
G37*
G36*
X16095D02*
X16081D01*
X16068Y0527*
X16056Y05265*
X16044Y05257*
X16035Y05248*
X16027Y05236*
X16022Y05224*
X16019Y05211*
Y05197*
X16022Y05184*
X16027Y05171*
X16035Y0516*
X16043Y05152*
X1604Y05147*
X16033*
X16022Y05144*
X16012Y05139*
X16004Y0513*
X15998Y05121*
X15995Y0511*
Y05098*
X15998Y05087*
X16004Y05077*
X16012Y05069*
X16022Y05063*
X16033Y0506*
X16044*
X16055Y05063*
X16065Y05069*
X16073Y05077*
X16079Y05087*
X16082Y05098*
Y0511*
X16079Y05121*
X16073Y0513*
X16072Y05132*
X16074Y05136*
X16081Y05135*
X16095*
X16108Y05138*
X16121Y05143*
X16132Y0515*
X16142Y0516*
X16149Y05171*
X16155Y05184*
X16157Y05197*
Y05211*
X16155Y05224*
X16149Y05236*
X16142Y05248*
X16132Y05257*
X16121Y05265*
X16108Y0527*
X16095Y05273*
G37*
G36*
X15345D02*
X15331D01*
X15318Y0527*
X15306Y05265*
X15294Y05257*
X15285Y05248*
X15277Y05236*
X15272Y05224*
X15269Y05211*
Y05197*
X15272Y05184*
X15277Y05171*
X15285Y0516*
X15293Y05152*
X1529Y05147*
X15283*
X15272Y05144*
X15262Y05139*
X15254Y0513*
X15248Y05121*
X15245Y0511*
Y05098*
X15248Y05087*
X15254Y05077*
X15262Y05069*
X15272Y05063*
X15283Y0506*
X15294*
X15305Y05063*
X15315Y05069*
X15323Y05077*
X15329Y05087*
X15332Y05098*
Y0511*
X15329Y05121*
X15323Y0513*
X15322Y05132*
X15324Y05136*
X15331Y05135*
X15345*
X15358Y05138*
X15371Y05143*
X15382Y0515*
X15392Y0516*
X15399Y05171*
X15405Y05184*
X15407Y05197*
Y05211*
X15405Y05224*
X15399Y05236*
X15392Y05248*
X15382Y05257*
X15371Y05265*
X15358Y0527*
X15345Y05273*
G37*
G36*
X18431Y05299D02*
X18385D01*
Y05251*
X18393*
Y05167*
X18392Y05166*
X18386Y05161*
X18382Y05154*
X1838Y05146*
Y05138*
X18382Y05131*
X18386Y05124*
X18392Y05118*
X18398Y05114*
X18406Y05112*
X18414*
X18422Y05114*
X18428Y05118*
X18434Y05124*
X18438Y05131*
X1844Y05138*
Y05146*
X18438Y05154*
X18434Y05161*
X18428Y05166*
X18423Y05169*
Y05251*
X18431*
Y05299*
G37*
G36*
X17944Y05147D02*
X17933D01*
X17922Y05144*
X17912Y05139*
X17904Y0513*
X17898Y05121*
X17895Y0511*
Y05098*
X17898Y05087*
X17904Y05077*
X17912Y05069*
X17922Y05063*
X17933Y0506*
X17944*
X17955Y05063*
X17965Y05069*
X17973Y05077*
X17979Y05087*
X17982Y05098*
Y0511*
X17979Y05121*
X17973Y0513*
X17965Y05139*
X17955Y05144*
X17944Y05147*
G37*
G36*
X17194D02*
X17183D01*
X17172Y05144*
X17162Y05139*
X17154Y0513*
X17148Y05121*
X17145Y0511*
Y05098*
X17148Y05087*
X17154Y05077*
X17162Y05069*
X17172Y05063*
X17183Y0506*
X17194*
X17205Y05063*
X17215Y05069*
X17223Y05077*
X17229Y05087*
X17232Y05098*
Y0511*
X17229Y05121*
X17223Y0513*
X17215Y05139*
X17205Y05144*
X17194Y05147*
G37*
G36*
X16444D02*
X16433D01*
X16422Y05144*
X16412Y05139*
X16404Y0513*
X16398Y05121*
X16395Y0511*
Y05098*
X16398Y05087*
X16404Y05077*
X16412Y05069*
X16422Y05063*
X16433Y0506*
X16444*
X16455Y05063*
X16465Y05069*
X16473Y05077*
X16479Y05087*
X16482Y05098*
Y0511*
X16479Y05121*
X16473Y0513*
X16465Y05139*
X16455Y05144*
X16444Y05147*
G37*
G36*
X15694D02*
X15683D01*
X15672Y05144*
X15662Y05139*
X15654Y0513*
X15648Y05121*
X15645Y0511*
Y05098*
X15648Y05087*
X15654Y05077*
X15662Y05069*
X15672Y05063*
X15683Y0506*
X15694*
X15705Y05063*
X15715Y05069*
X15723Y05077*
X15729Y05087*
X15732Y05098*
Y0511*
X15729Y05121*
X15723Y0513*
X15715Y05139*
X15705Y05144*
X15694Y05147*
G37*
G36*
X17747Y05192D02*
X1773D01*
X17713Y05189*
X17696Y05182*
X17682Y05172*
X1767Y0516*
X1766Y05146*
X17653Y0513*
X1765Y05113*
Y05095*
X17653Y05078*
X1766Y05062*
X1767Y05048*
X17682Y05035*
X17696Y05026*
X17713Y05019*
X1773Y05015*
X17747*
X17764Y05019*
X1778Y05026*
X17795Y05035*
X17807Y05048*
X17817Y05062*
X17823Y05078*
X17827Y05095*
Y05113*
X17823Y0513*
X17817Y05146*
X17807Y0516*
X17795Y05172*
X1778Y05182*
X17764Y05189*
X17747Y05192*
G37*
G36*
X16997D02*
X1698D01*
X16963Y05189*
X16946Y05182*
X16932Y05172*
X1692Y0516*
X1691Y05146*
X16903Y0513*
X169Y05113*
Y05095*
X16903Y05078*
X1691Y05062*
X1692Y05048*
X16932Y05035*
X16946Y05026*
X16963Y05019*
X1698Y05015*
X16997*
X17014Y05019*
X1703Y05026*
X17045Y05035*
X17057Y05048*
X17067Y05062*
X17073Y05078*
X17077Y05095*
Y05113*
X17073Y0513*
X17067Y05146*
X17057Y0516*
X17045Y05172*
X1703Y05182*
X17014Y05189*
X16997Y05192*
G37*
G36*
X16247D02*
X1623D01*
X16213Y05189*
X16196Y05182*
X16182Y05172*
X1617Y0516*
X1616Y05146*
X16153Y0513*
X1615Y05113*
Y05095*
X16153Y05078*
X1616Y05062*
X1617Y05048*
X16182Y05035*
X16196Y05026*
X16213Y05019*
X1623Y05015*
X16247*
X16264Y05019*
X1628Y05026*
X16295Y05035*
X16307Y05048*
X16317Y05062*
X16323Y05078*
X16327Y05095*
Y05113*
X16323Y0513*
X16317Y05146*
X16307Y0516*
X16295Y05172*
X1628Y05182*
X16264Y05189*
X16247Y05192*
G37*
G36*
X15497D02*
X1548D01*
X15463Y05189*
X15446Y05182*
X15432Y05172*
X1542Y0516*
X1541Y05146*
X15403Y0513*
X154Y05113*
Y05095*
X15403Y05078*
X1541Y05062*
X1542Y05048*
X15432Y05035*
X15446Y05026*
X15463Y05019*
X1548Y05015*
X15497*
X15514Y05019*
X1553Y05026*
X15545Y05035*
X15557Y05048*
X15567Y05062*
X15573Y05078*
X15577Y05095*
Y05113*
X15573Y0513*
X15567Y05146*
X15557Y0516*
X15545Y05172*
X1553Y05182*
X15514Y05189*
X15497Y05192*
G37*
G36*
X18172Y05095D02*
X18155D01*
X18138Y05092*
X18121Y05085*
X18107Y05075*
X18095Y05063*
X18085Y05048*
X18078Y05032*
X18075Y05015*
Y04998*
X18078Y04981*
X18085Y04965*
X18095Y0495*
X18107Y04938*
X18121Y04928*
X18138Y04922*
X18155Y04918*
X18172*
X18189Y04922*
X18205Y04928*
X1822Y04938*
X18232Y0495*
X18242Y04965*
X18248Y04981*
X18252Y04998*
Y05015*
X18248Y05032*
X18242Y05048*
X18232Y05063*
X1822Y05075*
X18205Y05085*
X18189Y05092*
X18172Y05095*
G37*
G36*
X17495Y05258D02*
X17367D01*
Y0515*
X17416*
Y05021*
X17416*
X17417Y05003*
X17421Y04985*
X17428Y04968*
X17438Y04953*
X1745Y04939*
X17463Y04927*
X17479Y04918*
X17496Y04911*
X17513Y04907*
X17513*
Y04897*
X17559*
Y04944*
X17513*
Y04942*
X17509Y04939*
X17499Y04942*
X17484Y0495*
X17471Y04961*
X17461Y04974*
X17453Y04988*
X17448Y05004*
X17446Y0502*
X17446Y05021*
Y0515*
X17495*
Y05258*
G37*
G36*
X16745D02*
X16617D01*
Y0515*
X16666*
Y05021*
X16666*
X16667Y05003*
X16671Y04985*
X16678Y04968*
X16688Y04953*
X167Y04939*
X16713Y04927*
X16729Y04918*
X16746Y04911*
X16763Y04907*
X16765Y04907*
Y04897*
X16811*
Y04944*
X16765*
Y04943*
X1676Y04939*
X16749Y04942*
X16734Y0495*
X16721Y04961*
X16711Y04974*
X16703Y04988*
X16698Y05004*
X16696Y0502*
X16696Y05021*
Y0515*
X16745*
Y05258*
G37*
G36*
X15995D02*
X15867D01*
Y0515*
X15916*
Y05021*
X15916*
X15917Y05003*
X15921Y04985*
X15928Y04968*
X15938Y04953*
X1595Y04939*
X15963Y04927*
X15979Y04918*
X15996Y04911*
X16013Y04907*
X16017Y04907*
Y04897*
X16063*
Y04944*
X16017*
Y04941*
X16012Y04938*
X15999Y04942*
X15984Y0495*
X15971Y04961*
X15961Y04974*
X15953Y04988*
X15948Y05004*
X15946Y0502*
X15946Y05021*
Y0515*
X15995*
Y05258*
G37*
%LNnumpadpcb-3*%
%LPD*%
G36*
X17416Y08013D02*
X17416D01*
X17417Y07995*
X1742Y07983*
X17416Y0798*
X17414Y07981*
X17403Y07986*
X17391Y07987*
X17386Y07988*
X17382Y07989*
X17374Y07994*
X17369Y08002*
X17367Y08011*
X17367Y08011*
Y0815*
X17416*
Y08013*
G37*
G54D22*
X18708Y0884D03*
X18267D03*
G54D23*
X18586Y09116D03*
X18389D03*
X18586Y08545D03*
X18488D03*
G54D24*
X18389Y08545D03*
G54D29*
X18745Y05217D02*
X18754Y05217D01*
X18764Y05219*
X18774Y05221*
X18783Y05224*
X18792Y05229*
X188Y05234*
X18808Y05239*
X18815Y05246*
X18822Y05253*
X18828Y05261*
X18833Y0527*
X18837Y05278*
X1884Y05288*
X18843Y05297*
X18844Y05307*
X18845Y05317*
X18746Y06717D02*
X18755Y06717D01*
X18765Y06719*
X18774Y06721*
X18784Y06724*
X18792Y06728*
X18801Y06733*
X18808Y06739*
X18816Y06746*
X18822Y06753*
X18828Y06761*
X18833Y06769*
X18837Y06778*
X1884Y06787*
X18843Y06796*
X18844Y06806*
X18845Y06816*
Y08207D02*
X18844Y08218D01*
X18842Y08227*
X1884Y08237*
X18836Y08247*
X18832Y08256*
X18826Y08264*
X1882Y08272*
X18813Y08279*
X18805Y08285*
X18796Y08291*
X18787Y08296*
X18778Y08299*
X18768Y08302*
X18758Y08303*
X18748Y08304*
X18281Y05784D02*
X18271Y05783D01*
X18262Y05782*
X18252Y05779*
X18243Y05776*
X18234Y05772*
X18226Y05767*
X18218Y05761*
X1821Y05754*
X18204Y05747*
X18198Y05739*
X18193Y05731*
X18189Y05722*
X18186Y05713*
X18183Y05703*
X18182Y05693*
X18181Y05684*
X18281Y07284D02*
X18271Y07283D01*
X18262Y07282*
X18252Y07279*
X18243Y07276*
X18234Y07272*
X18226Y07267*
X18218Y07261*
X1821Y07254*
X18204Y07247*
X18198Y07239*
X18193Y07231*
X18189Y07222*
X18186Y07213*
X18183Y07203*
X18182Y07193*
X18181Y07184*
X16164Y06417D02*
X16161Y06414D01*
X17568Y0873D02*
X17566Y08732D01*
X16015D02*
X16005Y08731D01*
X15995Y0873*
X15986Y08727*
X15977Y08724*
X15968Y0872*
X15959Y08715*
X15951Y08709*
X15944Y08702*
X15938Y08695*
X15932Y08687*
X15927Y08679*
X15922Y0867*
X15919Y08661*
X15917Y08651*
X15915Y08642*
X15915Y08632*
X153Y08508D02*
X15309Y08509D01*
X15319Y08511*
X15328Y08514*
X15337Y08518*
X15345Y08524*
X15352Y0853*
X15358Y08537*
X15364Y08545*
X15368Y08554*
X15371Y08563*
X15373Y08573*
X15374Y08582*
X15474Y09153D02*
X15464Y09153D01*
X15454Y09151*
X15444Y09149*
X15435Y09145*
X15426Y09141*
X15418Y09136*
X1541Y0913*
X15403Y09124*
X15396Y09116*
X1539Y09109*
X15385Y091*
X15381Y09091*
X15378Y09082*
X15375Y09073*
X15374Y09063*
X15374Y09053*
X15438Y08908D02*
X15439Y08899D01*
X1544Y08889*
X15443Y08879*
X15446Y0887*
X1545Y08861*
X15455Y08853*
X15461Y08845*
X15468Y08838*
X15475Y08831*
X15483Y08825*
X15491Y0882*
X155Y08816*
X15509Y08813*
X15519Y0881*
X15529Y08809*
X15538Y08808*
X15905Y09094D02*
X15915Y09095D01*
X15925Y09098*
X15935Y09102*
X15943Y09108*
X1595Y09115*
X15956Y09124*
X15961Y09133*
X15963Y09143*
X15964Y09153*
X15984Y09202D02*
X15974Y092D01*
X15967Y09192*
X15964Y09183*
X15856Y09153D02*
X15866Y09154D01*
X15875Y09158*
X15884Y09165*
X1589Y09173*
X15894Y09182*
X15895Y09192*
X15944Y09271D02*
X15935Y0927D01*
X15926Y09267*
X15917Y09263*
X1591Y09257*
X15903Y09249*
X15899Y09241*
X15896Y09232*
X15895Y09222*
X18094Y08462D02*
X18094Y08472D01*
X18092Y08482*
X1809Y08492*
X18086Y08501*
X18082Y0851*
X18077Y08518*
X18071Y08526*
X18065Y08533*
X18057Y0854*
X1805Y08546*
X18041Y08551*
X18032Y08555*
X18023Y08558*
X18014Y08561*
X18004Y08562*
X17994Y08562*
X15416Y07165D02*
X15413Y07162D01*
X16161Y07047D02*
X16164Y0705D01*
X16912Y07165D02*
X16909Y07162D01*
X17657Y07057D02*
X1766Y0706D01*
Y07913D02*
X17657Y0791D01*
X17983Y09201D02*
X17984Y09202D01*
X17701Y08415D02*
X1771Y08415D01*
X1772Y08417*
X1773Y08419*
X17739Y08422*
X17748Y08427*
X17756Y08432*
X17764Y08438*
X17771Y08444*
X17778Y08451*
X17784Y08459*
X17789Y08468*
X17793Y08477*
X17796Y08486*
X17799Y08495*
X178Y08505*
X17801Y08515*
X17452Y08415D02*
X17442Y08414D01*
X17432Y08413*
X17423Y08411*
X17414Y08407*
X17405Y08403*
X17396Y08398*
X17388Y08392*
X17381Y08386*
X17375Y08378*
X17369Y0837*
X17364Y08362*
X17359Y08353*
X17356Y08344*
X17354Y08334*
X17352Y08325*
X17352Y08315*
Y08011D02*
X17353Y08001D01*
X17357Y07992*
X17363Y07983*
X17372Y07977*
X17381Y07973*
X17391Y07972*
X17421Y07942D02*
X17419Y07952D01*
X17415Y0796*
X17409Y07966*
X174Y07971*
X17391Y07972*
X16909Y07834D02*
X16912Y07837D01*
X16161Y07834D02*
X16164Y07837D01*
X17321Y0834D02*
X17321Y0835D01*
X17319Y0836*
X17315Y08369*
X1731Y08378*
X17304Y08386*
X17297Y08393*
X17289Y08399*
X17281Y08404*
X17271Y08407*
X17261Y08409*
X17251Y0841*
X15416Y06417D02*
X15413Y06414D01*
X18408Y06771D02*
X18405Y06768D01*
X1766Y06417D02*
X17657Y06414D01*
X16912Y06417D02*
X16909Y06414D01*
X15416Y05669D02*
X15413Y05666D01*
X1766Y05669D02*
X17657Y05666D01*
X16912Y05669D02*
X16909Y05666D01*
X16164Y05669D02*
X16161Y05666D01*
X18408Y05144D02*
X1841Y05142D01*
X16574Y08228D02*
X16574Y08238D01*
X16572Y08247*
X16569Y08257*
X16564Y08266*
X16559Y08274*
X16552Y08282*
X16545Y08288*
X16536Y08294*
X16527Y08298*
X16518Y08301*
X16508Y08303*
X16498Y08304*
X16065Y08631D02*
X16055Y0863D01*
X16046Y08629*
X16036Y08626*
X16027Y08623*
X16018Y08619*
X16009Y08614*
X16002Y08608*
X15994Y08601*
X15988Y08594*
X15982Y08586*
X15977Y08578*
X15973Y08569*
X15969Y0856*
X15967Y0855*
X15966Y08541*
X15965Y08531*
X15815Y08308D02*
X15825Y08309D01*
X15834Y0831*
X15844Y08313*
X15853Y08316*
X15862Y0832*
X1587Y08325*
X15878Y08331*
X15886Y08338*
X15892Y08345*
X15898Y08353*
X15903Y08361*
X15907Y0837*
X15911Y08379*
X15913Y08389*
X15914Y08399*
X15915Y08408*
X18048Y08254D02*
X18047Y08264D01*
X18044Y08273*
X18039Y08282*
X18033Y08289*
X18026Y08295*
X18017Y083*
X18008Y08303*
X17998Y08304*
X15745Y09451D02*
X15744Y09461D01*
X15742Y0947*
X15738Y09479*
X15733Y09488*
X15726Y09495*
X15719Y09501*
X15711Y09507*
X15702Y0951*
X15692Y09513*
X15683Y09513*
X15416Y04921D02*
X15416Y0491D01*
X15418Y049*
X15421Y0489*
X15425Y04881*
X1543Y04872*
X15436Y04863*
X15443Y04856*
X1545Y04849*
X15459Y04843*
X15468Y04838*
X15477Y04834*
X15487Y04831*
X15497Y04829*
X15508Y04829*
X18044Y07654D02*
X18053Y07655D01*
X18063Y07658*
X18072Y07662*
X18079Y07669*
X18085Y07676*
X1809Y07685*
X18093Y07694*
X18094Y07704*
X18038Y07654D02*
X18028Y07652D01*
X18018Y07648*
X1801Y07642*
X18004Y07634*
X17999Y07624*
X17998Y07614*
X16912Y04905D02*
X16913Y04895D01*
X16915Y04885*
X16918Y04876*
X16922Y04867*
X16928Y04859*
X16934Y04851*
X16942Y04845*
X1695Y04839*
X16959Y04835*
X16969Y04831*
X16978Y04829*
X16988Y04829*
X16164Y04903D02*
X16165Y04894D01*
X16166Y04884*
X1617Y04875*
X16174Y04866*
X16179Y04858*
X16186Y04851*
X16193Y04844*
X16201Y04839*
X1621Y04834*
X16219Y04831*
X16229Y04829*
X16238Y04829*
X17568D02*
X17578Y04829D01*
X17588Y04831*
X17598Y04834*
X17608Y04838*
X17617Y04843*
X17625Y04849*
X17633Y04856*
X1764Y04863*
X17646Y04872*
X17651Y04881*
X17655Y0489*
X17658Y049*
X17659Y0491*
X1766Y04921*
X17148Y07732D02*
X17158Y07732D01*
X17168Y07734*
X17177Y07736*
X17186Y07739*
X17195Y07744*
X17204Y07749*
X17212Y07754*
X17219Y07761*
X17225Y07768*
X17231Y07776*
X17236Y07785*
X17241Y07794*
X17244Y07803*
X17246Y07812*
X17248Y07822*
X17248Y07832*
X16598Y07732D02*
X16588Y07731D01*
X16579Y0773*
X16569Y07727*
X1656Y07724*
X16551Y0772*
X16543Y07715*
X16535Y07709*
X16527Y07702*
X16521Y07695*
X16515Y07687*
X1651Y07679*
X16506Y0767*
X16502Y07661*
X165Y07651*
X16499Y07642*
X16498Y07632*
X16398Y07724D02*
X16408Y07724D01*
X16418Y07726*
X16427Y07728*
X16436Y07731*
X16445Y07736*
X16454Y07741*
X16462Y07747*
X16469Y07753*
X16475Y0776*
X16481Y07768*
X16486Y07777*
X16491Y07786*
X16494Y07795*
X16496Y07804*
X16498Y07814*
X16498Y07824*
X15848Y07724D02*
X15838Y07723D01*
X15829Y07722*
X15819Y0772*
X1581Y07716*
X15801Y07712*
X15793Y07707*
X15785Y07701*
X15777Y07695*
X15771Y07687*
X15765Y07679*
X1576Y07671*
X15756Y07662*
X15752Y07653*
X1575Y07643*
X15749Y07634*
X15748Y07624*
X17913Y07729D02*
X17923Y07729D01*
X17933Y07731*
X17943Y07734*
X17953Y07739*
X17962Y07744*
X1797Y0775*
X17977Y07758*
X17983Y07766*
X17989Y07775*
X17993Y07784*
X17996Y07794*
X17998Y07804*
X17999Y07814*
X17335Y07729D02*
X17325Y07728D01*
X17316Y07727*
X17306Y07724*
X17297Y0772*
X17289Y07715*
X17281Y0771*
X17274Y07703*
X17267Y07696*
X17261Y07688*
X17257Y0768*
X17253Y07671*
X1725Y07661*
X17249Y07652*
X17248Y07642*
X18748Y08573D02*
X18748Y08583D01*
X18746Y08592*
X18743Y08602*
X18739Y08611*
X18734Y08619*
X18728Y08627*
X18721Y08634*
X18713Y0864*
X18705Y08645*
X18696Y08649*
X18686Y08652*
X18677Y08653*
X18667Y08654*
X18524Y09016D02*
X18524Y09026D01*
X18522Y09035*
X1852Y09045*
X18516Y09054*
X18512Y09063*
X18507Y09071*
X18501Y09079*
X18495Y09086*
X18488Y09093*
X1848Y09099*
X18471Y09104*
X18462Y09108*
X18453Y09111*
X18444Y09114*
X18434Y09115*
X18424Y09116*
X18524Y08754D02*
X18525Y08744D01*
X18526Y08735*
X18528Y08725*
X18532Y08716*
X18536Y08707*
X18541Y08698*
X18547Y08691*
X18553Y08683*
X18561Y08677*
X18569Y08671*
X18577Y08666*
X18586Y08662*
X18595Y08658*
X18605Y08656*
X18614Y08655*
X18624Y08654*
X18181Y08013D02*
X18182Y08003D01*
X18183Y07993*
X18186Y07984*
X18189Y07975*
X18193Y07966*
X18198Y07957*
X18204Y07949*
X1821Y07942*
X18218Y07936*
X18226Y0793*
X18234Y07925*
X18243Y07921*
X18252Y07917*
X18262Y07915*
X18271Y07913*
X18281Y07913*
X17431Y08013D02*
X17432Y08003D01*
X17433Y07993*
X17436Y07984*
X17439Y07975*
X17443Y07966*
X17448Y07957*
X17454Y07949*
X1746Y07942*
X17468Y07936*
X17476Y0793*
X17484Y07925*
X17493Y07921*
X17502Y07917*
X17512Y07915*
X17521Y07913*
X17531Y07913*
X16681Y08013D02*
X16682Y08003D01*
X16683Y07993*
X16686Y07984*
X16689Y07975*
X16693Y07966*
X16698Y07957*
X16704Y07949*
X1671Y07942*
X16718Y07936*
X16726Y0793*
X16734Y07925*
X16743Y07921*
X16752Y07917*
X16762Y07915*
X16771Y07913*
X16781Y07913*
X15931Y08013D02*
X15932Y08003D01*
X15933Y07993*
X15936Y07984*
X15939Y07975*
X15943Y07966*
X15948Y07957*
X15954Y07949*
X1596Y07942*
X15968Y07936*
X15976Y0793*
X15984Y07925*
X15993Y07921*
X16002Y07917*
X16012Y07915*
X16021Y07913*
X16031Y07913*
X15181Y05021D02*
X15182Y05011D01*
X15183Y05001*
X15186Y04992*
X15189Y04982*
X15193Y04974*
X15198Y04965*
X15204Y04957*
X1521Y0495*
X15218Y04943*
X15226Y04938*
X15234Y04933*
X15243Y04928*
X15252Y04925*
X15262Y04923*
X15271Y04921*
X15281Y04921*
X15931Y05021D02*
X15932Y05011D01*
X15933Y05001*
X15936Y04992*
X15939Y04982*
X15943Y04974*
X15948Y04965*
X15954Y04957*
X1596Y0495*
X15968Y04943*
X15976Y04938*
X15984Y04933*
X15993Y04928*
X16002Y04925*
X16012Y04923*
X16021Y04921*
X16031Y04921*
X16681Y05021D02*
X16682Y05011D01*
X16683Y05001*
X16686Y04992*
X16689Y04982*
X16693Y04974*
X16698Y04965*
X16704Y04957*
X1671Y0495*
X16718Y04943*
X16726Y04938*
X16734Y04933*
X16743Y04928*
X16752Y04925*
X16762Y04923*
X16771Y04921*
X16781Y04921*
X17431Y05021D02*
X17432Y05011D01*
X17433Y05001*
X17436Y04992*
X17439Y04982*
X17443Y04974*
X17448Y04965*
X17454Y04957*
X1746Y0495*
X17468Y04943*
X17476Y04938*
X17484Y04933*
X17493Y04928*
X17502Y04925*
X17512Y04923*
X17521Y04921*
X17531Y04921*
X18181Y05375D02*
X18182Y05365D01*
X18183Y05356*
X18186Y05346*
X18189Y05337*
X18193Y05328*
X18198Y0532*
X18204Y05312*
X1821Y05304*
X18218Y05298*
X18226Y05292*
X18234Y05287*
X18243Y05283*
X18252Y05279*
X18262Y05277*
X18271Y05276*
X18281Y05275*
X17431Y05769D02*
X17432Y05759D01*
X17433Y05749*
X17436Y0574*
X17439Y05731*
X17443Y05722*
X17448Y05713*
X17454Y05705*
X1746Y05698*
X17468Y05691*
X17476Y05686*
X17484Y05681*
X17493Y05676*
X17502Y05673*
X17512Y05671*
X17521Y05669*
X17531Y05669*
X16681Y05769D02*
X16682Y05759D01*
X16683Y05749*
X16686Y0574*
X16689Y05731*
X16693Y05722*
X16698Y05713*
X16704Y05705*
X1671Y05698*
X16718Y05691*
X16726Y05686*
X16734Y05681*
X16743Y05676*
X16752Y05673*
X16762Y05671*
X16771Y05669*
X16781Y05669*
X15931Y05769D02*
X15932Y05759D01*
X15933Y05749*
X15936Y0574*
X15939Y05731*
X15943Y05722*
X15948Y05713*
X15954Y05705*
X1596Y05698*
X15968Y05691*
X15976Y05686*
X15984Y05681*
X15993Y05676*
X16002Y05673*
X16012Y05671*
X16021Y05669*
X16031Y05669*
X15181Y05769D02*
X15182Y05759D01*
X15183Y05749*
X15186Y0574*
X15189Y05731*
X15193Y05722*
X15198Y05713*
X15204Y05705*
X1521Y05698*
X15218Y05691*
X15226Y05686*
X15234Y05681*
X15243Y05676*
X15252Y05673*
X15262Y05671*
X15271Y05669*
X15281Y05669*
X15181Y06517D02*
X15182Y06507D01*
X15183Y06497*
X15186Y06488*
X15189Y06479*
X15193Y0647*
X15198Y06461*
X15204Y06453*
X1521Y06446*
X15218Y0644*
X15226Y06434*
X15234Y06429*
X15243Y06424*
X15252Y06421*
X15262Y06419*
X15271Y06417*
X15281Y06417*
X15931Y06517D02*
X15932Y06507D01*
X15933Y06497*
X15936Y06488*
X15939Y06479*
X15943Y0647*
X15948Y06461*
X15954Y06453*
X1596Y06446*
X15968Y0644*
X15976Y06434*
X15984Y06429*
X15993Y06424*
X16002Y06421*
X16012Y06419*
X16021Y06417*
X16031Y06417*
X16681Y06517D02*
X16682Y06507D01*
X16683Y06497*
X16686Y06488*
X16689Y06479*
X16693Y0647*
X16698Y06461*
X16704Y06453*
X1671Y06446*
X16718Y0644*
X16726Y06434*
X16734Y06429*
X16743Y06424*
X16752Y06421*
X16762Y06419*
X16771Y06417*
X16781Y06417*
X17431Y06517D02*
X17432Y06507D01*
X17433Y06497*
X17436Y06488*
X17439Y06479*
X17443Y0647*
X17448Y06461*
X17454Y06453*
X1746Y06446*
X17468Y0644*
X17476Y06434*
X17484Y06429*
X17493Y06424*
X17502Y06421*
X17512Y06419*
X17521Y06417*
X17531Y06417*
X18181Y06871D02*
X18182Y06861D01*
X18183Y06852*
X18186Y06842*
X18189Y06833*
X18193Y06824*
X18198Y06816*
X18204Y06808*
X1821Y068*
X18218Y06794*
X18226Y06788*
X18234Y06783*
X18243Y06779*
X18252Y06775*
X18262Y06773*
X18271Y06772*
X18281Y06771*
X17431Y07265D02*
X17432Y07255D01*
X17433Y07245*
X17436Y07236*
X17439Y07227*
X17443Y07218*
X17448Y07209*
X17454Y07201*
X1746Y07194*
X17468Y07188*
X17476Y07182*
X17484Y07177*
X17493Y07172*
X17502Y07169*
X17512Y07167*
X17521Y07165*
X17531Y07165*
X16681Y07265D02*
X16682Y07255D01*
X16683Y07245*
X16686Y07236*
X16689Y07227*
X16693Y07218*
X16698Y07209*
X16704Y07201*
X1671Y07194*
X16718Y07188*
X16726Y07182*
X16734Y07177*
X16743Y07172*
X16752Y07169*
X16762Y07167*
X16771Y07165*
X16781Y07165*
X15181Y07265D02*
X15182Y07255D01*
X15183Y07245*
X15186Y07236*
X15189Y07227*
X15193Y07218*
X15198Y07209*
X15204Y07201*
X1521Y07194*
X15218Y07188*
X15226Y07182*
X15234Y07177*
X15243Y07172*
X15252Y07169*
X15262Y07167*
X15271Y07165*
X15281Y07165*
X15931Y07265D02*
X15932Y07255D01*
X15933Y07245*
X15936Y07236*
X15939Y07227*
X15943Y07218*
X15948Y07209*
X15954Y07201*
X1596Y07194*
X15968Y07188*
X15976Y07182*
X15984Y07177*
X15993Y07172*
X16002Y07169*
X16012Y07167*
X16021Y07165*
X16031Y07165*
X17491Y09129D02*
Y09129D01*
X17562Y09201D02*
X17552Y09201D01*
X17542Y09198*
X17532Y09195*
X17524Y0919*
X17515Y09184*
X17508Y09176*
X17502Y09168*
X17497Y09159*
X17494Y09149*
X17492Y09139*
X17491Y09129*
X18586Y09116D02*
X18586Y09125D01*
X18584Y09135*
X18581Y09144*
X18578Y09153*
X18573Y09162*
X18567Y0917*
X18561Y09177*
X18553Y09184*
X18546Y09189*
X18537Y09194*
X18528Y09198*
X18519Y092*
X18509Y09202*
X18499Y09202*
X17931Y09383D02*
X1794Y09384D01*
X1795Y09386*
X17959Y09389*
X17968Y09393*
X17977Y09398*
X17985Y09404*
X17991Y09411*
X17998Y09418*
X18003Y09427*
X18007Y09436*
X1801Y09445*
X18011Y09455*
X18012Y09465*
X18075Y09513D02*
X18066Y09513D01*
X18056Y09511*
X18047Y09508*
X18038Y09503*
X1803Y09498*
X18023Y09492*
X18017Y09484*
X18013Y09475*
X18012Y09465*
X16921Y09513D02*
X1691Y09512D01*
X169Y0951*
X16891Y09506*
X16882Y09501*
X16874Y09494*
X16867Y09486*
X16862Y09477*
X16858Y09468*
X16856Y09458*
X16855Y09447*
X16791Y09383D02*
X16801Y09384D01*
X16811Y09386*
X1682Y0939*
X16828Y09396*
X16836Y09402*
X16843Y0941*
X16848Y09418*
X16852Y09428*
X16854Y09437*
X16855Y09447*
X18688Y05217D02*
X18745D01*
X18845Y06816D02*
Y08207D01*
Y05317D02*
Y06816D01*
X18688Y06717D02*
X18746D01*
X18281Y05784D02*
X18588D01*
X18181Y05375D02*
Y05684D01*
X18281Y07284D02*
X18588D01*
X18181Y06871D02*
Y07184D01*
X18748Y08304D02*
Y08573D01*
X16161Y06338D02*
Y06414D01*
X16015Y08732D02*
X17566D01*
X17801Y08515D02*
Y09201D01*
X15188Y08508D02*
X153D01*
X15374Y08582D02*
Y09053D01*
X15474Y09153D02*
X15856D01*
X15561Y09094D02*
X15905D01*
X15538Y08808D02*
X15788D01*
X15964Y09153D02*
Y09183D01*
X15984Y09202D02*
X17293D01*
X15895Y09192D02*
Y09222D01*
X15944Y09271D02*
X17293D01*
X17854Y08562D02*
X17994D01*
X16065Y08631D02*
X17235D01*
X18094Y07704D02*
Y08462D01*
X15413Y07106D02*
Y07162D01*
X15797Y07047D02*
X16161D01*
X16164Y0705D02*
Y07165D01*
X16545Y07047D02*
X16643D01*
X16909D02*
Y07162D01*
X18408Y07798D02*
Y07913D01*
X1766Y0706D02*
Y07165D01*
X17657Y07834D02*
Y0791D01*
X17801Y09201D02*
X17983D01*
X17452Y08415D02*
X17701D01*
X17421Y07834D02*
Y07942D01*
X17352Y08011D02*
Y08315D01*
X16912Y07837D02*
Y07913D01*
X16164Y07837D02*
Y07913D01*
X17321Y07948D02*
Y0834D01*
X18389Y09116D02*
X18424D01*
X15806Y06338D02*
X15905D01*
X15413D02*
Y06414D01*
X15748Y06054D02*
Y06804D01*
X18405Y06692D02*
Y06768D01*
X17657Y06338D02*
Y06414D01*
X16909Y06338D02*
Y06414D01*
X15413Y0559D02*
Y05666D01*
X17657Y0559D02*
Y05666D01*
X16909Y0559D02*
Y05666D01*
X16161Y0559D02*
Y05666D01*
X18408Y05144D02*
Y05275D01*
X15748Y05304D02*
Y06054D01*
X16574Y07901D02*
Y08228D01*
X16498Y07824D02*
Y08304D01*
X17251Y08307D02*
Y0841D01*
X15965Y08404D02*
Y08531D01*
Y084D02*
Y08404D01*
X15915Y08408D02*
Y08632D01*
X15788Y08308D02*
X15815D01*
X17998Y07814D02*
Y08304D01*
X18048Y0818D02*
Y08254D01*
X17248Y08304D02*
X17251Y08307D01*
X15438Y08908D02*
Y0901D01*
X15654Y09513D02*
X15683D01*
X15188Y04829D02*
X15508D01*
X16238*
X18038Y07654D02*
X18044D01*
X17998Y07554D02*
Y07614D01*
X16988Y04829D02*
X17568D01*
X16238D02*
X16988D01*
X16912Y04905D02*
Y04921D01*
X16164Y04903D02*
Y04921D01*
X15748Y07554D02*
Y07624D01*
Y06804D02*
Y07554D01*
X16598Y07732D02*
X17148D01*
X16498Y07554D02*
Y07632D01*
X17248Y07832D02*
Y08304D01*
X15848Y07724D02*
X16398D01*
X16498Y06804D02*
Y07554D01*
Y06054D02*
Y06804D01*
Y05304D02*
Y06054D01*
X17248Y05304D02*
Y06054D01*
Y06804*
Y07554D02*
Y07642D01*
Y06804D02*
Y07554D01*
X17335Y07729D02*
X17913D01*
X17998Y07814D02*
X17999D01*
X17998Y05304D02*
Y06054D01*
Y06804*
Y07554*
X18524Y08754D02*
Y09016D01*
X18624Y08654D02*
X18667D01*
X18281Y07913D02*
X18284D01*
X18181Y08013D02*
Y08204D01*
X17531Y07913D02*
X17536D01*
X17431Y08013D02*
Y08204D01*
X16781Y07913D02*
X16788D01*
X16681Y08013D02*
Y08204D01*
X15931Y08013D02*
Y08204D01*
X16031Y07913D02*
X1604D01*
X15281Y04921D02*
X15292D01*
X15181Y05021D02*
Y05204D01*
X15931Y05021D02*
Y05204D01*
X16031Y04921D02*
X1604D01*
X16681Y05021D02*
Y05204D01*
X16781Y04921D02*
X16788D01*
X17431Y05021D02*
Y05204D01*
X17531Y04921D02*
X17536D01*
X18281Y05275D02*
X18284D01*
X17531Y05669D02*
X17536D01*
X17431Y05769D02*
Y05954D01*
X16781Y05669D02*
X16788D01*
X16681Y05769D02*
Y05954D01*
X15931Y05769D02*
Y05954D01*
X16031Y05669D02*
X1604D01*
X15181Y05769D02*
Y05954D01*
X15281Y05669D02*
X15292D01*
X15181Y06517D02*
Y06704D01*
X15281Y06417D02*
X15292D01*
X15931Y06517D02*
Y06704D01*
X16031Y06417D02*
X1604D01*
X16681Y06517D02*
Y06704D01*
X16781Y06417D02*
X16788D01*
X17431Y06517D02*
Y06704D01*
X17531Y06417D02*
X17536D01*
X18281Y06771D02*
X18284D01*
X17431Y07265D02*
Y07454D01*
X17531Y07165D02*
X17536D01*
X16681Y07265D02*
Y07454D01*
X16781Y07165D02*
X16788D01*
X15181Y07265D02*
Y07454D01*
X15281Y07165D02*
X15292D01*
X15931Y07265D02*
Y07454D01*
X16031Y07165D02*
X1604D01*
X17491Y08808D02*
Y09129D01*
X17562Y09201D02*
X17677D01*
X18108Y09202D02*
X18499D01*
X18075Y09513D02*
X18191D01*
X18012Y09465D02*
Y09465D01*
X18075Y09513D02*
X18075D01*
X17118Y09383D02*
X17931D01*
X16921Y09513D02*
X16925D01*
X15847Y09383D02*
X16791D01*
G54D30*
X17269Y09645D02*
X1726Y09641D01*
X17251Y09636*
X17243Y0963*
X17235Y09622*
X17229Y09614*
X17223Y09605*
X17219Y09596*
X17216Y09586*
X17214Y09576*
X17213Y09565*
X18384Y09513D02*
X18384Y09524D01*
X18382Y09534*
X1838Y09544*
X18376Y09553*
X18371Y09562*
X18366Y09571*
X18359Y09579*
X18352Y09586*
X18344Y09593*
X18335Y09599*
X18326Y09603*
X18316Y09607*
X18306Y0961*
X18296Y09611*
X18286Y09612*
X17118Y09524D02*
X17117Y09534D01*
X17115Y09543*
X17111Y09552*
X17106Y0956*
X171Y09567*
X17092Y09573*
X17084Y09578*
X17075Y09582*
X17066Y09584*
X17057Y09585*
X16784Y09511D02*
X16794Y09513D01*
X16804Y09517*
X16812Y09523*
X16819Y09531*
X16823Y09541*
X16824Y09552*
X16858Y09585D02*
X16847Y09583D01*
X16838Y09579*
X16831Y09571*
X16826Y09562*
X16824Y09552*
X15847Y09513D02*
X15848Y09512D01*
X16198Y09645D02*
X16189Y09645D01*
X16179Y09643*
X1617Y0964*
X16161Y09635*
X16153Y0963*
X16146Y09624*
X1614Y09616*
X16134Y09608*
X1613Y096*
X16127Y0959*
X16125Y09581*
X16125Y09571*
X16777Y09645D02*
X16767Y09645D01*
X16758Y09643*
X16748Y09639*
X1674Y09635*
X16732Y0963*
X16724Y09623*
X16718Y09616*
X16712Y09608*
X16708Y09599*
X16705Y0959*
X16703Y0958*
X16702Y0957*
X17298Y0965D02*
X17288Y0965D01*
X17279Y09648*
X17269Y09645*
X17799Y09594D02*
X178Y09583D01*
X17804Y09573*
X17811Y09565*
X17819Y09558*
X17829Y09554*
X1784Y09553*
X17799Y09594D02*
X17798Y09604D01*
X17795Y09613*
X17791Y09622*
X17786Y0963*
X17779Y09637*
X17771Y09643*
X17762Y09647*
X17752Y09649*
X17743Y0965*
X18044Y09612D02*
X18286D01*
X17118Y09513D02*
Y09524D01*
X16858Y09585D02*
X17057D01*
X16702Y09511D02*
X16784D01*
X15848Y09512D02*
X16125D01*
X16777Y09645D02*
X17269D01*
X16198D02*
X16777D01*
X17298Y0965D02*
X17743D01*
X1784Y09553D02*
X18044D01*
G54D32*
X18163Y07447D03*
Y06507D03*
Y05947D03*
Y05007D03*
G54D33*
X18688Y06507D03*
X18763Y07447D03*
Y05947D03*
Y05007D03*
G54D34*
X18588Y05627D03*
X18688Y05377D03*
X17588Y05204D03*
X17838Y05304D03*
X16838Y05204D03*
X17088Y05304D03*
X16088Y05204D03*
X16338Y05304D03*
X15338Y05204D03*
X15588Y05304D03*
X15338Y05954D03*
X15588Y06054D03*
X16088Y05954D03*
X16338Y06054D03*
X16838Y05954D03*
X17088Y06054D03*
X17588Y05954D03*
X17838Y06054D03*
X17588Y06704D03*
X17838Y06804D03*
X16838Y06704D03*
X17088Y06804D03*
X16088Y06704D03*
X16338Y06804D03*
X15338Y06704D03*
X15588Y06804D03*
Y07554D03*
X15338Y07454D03*
X16088D03*
X16338Y07554D03*
X16838Y07454D03*
X17088Y07554D03*
X17588Y07454D03*
X17838Y07554D03*
X18588Y07127D03*
X18688Y06877D03*
X18588Y08304D03*
X18338Y08204D03*
X17838Y08304D03*
X17588Y08204D03*
X17088Y08304D03*
X16838Y08204D03*
X16338Y08304D03*
X16088Y08204D03*
G54D35*
X18488Y05277D03*
Y05677D03*
X17938Y05104D03*
X17538D03*
X17188D03*
X16788D03*
X16438D03*
X16038D03*
X15688D03*
X15288D03*
X15688Y05854D03*
X15288D03*
X16438D03*
X16038D03*
X17188D03*
X16788D03*
X17938D03*
X17538D03*
X17938Y06604D03*
X17538D03*
X17188D03*
X16788D03*
X16438D03*
X16038D03*
X15688D03*
X15288D03*
Y07354D03*
X15688D03*
X16438D03*
X16038D03*
X17188D03*
X16788D03*
X17938D03*
X17538D03*
X18488Y06777D03*
Y07177D03*
X18288Y08104D03*
X18688D03*
X17538D03*
X17938D03*
X16788D03*
X17188D03*
X16038D03*
X16438D03*
G54D36*
X18488Y05477D03*
X17738Y05104D03*
X16988D03*
X16238D03*
X15488D03*
Y05854D03*
X16238D03*
X16988D03*
X17738D03*
Y06604D03*
X16988D03*
X16238D03*
X15488D03*
Y07354D03*
X16238D03*
X16988D03*
X17738D03*
X18488Y06977D03*
Y08104D03*
X17738D03*
X16988D03*
X16238D03*
G54D37*
X15515Y06232D03*
X18651Y0936D03*
X16338Y08877D03*
X18467Y06124D03*
G54D38*
X17213Y09565D03*
G54D39*
X17313Y09565D03*
X17413D03*
X17513D03*
X17491Y08808D03*
Y08631D03*
X17235D03*
Y08808D03*
G54D40*
X15788Y09008D03*
Y08908D03*
Y08808D03*
Y08708D03*
Y08608D03*
Y08508D03*
Y08408D03*
Y08308D03*
Y08208D03*
Y08108D03*
Y08008D03*
Y07908D03*
X15188Y09008D03*
Y08908D03*
Y08808D03*
Y08708D03*
Y08608D03*
Y08508D03*
Y08408D03*
Y08308D03*
Y08208D03*
Y08108D03*
Y08008D03*
Y07908D03*
G54D41*
X16161Y06338D03*
X15196Y0933D03*
X15561Y09094D03*
X17293Y09202D03*
Y09271D03*
X17854Y08562D03*
X15413Y07106D03*
X15797Y07047D03*
X16161D03*
X16545D03*
X16643D03*
X16909D03*
X18408Y07798D03*
X17657Y07057D03*
X17421Y07834D03*
X17657D03*
X16909D03*
X16161D03*
X17568Y0873D03*
X15806Y06338D03*
X15413D03*
X15905D03*
X18405Y06692D03*
X16909Y06338D03*
X17657D03*
X15413Y0559D03*
X16161D03*
X16909D03*
X17657D03*
X1841Y05142D03*
X16574Y07901D03*
X17321Y07948D03*
X15965Y08404D03*
X18048Y0818D03*
X17251Y0841D03*
X15438Y0901D03*
X15745Y09451D03*
X15188Y04829D03*
G54D42*
X18588Y05784D03*
X18688Y05217D03*
X18588Y07284D03*
X18688Y06717D03*
G54D43*
X17431Y05204D03*
X17998Y05304D03*
X16681Y05204D03*
X17248Y05304D03*
X15931Y05204D03*
X16498Y05304D03*
X15181Y05204D03*
X15748Y05304D03*
X15181Y05954D03*
X15748Y06054D03*
X15931Y05954D03*
X16498Y06054D03*
X16681Y05954D03*
X17248Y06054D03*
X17431Y05954D03*
X17998Y06054D03*
X17431Y06704D03*
X17998Y06804D03*
X16681Y06704D03*
X17248Y06804D03*
X15931Y06704D03*
X16498Y06804D03*
X15181Y06704D03*
X15748Y06804D03*
Y07554D03*
X15181Y07454D03*
X15931D03*
X16498Y07554D03*
X16681Y07454D03*
X17248Y07554D03*
X17431Y07454D03*
X17998Y07554D03*
X18748Y08304D03*
X18181Y08204D03*
X17998Y08304D03*
X17431Y08204D03*
X17248Y08304D03*
X16681Y08204D03*
X16498Y08304D03*
X15931Y08204D03*
G54D44*
X16702Y09511D03*
Y0957D03*
X16125Y09512D03*
Y09571D03*
X18044Y09612D03*
Y09553D03*
G54D45*
X16925Y09513D03*
Y09383D03*
X17118D03*
Y09513D03*
X15654D03*
Y09383D03*
X15847D03*
Y09513D03*
X18191D03*
Y09383D03*
X18384D03*
Y09513D03*
G54D46*
X17536Y04921D03*
X1766D03*
X16912D03*
X16788D03*
X18408Y07913D03*
X18284D03*
X15416Y07165D03*
X15292D03*
X16164Y07913D03*
X1604D03*
X16164Y04921D03*
X1604D03*
X15416D03*
X15292D03*
X18408Y05275D03*
X18284D03*
X1766Y05669D03*
X17536D03*
X16912D03*
X16788D03*
X16164D03*
X1604D03*
X15416D03*
X15292D03*
X18408Y06771D03*
X18284D03*
X1766Y06417D03*
X17536D03*
X16912D03*
X16788D03*
X16164D03*
X1604D03*
X15416D03*
X15292D03*
X1766Y07165D03*
X17536D03*
X16912D03*
X16788D03*
X16164D03*
X1604D03*
X17984Y09202D03*
X18108D03*
X17801Y09201D03*
X17677D03*
X1766Y07913D03*
X17536D03*
X16912D03*
X16788D03*
M02*