%FSTAX23Y23*%
%MOIN*%
%SFA1B1*%

%IPPOS*%
%ADD10C,0.009840*%
%ADD12C,0.007870*%
%ADD13C,0.010000*%
%ADD51C,0.005910*%
%ADD52R,0.020000X0.062480*%
%LNnumpadpcb-1*%
%LPD*%
G54D10*
X17174Y09513D02*
X17166Y09518D01*
Y09509*
X17174Y09513*
X15903D02*
X15896Y09518D01*
Y09509*
X15903Y09513*
X1844D02*
X18433Y09518D01*
Y09509*
X1844Y09513*
G54D12*
X16745Y09498D02*
Y09584D01*
X1666Y09498D02*
Y09584D01*
X16923Y09417D02*
Y0948D01*
X1712Y09417D02*
Y0948D01*
Y09545D02*
Y09547D01*
X16923Y09545D02*
Y09547D01*
Y0935D02*
Y09352D01*
X1712Y0935D02*
Y09352D01*
X16923Y0935D02*
X1712D01*
X16923Y09547D02*
X1712D01*
X15652Y09417D02*
Y0948D01*
X15849Y09417D02*
Y0948D01*
Y09545D02*
Y09547D01*
X15652Y09545D02*
Y09547D01*
Y0935D02*
Y09352D01*
X15849Y0935D02*
Y09352D01*
X15652Y0935D02*
X15849D01*
X15652Y09547D02*
X15849D01*
X16167Y09499D02*
Y09585D01*
X16082Y09499D02*
Y09585D01*
X18001Y09539D02*
Y09625D01*
X18086Y09539D02*
Y09625D01*
X18189Y09417D02*
Y0948D01*
X18386Y09417D02*
Y0948D01*
Y09545D02*
Y09547D01*
X18189Y09545D02*
Y09547D01*
Y0935D02*
Y09352D01*
X18386Y0935D02*
Y09352D01*
X18189Y0935D02*
X18386D01*
X18189Y09547D02*
X18386D01*
X17623Y0489D02*
Y04951D01*
X17573D02*
X17623D01*
X17573Y0489D02*
X17623D01*
X16825D02*
X16875D01*
X16825Y04951D02*
X16875D01*
Y0489D02*
Y04951D01*
X18321Y07882D02*
X18371D01*
X18321Y07943D02*
X18371D01*
Y07882D02*
Y07943D01*
X15329Y07134D02*
X15379D01*
X15329Y07195D02*
X15379D01*
Y07134D02*
Y07195D01*
X16077Y07882D02*
X16127D01*
X16077Y07943D02*
X16127D01*
Y07882D02*
Y07943D01*
X16077Y0489D02*
X16127D01*
X16077Y04951D02*
X16127D01*
Y0489D02*
Y04951D01*
X15329Y0489D02*
X15379D01*
X15329Y04951D02*
X15379D01*
Y0489D02*
Y04951D01*
X18321Y05245D02*
X18371D01*
X18321Y05306D02*
X18371D01*
Y05245D02*
Y05306D01*
X17573Y05638D02*
X17623D01*
X17573Y05699D02*
X17623D01*
Y05638D02*
Y05699D01*
X16825Y05638D02*
X16875D01*
X16825Y05699D02*
X16875D01*
Y05638D02*
Y05699D01*
X16077Y05638D02*
X16127D01*
X16077Y05699D02*
X16127D01*
Y05638D02*
Y05699D01*
X15329Y05638D02*
X15379D01*
X15329Y05699D02*
X15379D01*
Y05638D02*
Y05699D01*
X18321Y06741D02*
X18371D01*
X18321Y06802D02*
X18371D01*
Y06741D02*
Y06802D01*
X17573Y06386D02*
X17623D01*
X17573Y06447D02*
X17623D01*
Y06386D02*
Y06447D01*
X16825Y06386D02*
X16875D01*
X16825Y06447D02*
X16875D01*
Y06386D02*
Y06447D01*
X16077Y06386D02*
X16127D01*
X16077Y06447D02*
X16127D01*
Y06386D02*
Y06447D01*
X15329Y06386D02*
X15379D01*
X15329Y06447D02*
X15379D01*
Y06386D02*
Y06447D01*
X17573Y07134D02*
X17623D01*
X17573Y07195D02*
X17623D01*
Y07134D02*
Y07195D01*
X16825Y07134D02*
X16875D01*
X16825Y07195D02*
X16875D01*
Y07134D02*
Y07195D01*
X16077Y07134D02*
X16127D01*
X16077Y07195D02*
X16127D01*
Y07134D02*
Y07195D01*
X18021Y09233D02*
X18071D01*
X18021Y09172D02*
X18071D01*
X18021D02*
Y09233D01*
X17714Y09171D02*
X17764D01*
X17714Y09232D02*
X17764D01*
Y09171D02*
Y09232D01*
X17573Y07882D02*
X17623D01*
X17573Y07943D02*
X17623D01*
Y07882D02*
Y07943D01*
X16825Y07882D02*
X16875D01*
X16825Y07943D02*
X16875D01*
Y07882D02*
Y07943D01*
G54D13*
X17917Y09592D02*
X17907Y09602D01*
Y09622*
X17917Y09632*
X17957*
X17967Y09622*
Y09602*
X17957Y09592*
X17917Y09572D02*
X17907Y09562D01*
Y09542*
X17917Y09532*
X17927*
X17937Y09542*
Y09552*
Y09542*
X17947Y09532*
X17957*
X17967Y09542*
Y09562*
X17957Y09572*
X15848Y09642D02*
X15868D01*
X15858*
Y09592*
X15868Y09582*
X15878*
X15888Y09592*
X15828Y09582D02*
X15808D01*
X15818*
Y09642*
X15828Y09632*
X18395Y09642D02*
X18415D01*
X18405*
Y09592*
X18415Y09582*
X18425*
X18435Y09592*
X18375Y09632D02*
X18365Y09642D01*
X18345*
X18335Y09632*
Y09622*
X18345Y09612*
X18355*
X18345*
X18335Y09602*
Y09592*
X18345Y09582*
X18365*
X18375Y09592*
X17129Y09642D02*
X17149D01*
X17139*
Y09592*
X17149Y09582*
X17159*
X17169Y09592*
X17069Y09582D02*
X17109D01*
X17069Y09622*
Y09632*
X17079Y09642*
X17099*
X17109Y09632*
X16251Y09542D02*
X16261Y09532D01*
Y09512*
X16251Y09502*
X16211*
X16201Y09512*
Y09532*
X16211Y09542*
X16201Y09562D02*
Y09582D01*
Y09572*
X16261*
X16251Y09562*
X16829Y09531D02*
X16839Y09521D01*
Y09501*
X16829Y09491*
X16789*
X16779Y09501*
Y09521*
X16789Y09531*
X16779Y09591D02*
Y09551D01*
X16819Y09591*
X16829*
X16839Y09581*
Y09561*
X16829Y09551*
X17673Y05046D02*
Y04987D01*
X17643*
X17633Y04997*
Y05036*
X17643Y05046*
X17673*
X17573Y04987D02*
X17613D01*
X17573Y05026*
Y05036*
X17583Y05046*
X17603*
X17613Y05036*
X17523Y04987D02*
Y05046D01*
X17553Y05016*
X17513*
X16925Y05046D02*
Y04987D01*
X16895*
X16885Y04997*
Y05036*
X16895Y05046*
X16925*
X16825Y04987D02*
X16865D01*
X16825Y05026*
Y05036*
X16835Y05046*
X16855*
X16865Y05036*
X16805D02*
X16795Y05046D01*
X16775*
X16765Y05036*
Y05026*
X16775Y05016*
X16785*
X16775*
X16765Y05006*
Y04997*
X16775Y04987*
X16795*
X16805Y04997*
X18421Y08038D02*
Y07979D01*
X18391*
X18381Y07989*
Y08028*
X18391Y08038*
X18421*
X18361Y07979D02*
X18341D01*
X18351*
Y08038*
X18361Y08028*
X18311D02*
X18301Y08038D01*
X18281*
X18271Y08028*
Y07989*
X18281Y07979*
X18301*
X18311Y07989*
Y08028*
X15429Y0729D02*
Y07231D01*
X15399*
X15389Y07241*
Y0728*
X15399Y0729*
X15429*
X15329D02*
X15349Y0728D01*
X15369Y0726*
Y07241*
X15359Y07231*
X15339*
X15329Y07241*
Y0725*
X15339Y0726*
X15369*
X16177Y08038D02*
Y07979D01*
X16147*
X16137Y07989*
Y08028*
X16147Y08038*
X16177*
X16117Y07979D02*
X16097D01*
X16107*
Y08038*
X16117Y08028*
X16177Y05046D02*
Y04987D01*
X16147*
X16137Y04997*
Y05036*
X16147Y05046*
X16177*
X16077Y04987D02*
X16117D01*
X16077Y05026*
Y05036*
X16087Y05046*
X16107*
X16117Y05036*
X16017Y04987D02*
X16057D01*
X16017Y05026*
Y05036*
X16027Y05046*
X16047*
X16057Y05036*
X15429Y05046D02*
Y04987D01*
X15399*
X15389Y04997*
Y05036*
X15399Y05046*
X15429*
X15329Y04987D02*
X15369D01*
X15329Y05026*
Y05036*
X15339Y05046*
X15359*
X15369Y05036*
X15309Y04987D02*
X15289D01*
X15299*
Y05046*
X15309Y05036*
X18421Y054D02*
Y05341D01*
X18391*
X18381Y05351*
Y0539*
X18391Y054*
X18421*
X18321Y05341D02*
X18361D01*
X18321Y0538*
Y0539*
X18331Y054*
X18351*
X18361Y0539*
X18301D02*
X18291Y054D01*
X18271*
X18261Y0539*
Y05351*
X18271Y05341*
X18291*
X18301Y05351*
Y0539*
X17673Y05794D02*
Y05735D01*
X17643*
X17633Y05745*
Y05784*
X17643Y05794*
X17673*
X17613Y05735D02*
X17593D01*
X17603*
Y05794*
X17613Y05784*
X17563Y05745D02*
X17553Y05735D01*
X17533*
X17523Y05745*
Y05784*
X17533Y05794*
X17553*
X17563Y05784*
Y05774*
X17553Y05764*
X17523*
X16925Y05794D02*
Y05735D01*
X16895*
X16885Y05745*
Y05784*
X16895Y05794*
X16925*
X16865Y05735D02*
X16845D01*
X16855*
Y05794*
X16865Y05784*
X16815D02*
X16805Y05794D01*
X16785*
X16775Y05784*
Y05774*
X16785Y05764*
X16775Y05754*
Y05745*
X16785Y05735*
X16805*
X16815Y05745*
Y05754*
X16805Y05764*
X16815Y05774*
Y05784*
X16805Y05764D02*
X16785D01*
X16177Y05794D02*
Y05735D01*
X16147*
X16137Y05745*
Y05784*
X16147Y05794*
X16177*
X16117Y05735D02*
X16097D01*
X16107*
Y05794*
X16117Y05784*
X16067Y05794D02*
X16027D01*
Y05784*
X16067Y05745*
Y05735*
X15429Y05794D02*
Y05735D01*
X15399*
X15389Y05745*
Y05784*
X15399Y05794*
X15429*
X15369Y05735D02*
X15349D01*
X15359*
Y05794*
X15369Y05784*
X15279Y05794D02*
X15299Y05784D01*
X15319Y05764*
Y05745*
X15309Y05735*
X15289*
X15279Y05745*
Y05754*
X15289Y05764*
X15319*
X18421Y06896D02*
Y06837D01*
X18391*
X18381Y06847*
Y06886*
X18391Y06896*
X18421*
X18361Y06837D02*
X18341D01*
X18351*
Y06896*
X18361Y06886*
X18271Y06896D02*
X18311D01*
Y06866*
X18291Y06876*
X18281*
X18271Y06866*
Y06847*
X18281Y06837*
X18301*
X18311Y06847*
X17673Y06542D02*
Y06483D01*
X17643*
X17633Y06493*
Y06532*
X17643Y06542*
X17673*
X17613Y06483D02*
X17593D01*
X17603*
Y06542*
X17613Y06532*
X17533Y06483D02*
Y06542D01*
X17563Y06512*
X17523*
X16925Y06542D02*
Y06483D01*
X16895*
X16885Y06493*
Y06532*
X16895Y06542*
X16925*
X16865Y06483D02*
X16845D01*
X16855*
Y06542*
X16865Y06532*
X16815D02*
X16805Y06542D01*
X16785*
X16775Y06532*
Y06522*
X16785Y06512*
X16795*
X16785*
X16775Y06502*
Y06493*
X16785Y06483*
X16805*
X16815Y06493*
X16177Y06542D02*
Y06483D01*
X16147*
X16137Y06493*
Y06532*
X16147Y06542*
X16177*
X16117Y06483D02*
X16097D01*
X16107*
Y06542*
X16117Y06532*
X16027Y06483D02*
X16067D01*
X16027Y06522*
Y06532*
X16037Y06542*
X16057*
X16067Y06532*
X15429Y06542D02*
Y06483D01*
X15399*
X15389Y06493*
Y06532*
X15399Y06542*
X15429*
X15369Y06483D02*
X15349D01*
X15359*
Y06542*
X15369Y06532*
X15319Y06483D02*
X15299D01*
X15309*
Y06542*
X15319Y06532*
X17673Y0729D02*
Y07231D01*
X17643*
X17633Y07241*
Y0728*
X17643Y0729*
X17673*
X17613Y07241D02*
X17603Y07231D01*
X17583*
X17573Y07241*
Y0728*
X17583Y0729*
X17603*
X17613Y0728*
Y0727*
X17603Y0726*
X17573*
X16925Y0729D02*
Y07231D01*
X16895*
X16885Y07241*
Y0728*
X16895Y0729*
X16925*
X16865Y0728D02*
X16855Y0729D01*
X16835*
X16825Y0728*
Y0727*
X16835Y0726*
X16825Y0725*
Y07241*
X16835Y07231*
X16855*
X16865Y07241*
Y0725*
X16855Y0726*
X16865Y0727*
Y0728*
X16855Y0726D02*
X16835D01*
X16177Y0729D02*
Y07231D01*
X16147*
X16137Y07241*
Y0728*
X16147Y0729*
X16177*
X16117D02*
X16077D01*
Y0728*
X16117Y07241*
Y07231*
X18121Y09327D02*
Y09268D01*
X18091*
X18081Y09278*
Y09317*
X18091Y09327*
X18121*
X18021D02*
X18061D01*
Y09297*
X18041Y09307*
X18031*
X18021Y09297*
Y09278*
X18031Y09268*
X18051*
X18061Y09278*
X17814Y09326D02*
Y09267D01*
X17784*
X17774Y09277*
Y09316*
X17784Y09326*
X17814*
X17724Y09267D02*
Y09326D01*
X17754Y09296*
X17714*
X17673Y08038D02*
Y07979D01*
X17643*
X17633Y07989*
Y08028*
X17643Y08038*
X17673*
X17613Y08028D02*
X17603Y08038D01*
X17583*
X17573Y08028*
Y08018*
X17583Y08008*
X17593*
X17583*
X17573Y07998*
Y07989*
X17583Y07979*
X17603*
X17613Y07989*
X16925Y08038D02*
Y07979D01*
X16895*
X16885Y07989*
Y08028*
X16895Y08038*
X16925*
X16825Y07979D02*
X16865D01*
X16825Y08018*
Y08028*
X16835Y08038*
X16855*
X16865Y08028*
G54D51*
X1852Y05581D02*
X18524Y05573D01*
X18532Y05568*
X18541Y05567*
X18756Y05606D02*
X18755Y05616D01*
X18754Y05626*
X18751Y05635*
X18747Y05644*
X18743Y05653*
X18737Y0566*
X18731Y05668*
X18723Y05674*
X18715Y0568*
X18707Y05685*
X18698Y05688*
X18689Y05691*
X18679Y05693*
X18669Y05693*
X18618Y05331D02*
X1862Y05322D01*
X18624Y05315*
X18631Y05309*
X1864Y05307*
X18618Y05488D02*
X18618Y05498D01*
X18617Y05508*
X18614Y05517*
X1861Y05526*
X18605Y05535*
X18599Y05542*
X18592Y05549*
X18584Y05555*
X18576Y0556*
X18567Y05564*
X18557Y05566*
X18547Y05567*
X17634Y05135D02*
X17642Y0514D01*
X17647Y05148*
X17648Y05157*
X17608Y05372D02*
X17599Y05371D01*
X17589Y05369*
X1758Y05367*
X17571Y05363*
X17562Y05358*
X17554Y05353*
X17547Y05346*
X17541Y05339*
X17535Y05331*
X1753Y05323*
X17527Y05314*
X17524Y05304*
X17522Y05295*
X17522Y05285*
X17884Y05234D02*
X17893Y05235D01*
X179Y0524*
X17905Y05247*
X17908Y05255*
X17726Y05234D02*
X17717Y05234D01*
X17707Y05232*
X17698Y0523*
X17689Y05226*
X1768Y05221*
X17672Y05215*
X17666Y05208*
X1766Y052*
X17655Y05191*
X17651Y05182*
X17649Y05173*
X17648Y05163*
X16884Y05135D02*
X16892Y0514D01*
X16897Y05148*
X16898Y05157*
X16858Y05372D02*
X16849Y05371D01*
X16839Y05369*
X1683Y05367*
X16821Y05363*
X16812Y05358*
X16804Y05353*
X16797Y05346*
X16791Y05339*
X16785Y05331*
X1678Y05323*
X16777Y05314*
X16774Y05304*
X16772Y05295*
X16772Y05285*
X17134Y05234D02*
X17143Y05235D01*
X1715Y0524*
X17155Y05247*
X17158Y05255*
X16976Y05234D02*
X16967Y05234D01*
X16957Y05232*
X16948Y0523*
X16939Y05226*
X1693Y05221*
X16922Y05215*
X16916Y05208*
X1691Y052*
X16905Y05191*
X16901Y05182*
X16899Y05173*
X16898Y05163*
X16134Y05135D02*
X16142Y0514D01*
X16147Y05148*
X16148Y05157*
X16108Y05372D02*
X16099Y05371D01*
X16089Y05369*
X1608Y05367*
X16071Y05363*
X16062Y05358*
X16054Y05353*
X16047Y05346*
X16041Y05339*
X16035Y05331*
X1603Y05323*
X16027Y05314*
X16024Y05304*
X16022Y05295*
X16022Y05285*
X16384Y05234D02*
X16393Y05235D01*
X164Y0524*
X16405Y05247*
X16408Y05255*
X16226Y05234D02*
X16217Y05234D01*
X16207Y05232*
X16198Y0523*
X16189Y05226*
X1618Y05221*
X16172Y05215*
X16166Y05208*
X1616Y052*
X16155Y05191*
X16151Y05182*
X16149Y05173*
X16148Y05163*
X15384Y05135D02*
X15392Y0514D01*
X15397Y05148*
X15398Y05157*
X15358Y05372D02*
X15349Y05371D01*
X15339Y05369*
X1533Y05367*
X15321Y05363*
X15312Y05358*
X15304Y05353*
X15297Y05346*
X15291Y05339*
X15285Y05331*
X1528Y05323*
X15277Y05314*
X15274Y05304*
X15272Y05295*
X15272Y05285*
X15634Y05234D02*
X15643Y05235D01*
X1565Y0524*
X15655Y05247*
X15658Y05255*
X15476Y05234D02*
X15467Y05234D01*
X15457Y05232*
X15448Y0523*
X15439Y05226*
X1543Y05221*
X15422Y05215*
X15416Y05208*
X1541Y052*
X15405Y05191*
X15401Y05182*
X15399Y05173*
X15398Y05163*
X15384Y05885D02*
X15392Y0589D01*
X15397Y05898*
X15398Y05907*
X15358Y06122D02*
X15349Y06121D01*
X15339Y06119*
X1533Y06117*
X15321Y06113*
X15312Y06108*
X15304Y06103*
X15297Y06096*
X15291Y06089*
X15285Y06081*
X1528Y06073*
X15277Y06064*
X15274Y06054*
X15272Y06045*
X15272Y06035*
X15634Y05984D02*
X15643Y05985D01*
X1565Y0599*
X15655Y05997*
X15658Y06005*
X15476Y05984D02*
X15467Y05984D01*
X15457Y05982*
X15448Y0598*
X15439Y05976*
X1543Y05971*
X15422Y05965*
X15416Y05958*
X1541Y0595*
X15405Y05941*
X15401Y05932*
X15399Y05923*
X15398Y05913*
X16134Y05885D02*
X16142Y0589D01*
X16147Y05898*
X16148Y05907*
X16108Y06122D02*
X16099Y06121D01*
X16089Y06119*
X1608Y06117*
X16071Y06113*
X16062Y06108*
X16054Y06103*
X16047Y06096*
X16041Y06089*
X16035Y06081*
X1603Y06073*
X16027Y06064*
X16024Y06054*
X16022Y06045*
X16022Y06035*
X16384Y05984D02*
X16393Y05985D01*
X164Y0599*
X16405Y05997*
X16408Y06005*
X16226Y05984D02*
X16217Y05984D01*
X16207Y05982*
X16198Y0598*
X16189Y05976*
X1618Y05971*
X16172Y05965*
X16166Y05958*
X1616Y0595*
X16155Y05941*
X16151Y05932*
X16149Y05923*
X16148Y05913*
X16884Y05885D02*
X16892Y0589D01*
X16897Y05898*
X16898Y05907*
X16858Y06122D02*
X16849Y06121D01*
X16839Y06119*
X1683Y06117*
X16821Y06113*
X16812Y06108*
X16804Y06103*
X16797Y06096*
X16791Y06089*
X16785Y06081*
X1678Y06073*
X16777Y06064*
X16774Y06054*
X16772Y06045*
X16772Y06035*
X17134Y05984D02*
X17143Y05985D01*
X1715Y0599*
X17155Y05997*
X17158Y06005*
X16976Y05984D02*
X16967Y05984D01*
X16957Y05982*
X16948Y0598*
X16939Y05976*
X1693Y05971*
X16922Y05965*
X16916Y05958*
X1691Y0595*
X16905Y05941*
X16901Y05932*
X16899Y05923*
X16898Y05913*
X17634Y05885D02*
X17642Y0589D01*
X17647Y05898*
X17648Y05907*
X17608Y06122D02*
X17599Y06121D01*
X17589Y06119*
X1758Y06117*
X17571Y06113*
X17562Y06108*
X17554Y06103*
X17547Y06096*
X17541Y06089*
X17535Y06081*
X1753Y06073*
X17527Y06064*
X17524Y06054*
X17522Y06045*
X17522Y06035*
X17884Y05984D02*
X17893Y05985D01*
X179Y0599*
X17905Y05997*
X17908Y06005*
X17726Y05984D02*
X17717Y05984D01*
X17707Y05982*
X17698Y0598*
X17689Y05976*
X1768Y05971*
X17672Y05965*
X17666Y05958*
X1766Y0595*
X17655Y05941*
X17651Y05932*
X17649Y05923*
X17648Y05913*
X17634Y06635D02*
X17642Y0664D01*
X17647Y06648*
X17648Y06657*
X17608Y06872D02*
X17599Y06871D01*
X17589Y06869*
X1758Y06867*
X17571Y06863*
X17562Y06858*
X17554Y06853*
X17547Y06846*
X17541Y06839*
X17535Y06831*
X1753Y06823*
X17527Y06814*
X17524Y06804*
X17522Y06795*
X17522Y06785*
X17884Y06734D02*
X17893Y06735D01*
X179Y0674*
X17905Y06747*
X17908Y06755*
X17726Y06734D02*
X17717Y06734D01*
X17707Y06732*
X17698Y0673*
X17689Y06726*
X1768Y06721*
X17672Y06715*
X17666Y06708*
X1766Y067*
X17655Y06691*
X17651Y06682*
X17649Y06673*
X17648Y06663*
X16884Y06635D02*
X16892Y0664D01*
X16897Y06648*
X16898Y06657*
X16858Y06872D02*
X16849Y06871D01*
X16839Y06869*
X1683Y06867*
X16821Y06863*
X16812Y06858*
X16804Y06853*
X16797Y06846*
X16791Y06839*
X16785Y06831*
X1678Y06823*
X16777Y06814*
X16774Y06804*
X16772Y06795*
X16772Y06785*
X17134Y06734D02*
X17143Y06735D01*
X1715Y0674*
X17155Y06747*
X17158Y06755*
X16976Y06734D02*
X16967Y06734D01*
X16957Y06732*
X16948Y0673*
X16939Y06726*
X1693Y06721*
X16922Y06715*
X16916Y06708*
X1691Y067*
X16905Y06691*
X16901Y06682*
X16899Y06673*
X16898Y06663*
X16134Y06635D02*
X16142Y0664D01*
X16147Y06648*
X16148Y06657*
X16108Y06872D02*
X16099Y06871D01*
X16089Y06869*
X1608Y06867*
X16071Y06863*
X16062Y06858*
X16054Y06853*
X16047Y06846*
X16041Y06839*
X16035Y06831*
X1603Y06823*
X16027Y06814*
X16024Y06804*
X16022Y06795*
X16022Y06785*
X16384Y06734D02*
X16393Y06735D01*
X164Y0674*
X16405Y06747*
X16408Y06755*
X16226Y06734D02*
X16217Y06734D01*
X16207Y06732*
X16198Y0673*
X16189Y06726*
X1618Y06721*
X16172Y06715*
X16166Y06708*
X1616Y067*
X16155Y06691*
X16151Y06682*
X16149Y06673*
X16148Y06663*
X15384Y06635D02*
X15392Y0664D01*
X15397Y06648*
X15398Y06657*
X15358Y06872D02*
X15349Y06871D01*
X15339Y06869*
X1533Y06867*
X15321Y06863*
X15312Y06858*
X15304Y06853*
X15297Y06846*
X15291Y06839*
X15285Y06831*
X1528Y06823*
X15277Y06814*
X15274Y06804*
X15272Y06795*
X15272Y06785*
X15634Y06734D02*
X15643Y06735D01*
X1565Y0674*
X15655Y06747*
X15658Y06755*
X15476Y06734D02*
X15467Y06734D01*
X15457Y06732*
X15448Y0673*
X15439Y06726*
X1543Y06721*
X15422Y06715*
X15416Y06708*
X1541Y067*
X15405Y06691*
X15401Y06682*
X15399Y06673*
X15398Y06663*
X15476Y07484D02*
X15467Y07484D01*
X15457Y07482*
X15448Y0748*
X15439Y07476*
X1543Y07471*
X15422Y07465*
X15416Y07458*
X1541Y0745*
X15405Y07441*
X15401Y07432*
X15399Y07423*
X15398Y07413*
X15634Y07484D02*
X15643Y07485D01*
X1565Y0749*
X15655Y07497*
X15658Y07505*
X15358Y07622D02*
X15349Y07621D01*
X15339Y07619*
X1533Y07617*
X15321Y07613*
X15312Y07608*
X15304Y07603*
X15297Y07596*
X15291Y07589*
X15285Y07581*
X1528Y07573*
X15277Y07564*
X15274Y07554*
X15272Y07545*
X15272Y07535*
X15384Y07385D02*
X15392Y0739D01*
X15397Y07398*
X15398Y07407*
X16134Y07385D02*
X16142Y0739D01*
X16147Y07398*
X16148Y07407*
X16108Y07622D02*
X16099Y07621D01*
X16089Y07619*
X1608Y07617*
X16071Y07613*
X16062Y07608*
X16054Y07603*
X16047Y07596*
X16041Y07589*
X16035Y07581*
X1603Y07573*
X16027Y07564*
X16024Y07554*
X16022Y07545*
X16022Y07535*
X16384Y07484D02*
X16393Y07485D01*
X164Y0749*
X16405Y07497*
X16408Y07505*
X16226Y07484D02*
X16217Y07484D01*
X16207Y07482*
X16198Y0748*
X16189Y07476*
X1618Y07471*
X16172Y07465*
X16166Y07458*
X1616Y0745*
X16155Y07441*
X16151Y07432*
X16149Y07423*
X16148Y07413*
X16884Y07385D02*
X16892Y0739D01*
X16897Y07398*
X16898Y07407*
X16858Y07622D02*
X16849Y07621D01*
X16839Y07619*
X1683Y07617*
X16821Y07613*
X16812Y07608*
X16804Y07603*
X16797Y07596*
X16791Y07589*
X16785Y07581*
X1678Y07573*
X16777Y07564*
X16774Y07554*
X16772Y07545*
X16772Y07535*
X17134Y07484D02*
X17143Y07485D01*
X1715Y0749*
X17155Y07497*
X17158Y07505*
X16976Y07484D02*
X16967Y07484D01*
X16957Y07482*
X16948Y0748*
X16939Y07476*
X1693Y07471*
X16922Y07465*
X16916Y07458*
X1691Y0745*
X16905Y07441*
X16901Y07432*
X16899Y07423*
X16898Y07413*
X17634Y07385D02*
X17642Y0739D01*
X17647Y07398*
X17648Y07407*
X17608Y07622D02*
X17599Y07621D01*
X17589Y07619*
X1758Y07617*
X17571Y07613*
X17562Y07608*
X17554Y07603*
X17547Y07596*
X17541Y07589*
X17535Y07581*
X1753Y07573*
X17527Y07564*
X17524Y07554*
X17522Y07545*
X17522Y07535*
X17884Y07484D02*
X17893Y07485D01*
X179Y0749*
X17905Y07497*
X17908Y07505*
X17726Y07484D02*
X17717Y07484D01*
X17707Y07482*
X17698Y0748*
X17689Y07476*
X1768Y07471*
X17672Y07465*
X17666Y07458*
X1766Y0745*
X17655Y07441*
X17651Y07432*
X17649Y07423*
X17648Y07413*
X1852Y07081D02*
X18524Y07073D01*
X18532Y07068*
X18541Y07067*
X18756Y07106D02*
X18755Y07116D01*
X18754Y07126*
X18751Y07135*
X18747Y07144*
X18743Y07153*
X18737Y0716*
X18731Y07168*
X18723Y07174*
X18715Y0718*
X18707Y07185*
X18698Y07188*
X18689Y07191*
X18679Y07193*
X18669Y07193*
X18618Y06831D02*
X1862Y06822D01*
X18624Y06815*
X18631Y06809*
X1864Y06807*
X18618Y06988D02*
X18618Y06998D01*
X18617Y07008*
X18614Y07017*
X1861Y07026*
X18605Y07035*
X18599Y07042*
X18592Y07049*
X18584Y07055*
X18576Y0706*
X18567Y07064*
X18557Y07066*
X18547Y07067*
X18476Y08234D02*
X18467Y08234D01*
X18457Y08232*
X18448Y0823*
X18439Y08226*
X1843Y08221*
X18422Y08215*
X18416Y08208*
X1841Y082*
X18405Y08191*
X18401Y08182*
X18399Y08173*
X18398Y08163*
X18634Y08234D02*
X18643Y08235D01*
X1865Y0824*
X18655Y08247*
X18658Y08255*
X18358Y08372D02*
X18349Y08371D01*
X18339Y08369*
X1833Y08367*
X18321Y08363*
X18312Y08358*
X18304Y08353*
X18297Y08346*
X18291Y08339*
X18285Y08331*
X1828Y08323*
X18277Y08314*
X18274Y08304*
X18272Y08295*
X18272Y08285*
X18384Y08135D02*
X18392Y0814D01*
X18397Y08148*
X18398Y08157*
X17726Y08234D02*
X17717Y08234D01*
X17707Y08232*
X17698Y0823*
X17689Y08226*
X1768Y08221*
X17672Y08215*
X17666Y08208*
X1766Y082*
X17655Y08191*
X17651Y08182*
X17649Y08173*
X17648Y08163*
X17884Y08234D02*
X17893Y08235D01*
X179Y0824*
X17905Y08247*
X17908Y08255*
X17608Y08372D02*
X17599Y08371D01*
X17589Y08369*
X1758Y08367*
X17571Y08363*
X17562Y08358*
X17554Y08353*
X17547Y08346*
X17541Y08339*
X17535Y08331*
X1753Y08323*
X17527Y08314*
X17524Y08304*
X17522Y08295*
X17522Y08285*
X17634Y08135D02*
X17642Y0814D01*
X17647Y08148*
X17648Y08157*
X16976Y08234D02*
X16967Y08234D01*
X16957Y08232*
X16948Y0823*
X16939Y08226*
X1693Y08221*
X16922Y08215*
X16916Y08208*
X1691Y082*
X16905Y08191*
X16901Y08182*
X16899Y08173*
X16898Y08163*
X17134Y08234D02*
X17143Y08235D01*
X1715Y0824*
X17155Y08247*
X17158Y08255*
X16858Y08372D02*
X16849Y08371D01*
X16839Y08369*
X1683Y08367*
X16821Y08363*
X16812Y08358*
X16804Y08353*
X16797Y08346*
X16791Y08339*
X16785Y08331*
X1678Y08323*
X16777Y08314*
X16774Y08304*
X16772Y08295*
X16772Y08285*
X16884Y08135D02*
X16892Y0814D01*
X16897Y08148*
X16898Y08157*
X16226Y08234D02*
X16217Y08234D01*
X16207Y08232*
X16198Y0823*
X16189Y08226*
X1618Y08221*
X16172Y08215*
X16166Y08208*
X1616Y082*
X16155Y08191*
X16151Y08182*
X16149Y08173*
X16148Y08163*
X16384Y08234D02*
X16393Y08235D01*
X164Y0824*
X16405Y08247*
X16408Y08255*
X16108Y08372D02*
X16099Y08371D01*
X16089Y08369*
X1608Y08367*
X16071Y08363*
X16062Y08358*
X16054Y08353*
X16047Y08346*
X16041Y08339*
X16035Y08331*
X1603Y08323*
X16027Y08314*
X16024Y08304*
X16022Y08295*
X16022Y08285*
X16134Y08135D02*
X16142Y0814D01*
X16147Y08148*
X16148Y08157*
X1852Y05581D02*
Y05693D01*
X18669*
X18756Y05307D02*
Y05606D01*
X1864Y05307D02*
X18756D01*
X18618Y05331D02*
Y05488D01*
X17522Y05135D02*
X17634D01*
X17522D02*
Y05285D01*
X17608Y05372D02*
X17908D01*
Y05255D02*
Y05372D01*
X17726Y05234D02*
X17884D01*
X16772Y05135D02*
X16884D01*
X16772D02*
Y05285D01*
X16858Y05372D02*
X17158D01*
Y05255D02*
Y05372D01*
X16976Y05234D02*
X17134D01*
X16022Y05135D02*
X16134D01*
X16022D02*
Y05285D01*
X16108Y05372D02*
X16408D01*
Y05255D02*
Y05372D01*
X16226Y05234D02*
X16384D01*
X15272Y05135D02*
X15384D01*
X15272D02*
Y05285D01*
X15358Y05372D02*
X15658D01*
Y05255D02*
Y05372D01*
X15476Y05234D02*
X15634D01*
X15272Y05885D02*
X15384D01*
X15272D02*
Y06035D01*
X15358Y06122D02*
X15658D01*
Y06005D02*
Y06122D01*
X15476Y05984D02*
X15634D01*
X16022Y05885D02*
X16134D01*
X16022D02*
Y06035D01*
X16108Y06122D02*
X16408D01*
Y06005D02*
Y06122D01*
X16226Y05984D02*
X16384D01*
X16772Y05885D02*
X16884D01*
X16772D02*
Y06035D01*
X16858Y06122D02*
X17158D01*
Y06005D02*
Y06122D01*
X16976Y05984D02*
X17134D01*
X17522Y05885D02*
X17634D01*
X17522D02*
Y06035D01*
X17608Y06122D02*
X17908D01*
Y06005D02*
Y06122D01*
X17726Y05984D02*
X17884D01*
X17522Y06635D02*
X17634D01*
X17522D02*
Y06785D01*
X17608Y06872D02*
X17908D01*
Y06755D02*
Y06872D01*
X17726Y06734D02*
X17884D01*
X16772Y06635D02*
X16884D01*
X16772D02*
Y06785D01*
X16858Y06872D02*
X17158D01*
Y06755D02*
Y06872D01*
X16976Y06734D02*
X17134D01*
X16022Y06635D02*
X16134D01*
X16022D02*
Y06785D01*
X16108Y06872D02*
X16408D01*
Y06755D02*
Y06872D01*
X16226Y06734D02*
X16384D01*
X15272Y06635D02*
X15384D01*
X15272D02*
Y06785D01*
X15358Y06872D02*
X15658D01*
Y06755D02*
Y06872D01*
X15476Y06734D02*
X15634D01*
X15476Y07484D02*
X15634D01*
X15658Y07505D02*
Y07622D01*
X15358D02*
X15658D01*
X15272Y07385D02*
Y07535D01*
Y07385D02*
X15384D01*
X16022D02*
X16134D01*
X16022D02*
Y07535D01*
X16108Y07622D02*
X16408D01*
Y07505D02*
Y07622D01*
X16226Y07484D02*
X16384D01*
X16772Y07385D02*
X16884D01*
X16772D02*
Y07535D01*
X16858Y07622D02*
X17158D01*
Y07505D02*
Y07622D01*
X16976Y07484D02*
X17134D01*
X17522Y07385D02*
X17634D01*
X17522D02*
Y07535D01*
X17608Y07622D02*
X17908D01*
Y07505D02*
Y07622D01*
X17726Y07484D02*
X17884D01*
X1852Y07081D02*
Y07193D01*
X18669*
X18756Y06807D02*
Y07106D01*
X1864Y06807D02*
X18756D01*
X18618Y06831D02*
Y06988D01*
X18476Y08234D02*
X18634D01*
X18658Y08255D02*
Y08372D01*
X18358D02*
X18658D01*
X18272Y08135D02*
Y08285D01*
Y08135D02*
X18384D01*
X17726Y08234D02*
X17884D01*
X17908Y08255D02*
Y08372D01*
X17608D02*
X17908D01*
X17522Y08135D02*
Y08285D01*
Y08135D02*
X17634D01*
X16976Y08234D02*
X17134D01*
X17158Y08255D02*
Y08372D01*
X16858D02*
X17158D01*
X16772Y08135D02*
Y08285D01*
Y08135D02*
X16884D01*
X16226Y08234D02*
X16384D01*
X16408Y08255D02*
Y08372D01*
X16108D02*
X16408D01*
X16022Y08135D02*
Y08285D01*
Y08135D02*
X16134D01*
G54D52*
X17613Y04922D03*
X16865D03*
X18361Y07914D03*
X15369Y07166D03*
X16117Y07914D03*
X16117Y04922D03*
X15369D03*
X18361Y05276D03*
X17613Y0567D03*
X16865D03*
X16117D03*
X15369D03*
X18361Y06772D03*
X17613Y06418D03*
X16865D03*
X16117D03*
X15369D03*
X17613Y07166D03*
X16865D03*
X16117D03*
X18031Y09201D03*
X17754Y09203D03*
X17613Y07914D03*
X16865Y07914D03*
M02*