G04*
G04 #@! TF.GenerationSoftware,Altium Limited,Altium Designer,22.0.2 (36)*
G04*
G04 Layer_Physical_Order=1*
G04 Layer_Color=255*
%FSLAX25Y25*%
%MOIN*%
G70*
G04*
G04 #@! TF.SameCoordinates,D710C13B-DE0B-4BD4-8DFF-8B7893174C1F*
G04*
G04*
G04 #@! TF.FilePolarity,Positive*
G04*
G01*
G75*
%ADD14R,0.03740X0.05315*%
G04:AMPARAMS|DCode=21|XSize=102.36mil|YSize=185.04mil|CornerRadius=51.18mil|HoleSize=0mil|Usage=FLASHONLY|Rotation=180.000|XOffset=0mil|YOffset=0mil|HoleType=Round|Shape=RoundedRectangle|*
%AMROUNDEDRECTD21*
21,1,0.10236,0.08268,0,0,180.0*
21,1,0.00000,0.18504,0,0,180.0*
1,1,0.10236,0.00000,0.04134*
1,1,0.10236,0.00000,0.04134*
1,1,0.10236,0.00000,-0.04134*
1,1,0.10236,0.00000,-0.04134*
%
%ADD21ROUNDEDRECTD21*%
%ADD22C,0.06102*%
%ADD23R,0.06102X0.06102*%
%ADD27C,0.02000*%
%ADD28C,0.11811*%
%ADD29C,0.06700*%
%ADD30C,0.15700*%
%ADD31R,0.12598X0.11024*%
%ADD32C,0.12598*%
%ADD33C,0.07400*%
%ADD34C,0.15701*%
%ADD35C,0.12000*%
%ADD36C,0.05000*%
G36*
X1964567Y719488D02*
X1908025Y719488D01*
Y730748D01*
X1908037D01*
X1907875Y732393D01*
X1907395Y733974D01*
X1906616Y735432D01*
X1905568Y736709D01*
X1904290Y737758D01*
X1903806Y738016D01*
Y738191D01*
X1903520Y739259D01*
X1902967Y740217D01*
X1902185Y740999D01*
X1901227Y741552D01*
X1900159Y741838D01*
X1899053D01*
X1897985Y741552D01*
X1897027Y740999D01*
X1896246Y740217D01*
X1895692Y739259D01*
X1895406Y738191D01*
Y737085D01*
X1895692Y736017D01*
X1896246Y735059D01*
X1897027Y734277D01*
X1897985Y733724D01*
X1899053Y733438D01*
X1900159D01*
X1901227Y733724D01*
X1902185Y734277D01*
X1902877Y734969D01*
X1903415Y734556D01*
X1904271Y733441D01*
X1904809Y732142D01*
X1904982Y730825D01*
X1904967Y730748D01*
Y719488D01*
X1895669D01*
X1886372D01*
Y723244D01*
X1886370Y723255D01*
X1886466Y723986D01*
X1886752Y724678D01*
X1887208Y725272D01*
X1887802Y725728D01*
X1888494Y726015D01*
X1889225Y726111D01*
X1889237Y726108D01*
X1895668D01*
X1895692Y726017D01*
X1896246Y725059D01*
X1897027Y724277D01*
X1897985Y723724D01*
X1899053Y723438D01*
X1900159D01*
X1901227Y723724D01*
X1902185Y724277D01*
X1902967Y725059D01*
X1903520Y726017D01*
X1903806Y727085D01*
Y728191D01*
X1903520Y729259D01*
X1902967Y730217D01*
X1902185Y730999D01*
X1901227Y731552D01*
X1900159Y731838D01*
X1899053D01*
X1897985Y731552D01*
X1897027Y730999D01*
X1896246Y730217D01*
X1895692Y729259D01*
X1895668Y729167D01*
X1889237D01*
X1889228Y729166D01*
X1888081Y729052D01*
X1886970Y728716D01*
X1885946Y728168D01*
X1885049Y727432D01*
X1884312Y726534D01*
X1883765Y725510D01*
X1883428Y724399D01*
X1883315Y723252D01*
X1883313Y723244D01*
Y684920D01*
X1882813Y684854D01*
X1882717Y685213D01*
X1882322Y685897D01*
X1881763Y686456D01*
X1881079Y686851D01*
X1880316Y687055D01*
X1879526D01*
X1878763Y686851D01*
X1878079Y686456D01*
X1877521Y685897D01*
X1877340Y685584D01*
X1870691D01*
X1870511Y685897D01*
X1869952Y686456D01*
X1869268Y686851D01*
X1868505Y687055D01*
X1867715D01*
X1866952Y686851D01*
X1866268Y686456D01*
X1865710Y685897D01*
X1865315Y685213D01*
X1865110Y684450D01*
Y683660D01*
X1865315Y682897D01*
X1865710Y682213D01*
X1866268Y681655D01*
X1866952Y681260D01*
X1867715Y681055D01*
X1868505D01*
X1869268Y681260D01*
X1869952Y681655D01*
X1870511Y682213D01*
X1870691Y682526D01*
X1877340D01*
X1877521Y682213D01*
X1878079Y681655D01*
X1878763Y681260D01*
X1879526Y681055D01*
X1880316D01*
X1881079Y681260D01*
X1881763Y681655D01*
X1882322Y682213D01*
X1882717Y682897D01*
X1882813Y683257D01*
X1883313Y683191D01*
Y673841D01*
X1883001Y673660D01*
X1882442Y673102D01*
X1882047Y672418D01*
X1881842Y671655D01*
Y670865D01*
X1882047Y670102D01*
X1882442Y669418D01*
X1883001Y668859D01*
X1883685Y668464D01*
X1884448Y668260D01*
X1885238D01*
X1885430Y668311D01*
X1885827Y668007D01*
Y664501D01*
X1885768Y664429D01*
X1884481Y663373D01*
X1883013Y662589D01*
X1881420Y662105D01*
X1879832Y661949D01*
X1879764Y661963D01*
X1868268D01*
Y661981D01*
X1866807Y661789D01*
X1865446Y661225D01*
X1864278Y660329D01*
X1863381Y659160D01*
X1862817Y657799D01*
X1862625Y656339D01*
X1862644D01*
Y592520D01*
X1862660Y592438D01*
X1862489Y590701D01*
X1861959Y588952D01*
X1861097Y587341D01*
X1859938Y585928D01*
X1858525Y584769D01*
X1856914Y583908D01*
X1855165Y583377D01*
X1853428Y583206D01*
X1853346Y583222D01*
X1845472D01*
Y583228D01*
X1843693Y583088D01*
X1841957Y582671D01*
X1840307Y581988D01*
X1838785Y581055D01*
X1837427Y579896D01*
X1836268Y578538D01*
X1835335Y577016D01*
X1834652Y575366D01*
X1834235Y573630D01*
X1834095Y571850D01*
X1834101D01*
Y569510D01*
X1833788Y569330D01*
X1833229Y568771D01*
X1832834Y568087D01*
X1832630Y567324D01*
Y566534D01*
X1832834Y565771D01*
X1833229Y565087D01*
X1833348Y564968D01*
X1833197Y564540D01*
X1833146Y564463D01*
X1831841Y564204D01*
X1830587Y563684D01*
X1829458Y562930D01*
X1828499Y561971D01*
X1827745Y560842D01*
X1827225Y559588D01*
X1826961Y558257D01*
Y556900D01*
X1827225Y555569D01*
X1827745Y554315D01*
X1828499Y553187D01*
X1829272Y552413D01*
X1829065Y551913D01*
X1828280D01*
X1827177Y551617D01*
X1826189Y551047D01*
X1825382Y550240D01*
X1824812Y549252D01*
X1824516Y548149D01*
Y547008D01*
X1824812Y545906D01*
X1825382Y544917D01*
X1826189Y544110D01*
X1827177Y543540D01*
X1828280Y543244D01*
X1829421D01*
X1830523Y543540D01*
X1831512Y544110D01*
X1832319Y544917D01*
X1832889Y545906D01*
X1833185Y547008D01*
Y548149D01*
X1832889Y549252D01*
X1832319Y550240D01*
X1832183Y550376D01*
X1832429Y550837D01*
X1833172Y550689D01*
X1834529D01*
X1835860Y550954D01*
X1837114Y551473D01*
X1838242Y552227D01*
X1839202Y553187D01*
X1839956Y554315D01*
X1840475Y555569D01*
X1840740Y556900D01*
Y558257D01*
X1840475Y559588D01*
X1839956Y560842D01*
X1839202Y561971D01*
X1838242Y562930D01*
X1837114Y563684D01*
X1837053Y563709D01*
X1837017Y564266D01*
X1837472Y564529D01*
X1838030Y565087D01*
X1838425Y565771D01*
X1838630Y566534D01*
Y567324D01*
X1838425Y568087D01*
X1838030Y568771D01*
X1837472Y569330D01*
X1837159Y569510D01*
Y571850D01*
X1837146Y571916D01*
X1837300Y573476D01*
X1837774Y575039D01*
X1838544Y576480D01*
X1839580Y577742D01*
X1840843Y578779D01*
X1842284Y579549D01*
X1843847Y580023D01*
X1845407Y580177D01*
X1845472Y580163D01*
X1853346D01*
Y580155D01*
X1855281Y580307D01*
X1857167Y580760D01*
X1858960Y581502D01*
X1860614Y582516D01*
X1862090Y583776D01*
X1863350Y585252D01*
X1864364Y586906D01*
X1865106Y588699D01*
X1865559Y590585D01*
X1865711Y592520D01*
X1865703D01*
Y656339D01*
X1865688Y656412D01*
X1865871Y657331D01*
X1866433Y658173D01*
X1867275Y658735D01*
X1868194Y658918D01*
X1868268Y658904D01*
X1879764D01*
Y658897D01*
X1881568Y659039D01*
X1883328Y659462D01*
X1885001Y660155D01*
X1885390Y660394D01*
X1885827Y660149D01*
Y473425D01*
X1512795D01*
Y832677D01*
X1516975D01*
Y800551D01*
X1516954D01*
X1517153Y799039D01*
X1517737Y797631D01*
X1518665Y796421D01*
X1519875Y795493D01*
X1521283Y794909D01*
X1522795Y794710D01*
Y794731D01*
X1527931D01*
X1528111Y794418D01*
X1528670Y793859D01*
X1529140Y793588D01*
Y793026D01*
X1528670Y792755D01*
X1528111Y792196D01*
X1527716Y791512D01*
X1527512Y790749D01*
Y789959D01*
X1527716Y789196D01*
X1528111Y788512D01*
X1528670Y787954D01*
X1528982Y787773D01*
Y783093D01*
X1528670Y782912D01*
X1528111Y782354D01*
X1527716Y781670D01*
X1527512Y780907D01*
Y780117D01*
X1527716Y779354D01*
X1528111Y778670D01*
X1528670Y778111D01*
X1529354Y777716D01*
X1530117Y777512D01*
X1530907D01*
X1531670Y777716D01*
X1532354Y778111D01*
X1532912Y778670D01*
X1533307Y779354D01*
X1533512Y780117D01*
Y780907D01*
X1533307Y781670D01*
X1532912Y782354D01*
X1532354Y782912D01*
X1532041Y783093D01*
Y787773D01*
X1532354Y787954D01*
X1532912Y788512D01*
X1533307Y789196D01*
X1533512Y789959D01*
Y790749D01*
X1533307Y791512D01*
X1532912Y792196D01*
X1532354Y792755D01*
X1531884Y793026D01*
Y793588D01*
X1532354Y793859D01*
X1532912Y794418D01*
X1533307Y795102D01*
X1533512Y795865D01*
Y796655D01*
X1533307Y797418D01*
X1532912Y798102D01*
X1532354Y798660D01*
X1531670Y799055D01*
X1530907Y799260D01*
X1530117D01*
X1529354Y799055D01*
X1528670Y798660D01*
X1528111Y798102D01*
X1527931Y797789D01*
X1522795D01*
X1522786Y797787D01*
X1522080Y797880D01*
X1521413Y798157D01*
X1520840Y798596D01*
X1520401Y799169D01*
X1520125Y799835D01*
X1520032Y800542D01*
X1520033Y800551D01*
Y832677D01*
X1551875D01*
X1552206Y832177D01*
X1551988Y831080D01*
Y829723D01*
X1552253Y828392D01*
X1552772Y827138D01*
X1553526Y826010D01*
X1554486Y825050D01*
X1555614Y824296D01*
X1556868Y823777D01*
X1558199Y823512D01*
X1559556D01*
X1560888Y823777D01*
X1562142Y824296D01*
X1563270Y825050D01*
X1564230Y826010D01*
X1564984Y827138D01*
X1565503Y828392D01*
X1565768Y829723D01*
Y831080D01*
X1565549Y832177D01*
X1565881Y832677D01*
X1580953D01*
X1581242Y832177D01*
X1581063Y831867D01*
X1580858Y831104D01*
Y830314D01*
X1581063Y829551D01*
X1581458Y828867D01*
X1582016Y828308D01*
X1582329Y828127D01*
Y758093D01*
X1582016Y757912D01*
X1581458Y757354D01*
X1581063Y756670D01*
X1580858Y755907D01*
Y755117D01*
X1581063Y754354D01*
X1581458Y753670D01*
X1582016Y753111D01*
X1582329Y752931D01*
Y682896D01*
X1582016Y682716D01*
X1581458Y682157D01*
X1581063Y681473D01*
X1580858Y680710D01*
Y679920D01*
X1581063Y679157D01*
X1581458Y678473D01*
X1582016Y677914D01*
X1582329Y677734D01*
Y608093D01*
X1582016Y607912D01*
X1581458Y607354D01*
X1581063Y606670D01*
X1580858Y605907D01*
Y605117D01*
X1581063Y604354D01*
X1581458Y603670D01*
X1582016Y603111D01*
X1582329Y602931D01*
Y532502D01*
X1582016Y532322D01*
X1581458Y531763D01*
X1581063Y531079D01*
X1580858Y530316D01*
Y529526D01*
X1581063Y528763D01*
X1581458Y528079D01*
X1582016Y527521D01*
X1582700Y527126D01*
X1583463Y526921D01*
X1584253D01*
X1585016Y527126D01*
X1585700Y527521D01*
X1586259Y528079D01*
X1586654Y528763D01*
X1586858Y529526D01*
Y530316D01*
X1586654Y531079D01*
X1586259Y531763D01*
X1585700Y532322D01*
X1585388Y532502D01*
Y602931D01*
X1585700Y603111D01*
X1586259Y603670D01*
X1586654Y604354D01*
X1586858Y605117D01*
Y605907D01*
X1586654Y606670D01*
X1586259Y607354D01*
X1585700Y607912D01*
X1585388Y608093D01*
Y677734D01*
X1585700Y677914D01*
X1586259Y678473D01*
X1586654Y679157D01*
X1586858Y679920D01*
Y680710D01*
X1586654Y681473D01*
X1586259Y682157D01*
X1585700Y682716D01*
X1585388Y682896D01*
Y752931D01*
X1585700Y753111D01*
X1586259Y753670D01*
X1586654Y754354D01*
X1586858Y755117D01*
Y755907D01*
X1586654Y756670D01*
X1586259Y757354D01*
X1585700Y757912D01*
X1585388Y758093D01*
Y828127D01*
X1585700Y828308D01*
X1586259Y828867D01*
X1586654Y829551D01*
X1586858Y830314D01*
Y831104D01*
X1586654Y831867D01*
X1586475Y832177D01*
X1586763Y832677D01*
X1626875D01*
X1627206Y832177D01*
X1626988Y831080D01*
Y829723D01*
X1627253Y828392D01*
X1627772Y827138D01*
X1628526Y826010D01*
X1629486Y825050D01*
X1630614Y824296D01*
X1631868Y823777D01*
X1633199Y823512D01*
X1634557D01*
X1635888Y823777D01*
X1637141Y824296D01*
X1638270Y825050D01*
X1639230Y826010D01*
X1639984Y827138D01*
X1640503Y828392D01*
X1640768Y829723D01*
Y831080D01*
X1640549Y832177D01*
X1640881Y832677D01*
X1656150D01*
X1656439Y832177D01*
X1656260Y831867D01*
X1656055Y831104D01*
Y830314D01*
X1656260Y829551D01*
X1656655Y828867D01*
X1657213Y828308D01*
X1657526Y828127D01*
Y758487D01*
X1657213Y758306D01*
X1656655Y757748D01*
X1656260Y757063D01*
X1656055Y756300D01*
Y755511D01*
X1656260Y754747D01*
X1656655Y754064D01*
X1657213Y753505D01*
X1657526Y753324D01*
Y684077D01*
X1657213Y683897D01*
X1656655Y683338D01*
X1656260Y682654D01*
X1656055Y681891D01*
Y681101D01*
X1656260Y680338D01*
X1656655Y679654D01*
X1657213Y679096D01*
X1657526Y678915D01*
Y608487D01*
X1657213Y608306D01*
X1656655Y607748D01*
X1656260Y607063D01*
X1656055Y606300D01*
Y605511D01*
X1656260Y604747D01*
X1656655Y604064D01*
X1657213Y603505D01*
X1657526Y603324D01*
Y531715D01*
X1657213Y531534D01*
X1656655Y530976D01*
X1656260Y530292D01*
X1656055Y529529D01*
Y528739D01*
X1656260Y527976D01*
X1656655Y527292D01*
X1657213Y526733D01*
X1657897Y526338D01*
X1658660Y526134D01*
X1659450D01*
X1660213Y526338D01*
X1660897Y526733D01*
X1661456Y527292D01*
X1661851Y527976D01*
X1662055Y528739D01*
Y529529D01*
X1661851Y530292D01*
X1661456Y530976D01*
X1660897Y531534D01*
X1660584Y531715D01*
Y603324D01*
X1660897Y603505D01*
X1661456Y604064D01*
X1661851Y604747D01*
X1662055Y605511D01*
Y606300D01*
X1661851Y607063D01*
X1661456Y607748D01*
X1660897Y608306D01*
X1660584Y608487D01*
Y678915D01*
X1660897Y679096D01*
X1661456Y679654D01*
X1661851Y680338D01*
X1662055Y681101D01*
Y681891D01*
X1661851Y682654D01*
X1661456Y683338D01*
X1660897Y683897D01*
X1660584Y684077D01*
Y753324D01*
X1660897Y753505D01*
X1661456Y754064D01*
X1661851Y754747D01*
X1662055Y755511D01*
Y756300D01*
X1661851Y757063D01*
X1661456Y757748D01*
X1660897Y758306D01*
X1660584Y758487D01*
Y828127D01*
X1660897Y828308D01*
X1661456Y828867D01*
X1661851Y829551D01*
X1662055Y830314D01*
Y831104D01*
X1661851Y831867D01*
X1661671Y832177D01*
X1661960Y832677D01*
X1701875D01*
X1702206Y832177D01*
X1701988Y831080D01*
Y829723D01*
X1702253Y828392D01*
X1702772Y827138D01*
X1703526Y826010D01*
X1704486Y825050D01*
X1705614Y824296D01*
X1706868Y823777D01*
X1708199Y823512D01*
X1709557D01*
X1710888Y823777D01*
X1712141Y824296D01*
X1713270Y825050D01*
X1714230Y826010D01*
X1714984Y827138D01*
X1715503Y828392D01*
X1715768Y829723D01*
Y831080D01*
X1715549Y832177D01*
X1715881Y832677D01*
X1732061D01*
X1732265Y832177D01*
X1731851Y831763D01*
X1731456Y831079D01*
X1731252Y830316D01*
Y829526D01*
X1731456Y828763D01*
X1731851Y828079D01*
X1732410Y827521D01*
X1732723Y827340D01*
Y758487D01*
X1732410Y758306D01*
X1731851Y757748D01*
X1731456Y757063D01*
X1731252Y756300D01*
Y755511D01*
X1731456Y754747D01*
X1731851Y754064D01*
X1732410Y753505D01*
X1732723Y753324D01*
Y683290D01*
X1732410Y683109D01*
X1731851Y682551D01*
X1731456Y681867D01*
X1731252Y681104D01*
Y680314D01*
X1731456Y679551D01*
X1731851Y678867D01*
X1732410Y678308D01*
X1732723Y678127D01*
Y608487D01*
X1732410Y608306D01*
X1731851Y607748D01*
X1731456Y607063D01*
X1731252Y606300D01*
Y605511D01*
X1731456Y604747D01*
X1731851Y604064D01*
X1732410Y603505D01*
X1732723Y603324D01*
Y530928D01*
X1732410Y530747D01*
X1731851Y530189D01*
X1731456Y529504D01*
X1731252Y528741D01*
Y527951D01*
X1731456Y527188D01*
X1731851Y526504D01*
X1732410Y525946D01*
X1733094Y525551D01*
X1733857Y525347D01*
X1734647D01*
X1735410Y525551D01*
X1736094Y525946D01*
X1736653Y526504D01*
X1737048Y527188D01*
X1737252Y527951D01*
Y528741D01*
X1737048Y529504D01*
X1736653Y530189D01*
X1736094Y530747D01*
X1735781Y530928D01*
Y603324D01*
X1736094Y603505D01*
X1736653Y604064D01*
X1737048Y604747D01*
X1737252Y605511D01*
Y606300D01*
X1737048Y607063D01*
X1736653Y607748D01*
X1736094Y608306D01*
X1735781Y608487D01*
Y678127D01*
X1736094Y678308D01*
X1736653Y678867D01*
X1737048Y679551D01*
X1737252Y680314D01*
Y681104D01*
X1737048Y681867D01*
X1736653Y682551D01*
X1736094Y683109D01*
X1735781Y683290D01*
Y753324D01*
X1736094Y753505D01*
X1736653Y754064D01*
X1737048Y754747D01*
X1737252Y755511D01*
Y756300D01*
X1737048Y757063D01*
X1736653Y757748D01*
X1736094Y758306D01*
X1735781Y758487D01*
Y827340D01*
X1736094Y827521D01*
X1736653Y828079D01*
X1737048Y828763D01*
X1737252Y829526D01*
Y830316D01*
X1737048Y831079D01*
X1736653Y831763D01*
X1736239Y832177D01*
X1736443Y832677D01*
X1776875D01*
X1777206Y832177D01*
X1776988Y831080D01*
Y829723D01*
X1777253Y828392D01*
X1777772Y827138D01*
X1778526Y826010D01*
X1779486Y825050D01*
X1780614Y824296D01*
X1781868Y823777D01*
X1783199Y823512D01*
X1784557D01*
X1785888Y823777D01*
X1787141Y824296D01*
X1788270Y825050D01*
X1789230Y826010D01*
X1789984Y827138D01*
X1790503Y828392D01*
X1790768Y829723D01*
Y831080D01*
X1790549Y832177D01*
X1790881Y832677D01*
X1806142D01*
X1806525Y832177D01*
X1806449Y831891D01*
Y831101D01*
X1806653Y830338D01*
X1807048Y829654D01*
X1807607Y829095D01*
X1807919Y828915D01*
Y757397D01*
X1807607Y757216D01*
X1807048Y756658D01*
X1806653Y755974D01*
X1806449Y755211D01*
Y754421D01*
X1806653Y753658D01*
X1807048Y752974D01*
X1807607Y752415D01*
X1808291Y752020D01*
X1809054Y751816D01*
X1809844D01*
X1810469Y751983D01*
X1810746Y751567D01*
X1809516Y750337D01*
X1808549Y748889D01*
X1807883Y747282D01*
X1807543Y745575D01*
Y743835D01*
X1807883Y742128D01*
X1808549Y740520D01*
X1809516Y739073D01*
X1810746Y737842D01*
X1812193Y736876D01*
X1813801Y736210D01*
X1815508Y735870D01*
X1817248D01*
X1818955Y736210D01*
X1820563Y736876D01*
X1822010Y737842D01*
X1823240Y739073D01*
X1824207Y740520D01*
X1824873Y742128D01*
X1825213Y743835D01*
Y745575D01*
X1824873Y747282D01*
X1824207Y748889D01*
X1823240Y750337D01*
X1822010Y751567D01*
X1820563Y752534D01*
X1818955Y753200D01*
X1817248Y753539D01*
X1815508D01*
X1813801Y753200D01*
X1812193Y752534D01*
X1811963Y752380D01*
X1811644Y752769D01*
X1811849Y752974D01*
X1812244Y753658D01*
X1812449Y754421D01*
Y755211D01*
X1812244Y755974D01*
X1811849Y756658D01*
X1811291Y757216D01*
X1810978Y757397D01*
Y828915D01*
X1811291Y829095D01*
X1811849Y829654D01*
X1812244Y830338D01*
X1812449Y831101D01*
Y831891D01*
X1812372Y832177D01*
X1812756Y832677D01*
X1851847D01*
X1852179Y832177D01*
X1851961Y831080D01*
Y829723D01*
X1852225Y828392D01*
X1852745Y827138D01*
X1853499Y826010D01*
X1854458Y825050D01*
X1855587Y824296D01*
X1856841Y823777D01*
X1858172Y823512D01*
X1859529D01*
X1860860Y823777D01*
X1862114Y824296D01*
X1863242Y825050D01*
X1864202Y826010D01*
X1864956Y827138D01*
X1865475Y828392D01*
X1865740Y829723D01*
Y831080D01*
X1865522Y832177D01*
X1865853Y832677D01*
X1927211D01*
Y740551D01*
X1927196D01*
X1927374Y738289D01*
X1927903Y736083D01*
X1928771Y733987D01*
X1929957Y732053D01*
X1931430Y730328D01*
X1933155Y728854D01*
X1935090Y727669D01*
X1937186Y726801D01*
X1939392Y726271D01*
X1941653Y726093D01*
Y726108D01*
X1955668D01*
X1955692Y726017D01*
X1956245Y725059D01*
X1957027Y724277D01*
X1957985Y723724D01*
X1959053Y723438D01*
X1960159D01*
X1961227Y723724D01*
X1962185Y724277D01*
X1962967Y725059D01*
X1963520Y726017D01*
X1963806Y727085D01*
Y728191D01*
X1963520Y729259D01*
X1962967Y730217D01*
X1962185Y730999D01*
X1961227Y731552D01*
X1960159Y731838D01*
X1959053D01*
X1957985Y731552D01*
X1957027Y730999D01*
X1956245Y730217D01*
X1955692Y729259D01*
X1955668Y729167D01*
X1941653D01*
X1941601Y729157D01*
X1939870Y729293D01*
X1938131Y729710D01*
X1936479Y730395D01*
X1934954Y731330D01*
X1933594Y732491D01*
X1932432Y733851D01*
X1931497Y735376D01*
X1930813Y737029D01*
X1930395Y738768D01*
X1930259Y740499D01*
X1930270Y740551D01*
Y747204D01*
X1930770Y747263D01*
X1931053Y746083D01*
X1931921Y743987D01*
X1933106Y742053D01*
X1934580Y740328D01*
X1936305Y738854D01*
X1938239Y737669D01*
X1940335Y736801D01*
X1942541Y736271D01*
X1944803Y736093D01*
Y736108D01*
X1955668D01*
X1955692Y736017D01*
X1956245Y735059D01*
X1957027Y734277D01*
X1957985Y733724D01*
X1959053Y733438D01*
X1960159D01*
X1961227Y733724D01*
X1962185Y734277D01*
X1962967Y735059D01*
X1963520Y736017D01*
X1963806Y737085D01*
Y738191D01*
X1963520Y739259D01*
X1962967Y740217D01*
X1962185Y740999D01*
X1961227Y741552D01*
X1960159Y741838D01*
X1959053D01*
X1957985Y741552D01*
X1957027Y740999D01*
X1956245Y740217D01*
X1955692Y739259D01*
X1955668Y739167D01*
X1944803D01*
X1944751Y739157D01*
X1943020Y739293D01*
X1941281Y739711D01*
X1939628Y740395D01*
X1938103Y741330D01*
X1936743Y742491D01*
X1935582Y743851D01*
X1934647Y745376D01*
X1933962Y747029D01*
X1933545Y748768D01*
X1933409Y750499D01*
X1933419Y750551D01*
Y754140D01*
X1933919Y754240D01*
X1934468Y752915D01*
X1935491Y751245D01*
X1936764Y749756D01*
X1938253Y748483D01*
X1939923Y747460D01*
X1941733Y746710D01*
X1943638Y746253D01*
X1945591Y746099D01*
Y746108D01*
X1955668D01*
X1955692Y746017D01*
X1956245Y745059D01*
X1957027Y744277D01*
X1957985Y743724D01*
X1959053Y743438D01*
X1960159D01*
X1961227Y743724D01*
X1962185Y744277D01*
X1962967Y745059D01*
X1963520Y746017D01*
X1963806Y747085D01*
Y748191D01*
X1963520Y749259D01*
X1962967Y750217D01*
X1962185Y750999D01*
X1961227Y751552D01*
X1960159Y751838D01*
X1959053D01*
X1957985Y751552D01*
X1957027Y750999D01*
X1956245Y750217D01*
X1955692Y749259D01*
X1955668Y749167D01*
X1945591D01*
X1945507Y749151D01*
X1943749Y749324D01*
X1941978Y749861D01*
X1940346Y750733D01*
X1938915Y751907D01*
X1937741Y753338D01*
X1936869Y754970D01*
X1936332Y756741D01*
X1936158Y758499D01*
X1936175Y758583D01*
Y764140D01*
X1936675Y764240D01*
X1937224Y762915D01*
X1938247Y761245D01*
X1939519Y759756D01*
X1941009Y758483D01*
X1942679Y757460D01*
X1944489Y756710D01*
X1946394Y756253D01*
X1948346Y756099D01*
Y756108D01*
X1955668D01*
X1955692Y756017D01*
X1956245Y755059D01*
X1957027Y754277D01*
X1957985Y753724D01*
X1959053Y753438D01*
X1960159D01*
X1961227Y753724D01*
X1962185Y754277D01*
X1962967Y755059D01*
X1963520Y756017D01*
X1963806Y757085D01*
Y758191D01*
X1963520Y759259D01*
X1962967Y760217D01*
X1962185Y760999D01*
X1961227Y761552D01*
X1960159Y761838D01*
X1959053D01*
X1957985Y761552D01*
X1957027Y760999D01*
X1956245Y760217D01*
X1955692Y759259D01*
X1955668Y759167D01*
X1948346D01*
X1948263Y759151D01*
X1946505Y759324D01*
X1944734Y759861D01*
X1943102Y760733D01*
X1941671Y761907D01*
X1940497Y763338D01*
X1939625Y764970D01*
X1939087Y766741D01*
X1938914Y768499D01*
X1938931Y768583D01*
Y771014D01*
X1939431Y771139D01*
X1940073Y769938D01*
X1941148Y768628D01*
X1942458Y767553D01*
X1943953Y766754D01*
X1945574Y766262D01*
X1947261Y766096D01*
Y766108D01*
X1955668D01*
X1955692Y766017D01*
X1956245Y765059D01*
X1957027Y764277D01*
X1957985Y763724D01*
X1959053Y763438D01*
X1960159D01*
X1961227Y763724D01*
X1962185Y764277D01*
X1962967Y765059D01*
X1963520Y766017D01*
X1963806Y767085D01*
Y768191D01*
X1963520Y769259D01*
X1962967Y770217D01*
X1962185Y770999D01*
X1961227Y771552D01*
X1960159Y771838D01*
X1959053D01*
X1957985Y771552D01*
X1957027Y770999D01*
X1956245Y770217D01*
X1955692Y769259D01*
X1955668Y769167D01*
X1947261D01*
X1947178Y769151D01*
X1945811Y769331D01*
X1944460Y769890D01*
X1943300Y770780D01*
X1942410Y771940D01*
X1941850Y773291D01*
X1941670Y774658D01*
X1941687Y774741D01*
Y832677D01*
X1964567D01*
Y719488D01*
D02*
G37*
%LPC*%
G36*
X1960159Y831838D02*
X1959053D01*
X1957985Y831552D01*
X1957027Y830999D01*
X1956245Y830217D01*
X1955692Y829259D01*
X1955406Y828191D01*
Y827085D01*
X1955692Y826017D01*
X1956245Y825059D01*
X1957027Y824277D01*
X1957985Y823724D01*
X1959053Y823438D01*
X1960159D01*
X1961227Y823724D01*
X1962185Y824277D01*
X1962967Y825059D01*
X1963520Y826017D01*
X1963806Y827085D01*
Y828191D01*
X1963520Y829259D01*
X1962967Y830217D01*
X1962185Y830999D01*
X1961227Y831552D01*
X1960159Y831838D01*
D02*
G37*
G36*
X1900159D02*
X1899053D01*
X1897985Y831552D01*
X1897027Y830999D01*
X1896246Y830217D01*
X1895692Y829259D01*
X1895406Y828191D01*
Y827085D01*
X1895692Y826017D01*
X1896246Y825059D01*
X1897027Y824277D01*
X1897985Y823724D01*
X1899053Y823438D01*
X1900159D01*
X1901227Y823724D01*
X1902185Y824277D01*
X1902967Y825059D01*
X1903520Y826017D01*
X1903806Y827085D01*
Y828191D01*
X1903520Y829259D01*
X1902967Y830217D01*
X1902185Y830999D01*
X1901227Y831552D01*
X1900159Y831838D01*
D02*
G37*
G36*
X1834529Y827291D02*
X1833172D01*
X1831841Y827027D01*
X1830587Y826507D01*
X1829458Y825753D01*
X1828499Y824794D01*
X1827745Y823665D01*
X1827225Y822411D01*
X1826961Y821080D01*
Y819723D01*
X1827225Y818392D01*
X1827745Y817138D01*
X1828499Y816010D01*
X1829272Y815236D01*
X1829065Y814736D01*
X1828280D01*
X1827177Y814440D01*
X1826189Y813870D01*
X1825382Y813063D01*
X1824812Y812074D01*
X1824516Y810972D01*
Y809831D01*
X1824812Y808729D01*
X1825382Y807740D01*
X1826189Y806933D01*
X1827177Y806363D01*
X1828280Y806067D01*
X1829421D01*
X1830523Y806363D01*
X1831512Y806933D01*
X1832319Y807740D01*
X1832889Y808729D01*
X1833185Y809831D01*
Y810972D01*
X1832889Y812074D01*
X1832319Y813063D01*
X1832183Y813199D01*
X1832429Y813660D01*
X1833172Y813512D01*
X1834529D01*
X1835860Y813777D01*
X1837114Y814296D01*
X1838242Y815050D01*
X1839202Y816010D01*
X1839956Y817138D01*
X1840475Y818392D01*
X1840740Y819723D01*
Y821080D01*
X1840475Y822411D01*
X1839956Y823665D01*
X1839202Y824794D01*
X1838242Y825753D01*
X1837114Y826507D01*
X1835860Y827027D01*
X1834529Y827291D01*
D02*
G37*
G36*
X1759557D02*
X1758199D01*
X1756868Y827027D01*
X1755614Y826507D01*
X1754486Y825753D01*
X1753526Y824794D01*
X1752772Y823665D01*
X1752253Y822411D01*
X1751988Y821080D01*
Y819723D01*
X1752253Y818392D01*
X1752772Y817138D01*
X1753526Y816010D01*
X1754300Y815236D01*
X1754093Y814736D01*
X1753307D01*
X1752205Y814440D01*
X1751217Y813870D01*
X1750410Y813063D01*
X1749839Y812074D01*
X1749544Y810972D01*
Y809831D01*
X1749839Y808729D01*
X1750410Y807740D01*
X1751217Y806933D01*
X1752205Y806363D01*
X1753307Y806067D01*
X1754449D01*
X1755551Y806363D01*
X1756539Y806933D01*
X1757346Y807740D01*
X1757917Y808729D01*
X1758212Y809831D01*
Y810972D01*
X1757917Y812074D01*
X1757346Y813063D01*
X1757210Y813199D01*
X1757457Y813660D01*
X1758199Y813512D01*
X1759557D01*
X1760888Y813777D01*
X1762141Y814296D01*
X1763270Y815050D01*
X1764230Y816010D01*
X1764984Y817138D01*
X1765503Y818392D01*
X1765768Y819723D01*
Y821080D01*
X1765503Y822411D01*
X1764984Y823665D01*
X1764230Y824794D01*
X1763270Y825753D01*
X1762141Y826507D01*
X1760888Y827027D01*
X1759557Y827291D01*
D02*
G37*
G36*
X1684557D02*
X1683199D01*
X1681868Y827027D01*
X1680614Y826507D01*
X1679486Y825753D01*
X1678526Y824794D01*
X1677772Y823665D01*
X1677253Y822411D01*
X1676988Y821080D01*
Y819723D01*
X1677253Y818392D01*
X1677772Y817138D01*
X1678526Y816010D01*
X1679300Y815236D01*
X1679093Y814736D01*
X1678307D01*
X1677205Y814440D01*
X1676217Y813870D01*
X1675410Y813063D01*
X1674839Y812074D01*
X1674544Y810972D01*
Y809831D01*
X1674839Y808729D01*
X1675410Y807740D01*
X1676217Y806933D01*
X1677205Y806363D01*
X1678307Y806067D01*
X1679449D01*
X1680551Y806363D01*
X1681539Y806933D01*
X1682346Y807740D01*
X1682917Y808729D01*
X1683212Y809831D01*
Y810972D01*
X1682917Y812074D01*
X1682346Y813063D01*
X1682210Y813199D01*
X1682457Y813660D01*
X1683199Y813512D01*
X1684557D01*
X1685888Y813777D01*
X1687141Y814296D01*
X1688270Y815050D01*
X1689230Y816010D01*
X1689984Y817138D01*
X1690503Y818392D01*
X1690768Y819723D01*
Y821080D01*
X1690503Y822411D01*
X1689984Y823665D01*
X1689230Y824794D01*
X1688270Y825753D01*
X1687141Y826507D01*
X1685888Y827027D01*
X1684557Y827291D01*
D02*
G37*
G36*
X1609557D02*
X1608199D01*
X1606868Y827027D01*
X1605614Y826507D01*
X1604486Y825753D01*
X1603526Y824794D01*
X1602772Y823665D01*
X1602253Y822411D01*
X1601988Y821080D01*
Y819723D01*
X1602253Y818392D01*
X1602772Y817138D01*
X1603526Y816010D01*
X1604300Y815236D01*
X1604093Y814736D01*
X1603307D01*
X1602205Y814440D01*
X1601217Y813870D01*
X1600410Y813063D01*
X1599839Y812074D01*
X1599544Y810972D01*
Y809831D01*
X1599839Y808729D01*
X1600410Y807740D01*
X1601217Y806933D01*
X1602205Y806363D01*
X1603307Y806067D01*
X1604449D01*
X1605551Y806363D01*
X1606539Y806933D01*
X1607346Y807740D01*
X1607917Y808729D01*
X1608212Y809831D01*
Y810972D01*
X1607917Y812074D01*
X1607346Y813063D01*
X1607210Y813199D01*
X1607457Y813660D01*
X1608199Y813512D01*
X1609557D01*
X1610888Y813777D01*
X1612141Y814296D01*
X1613270Y815050D01*
X1614230Y816010D01*
X1614984Y817138D01*
X1615503Y818392D01*
X1615768Y819723D01*
Y821080D01*
X1615503Y822411D01*
X1614984Y823665D01*
X1614230Y824794D01*
X1613270Y825753D01*
X1612141Y826507D01*
X1610888Y827027D01*
X1609557Y827291D01*
D02*
G37*
G36*
X1534556D02*
X1533199D01*
X1531868Y827027D01*
X1530614Y826507D01*
X1529486Y825753D01*
X1528526Y824794D01*
X1527772Y823665D01*
X1527253Y822411D01*
X1526988Y821080D01*
Y819723D01*
X1527253Y818392D01*
X1527772Y817138D01*
X1528526Y816010D01*
X1529300Y815236D01*
X1529093Y814736D01*
X1528307D01*
X1527205Y814440D01*
X1526217Y813870D01*
X1525410Y813063D01*
X1524839Y812074D01*
X1524544Y810972D01*
Y809831D01*
X1524839Y808729D01*
X1525410Y807740D01*
X1526217Y806933D01*
X1527205Y806363D01*
X1528307Y806067D01*
X1529449D01*
X1530551Y806363D01*
X1531539Y806933D01*
X1532346Y807740D01*
X1532917Y808729D01*
X1533212Y809831D01*
Y810972D01*
X1532917Y812074D01*
X1532346Y813063D01*
X1532210Y813199D01*
X1532457Y813660D01*
X1533199Y813512D01*
X1534556D01*
X1535888Y813777D01*
X1537142Y814296D01*
X1538270Y815050D01*
X1539230Y816010D01*
X1539984Y817138D01*
X1540503Y818392D01*
X1540768Y819723D01*
Y821080D01*
X1540503Y822411D01*
X1539984Y823665D01*
X1539230Y824794D01*
X1538270Y825753D01*
X1537142Y826507D01*
X1535888Y827027D01*
X1534556Y827291D01*
D02*
G37*
G36*
X1960159Y821838D02*
X1959053D01*
X1957985Y821552D01*
X1957027Y820999D01*
X1956245Y820217D01*
X1955692Y819259D01*
X1955406Y818191D01*
Y817085D01*
X1955692Y816017D01*
X1956245Y815059D01*
X1957027Y814277D01*
X1957985Y813724D01*
X1959053Y813438D01*
X1960159D01*
X1961227Y813724D01*
X1962185Y814277D01*
X1962967Y815059D01*
X1963520Y816017D01*
X1963806Y817085D01*
Y818191D01*
X1963520Y819259D01*
X1962967Y820217D01*
X1962185Y820999D01*
X1961227Y821552D01*
X1960159Y821838D01*
D02*
G37*
G36*
X1900159D02*
X1899053D01*
X1897985Y821552D01*
X1897027Y820999D01*
X1896246Y820217D01*
X1895692Y819259D01*
X1895406Y818191D01*
Y817085D01*
X1895692Y816017D01*
X1896246Y815059D01*
X1897027Y814277D01*
X1897985Y813724D01*
X1899053Y813438D01*
X1900159D01*
X1901227Y813724D01*
X1902185Y814277D01*
X1902967Y815059D01*
X1903520Y816017D01*
X1903806Y817085D01*
Y818191D01*
X1903520Y819259D01*
X1902967Y820217D01*
X1902185Y820999D01*
X1901227Y821552D01*
X1900159Y821838D01*
D02*
G37*
G36*
X1960159Y811838D02*
X1959856D01*
Y807888D01*
X1963806D01*
Y808191D01*
X1963520Y809259D01*
X1962967Y810217D01*
X1962185Y810999D01*
X1961227Y811552D01*
X1960159Y811838D01*
D02*
G37*
G36*
X1959356D02*
X1959053D01*
X1957985Y811552D01*
X1957027Y810999D01*
X1956245Y810217D01*
X1955692Y809259D01*
X1955406Y808191D01*
Y807888D01*
X1959356D01*
Y811838D01*
D02*
G37*
G36*
X1869421Y814736D02*
X1868280D01*
X1867177Y814440D01*
X1866189Y813870D01*
X1865382Y813063D01*
X1864812Y812074D01*
X1864516Y810972D01*
Y809831D01*
X1864812Y808729D01*
X1865382Y807740D01*
X1866189Y806933D01*
X1867177Y806363D01*
X1868280Y806067D01*
X1869421D01*
X1870523Y806363D01*
X1871512Y806933D01*
X1872319Y807740D01*
X1872889Y808729D01*
X1873185Y809831D01*
Y810972D01*
X1872889Y812074D01*
X1872319Y813063D01*
X1871512Y813870D01*
X1870523Y814440D01*
X1869421Y814736D01*
D02*
G37*
G36*
X1794449D02*
X1793307D01*
X1792205Y814440D01*
X1791217Y813870D01*
X1790410Y813063D01*
X1789839Y812074D01*
X1789544Y810972D01*
Y809831D01*
X1789839Y808729D01*
X1790410Y807740D01*
X1791217Y806933D01*
X1792205Y806363D01*
X1793307Y806067D01*
X1794449D01*
X1795551Y806363D01*
X1796539Y806933D01*
X1797346Y807740D01*
X1797917Y808729D01*
X1798212Y809831D01*
Y810972D01*
X1797917Y812074D01*
X1797346Y813063D01*
X1796539Y813870D01*
X1795551Y814440D01*
X1794449Y814736D01*
D02*
G37*
G36*
X1719449D02*
X1718307D01*
X1717205Y814440D01*
X1716217Y813870D01*
X1715410Y813063D01*
X1714839Y812074D01*
X1714544Y810972D01*
Y809831D01*
X1714839Y808729D01*
X1715410Y807740D01*
X1716217Y806933D01*
X1717205Y806363D01*
X1718307Y806067D01*
X1719449D01*
X1720551Y806363D01*
X1721539Y806933D01*
X1722346Y807740D01*
X1722917Y808729D01*
X1723212Y809831D01*
Y810972D01*
X1722917Y812074D01*
X1722346Y813063D01*
X1721539Y813870D01*
X1720551Y814440D01*
X1719449Y814736D01*
D02*
G37*
G36*
X1644449D02*
X1643307D01*
X1642205Y814440D01*
X1641217Y813870D01*
X1640410Y813063D01*
X1639839Y812074D01*
X1639544Y810972D01*
Y809831D01*
X1639839Y808729D01*
X1640410Y807740D01*
X1641217Y806933D01*
X1642205Y806363D01*
X1643307Y806067D01*
X1644449D01*
X1645551Y806363D01*
X1646539Y806933D01*
X1647346Y807740D01*
X1647917Y808729D01*
X1648212Y809831D01*
Y810972D01*
X1647917Y812074D01*
X1647346Y813063D01*
X1646539Y813870D01*
X1645551Y814440D01*
X1644449Y814736D01*
D02*
G37*
G36*
X1569449D02*
X1568307D01*
X1567205Y814440D01*
X1566217Y813870D01*
X1565410Y813063D01*
X1564839Y812074D01*
X1564544Y810972D01*
Y809831D01*
X1564839Y808729D01*
X1565410Y807740D01*
X1566217Y806933D01*
X1567205Y806363D01*
X1568307Y806067D01*
X1569449D01*
X1570551Y806363D01*
X1571539Y806933D01*
X1572346Y807740D01*
X1572917Y808729D01*
X1573212Y809831D01*
Y810972D01*
X1572917Y812074D01*
X1572346Y813063D01*
X1571539Y813870D01*
X1570551Y814440D01*
X1569449Y814736D01*
D02*
G37*
G36*
X1963806Y807388D02*
X1959856D01*
Y803438D01*
X1960159D01*
X1961227Y803724D01*
X1962185Y804277D01*
X1962967Y805059D01*
X1963520Y806017D01*
X1963806Y807085D01*
Y807388D01*
D02*
G37*
G36*
X1959356D02*
X1955406D01*
Y807085D01*
X1955692Y806017D01*
X1956245Y805059D01*
X1957027Y804277D01*
X1957985Y803724D01*
X1959053Y803438D01*
X1959356D01*
Y807388D01*
D02*
G37*
G36*
X1900159Y811838D02*
X1899053D01*
X1897985Y811552D01*
X1897027Y810999D01*
X1896246Y810217D01*
X1895692Y809259D01*
X1895406Y808191D01*
Y807085D01*
X1895692Y806017D01*
X1896246Y805059D01*
X1897027Y804277D01*
X1897985Y803724D01*
X1899053Y803438D01*
X1900159D01*
X1901227Y803724D01*
X1902185Y804277D01*
X1902967Y805059D01*
X1903520Y806017D01*
X1903806Y807085D01*
Y808191D01*
X1903520Y809259D01*
X1902967Y810217D01*
X1902185Y810999D01*
X1901227Y811552D01*
X1900159Y811838D01*
D02*
G37*
G36*
X1849721Y819236D02*
X1847980D01*
X1846273Y818896D01*
X1844666Y818230D01*
X1843219Y817264D01*
X1841988Y816033D01*
X1841022Y814586D01*
X1840356Y812978D01*
X1840016Y811272D01*
Y809531D01*
X1840356Y807825D01*
X1841022Y806217D01*
X1841988Y804770D01*
X1843219Y803540D01*
X1844666Y802573D01*
X1846273Y801907D01*
X1847980Y801567D01*
X1849721D01*
X1851427Y801907D01*
X1853035Y802573D01*
X1854482Y803540D01*
X1855712Y804770D01*
X1856679Y806217D01*
X1857345Y807825D01*
X1857685Y809531D01*
Y811272D01*
X1857345Y812978D01*
X1856679Y814586D01*
X1855712Y816033D01*
X1854482Y817264D01*
X1853035Y818230D01*
X1851427Y818896D01*
X1849721Y819236D01*
D02*
G37*
G36*
X1774748D02*
X1773008D01*
X1771301Y818896D01*
X1769693Y818230D01*
X1768246Y817264D01*
X1767016Y816033D01*
X1766049Y814586D01*
X1765383Y812978D01*
X1765044Y811272D01*
Y809531D01*
X1765383Y807825D01*
X1766049Y806217D01*
X1767016Y804770D01*
X1768246Y803540D01*
X1769693Y802573D01*
X1771301Y801907D01*
X1773008Y801567D01*
X1774748D01*
X1776455Y801907D01*
X1778062Y802573D01*
X1779510Y803540D01*
X1780740Y804770D01*
X1781707Y806217D01*
X1782373Y807825D01*
X1782712Y809531D01*
Y811272D01*
X1782373Y812978D01*
X1781707Y814586D01*
X1780740Y816033D01*
X1779510Y817264D01*
X1778062Y818230D01*
X1776455Y818896D01*
X1774748Y819236D01*
D02*
G37*
G36*
X1699748D02*
X1698008D01*
X1696301Y818896D01*
X1694693Y818230D01*
X1693246Y817264D01*
X1692016Y816033D01*
X1691049Y814586D01*
X1690383Y812978D01*
X1690044Y811272D01*
Y809531D01*
X1690383Y807825D01*
X1691049Y806217D01*
X1692016Y804770D01*
X1693246Y803540D01*
X1694693Y802573D01*
X1696301Y801907D01*
X1698008Y801567D01*
X1699748D01*
X1701455Y801907D01*
X1703062Y802573D01*
X1704510Y803540D01*
X1705740Y804770D01*
X1706707Y806217D01*
X1707373Y807825D01*
X1707712Y809531D01*
Y811272D01*
X1707373Y812978D01*
X1706707Y814586D01*
X1705740Y816033D01*
X1704510Y817264D01*
X1703062Y818230D01*
X1701455Y818896D01*
X1699748Y819236D01*
D02*
G37*
G36*
X1624748D02*
X1623008D01*
X1621301Y818896D01*
X1619693Y818230D01*
X1618246Y817264D01*
X1617016Y816033D01*
X1616049Y814586D01*
X1615383Y812978D01*
X1615044Y811272D01*
Y809531D01*
X1615383Y807825D01*
X1616049Y806217D01*
X1617016Y804770D01*
X1618246Y803540D01*
X1619693Y802573D01*
X1621301Y801907D01*
X1623008Y801567D01*
X1624748D01*
X1626455Y801907D01*
X1628062Y802573D01*
X1629510Y803540D01*
X1630740Y804770D01*
X1631707Y806217D01*
X1632373Y807825D01*
X1632712Y809531D01*
Y811272D01*
X1632373Y812978D01*
X1631707Y814586D01*
X1630740Y816033D01*
X1629510Y817264D01*
X1628062Y818230D01*
X1626455Y818896D01*
X1624748Y819236D01*
D02*
G37*
G36*
X1549748D02*
X1548008D01*
X1546301Y818896D01*
X1544693Y818230D01*
X1543246Y817264D01*
X1542016Y816033D01*
X1541049Y814586D01*
X1540383Y812978D01*
X1540044Y811272D01*
Y809531D01*
X1540383Y807825D01*
X1541049Y806217D01*
X1542016Y804770D01*
X1543246Y803540D01*
X1544693Y802573D01*
X1546301Y801907D01*
X1548008Y801567D01*
X1549748D01*
X1551455Y801907D01*
X1553063Y802573D01*
X1554510Y803540D01*
X1555740Y804770D01*
X1556707Y806217D01*
X1557373Y807825D01*
X1557712Y809531D01*
Y811272D01*
X1557373Y812978D01*
X1556707Y814586D01*
X1555740Y816033D01*
X1554510Y817264D01*
X1553063Y818230D01*
X1551455Y818896D01*
X1549748Y819236D01*
D02*
G37*
G36*
X1960159Y801838D02*
X1959053D01*
X1957985Y801552D01*
X1957027Y800999D01*
X1956245Y800217D01*
X1955692Y799259D01*
X1955406Y798191D01*
Y797085D01*
X1955692Y796017D01*
X1956245Y795059D01*
X1957027Y794277D01*
X1957985Y793724D01*
X1959053Y793438D01*
X1960159D01*
X1961227Y793724D01*
X1962185Y794277D01*
X1962967Y795059D01*
X1963520Y796017D01*
X1963806Y797085D01*
Y798191D01*
X1963520Y799259D01*
X1962967Y800217D01*
X1962185Y800999D01*
X1961227Y801552D01*
X1960159Y801838D01*
D02*
G37*
G36*
X1900159D02*
X1899053D01*
X1897985Y801552D01*
X1897027Y800999D01*
X1896246Y800217D01*
X1895692Y799259D01*
X1895406Y798191D01*
Y797085D01*
X1895692Y796017D01*
X1896246Y795059D01*
X1897027Y794277D01*
X1897985Y793724D01*
X1899053Y793438D01*
X1900159D01*
X1901227Y793724D01*
X1902185Y794277D01*
X1902967Y795059D01*
X1903520Y796017D01*
X1903806Y797085D01*
Y798191D01*
X1903520Y799259D01*
X1902967Y800217D01*
X1902185Y800999D01*
X1901227Y801552D01*
X1900159Y801838D01*
D02*
G37*
G36*
X1855177Y800278D02*
X1842579D01*
X1842195Y800201D01*
X1841869Y799984D01*
X1841652Y799658D01*
X1841575Y799274D01*
Y788250D01*
X1841652Y787866D01*
X1841869Y787541D01*
X1842195Y787323D01*
X1842579Y787247D01*
X1855177D01*
X1855561Y787323D01*
X1855887Y787541D01*
X1856104Y787866D01*
X1856181Y788250D01*
Y799274D01*
X1856104Y799658D01*
X1855887Y799984D01*
X1855561Y800201D01*
X1855177Y800278D01*
D02*
G37*
G36*
X1780177D02*
X1767579D01*
X1767195Y800201D01*
X1766869Y799984D01*
X1766652Y799658D01*
X1766575Y799274D01*
Y788250D01*
X1766652Y787866D01*
X1766869Y787541D01*
X1767195Y787323D01*
X1767579Y787247D01*
X1780177D01*
X1780561Y787323D01*
X1780887Y787541D01*
X1781104Y787866D01*
X1781181Y788250D01*
Y799274D01*
X1781104Y799658D01*
X1780887Y799984D01*
X1780561Y800201D01*
X1780177Y800278D01*
D02*
G37*
G36*
X1705177D02*
X1692579D01*
X1692195Y800201D01*
X1691869Y799984D01*
X1691652Y799658D01*
X1691575Y799274D01*
Y788250D01*
X1691652Y787866D01*
X1691869Y787541D01*
X1692195Y787323D01*
X1692579Y787247D01*
X1705177D01*
X1705561Y787323D01*
X1705887Y787541D01*
X1706104Y787866D01*
X1706181Y788250D01*
Y799274D01*
X1706104Y799658D01*
X1705887Y799984D01*
X1705561Y800201D01*
X1705177Y800278D01*
D02*
G37*
G36*
X1630177D02*
X1617579D01*
X1617195Y800201D01*
X1616869Y799984D01*
X1616652Y799658D01*
X1616575Y799274D01*
Y788250D01*
X1616652Y787866D01*
X1616869Y787541D01*
X1617195Y787323D01*
X1617579Y787247D01*
X1630177D01*
X1630561Y787323D01*
X1630887Y787541D01*
X1631104Y787866D01*
X1631181Y788250D01*
Y799274D01*
X1631104Y799658D01*
X1630887Y799984D01*
X1630561Y800201D01*
X1630177Y800278D01*
D02*
G37*
G36*
X1555177D02*
X1542579D01*
X1542195Y800201D01*
X1541869Y799984D01*
X1541652Y799658D01*
X1541575Y799274D01*
Y788250D01*
X1541652Y787866D01*
X1541869Y787541D01*
X1542195Y787323D01*
X1542579Y787247D01*
X1555177D01*
X1555561Y787323D01*
X1555887Y787541D01*
X1556104Y787866D01*
X1556181Y788250D01*
Y799274D01*
X1556104Y799658D01*
X1555887Y799984D01*
X1555561Y800201D01*
X1555177Y800278D01*
D02*
G37*
G36*
X1960159Y791838D02*
X1959053D01*
X1957985Y791552D01*
X1957027Y790999D01*
X1956245Y790217D01*
X1955692Y789259D01*
X1955406Y788191D01*
Y787085D01*
X1955692Y786017D01*
X1956245Y785059D01*
X1957027Y784277D01*
X1957985Y783724D01*
X1959053Y783438D01*
X1960159D01*
X1961227Y783724D01*
X1962185Y784277D01*
X1962967Y785059D01*
X1963520Y786017D01*
X1963806Y787085D01*
Y788191D01*
X1963520Y789259D01*
X1962967Y790217D01*
X1962185Y790999D01*
X1961227Y791552D01*
X1960159Y791838D01*
D02*
G37*
G36*
X1900159D02*
X1899053D01*
X1897985Y791552D01*
X1897027Y790999D01*
X1896246Y790217D01*
X1895692Y789259D01*
X1895406Y788191D01*
Y787085D01*
X1895692Y786017D01*
X1896246Y785059D01*
X1897027Y784277D01*
X1897985Y783724D01*
X1899053Y783438D01*
X1900159D01*
X1901227Y783724D01*
X1902185Y784277D01*
X1902967Y785059D01*
X1903520Y786017D01*
X1903806Y787085D01*
Y788191D01*
X1903520Y789259D01*
X1902967Y790217D01*
X1902185Y790999D01*
X1901227Y791552D01*
X1900159Y791838D01*
D02*
G37*
G36*
X1679529Y793354D02*
X1678739D01*
X1677976Y793150D01*
X1677292Y792755D01*
X1676733Y792196D01*
X1676338Y791512D01*
X1676134Y790749D01*
Y789959D01*
X1676338Y789196D01*
X1676733Y788512D01*
X1677292Y787954D01*
X1677604Y787773D01*
Y783093D01*
X1677292Y782912D01*
X1676733Y782354D01*
X1676338Y781670D01*
X1676134Y780907D01*
Y780117D01*
X1676338Y779354D01*
X1676733Y778670D01*
X1677292Y778111D01*
X1677976Y777716D01*
X1678739Y777512D01*
X1679529D01*
X1680292Y777716D01*
X1680976Y778111D01*
X1681535Y778670D01*
X1681929Y779354D01*
X1682134Y780117D01*
Y780907D01*
X1681929Y781670D01*
X1681535Y782354D01*
X1680976Y782912D01*
X1680663Y783093D01*
Y787773D01*
X1680976Y787954D01*
X1681535Y788512D01*
X1681929Y789196D01*
X1682134Y789959D01*
Y790749D01*
X1681929Y791512D01*
X1681535Y792196D01*
X1680976Y792755D01*
X1680292Y793150D01*
X1679529Y793354D01*
D02*
G37*
G36*
X1605710D02*
X1604920D01*
X1604157Y793150D01*
X1603473Y792755D01*
X1602914Y792196D01*
X1602519Y791512D01*
X1602315Y790749D01*
Y789959D01*
X1602519Y789196D01*
X1602914Y788512D01*
X1603473Y787954D01*
X1603786Y787773D01*
Y783093D01*
X1603473Y782912D01*
X1602914Y782354D01*
X1602519Y781670D01*
X1602315Y780907D01*
Y780117D01*
X1602519Y779354D01*
X1602914Y778670D01*
X1603473Y778111D01*
X1604157Y777716D01*
X1604920Y777512D01*
X1605710D01*
X1606473Y777716D01*
X1607157Y778111D01*
X1607716Y778670D01*
X1608110Y779354D01*
X1608315Y780117D01*
Y780907D01*
X1608110Y781670D01*
X1607716Y782354D01*
X1607157Y782912D01*
X1606844Y783093D01*
Y787773D01*
X1607157Y787954D01*
X1607716Y788512D01*
X1608110Y789196D01*
X1608315Y789959D01*
Y790749D01*
X1608110Y791512D01*
X1607716Y792196D01*
X1607157Y792755D01*
X1606473Y793150D01*
X1605710Y793354D01*
D02*
G37*
G36*
X1859647Y806150D02*
X1858857D01*
X1858094Y805945D01*
X1857410Y805550D01*
X1856851Y804992D01*
X1856456Y804308D01*
X1856252Y803545D01*
Y802755D01*
X1856456Y801992D01*
X1856851Y801308D01*
X1857410Y800749D01*
X1857723Y800568D01*
Y780823D01*
X1857728Y780797D01*
X1857617Y779672D01*
X1857281Y778565D01*
X1856736Y777545D01*
X1856002Y776651D01*
X1855108Y775917D01*
X1854630Y775662D01*
X1854201Y775919D01*
Y776559D01*
X1849461D01*
Y770244D01*
X1854201D01*
Y772219D01*
X1855261Y772541D01*
X1856811Y773369D01*
X1858170Y774484D01*
X1859284Y775843D01*
X1860113Y777392D01*
X1860623Y779074D01*
X1860795Y780823D01*
X1860781D01*
Y800568D01*
X1861094Y800749D01*
X1861653Y801308D01*
X1862048Y801992D01*
X1862252Y802755D01*
Y803545D01*
X1862048Y804308D01*
X1861653Y804992D01*
X1861094Y805550D01*
X1860410Y805945D01*
X1859647Y806150D01*
D02*
G37*
G36*
X1793882Y776559D02*
X1791762D01*
Y773652D01*
X1793882D01*
Y776559D01*
D02*
G37*
G36*
X1718797D02*
X1716677D01*
Y773652D01*
X1718797D01*
Y776559D01*
D02*
G37*
G36*
X1568906D02*
X1566785D01*
Y773652D01*
X1568906D01*
Y776559D01*
D02*
G37*
G36*
X1848295D02*
X1846175D01*
Y773652D01*
X1848295D01*
Y776559D01*
D02*
G37*
G36*
X1643905D02*
X1641785D01*
Y773652D01*
X1643905D01*
Y776559D01*
D02*
G37*
G36*
X1845675D02*
X1843555D01*
Y773652D01*
X1845675D01*
Y776559D01*
D02*
G37*
G36*
X1641285D02*
X1639165D01*
Y773652D01*
X1641285D01*
Y776559D01*
D02*
G37*
G36*
X1566285D02*
X1564165D01*
Y773652D01*
X1566285D01*
Y776559D01*
D02*
G37*
G36*
X1716177D02*
X1714057D01*
Y773652D01*
X1716177D01*
Y776559D01*
D02*
G37*
G36*
X1791262D02*
X1789142D01*
Y773652D01*
X1791262D01*
Y776559D01*
D02*
G37*
G36*
X1960159Y781838D02*
X1959053D01*
X1957985Y781552D01*
X1957027Y780999D01*
X1956245Y780217D01*
X1955692Y779259D01*
X1955406Y778191D01*
Y777085D01*
X1955692Y776017D01*
X1956245Y775059D01*
X1957027Y774277D01*
X1957985Y773724D01*
X1959053Y773438D01*
X1960159D01*
X1961227Y773724D01*
X1962185Y774277D01*
X1962967Y775059D01*
X1963520Y776017D01*
X1963806Y777085D01*
Y778191D01*
X1963520Y779259D01*
X1962967Y780217D01*
X1962185Y780999D01*
X1961227Y781552D01*
X1960159Y781838D01*
D02*
G37*
G36*
X1900159D02*
X1899053D01*
X1897985Y781552D01*
X1897027Y780999D01*
X1896246Y780217D01*
X1895692Y779259D01*
X1895406Y778191D01*
Y777085D01*
X1895692Y776017D01*
X1896246Y775059D01*
X1897027Y774277D01*
X1897985Y773724D01*
X1899053Y773438D01*
X1900159D01*
X1901227Y773724D01*
X1902185Y774277D01*
X1902967Y775059D01*
X1903520Y776017D01*
X1903806Y777085D01*
Y778191D01*
X1903520Y779259D01*
X1902967Y780217D01*
X1902185Y780999D01*
X1901227Y781552D01*
X1900159Y781838D01*
D02*
G37*
G36*
X1885560Y786811D02*
X1884125D01*
X1882718Y786531D01*
X1881392Y785982D01*
X1880200Y785185D01*
X1879185Y784170D01*
X1878388Y782978D01*
X1877839Y781652D01*
X1877559Y780245D01*
Y778810D01*
X1877839Y777403D01*
X1878388Y776078D01*
X1879185Y774885D01*
X1880200Y773870D01*
X1881392Y773073D01*
X1882718Y772524D01*
X1884125Y772244D01*
X1885560D01*
X1886967Y772524D01*
X1888293Y773073D01*
X1889486Y773870D01*
X1890500Y774885D01*
X1891297Y776078D01*
X1891846Y777403D01*
X1892126Y778810D01*
Y780245D01*
X1891846Y781652D01*
X1891297Y782978D01*
X1890500Y784170D01*
X1889486Y785185D01*
X1888293Y785982D01*
X1886967Y786531D01*
X1885560Y786811D01*
D02*
G37*
G36*
X1848295Y773152D02*
X1846175D01*
Y770244D01*
X1848295D01*
Y773152D01*
D02*
G37*
G36*
X1845675D02*
X1843555D01*
Y770244D01*
X1845675D01*
Y773152D01*
D02*
G37*
G36*
X1794860Y799709D02*
X1794070D01*
X1793307Y799505D01*
X1792623Y799110D01*
X1792064Y798552D01*
X1791669Y797867D01*
X1791465Y797104D01*
Y796314D01*
X1791669Y795551D01*
X1792064Y794867D01*
X1792623Y794309D01*
X1793307Y793914D01*
X1794070Y793709D01*
X1794860D01*
X1795368Y793846D01*
X1795477Y793831D01*
X1795837Y793572D01*
X1795889Y793490D01*
Y776559D01*
X1795048D01*
Y770244D01*
X1799788D01*
Y776559D01*
X1798947D01*
Y793757D01*
X1798956D01*
X1798803Y794919D01*
X1798355Y796002D01*
X1797641Y796932D01*
X1797465Y797067D01*
Y797104D01*
X1797261Y797867D01*
X1796866Y798552D01*
X1796307Y799110D01*
X1795623Y799505D01*
X1794860Y799709D01*
D02*
G37*
G36*
X1793882Y773152D02*
X1791762D01*
Y770244D01*
X1793882D01*
Y773152D01*
D02*
G37*
G36*
X1791262D02*
X1789142D01*
Y770244D01*
X1791262D01*
Y773152D01*
D02*
G37*
G36*
X1719775Y799404D02*
X1718985D01*
X1718222Y799200D01*
X1717538Y798805D01*
X1716979Y798246D01*
X1716584Y797562D01*
X1716380Y796799D01*
Y796009D01*
X1716584Y795246D01*
X1716979Y794562D01*
X1717538Y794003D01*
X1718222Y793608D01*
X1718985Y793404D01*
X1719775D01*
X1720283Y793540D01*
X1720392Y793525D01*
X1720752Y793267D01*
X1720803Y793184D01*
Y776559D01*
X1719963D01*
Y770244D01*
X1724703D01*
Y776559D01*
X1723862D01*
Y793451D01*
X1723871D01*
X1723718Y794614D01*
X1723269Y795697D01*
X1722556Y796627D01*
X1722380Y796762D01*
Y796799D01*
X1722175Y797562D01*
X1721780Y798246D01*
X1721222Y798805D01*
X1720538Y799200D01*
X1719775Y799404D01*
D02*
G37*
G36*
X1718797Y773152D02*
X1716677D01*
Y770244D01*
X1718797D01*
Y773152D01*
D02*
G37*
G36*
X1716177D02*
X1714057D01*
Y770244D01*
X1716177D01*
Y773152D01*
D02*
G37*
G36*
X1644883Y799354D02*
X1644093D01*
X1643330Y799149D01*
X1642646Y798754D01*
X1642088Y798196D01*
X1641693Y797511D01*
X1641488Y796748D01*
Y795959D01*
X1641693Y795196D01*
X1642088Y794512D01*
X1642646Y793953D01*
X1643330Y793558D01*
X1644093Y793354D01*
X1644883D01*
X1645394Y793491D01*
X1645495Y793478D01*
X1645860Y793217D01*
X1645912Y793134D01*
Y776559D01*
X1645071D01*
Y770244D01*
X1649811D01*
Y776559D01*
X1648970D01*
Y793401D01*
X1648981D01*
X1648822Y794610D01*
X1648355Y795738D01*
X1647612Y796705D01*
X1647471Y796814D01*
X1647284Y797511D01*
X1646889Y798196D01*
X1646330Y798754D01*
X1645646Y799149D01*
X1644883Y799354D01*
D02*
G37*
G36*
X1643905Y773152D02*
X1641785D01*
Y770244D01*
X1643905D01*
Y773152D01*
D02*
G37*
G36*
X1641285D02*
X1639165D01*
Y770244D01*
X1641285D01*
Y773152D01*
D02*
G37*
G36*
X1570277Y799260D02*
X1569487D01*
X1568724Y799055D01*
X1568040Y798660D01*
X1567481Y798102D01*
X1567086Y797418D01*
X1566882Y796655D01*
Y795865D01*
X1567086Y795102D01*
X1567481Y794418D01*
X1568040Y793859D01*
X1568724Y793464D01*
X1569487Y793260D01*
X1570277D01*
X1570515Y793324D01*
X1570912Y793019D01*
Y776559D01*
X1570071D01*
Y770244D01*
X1574811D01*
Y776559D01*
X1573970D01*
Y793701D01*
X1573976D01*
X1573837Y794760D01*
X1573427Y795748D01*
X1572882Y796459D01*
Y796655D01*
X1572677Y797418D01*
X1572283Y798102D01*
X1571724Y798660D01*
X1571040Y799055D01*
X1570277Y799260D01*
D02*
G37*
G36*
X1568906Y773152D02*
X1566785D01*
Y770244D01*
X1568906D01*
Y773152D01*
D02*
G37*
G36*
X1566285D02*
X1564165D01*
Y770244D01*
X1566285D01*
Y773152D01*
D02*
G37*
G36*
X1552292Y780685D02*
X1550857D01*
X1549450Y780405D01*
X1548125Y779856D01*
X1546932Y779059D01*
X1545917Y778045D01*
X1545120Y776852D01*
X1544571Y775526D01*
X1544291Y774119D01*
Y772684D01*
X1544571Y771277D01*
X1545120Y769952D01*
X1545917Y768759D01*
X1546932Y767744D01*
X1548125Y766947D01*
X1549450Y766398D01*
X1550857Y766118D01*
X1552292D01*
X1553699Y766398D01*
X1555025Y766947D01*
X1556218Y767744D01*
X1557232Y768759D01*
X1558029Y769952D01*
X1558578Y771277D01*
X1558858Y772684D01*
Y774119D01*
X1558578Y775526D01*
X1558029Y776852D01*
X1557232Y778045D01*
X1556218Y779059D01*
X1555025Y779856D01*
X1553699Y780405D01*
X1552292Y780685D01*
D02*
G37*
G36*
X1821261Y776228D02*
X1820471D01*
X1819708Y776024D01*
X1819024Y775629D01*
X1818465Y775070D01*
X1818071Y774386D01*
X1817866Y773623D01*
Y772833D01*
X1818071Y772070D01*
X1818465Y771386D01*
X1819024Y770828D01*
X1819708Y770433D01*
X1819945Y770369D01*
X1820533Y769270D01*
X1821419Y768190D01*
X1822498Y767304D01*
X1823730Y766646D01*
X1825067Y766240D01*
X1825107Y766236D01*
X1825149Y765730D01*
X1824629Y765591D01*
X1823945Y765196D01*
X1823387Y764637D01*
X1822992Y763953D01*
X1822787Y763190D01*
Y762400D01*
X1822992Y761637D01*
X1823387Y760953D01*
X1823945Y760395D01*
X1824629Y760000D01*
X1825392Y759795D01*
X1826182D01*
X1826945Y760000D01*
X1827629Y760395D01*
X1828188Y760953D01*
X1828369Y761266D01*
X1833049D01*
X1833229Y760953D01*
X1833788Y760395D01*
X1834472Y760000D01*
X1835235Y759795D01*
X1836025D01*
X1836788Y760000D01*
X1837472Y760395D01*
X1838030Y760953D01*
X1838425Y761637D01*
X1838630Y762400D01*
Y763190D01*
X1838425Y763953D01*
X1838030Y764637D01*
X1837472Y765196D01*
X1836788Y765591D01*
X1836722Y765608D01*
X1836788Y766108D01*
X1853172D01*
X1853238Y765608D01*
X1853173Y765591D01*
X1852489Y765196D01*
X1851930Y764637D01*
X1851535Y763953D01*
X1851331Y763190D01*
Y762400D01*
X1851535Y761637D01*
X1851930Y760953D01*
X1852489Y760395D01*
X1853173Y760000D01*
X1853936Y759795D01*
X1854726D01*
X1855489Y760000D01*
X1856173Y760395D01*
X1856731Y760953D01*
X1856912Y761266D01*
X1861592D01*
X1861773Y760953D01*
X1862331Y760395D01*
X1863015Y760000D01*
X1863778Y759795D01*
X1864568D01*
X1865331Y760000D01*
X1866015Y760395D01*
X1866574Y760953D01*
X1866969Y761637D01*
X1867173Y762400D01*
Y763190D01*
X1866969Y763953D01*
X1866574Y764637D01*
X1866015Y765196D01*
X1865331Y765591D01*
X1865266Y765608D01*
X1865331Y766108D01*
X1895668D01*
X1895692Y766017D01*
X1896246Y765059D01*
X1897027Y764277D01*
X1897985Y763724D01*
X1899053Y763438D01*
X1900159D01*
X1901227Y763724D01*
X1902185Y764277D01*
X1902967Y765059D01*
X1903520Y766017D01*
X1903806Y767085D01*
Y768191D01*
X1903520Y769259D01*
X1902967Y770217D01*
X1902185Y770999D01*
X1901227Y771552D01*
X1900159Y771838D01*
X1899053D01*
X1897985Y771552D01*
X1897027Y770999D01*
X1896246Y770217D01*
X1895692Y769259D01*
X1895668Y769167D01*
X1826457D01*
X1826414Y769159D01*
X1825402Y769292D01*
X1824419Y769699D01*
X1823575Y770347D01*
X1822990Y771109D01*
X1823267Y771386D01*
X1823662Y772070D01*
X1823866Y772833D01*
Y773623D01*
X1823662Y774386D01*
X1823267Y775070D01*
X1822708Y775629D01*
X1822024Y776024D01*
X1821261Y776228D01*
D02*
G37*
G36*
X1900159Y761838D02*
X1899053D01*
X1897985Y761552D01*
X1897027Y760999D01*
X1896246Y760217D01*
X1895692Y759259D01*
X1895668Y759167D01*
X1837795D01*
Y759179D01*
X1836112Y759014D01*
X1834493Y758523D01*
X1833002Y757725D01*
X1831694Y756652D01*
X1830621Y755345D01*
X1829824Y753853D01*
X1829333Y752235D01*
X1829167Y750551D01*
X1829179D01*
Y741558D01*
X1828867Y741377D01*
X1828308Y740818D01*
X1827913Y740134D01*
X1827868Y739966D01*
X1827710Y739918D01*
X1826355Y739193D01*
X1825167Y738219D01*
X1824192Y737031D01*
X1823468Y735676D01*
X1823022Y734206D01*
X1822872Y732677D01*
X1822880D01*
Y714134D01*
X1822891Y714080D01*
X1822735Y713295D01*
X1822259Y712583D01*
X1821548Y712108D01*
X1820763Y711952D01*
X1820709Y711963D01*
X1817129D01*
X1816929Y711982D01*
Y711982D01*
X1816076Y711870D01*
X1815613Y711963D01*
X1780875D01*
X1780723Y712463D01*
X1780887Y712572D01*
X1781104Y712897D01*
X1781181Y713281D01*
Y724305D01*
X1781104Y724689D01*
X1780887Y725015D01*
X1780561Y725232D01*
X1780177Y725309D01*
X1767579D01*
X1767195Y725232D01*
X1766869Y725015D01*
X1766652Y724689D01*
X1766575Y724305D01*
Y713281D01*
X1766652Y712897D01*
X1766869Y712572D01*
X1767033Y712463D01*
X1766881Y711963D01*
X1754959D01*
X1754779Y712275D01*
X1754220Y712834D01*
X1753536Y713229D01*
X1752773Y713433D01*
X1751983D01*
X1751220Y713229D01*
X1750536Y712834D01*
X1749977Y712275D01*
X1749582Y711591D01*
X1749378Y710828D01*
Y710038D01*
X1749582Y709275D01*
X1749977Y708591D01*
X1750536Y708033D01*
X1751220Y707638D01*
X1751983Y707433D01*
X1752773D01*
X1753536Y707638D01*
X1754220Y708033D01*
X1754779Y708591D01*
X1754959Y708904D01*
X1811394D01*
X1811672Y708488D01*
X1811344Y707697D01*
X1811147Y706201D01*
X1811168D01*
Y675416D01*
X1810855Y675235D01*
X1810296Y674677D01*
X1809901Y673993D01*
X1809697Y673230D01*
Y672440D01*
X1809901Y671677D01*
X1810296Y670993D01*
X1810855Y670434D01*
X1811539Y670039D01*
X1812302Y669835D01*
X1813092D01*
X1813855Y670039D01*
X1814539Y670434D01*
X1815097Y670993D01*
X1815492Y671677D01*
X1815697Y672440D01*
Y673230D01*
X1815492Y673993D01*
X1815097Y674677D01*
X1814539Y675235D01*
X1814226Y675416D01*
Y706201D01*
X1814225Y706209D01*
X1814316Y706901D01*
X1814586Y707553D01*
X1815016Y708114D01*
X1815576Y708544D01*
X1816229Y708814D01*
X1816458Y708844D01*
X1816929Y708904D01*
X1817423Y708904D01*
X1820709D01*
Y708888D01*
X1822066Y709067D01*
X1823331Y709591D01*
X1824418Y710425D01*
X1825252Y711511D01*
X1825776Y712776D01*
X1825954Y714134D01*
X1825939D01*
Y732677D01*
X1825927Y732739D01*
X1826082Y733917D01*
X1826560Y735072D01*
X1827321Y736064D01*
X1828314Y736826D01*
X1828528Y736914D01*
X1828867Y736576D01*
X1829551Y736181D01*
X1830314Y735976D01*
X1831104D01*
X1831867Y736181D01*
X1832551Y736576D01*
X1833109Y737134D01*
X1833504Y737818D01*
X1833709Y738581D01*
Y739371D01*
X1833504Y740134D01*
X1833109Y740818D01*
X1832551Y741377D01*
X1832238Y741558D01*
Y750551D01*
X1832222Y750633D01*
X1832401Y751997D01*
X1832959Y753343D01*
X1833846Y754500D01*
X1835003Y755387D01*
X1836350Y755945D01*
X1837713Y756125D01*
X1837795Y756108D01*
X1895668D01*
X1895692Y756017D01*
X1896246Y755059D01*
X1897027Y754277D01*
X1897985Y753724D01*
X1899053Y753438D01*
X1900159D01*
X1901227Y753724D01*
X1902185Y754277D01*
X1902967Y755059D01*
X1903520Y756017D01*
X1903806Y757085D01*
Y758191D01*
X1903520Y759259D01*
X1902967Y760217D01*
X1902185Y760999D01*
X1901227Y761552D01*
X1900159Y761838D01*
D02*
G37*
G36*
X1784557Y762323D02*
X1783199D01*
X1781868Y762058D01*
X1780614Y761539D01*
X1779486Y760785D01*
X1778526Y759825D01*
X1777772Y758697D01*
X1777253Y757443D01*
X1776988Y756112D01*
Y754754D01*
X1777253Y753423D01*
X1777772Y752170D01*
X1778526Y751041D01*
X1779486Y750081D01*
X1780614Y749327D01*
X1781868Y748808D01*
X1783199Y748543D01*
X1784557D01*
X1785888Y748808D01*
X1787141Y749327D01*
X1788270Y750081D01*
X1789230Y751041D01*
X1789984Y752170D01*
X1790503Y753423D01*
X1790768Y754754D01*
Y756112D01*
X1790503Y757443D01*
X1789984Y758697D01*
X1789230Y759825D01*
X1788270Y760785D01*
X1787141Y761539D01*
X1785888Y762058D01*
X1784557Y762323D01*
D02*
G37*
G36*
X1709557D02*
X1708199D01*
X1706868Y762058D01*
X1705614Y761539D01*
X1704486Y760785D01*
X1703526Y759825D01*
X1702772Y758697D01*
X1702253Y757443D01*
X1701988Y756112D01*
Y754754D01*
X1702253Y753423D01*
X1702772Y752170D01*
X1703526Y751041D01*
X1704486Y750081D01*
X1705614Y749327D01*
X1706868Y748808D01*
X1708199Y748543D01*
X1709557D01*
X1710888Y748808D01*
X1712141Y749327D01*
X1713270Y750081D01*
X1714230Y751041D01*
X1714984Y752170D01*
X1715503Y753423D01*
X1715768Y754754D01*
Y756112D01*
X1715503Y757443D01*
X1714984Y758697D01*
X1714230Y759825D01*
X1713270Y760785D01*
X1712141Y761539D01*
X1710888Y762058D01*
X1709557Y762323D01*
D02*
G37*
G36*
X1634557D02*
X1633199D01*
X1631868Y762058D01*
X1630614Y761539D01*
X1629486Y760785D01*
X1628526Y759825D01*
X1627772Y758697D01*
X1627253Y757443D01*
X1626988Y756112D01*
Y754754D01*
X1627253Y753423D01*
X1627772Y752170D01*
X1628526Y751041D01*
X1629486Y750081D01*
X1630614Y749327D01*
X1631868Y748808D01*
X1633199Y748543D01*
X1634557D01*
X1635888Y748808D01*
X1637141Y749327D01*
X1638270Y750081D01*
X1639230Y751041D01*
X1639984Y752170D01*
X1640503Y753423D01*
X1640768Y754754D01*
Y756112D01*
X1640503Y757443D01*
X1639984Y758697D01*
X1639230Y759825D01*
X1638270Y760785D01*
X1637141Y761539D01*
X1635888Y762058D01*
X1634557Y762323D01*
D02*
G37*
G36*
X1559556D02*
X1558199D01*
X1556868Y762058D01*
X1555614Y761539D01*
X1554486Y760785D01*
X1553526Y759825D01*
X1552772Y758697D01*
X1552253Y757443D01*
X1551988Y756112D01*
Y754754D01*
X1552253Y753423D01*
X1552772Y752170D01*
X1553526Y751041D01*
X1554486Y750081D01*
X1555614Y749327D01*
X1556868Y748808D01*
X1558199Y748543D01*
X1559556D01*
X1560888Y748808D01*
X1562142Y749327D01*
X1563270Y750081D01*
X1564230Y751041D01*
X1564984Y752170D01*
X1565503Y753423D01*
X1565768Y754754D01*
Y756112D01*
X1565503Y757443D01*
X1564984Y758697D01*
X1564230Y759825D01*
X1563270Y760785D01*
X1562142Y761539D01*
X1560888Y762058D01*
X1559556Y762323D01*
D02*
G37*
G36*
X1900159Y751838D02*
X1899053D01*
X1897985Y751552D01*
X1897027Y750999D01*
X1896246Y750217D01*
X1895722Y749310D01*
X1895276Y749181D01*
Y749181D01*
X1893515Y749008D01*
X1891822Y748494D01*
X1890262Y747660D01*
X1888895Y746538D01*
X1887773Y745171D01*
X1886939Y743611D01*
X1886425Y741918D01*
X1886252Y740158D01*
X1886266D01*
Y739331D01*
X1886279Y739262D01*
X1886123Y737674D01*
X1885640Y736081D01*
X1884855Y734613D01*
X1883799Y733327D01*
X1882513Y732271D01*
X1881045Y731486D01*
X1879452Y731003D01*
X1877864Y730847D01*
X1877795Y730860D01*
X1850022D01*
X1849841Y731173D01*
X1849283Y731731D01*
X1848599Y732126D01*
X1847836Y732331D01*
X1847046D01*
X1846283Y732126D01*
X1845599Y731731D01*
X1845040Y731173D01*
X1844645Y730489D01*
X1844441Y729726D01*
Y728936D01*
X1844645Y728173D01*
X1845040Y727489D01*
X1845599Y726930D01*
X1846283Y726535D01*
X1847046Y726331D01*
X1847836D01*
X1848599Y726535D01*
X1849283Y726930D01*
X1849841Y727489D01*
X1850022Y727801D01*
X1877795D01*
Y727795D01*
X1879600Y727937D01*
X1881360Y728360D01*
X1883032Y729052D01*
X1884576Y729998D01*
X1885952Y731174D01*
X1887128Y732550D01*
X1888074Y734094D01*
X1888766Y735766D01*
X1889189Y737526D01*
X1889331Y739331D01*
X1889325D01*
Y740158D01*
X1889319Y740185D01*
X1889431Y741320D01*
X1889770Y742438D01*
X1890321Y743468D01*
X1891062Y744371D01*
X1891965Y745112D01*
X1892995Y745663D01*
X1894113Y746002D01*
X1895248Y746114D01*
X1895276Y746108D01*
X1895668D01*
X1895692Y746017D01*
X1896246Y745059D01*
X1897027Y744277D01*
X1897985Y743724D01*
X1899053Y743438D01*
X1900159D01*
X1901227Y743724D01*
X1902185Y744277D01*
X1902967Y745059D01*
X1903520Y746017D01*
X1903806Y747085D01*
Y748191D01*
X1903520Y749259D01*
X1902967Y750217D01*
X1902185Y750999D01*
X1901227Y751552D01*
X1900159Y751838D01*
D02*
G37*
G36*
X1759557Y752323D02*
X1758199D01*
X1756868Y752058D01*
X1755614Y751539D01*
X1754486Y750785D01*
X1753526Y749825D01*
X1752772Y748697D01*
X1752253Y747443D01*
X1751988Y746112D01*
Y744755D01*
X1752253Y743423D01*
X1752772Y742170D01*
X1753526Y741041D01*
X1754300Y740267D01*
X1754093Y739767D01*
X1753307D01*
X1752205Y739472D01*
X1751217Y738901D01*
X1750410Y738094D01*
X1749839Y737106D01*
X1749544Y736004D01*
Y734863D01*
X1749839Y733760D01*
X1750410Y732772D01*
X1751217Y731965D01*
X1752205Y731394D01*
X1753307Y731099D01*
X1754449D01*
X1755551Y731394D01*
X1756539Y731965D01*
X1757346Y732772D01*
X1757917Y733760D01*
X1758212Y734863D01*
Y736004D01*
X1757917Y737106D01*
X1757346Y738094D01*
X1757210Y738230D01*
X1757457Y738691D01*
X1758199Y738543D01*
X1759557D01*
X1760888Y738808D01*
X1762141Y739327D01*
X1763270Y740081D01*
X1764230Y741041D01*
X1764984Y742170D01*
X1765503Y743423D01*
X1765768Y744755D01*
Y746112D01*
X1765503Y747443D01*
X1764984Y748697D01*
X1764230Y749825D01*
X1763270Y750785D01*
X1762141Y751539D01*
X1760888Y752058D01*
X1759557Y752323D01*
D02*
G37*
G36*
X1684557D02*
X1683199D01*
X1681868Y752058D01*
X1680614Y751539D01*
X1679486Y750785D01*
X1678526Y749825D01*
X1677772Y748697D01*
X1677253Y747443D01*
X1676988Y746112D01*
Y744755D01*
X1677253Y743423D01*
X1677772Y742170D01*
X1678526Y741041D01*
X1679300Y740267D01*
X1679093Y739767D01*
X1678307D01*
X1677205Y739472D01*
X1676217Y738901D01*
X1675410Y738094D01*
X1674839Y737106D01*
X1674544Y736004D01*
Y734863D01*
X1674839Y733760D01*
X1675410Y732772D01*
X1676217Y731965D01*
X1677205Y731394D01*
X1678307Y731099D01*
X1679449D01*
X1680551Y731394D01*
X1681539Y731965D01*
X1682346Y732772D01*
X1682917Y733760D01*
X1683212Y734863D01*
Y736004D01*
X1682917Y737106D01*
X1682346Y738094D01*
X1682210Y738230D01*
X1682457Y738691D01*
X1683199Y738543D01*
X1684557D01*
X1685888Y738808D01*
X1687141Y739327D01*
X1688270Y740081D01*
X1689230Y741041D01*
X1689984Y742170D01*
X1690503Y743423D01*
X1690768Y744755D01*
Y746112D01*
X1690503Y747443D01*
X1689984Y748697D01*
X1689230Y749825D01*
X1688270Y750785D01*
X1687141Y751539D01*
X1685888Y752058D01*
X1684557Y752323D01*
D02*
G37*
G36*
X1609557D02*
X1608199D01*
X1606868Y752058D01*
X1605614Y751539D01*
X1604486Y750785D01*
X1603526Y749825D01*
X1602772Y748697D01*
X1602253Y747443D01*
X1601988Y746112D01*
Y744755D01*
X1602253Y743423D01*
X1602772Y742170D01*
X1603526Y741041D01*
X1604300Y740267D01*
X1604093Y739767D01*
X1603307D01*
X1602205Y739472D01*
X1601217Y738901D01*
X1600410Y738094D01*
X1599839Y737106D01*
X1599544Y736004D01*
Y734863D01*
X1599839Y733760D01*
X1600410Y732772D01*
X1601217Y731965D01*
X1602205Y731394D01*
X1603307Y731099D01*
X1604449D01*
X1605551Y731394D01*
X1606539Y731965D01*
X1607346Y732772D01*
X1607917Y733760D01*
X1608212Y734863D01*
Y736004D01*
X1607917Y737106D01*
X1607346Y738094D01*
X1607210Y738230D01*
X1607457Y738691D01*
X1608199Y738543D01*
X1609557D01*
X1610888Y738808D01*
X1612141Y739327D01*
X1613270Y740081D01*
X1614230Y741041D01*
X1614984Y742170D01*
X1615503Y743423D01*
X1615768Y744755D01*
Y746112D01*
X1615503Y747443D01*
X1614984Y748697D01*
X1614230Y749825D01*
X1613270Y750785D01*
X1612141Y751539D01*
X1610888Y752058D01*
X1609557Y752323D01*
D02*
G37*
G36*
X1534556D02*
X1533199D01*
X1531868Y752058D01*
X1530614Y751539D01*
X1529486Y750785D01*
X1528526Y749825D01*
X1527772Y748697D01*
X1527253Y747443D01*
X1526988Y746112D01*
Y744755D01*
X1527253Y743423D01*
X1527772Y742170D01*
X1528526Y741041D01*
X1529300Y740267D01*
X1529093Y739767D01*
X1528307D01*
X1527205Y739472D01*
X1526217Y738901D01*
X1525410Y738094D01*
X1524839Y737106D01*
X1524544Y736004D01*
Y734863D01*
X1524839Y733760D01*
X1525410Y732772D01*
X1526217Y731965D01*
X1527205Y731394D01*
X1528307Y731099D01*
X1529449D01*
X1530551Y731394D01*
X1531539Y731965D01*
X1532346Y732772D01*
X1532917Y733760D01*
X1533212Y734863D01*
Y736004D01*
X1532917Y737106D01*
X1532346Y738094D01*
X1532210Y738230D01*
X1532457Y738691D01*
X1533199Y738543D01*
X1534556D01*
X1535888Y738808D01*
X1537142Y739327D01*
X1538270Y740081D01*
X1539230Y741041D01*
X1539984Y742170D01*
X1540503Y743423D01*
X1540768Y744755D01*
Y746112D01*
X1540503Y747443D01*
X1539984Y748697D01*
X1539230Y749825D01*
X1538270Y750785D01*
X1537142Y751539D01*
X1535888Y752058D01*
X1534556Y752323D01*
D02*
G37*
G36*
X1877066Y751689D02*
X1875690D01*
X1874341Y751421D01*
X1873070Y750894D01*
X1871926Y750130D01*
X1870953Y749157D01*
X1870189Y748013D01*
X1869662Y746742D01*
X1869394Y745393D01*
Y744017D01*
X1869662Y742667D01*
X1870189Y741396D01*
X1870953Y740252D01*
X1871926Y739280D01*
X1873070Y738515D01*
X1874341Y737989D01*
X1875690Y737720D01*
X1877066D01*
X1878415Y737989D01*
X1879686Y738515D01*
X1880830Y739280D01*
X1881803Y740252D01*
X1882567Y741396D01*
X1883094Y742667D01*
X1883362Y744017D01*
Y745393D01*
X1883094Y746742D01*
X1882567Y748013D01*
X1881803Y749157D01*
X1880830Y750130D01*
X1879686Y750894D01*
X1878415Y751421D01*
X1877066Y751689D01*
D02*
G37*
G36*
X1794449Y739767D02*
X1793307D01*
X1792205Y739472D01*
X1791217Y738901D01*
X1790410Y738094D01*
X1789839Y737106D01*
X1789544Y736004D01*
Y734863D01*
X1789839Y733760D01*
X1790410Y732772D01*
X1791217Y731965D01*
X1792205Y731394D01*
X1793307Y731099D01*
X1794449D01*
X1795551Y731394D01*
X1796539Y731965D01*
X1797346Y732772D01*
X1797917Y733760D01*
X1798212Y734863D01*
Y736004D01*
X1797917Y737106D01*
X1797346Y738094D01*
X1796539Y738901D01*
X1795551Y739472D01*
X1794449Y739767D01*
D02*
G37*
G36*
X1719449D02*
X1718307D01*
X1717205Y739472D01*
X1716217Y738901D01*
X1715410Y738094D01*
X1714839Y737106D01*
X1714544Y736004D01*
Y734863D01*
X1714839Y733760D01*
X1715410Y732772D01*
X1716217Y731965D01*
X1717205Y731394D01*
X1718307Y731099D01*
X1719449D01*
X1720551Y731394D01*
X1721539Y731965D01*
X1722346Y732772D01*
X1722917Y733760D01*
X1723212Y734863D01*
Y736004D01*
X1722917Y737106D01*
X1722346Y738094D01*
X1721539Y738901D01*
X1720551Y739472D01*
X1719449Y739767D01*
D02*
G37*
G36*
X1644449D02*
X1643307D01*
X1642205Y739472D01*
X1641217Y738901D01*
X1640410Y738094D01*
X1639839Y737106D01*
X1639544Y736004D01*
Y734863D01*
X1639839Y733760D01*
X1640410Y732772D01*
X1641217Y731965D01*
X1642205Y731394D01*
X1643307Y731099D01*
X1644449D01*
X1645551Y731394D01*
X1646539Y731965D01*
X1647346Y732772D01*
X1647917Y733760D01*
X1648212Y734863D01*
Y736004D01*
X1647917Y737106D01*
X1647346Y738094D01*
X1646539Y738901D01*
X1645551Y739472D01*
X1644449Y739767D01*
D02*
G37*
G36*
X1569449D02*
X1568307D01*
X1567205Y739472D01*
X1566217Y738901D01*
X1565410Y738094D01*
X1564839Y737106D01*
X1564544Y736004D01*
Y734863D01*
X1564839Y733760D01*
X1565410Y732772D01*
X1566217Y731965D01*
X1567205Y731394D01*
X1568307Y731099D01*
X1569449D01*
X1570551Y731394D01*
X1571539Y731965D01*
X1572346Y732772D01*
X1572917Y733760D01*
X1573212Y734863D01*
Y736004D01*
X1572917Y737106D01*
X1572346Y738094D01*
X1571539Y738901D01*
X1570551Y739472D01*
X1569449Y739767D01*
D02*
G37*
G36*
X1774748Y744267D02*
X1773008D01*
X1771301Y743928D01*
X1769693Y743262D01*
X1768246Y742295D01*
X1767016Y741065D01*
X1766049Y739618D01*
X1765383Y738010D01*
X1765044Y736303D01*
Y734563D01*
X1765383Y732856D01*
X1766049Y731249D01*
X1767016Y729802D01*
X1768246Y728571D01*
X1769693Y727604D01*
X1771301Y726938D01*
X1773008Y726599D01*
X1774748D01*
X1776455Y726938D01*
X1778062Y727604D01*
X1779510Y728571D01*
X1780740Y729802D01*
X1781707Y731249D01*
X1782373Y732856D01*
X1782712Y734563D01*
Y736303D01*
X1782373Y738010D01*
X1781707Y739618D01*
X1780740Y741065D01*
X1779510Y742295D01*
X1778062Y743262D01*
X1776455Y743928D01*
X1774748Y744267D01*
D02*
G37*
G36*
X1699748D02*
X1698008D01*
X1696301Y743928D01*
X1694693Y743262D01*
X1693246Y742295D01*
X1692016Y741065D01*
X1691049Y739618D01*
X1690383Y738010D01*
X1690044Y736303D01*
Y734563D01*
X1690383Y732856D01*
X1691049Y731249D01*
X1692016Y729802D01*
X1693246Y728571D01*
X1694693Y727604D01*
X1696301Y726938D01*
X1698008Y726599D01*
X1699748D01*
X1701455Y726938D01*
X1703062Y727604D01*
X1704510Y728571D01*
X1705740Y729802D01*
X1706707Y731249D01*
X1707373Y732856D01*
X1707712Y734563D01*
Y736303D01*
X1707373Y738010D01*
X1706707Y739618D01*
X1705740Y741065D01*
X1704510Y742295D01*
X1703062Y743262D01*
X1701455Y743928D01*
X1699748Y744267D01*
D02*
G37*
G36*
X1624748D02*
X1623008D01*
X1621301Y743928D01*
X1619693Y743262D01*
X1618246Y742295D01*
X1617016Y741065D01*
X1616049Y739618D01*
X1615383Y738010D01*
X1615044Y736303D01*
Y734563D01*
X1615383Y732856D01*
X1616049Y731249D01*
X1617016Y729802D01*
X1618246Y728571D01*
X1619693Y727604D01*
X1621301Y726938D01*
X1623008Y726599D01*
X1624748D01*
X1626455Y726938D01*
X1628062Y727604D01*
X1629510Y728571D01*
X1630740Y729802D01*
X1631707Y731249D01*
X1632373Y732856D01*
X1632712Y734563D01*
Y736303D01*
X1632373Y738010D01*
X1631707Y739618D01*
X1630740Y741065D01*
X1629510Y742295D01*
X1628062Y743262D01*
X1626455Y743928D01*
X1624748Y744267D01*
D02*
G37*
G36*
X1549748D02*
X1548008D01*
X1546301Y743928D01*
X1544693Y743262D01*
X1543246Y742295D01*
X1542016Y741065D01*
X1541049Y739618D01*
X1540383Y738010D01*
X1540044Y736303D01*
Y734563D01*
X1540383Y732856D01*
X1541049Y731249D01*
X1542016Y729802D01*
X1543246Y728571D01*
X1544693Y727604D01*
X1546301Y726938D01*
X1548008Y726599D01*
X1549748D01*
X1551455Y726938D01*
X1553063Y727604D01*
X1554510Y728571D01*
X1555740Y729802D01*
X1556707Y731249D01*
X1557373Y732856D01*
X1557712Y734563D01*
Y736303D01*
X1557373Y738010D01*
X1556707Y739618D01*
X1555740Y741065D01*
X1554510Y742295D01*
X1553063Y743262D01*
X1551455Y743928D01*
X1549748Y744267D01*
D02*
G37*
G36*
X1755316Y719535D02*
X1754526D01*
X1753763Y719331D01*
X1753079Y718936D01*
X1752521Y718377D01*
X1752340Y718065D01*
X1749882D01*
Y718072D01*
X1748411Y717927D01*
X1746996Y717498D01*
X1745693Y716801D01*
X1744550Y715863D01*
X1743612Y714721D01*
X1742916Y713417D01*
X1742487Y712003D01*
X1742342Y710532D01*
X1742349D01*
Y706910D01*
X1742330D01*
X1742522Y704954D01*
X1743093Y703073D01*
X1744019Y701340D01*
X1745266Y699821D01*
X1746785Y698574D01*
X1748518Y697648D01*
X1750399Y697077D01*
X1752354Y696885D01*
Y696904D01*
X1755307D01*
Y695276D01*
X1760047D01*
Y701590D01*
X1755307D01*
Y699963D01*
X1752354D01*
X1752311Y699954D01*
X1750997Y700083D01*
X1749691Y700479D01*
X1748488Y701123D01*
X1747433Y701988D01*
X1746567Y703043D01*
X1745924Y704246D01*
X1745528Y705552D01*
X1745399Y706866D01*
X1745407Y706910D01*
Y710532D01*
X1745397Y710585D01*
X1745543Y711694D01*
X1745991Y712778D01*
X1746705Y713708D01*
X1747636Y714422D01*
X1748719Y714871D01*
X1749828Y715017D01*
X1749882Y715006D01*
X1752340D01*
X1752521Y714693D01*
X1753079Y714135D01*
X1753763Y713740D01*
X1754526Y713535D01*
X1755316D01*
X1756079Y713740D01*
X1756763Y714135D01*
X1757322Y714693D01*
X1757717Y715378D01*
X1757921Y716141D01*
Y716930D01*
X1757717Y717693D01*
X1757322Y718377D01*
X1756763Y718936D01*
X1756079Y719331D01*
X1755316Y719535D01*
D02*
G37*
G36*
X1803938Y730559D02*
X1803148D01*
X1802385Y730355D01*
X1801701Y729960D01*
X1801143Y729401D01*
X1800748Y728717D01*
X1800543Y727954D01*
Y727164D01*
X1800748Y726401D01*
X1801143Y725717D01*
X1801701Y725159D01*
X1802014Y724978D01*
Y719116D01*
X1801701Y718936D01*
X1801143Y718377D01*
X1800748Y717693D01*
X1800543Y716930D01*
Y716141D01*
X1800748Y715378D01*
X1801143Y714693D01*
X1801701Y714135D01*
X1802385Y713740D01*
X1803148Y713535D01*
X1803938D01*
X1804701Y713740D01*
X1805385Y714135D01*
X1805944Y714693D01*
X1806339Y715378D01*
X1806543Y716141D01*
Y716930D01*
X1806339Y717693D01*
X1805944Y718377D01*
X1805385Y718936D01*
X1805073Y719116D01*
Y724978D01*
X1805385Y725159D01*
X1805944Y725717D01*
X1806339Y726401D01*
X1806543Y727164D01*
Y727954D01*
X1806339Y728717D01*
X1805944Y729401D01*
X1805385Y729960D01*
X1804701Y730355D01*
X1803938Y730559D01*
D02*
G37*
G36*
X1705177Y725309D02*
X1692579D01*
X1692195Y725232D01*
X1691869Y725015D01*
X1691652Y724689D01*
X1691575Y724305D01*
Y713281D01*
X1691652Y712897D01*
X1691869Y712572D01*
X1692195Y712354D01*
X1692579Y712278D01*
X1705177D01*
X1705561Y712354D01*
X1705887Y712572D01*
X1706104Y712897D01*
X1706181Y713281D01*
Y724305D01*
X1706104Y724689D01*
X1705887Y725015D01*
X1705561Y725232D01*
X1705177Y725309D01*
D02*
G37*
G36*
X1630177D02*
X1617579D01*
X1617195Y725232D01*
X1616869Y725015D01*
X1616652Y724689D01*
X1616575Y724305D01*
Y713281D01*
X1616652Y712897D01*
X1616869Y712572D01*
X1617195Y712354D01*
X1617579Y712278D01*
X1630177D01*
X1630561Y712354D01*
X1630887Y712572D01*
X1631104Y712897D01*
X1631181Y713281D01*
Y724305D01*
X1631104Y724689D01*
X1630887Y725015D01*
X1630561Y725232D01*
X1630177Y725309D01*
D02*
G37*
G36*
X1555177D02*
X1542579D01*
X1542195Y725232D01*
X1541869Y725015D01*
X1541652Y724689D01*
X1541575Y724305D01*
Y713281D01*
X1541652Y712897D01*
X1541869Y712572D01*
X1542195Y712354D01*
X1542579Y712278D01*
X1555177D01*
X1555561Y712354D01*
X1555887Y712572D01*
X1556104Y712897D01*
X1556181Y713281D01*
Y724305D01*
X1556104Y724689D01*
X1555887Y725015D01*
X1555561Y725232D01*
X1555177Y725309D01*
D02*
G37*
G36*
X1859529Y724724D02*
X1858172D01*
X1856841Y724460D01*
X1855587Y723940D01*
X1854458Y723186D01*
X1853499Y722227D01*
X1852745Y721098D01*
X1852225Y719844D01*
X1851961Y718513D01*
Y717156D01*
X1852225Y715825D01*
X1852745Y714571D01*
X1853499Y713443D01*
X1854458Y712483D01*
X1855587Y711729D01*
X1856841Y711210D01*
X1858172Y710945D01*
X1859529D01*
X1860860Y711210D01*
X1862114Y711729D01*
X1863242Y712483D01*
X1864202Y713443D01*
X1864956Y714571D01*
X1865475Y715825D01*
X1865740Y717156D01*
Y718513D01*
X1865475Y719844D01*
X1864956Y721098D01*
X1864202Y722227D01*
X1863242Y723186D01*
X1862114Y723940D01*
X1860860Y724460D01*
X1859529Y724724D01*
D02*
G37*
G36*
X1834529Y714724D02*
X1833172D01*
X1831841Y714460D01*
X1830587Y713940D01*
X1829458Y713186D01*
X1828499Y712227D01*
X1827745Y711098D01*
X1827225Y709844D01*
X1826961Y708513D01*
Y707156D01*
X1827225Y705825D01*
X1827745Y704571D01*
X1828499Y703443D01*
X1829272Y702669D01*
X1829065Y702169D01*
X1828280D01*
X1827177Y701873D01*
X1826189Y701303D01*
X1825382Y700496D01*
X1824812Y699508D01*
X1824516Y698405D01*
Y697264D01*
X1824812Y696162D01*
X1825382Y695173D01*
X1826189Y694366D01*
X1827177Y693796D01*
X1828280Y693500D01*
X1829421D01*
X1830523Y693796D01*
X1831512Y694366D01*
X1832319Y695173D01*
X1832889Y696162D01*
X1833185Y697264D01*
Y698405D01*
X1832889Y699508D01*
X1832319Y700496D01*
X1832183Y700632D01*
X1832429Y701093D01*
X1833172Y700945D01*
X1834529D01*
X1835860Y701210D01*
X1837114Y701729D01*
X1838242Y702483D01*
X1839202Y703443D01*
X1839956Y704571D01*
X1840475Y705825D01*
X1840740Y707156D01*
Y708513D01*
X1840475Y709844D01*
X1839956Y711098D01*
X1839202Y712227D01*
X1838242Y713186D01*
X1837114Y713940D01*
X1835860Y714460D01*
X1834529Y714724D01*
D02*
G37*
G36*
X1765953Y701590D02*
X1763833D01*
Y698683D01*
X1765953D01*
Y701590D01*
D02*
G37*
G36*
X1763333D02*
X1761213D01*
Y698683D01*
X1763333D01*
Y701590D01*
D02*
G37*
G36*
X1691150D02*
X1689030D01*
Y698683D01*
X1691150D01*
Y701590D01*
D02*
G37*
G36*
X1688530D02*
X1686409D01*
Y698683D01*
X1688530D01*
Y701590D01*
D02*
G37*
G36*
X1616740D02*
X1614620D01*
Y698683D01*
X1616740D01*
Y701590D01*
D02*
G37*
G36*
X1614120D02*
X1612000D01*
Y698683D01*
X1614120D01*
Y701590D01*
D02*
G37*
G36*
X1540756D02*
X1538636D01*
Y698683D01*
X1540756D01*
Y701590D01*
D02*
G37*
G36*
X1538136D02*
X1536016D01*
Y698683D01*
X1538136D01*
Y701590D01*
D02*
G37*
G36*
X1765953Y698183D02*
X1763833D01*
Y695276D01*
X1765953D01*
Y698183D01*
D02*
G37*
G36*
X1763333D02*
X1761213D01*
Y695276D01*
X1763333D01*
Y698183D01*
D02*
G37*
G36*
X1691150D02*
X1689030D01*
Y695276D01*
X1691150D01*
Y698183D01*
D02*
G37*
G36*
X1688530D02*
X1686409D01*
Y695276D01*
X1688530D01*
Y698183D01*
D02*
G37*
G36*
X1680513Y718551D02*
X1679723D01*
X1678960Y718347D01*
X1678276Y717952D01*
X1677718Y717393D01*
X1677323Y716709D01*
X1677118Y715946D01*
Y715156D01*
X1677323Y714393D01*
X1677718Y713709D01*
X1678276Y713151D01*
X1678589Y712970D01*
Y701189D01*
X1678581D01*
X1678728Y700078D01*
X1679156Y699043D01*
X1679839Y698154D01*
X1680504Y697643D01*
Y695276D01*
X1685244D01*
Y701590D01*
X1681647D01*
Y712970D01*
X1681960Y713151D01*
X1682519Y713709D01*
X1682914Y714393D01*
X1683118Y715156D01*
Y715946D01*
X1682914Y716709D01*
X1682519Y717393D01*
X1681960Y717952D01*
X1681276Y718347D01*
X1680513Y718551D01*
D02*
G37*
G36*
X1616740Y698183D02*
X1614620D01*
Y695276D01*
X1616740D01*
Y698183D01*
D02*
G37*
G36*
X1614120D02*
X1612000D01*
Y695276D01*
X1614120D01*
Y698183D01*
D02*
G37*
G36*
X1604726Y718551D02*
X1603936D01*
X1603173Y718347D01*
X1602489Y717952D01*
X1601930Y717393D01*
X1601535Y716709D01*
X1601331Y715946D01*
Y715156D01*
X1601535Y714393D01*
X1601930Y713709D01*
X1602489Y713151D01*
X1602801Y712970D01*
Y702567D01*
X1602782D01*
X1602976Y701096D01*
X1603543Y699726D01*
X1604446Y698549D01*
X1605623Y697646D01*
X1606095Y697451D01*
Y695276D01*
X1610835D01*
Y701590D01*
X1606095D01*
X1605930Y702023D01*
X1605859Y702562D01*
X1605860Y702567D01*
Y712970D01*
X1606173Y713151D01*
X1606731Y713709D01*
X1607126Y714393D01*
X1607331Y715156D01*
Y715946D01*
X1607126Y716709D01*
X1606731Y717393D01*
X1606173Y717952D01*
X1605489Y718347D01*
X1604726Y718551D01*
D02*
G37*
G36*
X1540756Y698183D02*
X1538636D01*
Y695276D01*
X1540756D01*
Y698183D01*
D02*
G37*
G36*
X1538136D02*
X1536016D01*
Y695276D01*
X1538136D01*
Y698183D01*
D02*
G37*
G36*
X1530907Y718551D02*
X1530117D01*
X1529354Y718347D01*
X1528670Y717952D01*
X1528111Y717393D01*
X1527716Y716709D01*
X1527512Y715946D01*
Y715156D01*
X1527716Y714393D01*
X1528111Y713709D01*
X1528670Y713151D01*
X1528982Y712970D01*
Y700402D01*
X1528982D01*
X1529101Y699496D01*
X1529451Y698652D01*
X1530007Y697928D01*
X1530110Y697848D01*
Y695276D01*
X1534850D01*
Y701590D01*
X1532041D01*
Y712970D01*
X1532354Y713151D01*
X1532912Y713709D01*
X1533307Y714393D01*
X1533512Y715156D01*
Y715946D01*
X1533307Y716709D01*
X1532912Y717393D01*
X1532354Y717952D01*
X1531670Y718347D01*
X1530907Y718551D01*
D02*
G37*
G36*
X1869421Y702169D02*
X1868280D01*
X1867177Y701873D01*
X1866189Y701303D01*
X1865382Y700496D01*
X1864812Y699508D01*
X1864516Y698405D01*
Y697264D01*
X1864812Y696162D01*
X1865382Y695173D01*
X1866189Y694366D01*
X1867177Y693796D01*
X1868280Y693500D01*
X1869421D01*
X1870523Y693796D01*
X1871512Y694366D01*
X1872319Y695173D01*
X1872889Y696162D01*
X1873185Y697264D01*
Y698405D01*
X1872889Y699508D01*
X1872319Y700496D01*
X1871512Y701303D01*
X1870523Y701873D01*
X1869421Y702169D01*
D02*
G37*
G36*
X1703473Y705118D02*
X1702039D01*
X1700631Y704838D01*
X1699306Y704289D01*
X1698113Y703492D01*
X1697099Y702478D01*
X1696301Y701285D01*
X1695752Y699959D01*
X1695473Y698552D01*
Y697117D01*
X1695752Y695710D01*
X1696301Y694385D01*
X1697099Y693192D01*
X1698113Y692177D01*
X1699306Y691380D01*
X1700631Y690831D01*
X1702039Y690551D01*
X1703473D01*
X1704880Y690831D01*
X1706206Y691380D01*
X1707399Y692177D01*
X1708413Y693192D01*
X1709210Y694385D01*
X1709760Y695710D01*
X1710039Y697117D01*
Y698552D01*
X1709760Y699959D01*
X1709210Y701285D01*
X1708413Y702478D01*
X1707399Y703492D01*
X1706206Y704289D01*
X1704880Y704838D01*
X1703473Y705118D01*
D02*
G37*
G36*
X1849721Y706669D02*
X1847980D01*
X1846273Y706329D01*
X1844666Y705663D01*
X1843219Y704697D01*
X1841988Y703466D01*
X1841022Y702019D01*
X1840356Y700412D01*
X1840016Y698705D01*
Y696965D01*
X1840356Y695258D01*
X1841022Y693650D01*
X1841988Y692203D01*
X1843219Y690973D01*
X1844666Y690006D01*
X1846273Y689340D01*
X1847980Y689000D01*
X1849721D01*
X1851427Y689340D01*
X1853035Y690006D01*
X1854482Y690973D01*
X1855712Y692203D01*
X1856679Y693650D01*
X1857345Y695258D01*
X1857685Y696965D01*
Y698705D01*
X1857345Y700412D01*
X1856679Y702019D01*
X1855712Y703466D01*
X1854482Y704697D01*
X1853035Y705663D01*
X1851427Y706329D01*
X1849721Y706669D01*
D02*
G37*
G36*
X1855177Y687575D02*
X1842579D01*
X1842195Y687499D01*
X1841869Y687281D01*
X1841652Y686955D01*
X1841575Y686572D01*
Y675548D01*
X1841652Y675164D01*
X1841869Y674838D01*
X1842195Y674621D01*
X1842579Y674544D01*
X1855177D01*
X1855561Y674621D01*
X1855887Y674838D01*
X1856104Y675164D01*
X1856181Y675548D01*
Y686572D01*
X1856104Y686955D01*
X1855887Y687281D01*
X1855561Y687499D01*
X1855177Y687575D01*
D02*
G37*
G36*
X1784557Y687224D02*
X1783199D01*
X1781868Y686960D01*
X1780614Y686440D01*
X1779486Y685686D01*
X1778526Y684727D01*
X1777772Y683598D01*
X1777253Y682344D01*
X1776988Y681013D01*
Y679656D01*
X1777253Y678325D01*
X1777772Y677071D01*
X1778526Y675943D01*
X1779486Y674983D01*
X1780614Y674229D01*
X1781868Y673710D01*
X1783199Y673445D01*
X1784557D01*
X1785888Y673710D01*
X1787141Y674229D01*
X1788270Y674983D01*
X1789230Y675943D01*
X1789984Y677071D01*
X1790503Y678325D01*
X1790768Y679656D01*
Y681013D01*
X1790503Y682344D01*
X1789984Y683598D01*
X1789230Y684727D01*
X1788270Y685686D01*
X1787141Y686440D01*
X1785888Y686960D01*
X1784557Y687224D01*
D02*
G37*
G36*
X1709557D02*
X1708199D01*
X1706868Y686960D01*
X1705614Y686440D01*
X1704486Y685686D01*
X1703526Y684727D01*
X1702772Y683598D01*
X1702253Y682344D01*
X1701988Y681013D01*
Y679656D01*
X1702253Y678325D01*
X1702772Y677071D01*
X1703526Y675943D01*
X1704486Y674983D01*
X1705614Y674229D01*
X1706868Y673710D01*
X1708199Y673445D01*
X1709557D01*
X1710888Y673710D01*
X1712141Y674229D01*
X1713270Y674983D01*
X1714230Y675943D01*
X1714984Y677071D01*
X1715503Y678325D01*
X1715768Y679656D01*
Y681013D01*
X1715503Y682344D01*
X1714984Y683598D01*
X1714230Y684727D01*
X1713270Y685686D01*
X1712141Y686440D01*
X1710888Y686960D01*
X1709557Y687224D01*
D02*
G37*
G36*
X1634557D02*
X1633199D01*
X1631868Y686960D01*
X1630614Y686440D01*
X1629486Y685686D01*
X1628526Y684727D01*
X1627772Y683598D01*
X1627253Y682344D01*
X1626988Y681013D01*
Y679656D01*
X1627253Y678325D01*
X1627772Y677071D01*
X1628526Y675943D01*
X1629486Y674983D01*
X1630614Y674229D01*
X1631868Y673710D01*
X1633199Y673445D01*
X1634557D01*
X1635888Y673710D01*
X1637141Y674229D01*
X1638270Y674983D01*
X1639230Y675943D01*
X1639984Y677071D01*
X1640503Y678325D01*
X1640768Y679656D01*
Y681013D01*
X1640503Y682344D01*
X1639984Y683598D01*
X1639230Y684727D01*
X1638270Y685686D01*
X1637141Y686440D01*
X1635888Y686960D01*
X1634557Y687224D01*
D02*
G37*
G36*
X1559556D02*
X1558199D01*
X1556868Y686960D01*
X1555614Y686440D01*
X1554486Y685686D01*
X1553526Y684727D01*
X1552772Y683598D01*
X1552253Y682344D01*
X1551988Y681013D01*
Y679656D01*
X1552253Y678325D01*
X1552772Y677071D01*
X1553526Y675943D01*
X1554486Y674983D01*
X1555614Y674229D01*
X1556868Y673710D01*
X1558199Y673445D01*
X1559556D01*
X1560888Y673710D01*
X1562142Y674229D01*
X1563270Y674983D01*
X1564230Y675943D01*
X1564984Y677071D01*
X1565503Y678325D01*
X1565768Y679656D01*
Y681013D01*
X1565503Y682344D01*
X1564984Y683598D01*
X1564230Y684727D01*
X1563270Y685686D01*
X1562142Y686440D01*
X1560888Y686960D01*
X1559556Y687224D01*
D02*
G37*
G36*
X1859647Y675244D02*
X1858857D01*
X1858094Y675040D01*
X1857410Y674645D01*
X1856851Y674086D01*
X1856456Y673402D01*
X1856252Y672639D01*
Y671849D01*
X1856456Y671086D01*
X1856851Y670402D01*
X1857410Y669843D01*
X1857435Y669262D01*
X1857386Y669189D01*
X1857011Y668938D01*
X1856573Y668851D01*
X1856569Y668852D01*
X1812448D01*
Y668858D01*
X1810643Y668716D01*
X1808883Y668294D01*
X1807211Y667601D01*
X1805667Y666655D01*
X1804291Y665480D01*
X1803115Y664103D01*
X1802169Y662560D01*
X1801477Y660887D01*
X1801054Y659127D01*
X1800912Y657323D01*
X1800918D01*
Y643692D01*
X1800928Y643641D01*
X1800776Y642872D01*
X1800311Y642177D01*
X1799616Y641713D01*
X1798848Y641560D01*
X1798796Y641571D01*
X1797046D01*
X1796866Y641883D01*
X1796307Y642442D01*
X1795623Y642837D01*
X1794860Y643041D01*
X1794070D01*
X1793307Y642837D01*
X1792623Y642442D01*
X1792064Y641883D01*
X1791669Y641199D01*
X1791465Y640436D01*
Y639646D01*
X1791669Y638883D01*
X1792064Y638199D01*
X1792623Y637640D01*
X1793307Y637246D01*
X1794070Y637041D01*
X1794860D01*
X1795623Y637246D01*
X1796307Y637640D01*
X1796866Y638199D01*
X1797046Y638512D01*
X1798796D01*
Y638497D01*
X1800141Y638674D01*
X1801394Y639193D01*
X1802470Y640018D01*
X1803296Y641094D01*
X1803815Y642347D01*
X1803992Y643692D01*
X1803977D01*
Y657323D01*
X1803963Y657391D01*
X1804120Y658979D01*
X1804603Y660572D01*
X1805388Y662040D01*
X1806443Y663327D01*
X1807730Y664383D01*
X1809198Y665167D01*
X1810791Y665651D01*
X1812379Y665807D01*
X1812448Y665793D01*
X1856569D01*
Y665787D01*
X1857661Y665931D01*
X1858679Y666352D01*
X1859553Y667022D01*
X1860223Y667896D01*
X1860644Y668913D01*
X1860740Y669639D01*
X1861094Y669843D01*
X1861653Y670402D01*
X1862048Y671086D01*
X1862252Y671849D01*
Y672639D01*
X1862048Y673402D01*
X1861653Y674086D01*
X1861094Y674645D01*
X1860410Y675040D01*
X1859647Y675244D01*
D02*
G37*
G36*
X1759557Y677224D02*
X1758199D01*
X1756868Y676960D01*
X1755614Y676440D01*
X1754486Y675686D01*
X1753526Y674727D01*
X1752772Y673598D01*
X1752253Y672344D01*
X1751988Y671013D01*
Y669656D01*
X1752253Y668325D01*
X1752772Y667071D01*
X1753526Y665943D01*
X1754300Y665169D01*
X1754093Y664669D01*
X1753307D01*
X1752205Y664373D01*
X1751217Y663803D01*
X1750410Y662996D01*
X1749839Y662008D01*
X1749544Y660905D01*
Y659764D01*
X1749839Y658662D01*
X1750410Y657673D01*
X1751217Y656866D01*
X1752205Y656296D01*
X1753307Y656000D01*
X1754449D01*
X1755551Y656296D01*
X1756539Y656866D01*
X1757346Y657673D01*
X1757917Y658662D01*
X1758212Y659764D01*
Y660905D01*
X1757917Y662008D01*
X1757346Y662996D01*
X1757210Y663132D01*
X1757457Y663593D01*
X1758199Y663445D01*
X1759557D01*
X1760888Y663710D01*
X1762141Y664229D01*
X1763270Y664983D01*
X1764230Y665943D01*
X1764984Y667071D01*
X1765503Y668325D01*
X1765768Y669656D01*
Y671013D01*
X1765503Y672344D01*
X1764984Y673598D01*
X1764230Y674727D01*
X1763270Y675686D01*
X1762141Y676440D01*
X1760888Y676960D01*
X1759557Y677224D01*
D02*
G37*
G36*
X1684557D02*
X1683199D01*
X1681868Y676960D01*
X1680614Y676440D01*
X1679486Y675686D01*
X1678526Y674727D01*
X1677772Y673598D01*
X1677253Y672344D01*
X1676988Y671013D01*
Y669656D01*
X1677253Y668325D01*
X1677772Y667071D01*
X1678526Y665943D01*
X1679300Y665169D01*
X1679093Y664669D01*
X1678307D01*
X1677205Y664373D01*
X1676217Y663803D01*
X1675410Y662996D01*
X1674839Y662008D01*
X1674544Y660905D01*
Y659764D01*
X1674839Y658662D01*
X1675410Y657673D01*
X1676217Y656866D01*
X1677205Y656296D01*
X1678307Y656000D01*
X1679449D01*
X1680551Y656296D01*
X1681539Y656866D01*
X1682346Y657673D01*
X1682917Y658662D01*
X1683212Y659764D01*
Y660905D01*
X1682917Y662008D01*
X1682346Y662996D01*
X1682210Y663132D01*
X1682457Y663593D01*
X1683199Y663445D01*
X1684557D01*
X1685888Y663710D01*
X1687141Y664229D01*
X1688270Y664983D01*
X1689230Y665943D01*
X1689984Y667071D01*
X1690503Y668325D01*
X1690768Y669656D01*
Y671013D01*
X1690503Y672344D01*
X1689984Y673598D01*
X1689230Y674727D01*
X1688270Y675686D01*
X1687141Y676440D01*
X1685888Y676960D01*
X1684557Y677224D01*
D02*
G37*
G36*
X1609557D02*
X1608199D01*
X1606868Y676960D01*
X1605614Y676440D01*
X1604486Y675686D01*
X1603526Y674727D01*
X1602772Y673598D01*
X1602253Y672344D01*
X1601988Y671013D01*
Y669656D01*
X1602253Y668325D01*
X1602772Y667071D01*
X1603526Y665943D01*
X1604300Y665169D01*
X1604093Y664669D01*
X1603307D01*
X1602205Y664373D01*
X1601217Y663803D01*
X1600410Y662996D01*
X1599839Y662008D01*
X1599544Y660905D01*
Y659764D01*
X1599839Y658662D01*
X1600410Y657673D01*
X1601217Y656866D01*
X1602205Y656296D01*
X1603307Y656000D01*
X1604449D01*
X1605551Y656296D01*
X1606539Y656866D01*
X1607346Y657673D01*
X1607917Y658662D01*
X1608212Y659764D01*
Y660905D01*
X1607917Y662008D01*
X1607346Y662996D01*
X1607210Y663132D01*
X1607457Y663593D01*
X1608199Y663445D01*
X1609557D01*
X1610888Y663710D01*
X1612141Y664229D01*
X1613270Y664983D01*
X1614230Y665943D01*
X1614984Y667071D01*
X1615503Y668325D01*
X1615768Y669656D01*
Y671013D01*
X1615503Y672344D01*
X1614984Y673598D01*
X1614230Y674727D01*
X1613270Y675686D01*
X1612141Y676440D01*
X1610888Y676960D01*
X1609557Y677224D01*
D02*
G37*
G36*
X1534556D02*
X1533199D01*
X1531868Y676960D01*
X1530614Y676440D01*
X1529486Y675686D01*
X1528526Y674727D01*
X1527772Y673598D01*
X1527253Y672344D01*
X1526988Y671013D01*
Y669656D01*
X1527253Y668325D01*
X1527772Y667071D01*
X1528526Y665943D01*
X1529300Y665169D01*
X1529093Y664669D01*
X1528307D01*
X1527205Y664373D01*
X1526217Y663803D01*
X1525410Y662996D01*
X1524839Y662008D01*
X1524544Y660905D01*
Y659764D01*
X1524839Y658662D01*
X1525410Y657673D01*
X1526217Y656866D01*
X1527205Y656296D01*
X1528307Y656000D01*
X1529449D01*
X1530551Y656296D01*
X1531539Y656866D01*
X1532346Y657673D01*
X1532917Y658662D01*
X1533212Y659764D01*
Y660905D01*
X1532917Y662008D01*
X1532346Y662996D01*
X1532210Y663132D01*
X1532457Y663593D01*
X1533199Y663445D01*
X1534556D01*
X1535888Y663710D01*
X1537142Y664229D01*
X1538270Y664983D01*
X1539230Y665943D01*
X1539984Y667071D01*
X1540503Y668325D01*
X1540768Y669656D01*
Y671013D01*
X1540503Y672344D01*
X1539984Y673598D01*
X1539230Y674727D01*
X1538270Y675686D01*
X1537142Y676440D01*
X1535888Y676960D01*
X1534556Y677224D01*
D02*
G37*
G36*
X1794449Y664669D02*
X1793307D01*
X1792205Y664373D01*
X1791217Y663803D01*
X1790410Y662996D01*
X1789839Y662008D01*
X1789544Y660905D01*
Y659764D01*
X1789839Y658662D01*
X1790410Y657673D01*
X1791217Y656866D01*
X1792205Y656296D01*
X1793307Y656000D01*
X1794449D01*
X1795551Y656296D01*
X1796539Y656866D01*
X1797346Y657673D01*
X1797917Y658662D01*
X1798212Y659764D01*
Y660905D01*
X1797917Y662008D01*
X1797346Y662996D01*
X1796539Y663803D01*
X1795551Y664373D01*
X1794449Y664669D01*
D02*
G37*
G36*
X1719449D02*
X1718307D01*
X1717205Y664373D01*
X1716217Y663803D01*
X1715410Y662996D01*
X1714839Y662008D01*
X1714544Y660905D01*
Y659764D01*
X1714839Y658662D01*
X1715410Y657673D01*
X1716217Y656866D01*
X1717205Y656296D01*
X1718307Y656000D01*
X1719449D01*
X1720551Y656296D01*
X1721539Y656866D01*
X1722346Y657673D01*
X1722917Y658662D01*
X1723212Y659764D01*
Y660905D01*
X1722917Y662008D01*
X1722346Y662996D01*
X1721539Y663803D01*
X1720551Y664373D01*
X1719449Y664669D01*
D02*
G37*
G36*
X1644449D02*
X1643307D01*
X1642205Y664373D01*
X1641217Y663803D01*
X1640410Y662996D01*
X1639839Y662008D01*
X1639544Y660905D01*
Y659764D01*
X1639839Y658662D01*
X1640410Y657673D01*
X1641217Y656866D01*
X1642205Y656296D01*
X1643307Y656000D01*
X1644449D01*
X1645551Y656296D01*
X1646539Y656866D01*
X1647346Y657673D01*
X1647917Y658662D01*
X1648212Y659764D01*
Y660905D01*
X1647917Y662008D01*
X1647346Y662996D01*
X1646539Y663803D01*
X1645551Y664373D01*
X1644449Y664669D01*
D02*
G37*
G36*
X1569449D02*
X1568307D01*
X1567205Y664373D01*
X1566217Y663803D01*
X1565410Y662996D01*
X1564839Y662008D01*
X1564544Y660905D01*
Y659764D01*
X1564839Y658662D01*
X1565410Y657673D01*
X1566217Y656866D01*
X1567205Y656296D01*
X1568307Y656000D01*
X1569449D01*
X1570551Y656296D01*
X1571539Y656866D01*
X1572346Y657673D01*
X1572917Y658662D01*
X1573212Y659764D01*
Y660905D01*
X1572917Y662008D01*
X1572346Y662996D01*
X1571539Y663803D01*
X1570551Y664373D01*
X1569449Y664669D01*
D02*
G37*
G36*
X1699748Y669169D02*
X1698008D01*
X1696301Y668829D01*
X1694693Y668163D01*
X1693246Y667197D01*
X1692016Y665966D01*
X1691049Y664519D01*
X1690383Y662912D01*
X1690044Y661205D01*
Y659465D01*
X1690383Y657758D01*
X1691049Y656150D01*
X1692016Y654703D01*
X1693246Y653473D01*
X1694693Y652506D01*
X1696301Y651840D01*
X1698008Y651500D01*
X1699748D01*
X1701455Y651840D01*
X1703062Y652506D01*
X1704510Y653473D01*
X1705740Y654703D01*
X1706707Y656150D01*
X1707373Y657758D01*
X1707712Y659465D01*
Y661205D01*
X1707373Y662912D01*
X1706707Y664519D01*
X1705740Y665966D01*
X1704510Y667197D01*
X1703062Y668163D01*
X1701455Y668829D01*
X1699748Y669169D01*
D02*
G37*
G36*
X1624748D02*
X1623008D01*
X1621301Y668829D01*
X1619693Y668163D01*
X1618246Y667197D01*
X1617016Y665966D01*
X1616049Y664519D01*
X1615383Y662912D01*
X1615044Y661205D01*
Y659465D01*
X1615383Y657758D01*
X1616049Y656150D01*
X1617016Y654703D01*
X1618246Y653473D01*
X1619693Y652506D01*
X1621301Y651840D01*
X1623008Y651500D01*
X1624748D01*
X1626455Y651840D01*
X1628062Y652506D01*
X1629510Y653473D01*
X1630740Y654703D01*
X1631707Y656150D01*
X1632373Y657758D01*
X1632712Y659465D01*
Y661205D01*
X1632373Y662912D01*
X1631707Y664519D01*
X1630740Y665966D01*
X1629510Y667197D01*
X1628062Y668163D01*
X1626455Y668829D01*
X1624748Y669169D01*
D02*
G37*
G36*
X1549748D02*
X1548008D01*
X1546301Y668829D01*
X1544693Y668163D01*
X1543246Y667197D01*
X1542016Y665966D01*
X1541049Y664519D01*
X1540383Y662912D01*
X1540044Y661205D01*
Y659465D01*
X1540383Y657758D01*
X1541049Y656150D01*
X1542016Y654703D01*
X1543246Y653473D01*
X1544693Y652506D01*
X1546301Y651840D01*
X1548008Y651500D01*
X1549748D01*
X1551455Y651840D01*
X1553063Y652506D01*
X1554510Y653473D01*
X1555740Y654703D01*
X1556707Y656150D01*
X1557373Y657758D01*
X1557712Y659465D01*
Y661205D01*
X1557373Y662912D01*
X1556707Y664519D01*
X1555740Y665966D01*
X1554510Y667197D01*
X1553063Y668163D01*
X1551455Y668829D01*
X1549748Y669169D01*
D02*
G37*
G36*
X1794860Y649745D02*
X1794070D01*
X1793307Y649541D01*
X1792623Y649146D01*
X1792064Y648587D01*
X1791669Y647903D01*
X1791585Y647589D01*
X1790783Y647160D01*
X1789779Y646336D01*
X1788955Y645332D01*
X1788343Y644186D01*
X1787966Y642943D01*
X1787838Y641650D01*
X1787841D01*
Y635430D01*
X1787838D01*
X1787966Y634137D01*
X1788343Y632894D01*
X1788955Y631748D01*
X1789779Y630744D01*
X1790783Y629920D01*
X1791929Y629307D01*
X1793172Y628930D01*
X1794465Y628803D01*
Y628803D01*
X1794931Y628720D01*
X1795012Y628703D01*
X1795476Y628393D01*
X1795786Y627929D01*
X1795892Y627399D01*
X1795889Y627382D01*
Y626492D01*
X1795048D01*
Y620177D01*
X1799788D01*
Y626492D01*
X1798947D01*
Y627382D01*
X1798956D01*
X1798803Y628544D01*
X1798355Y629628D01*
X1797641Y630558D01*
X1796711Y631271D01*
X1795628Y631720D01*
X1794465Y631873D01*
Y631873D01*
X1793983Y631917D01*
X1793540Y631976D01*
X1792677Y632333D01*
X1791937Y632901D01*
X1791368Y633642D01*
X1791011Y634504D01*
X1790894Y635399D01*
X1790899Y635430D01*
Y641650D01*
X1790894Y641680D01*
X1791011Y642576D01*
X1791368Y643438D01*
X1791937Y644178D01*
X1792419Y644549D01*
X1792623Y644345D01*
X1793307Y643950D01*
X1794070Y643745D01*
X1794860D01*
X1795623Y643950D01*
X1796307Y644345D01*
X1796866Y644903D01*
X1797261Y645587D01*
X1797465Y646350D01*
Y647140D01*
X1797261Y647903D01*
X1796866Y648587D01*
X1796307Y649146D01*
X1795623Y649541D01*
X1794860Y649745D01*
D02*
G37*
G36*
X1877066Y657689D02*
X1875690D01*
X1874341Y657421D01*
X1873070Y656894D01*
X1871926Y656130D01*
X1870953Y655157D01*
X1870189Y654013D01*
X1869662Y652742D01*
X1869394Y651393D01*
Y650017D01*
X1869662Y648667D01*
X1870189Y647396D01*
X1870953Y646252D01*
X1871926Y645280D01*
X1873070Y644515D01*
X1874341Y643989D01*
X1875690Y643720D01*
X1877066D01*
X1878415Y643989D01*
X1879686Y644515D01*
X1880830Y645280D01*
X1881803Y646252D01*
X1882567Y647396D01*
X1883094Y648667D01*
X1883362Y650017D01*
Y651393D01*
X1883094Y652742D01*
X1882567Y654013D01*
X1881803Y655157D01*
X1880830Y656130D01*
X1879686Y656894D01*
X1878415Y657421D01*
X1877066Y657689D01*
D02*
G37*
G36*
X1519273Y718841D02*
X1518483D01*
X1517720Y718636D01*
X1517036Y718241D01*
X1516477Y717683D01*
X1516082Y716998D01*
X1515878Y716235D01*
Y715446D01*
X1516082Y714683D01*
X1516477Y713999D01*
X1517036Y713440D01*
X1517349Y713259D01*
Y656653D01*
X1517342D01*
X1517484Y654849D01*
X1517907Y653089D01*
X1518600Y651416D01*
X1519545Y649873D01*
X1520721Y648497D01*
X1522097Y647321D01*
X1523641Y646375D01*
X1525313Y645683D01*
X1526835Y645317D01*
X1527127Y644811D01*
X1527686Y644253D01*
X1528370Y643858D01*
X1529133Y643653D01*
X1529922D01*
X1530686Y643858D01*
X1531370Y644253D01*
X1531928Y644811D01*
X1532323Y645496D01*
X1532528Y646259D01*
Y647049D01*
X1532323Y647812D01*
X1531928Y648496D01*
X1531370Y649054D01*
X1530686Y649449D01*
X1529922Y649653D01*
X1529133D01*
X1528370Y649449D01*
X1527686Y649054D01*
X1527127Y648496D01*
X1527058Y648376D01*
X1525629Y648809D01*
X1524161Y649594D01*
X1522874Y650650D01*
X1521818Y651936D01*
X1521033Y653404D01*
X1520550Y654997D01*
X1520394Y656585D01*
X1520407Y656653D01*
Y713259D01*
X1520720Y713440D01*
X1521278Y713999D01*
X1521673Y714683D01*
X1521878Y715446D01*
Y716235D01*
X1521673Y716998D01*
X1521278Y717683D01*
X1520720Y718241D01*
X1520036Y718636D01*
X1519273Y718841D01*
D02*
G37*
G36*
X1817248Y659539D02*
X1815508D01*
X1813801Y659200D01*
X1812193Y658534D01*
X1810746Y657567D01*
X1809516Y656336D01*
X1808549Y654889D01*
X1807883Y653282D01*
X1807543Y651575D01*
Y649835D01*
X1807883Y648128D01*
X1808549Y646520D01*
X1809516Y645073D01*
X1810746Y643842D01*
X1812193Y642876D01*
X1813801Y642210D01*
X1815508Y641870D01*
X1817248D01*
X1818955Y642210D01*
X1820563Y642876D01*
X1822010Y643842D01*
X1823240Y645073D01*
X1824207Y646520D01*
X1824873Y648128D01*
X1825213Y649835D01*
Y651575D01*
X1824873Y653282D01*
X1824207Y654889D01*
X1823240Y656336D01*
X1822010Y657567D01*
X1820563Y658534D01*
X1818955Y659200D01*
X1817248Y659539D01*
D02*
G37*
G36*
X1780177Y650208D02*
X1767579D01*
X1767195Y650131D01*
X1766869Y649914D01*
X1766652Y649588D01*
X1766575Y649204D01*
Y638180D01*
X1766652Y637796D01*
X1766869Y637471D01*
X1767195Y637253D01*
X1767579Y637177D01*
X1780177D01*
X1780561Y637253D01*
X1780887Y637471D01*
X1781104Y637796D01*
X1781181Y638180D01*
Y649204D01*
X1781104Y649588D01*
X1780887Y649914D01*
X1780561Y650131D01*
X1780177Y650208D01*
D02*
G37*
G36*
X1705177D02*
X1692579D01*
X1692195Y650131D01*
X1691869Y649914D01*
X1691652Y649588D01*
X1691575Y649204D01*
Y638180D01*
X1691652Y637796D01*
X1691869Y637471D01*
X1692195Y637253D01*
X1692579Y637177D01*
X1705177D01*
X1705561Y637253D01*
X1705887Y637471D01*
X1706104Y637796D01*
X1706181Y638180D01*
Y649204D01*
X1706104Y649588D01*
X1705887Y649914D01*
X1705561Y650131D01*
X1705177Y650208D01*
D02*
G37*
G36*
X1630177D02*
X1617579D01*
X1617195Y650131D01*
X1616869Y649914D01*
X1616652Y649588D01*
X1616575Y649204D01*
Y638180D01*
X1616652Y637796D01*
X1616869Y637471D01*
X1617195Y637253D01*
X1617579Y637177D01*
X1630177D01*
X1630561Y637253D01*
X1630887Y637471D01*
X1631104Y637796D01*
X1631181Y638180D01*
Y649204D01*
X1631104Y649588D01*
X1630887Y649914D01*
X1630561Y650131D01*
X1630177Y650208D01*
D02*
G37*
G36*
X1555177D02*
X1542579D01*
X1542195Y650131D01*
X1541869Y649914D01*
X1541652Y649588D01*
X1541575Y649204D01*
Y638180D01*
X1541652Y637796D01*
X1541869Y637471D01*
X1542195Y637253D01*
X1542579Y637177D01*
X1555177D01*
X1555561Y637253D01*
X1555887Y637471D01*
X1556104Y637796D01*
X1556181Y638180D01*
Y649204D01*
X1556104Y649588D01*
X1555887Y649914D01*
X1555561Y650131D01*
X1555177Y650208D01*
D02*
G37*
G36*
X1755316Y642764D02*
X1754526D01*
X1753763Y642559D01*
X1753079Y642164D01*
X1752521Y641606D01*
X1752126Y640922D01*
X1751921Y640159D01*
Y639369D01*
X1752126Y638606D01*
X1752521Y637922D01*
X1753079Y637363D01*
X1753392Y637183D01*
Y632502D01*
X1753079Y632322D01*
X1752521Y631763D01*
X1752126Y631079D01*
X1751921Y630316D01*
Y629526D01*
X1752126Y628763D01*
X1752521Y628079D01*
X1753079Y627521D01*
X1753763Y627126D01*
X1754526Y626921D01*
X1755316D01*
X1756079Y627126D01*
X1756763Y627521D01*
X1757322Y628079D01*
X1757717Y628763D01*
X1757921Y629526D01*
Y630316D01*
X1757717Y631079D01*
X1757322Y631763D01*
X1756763Y632322D01*
X1756451Y632502D01*
Y637183D01*
X1756763Y637363D01*
X1757322Y637922D01*
X1757717Y638606D01*
X1757921Y639369D01*
Y640159D01*
X1757717Y640922D01*
X1757322Y641606D01*
X1756763Y642164D01*
X1756079Y642559D01*
X1755316Y642764D01*
D02*
G37*
G36*
X1680513D02*
X1679723D01*
X1678960Y642559D01*
X1678276Y642164D01*
X1677718Y641606D01*
X1677323Y640922D01*
X1677118Y640159D01*
Y639369D01*
X1677323Y638606D01*
X1677718Y637922D01*
X1678276Y637363D01*
X1678589Y637183D01*
Y632502D01*
X1678276Y632322D01*
X1677718Y631763D01*
X1677323Y631079D01*
X1677118Y630316D01*
Y629526D01*
X1677323Y628763D01*
X1677718Y628079D01*
X1678276Y627521D01*
X1678960Y627126D01*
X1679723Y626921D01*
X1680513D01*
X1681276Y627126D01*
X1681960Y627521D01*
X1682519Y628079D01*
X1682914Y628763D01*
X1683118Y629526D01*
Y630316D01*
X1682914Y631079D01*
X1682519Y631763D01*
X1681960Y632322D01*
X1681647Y632502D01*
Y637183D01*
X1681960Y637363D01*
X1682519Y637922D01*
X1682914Y638606D01*
X1683118Y639369D01*
Y640159D01*
X1682914Y640922D01*
X1682519Y641606D01*
X1681960Y642164D01*
X1681276Y642559D01*
X1680513Y642764D01*
D02*
G37*
G36*
X1605710D02*
X1604920D01*
X1604157Y642559D01*
X1603473Y642164D01*
X1602914Y641606D01*
X1602519Y640922D01*
X1602315Y640159D01*
Y639369D01*
X1602519Y638606D01*
X1602914Y637922D01*
X1603473Y637363D01*
X1603786Y637183D01*
Y632502D01*
X1603473Y632322D01*
X1602914Y631763D01*
X1602519Y631079D01*
X1602315Y630316D01*
Y629526D01*
X1602519Y628763D01*
X1602914Y628079D01*
X1603473Y627521D01*
X1604157Y627126D01*
X1604920Y626921D01*
X1605710D01*
X1606473Y627126D01*
X1607157Y627521D01*
X1607716Y628079D01*
X1608110Y628763D01*
X1608315Y629526D01*
Y630316D01*
X1608110Y631079D01*
X1607716Y631763D01*
X1607157Y632322D01*
X1606844Y632502D01*
Y637183D01*
X1607157Y637363D01*
X1607716Y637922D01*
X1608110Y638606D01*
X1608315Y639369D01*
Y640159D01*
X1608110Y640922D01*
X1607716Y641606D01*
X1607157Y642164D01*
X1606473Y642559D01*
X1605710Y642764D01*
D02*
G37*
G36*
X1529922D02*
X1529133D01*
X1528370Y642559D01*
X1527686Y642164D01*
X1527127Y641606D01*
X1526732Y640922D01*
X1526528Y640159D01*
Y639369D01*
X1526732Y638606D01*
X1527127Y637922D01*
X1527686Y637363D01*
X1527998Y637183D01*
Y632502D01*
X1527686Y632322D01*
X1527127Y631763D01*
X1526732Y631079D01*
X1526528Y630316D01*
Y629526D01*
X1526732Y628763D01*
X1527127Y628079D01*
X1527686Y627521D01*
X1528370Y627126D01*
X1529133Y626921D01*
X1529922D01*
X1530686Y627126D01*
X1531370Y627521D01*
X1531928Y628079D01*
X1532323Y628763D01*
X1532528Y629526D01*
Y630316D01*
X1532323Y631079D01*
X1531928Y631763D01*
X1531370Y632322D01*
X1531057Y632502D01*
Y637183D01*
X1531370Y637363D01*
X1531928Y637922D01*
X1532323Y638606D01*
X1532528Y639369D01*
Y640159D01*
X1532323Y640922D01*
X1531928Y641606D01*
X1531370Y642164D01*
X1530686Y642559D01*
X1529922Y642764D01*
D02*
G37*
G36*
X1793882Y626492D02*
X1791762D01*
Y623585D01*
X1793882D01*
Y626492D01*
D02*
G37*
G36*
X1718797D02*
X1716677D01*
Y623585D01*
X1718797D01*
Y626492D01*
D02*
G37*
G36*
X1568906D02*
X1566785D01*
Y623585D01*
X1568906D01*
Y626492D01*
D02*
G37*
G36*
X1643905D02*
X1641785D01*
Y623585D01*
X1643905D01*
Y626492D01*
D02*
G37*
G36*
X1641285D02*
X1639165D01*
Y623585D01*
X1641285D01*
Y626492D01*
D02*
G37*
G36*
X1566285D02*
X1564165D01*
Y623585D01*
X1566285D01*
Y626492D01*
D02*
G37*
G36*
X1716177D02*
X1714057D01*
Y623585D01*
X1716177D01*
Y626492D01*
D02*
G37*
G36*
X1791262D02*
X1789142D01*
Y623585D01*
X1791262D01*
Y626492D01*
D02*
G37*
G36*
X1793882Y623085D02*
X1791762D01*
Y620177D01*
X1793882D01*
Y623085D01*
D02*
G37*
G36*
X1791262D02*
X1789142D01*
Y620177D01*
X1791262D01*
Y623085D01*
D02*
G37*
G36*
X1717915Y649653D02*
X1717125D01*
X1716362Y649449D01*
X1715678Y649054D01*
X1715119Y648496D01*
X1714724Y647812D01*
X1714520Y647049D01*
Y646259D01*
X1714724Y645496D01*
X1715119Y644811D01*
X1715678Y644253D01*
X1716362Y643858D01*
X1717125Y643653D01*
X1717915D01*
X1718678Y643858D01*
X1719362Y644253D01*
X1719364Y644255D01*
X1719895Y644104D01*
X1720370Y643486D01*
X1720699Y642692D01*
X1720808Y641863D01*
X1720803Y641841D01*
Y626492D01*
X1719963D01*
Y620177D01*
X1724703D01*
Y626492D01*
X1723862D01*
Y641841D01*
X1723863D01*
X1723741Y643078D01*
X1723380Y644268D01*
X1722794Y645365D01*
X1722005Y646326D01*
X1721044Y647115D01*
X1720411Y647453D01*
X1720315Y647812D01*
X1719920Y648496D01*
X1719362Y649054D01*
X1718678Y649449D01*
X1717915Y649653D01*
D02*
G37*
G36*
X1718797Y623085D02*
X1716677D01*
Y620177D01*
X1718797D01*
Y623085D01*
D02*
G37*
G36*
X1716177D02*
X1714057D01*
Y620177D01*
X1716177D01*
Y623085D01*
D02*
G37*
G36*
X1642127Y649653D02*
X1641337D01*
X1640574Y649449D01*
X1639890Y649054D01*
X1639332Y648496D01*
X1638937Y647812D01*
X1638732Y647049D01*
Y646259D01*
X1638937Y645496D01*
X1639332Y644811D01*
X1639890Y644253D01*
X1640574Y643858D01*
X1641337Y643653D01*
X1642127D01*
X1642890Y643858D01*
X1643574Y644253D01*
X1643869Y644547D01*
X1644698Y643911D01*
X1645365Y643042D01*
X1645784Y642030D01*
X1645921Y640991D01*
X1645912Y640945D01*
Y626492D01*
X1645071D01*
Y620177D01*
X1649811D01*
Y626492D01*
X1648970D01*
Y640945D01*
X1648976D01*
X1648837Y642358D01*
X1648425Y643717D01*
X1647755Y644969D01*
X1646854Y646067D01*
X1645757Y646968D01*
X1644586Y647593D01*
X1644528Y647812D01*
X1644133Y648496D01*
X1643574Y649054D01*
X1642890Y649449D01*
X1642127Y649653D01*
D02*
G37*
G36*
X1643905Y623085D02*
X1641785D01*
Y620177D01*
X1643905D01*
Y623085D01*
D02*
G37*
G36*
X1641285D02*
X1639165D01*
Y620177D01*
X1641285D01*
Y623085D01*
D02*
G37*
G36*
X1568308Y649653D02*
X1567518D01*
X1566755Y649449D01*
X1566071Y649054D01*
X1565513Y648496D01*
X1565118Y647812D01*
X1564913Y647049D01*
Y646259D01*
X1565118Y645496D01*
X1565513Y644811D01*
X1566071Y644253D01*
X1566755Y643858D01*
X1567518Y643653D01*
X1568308D01*
X1569071Y643858D01*
X1569755Y644253D01*
X1570220Y644011D01*
X1570514Y643628D01*
X1570814Y642903D01*
X1570915Y642141D01*
X1570912Y642126D01*
Y626492D01*
X1570071D01*
Y620177D01*
X1574811D01*
Y626492D01*
X1573970D01*
Y642126D01*
X1573970Y642128D01*
X1573854Y643308D01*
X1573509Y644444D01*
X1572949Y645491D01*
X1572196Y646409D01*
X1571278Y647162D01*
X1570817Y647409D01*
X1570709Y647812D01*
X1570314Y648496D01*
X1569755Y649054D01*
X1569071Y649449D01*
X1568308Y649653D01*
D02*
G37*
G36*
X1568906Y623085D02*
X1566785D01*
Y620177D01*
X1568906D01*
Y623085D01*
D02*
G37*
G36*
X1566285D02*
X1564165D01*
Y620177D01*
X1566285D01*
Y623085D01*
D02*
G37*
G36*
X1552292Y630512D02*
X1550857D01*
X1549450Y630232D01*
X1548125Y629683D01*
X1546932Y628886D01*
X1545917Y627871D01*
X1545120Y626678D01*
X1544571Y625353D01*
X1544291Y623946D01*
Y622511D01*
X1544571Y621104D01*
X1545120Y619778D01*
X1545917Y618585D01*
X1546932Y617571D01*
X1548125Y616774D01*
X1549450Y616225D01*
X1550857Y615945D01*
X1552292D01*
X1553699Y616225D01*
X1555025Y616774D01*
X1556218Y617571D01*
X1557232Y618585D01*
X1558029Y619778D01*
X1558578Y621104D01*
X1558858Y622511D01*
Y623946D01*
X1558578Y625353D01*
X1558029Y626678D01*
X1557232Y627871D01*
X1556218Y628886D01*
X1555025Y629683D01*
X1553699Y630232D01*
X1552292Y630512D01*
D02*
G37*
G36*
X1784557Y612382D02*
X1783199D01*
X1781868Y612117D01*
X1780614Y611598D01*
X1779486Y610844D01*
X1778526Y609884D01*
X1777772Y608756D01*
X1777253Y607502D01*
X1776988Y606171D01*
Y604813D01*
X1777253Y603482D01*
X1777772Y602229D01*
X1778526Y601100D01*
X1779486Y600140D01*
X1780614Y599387D01*
X1781868Y598867D01*
X1783199Y598602D01*
X1784557D01*
X1785888Y598867D01*
X1787141Y599387D01*
X1788270Y600140D01*
X1789230Y601100D01*
X1789984Y602229D01*
X1790503Y603482D01*
X1790768Y604813D01*
Y606171D01*
X1790503Y607502D01*
X1789984Y608756D01*
X1789230Y609884D01*
X1788270Y610844D01*
X1787141Y611598D01*
X1785888Y612117D01*
X1784557Y612382D01*
D02*
G37*
G36*
X1709557Y612323D02*
X1708199D01*
X1706868Y612058D01*
X1705614Y611539D01*
X1704486Y610785D01*
X1703526Y609825D01*
X1702772Y608697D01*
X1702253Y607443D01*
X1701988Y606112D01*
Y604754D01*
X1702253Y603423D01*
X1702772Y602170D01*
X1703526Y601041D01*
X1704486Y600081D01*
X1705614Y599327D01*
X1706868Y598808D01*
X1708199Y598543D01*
X1709557D01*
X1710888Y598808D01*
X1712141Y599327D01*
X1713270Y600081D01*
X1714230Y601041D01*
X1714984Y602170D01*
X1715503Y603423D01*
X1715768Y604754D01*
Y606112D01*
X1715503Y607443D01*
X1714984Y608697D01*
X1714230Y609825D01*
X1713270Y610785D01*
X1712141Y611539D01*
X1710888Y612058D01*
X1709557Y612323D01*
D02*
G37*
G36*
X1634557D02*
X1633199D01*
X1631868Y612058D01*
X1630614Y611539D01*
X1629486Y610785D01*
X1628526Y609825D01*
X1627772Y608697D01*
X1627253Y607443D01*
X1626988Y606112D01*
Y604754D01*
X1627253Y603423D01*
X1627772Y602170D01*
X1628526Y601041D01*
X1629486Y600081D01*
X1630614Y599327D01*
X1631868Y598808D01*
X1633199Y598543D01*
X1634557D01*
X1635888Y598808D01*
X1637141Y599327D01*
X1638270Y600081D01*
X1639230Y601041D01*
X1639984Y602170D01*
X1640503Y603423D01*
X1640768Y604754D01*
Y606112D01*
X1640503Y607443D01*
X1639984Y608697D01*
X1639230Y609825D01*
X1638270Y610785D01*
X1637141Y611539D01*
X1635888Y612058D01*
X1634557Y612323D01*
D02*
G37*
G36*
X1559556D02*
X1558199D01*
X1556868Y612058D01*
X1555614Y611539D01*
X1554486Y610785D01*
X1553526Y609825D01*
X1552772Y608697D01*
X1552253Y607443D01*
X1551988Y606112D01*
Y604754D01*
X1552253Y603423D01*
X1552772Y602170D01*
X1553526Y601041D01*
X1554486Y600081D01*
X1555614Y599327D01*
X1556868Y598808D01*
X1558199Y598543D01*
X1559556D01*
X1560888Y598808D01*
X1562142Y599327D01*
X1563270Y600081D01*
X1564230Y601041D01*
X1564984Y602170D01*
X1565503Y603423D01*
X1565768Y604754D01*
Y606112D01*
X1565503Y607443D01*
X1564984Y608697D01*
X1564230Y609825D01*
X1563270Y610785D01*
X1562142Y611539D01*
X1560888Y612058D01*
X1559556Y612323D01*
D02*
G37*
G36*
X1759557Y602382D02*
X1758199D01*
X1756868Y602117D01*
X1755614Y601598D01*
X1754486Y600844D01*
X1753526Y599884D01*
X1752772Y598756D01*
X1752253Y597502D01*
X1751988Y596171D01*
Y594813D01*
X1752253Y593482D01*
X1752772Y592229D01*
X1753526Y591100D01*
X1754300Y590326D01*
X1754093Y589826D01*
X1753307D01*
X1752205Y589531D01*
X1751217Y588960D01*
X1750410Y588153D01*
X1749839Y587165D01*
X1749544Y586063D01*
Y584922D01*
X1749839Y583819D01*
X1750410Y582831D01*
X1751217Y582024D01*
X1752205Y581453D01*
X1753307Y581158D01*
X1754449D01*
X1755551Y581453D01*
X1756539Y582024D01*
X1757346Y582831D01*
X1757917Y583819D01*
X1758212Y584922D01*
Y586063D01*
X1757917Y587165D01*
X1757346Y588153D01*
X1757210Y588289D01*
X1757457Y588750D01*
X1758199Y588602D01*
X1759557D01*
X1760888Y588867D01*
X1762141Y589387D01*
X1763270Y590140D01*
X1764230Y591100D01*
X1764984Y592229D01*
X1765503Y593482D01*
X1765768Y594813D01*
Y596171D01*
X1765503Y597502D01*
X1764984Y598756D01*
X1764230Y599884D01*
X1763270Y600844D01*
X1762141Y601598D01*
X1760888Y602117D01*
X1759557Y602382D01*
D02*
G37*
G36*
X1684557Y602323D02*
X1683199D01*
X1681868Y602058D01*
X1680614Y601539D01*
X1679486Y600785D01*
X1678526Y599825D01*
X1677772Y598697D01*
X1677253Y597443D01*
X1676988Y596112D01*
Y594755D01*
X1677253Y593423D01*
X1677772Y592170D01*
X1678526Y591041D01*
X1679300Y590267D01*
X1679093Y589767D01*
X1678307D01*
X1677205Y589472D01*
X1676217Y588901D01*
X1675410Y588094D01*
X1674839Y587106D01*
X1674544Y586004D01*
Y584863D01*
X1674839Y583760D01*
X1675410Y582772D01*
X1676217Y581965D01*
X1677205Y581394D01*
X1678307Y581099D01*
X1679449D01*
X1680551Y581394D01*
X1681539Y581965D01*
X1682346Y582772D01*
X1682917Y583760D01*
X1683212Y584863D01*
Y586004D01*
X1682917Y587106D01*
X1682346Y588094D01*
X1682210Y588230D01*
X1682457Y588691D01*
X1683199Y588543D01*
X1684557D01*
X1685888Y588808D01*
X1687141Y589327D01*
X1688270Y590081D01*
X1689230Y591041D01*
X1689984Y592170D01*
X1690503Y593423D01*
X1690768Y594755D01*
Y596112D01*
X1690503Y597443D01*
X1689984Y598697D01*
X1689230Y599825D01*
X1688270Y600785D01*
X1687141Y601539D01*
X1685888Y602058D01*
X1684557Y602323D01*
D02*
G37*
G36*
X1609557D02*
X1608199D01*
X1606868Y602058D01*
X1605614Y601539D01*
X1604486Y600785D01*
X1603526Y599825D01*
X1602772Y598697D01*
X1602253Y597443D01*
X1601988Y596112D01*
Y594755D01*
X1602253Y593423D01*
X1602772Y592170D01*
X1603526Y591041D01*
X1604300Y590267D01*
X1604093Y589767D01*
X1603307D01*
X1602205Y589472D01*
X1601217Y588901D01*
X1600410Y588094D01*
X1599839Y587106D01*
X1599544Y586004D01*
Y584863D01*
X1599839Y583760D01*
X1600410Y582772D01*
X1601217Y581965D01*
X1602205Y581394D01*
X1603307Y581099D01*
X1604449D01*
X1605551Y581394D01*
X1606539Y581965D01*
X1607346Y582772D01*
X1607917Y583760D01*
X1608212Y584863D01*
Y586004D01*
X1607917Y587106D01*
X1607346Y588094D01*
X1607210Y588230D01*
X1607457Y588691D01*
X1608199Y588543D01*
X1609557D01*
X1610888Y588808D01*
X1612141Y589327D01*
X1613270Y590081D01*
X1614230Y591041D01*
X1614984Y592170D01*
X1615503Y593423D01*
X1615768Y594755D01*
Y596112D01*
X1615503Y597443D01*
X1614984Y598697D01*
X1614230Y599825D01*
X1613270Y600785D01*
X1612141Y601539D01*
X1610888Y602058D01*
X1609557Y602323D01*
D02*
G37*
G36*
X1534556D02*
X1533199D01*
X1531868Y602058D01*
X1530614Y601539D01*
X1529486Y600785D01*
X1528526Y599825D01*
X1527772Y598697D01*
X1527253Y597443D01*
X1526988Y596112D01*
Y594755D01*
X1527253Y593423D01*
X1527772Y592170D01*
X1528526Y591041D01*
X1529300Y590267D01*
X1529093Y589767D01*
X1528307D01*
X1527205Y589472D01*
X1526217Y588901D01*
X1525410Y588094D01*
X1524839Y587106D01*
X1524544Y586004D01*
Y584863D01*
X1524839Y583760D01*
X1525410Y582772D01*
X1526217Y581965D01*
X1527205Y581394D01*
X1528307Y581099D01*
X1529449D01*
X1530551Y581394D01*
X1531539Y581965D01*
X1532346Y582772D01*
X1532917Y583760D01*
X1533212Y584863D01*
Y586004D01*
X1532917Y587106D01*
X1532346Y588094D01*
X1532210Y588230D01*
X1532457Y588691D01*
X1533199Y588543D01*
X1534556D01*
X1535888Y588808D01*
X1537142Y589327D01*
X1538270Y590081D01*
X1539230Y591041D01*
X1539984Y592170D01*
X1540503Y593423D01*
X1540768Y594755D01*
Y596112D01*
X1540503Y597443D01*
X1539984Y598697D01*
X1539230Y599825D01*
X1538270Y600785D01*
X1537142Y601539D01*
X1535888Y602058D01*
X1534556Y602323D01*
D02*
G37*
G36*
X1877066Y601689D02*
X1875690D01*
X1874341Y601421D01*
X1873070Y600894D01*
X1871926Y600130D01*
X1870953Y599157D01*
X1870189Y598013D01*
X1869662Y596742D01*
X1869394Y595393D01*
Y594017D01*
X1869662Y592667D01*
X1870189Y591396D01*
X1870953Y590252D01*
X1871926Y589280D01*
X1873070Y588515D01*
X1874341Y587989D01*
X1875690Y587720D01*
X1877066D01*
X1878415Y587989D01*
X1879686Y588515D01*
X1880830Y589280D01*
X1881803Y590252D01*
X1882567Y591396D01*
X1883094Y592667D01*
X1883362Y594017D01*
Y595393D01*
X1883094Y596742D01*
X1882567Y598013D01*
X1881803Y599157D01*
X1880830Y600130D01*
X1879686Y600894D01*
X1878415Y601421D01*
X1877066Y601689D01*
D02*
G37*
G36*
X1774748Y669169D02*
X1773008D01*
X1771301Y668829D01*
X1769693Y668163D01*
X1768246Y667197D01*
X1767016Y665966D01*
X1766049Y664519D01*
X1765383Y662912D01*
X1765044Y661205D01*
Y659465D01*
X1765383Y657758D01*
X1766049Y656150D01*
X1767016Y654703D01*
X1768246Y653473D01*
X1769693Y652506D01*
X1771301Y651840D01*
X1773008Y651500D01*
X1774748D01*
X1776455Y651840D01*
X1778062Y652506D01*
X1779510Y653473D01*
X1780740Y654703D01*
X1781707Y656150D01*
X1781959Y656758D01*
X1782433Y656694D01*
Y655904D01*
X1782637Y655141D01*
X1783032Y654457D01*
X1783591Y653899D01*
X1783904Y653718D01*
Y620079D01*
X1783903D01*
X1784023Y618858D01*
X1784379Y617685D01*
X1784957Y616604D01*
X1785735Y615656D01*
X1786683Y614878D01*
X1787764Y614300D01*
X1788937Y613944D01*
X1790158Y613824D01*
Y613825D01*
X1796238D01*
X1796418Y613512D01*
X1796977Y612954D01*
X1797661Y612559D01*
X1798424Y612354D01*
X1799214D01*
X1799977Y612559D01*
X1800661Y612954D01*
X1801045Y613338D01*
X1801611Y613104D01*
X1802768Y612217D01*
X1803655Y611060D01*
X1804213Y609713D01*
X1804392Y608350D01*
X1804376Y608268D01*
Y543526D01*
X1804063Y543345D01*
X1803505Y542787D01*
X1803110Y542103D01*
X1803015Y541748D01*
X1802497D01*
X1802402Y542103D01*
X1802007Y542787D01*
X1801448Y543345D01*
X1800764Y543740D01*
X1800001Y543945D01*
X1799211D01*
X1798448Y543740D01*
X1797764Y543345D01*
X1797206Y542787D01*
X1796811Y542103D01*
X1796606Y541340D01*
Y540550D01*
X1796811Y539787D01*
X1797206Y539103D01*
X1797764Y538544D01*
X1798077Y538364D01*
Y530079D01*
X1798071D01*
X1798213Y528274D01*
X1798635Y526514D01*
X1799328Y524842D01*
X1800274Y523298D01*
X1801449Y521922D01*
X1802826Y520746D01*
X1804369Y519801D01*
X1806042Y519108D01*
X1807802Y518685D01*
X1809606Y518543D01*
Y518549D01*
X1815529D01*
X1815710Y518237D01*
X1816268Y517678D01*
X1816952Y517283D01*
X1817715Y517079D01*
X1818505D01*
X1819268Y517283D01*
X1819952Y517678D01*
X1820511Y518237D01*
X1820906Y518921D01*
X1821110Y519684D01*
Y520474D01*
X1820906Y521237D01*
X1820511Y521921D01*
X1819952Y522479D01*
X1819268Y522874D01*
X1818505Y523079D01*
X1817715D01*
X1816952Y522874D01*
X1816268Y522479D01*
X1815710Y521921D01*
X1815529Y521608D01*
X1809606D01*
X1809538Y521595D01*
X1807950Y521751D01*
X1806357Y522234D01*
X1804889Y523019D01*
X1803602Y524075D01*
X1802546Y525361D01*
X1801762Y526829D01*
X1801279Y528422D01*
X1801122Y530011D01*
X1801136Y530079D01*
Y538364D01*
X1801448Y538544D01*
X1802007Y539103D01*
X1802402Y539787D01*
X1802497Y540142D01*
X1803015D01*
X1803110Y539787D01*
X1803505Y539103D01*
X1804063Y538544D01*
X1804748Y538149D01*
X1805511Y537945D01*
X1806301D01*
X1807063Y538149D01*
X1807748Y538544D01*
X1808306Y539103D01*
X1808701Y539787D01*
X1808905Y540550D01*
Y541340D01*
X1808701Y542103D01*
X1808306Y542787D01*
X1807748Y543345D01*
X1807435Y543526D01*
Y591902D01*
X1807935Y592002D01*
X1808549Y590520D01*
X1809516Y589073D01*
X1810746Y587842D01*
X1812193Y586876D01*
X1813801Y586210D01*
X1815508Y585870D01*
X1817248D01*
X1818955Y586210D01*
X1820563Y586876D01*
X1822010Y587842D01*
X1823240Y589073D01*
X1824207Y590520D01*
X1824873Y592128D01*
X1825213Y593835D01*
Y595575D01*
X1824873Y597282D01*
X1824207Y598889D01*
X1823240Y600337D01*
X1822010Y601567D01*
X1820563Y602534D01*
X1818955Y603200D01*
X1817248Y603539D01*
X1815508D01*
X1813801Y603200D01*
X1812193Y602534D01*
X1810746Y601567D01*
X1809516Y600337D01*
X1808549Y598889D01*
X1807935Y597407D01*
X1807435Y597507D01*
Y608268D01*
X1807447D01*
X1807281Y609951D01*
X1806790Y611570D01*
X1805993Y613061D01*
X1804920Y614369D01*
X1803613Y615442D01*
X1802121Y616239D01*
X1801649Y616382D01*
X1801615Y616512D01*
X1801220Y617196D01*
X1800661Y617755D01*
X1799977Y618150D01*
X1799214Y618354D01*
X1798424D01*
X1797661Y618150D01*
X1796977Y617755D01*
X1796418Y617196D01*
X1796238Y616884D01*
X1790158D01*
X1790137Y616880D01*
X1789329Y616986D01*
X1788557Y617306D01*
X1787893Y617815D01*
X1787385Y618478D01*
X1787065Y619250D01*
X1786958Y620058D01*
X1786963Y620079D01*
Y653718D01*
X1787275Y653899D01*
X1787834Y654457D01*
X1788229Y655141D01*
X1788433Y655904D01*
Y656694D01*
X1788229Y657457D01*
X1787834Y658141D01*
X1787275Y658700D01*
X1786591Y659095D01*
X1785828Y659299D01*
X1785038D01*
X1784275Y659095D01*
X1783591Y658700D01*
X1783032Y658141D01*
X1782920Y657947D01*
X1782446Y658125D01*
X1782712Y659465D01*
Y661205D01*
X1782373Y662912D01*
X1781707Y664519D01*
X1780740Y665966D01*
X1779510Y667197D01*
X1778062Y668163D01*
X1776455Y668829D01*
X1774748Y669169D01*
D02*
G37*
G36*
X1794449Y589826D02*
X1793307D01*
X1792205Y589531D01*
X1791217Y588960D01*
X1790410Y588153D01*
X1789839Y587165D01*
X1789544Y586063D01*
Y584922D01*
X1789839Y583819D01*
X1790410Y582831D01*
X1791217Y582024D01*
X1792205Y581453D01*
X1793307Y581158D01*
X1794449D01*
X1795551Y581453D01*
X1796539Y582024D01*
X1797346Y582831D01*
X1797917Y583819D01*
X1798212Y584922D01*
Y586063D01*
X1797917Y587165D01*
X1797346Y588153D01*
X1796539Y588960D01*
X1795551Y589531D01*
X1794449Y589826D01*
D02*
G37*
G36*
X1719449Y589767D02*
X1718307D01*
X1717205Y589472D01*
X1716217Y588901D01*
X1715410Y588094D01*
X1714839Y587106D01*
X1714544Y586004D01*
Y584863D01*
X1714839Y583760D01*
X1715410Y582772D01*
X1716217Y581965D01*
X1717205Y581394D01*
X1718307Y581099D01*
X1719449D01*
X1720551Y581394D01*
X1721539Y581965D01*
X1722346Y582772D01*
X1722917Y583760D01*
X1723212Y584863D01*
Y586004D01*
X1722917Y587106D01*
X1722346Y588094D01*
X1721539Y588901D01*
X1720551Y589472D01*
X1719449Y589767D01*
D02*
G37*
G36*
X1644449D02*
X1643307D01*
X1642205Y589472D01*
X1641217Y588901D01*
X1640410Y588094D01*
X1639839Y587106D01*
X1639544Y586004D01*
Y584863D01*
X1639839Y583760D01*
X1640410Y582772D01*
X1641217Y581965D01*
X1642205Y581394D01*
X1643307Y581099D01*
X1644449D01*
X1645551Y581394D01*
X1646539Y581965D01*
X1647346Y582772D01*
X1647917Y583760D01*
X1648212Y584863D01*
Y586004D01*
X1647917Y587106D01*
X1647346Y588094D01*
X1646539Y588901D01*
X1645551Y589472D01*
X1644449Y589767D01*
D02*
G37*
G36*
X1569449D02*
X1568307D01*
X1567205Y589472D01*
X1566217Y588901D01*
X1565410Y588094D01*
X1564839Y587106D01*
X1564544Y586004D01*
Y584863D01*
X1564839Y583760D01*
X1565410Y582772D01*
X1566217Y581965D01*
X1567205Y581394D01*
X1568307Y581099D01*
X1569449D01*
X1570551Y581394D01*
X1571539Y581965D01*
X1572346Y582772D01*
X1572917Y583760D01*
X1573212Y584863D01*
Y586004D01*
X1572917Y587106D01*
X1572346Y588094D01*
X1571539Y588901D01*
X1570551Y589472D01*
X1569449Y589767D01*
D02*
G37*
G36*
X1774748Y594326D02*
X1773008D01*
X1771301Y593987D01*
X1769693Y593321D01*
X1768246Y592354D01*
X1767016Y591124D01*
X1766049Y589677D01*
X1765383Y588069D01*
X1765044Y586362D01*
Y584622D01*
X1765383Y582915D01*
X1766049Y581308D01*
X1767016Y579861D01*
X1768246Y578630D01*
X1769693Y577663D01*
X1771301Y576997D01*
X1773008Y576658D01*
X1774748D01*
X1776455Y576997D01*
X1778062Y577663D01*
X1779510Y578630D01*
X1780740Y579861D01*
X1781707Y581308D01*
X1782373Y582915D01*
X1782712Y584622D01*
Y586362D01*
X1782373Y588069D01*
X1781707Y589677D01*
X1780740Y591124D01*
X1779510Y592354D01*
X1778062Y593321D01*
X1776455Y593987D01*
X1774748Y594326D01*
D02*
G37*
G36*
X1699748Y594267D02*
X1698008D01*
X1696301Y593928D01*
X1694693Y593262D01*
X1693246Y592295D01*
X1692016Y591065D01*
X1691049Y589618D01*
X1690383Y588010D01*
X1690044Y586303D01*
Y584563D01*
X1690383Y582856D01*
X1691049Y581249D01*
X1692016Y579802D01*
X1693246Y578571D01*
X1694693Y577604D01*
X1696301Y576938D01*
X1698008Y576599D01*
X1699748D01*
X1701455Y576938D01*
X1703062Y577604D01*
X1704510Y578571D01*
X1705740Y579802D01*
X1706707Y581249D01*
X1707373Y582856D01*
X1707712Y584563D01*
Y586303D01*
X1707373Y588010D01*
X1706707Y589618D01*
X1705740Y591065D01*
X1704510Y592295D01*
X1703062Y593262D01*
X1701455Y593928D01*
X1699748Y594267D01*
D02*
G37*
G36*
X1624748D02*
X1623008D01*
X1621301Y593928D01*
X1619693Y593262D01*
X1618246Y592295D01*
X1617016Y591065D01*
X1616049Y589618D01*
X1615383Y588010D01*
X1615044Y586303D01*
Y584563D01*
X1615383Y582856D01*
X1616049Y581249D01*
X1617016Y579802D01*
X1618246Y578571D01*
X1619693Y577604D01*
X1621301Y576938D01*
X1623008Y576599D01*
X1624748D01*
X1626455Y576938D01*
X1628062Y577604D01*
X1629510Y578571D01*
X1630740Y579802D01*
X1631707Y581249D01*
X1632373Y582856D01*
X1632712Y584563D01*
Y586303D01*
X1632373Y588010D01*
X1631707Y589618D01*
X1630740Y591065D01*
X1629510Y592295D01*
X1628062Y593262D01*
X1626455Y593928D01*
X1624748Y594267D01*
D02*
G37*
G36*
X1549748D02*
X1548008D01*
X1546301Y593928D01*
X1544693Y593262D01*
X1543246Y592295D01*
X1542016Y591065D01*
X1541049Y589618D01*
X1540383Y588010D01*
X1540044Y586303D01*
Y584563D01*
X1540383Y582856D01*
X1541049Y581249D01*
X1542016Y579802D01*
X1543246Y578571D01*
X1544693Y577604D01*
X1546301Y576938D01*
X1548008Y576599D01*
X1549748D01*
X1551455Y576938D01*
X1553063Y577604D01*
X1554510Y578571D01*
X1555740Y579802D01*
X1556707Y581249D01*
X1557373Y582856D01*
X1557712Y584563D01*
Y586303D01*
X1557373Y588010D01*
X1556707Y589618D01*
X1555740Y591065D01*
X1554510Y592295D01*
X1553063Y593262D01*
X1551455Y593928D01*
X1549748Y594267D01*
D02*
G37*
G36*
X1780177Y575373D02*
X1767579D01*
X1767195Y575296D01*
X1766869Y575079D01*
X1766652Y574753D01*
X1766575Y574369D01*
Y563346D01*
X1766652Y562961D01*
X1766869Y562636D01*
X1767195Y562418D01*
X1767579Y562342D01*
X1780177D01*
X1780561Y562418D01*
X1780887Y562636D01*
X1781104Y562961D01*
X1781181Y563346D01*
Y574369D01*
X1781104Y574753D01*
X1780887Y575079D01*
X1780561Y575296D01*
X1780177Y575373D01*
D02*
G37*
G36*
X1705177D02*
X1692579D01*
X1692195Y575296D01*
X1691869Y575079D01*
X1691652Y574753D01*
X1691575Y574369D01*
Y563346D01*
X1691652Y562961D01*
X1691869Y562636D01*
X1692195Y562418D01*
X1692579Y562342D01*
X1705177D01*
X1705561Y562418D01*
X1705887Y562636D01*
X1706104Y562961D01*
X1706181Y563346D01*
Y574369D01*
X1706104Y574753D01*
X1705887Y575079D01*
X1705561Y575296D01*
X1705177Y575373D01*
D02*
G37*
G36*
X1630177D02*
X1617579D01*
X1617195Y575296D01*
X1616869Y575079D01*
X1616652Y574753D01*
X1616575Y574369D01*
Y563346D01*
X1616652Y562961D01*
X1616869Y562636D01*
X1617195Y562418D01*
X1617579Y562342D01*
X1630177D01*
X1630561Y562418D01*
X1630887Y562636D01*
X1631104Y562961D01*
X1631181Y563346D01*
Y574369D01*
X1631104Y574753D01*
X1630887Y575079D01*
X1630561Y575296D01*
X1630177Y575373D01*
D02*
G37*
G36*
X1555177D02*
X1542579D01*
X1542195Y575296D01*
X1541869Y575079D01*
X1541652Y574753D01*
X1541575Y574369D01*
Y563346D01*
X1541652Y562961D01*
X1541869Y562636D01*
X1542195Y562418D01*
X1542579Y562342D01*
X1555177D01*
X1555561Y562418D01*
X1555887Y562636D01*
X1556104Y562961D01*
X1556181Y563346D01*
Y574369D01*
X1556104Y574753D01*
X1555887Y575079D01*
X1555561Y575296D01*
X1555177Y575373D01*
D02*
G37*
G36*
X1859529Y574468D02*
X1858172D01*
X1856841Y574204D01*
X1855587Y573684D01*
X1854458Y572930D01*
X1853499Y571971D01*
X1852745Y570842D01*
X1852225Y569588D01*
X1851961Y568257D01*
Y566900D01*
X1852225Y565569D01*
X1852745Y564315D01*
X1853499Y563187D01*
X1854458Y562227D01*
X1855587Y561473D01*
X1856841Y560954D01*
X1858172Y560689D01*
X1859529D01*
X1860860Y560954D01*
X1862114Y561473D01*
X1863242Y562227D01*
X1864202Y563187D01*
X1864956Y564315D01*
X1865475Y565569D01*
X1865740Y566900D01*
Y568257D01*
X1865475Y569588D01*
X1864956Y570842D01*
X1864202Y571971D01*
X1863242Y572930D01*
X1862114Y573684D01*
X1860860Y574204D01*
X1859529Y574468D01*
D02*
G37*
G36*
X1765953Y551650D02*
X1763833D01*
Y548742D01*
X1765953D01*
Y551650D01*
D02*
G37*
G36*
X1763333D02*
X1761213D01*
Y548742D01*
X1763333D01*
Y551650D01*
D02*
G37*
G36*
X1691150Y551590D02*
X1689030D01*
Y548683D01*
X1691150D01*
Y551590D01*
D02*
G37*
G36*
X1688530D02*
X1686409D01*
Y548683D01*
X1688530D01*
Y551590D01*
D02*
G37*
G36*
X1616740D02*
X1614620D01*
Y548683D01*
X1616740D01*
Y551590D01*
D02*
G37*
G36*
X1614120D02*
X1612000D01*
Y548683D01*
X1614120D01*
Y551590D01*
D02*
G37*
G36*
X1540756D02*
X1538636D01*
Y548683D01*
X1540756D01*
Y551590D01*
D02*
G37*
G36*
X1538136D02*
X1536016D01*
Y548683D01*
X1538136D01*
Y551590D01*
D02*
G37*
G36*
X1765953Y548242D02*
X1763833D01*
Y545335D01*
X1765953D01*
Y548242D01*
D02*
G37*
G36*
X1763333D02*
X1761213D01*
Y545335D01*
X1763333D01*
Y548242D01*
D02*
G37*
G36*
X1755316Y568945D02*
X1754526D01*
X1753763Y568740D01*
X1753079Y568345D01*
X1752521Y567787D01*
X1752126Y567103D01*
X1751921Y566340D01*
Y565550D01*
X1752126Y564787D01*
X1752521Y564103D01*
X1753079Y563544D01*
X1753392Y563364D01*
Y551248D01*
X1753385D01*
X1753531Y550137D01*
X1753960Y549102D01*
X1754642Y548213D01*
X1755307Y547702D01*
Y545335D01*
X1760047D01*
Y551650D01*
X1756451D01*
Y563364D01*
X1756763Y563544D01*
X1757322Y564103D01*
X1757717Y564787D01*
X1757921Y565550D01*
Y566340D01*
X1757717Y567103D01*
X1757322Y567787D01*
X1756763Y568345D01*
X1756079Y568740D01*
X1755316Y568945D01*
D02*
G37*
G36*
X1691150Y548183D02*
X1689030D01*
Y545276D01*
X1691150D01*
Y548183D01*
D02*
G37*
G36*
X1688530D02*
X1686409D01*
Y545276D01*
X1688530D01*
Y548183D01*
D02*
G37*
G36*
X1680316Y568945D02*
X1679526D01*
X1678763Y568740D01*
X1678079Y568345D01*
X1677521Y567787D01*
X1677126Y567103D01*
X1676921Y566340D01*
Y565550D01*
X1677126Y564787D01*
X1677521Y564103D01*
X1678079Y563544D01*
X1678392Y563364D01*
Y551386D01*
X1678383D01*
X1678536Y550223D01*
X1678984Y549140D01*
X1679698Y548210D01*
X1680504Y547592D01*
Y545276D01*
X1685244D01*
Y551590D01*
X1681451D01*
Y563364D01*
X1681763Y563544D01*
X1682322Y564103D01*
X1682717Y564787D01*
X1682921Y565550D01*
Y566340D01*
X1682717Y567103D01*
X1682322Y567787D01*
X1681763Y568345D01*
X1681079Y568740D01*
X1680316Y568945D01*
D02*
G37*
G36*
X1616740Y548183D02*
X1614620D01*
Y545276D01*
X1616740D01*
Y548183D01*
D02*
G37*
G36*
X1614120D02*
X1612000D01*
Y545276D01*
X1614120D01*
Y548183D01*
D02*
G37*
G36*
X1605710Y568945D02*
X1604920D01*
X1604157Y568740D01*
X1603473Y568345D01*
X1602914Y567787D01*
X1602519Y567103D01*
X1602315Y566340D01*
Y565550D01*
X1602519Y564787D01*
X1602914Y564103D01*
X1603473Y563544D01*
X1603786Y563364D01*
Y551583D01*
X1603775D01*
X1603935Y550369D01*
X1604403Y549238D01*
X1605148Y548267D01*
X1606095Y547541D01*
Y545276D01*
X1610835D01*
Y551590D01*
X1606844D01*
Y563364D01*
X1607157Y563544D01*
X1607716Y564103D01*
X1608110Y564787D01*
X1608315Y565550D01*
Y566340D01*
X1608110Y567103D01*
X1607716Y567787D01*
X1607157Y568345D01*
X1606473Y568740D01*
X1605710Y568945D01*
D02*
G37*
G36*
X1540756Y548183D02*
X1538636D01*
Y545276D01*
X1540756D01*
Y548183D01*
D02*
G37*
G36*
X1538136D02*
X1536016D01*
Y545276D01*
X1538136D01*
Y548183D01*
D02*
G37*
G36*
X1530907Y568945D02*
X1530117D01*
X1529354Y568740D01*
X1528670Y568345D01*
X1528111Y567787D01*
X1527716Y567103D01*
X1527512Y566340D01*
Y565550D01*
X1527716Y564787D01*
X1528111Y564103D01*
X1528670Y563544D01*
X1528982Y563364D01*
Y550402D01*
X1528982D01*
X1529101Y549496D01*
X1529451Y548652D01*
X1530007Y547928D01*
X1530110Y547848D01*
Y545276D01*
X1534850D01*
Y551590D01*
X1532041D01*
Y563364D01*
X1532354Y563544D01*
X1532912Y564103D01*
X1533307Y564787D01*
X1533512Y565550D01*
Y566340D01*
X1533307Y567103D01*
X1532912Y567787D01*
X1532354Y568345D01*
X1531670Y568740D01*
X1530907Y568945D01*
D02*
G37*
G36*
X1869421Y551913D02*
X1868280D01*
X1867177Y551617D01*
X1866189Y551047D01*
X1865382Y550240D01*
X1864812Y549252D01*
X1864516Y548149D01*
Y547008D01*
X1864812Y545906D01*
X1865382Y544917D01*
X1866189Y544110D01*
X1867177Y543540D01*
X1868280Y543244D01*
X1869421D01*
X1870523Y543540D01*
X1871512Y544110D01*
X1872319Y544917D01*
X1872889Y545906D01*
X1873185Y547008D01*
Y548149D01*
X1872889Y549252D01*
X1872319Y550240D01*
X1871512Y551047D01*
X1870523Y551617D01*
X1869421Y551913D01*
D02*
G37*
G36*
X1849721Y556413D02*
X1847980D01*
X1846273Y556073D01*
X1844666Y555407D01*
X1843219Y554441D01*
X1841988Y553210D01*
X1841022Y551763D01*
X1840356Y550155D01*
X1840016Y548449D01*
Y546708D01*
X1840356Y545002D01*
X1841022Y543394D01*
X1841988Y541947D01*
X1843219Y540717D01*
X1844666Y539750D01*
X1846273Y539084D01*
X1847980Y538744D01*
X1849721D01*
X1851427Y539084D01*
X1853035Y539750D01*
X1854482Y540717D01*
X1855712Y541947D01*
X1856679Y543394D01*
X1857345Y545002D01*
X1857685Y546708D01*
Y548449D01*
X1857345Y550155D01*
X1856679Y551763D01*
X1855712Y553210D01*
X1854482Y554441D01*
X1853035Y555407D01*
X1851427Y556073D01*
X1849721Y556413D01*
D02*
G37*
G36*
X1855177Y537018D02*
X1842579D01*
X1842195Y536942D01*
X1841869Y536724D01*
X1841652Y536399D01*
X1841575Y536015D01*
Y524991D01*
X1841652Y524607D01*
X1841869Y524281D01*
X1842195Y524064D01*
X1842579Y523987D01*
X1855177D01*
X1855561Y524064D01*
X1855887Y524281D01*
X1856104Y524607D01*
X1856181Y524991D01*
Y536015D01*
X1856104Y536399D01*
X1855887Y536724D01*
X1855561Y536942D01*
X1855177Y537018D01*
D02*
G37*
G36*
X1784557Y537323D02*
X1783199D01*
X1781868Y537058D01*
X1780614Y536539D01*
X1779486Y535785D01*
X1778526Y534825D01*
X1777772Y533697D01*
X1777253Y532443D01*
X1776988Y531112D01*
Y529754D01*
X1777253Y528423D01*
X1777772Y527170D01*
X1778526Y526041D01*
X1779486Y525081D01*
X1780614Y524328D01*
X1781868Y523808D01*
X1783199Y523543D01*
X1784557D01*
X1785888Y523808D01*
X1787141Y524328D01*
X1788270Y525081D01*
X1789230Y526041D01*
X1789984Y527170D01*
X1790503Y528423D01*
X1790768Y529754D01*
Y531112D01*
X1790503Y532443D01*
X1789984Y533697D01*
X1789230Y534825D01*
X1788270Y535785D01*
X1787141Y536539D01*
X1785888Y537058D01*
X1784557Y537323D01*
D02*
G37*
G36*
X1709557Y537323D02*
X1708199D01*
X1706868Y537058D01*
X1705614Y536539D01*
X1704486Y535785D01*
X1703526Y534825D01*
X1702772Y533697D01*
X1702253Y532443D01*
X1701988Y531112D01*
Y529754D01*
X1702253Y528423D01*
X1702772Y527170D01*
X1703526Y526041D01*
X1704486Y525081D01*
X1705614Y524327D01*
X1706868Y523808D01*
X1708199Y523543D01*
X1709557D01*
X1710888Y523808D01*
X1712141Y524327D01*
X1713270Y525081D01*
X1714230Y526041D01*
X1714984Y527170D01*
X1715503Y528423D01*
X1715768Y529754D01*
Y531112D01*
X1715503Y532443D01*
X1714984Y533697D01*
X1714230Y534825D01*
X1713270Y535785D01*
X1712141Y536539D01*
X1710888Y537058D01*
X1709557Y537323D01*
D02*
G37*
G36*
X1634557D02*
X1633199D01*
X1631868Y537058D01*
X1630614Y536539D01*
X1629486Y535785D01*
X1628526Y534825D01*
X1627772Y533697D01*
X1627253Y532443D01*
X1626988Y531112D01*
Y529754D01*
X1627253Y528423D01*
X1627772Y527170D01*
X1628526Y526041D01*
X1629486Y525081D01*
X1630614Y524327D01*
X1631868Y523808D01*
X1633199Y523543D01*
X1634557D01*
X1635888Y523808D01*
X1637141Y524327D01*
X1638270Y525081D01*
X1639230Y526041D01*
X1639984Y527170D01*
X1640503Y528423D01*
X1640768Y529754D01*
Y531112D01*
X1640503Y532443D01*
X1639984Y533697D01*
X1639230Y534825D01*
X1638270Y535785D01*
X1637141Y536539D01*
X1635888Y537058D01*
X1634557Y537323D01*
D02*
G37*
G36*
X1559556D02*
X1558199D01*
X1556868Y537058D01*
X1555614Y536539D01*
X1554486Y535785D01*
X1553526Y534825D01*
X1552772Y533697D01*
X1552253Y532443D01*
X1551988Y531112D01*
Y529754D01*
X1552253Y528423D01*
X1552772Y527170D01*
X1553526Y526041D01*
X1554486Y525081D01*
X1555614Y524327D01*
X1556868Y523808D01*
X1558199Y523543D01*
X1559556D01*
X1560888Y523808D01*
X1562142Y524327D01*
X1563270Y525081D01*
X1564230Y526041D01*
X1564984Y527170D01*
X1565503Y528423D01*
X1565768Y529754D01*
Y531112D01*
X1565503Y532443D01*
X1564984Y533697D01*
X1564230Y534825D01*
X1563270Y535785D01*
X1562142Y536539D01*
X1560888Y537058D01*
X1559556Y537323D01*
D02*
G37*
G36*
X1759557Y527323D02*
X1758199D01*
X1756868Y527058D01*
X1755614Y526539D01*
X1754486Y525785D01*
X1753526Y524825D01*
X1752772Y523697D01*
X1752253Y522443D01*
X1751988Y521112D01*
Y519755D01*
X1752253Y518423D01*
X1752772Y517170D01*
X1753526Y516041D01*
X1754300Y515267D01*
X1754093Y514767D01*
X1753307D01*
X1752205Y514472D01*
X1751217Y513901D01*
X1750410Y513094D01*
X1749839Y512106D01*
X1749544Y511004D01*
Y509863D01*
X1749839Y508760D01*
X1750410Y507772D01*
X1751217Y506965D01*
X1752205Y506394D01*
X1753307Y506099D01*
X1754449D01*
X1755551Y506394D01*
X1756539Y506965D01*
X1757346Y507772D01*
X1757917Y508760D01*
X1758212Y509863D01*
Y511004D01*
X1757917Y512106D01*
X1757346Y513094D01*
X1757210Y513230D01*
X1757457Y513691D01*
X1758199Y513543D01*
X1759557D01*
X1760888Y513808D01*
X1762141Y514327D01*
X1763270Y515082D01*
X1764230Y516041D01*
X1764984Y517170D01*
X1765503Y518423D01*
X1765768Y519755D01*
Y521112D01*
X1765503Y522443D01*
X1764984Y523697D01*
X1764230Y524825D01*
X1763270Y525785D01*
X1762141Y526539D01*
X1760888Y527058D01*
X1759557Y527323D01*
D02*
G37*
G36*
X1684557Y527323D02*
X1683199D01*
X1681868Y527058D01*
X1680614Y526539D01*
X1679486Y525785D01*
X1678526Y524825D01*
X1677772Y523697D01*
X1677253Y522443D01*
X1676988Y521112D01*
Y519755D01*
X1677253Y518423D01*
X1677772Y517170D01*
X1678526Y516041D01*
X1679300Y515267D01*
X1679093Y514767D01*
X1678307D01*
X1677205Y514472D01*
X1676217Y513901D01*
X1675410Y513094D01*
X1674839Y512106D01*
X1674544Y511004D01*
Y509863D01*
X1674839Y508760D01*
X1675410Y507772D01*
X1676217Y506965D01*
X1677205Y506394D01*
X1678307Y506099D01*
X1679449D01*
X1680551Y506394D01*
X1681539Y506965D01*
X1682346Y507772D01*
X1682917Y508760D01*
X1683212Y509863D01*
Y511004D01*
X1682917Y512106D01*
X1682346Y513094D01*
X1682210Y513230D01*
X1682457Y513691D01*
X1683199Y513543D01*
X1684557D01*
X1685888Y513808D01*
X1687141Y514327D01*
X1688270Y515081D01*
X1689230Y516041D01*
X1689984Y517170D01*
X1690503Y518423D01*
X1690768Y519755D01*
Y521112D01*
X1690503Y522443D01*
X1689984Y523697D01*
X1689230Y524825D01*
X1688270Y525785D01*
X1687141Y526539D01*
X1685888Y527058D01*
X1684557Y527323D01*
D02*
G37*
G36*
X1609557D02*
X1608199D01*
X1606868Y527058D01*
X1605614Y526539D01*
X1604486Y525785D01*
X1603526Y524825D01*
X1602772Y523697D01*
X1602253Y522443D01*
X1601988Y521112D01*
Y519755D01*
X1602253Y518423D01*
X1602772Y517170D01*
X1603526Y516041D01*
X1604300Y515267D01*
X1604093Y514767D01*
X1603307D01*
X1602205Y514472D01*
X1601217Y513901D01*
X1600410Y513094D01*
X1599839Y512106D01*
X1599544Y511004D01*
Y509863D01*
X1599839Y508760D01*
X1600410Y507772D01*
X1601217Y506965D01*
X1602205Y506394D01*
X1603307Y506099D01*
X1604449D01*
X1605551Y506394D01*
X1606539Y506965D01*
X1607346Y507772D01*
X1607917Y508760D01*
X1608212Y509863D01*
Y511004D01*
X1607917Y512106D01*
X1607346Y513094D01*
X1607210Y513230D01*
X1607457Y513691D01*
X1608199Y513543D01*
X1609557D01*
X1610888Y513808D01*
X1612141Y514327D01*
X1613270Y515081D01*
X1614230Y516041D01*
X1614984Y517170D01*
X1615503Y518423D01*
X1615768Y519755D01*
Y521112D01*
X1615503Y522443D01*
X1614984Y523697D01*
X1614230Y524825D01*
X1613270Y525785D01*
X1612141Y526539D01*
X1610888Y527058D01*
X1609557Y527323D01*
D02*
G37*
G36*
X1534556D02*
X1533199D01*
X1531868Y527058D01*
X1530614Y526539D01*
X1529486Y525785D01*
X1528526Y524825D01*
X1527772Y523697D01*
X1527253Y522443D01*
X1526988Y521112D01*
Y519755D01*
X1527253Y518423D01*
X1527772Y517170D01*
X1528526Y516041D01*
X1529300Y515267D01*
X1529093Y514767D01*
X1528307D01*
X1527205Y514472D01*
X1526217Y513901D01*
X1525410Y513094D01*
X1524839Y512106D01*
X1524544Y511004D01*
Y509863D01*
X1524839Y508760D01*
X1525410Y507772D01*
X1526217Y506965D01*
X1527205Y506394D01*
X1528307Y506099D01*
X1529449D01*
X1530551Y506394D01*
X1531539Y506965D01*
X1532346Y507772D01*
X1532917Y508760D01*
X1533212Y509863D01*
Y511004D01*
X1532917Y512106D01*
X1532346Y513094D01*
X1532210Y513230D01*
X1532457Y513691D01*
X1533199Y513543D01*
X1534556D01*
X1535888Y513808D01*
X1537142Y514327D01*
X1538270Y515081D01*
X1539230Y516041D01*
X1539984Y517170D01*
X1540503Y518423D01*
X1540768Y519755D01*
Y521112D01*
X1540503Y522443D01*
X1539984Y523697D01*
X1539230Y524825D01*
X1538270Y525785D01*
X1537142Y526539D01*
X1535888Y527058D01*
X1534556Y527323D01*
D02*
G37*
G36*
X1794449Y514767D02*
X1793307D01*
X1792205Y514472D01*
X1791217Y513901D01*
X1790410Y513094D01*
X1789839Y512106D01*
X1789544Y511004D01*
Y509863D01*
X1789839Y508760D01*
X1790410Y507772D01*
X1791217Y506965D01*
X1792205Y506394D01*
X1793307Y506099D01*
X1794449D01*
X1795551Y506394D01*
X1796539Y506965D01*
X1797346Y507772D01*
X1797917Y508760D01*
X1798212Y509863D01*
Y511004D01*
X1797917Y512106D01*
X1797346Y513094D01*
X1796539Y513901D01*
X1795551Y514472D01*
X1794449Y514767D01*
D02*
G37*
G36*
X1719449Y514767D02*
X1718307D01*
X1717205Y514472D01*
X1716217Y513901D01*
X1715410Y513094D01*
X1714839Y512106D01*
X1714544Y511004D01*
Y509863D01*
X1714839Y508760D01*
X1715410Y507772D01*
X1716217Y506965D01*
X1717205Y506394D01*
X1718307Y506099D01*
X1719449D01*
X1720551Y506394D01*
X1721539Y506965D01*
X1722346Y507772D01*
X1722917Y508760D01*
X1723212Y509863D01*
Y511004D01*
X1722917Y512106D01*
X1722346Y513094D01*
X1721539Y513901D01*
X1720551Y514472D01*
X1719449Y514767D01*
D02*
G37*
G36*
X1644449D02*
X1643307D01*
X1642205Y514472D01*
X1641217Y513901D01*
X1640410Y513094D01*
X1639839Y512106D01*
X1639544Y511004D01*
Y509863D01*
X1639839Y508760D01*
X1640410Y507772D01*
X1641217Y506965D01*
X1642205Y506394D01*
X1643307Y506099D01*
X1644449D01*
X1645551Y506394D01*
X1646539Y506965D01*
X1647346Y507772D01*
X1647917Y508760D01*
X1648212Y509863D01*
Y511004D01*
X1647917Y512106D01*
X1647346Y513094D01*
X1646539Y513901D01*
X1645551Y514472D01*
X1644449Y514767D01*
D02*
G37*
G36*
X1569449D02*
X1568307D01*
X1567205Y514472D01*
X1566217Y513901D01*
X1565410Y513094D01*
X1564839Y512106D01*
X1564544Y511004D01*
Y509863D01*
X1564839Y508760D01*
X1565410Y507772D01*
X1566217Y506965D01*
X1567205Y506394D01*
X1568307Y506099D01*
X1569449D01*
X1570551Y506394D01*
X1571539Y506965D01*
X1572346Y507772D01*
X1572917Y508760D01*
X1573212Y509863D01*
Y511004D01*
X1572917Y512106D01*
X1572346Y513094D01*
X1571539Y513901D01*
X1570551Y514472D01*
X1569449Y514767D01*
D02*
G37*
G36*
X1774748Y519267D02*
X1773008D01*
X1771301Y518928D01*
X1769693Y518262D01*
X1768246Y517295D01*
X1767016Y516065D01*
X1766049Y514618D01*
X1765383Y513010D01*
X1765044Y511303D01*
Y509563D01*
X1765383Y507856D01*
X1766049Y506249D01*
X1767016Y504802D01*
X1768246Y503571D01*
X1769693Y502604D01*
X1771301Y501938D01*
X1773008Y501599D01*
X1774748D01*
X1776455Y501938D01*
X1778063Y502604D01*
X1779510Y503571D01*
X1780740Y504802D01*
X1781707Y506249D01*
X1782373Y507856D01*
X1782712Y509563D01*
Y511303D01*
X1782373Y513010D01*
X1781707Y514618D01*
X1780740Y516065D01*
X1779510Y517295D01*
X1778063Y518262D01*
X1776455Y518928D01*
X1774748Y519267D01*
D02*
G37*
G36*
X1699748Y519267D02*
X1698008D01*
X1696301Y518928D01*
X1694693Y518262D01*
X1693246Y517295D01*
X1692016Y516065D01*
X1691049Y514618D01*
X1690383Y513010D01*
X1690044Y511303D01*
Y509563D01*
X1690383Y507856D01*
X1691049Y506249D01*
X1692016Y504802D01*
X1693246Y503571D01*
X1694693Y502604D01*
X1696301Y501938D01*
X1698008Y501599D01*
X1699748D01*
X1701455Y501938D01*
X1703062Y502604D01*
X1704510Y503571D01*
X1705740Y504802D01*
X1706707Y506249D01*
X1707373Y507856D01*
X1707712Y509563D01*
Y511303D01*
X1707373Y513010D01*
X1706707Y514618D01*
X1705740Y516065D01*
X1704510Y517295D01*
X1703062Y518262D01*
X1701455Y518928D01*
X1699748Y519267D01*
D02*
G37*
G36*
X1624748D02*
X1623008D01*
X1621301Y518928D01*
X1619693Y518262D01*
X1618246Y517295D01*
X1617016Y516065D01*
X1616049Y514618D01*
X1615383Y513010D01*
X1615044Y511303D01*
Y509563D01*
X1615383Y507856D01*
X1616049Y506249D01*
X1617016Y504802D01*
X1618246Y503571D01*
X1619693Y502604D01*
X1621301Y501938D01*
X1623008Y501599D01*
X1624748D01*
X1626455Y501938D01*
X1628062Y502604D01*
X1629510Y503571D01*
X1630740Y504802D01*
X1631707Y506249D01*
X1632373Y507856D01*
X1632712Y509563D01*
Y511303D01*
X1632373Y513010D01*
X1631707Y514618D01*
X1630740Y516065D01*
X1629510Y517295D01*
X1628062Y518262D01*
X1626455Y518928D01*
X1624748Y519267D01*
D02*
G37*
G36*
X1549748D02*
X1548008D01*
X1546301Y518928D01*
X1544693Y518262D01*
X1543246Y517295D01*
X1542016Y516065D01*
X1541049Y514618D01*
X1540383Y513010D01*
X1540044Y511303D01*
Y509563D01*
X1540383Y507856D01*
X1541049Y506249D01*
X1542016Y504802D01*
X1543246Y503571D01*
X1544693Y502604D01*
X1546301Y501938D01*
X1548008Y501599D01*
X1549748D01*
X1551455Y501938D01*
X1553063Y502604D01*
X1554510Y503571D01*
X1555740Y504802D01*
X1556707Y506249D01*
X1557373Y507856D01*
X1557712Y509563D01*
Y511303D01*
X1557373Y513010D01*
X1556707Y514618D01*
X1555740Y516065D01*
X1554510Y517295D01*
X1553063Y518262D01*
X1551455Y518928D01*
X1549748Y519267D01*
D02*
G37*
G36*
X1877066Y507689D02*
X1875690D01*
X1874341Y507421D01*
X1873070Y506894D01*
X1871926Y506130D01*
X1870953Y505157D01*
X1870189Y504013D01*
X1869662Y502742D01*
X1869394Y501393D01*
Y500017D01*
X1869662Y498667D01*
X1870189Y497396D01*
X1870953Y496252D01*
X1871926Y495280D01*
X1873070Y494515D01*
X1874341Y493989D01*
X1875690Y493720D01*
X1877066D01*
X1878415Y493989D01*
X1879686Y494515D01*
X1880830Y495280D01*
X1881803Y496252D01*
X1882567Y497396D01*
X1883094Y498667D01*
X1883362Y500017D01*
Y501393D01*
X1883094Y502742D01*
X1882567Y504013D01*
X1881803Y505157D01*
X1880830Y506130D01*
X1879686Y506894D01*
X1878415Y507421D01*
X1877066Y507689D01*
D02*
G37*
G36*
X1518899Y569142D02*
X1518109D01*
X1517346Y568937D01*
X1516662Y568542D01*
X1516103Y567984D01*
X1515708Y567300D01*
X1515504Y566537D01*
Y565747D01*
X1515708Y564984D01*
X1516103Y564300D01*
X1516662Y563741D01*
X1516975Y563561D01*
Y500551D01*
X1516957D01*
X1517143Y499138D01*
X1517689Y497821D01*
X1518557Y496690D01*
X1519688Y495822D01*
X1521005Y495276D01*
X1522418Y495090D01*
Y495108D01*
X1524709D01*
X1524763Y494905D01*
X1525159Y494221D01*
X1525717Y493662D01*
X1526401Y493267D01*
X1527164Y493063D01*
X1527954D01*
X1528717Y493267D01*
X1529401Y493662D01*
X1529960Y494221D01*
X1530355Y494905D01*
X1530559Y495668D01*
Y496458D01*
X1530355Y497221D01*
X1529960Y497905D01*
X1529401Y498464D01*
X1528717Y498859D01*
X1527954Y499063D01*
X1527164D01*
X1526401Y498859D01*
X1525717Y498464D01*
X1525420Y498166D01*
X1522418D01*
X1522353Y498153D01*
X1521496Y498324D01*
X1520714Y498847D01*
X1520191Y499629D01*
X1520020Y500487D01*
X1520033Y500551D01*
Y563561D01*
X1520346Y563741D01*
X1520905Y564300D01*
X1521299Y564984D01*
X1521504Y565747D01*
Y566537D01*
X1521299Y567300D01*
X1520905Y567984D01*
X1520346Y568542D01*
X1519662Y568937D01*
X1518899Y569142D01*
D02*
G37*
G36*
X1817248Y509539D02*
X1815508D01*
X1813801Y509200D01*
X1812193Y508534D01*
X1810746Y507567D01*
X1809516Y506336D01*
X1808549Y504889D01*
X1807883Y503282D01*
X1807543Y501575D01*
Y499835D01*
X1807883Y498128D01*
X1808549Y496520D01*
X1809516Y495073D01*
X1810746Y493842D01*
X1812193Y492876D01*
X1813801Y492210D01*
X1815508Y491870D01*
X1817248D01*
X1818955Y492210D01*
X1820563Y492876D01*
X1822010Y493842D01*
X1823240Y495073D01*
X1824207Y496520D01*
X1824873Y498128D01*
X1825213Y499835D01*
Y501575D01*
X1824873Y503282D01*
X1824207Y504889D01*
X1823240Y506336D01*
X1822010Y507567D01*
X1820563Y508534D01*
X1818955Y509200D01*
X1817248Y509539D01*
D02*
G37*
G36*
X1780177Y500315D02*
X1767579D01*
X1767195Y500238D01*
X1766869Y500021D01*
X1766652Y499695D01*
X1766575Y499311D01*
Y488287D01*
X1766652Y487903D01*
X1766869Y487578D01*
X1767195Y487360D01*
X1767579Y487284D01*
X1780177D01*
X1780561Y487360D01*
X1780887Y487578D01*
X1781104Y487903D01*
X1781181Y488287D01*
Y499311D01*
X1781104Y499695D01*
X1780887Y500021D01*
X1780561Y500238D01*
X1780177Y500315D01*
D02*
G37*
G36*
X1705177D02*
X1692579D01*
X1692195Y500238D01*
X1691869Y500021D01*
X1691652Y499695D01*
X1691575Y499311D01*
Y488287D01*
X1691652Y487903D01*
X1691869Y487578D01*
X1692195Y487360D01*
X1692579Y487284D01*
X1705177D01*
X1705561Y487360D01*
X1705887Y487578D01*
X1706104Y487903D01*
X1706181Y488287D01*
Y499311D01*
X1706104Y499695D01*
X1705887Y500021D01*
X1705561Y500238D01*
X1705177Y500315D01*
D02*
G37*
G36*
X1630177D02*
X1617579D01*
X1617195Y500238D01*
X1616869Y500021D01*
X1616652Y499695D01*
X1616575Y499311D01*
Y488287D01*
X1616652Y487903D01*
X1616869Y487578D01*
X1617195Y487360D01*
X1617579Y487284D01*
X1630177D01*
X1630561Y487360D01*
X1630887Y487578D01*
X1631104Y487903D01*
X1631181Y488287D01*
Y499311D01*
X1631104Y499695D01*
X1630887Y500021D01*
X1630561Y500238D01*
X1630177Y500315D01*
D02*
G37*
G36*
X1555177D02*
X1542579D01*
X1542195Y500238D01*
X1541869Y500021D01*
X1541652Y499695D01*
X1541575Y499311D01*
Y488287D01*
X1541652Y487903D01*
X1541869Y487578D01*
X1542195Y487360D01*
X1542579Y487284D01*
X1555177D01*
X1555561Y487360D01*
X1555887Y487578D01*
X1556104Y487903D01*
X1556181Y488287D01*
Y499311D01*
X1556104Y499695D01*
X1555887Y500021D01*
X1555561Y500238D01*
X1555177Y500315D01*
D02*
G37*
G36*
X1567324Y500047D02*
X1566534D01*
X1565771Y499843D01*
X1565087Y499448D01*
X1564528Y498889D01*
X1564134Y498205D01*
X1563929Y497442D01*
Y496652D01*
X1564134Y495889D01*
X1564528Y495205D01*
X1565087Y494647D01*
X1565400Y494466D01*
Y486024D01*
X1565407Y485987D01*
X1565285Y484745D01*
X1564912Y483516D01*
X1564306Y482383D01*
X1563492Y481390D01*
X1562499Y480576D01*
X1561728Y480164D01*
X1561228Y480464D01*
Y481110D01*
X1556488D01*
Y474795D01*
X1561228D01*
Y476741D01*
X1562539Y477139D01*
X1564201Y478027D01*
X1565659Y479223D01*
X1566855Y480681D01*
X1567743Y482343D01*
X1568291Y484147D01*
X1568475Y486024D01*
X1568458D01*
Y494466D01*
X1568771Y494647D01*
X1569330Y495205D01*
X1569725Y495889D01*
X1569929Y496652D01*
Y497442D01*
X1569725Y498205D01*
X1569330Y498889D01*
X1568771Y499448D01*
X1568087Y499843D01*
X1567324Y500047D01*
D02*
G37*
G36*
X1719775Y500057D02*
X1718985D01*
X1718222Y499853D01*
X1717538Y499458D01*
X1716979Y498899D01*
X1716584Y498215D01*
X1716380Y497452D01*
Y496662D01*
X1716584Y495899D01*
X1716979Y495215D01*
X1717538Y494657D01*
X1717850Y494476D01*
Y487953D01*
X1717864Y487885D01*
X1717708Y486296D01*
X1717224Y484703D01*
X1716440Y483236D01*
X1715384Y481949D01*
X1714097Y480893D01*
X1712629Y480108D01*
X1712024Y479924D01*
X1711622Y480222D01*
Y481110D01*
X1706882D01*
Y474795D01*
X1711622D01*
Y476664D01*
X1712944Y476982D01*
X1714617Y477674D01*
X1716160Y478620D01*
X1717537Y479796D01*
X1718712Y481172D01*
X1719658Y482716D01*
X1720351Y484388D01*
X1720773Y486148D01*
X1720915Y487953D01*
X1720909D01*
Y494476D01*
X1721222Y494657D01*
X1721780Y495215D01*
X1722175Y495899D01*
X1722380Y496662D01*
Y497452D01*
X1722175Y498215D01*
X1721780Y498899D01*
X1721222Y499458D01*
X1720538Y499853D01*
X1719775Y500057D01*
D02*
G37*
G36*
X1644883Y499844D02*
X1644093D01*
X1643330Y499639D01*
X1642646Y499244D01*
X1642088Y498686D01*
X1641693Y498002D01*
X1641488Y497239D01*
Y496449D01*
X1641693Y495686D01*
X1642088Y495002D01*
X1642646Y494443D01*
X1642959Y494263D01*
Y487953D01*
X1642972Y487885D01*
X1642816Y486296D01*
X1642333Y484703D01*
X1641548Y483236D01*
X1640492Y481949D01*
X1639206Y480893D01*
X1637737Y480108D01*
X1636827Y479832D01*
X1636425Y480130D01*
Y481110D01*
X1631685D01*
Y474795D01*
X1636425D01*
Y476591D01*
X1638053Y476982D01*
X1639725Y477674D01*
X1641269Y478620D01*
X1642645Y479796D01*
X1643821Y481172D01*
X1644766Y482716D01*
X1645459Y484388D01*
X1645882Y486148D01*
X1646024Y487953D01*
X1646018D01*
Y494263D01*
X1646330Y494443D01*
X1646889Y495002D01*
X1647284Y495686D01*
X1647488Y496449D01*
Y497239D01*
X1647284Y498002D01*
X1646889Y498686D01*
X1646330Y499244D01*
X1645646Y499639D01*
X1644883Y499844D01*
D02*
G37*
G36*
X1794860Y499945D02*
X1794070D01*
X1793307Y499741D01*
X1792623Y499346D01*
X1792064Y498787D01*
X1791669Y498103D01*
X1791465Y497340D01*
Y496550D01*
X1791669Y495787D01*
X1792064Y495103D01*
X1792623Y494544D01*
X1792936Y494364D01*
Y487559D01*
X1792949Y487491D01*
X1792793Y485903D01*
X1792310Y484310D01*
X1791525Y482842D01*
X1790469Y481555D01*
X1789182Y480499D01*
X1787714Y479714D01*
X1786630Y479386D01*
X1786228Y479683D01*
Y480717D01*
X1781488D01*
Y474402D01*
X1786228D01*
Y476162D01*
X1786270Y476165D01*
X1788030Y476588D01*
X1789702Y477281D01*
X1791245Y478227D01*
X1792622Y479402D01*
X1793798Y480779D01*
X1794743Y482322D01*
X1795436Y483994D01*
X1795859Y485754D01*
X1796001Y487559D01*
X1795995D01*
Y494364D01*
X1796307Y494544D01*
X1796866Y495103D01*
X1797261Y495787D01*
X1797465Y496550D01*
Y497340D01*
X1797261Y498103D01*
X1796866Y498787D01*
X1796307Y499346D01*
X1795623Y499741D01*
X1794860Y499945D01*
D02*
G37*
G36*
X1755316Y494142D02*
X1754526D01*
X1753763Y493937D01*
X1753079Y493542D01*
X1752521Y492984D01*
X1752126Y492300D01*
X1751921Y491537D01*
Y490747D01*
X1752126Y489984D01*
X1752521Y489300D01*
X1753079Y488741D01*
X1753392Y488561D01*
Y483880D01*
X1753079Y483700D01*
X1752521Y483141D01*
X1752126Y482457D01*
X1751921Y481694D01*
Y480904D01*
X1752126Y480141D01*
X1752521Y479457D01*
X1753079Y478899D01*
X1753763Y478504D01*
X1754526Y478299D01*
X1755316D01*
X1756079Y478504D01*
X1756763Y478899D01*
X1757322Y479457D01*
X1757717Y480141D01*
X1757921Y480904D01*
Y481694D01*
X1757717Y482457D01*
X1757322Y483141D01*
X1756763Y483700D01*
X1756451Y483880D01*
Y488561D01*
X1756763Y488741D01*
X1757322Y489300D01*
X1757717Y489984D01*
X1757921Y490747D01*
Y491537D01*
X1757717Y492300D01*
X1757322Y492984D01*
X1756763Y493542D01*
X1756079Y493937D01*
X1755316Y494142D01*
D02*
G37*
G36*
X1555323Y481110D02*
X1553203D01*
Y478203D01*
X1555323D01*
Y481110D01*
D02*
G37*
G36*
X1630520D02*
X1628400D01*
Y478203D01*
X1630520D01*
Y481110D01*
D02*
G37*
G36*
X1705717D02*
X1703596D01*
Y478203D01*
X1705717D01*
Y481110D01*
D02*
G37*
G36*
X1703096D02*
X1700976D01*
Y478203D01*
X1703096D01*
Y481110D01*
D02*
G37*
G36*
X1627900D02*
X1625780D01*
Y478203D01*
X1627900D01*
Y481110D01*
D02*
G37*
G36*
X1552703D02*
X1550583D01*
Y478203D01*
X1552703D01*
Y481110D01*
D02*
G37*
G36*
X1780323Y480717D02*
X1778203D01*
Y477809D01*
X1780323D01*
Y480717D01*
D02*
G37*
G36*
X1777703D02*
X1775583D01*
Y477809D01*
X1777703D01*
Y480717D01*
D02*
G37*
G36*
X1680513Y493157D02*
X1679723D01*
X1678960Y492953D01*
X1678276Y492558D01*
X1677718Y491999D01*
X1677323Y491315D01*
X1677118Y490552D01*
Y489762D01*
X1677323Y489000D01*
X1677718Y488315D01*
X1678276Y487757D01*
X1678589Y487576D01*
Y482896D01*
X1678276Y482716D01*
X1677718Y482157D01*
X1677323Y481473D01*
X1677118Y480710D01*
Y479920D01*
X1677323Y479157D01*
X1677718Y478473D01*
X1678276Y477914D01*
X1678960Y477519D01*
X1679723Y477315D01*
X1680513D01*
X1681276Y477519D01*
X1681960Y477914D01*
X1682519Y478473D01*
X1682914Y479157D01*
X1683118Y479920D01*
Y480710D01*
X1682914Y481473D01*
X1682519Y482157D01*
X1681960Y482716D01*
X1681647Y482896D01*
Y487576D01*
X1681960Y487757D01*
X1682519Y488315D01*
X1682914Y489000D01*
X1683118Y489762D01*
Y490552D01*
X1682914Y491315D01*
X1682519Y491999D01*
X1681960Y492558D01*
X1681276Y492953D01*
X1680513Y493157D01*
D02*
G37*
G36*
X1604726D02*
X1603936D01*
X1603173Y492953D01*
X1602489Y492558D01*
X1601930Y491999D01*
X1601535Y491315D01*
X1601331Y490552D01*
Y489762D01*
X1601535Y489000D01*
X1601930Y488315D01*
X1602489Y487757D01*
X1602801Y487576D01*
Y482896D01*
X1602489Y482716D01*
X1601930Y482157D01*
X1601535Y481473D01*
X1601331Y480710D01*
Y479920D01*
X1601535Y479157D01*
X1601930Y478473D01*
X1602489Y477914D01*
X1603173Y477519D01*
X1603936Y477315D01*
X1604726D01*
X1605489Y477519D01*
X1606173Y477914D01*
X1606731Y478473D01*
X1607126Y479157D01*
X1607331Y479920D01*
Y480710D01*
X1607126Y481473D01*
X1606731Y482157D01*
X1606173Y482716D01*
X1605860Y482896D01*
Y487576D01*
X1606173Y487757D01*
X1606731Y488315D01*
X1607126Y489000D01*
X1607331Y489762D01*
Y490552D01*
X1607126Y491315D01*
X1606731Y491999D01*
X1606173Y492558D01*
X1605489Y492953D01*
X1604726Y493157D01*
D02*
G37*
G36*
X1531891D02*
X1531101D01*
X1530338Y492953D01*
X1529654Y492558D01*
X1529095Y491999D01*
X1528701Y491315D01*
X1528496Y490552D01*
Y489762D01*
X1528701Y489000D01*
X1529095Y488315D01*
X1529654Y487757D01*
X1529967Y487576D01*
Y482896D01*
X1529654Y482716D01*
X1529095Y482157D01*
X1528701Y481473D01*
X1528496Y480710D01*
Y479920D01*
X1528701Y479157D01*
X1529095Y478473D01*
X1529654Y477914D01*
X1530338Y477519D01*
X1531101Y477315D01*
X1531891D01*
X1532654Y477519D01*
X1533338Y477914D01*
X1533897Y478473D01*
X1534292Y479157D01*
X1534496Y479920D01*
Y480710D01*
X1534292Y481473D01*
X1533897Y482157D01*
X1533338Y482716D01*
X1533025Y482896D01*
Y487576D01*
X1533338Y487757D01*
X1533897Y488315D01*
X1534292Y489000D01*
X1534496Y489762D01*
Y490552D01*
X1534292Y491315D01*
X1533897Y491999D01*
X1533338Y492558D01*
X1532654Y492953D01*
X1531891Y493157D01*
D02*
G37*
G36*
X1705717Y477703D02*
X1703596D01*
Y474795D01*
X1705717D01*
Y477703D01*
D02*
G37*
G36*
X1703096D02*
X1700976D01*
Y474795D01*
X1703096D01*
Y477703D01*
D02*
G37*
G36*
X1630520D02*
X1628400D01*
Y474795D01*
X1630520D01*
Y477703D01*
D02*
G37*
G36*
X1627900D02*
X1625780D01*
Y474795D01*
X1627900D01*
Y477703D01*
D02*
G37*
G36*
X1555323D02*
X1553203D01*
Y474795D01*
X1555323D01*
Y477703D01*
D02*
G37*
G36*
X1552703D02*
X1550583D01*
Y474795D01*
X1552703D01*
Y477703D01*
D02*
G37*
G36*
X1780323Y477309D02*
X1778203D01*
Y474402D01*
X1780323D01*
Y477309D01*
D02*
G37*
G36*
X1777703D02*
X1775583D01*
Y474402D01*
X1777703D01*
Y477309D01*
D02*
G37*
G36*
X1847082Y488810D02*
X1845648D01*
X1844241Y488530D01*
X1842915Y487981D01*
X1841722Y487184D01*
X1840708Y486169D01*
X1839910Y484977D01*
X1839361Y483651D01*
X1839082Y482244D01*
Y480809D01*
X1839361Y479402D01*
X1839910Y478077D01*
X1840708Y476884D01*
X1841722Y475869D01*
X1842915Y475072D01*
X1844241Y474523D01*
X1845648Y474243D01*
X1847082D01*
X1848490Y474523D01*
X1849815Y475072D01*
X1851008Y475869D01*
X1852022Y476884D01*
X1852819Y478077D01*
X1853369Y479402D01*
X1853648Y480809D01*
Y482244D01*
X1853369Y483651D01*
X1852819Y484977D01*
X1852022Y486169D01*
X1851008Y487184D01*
X1849815Y487981D01*
X1848490Y488530D01*
X1847082Y488810D01*
D02*
G37*
%LPD*%
D14*
X1634055Y477953D02*
D03*
X1628150D02*
D03*
X1709252D02*
D03*
X1703346D02*
D03*
X1783858Y477559D02*
D03*
X1777953D02*
D03*
X1558858Y477953D02*
D03*
X1552953D02*
D03*
X1538386Y548433D02*
D03*
X1532480D02*
D03*
X1614370D02*
D03*
X1608464D02*
D03*
X1688779D02*
D03*
X1682874D02*
D03*
X1763583Y548492D02*
D03*
X1757677D02*
D03*
X1791512Y623335D02*
D03*
X1797418D02*
D03*
X1716427D02*
D03*
X1722333D02*
D03*
X1641535D02*
D03*
X1647441D02*
D03*
X1566535D02*
D03*
X1572441D02*
D03*
X1538386Y698433D02*
D03*
X1532480D02*
D03*
X1614370D02*
D03*
X1608465D02*
D03*
X1688779D02*
D03*
X1682874D02*
D03*
X1763583D02*
D03*
X1757677D02*
D03*
X1845925Y773402D02*
D03*
X1851831D02*
D03*
X1791512D02*
D03*
X1797418D02*
D03*
X1716427D02*
D03*
X1722333D02*
D03*
X1641535D02*
D03*
X1647441D02*
D03*
X1566535D02*
D03*
X1572441D02*
D03*
D21*
X1908268Y685433D02*
D03*
X1952362D02*
D03*
D22*
X1920472Y657874D02*
D03*
X1940158D02*
D03*
X1920472Y714961D02*
D03*
X1930315D02*
D03*
D23*
X1940158D02*
D03*
D27*
X1820866Y773228D02*
X1820951Y772258D01*
X1821203Y771316D01*
X1821615Y770433D01*
X1822174Y769635D01*
X1822863Y768946D01*
X1823661Y768387D01*
X1824545Y767975D01*
X1825486Y767723D01*
X1826457Y767638D01*
X1830709Y738976D02*
X1829723Y738899D01*
X1828762Y738668D01*
X1827849Y738290D01*
X1827006Y737773D01*
X1826254Y737131D01*
X1825612Y736380D01*
X1825096Y735537D01*
X1824718Y734624D01*
X1824487Y733663D01*
X1824409Y732677D01*
X1820709Y710433D02*
X1821667Y710559D01*
X1822559Y710929D01*
X1823326Y711517D01*
X1823914Y712284D01*
X1824283Y713176D01*
X1824409Y714134D01*
X1815672Y710242D02*
X1814697Y709797D01*
X1813866Y709121D01*
X1813231Y708258D01*
X1812832Y707264D01*
X1812697Y706201D01*
X1816929Y710433D02*
X1815672Y710242D01*
X1784465Y477559D02*
X1785445Y477607D01*
X1786416Y477751D01*
X1787368Y477990D01*
X1788292Y478320D01*
X1789179Y478740D01*
X1790021Y479244D01*
X1790809Y479829D01*
X1791536Y480488D01*
X1792195Y481215D01*
X1792780Y482003D01*
X1793284Y482845D01*
X1793704Y483732D01*
X1794035Y484656D01*
X1794273Y485608D01*
X1794417Y486579D01*
X1794465Y487559D01*
X1709380Y477953D02*
X1710360Y478001D01*
X1711331Y478145D01*
X1712283Y478383D01*
X1713207Y478714D01*
X1714094Y479134D01*
X1714935Y479638D01*
X1715724Y480223D01*
X1716451Y480882D01*
X1717110Y481609D01*
X1717694Y482397D01*
X1718199Y483239D01*
X1718619Y484126D01*
X1718949Y485050D01*
X1719188Y486002D01*
X1719332Y486973D01*
X1719380Y487953D01*
X1634488Y477953D02*
X1635468Y478001D01*
X1636439Y478145D01*
X1637391Y478383D01*
X1638315Y478714D01*
X1639202Y479134D01*
X1640044Y479638D01*
X1640832Y480223D01*
X1641559Y480882D01*
X1642218Y481609D01*
X1642803Y482397D01*
X1643307Y483239D01*
X1643727Y484126D01*
X1644058Y485050D01*
X1644296Y486002D01*
X1644440Y486973D01*
X1644488Y487953D01*
X1558858Y477953D02*
X1559831Y478012D01*
X1560790Y478187D01*
X1561720Y478477D01*
X1562609Y478877D01*
X1563443Y479381D01*
X1564210Y479983D01*
X1564899Y480672D01*
X1565500Y481439D01*
X1566005Y482273D01*
X1566405Y483162D01*
X1566695Y484092D01*
X1566870Y485051D01*
X1566929Y486024D01*
X1518504Y500551D02*
X1518637Y499538D01*
X1519028Y498594D01*
X1519650Y497783D01*
X1520461Y497161D01*
X1521405Y496770D01*
X1522418Y496637D01*
X1530512Y550402D02*
X1530776Y549417D01*
X1531496Y548697D01*
X1532480Y548433D01*
X1605315Y551583D02*
X1605469Y550609D01*
X1605916Y549731D01*
X1606613Y549035D01*
X1607491Y548587D01*
X1608464Y548433D01*
X1679921Y551386D02*
X1680066Y550473D01*
X1680485Y549650D01*
X1681138Y548997D01*
X1681962Y548578D01*
X1682874Y548433D01*
X1754921Y551248D02*
X1755131Y550193D01*
X1755728Y549299D01*
X1756623Y548702D01*
X1757677Y548492D01*
X1856569Y667323D02*
X1857596Y667527D01*
X1858466Y668109D01*
X1859048Y668979D01*
X1859252Y670005D01*
X1794465Y646745D02*
X1793471Y646647D01*
X1792515Y646357D01*
X1791635Y645886D01*
X1790862Y645253D01*
X1790229Y644481D01*
X1789758Y643600D01*
X1789468Y642644D01*
X1789370Y641650D01*
X1797418Y627382D02*
X1797273Y628294D01*
X1796854Y629117D01*
X1796201Y629771D01*
X1795378Y630190D01*
X1794465Y630335D01*
X1789370Y635430D02*
X1789468Y634436D01*
X1789758Y633480D01*
X1790229Y632599D01*
X1790862Y631827D01*
X1791635Y631193D01*
X1792515Y630723D01*
X1793471Y630433D01*
X1794465Y630335D01*
X1812448Y667323D02*
X1811467Y667275D01*
X1810497Y667131D01*
X1809545Y666892D01*
X1808621Y666562D01*
X1807734Y666142D01*
X1806892Y665637D01*
X1806104Y665053D01*
X1805376Y664394D01*
X1804717Y663667D01*
X1804133Y662879D01*
X1803628Y662037D01*
X1803209Y661150D01*
X1802878Y660226D01*
X1802640Y659274D01*
X1802496Y658303D01*
X1802448Y657323D01*
X1798796Y640041D02*
X1799741Y640166D01*
X1800622Y640530D01*
X1801378Y641111D01*
X1801958Y641867D01*
X1802323Y642747D01*
X1802448Y643692D01*
X1722333Y641841D02*
X1722240Y642780D01*
X1721966Y643682D01*
X1721522Y644515D01*
X1720923Y645244D01*
X1720194Y645842D01*
X1719361Y646287D01*
X1718459Y646561D01*
X1717520Y646654D01*
X1647441Y640945D02*
X1647354Y641936D01*
X1647097Y642897D01*
X1646676Y643799D01*
X1646105Y644614D01*
X1645402Y645318D01*
X1644587Y645889D01*
X1643685Y646309D01*
X1642724Y646567D01*
X1641732Y646654D01*
X1572441Y642126D02*
X1572327Y643133D01*
X1571993Y644090D01*
X1571453Y644949D01*
X1570736Y645666D01*
X1569878Y646205D01*
X1568921Y646540D01*
X1567913Y646654D01*
X1518878Y656653D02*
X1518926Y655673D01*
X1519070Y654703D01*
X1519308Y653751D01*
X1519639Y652827D01*
X1520059Y651940D01*
X1520563Y651098D01*
X1521148Y650310D01*
X1521807Y649582D01*
X1522534Y648923D01*
X1523322Y648339D01*
X1524164Y647834D01*
X1525051Y647415D01*
X1525975Y647084D01*
X1526927Y646846D01*
X1527898Y646702D01*
X1528878Y646654D01*
X1530512Y700402D02*
X1530776Y699417D01*
X1531496Y698697D01*
X1532480Y698433D01*
X1604331Y702567D02*
X1604472Y701497D01*
X1604885Y700500D01*
X1605541Y699644D01*
X1606398Y698987D01*
X1607395Y698574D01*
X1608465Y698433D01*
X1680118Y701189D02*
X1680328Y700134D01*
X1680925Y699240D01*
X1681819Y698643D01*
X1682874Y698433D01*
X1749882Y716535D02*
X1748839Y716444D01*
X1747828Y716173D01*
X1746880Y715731D01*
X1746023Y715131D01*
X1745283Y714391D01*
X1744682Y713533D01*
X1744240Y712585D01*
X1743969Y711574D01*
X1743878Y710532D01*
Y706910D02*
X1743940Y705888D01*
X1744124Y704881D01*
X1744429Y703904D01*
X1744849Y702970D01*
X1745378Y702094D01*
X1746010Y701289D01*
X1746733Y700565D01*
X1747539Y699933D01*
X1748415Y699404D01*
X1749349Y698984D01*
X1750326Y698679D01*
X1751333Y698495D01*
X1752354Y698433D01*
X1851831Y773402D02*
X1852799Y773465D01*
X1853752Y773654D01*
X1854671Y773967D01*
X1855541Y774396D01*
X1856348Y774935D01*
X1857078Y775575D01*
X1857718Y776305D01*
X1858258Y777112D01*
X1858687Y777983D01*
X1858999Y778902D01*
X1859188Y779854D01*
X1859252Y780823D01*
X1797418Y793757D02*
X1797273Y794669D01*
X1796854Y795492D01*
X1796201Y796145D01*
X1795378Y796565D01*
X1794465Y796709D01*
X1722333Y793451D02*
X1722188Y794364D01*
X1721769Y795187D01*
X1721115Y795840D01*
X1720292Y796259D01*
X1719380Y796404D01*
X1647441Y793401D02*
X1647288Y794369D01*
X1646843Y795243D01*
X1646149Y795936D01*
X1645276Y796381D01*
X1644307Y796534D01*
X1644488Y796353D01*
X1572441Y793701D02*
X1572246Y794680D01*
X1571691Y795510D01*
X1570861Y796065D01*
X1569882Y796260D01*
X1518504Y800551D02*
X1518612Y799596D01*
X1518929Y798689D01*
X1519440Y797876D01*
X1520120Y797196D01*
X1520933Y796685D01*
X1521840Y796367D01*
X1522795Y796260D01*
X1853346Y581693D02*
X1854345Y581739D01*
X1855336Y581877D01*
X1856309Y582106D01*
X1857257Y582424D01*
X1858172Y582828D01*
X1859046Y583315D01*
X1859871Y583880D01*
X1860640Y584519D01*
X1861348Y585226D01*
X1861986Y585995D01*
X1862552Y586820D01*
X1863038Y587694D01*
X1863442Y588609D01*
X1863760Y589557D01*
X1863989Y590530D01*
X1864127Y591521D01*
X1864173Y592520D01*
X1868268Y660433D02*
X1867208Y660293D01*
X1866220Y659885D01*
X1865372Y659234D01*
X1864722Y658386D01*
X1864313Y657398D01*
X1864173Y656339D01*
X1895276Y747638D02*
X1894299Y747574D01*
X1893340Y747383D01*
X1892413Y747068D01*
X1891535Y746636D01*
X1890722Y746092D01*
X1889986Y745447D01*
X1889341Y744711D01*
X1888798Y743898D01*
X1888365Y743020D01*
X1888050Y742094D01*
X1887859Y741134D01*
X1887795Y740158D01*
X1877795Y729331D02*
X1878775Y729379D01*
X1879746Y729523D01*
X1880698Y729761D01*
X1881622Y730092D01*
X1882509Y730512D01*
X1883351Y731016D01*
X1884139Y731601D01*
X1884866Y732260D01*
X1885525Y732987D01*
X1886110Y733775D01*
X1886614Y734617D01*
X1887034Y735504D01*
X1887365Y736428D01*
X1887603Y737380D01*
X1887747Y738350D01*
X1887795Y739331D01*
X1845472Y581693D02*
X1844444Y581639D01*
X1843426Y581478D01*
X1842431Y581211D01*
X1841469Y580842D01*
X1840551Y580374D01*
X1839687Y579813D01*
X1838886Y579165D01*
X1838158Y578436D01*
X1837510Y577636D01*
X1836949Y576772D01*
X1836481Y575854D01*
X1836112Y574892D01*
X1835845Y573897D01*
X1835684Y572879D01*
X1835630Y571850D01*
X1889237Y727638D02*
X1888259Y727528D01*
X1887330Y727203D01*
X1886497Y726679D01*
X1885801Y725983D01*
X1885278Y725150D01*
X1884953Y724221D01*
X1884842Y723244D01*
X1897638Y701772D02*
X1896610Y701704D01*
X1895600Y701503D01*
X1894625Y701172D01*
X1893701Y700717D01*
X1892844Y700144D01*
X1892070Y699465D01*
X1891391Y698691D01*
X1890819Y697835D01*
X1890363Y696911D01*
X1890032Y695936D01*
X1889831Y694925D01*
X1889764Y693898D01*
X1879764Y660433D02*
X1880744Y660481D01*
X1881715Y660625D01*
X1882667Y660864D01*
X1883591Y661194D01*
X1884478Y661614D01*
X1885320Y662118D01*
X1886108Y662703D01*
X1886835Y663362D01*
X1887494Y664089D01*
X1888078Y664877D01*
X1888583Y665719D01*
X1889003Y666606D01*
X1889333Y667530D01*
X1889572Y668482D01*
X1889716Y669453D01*
X1889764Y670433D01*
X1906496Y730748D02*
X1906426Y731729D01*
X1906217Y732689D01*
X1905873Y733610D01*
X1905402Y734473D01*
X1904813Y735260D01*
X1904118Y735955D01*
X1903331Y736544D01*
X1902468Y737015D01*
X1901547Y737359D01*
X1900587Y737568D01*
X1899606Y737638D01*
X1900591Y701772D02*
X1901616Y701861D01*
X1902610Y702128D01*
X1903543Y702563D01*
X1904387Y703153D01*
X1905114Y703881D01*
X1905705Y704724D01*
X1906140Y705657D01*
X1906406Y706652D01*
X1906496Y707677D01*
X1799606Y530079D02*
X1799654Y529099D01*
X1799798Y528128D01*
X1800037Y527176D01*
X1800368Y526252D01*
X1800787Y525365D01*
X1801292Y524523D01*
X1801876Y523735D01*
X1802535Y523008D01*
X1803262Y522349D01*
X1804051Y521764D01*
X1804892Y521259D01*
X1805779Y520840D01*
X1806704Y520509D01*
X1807655Y520271D01*
X1808626Y520127D01*
X1809606Y520079D01*
X1928740Y843307D02*
X1928314Y844530D01*
X1928740Y740551D02*
X1928780Y739538D01*
X1928899Y738531D01*
X1929097Y737537D01*
X1929372Y736561D01*
X1929723Y735609D01*
X1930148Y734689D01*
X1930643Y733804D01*
X1931206Y732961D01*
X1931834Y732165D01*
X1932522Y731420D01*
X1933267Y730732D01*
X1934063Y730104D01*
X1934906Y729541D01*
X1935791Y729045D01*
X1936712Y728621D01*
X1937663Y728270D01*
X1938639Y727995D01*
X1939633Y727797D01*
X1940640Y727678D01*
X1941653Y727638D01*
X1927994Y844850D02*
X1926772Y845276D01*
X1879921D02*
X1878870Y845157D01*
X1877871Y844808D01*
X1876976Y844245D01*
X1876228Y843497D01*
X1875665Y842601D01*
X1875315Y841603D01*
X1875197Y840551D01*
X1819449Y848032D02*
X1818469Y847983D01*
X1817498Y847839D01*
X1816546Y847601D01*
X1815622Y847270D01*
X1814735Y846851D01*
X1813893Y846346D01*
X1813105Y845762D01*
X1812378Y845103D01*
X1811719Y844375D01*
X1811134Y843587D01*
X1810630Y842745D01*
X1810210Y841858D01*
X1809879Y840934D01*
X1809641Y839982D01*
X1809497Y839012D01*
X1809449Y838031D01*
X1744252Y850787D02*
X1743272Y850739D01*
X1742301Y850595D01*
X1741349Y850357D01*
X1740425Y850026D01*
X1739538Y849607D01*
X1738696Y849102D01*
X1737908Y848518D01*
X1737181Y847859D01*
X1736522Y847131D01*
X1735937Y846343D01*
X1735433Y845501D01*
X1735013Y844614D01*
X1734683Y843690D01*
X1734444Y842738D01*
X1734300Y841768D01*
X1734252Y840787D01*
X1669055Y853543D02*
X1668075Y853495D01*
X1667104Y853351D01*
X1666152Y853113D01*
X1665228Y852782D01*
X1664341Y852363D01*
X1663499Y851858D01*
X1662711Y851273D01*
X1661984Y850614D01*
X1661325Y849887D01*
X1660740Y849099D01*
X1660236Y848257D01*
X1659816Y847370D01*
X1659486Y846446D01*
X1659247Y845494D01*
X1659103Y844524D01*
X1659055Y843543D01*
X1593858Y856299D02*
X1592878Y856251D01*
X1591907Y856107D01*
X1590955Y855869D01*
X1590031Y855538D01*
X1589144Y855118D01*
X1588303Y854614D01*
X1587514Y854029D01*
X1586787Y853370D01*
X1586128Y852643D01*
X1585544Y851855D01*
X1585039Y851013D01*
X1584620Y850126D01*
X1584289Y849202D01*
X1584050Y848250D01*
X1583906Y847279D01*
X1583858Y846299D01*
X1837795Y757638D02*
X1836787Y757566D01*
X1835799Y757351D01*
X1834851Y756997D01*
X1833964Y756513D01*
X1833154Y755907D01*
X1832440Y755192D01*
X1831834Y754383D01*
X1831349Y753495D01*
X1830996Y752548D01*
X1830781Y751560D01*
X1830709Y750551D01*
X1931890D02*
X1931930Y749538D01*
X1932049Y748531D01*
X1932247Y747537D01*
X1932522Y746561D01*
X1932873Y745609D01*
X1933297Y744689D01*
X1933793Y743804D01*
X1934356Y742961D01*
X1934984Y742165D01*
X1935672Y741420D01*
X1936417Y740732D01*
X1937213Y740104D01*
X1938056Y739541D01*
X1938941Y739045D01*
X1939861Y738621D01*
X1940813Y738270D01*
X1941789Y737995D01*
X1942783Y737797D01*
X1943790Y737678D01*
X1944803Y737638D01*
X1934646Y758583D02*
X1934692Y757573D01*
X1934832Y756572D01*
X1935064Y755587D01*
X1935385Y754629D01*
X1935793Y753704D01*
X1936285Y752821D01*
X1936856Y751987D01*
X1937502Y751209D01*
X1938217Y750494D01*
X1938995Y749849D01*
X1939829Y749277D01*
X1940712Y748785D01*
X1941637Y748377D01*
X1942595Y748056D01*
X1943579Y747824D01*
X1944581Y747684D01*
X1945591Y747638D01*
X1937402Y768583D02*
X1937448Y767573D01*
X1937588Y766572D01*
X1937819Y765588D01*
X1938141Y764629D01*
X1938549Y763704D01*
X1939041Y762821D01*
X1939612Y761987D01*
X1940258Y761209D01*
X1940973Y760494D01*
X1941751Y759848D01*
X1942585Y759277D01*
X1943468Y758785D01*
X1944393Y758377D01*
X1945351Y758056D01*
X1946335Y757824D01*
X1947337Y757685D01*
X1948346Y757638D01*
X1940158Y774741D02*
X1940230Y773730D01*
X1940445Y772740D01*
X1940799Y771790D01*
X1941285Y770901D01*
X1941892Y770089D01*
X1942609Y769373D01*
X1943420Y768765D01*
X1944310Y768280D01*
X1945259Y767926D01*
X1946250Y767710D01*
X1947261Y767638D01*
X1931890Y845526D02*
X1931660Y846602D01*
X1931009Y847488D01*
X1930053Y848032D01*
X1940158Y850394D02*
X1940068Y851419D01*
X1939801Y852413D01*
X1939366Y853347D01*
X1938776Y854190D01*
X1938048Y854918D01*
X1937205Y855508D01*
X1936272Y855943D01*
X1935277Y856209D01*
X1934252Y856299D01*
X1937402Y848819D02*
X1937283Y849870D01*
X1936934Y850869D01*
X1936371Y851764D01*
X1935623Y852513D01*
X1934727Y853075D01*
X1933728Y853425D01*
X1932677Y853543D01*
X1934646Y847244D02*
X1934525Y848161D01*
X1934171Y849016D01*
X1933608Y849750D01*
X1932874Y850313D01*
X1932019Y850667D01*
X1931102Y850787D01*
X1805906Y608268D02*
X1805833Y609276D01*
X1805618Y610264D01*
X1805265Y611212D01*
X1804781Y612099D01*
X1804175Y612909D01*
X1803460Y613623D01*
X1802650Y614229D01*
X1801763Y614714D01*
X1800815Y615067D01*
X1799827Y615282D01*
X1798819Y615354D01*
X1785433Y620079D02*
X1785551Y619028D01*
X1785901Y618029D01*
X1786464Y617133D01*
X1787212Y616385D01*
X1788108Y615822D01*
X1789106Y615473D01*
X1790158Y615354D01*
X1812697Y672835D02*
Y706201D01*
X1830709Y738976D02*
Y750551D01*
X1824409Y714134D02*
Y732677D01*
X1817129Y710433D02*
X1820709D01*
X1752378D02*
X1815613D01*
X1895276Y747638D02*
X1899606D01*
X1825787Y762795D02*
X1835630D01*
X1854331D02*
X1864173D01*
X1679134Y780512D02*
Y790354D01*
X1605315Y780512D02*
Y790354D01*
X1530512Y780512D02*
Y790354D01*
X1941653Y727638D02*
X1959606D01*
X1754921Y481299D02*
Y491142D01*
X1680118Y480315D02*
Y490158D01*
X1604331Y480315D02*
Y490158D01*
X1531496Y480315D02*
Y490158D01*
X1754921Y629921D02*
Y639764D01*
X1680118Y629921D02*
Y639764D01*
X1605315Y629921D02*
Y639764D01*
X1529528Y629921D02*
Y639764D01*
X1868110Y684055D02*
X1879921D01*
X1783858Y477559D02*
X1784465D01*
X1794465Y487559D02*
Y496945D01*
X1709252Y477953D02*
X1709380D01*
X1719380Y487953D02*
Y497057D01*
X1634055Y477953D02*
X1634488D01*
X1644488Y487953D02*
Y496844D01*
X1566929Y486024D02*
Y497047D01*
X1522418Y496637D02*
X1526985D01*
X1518504Y500551D02*
Y566142D01*
X1526985Y496637D02*
X1527559Y496063D01*
X1530512Y550402D02*
Y565945D01*
X1605315Y551583D02*
Y565945D01*
X1679921Y551386D02*
Y565945D01*
X1754921Y551248D02*
Y565945D01*
X1812448Y667323D02*
X1856569D01*
X1859252Y670005D02*
Y672244D01*
X1797418Y623335D02*
Y627382D01*
X1789370Y635430D02*
Y641650D01*
X1794465Y640041D02*
X1798796D01*
X1802448Y643692D02*
Y657323D01*
X1722333Y623335D02*
Y641841D01*
X1647441Y623335D02*
Y640945D01*
X1572441Y623335D02*
Y642126D01*
X1528878Y646654D02*
X1529528D01*
X1518878Y656653D02*
Y715840D01*
X1528953Y646079D02*
X1529528Y646654D01*
X1530512Y700402D02*
Y715551D01*
X1604331Y702567D02*
Y715551D01*
X1680118Y701189D02*
Y715551D01*
X1749882Y716535D02*
X1754921D01*
X1752354Y698433D02*
X1757677D01*
X1743878Y706910D02*
Y710532D01*
X1859252Y780823D02*
Y803150D01*
X1797418Y773402D02*
Y793757D01*
X1794465Y795898D02*
Y796709D01*
X1722333Y773402D02*
Y793451D01*
X1719380Y795592D02*
Y796404D01*
X1647441Y773402D02*
Y793401D01*
X1644488Y795542D02*
Y796353D01*
X1569882Y795448D02*
Y796260D01*
X1572441Y773402D02*
Y793701D01*
X1522795Y796260D02*
X1530512D01*
X1518504Y800551D02*
Y843701D01*
X1864173Y592520D02*
Y656339D01*
X1847441Y729331D02*
X1877795D01*
X1887795Y739331D02*
Y740158D01*
X1884842Y671260D02*
Y723244D01*
X1845472Y581693D02*
X1853346D01*
X1835630Y566929D02*
Y571850D01*
X1868268Y660433D02*
X1879764D01*
X1889764Y670433D02*
Y693898D01*
X1906496Y707677D02*
Y730748D01*
X1897638Y701772D02*
X1900591D01*
X1809606Y520079D02*
X1818110D01*
X1799606Y530079D02*
Y540945D01*
X1928740Y740551D02*
Y843307D01*
X1927994Y844850D02*
X1928314Y844530D01*
X1879921Y845276D02*
X1926772D01*
X1930053Y848032D02*
X1930053D01*
X1922800Y848032D02*
X1930053Y848032D01*
X1819449Y848032D02*
X1922800D01*
X1809449Y831496D02*
Y838031D01*
X1744252Y850787D02*
X1931102D01*
X1734252Y829921D02*
Y840787D01*
X1669055Y853543D02*
X1932677D01*
X1659055Y830709D02*
Y843543D01*
X1593858Y856299D02*
X1934252D01*
X1583858Y830709D02*
Y846299D01*
X1889237Y727638D02*
X1899606D01*
X1837795Y757638D02*
X1899606D01*
X1826457Y767638D02*
X1899606D01*
X1944803Y737638D02*
X1959606D01*
X1945591Y747638D02*
X1959606D01*
X1948346Y757638D02*
X1959606D01*
X1947261Y767638D02*
X1959606D01*
X1940158Y774741D02*
Y850394D01*
X1931890Y750551D02*
Y845526D01*
X1937402Y768583D02*
Y848819D01*
X1934646Y758583D02*
Y847244D01*
X1805906Y540945D02*
Y608268D01*
X1790158Y615354D02*
X1798819D01*
X1785433Y620079D02*
Y656299D01*
X1803543Y716535D02*
Y727559D01*
X1809449Y754816D02*
Y831496D01*
X1734252Y755905D02*
Y829921D01*
Y680709D02*
Y755905D01*
Y605905D02*
Y680709D01*
Y528346D02*
Y605905D01*
X1659055Y755905D02*
Y830709D01*
Y681496D02*
Y755905D01*
Y605905D02*
Y681496D01*
Y529134D02*
Y605905D01*
X1583858Y755512D02*
Y830709D01*
Y680315D02*
Y755512D01*
Y605512D02*
Y680315D01*
Y529921D02*
Y605512D01*
D28*
X1833850Y820402D02*
D03*
X1858850Y830402D02*
D03*
X1833850Y707835D02*
D03*
X1858850Y717835D02*
D03*
X1758878Y520433D02*
D03*
X1783878Y530433D02*
D03*
X1683878Y520433D02*
D03*
X1708878Y530433D02*
D03*
X1608878Y520433D02*
D03*
X1633878Y530433D02*
D03*
X1533878Y520433D02*
D03*
X1558878Y530433D02*
D03*
X1833850Y557579D02*
D03*
X1858850Y567579D02*
D03*
X1758878Y595492D02*
D03*
X1783878Y605492D02*
D03*
X1683878Y595433D02*
D03*
X1708878Y605433D02*
D03*
X1608878Y595433D02*
D03*
X1633878Y605433D02*
D03*
X1533878Y595433D02*
D03*
X1558878Y605433D02*
D03*
X1758878Y670335D02*
D03*
X1783878Y680335D02*
D03*
X1683878Y670335D02*
D03*
X1708878Y680335D02*
D03*
X1608878Y670335D02*
D03*
X1633878Y680335D02*
D03*
X1533878Y670335D02*
D03*
X1558878Y680335D02*
D03*
X1758878Y745433D02*
D03*
X1783878Y755433D02*
D03*
X1683878Y745433D02*
D03*
X1708878Y755433D02*
D03*
X1608878Y745433D02*
D03*
X1633878Y755433D02*
D03*
X1533878Y745433D02*
D03*
X1558878Y755433D02*
D03*
X1758878Y820402D02*
D03*
X1783878Y830402D02*
D03*
X1683878Y820402D02*
D03*
X1708878Y830402D02*
D03*
X1608878Y820402D02*
D03*
X1633878Y830402D02*
D03*
X1533878Y820402D02*
D03*
X1558878Y830402D02*
D03*
D29*
X1868850Y810402D02*
D03*
X1828850D02*
D03*
X1868850Y697835D02*
D03*
X1828850D02*
D03*
X1793878Y510433D02*
D03*
X1753878D02*
D03*
X1718878Y510433D02*
D03*
X1678878D02*
D03*
X1643878D02*
D03*
X1603878D02*
D03*
X1568878D02*
D03*
X1528878D02*
D03*
X1868850Y547579D02*
D03*
X1828850D02*
D03*
X1793878Y585492D02*
D03*
X1753878D02*
D03*
X1718878Y585433D02*
D03*
X1678878D02*
D03*
X1643878D02*
D03*
X1603878D02*
D03*
X1568878D02*
D03*
X1528878D02*
D03*
X1793878Y660335D02*
D03*
X1753878D02*
D03*
X1718878D02*
D03*
X1678878D02*
D03*
X1643878D02*
D03*
X1603878D02*
D03*
X1568878D02*
D03*
X1528878D02*
D03*
X1793878Y735433D02*
D03*
X1753878D02*
D03*
X1718878D02*
D03*
X1678878D02*
D03*
X1643878D02*
D03*
X1603878D02*
D03*
X1568878D02*
D03*
X1528878D02*
D03*
X1793878Y810402D02*
D03*
X1753878D02*
D03*
X1718878D02*
D03*
X1678878D02*
D03*
X1643878D02*
D03*
X1603878D02*
D03*
X1568878D02*
D03*
X1528878D02*
D03*
D30*
X1848850D02*
D03*
Y697835D02*
D03*
X1773878Y510433D02*
D03*
X1698878Y510433D02*
D03*
X1623878D02*
D03*
X1548878D02*
D03*
X1848850Y547579D02*
D03*
X1773878Y585492D02*
D03*
X1698878Y585433D02*
D03*
X1623878D02*
D03*
X1548878D02*
D03*
X1773878Y660335D02*
D03*
X1698878D02*
D03*
X1623878D02*
D03*
X1548878D02*
D03*
X1773878Y735433D02*
D03*
X1698878D02*
D03*
X1623878D02*
D03*
X1548878D02*
D03*
X1773878Y810402D02*
D03*
X1698878D02*
D03*
X1623878D02*
D03*
X1548878D02*
D03*
D31*
X1848878Y530503D02*
D03*
X1773878Y493799D02*
D03*
X1698878D02*
D03*
X1623878D02*
D03*
X1548878D02*
D03*
Y568857D02*
D03*
X1623878D02*
D03*
X1698878D02*
D03*
X1773878D02*
D03*
X1848878Y681060D02*
D03*
X1773878Y643692D02*
D03*
X1698878D02*
D03*
X1623878D02*
D03*
X1548878D02*
D03*
Y718793D02*
D03*
X1623878D02*
D03*
X1698878D02*
D03*
X1773878D02*
D03*
X1848878Y793762D02*
D03*
X1773878D02*
D03*
X1698878D02*
D03*
X1623878D02*
D03*
X1548878D02*
D03*
D32*
X1702756Y697835D02*
D03*
X1551575Y623228D02*
D03*
Y773402D02*
D03*
X1846365Y481527D02*
D03*
X1884842Y779528D02*
D03*
D33*
X1899606Y727638D02*
D03*
Y737638D02*
D03*
Y747638D02*
D03*
Y757638D02*
D03*
Y767638D02*
D03*
Y777638D02*
D03*
Y787638D02*
D03*
Y797638D02*
D03*
Y807638D02*
D03*
Y817638D02*
D03*
Y827638D02*
D03*
Y837638D02*
D03*
X1959606Y727638D02*
D03*
Y737638D02*
D03*
Y747638D02*
D03*
Y757638D02*
D03*
Y767638D02*
D03*
Y777638D02*
D03*
Y787638D02*
D03*
Y797638D02*
D03*
Y807638D02*
D03*
Y817638D02*
D03*
Y827638D02*
D03*
Y837638D02*
D03*
D34*
X1816378Y650705D02*
D03*
Y500705D02*
D03*
Y594705D02*
D03*
Y744705D02*
D03*
D35*
X1876378Y594705D02*
D03*
Y650705D02*
D03*
Y500705D02*
D03*
Y744705D02*
D03*
D36*
X1812697Y672835D02*
D03*
X1835630Y762795D02*
D03*
X1825787D02*
D03*
X1864173D02*
D03*
X1854331D02*
D03*
X1679134Y780512D02*
D03*
Y790354D02*
D03*
X1605315Y780512D02*
D03*
Y790354D02*
D03*
X1530512Y780512D02*
D03*
Y790354D02*
D03*
X1754921Y481299D02*
D03*
Y491142D02*
D03*
X1680118Y480315D02*
D03*
Y490158D02*
D03*
X1604331Y480315D02*
D03*
Y490158D02*
D03*
X1531496Y480315D02*
D03*
Y490158D02*
D03*
X1754921Y639764D02*
D03*
Y629921D02*
D03*
X1680118Y639764D02*
D03*
Y629921D02*
D03*
X1605315D02*
D03*
Y639764D02*
D03*
X1529528Y629921D02*
D03*
Y639764D02*
D03*
X1879921Y684055D02*
D03*
X1868110D02*
D03*
X1794465Y496945D02*
D03*
X1719380Y497057D02*
D03*
X1644488Y496844D02*
D03*
X1566929Y497047D02*
D03*
X1527559Y496063D02*
D03*
X1605315Y565945D02*
D03*
X1679921D02*
D03*
X1754921D02*
D03*
X1859252Y672244D02*
D03*
X1794465Y646745D02*
D03*
Y640041D02*
D03*
X1717520Y646654D02*
D03*
X1567913D02*
D03*
X1529528D02*
D03*
X1530512Y715551D02*
D03*
X1604331D02*
D03*
X1754921Y716535D02*
D03*
X1752378Y710433D02*
D03*
X1859252Y803150D02*
D03*
X1794465Y796709D02*
D03*
X1719380Y796404D02*
D03*
X1644488Y796353D02*
D03*
X1569882Y796260D02*
D03*
X1530512D02*
D03*
X1847441Y729331D02*
D03*
X1835630Y566929D02*
D03*
X1884842Y671260D02*
D03*
X1852362Y651575D02*
D03*
X1875197Y840551D02*
D03*
X1518504Y843701D02*
D03*
X1820866Y773228D02*
D03*
X1805906Y540945D02*
D03*
X1798819Y615354D02*
D03*
X1785433Y656299D02*
D03*
X1803543Y727559D02*
D03*
Y716535D02*
D03*
X1809449Y754816D02*
D03*
Y831496D02*
D03*
X1734252Y528346D02*
D03*
Y605905D02*
D03*
Y680709D02*
D03*
Y755905D02*
D03*
Y829921D02*
D03*
X1659055Y529134D02*
D03*
Y605905D02*
D03*
Y681496D02*
D03*
Y755905D02*
D03*
Y830709D02*
D03*
X1518504Y566142D02*
D03*
X1583858Y830709D02*
D03*
Y755512D02*
D03*
Y680315D02*
D03*
Y605512D02*
D03*
Y529921D02*
D03*
X1530512Y565945D02*
D03*
X1680118Y715551D02*
D03*
X1641732Y646654D02*
D03*
X1844882Y515354D02*
D03*
X1818110Y520079D02*
D03*
X1799606Y540945D02*
D03*
X1518878Y715840D02*
D03*
X1830709Y738976D02*
D03*
M02*
