M48
;Layer_Color=9474304
;FILE_FORMAT=2:4
INCH,TZ
;TYPE=PLATED
T1F00S00C0.0280
T2F00S00C0.0394
T3F00S00C0.0400
T4F00S00C0.0670
T7F00S00C0.1181
T8F00S00C0.1200
T9F00S00C0.1260
T10F00S00C0.1570
%
T01
X184488Y51535
X181811Y52008
X180591Y54094
X179961
X179447Y49694
X175492Y49114
Y48130
X171938Y49706
X173425Y52835
X175492Y56594
X173425Y60591
X179882Y61535
X183563Y56693
X167992Y56594
X165906Y52913
X164449Y49684
X168012Y49016
Y48032
X160433
Y49016
X156693Y49705
X158386Y52992
X160532Y56594
X158386Y60551
X165906Y60591
X153051Y56594
X151850Y56614
X152756Y49606
X153150Y49016
Y48032
X152953Y62992
Y63976
Y64665
X153051Y71555
X151888Y71584
X153051Y78051
X160532
X158386Y75551
X160433Y71555
X158386Y68032
X156791Y64665
X160532Y63976
Y62992
X164173Y64665
X168012Y63976
Y62992
X171752Y64665
X165906Y68150
X168012Y71555
X165906Y75591
X167913Y78051
X173425Y75591
X175492Y71654
X175238Y71043
X173425Y68071
X175492Y63976
Y62992
X179447Y64004
Y64675
X178543Y65630
X181270Y67283
X185925Y67224
X186811Y68406
X185236Y65157
X184744Y72933
X183071Y73898
X183563Y76280
X182579
X182087Y77323
X180945Y75482
X180354Y72756
Y71654
X185433Y76280
X186417
X187992Y68406
X188484Y67126
X187520Y84055
X185925Y80315
X179447Y79671
X180945Y83150
X173425Y82992
X171938Y79640
X167913Y79035
X164449Y79635
X160532Y79035
X156988Y79626
X158386Y83071
X165906
X151850Y84370
X153051Y79626
Y79035
T02
X194016Y65787
X192047
Y71496
X193032
X194016
T03
X195961Y72764
Y73764
Y74764
Y75764
Y76764
Y77764
X189961
Y76764
Y75764
Y74764
Y73764
Y72764
Y78764
Y79764
Y80764
Y81764
Y82764
Y83764
X195961
Y82764
Y81764
Y80764
Y79764
Y78764
T04
X186885Y54758
X182885
X179388Y51043
X175388
X171888Y51043
Y58543
X175388Y58549
X179388
X167888Y58543
X164388
X160388
X156888
Y51043
X160388
X164388
X167888
X152888
Y58543
Y66033
Y73543
X156888
X160388
X164388
X167888
Y66033
X164388
X160388
X156888
X171888
X175388
X179388
X182885Y69783
X186885
X179388Y73543
X175388
X171888
Y81040
X175388
X179388
X182885
X186885
X167888
X164388
X160388
X156888
X152888
T07
X185885Y56758
X183385Y55758
X178388Y53043
X175888Y52043
X175888Y59549
X178388Y60549
X170888Y60543
X168388Y59543
X163388Y60543
X160888Y59543
Y52043
X163388Y53043
X168388Y52043
X170888Y53043
X155888
X153388Y52043
Y59543
X155888Y60543
Y68033
X153388Y67033
Y74543
X155888Y75543
X160888Y74543
X163388Y75543
X168388Y74543
X170888Y75543
Y68033
X168388Y67033
X163388Y68033
X160888Y67033
X175888
X178388Y68033
Y75543
X175888Y74543
X183385Y70783
X185885Y71783
Y83040
X183385Y82040
X178388Y83040
X175888Y82040
X170888Y83040
X168388Y82040
X163388Y83040
X160888Y82040
X155888Y83040
X153388Y82040
T08
X187638Y50070
Y59470
Y65070
Y74470
T09
X184636Y48153
X155157Y62323
Y77340
X170276Y69783
X188484Y77953
T10
X181638Y50070
X177388Y51043
X177388Y58549
X181638Y59470
X184885Y54758
X169888Y51043
X162388
Y58543
X169888
X154888
Y51043
Y66033
Y73543
X162388
X169888
Y66033
X162388
X177388
X181638Y65070
X184885Y69783
X181638Y74470
X177388Y73543
Y81040
X184885
X169888
X162388
X154888
M30
