G04*
G04 #@! TF.GenerationSoftware,Altium Limited,Altium Designer,22.1.2 (22)*
G04*
G04 Layer_Color=8388736*
%FSLAX25Y25*%
%MOIN*%
G70*
G04*
G04 #@! TF.SameCoordinates,D61C2380-B101-4CEB-8AB1-AF92B03338ED*
G04*
G04*
G04 #@! TF.FilePolarity,Negative*
G04*
G01*
G75*
%ADD14R,0.03740X0.05315*%
%ADD15C,0.09252*%
%ADD16C,0.16102*%
%ADD17C,0.07102*%
%ADD18C,0.12213*%
%ADD19R,0.13000X0.11425*%
%ADD20C,0.07991*%
G04:AMPARAMS|DCode=21|XSize=102.36mil|YSize=185.04mil|CornerRadius=51.18mil|HoleSize=0mil|Usage=FLASHONLY|Rotation=180.000|XOffset=0mil|YOffset=0mil|HoleType=Round|Shape=RoundedRectangle|*
%AMROUNDEDRECTD21*
21,1,0.10236,0.08268,0,0,180.0*
21,1,0.00000,0.18504,0,0,180.0*
1,1,0.10236,0.00000,0.04134*
1,1,0.10236,0.00000,0.04134*
1,1,0.10236,0.00000,-0.04134*
1,1,0.10236,0.00000,-0.04134*
%
%ADD21ROUNDEDRECTD21*%
%ADD22C,0.06102*%
%ADD23R,0.06102X0.06102*%
%ADD24C,0.16291*%
%ADD25C,0.12591*%
%ADD26C,0.13189*%
%ADD27C,0.05591*%
D14*
X1634055Y477953D02*
D03*
X1628150D02*
D03*
X1709252D02*
D03*
X1703346D02*
D03*
X1783858Y477559D02*
D03*
X1777953D02*
D03*
X1558858Y477953D02*
D03*
X1552953D02*
D03*
X1538386Y548433D02*
D03*
X1532480D02*
D03*
X1614370D02*
D03*
X1608464D02*
D03*
X1688779D02*
D03*
X1682874D02*
D03*
X1763583Y548492D02*
D03*
X1757677D02*
D03*
X1791512Y623335D02*
D03*
X1797418D02*
D03*
X1716427D02*
D03*
X1722333D02*
D03*
X1641535D02*
D03*
X1647441D02*
D03*
X1566535D02*
D03*
X1572441D02*
D03*
X1538386Y698433D02*
D03*
X1532480D02*
D03*
X1614370D02*
D03*
X1608465D02*
D03*
X1688779D02*
D03*
X1682874D02*
D03*
X1763583D02*
D03*
X1757677D02*
D03*
X1845925Y773402D02*
D03*
X1851831D02*
D03*
X1791512D02*
D03*
X1797418D02*
D03*
X1716427D02*
D03*
X1722333D02*
D03*
X1641535D02*
D03*
X1647441D02*
D03*
X1566535D02*
D03*
X1572441D02*
D03*
D15*
X1794717Y697835D02*
D03*
X1569322Y548433D02*
D03*
X1594882Y772433D02*
D03*
X1725544Y548433D02*
D03*
D16*
X1848878Y697705D02*
D03*
X1848850Y810402D02*
D03*
X1773878Y510433D02*
D03*
X1698878Y510433D02*
D03*
X1623878D02*
D03*
X1548878D02*
D03*
X1848878Y547705D02*
D03*
X1773878Y585492D02*
D03*
X1698878Y585433D02*
D03*
X1623878D02*
D03*
X1548878D02*
D03*
X1773878Y660335D02*
D03*
X1698878D02*
D03*
X1623878D02*
D03*
X1548878D02*
D03*
X1773878Y735433D02*
D03*
X1698878D02*
D03*
X1623878D02*
D03*
X1548878D02*
D03*
X1773878Y810402D02*
D03*
X1698878D02*
D03*
X1623878D02*
D03*
X1548878D02*
D03*
D17*
X1828878Y697705D02*
D03*
X1868878D02*
D03*
X1868850Y810402D02*
D03*
X1828850D02*
D03*
X1793878Y510433D02*
D03*
X1753878D02*
D03*
X1718878Y510433D02*
D03*
X1678878D02*
D03*
X1643878D02*
D03*
X1603878D02*
D03*
X1568878D02*
D03*
X1528878D02*
D03*
X1868878Y547705D02*
D03*
X1828878D02*
D03*
X1793878Y585492D02*
D03*
X1753878D02*
D03*
X1718878Y585433D02*
D03*
X1678878D02*
D03*
X1643878D02*
D03*
X1603878D02*
D03*
X1568878D02*
D03*
X1528878D02*
D03*
X1793878Y660335D02*
D03*
X1753878D02*
D03*
X1718878D02*
D03*
X1678878D02*
D03*
X1643878D02*
D03*
X1603878D02*
D03*
X1568878D02*
D03*
X1528878D02*
D03*
X1793878Y735433D02*
D03*
X1753878D02*
D03*
X1718878D02*
D03*
X1678878D02*
D03*
X1643878D02*
D03*
X1603878D02*
D03*
X1568878D02*
D03*
X1528878D02*
D03*
X1793878Y810402D02*
D03*
X1753878D02*
D03*
X1718878D02*
D03*
X1678878D02*
D03*
X1643878D02*
D03*
X1603878D02*
D03*
X1568878D02*
D03*
X1528878D02*
D03*
D18*
X1858878Y717705D02*
D03*
X1833878Y707705D02*
D03*
X1833850Y820402D02*
D03*
X1858850Y830402D02*
D03*
X1758878Y520433D02*
D03*
X1783878Y530433D02*
D03*
X1683878Y520433D02*
D03*
X1708878Y530433D02*
D03*
X1608878Y520433D02*
D03*
X1633878Y530433D02*
D03*
X1533878Y520433D02*
D03*
X1558878Y530433D02*
D03*
X1833878Y557705D02*
D03*
X1858878Y567705D02*
D03*
X1758878Y595492D02*
D03*
X1783878Y605492D02*
D03*
X1683878Y595433D02*
D03*
X1708878Y605433D02*
D03*
X1608878Y595433D02*
D03*
X1633878Y605433D02*
D03*
X1533878Y595433D02*
D03*
X1558878Y605433D02*
D03*
X1758878Y670335D02*
D03*
X1783878Y680335D02*
D03*
X1683878Y670335D02*
D03*
X1708878Y680335D02*
D03*
X1608878Y670335D02*
D03*
X1633878Y680335D02*
D03*
X1533878Y670335D02*
D03*
X1558878Y680335D02*
D03*
X1758878Y745433D02*
D03*
X1783878Y755433D02*
D03*
X1683878Y745433D02*
D03*
X1708878Y755433D02*
D03*
X1608878Y745433D02*
D03*
X1633878Y755433D02*
D03*
X1533878Y745433D02*
D03*
X1558878Y755433D02*
D03*
X1758878Y820402D02*
D03*
X1783878Y830402D02*
D03*
X1683878Y820402D02*
D03*
X1708878Y830402D02*
D03*
X1608878Y820402D02*
D03*
X1633878Y830402D02*
D03*
X1533878Y820402D02*
D03*
X1558878Y830402D02*
D03*
D19*
X1848878Y530503D02*
D03*
X1773878Y493799D02*
D03*
X1698878D02*
D03*
X1623878D02*
D03*
X1548878D02*
D03*
Y568857D02*
D03*
X1623878D02*
D03*
X1698878D02*
D03*
X1773878D02*
D03*
X1848878Y681060D02*
D03*
X1773878Y643692D02*
D03*
X1698878D02*
D03*
X1623878D02*
D03*
X1548878D02*
D03*
Y718793D02*
D03*
X1623878D02*
D03*
X1698878D02*
D03*
X1773878D02*
D03*
X1848878Y793762D02*
D03*
X1773878D02*
D03*
X1698878D02*
D03*
X1623878D02*
D03*
X1548878D02*
D03*
D20*
X1899606Y727638D02*
D03*
Y737638D02*
D03*
Y747638D02*
D03*
Y757638D02*
D03*
Y767638D02*
D03*
Y777638D02*
D03*
Y787638D02*
D03*
Y797638D02*
D03*
Y807638D02*
D03*
Y817638D02*
D03*
Y827638D02*
D03*
Y837638D02*
D03*
X1959606Y727638D02*
D03*
Y737638D02*
D03*
Y747638D02*
D03*
Y757638D02*
D03*
Y767638D02*
D03*
Y777638D02*
D03*
Y787638D02*
D03*
Y797638D02*
D03*
Y807638D02*
D03*
Y817638D02*
D03*
Y827638D02*
D03*
Y837638D02*
D03*
D21*
X1908268Y685433D02*
D03*
X1952362D02*
D03*
D22*
X1920472Y657874D02*
D03*
X1940158D02*
D03*
X1920472Y714961D02*
D03*
X1930315D02*
D03*
D23*
X1940158D02*
D03*
D24*
X1816378Y650705D02*
D03*
Y500705D02*
D03*
Y594705D02*
D03*
Y744705D02*
D03*
D25*
X1876378Y594705D02*
D03*
Y650705D02*
D03*
Y500705D02*
D03*
Y744705D02*
D03*
D26*
X1893307Y710630D02*
D03*
D27*
X1809055Y766732D02*
D03*
X1841535Y566929D02*
D03*
X1812697Y672835D02*
D03*
X1835630Y762795D02*
D03*
X1825787D02*
D03*
X1864173D02*
D03*
X1854331D02*
D03*
X1679134Y780512D02*
D03*
Y790354D02*
D03*
X1605315Y780512D02*
D03*
Y790354D02*
D03*
X1530512Y780512D02*
D03*
Y790354D02*
D03*
X1754921Y481299D02*
D03*
Y491142D02*
D03*
X1680118Y480315D02*
D03*
Y490158D02*
D03*
X1604331Y480315D02*
D03*
Y490158D02*
D03*
X1531496Y480315D02*
D03*
Y490158D02*
D03*
X1754921Y639764D02*
D03*
Y629921D02*
D03*
X1680118Y639764D02*
D03*
Y629921D02*
D03*
X1605315D02*
D03*
Y639764D02*
D03*
X1529528Y629921D02*
D03*
Y639764D02*
D03*
X1879921Y684055D02*
D03*
X1868110D02*
D03*
X1794465Y496945D02*
D03*
X1719380Y497057D02*
D03*
X1644488Y496844D02*
D03*
X1566929Y497047D02*
D03*
X1527559Y496063D02*
D03*
X1605315Y565945D02*
D03*
X1679921D02*
D03*
X1754921D02*
D03*
X1859252Y672244D02*
D03*
X1794465Y646745D02*
D03*
Y640041D02*
D03*
X1717520Y646654D02*
D03*
X1567913D02*
D03*
X1529528D02*
D03*
X1530512Y715551D02*
D03*
X1604331D02*
D03*
X1754921Y716535D02*
D03*
X1752378Y710433D02*
D03*
X1859252Y803150D02*
D03*
X1794465Y796709D02*
D03*
X1719380Y796404D02*
D03*
X1644488Y796353D02*
D03*
X1569882Y796260D02*
D03*
X1530512D02*
D03*
X1847441Y729331D02*
D03*
X1884842Y671260D02*
D03*
X1852362Y651575D02*
D03*
X1875197Y840551D02*
D03*
X1518504Y843701D02*
D03*
X1820866Y773228D02*
D03*
X1805906Y540945D02*
D03*
X1798819Y615354D02*
D03*
X1785433Y656299D02*
D03*
X1803543Y727559D02*
D03*
Y716535D02*
D03*
X1809449Y831496D02*
D03*
X1734252Y528346D02*
D03*
Y605905D02*
D03*
Y680709D02*
D03*
Y755905D02*
D03*
Y829921D02*
D03*
X1659055Y529134D02*
D03*
Y605905D02*
D03*
Y681496D02*
D03*
Y755905D02*
D03*
Y830709D02*
D03*
X1518504Y566142D02*
D03*
X1583858Y830709D02*
D03*
Y755512D02*
D03*
Y680315D02*
D03*
Y605512D02*
D03*
Y529921D02*
D03*
X1530512Y565945D02*
D03*
X1680118Y715551D02*
D03*
X1641732Y646654D02*
D03*
X1844882Y515354D02*
D03*
X1818110Y520079D02*
D03*
X1799606Y540945D02*
D03*
X1518878Y715840D02*
D03*
M02*
