G04*
G04 #@! TF.GenerationSoftware,Altium Limited,Altium Designer,21.9.1 (22)*
G04*
G04 Layer_Color=32896*
%FSLAX25Y25*%
%MOIN*%
G70*
G04*
G04 #@! TF.SameCoordinates,29281BF1-B37C-4538-9C3D-308B06FF8435*
G04*
G04*
G04 #@! TF.FilePolarity,Positive*
G04*
G01*
G75*
%ADD10C,0.00984*%
%ADD12C,0.00787*%
%ADD13C,0.01000*%
%ADD51C,0.00591*%
%ADD52R,0.02000X0.06248*%
D10*
X1717421Y951378D02*
X1716683Y951804D01*
Y950952D01*
X1717421Y951378D01*
X1590354D02*
X1589616Y951804D01*
Y950952D01*
X1590354Y951378D01*
X1844094D02*
X1843356Y951804D01*
Y950952D01*
X1844094Y951378D01*
D12*
X1674508Y949803D02*
Y958465D01*
X1666043Y949803D02*
Y958465D01*
X1692323Y941732D02*
Y948032D01*
X1712008Y941732D02*
Y948032D01*
Y954528D02*
Y954724D01*
X1692323Y954528D02*
Y954724D01*
Y935039D02*
Y935236D01*
X1712008Y935039D02*
Y935236D01*
X1692323Y935039D02*
X1712008D01*
X1692323Y954724D02*
X1712008D01*
X1565256Y941732D02*
Y948032D01*
X1584941Y941732D02*
Y948032D01*
Y954528D02*
Y954724D01*
X1565256Y954528D02*
Y954724D01*
Y935039D02*
Y935236D01*
X1584941Y935039D02*
Y935236D01*
X1565256Y935039D02*
X1584941D01*
X1565256Y954724D02*
X1584941D01*
X1616732Y949902D02*
Y958563D01*
X1608268Y949902D02*
Y958563D01*
X1800197Y953937D02*
Y962598D01*
X1808661Y953937D02*
Y962598D01*
X1818996Y941732D02*
Y948032D01*
X1838681Y941732D02*
Y948032D01*
Y954528D02*
Y954724D01*
X1818996Y954528D02*
Y954724D01*
Y935039D02*
Y935236D01*
X1838681Y935039D02*
Y935236D01*
X1818996Y935039D02*
X1838681D01*
X1818996Y954724D02*
X1838681D01*
X1762342Y489075D02*
Y495177D01*
X1757343D02*
X1762342D01*
X1757343Y489075D02*
X1762342D01*
X1682539D02*
X1687539D01*
X1682539Y495177D02*
X1687539D01*
Y489075D02*
Y495177D01*
X1832146Y788287D02*
X1837146D01*
X1832146Y794390D02*
X1837146D01*
Y788287D02*
Y794390D01*
X1532933Y713484D02*
X1537933D01*
X1532933Y719587D02*
X1537933D01*
Y713484D02*
Y719587D01*
X1607736Y788287D02*
X1612736D01*
X1607736Y794390D02*
X1612736D01*
Y788287D02*
Y794390D01*
X1607736Y489075D02*
X1612736D01*
X1607736Y495177D02*
X1612736D01*
Y489075D02*
Y495177D01*
X1532933Y489075D02*
X1537933D01*
X1532933Y495177D02*
X1537933D01*
Y489075D02*
Y495177D01*
X1832146Y524508D02*
X1837146D01*
X1832146Y530610D02*
X1837146D01*
Y524508D02*
Y530610D01*
X1757343Y563878D02*
X1762342D01*
X1757343Y569980D02*
X1762342D01*
Y563878D02*
Y569980D01*
X1682539Y563878D02*
X1687539D01*
X1682539Y569980D02*
X1687539D01*
Y563878D02*
Y569980D01*
X1607736Y563878D02*
X1612736D01*
X1607736Y569980D02*
X1612736D01*
Y563878D02*
Y569980D01*
X1532933Y563878D02*
X1537933D01*
X1532933Y569980D02*
X1537933D01*
Y563878D02*
Y569980D01*
X1832146Y674114D02*
X1837146D01*
X1832146Y680217D02*
X1837146D01*
Y674114D02*
Y680217D01*
X1757343Y638681D02*
X1762342D01*
X1757343Y644783D02*
X1762342D01*
Y638681D02*
Y644783D01*
X1682539Y638681D02*
X1687539D01*
X1682539Y644783D02*
X1687539D01*
Y638681D02*
Y644783D01*
X1607736Y638681D02*
X1612736D01*
X1607736Y644783D02*
X1612736D01*
Y638681D02*
Y644783D01*
X1532933Y638681D02*
X1537933D01*
X1532933Y644783D02*
X1537933D01*
Y638681D02*
Y644783D01*
X1757343Y713484D02*
X1762342D01*
X1757343Y719587D02*
X1762342D01*
Y713484D02*
Y719587D01*
X1682539Y713484D02*
X1687539D01*
X1682539Y719587D02*
X1687539D01*
Y713484D02*
Y719587D01*
X1607736Y713484D02*
X1612736D01*
X1607736Y719587D02*
X1612736D01*
Y713484D02*
Y719587D01*
X1802177Y923343D02*
X1807177D01*
X1802177Y917241D02*
X1807177D01*
X1802177D02*
Y923343D01*
X1771417Y917126D02*
X1776417D01*
X1771417Y923228D02*
X1776417D01*
Y917126D02*
Y923228D01*
X1757343Y788287D02*
X1762342D01*
X1757343Y794390D02*
X1762342D01*
Y788287D02*
Y794390D01*
X1682539Y788287D02*
X1687539D01*
X1682539Y794390D02*
X1687539D01*
Y788287D02*
Y794390D01*
D13*
X1791781Y959219D02*
X1790781Y960219D01*
Y962218D01*
X1791781Y963218D01*
X1795779D01*
X1796779Y962218D01*
Y960219D01*
X1795779Y959219D01*
X1791781Y957220D02*
X1790781Y956220D01*
Y954221D01*
X1791781Y953221D01*
X1792780D01*
X1793780Y954221D01*
Y955220D01*
Y954221D01*
X1794780Y953221D01*
X1795779D01*
X1796779Y954221D01*
Y956220D01*
X1795779Y957220D01*
X1584850Y964230D02*
X1586849D01*
X1585850D01*
Y959232D01*
X1586849Y958232D01*
X1587849D01*
X1588849Y959232D01*
X1582851Y958232D02*
X1580851D01*
X1581851D01*
Y964230D01*
X1582851Y963230D01*
X1839590Y964230D02*
X1841589D01*
X1840590D01*
Y959232D01*
X1841589Y958232D01*
X1842589D01*
X1843589Y959232D01*
X1837590Y963230D02*
X1836591Y964230D01*
X1834591D01*
X1833592Y963230D01*
Y962231D01*
X1834591Y961231D01*
X1835591D01*
X1834591D01*
X1833592Y960231D01*
Y959232D01*
X1834591Y958232D01*
X1836591D01*
X1837590Y959232D01*
X1712917Y964230D02*
X1714916D01*
X1713916D01*
Y959232D01*
X1714916Y958232D01*
X1715916D01*
X1716915Y959232D01*
X1706919Y958232D02*
X1710917D01*
X1706919Y962231D01*
Y963230D01*
X1707918Y964230D01*
X1709918D01*
X1710917Y963230D01*
X1625148Y954281D02*
X1626148Y953281D01*
Y951282D01*
X1625148Y950282D01*
X1621150D01*
X1620150Y951282D01*
Y953281D01*
X1621150Y954281D01*
X1620150Y956280D02*
Y958279D01*
Y957280D01*
X1626148D01*
X1625148Y956280D01*
X1682924Y953183D02*
X1683924Y952183D01*
Y950183D01*
X1682924Y949184D01*
X1678925D01*
X1677926Y950183D01*
Y952183D01*
X1678925Y953183D01*
X1677926Y959181D02*
Y955182D01*
X1681924Y959181D01*
X1682924D01*
X1683924Y958181D01*
Y956182D01*
X1682924Y955182D01*
X1767300Y504698D02*
Y498700D01*
X1764301D01*
X1763301Y499700D01*
Y503698D01*
X1764301Y504698D01*
X1767300D01*
X1757303Y498700D02*
X1761302D01*
X1757303Y502699D01*
Y503698D01*
X1758303Y504698D01*
X1760302D01*
X1761302Y503698D01*
X1752305Y498700D02*
Y504698D01*
X1755304Y501699D01*
X1751305D01*
X1692500Y504698D02*
Y498700D01*
X1689501D01*
X1688501Y499700D01*
Y503698D01*
X1689501Y504698D01*
X1692500D01*
X1682503Y498700D02*
X1686502D01*
X1682503Y502699D01*
Y503698D01*
X1683503Y504698D01*
X1685502D01*
X1686502Y503698D01*
X1680504D02*
X1679504Y504698D01*
X1677505D01*
X1676505Y503698D01*
Y502699D01*
X1677505Y501699D01*
X1678505D01*
X1677505D01*
X1676505Y500699D01*
Y499700D01*
X1677505Y498700D01*
X1679504D01*
X1680504Y499700D01*
X1842100Y803898D02*
Y797900D01*
X1839101D01*
X1838101Y798900D01*
Y802898D01*
X1839101Y803898D01*
X1842100D01*
X1836102Y797900D02*
X1834103D01*
X1835102D01*
Y803898D01*
X1836102Y802898D01*
X1831104D02*
X1830104Y803898D01*
X1828105D01*
X1827105Y802898D01*
Y798900D01*
X1828105Y797900D01*
X1830104D01*
X1831104Y798900D01*
Y802898D01*
X1542900Y729098D02*
Y723100D01*
X1539901D01*
X1538901Y724100D01*
Y728098D01*
X1539901Y729098D01*
X1542900D01*
X1532903D02*
X1534903Y728098D01*
X1536902Y726099D01*
Y724100D01*
X1535902Y723100D01*
X1533903D01*
X1532903Y724100D01*
Y725099D01*
X1533903Y726099D01*
X1536902D01*
X1617700Y803898D02*
Y797900D01*
X1614701D01*
X1613701Y798900D01*
Y802898D01*
X1614701Y803898D01*
X1617700D01*
X1611702Y797900D02*
X1609703D01*
X1610702D01*
Y803898D01*
X1611702Y802898D01*
X1617700Y504698D02*
Y498700D01*
X1614701D01*
X1613701Y499700D01*
Y503698D01*
X1614701Y504698D01*
X1617700D01*
X1607703Y498700D02*
X1611702D01*
X1607703Y502699D01*
Y503698D01*
X1608703Y504698D01*
X1610702D01*
X1611702Y503698D01*
X1601705Y498700D02*
X1605704D01*
X1601705Y502699D01*
Y503698D01*
X1602705Y504698D01*
X1604704D01*
X1605704Y503698D01*
X1542900Y504698D02*
Y498700D01*
X1539901D01*
X1538901Y499700D01*
Y503698D01*
X1539901Y504698D01*
X1542900D01*
X1532903Y498700D02*
X1536902D01*
X1532903Y502699D01*
Y503698D01*
X1533903Y504698D01*
X1535902D01*
X1536902Y503698D01*
X1530904Y498700D02*
X1528905D01*
X1529904D01*
Y504698D01*
X1530904Y503698D01*
X1842100Y540098D02*
Y534100D01*
X1839101D01*
X1838101Y535100D01*
Y539098D01*
X1839101Y540098D01*
X1842100D01*
X1832103Y534100D02*
X1836102D01*
X1832103Y538099D01*
Y539098D01*
X1833103Y540098D01*
X1835102D01*
X1836102Y539098D01*
X1830104D02*
X1829104Y540098D01*
X1827105D01*
X1826105Y539098D01*
Y535100D01*
X1827105Y534100D01*
X1829104D01*
X1830104Y535100D01*
Y539098D01*
X1767300Y579498D02*
Y573500D01*
X1764301D01*
X1763301Y574500D01*
Y578498D01*
X1764301Y579498D01*
X1767300D01*
X1761302Y573500D02*
X1759303D01*
X1760302D01*
Y579498D01*
X1761302Y578498D01*
X1756304Y574500D02*
X1755304Y573500D01*
X1753304D01*
X1752305Y574500D01*
Y578498D01*
X1753304Y579498D01*
X1755304D01*
X1756304Y578498D01*
Y577499D01*
X1755304Y576499D01*
X1752305D01*
X1692500Y579498D02*
Y573500D01*
X1689501D01*
X1688501Y574500D01*
Y578498D01*
X1689501Y579498D01*
X1692500D01*
X1686502Y573500D02*
X1684503D01*
X1685502D01*
Y579498D01*
X1686502Y578498D01*
X1681504D02*
X1680504Y579498D01*
X1678505D01*
X1677505Y578498D01*
Y577499D01*
X1678505Y576499D01*
X1677505Y575499D01*
Y574500D01*
X1678505Y573500D01*
X1680504D01*
X1681504Y574500D01*
Y575499D01*
X1680504Y576499D01*
X1681504Y577499D01*
Y578498D01*
X1680504Y576499D02*
X1678505D01*
X1617700Y579498D02*
Y573500D01*
X1614701D01*
X1613701Y574500D01*
Y578498D01*
X1614701Y579498D01*
X1617700D01*
X1611702Y573500D02*
X1609703D01*
X1610702D01*
Y579498D01*
X1611702Y578498D01*
X1606704Y579498D02*
X1602705D01*
Y578498D01*
X1606704Y574500D01*
Y573500D01*
X1542900Y579498D02*
Y573500D01*
X1539901D01*
X1538901Y574500D01*
Y578498D01*
X1539901Y579498D01*
X1542900D01*
X1536902Y573500D02*
X1534903D01*
X1535902D01*
Y579498D01*
X1536902Y578498D01*
X1527905Y579498D02*
X1529904Y578498D01*
X1531904Y576499D01*
Y574500D01*
X1530904Y573500D01*
X1528905D01*
X1527905Y574500D01*
Y575499D01*
X1528905Y576499D01*
X1531904D01*
X1842100Y689698D02*
Y683700D01*
X1839101D01*
X1838101Y684700D01*
Y688698D01*
X1839101Y689698D01*
X1842100D01*
X1836102Y683700D02*
X1834103D01*
X1835102D01*
Y689698D01*
X1836102Y688698D01*
X1827105Y689698D02*
X1831104D01*
Y686699D01*
X1829104Y687699D01*
X1828105D01*
X1827105Y686699D01*
Y684700D01*
X1828105Y683700D01*
X1830104D01*
X1831104Y684700D01*
X1767300Y654298D02*
Y648300D01*
X1764301D01*
X1763301Y649300D01*
Y653298D01*
X1764301Y654298D01*
X1767300D01*
X1761302Y648300D02*
X1759303D01*
X1760302D01*
Y654298D01*
X1761302Y653298D01*
X1753304Y648300D02*
Y654298D01*
X1756304Y651299D01*
X1752305D01*
X1692500Y654298D02*
Y648300D01*
X1689501D01*
X1688501Y649300D01*
Y653298D01*
X1689501Y654298D01*
X1692500D01*
X1686502Y648300D02*
X1684503D01*
X1685502D01*
Y654298D01*
X1686502Y653298D01*
X1681504D02*
X1680504Y654298D01*
X1678505D01*
X1677505Y653298D01*
Y652299D01*
X1678505Y651299D01*
X1679504D01*
X1678505D01*
X1677505Y650299D01*
Y649300D01*
X1678505Y648300D01*
X1680504D01*
X1681504Y649300D01*
X1617700Y654298D02*
Y648300D01*
X1614701D01*
X1613701Y649300D01*
Y653298D01*
X1614701Y654298D01*
X1617700D01*
X1611702Y648300D02*
X1609703D01*
X1610702D01*
Y654298D01*
X1611702Y653298D01*
X1602705Y648300D02*
X1606704D01*
X1602705Y652299D01*
Y653298D01*
X1603704Y654298D01*
X1605704D01*
X1606704Y653298D01*
X1542900Y654298D02*
Y648300D01*
X1539901D01*
X1538901Y649300D01*
Y653298D01*
X1539901Y654298D01*
X1542900D01*
X1536902Y648300D02*
X1534903D01*
X1535902D01*
Y654298D01*
X1536902Y653298D01*
X1531904Y648300D02*
X1529904D01*
X1530904D01*
Y654298D01*
X1531904Y653298D01*
X1767300Y729098D02*
Y723100D01*
X1764301D01*
X1763301Y724100D01*
Y728098D01*
X1764301Y729098D01*
X1767300D01*
X1761302Y724100D02*
X1760302Y723100D01*
X1758303D01*
X1757303Y724100D01*
Y728098D01*
X1758303Y729098D01*
X1760302D01*
X1761302Y728098D01*
Y727099D01*
X1760302Y726099D01*
X1757303D01*
X1692500Y729098D02*
Y723100D01*
X1689501D01*
X1688501Y724100D01*
Y728098D01*
X1689501Y729098D01*
X1692500D01*
X1686502Y728098D02*
X1685502Y729098D01*
X1683503D01*
X1682503Y728098D01*
Y727099D01*
X1683503Y726099D01*
X1682503Y725099D01*
Y724100D01*
X1683503Y723100D01*
X1685502D01*
X1686502Y724100D01*
Y725099D01*
X1685502Y726099D01*
X1686502Y727099D01*
Y728098D01*
X1685502Y726099D02*
X1683503D01*
X1617700Y729098D02*
Y723100D01*
X1614701D01*
X1613701Y724100D01*
Y728098D01*
X1614701Y729098D01*
X1617700D01*
X1611702D02*
X1607703D01*
Y728098D01*
X1611702Y724100D01*
Y723100D01*
X1812100Y932798D02*
Y926800D01*
X1809101D01*
X1808101Y927800D01*
Y931798D01*
X1809101Y932798D01*
X1812100D01*
X1802103D02*
X1806102D01*
Y929799D01*
X1804103Y930799D01*
X1803103D01*
X1802103Y929799D01*
Y927800D01*
X1803103Y926800D01*
X1805102D01*
X1806102Y927800D01*
X1781400Y932698D02*
Y926700D01*
X1778401D01*
X1777401Y927700D01*
Y931698D01*
X1778401Y932698D01*
X1781400D01*
X1772403Y926700D02*
Y932698D01*
X1775402Y929699D01*
X1771403D01*
X1767300Y803898D02*
Y797900D01*
X1764301D01*
X1763301Y798900D01*
Y802898D01*
X1764301Y803898D01*
X1767300D01*
X1761302Y802898D02*
X1760302Y803898D01*
X1758303D01*
X1757303Y802898D01*
Y801899D01*
X1758303Y800899D01*
X1759303D01*
X1758303D01*
X1757303Y799899D01*
Y798900D01*
X1758303Y797900D01*
X1760302D01*
X1761302Y798900D01*
X1692500Y803898D02*
Y797900D01*
X1689501D01*
X1688501Y798900D01*
Y802898D01*
X1689501Y803898D01*
X1692500D01*
X1682503Y797900D02*
X1686502D01*
X1682503Y801899D01*
Y802898D01*
X1683503Y803898D01*
X1685502D01*
X1686502Y802898D01*
D51*
X1852028Y558138D02*
X1852462Y557305D01*
X1853254Y556800D01*
X1854193Y556760D01*
X1875650Y560697D02*
X1875595Y561667D01*
X1875432Y562624D01*
X1875164Y563557D01*
X1874792Y564455D01*
X1874322Y565305D01*
X1873760Y566097D01*
X1873113Y566821D01*
X1872388Y567469D01*
X1871596Y568031D01*
X1870746Y568501D01*
X1869849Y568872D01*
X1868916Y569141D01*
X1867958Y569304D01*
X1866988Y569358D01*
X1861870Y533138D02*
X1862005Y532264D01*
X1862464Y531508D01*
X1863177Y530986D01*
X1864035Y530776D01*
X1861870Y548886D02*
X1861857Y549866D01*
X1861717Y550835D01*
X1861451Y551778D01*
X1861065Y552679D01*
X1860564Y553521D01*
X1859958Y554290D01*
X1859256Y554974D01*
X1858471Y555561D01*
X1857616Y556040D01*
X1856706Y556403D01*
X1855757Y556644D01*
X1854783Y556760D01*
X1763445Y513583D02*
X1764278Y514017D01*
X1764782Y514810D01*
X1764823Y515748D01*
X1760886Y537205D02*
X1759916Y537150D01*
X1758958Y536988D01*
X1758025Y536719D01*
X1757128Y536347D01*
X1756278Y535877D01*
X1755486Y535315D01*
X1754761Y534668D01*
X1754114Y533944D01*
X1753552Y533151D01*
X1753082Y532301D01*
X1752711Y531404D01*
X1752442Y530471D01*
X1752279Y529513D01*
X1752224Y528543D01*
X1788445Y523425D02*
X1789319Y523560D01*
X1790074Y524019D01*
X1790597Y524732D01*
X1790807Y525591D01*
X1772697Y523425D02*
X1771717Y523413D01*
X1770747Y523272D01*
X1769804Y523006D01*
X1768904Y522620D01*
X1768062Y522119D01*
X1767292Y521513D01*
X1766608Y520811D01*
X1766022Y520026D01*
X1765543Y519171D01*
X1765180Y518261D01*
X1764938Y517312D01*
X1764823Y516339D01*
X1688445Y513583D02*
X1689278Y514017D01*
X1689782Y514810D01*
X1689823Y515748D01*
X1685886Y537205D02*
X1684916Y537150D01*
X1683958Y536988D01*
X1683025Y536719D01*
X1682128Y536347D01*
X1681278Y535877D01*
X1680486Y535315D01*
X1679761Y534668D01*
X1679114Y533944D01*
X1678552Y533151D01*
X1678082Y532301D01*
X1677711Y531404D01*
X1677442Y530471D01*
X1677279Y529513D01*
X1677224Y528543D01*
X1713445Y523425D02*
X1714319Y523560D01*
X1715074Y524019D01*
X1715597Y524732D01*
X1715807Y525591D01*
X1697697Y523425D02*
X1696717Y523413D01*
X1695747Y523272D01*
X1694804Y523006D01*
X1693904Y522620D01*
X1693062Y522119D01*
X1692292Y521513D01*
X1691608Y520811D01*
X1691022Y520026D01*
X1690543Y519171D01*
X1690180Y518261D01*
X1689938Y517312D01*
X1689823Y516339D01*
X1613445Y513583D02*
X1614278Y514017D01*
X1614782Y514810D01*
X1614823Y515748D01*
X1610886Y537205D02*
X1609916Y537150D01*
X1608958Y536988D01*
X1608025Y536719D01*
X1607128Y536347D01*
X1606278Y535877D01*
X1605486Y535315D01*
X1604761Y534668D01*
X1604114Y533944D01*
X1603552Y533151D01*
X1603082Y532301D01*
X1602710Y531404D01*
X1602442Y530471D01*
X1602279Y529513D01*
X1602224Y528543D01*
X1638445Y523425D02*
X1639319Y523560D01*
X1640074Y524019D01*
X1640597Y524732D01*
X1640807Y525591D01*
X1622697Y523425D02*
X1621717Y523413D01*
X1620747Y523272D01*
X1619804Y523006D01*
X1618904Y522620D01*
X1618062Y522119D01*
X1617292Y521513D01*
X1616608Y520811D01*
X1616022Y520026D01*
X1615543Y519171D01*
X1615180Y518261D01*
X1614938Y517312D01*
X1614823Y516339D01*
X1538445Y513583D02*
X1539278Y514017D01*
X1539782Y514810D01*
X1539823Y515748D01*
X1535886Y537205D02*
X1534916Y537150D01*
X1533959Y536988D01*
X1533025Y536719D01*
X1532128Y536347D01*
X1531278Y535877D01*
X1530486Y535315D01*
X1529761Y534668D01*
X1529114Y533944D01*
X1528552Y533151D01*
X1528082Y532301D01*
X1527710Y531404D01*
X1527442Y530471D01*
X1527279Y529513D01*
X1527224Y528543D01*
X1563445Y523425D02*
X1564319Y523560D01*
X1565074Y524019D01*
X1565597Y524732D01*
X1565807Y525591D01*
X1547697Y523425D02*
X1546717Y523413D01*
X1545747Y523272D01*
X1544804Y523006D01*
X1543904Y522620D01*
X1543062Y522119D01*
X1542292Y521513D01*
X1541608Y520811D01*
X1541022Y520026D01*
X1540543Y519171D01*
X1540180Y518261D01*
X1539938Y517312D01*
X1539823Y516339D01*
X1538445Y588583D02*
X1539278Y589017D01*
X1539782Y589810D01*
X1539823Y590748D01*
X1535886Y612205D02*
X1534916Y612150D01*
X1533959Y611988D01*
X1533025Y611719D01*
X1532128Y611347D01*
X1531278Y610877D01*
X1530486Y610315D01*
X1529761Y609668D01*
X1529114Y608944D01*
X1528552Y608151D01*
X1528082Y607301D01*
X1527710Y606404D01*
X1527442Y605471D01*
X1527279Y604513D01*
X1527224Y603543D01*
X1563445Y598425D02*
X1564319Y598560D01*
X1565074Y599019D01*
X1565597Y599732D01*
X1565807Y600591D01*
X1547697Y598425D02*
X1546717Y598413D01*
X1545747Y598272D01*
X1544804Y598006D01*
X1543904Y597620D01*
X1543062Y597119D01*
X1542292Y596513D01*
X1541608Y595811D01*
X1541022Y595026D01*
X1540543Y594171D01*
X1540180Y593261D01*
X1539938Y592312D01*
X1539823Y591339D01*
X1613445Y588583D02*
X1614278Y589017D01*
X1614782Y589810D01*
X1614823Y590748D01*
X1610886Y612205D02*
X1609916Y612150D01*
X1608958Y611988D01*
X1608025Y611719D01*
X1607128Y611347D01*
X1606278Y610877D01*
X1605486Y610315D01*
X1604761Y609668D01*
X1604114Y608944D01*
X1603552Y608151D01*
X1603082Y607301D01*
X1602710Y606404D01*
X1602442Y605471D01*
X1602279Y604513D01*
X1602224Y603543D01*
X1638445Y598425D02*
X1639319Y598560D01*
X1640074Y599019D01*
X1640597Y599732D01*
X1640807Y600591D01*
X1622697Y598425D02*
X1621717Y598413D01*
X1620747Y598272D01*
X1619804Y598006D01*
X1618904Y597620D01*
X1618062Y597119D01*
X1617292Y596513D01*
X1616608Y595811D01*
X1616022Y595026D01*
X1615543Y594171D01*
X1615180Y593261D01*
X1614938Y592312D01*
X1614823Y591339D01*
X1688445Y588583D02*
X1689278Y589017D01*
X1689782Y589810D01*
X1689823Y590748D01*
X1685886Y612205D02*
X1684916Y612150D01*
X1683958Y611988D01*
X1683025Y611719D01*
X1682128Y611347D01*
X1681278Y610877D01*
X1680486Y610315D01*
X1679761Y609668D01*
X1679114Y608944D01*
X1678552Y608151D01*
X1678082Y607301D01*
X1677711Y606404D01*
X1677442Y605471D01*
X1677279Y604513D01*
X1677224Y603543D01*
X1713445Y598425D02*
X1714319Y598560D01*
X1715074Y599019D01*
X1715597Y599732D01*
X1715807Y600591D01*
X1697697Y598425D02*
X1696717Y598413D01*
X1695747Y598272D01*
X1694804Y598006D01*
X1693904Y597620D01*
X1693062Y597119D01*
X1692292Y596513D01*
X1691608Y595811D01*
X1691022Y595026D01*
X1690543Y594171D01*
X1690180Y593261D01*
X1689938Y592312D01*
X1689823Y591339D01*
X1763445Y588583D02*
X1764278Y589017D01*
X1764782Y589810D01*
X1764823Y590748D01*
X1760886Y612205D02*
X1759916Y612150D01*
X1758958Y611988D01*
X1758025Y611719D01*
X1757128Y611347D01*
X1756278Y610877D01*
X1755486Y610315D01*
X1754761Y609668D01*
X1754114Y608944D01*
X1753552Y608151D01*
X1753082Y607301D01*
X1752711Y606404D01*
X1752442Y605471D01*
X1752279Y604513D01*
X1752224Y603543D01*
X1788445Y598425D02*
X1789319Y598560D01*
X1790074Y599019D01*
X1790597Y599732D01*
X1790807Y600591D01*
X1772697Y598425D02*
X1771717Y598413D01*
X1770747Y598272D01*
X1769804Y598006D01*
X1768904Y597620D01*
X1768062Y597119D01*
X1767292Y596513D01*
X1766608Y595811D01*
X1766022Y595026D01*
X1765543Y594171D01*
X1765180Y593261D01*
X1764938Y592312D01*
X1764823Y591339D01*
X1763445Y663583D02*
X1764278Y664017D01*
X1764782Y664810D01*
X1764823Y665748D01*
X1760886Y687205D02*
X1759916Y687150D01*
X1758958Y686988D01*
X1758025Y686719D01*
X1757128Y686347D01*
X1756278Y685877D01*
X1755486Y685315D01*
X1754761Y684668D01*
X1754114Y683944D01*
X1753552Y683151D01*
X1753082Y682301D01*
X1752711Y681404D01*
X1752442Y680471D01*
X1752279Y679513D01*
X1752224Y678543D01*
X1788445Y673425D02*
X1789319Y673560D01*
X1790074Y674019D01*
X1790597Y674732D01*
X1790807Y675591D01*
X1772697Y673425D02*
X1771717Y673413D01*
X1770747Y673272D01*
X1769804Y673006D01*
X1768904Y672620D01*
X1768062Y672119D01*
X1767292Y671513D01*
X1766608Y670811D01*
X1766022Y670026D01*
X1765543Y669171D01*
X1765180Y668261D01*
X1764938Y667312D01*
X1764823Y666339D01*
X1688445Y663583D02*
X1689278Y664017D01*
X1689782Y664810D01*
X1689823Y665748D01*
X1685886Y687205D02*
X1684916Y687150D01*
X1683958Y686988D01*
X1683025Y686719D01*
X1682128Y686347D01*
X1681278Y685877D01*
X1680486Y685315D01*
X1679761Y684668D01*
X1679114Y683944D01*
X1678552Y683151D01*
X1678082Y682301D01*
X1677711Y681404D01*
X1677442Y680471D01*
X1677279Y679513D01*
X1677224Y678543D01*
X1713445Y673425D02*
X1714319Y673560D01*
X1715074Y674019D01*
X1715597Y674732D01*
X1715807Y675591D01*
X1697697Y673425D02*
X1696717Y673413D01*
X1695747Y673272D01*
X1694804Y673006D01*
X1693904Y672620D01*
X1693062Y672119D01*
X1692292Y671513D01*
X1691608Y670811D01*
X1691022Y670026D01*
X1690543Y669171D01*
X1690180Y668261D01*
X1689938Y667312D01*
X1689823Y666339D01*
X1613445Y663583D02*
X1614278Y664017D01*
X1614782Y664810D01*
X1614823Y665748D01*
X1610886Y687205D02*
X1609916Y687150D01*
X1608958Y686988D01*
X1608025Y686719D01*
X1607128Y686347D01*
X1606278Y685877D01*
X1605486Y685315D01*
X1604761Y684668D01*
X1604114Y683944D01*
X1603552Y683151D01*
X1603082Y682301D01*
X1602710Y681404D01*
X1602442Y680471D01*
X1602279Y679513D01*
X1602224Y678543D01*
X1638445Y673425D02*
X1639319Y673560D01*
X1640074Y674019D01*
X1640597Y674732D01*
X1640807Y675591D01*
X1622697Y673425D02*
X1621717Y673413D01*
X1620747Y673272D01*
X1619804Y673006D01*
X1618904Y672620D01*
X1618062Y672119D01*
X1617292Y671513D01*
X1616608Y670811D01*
X1616022Y670026D01*
X1615543Y669171D01*
X1615180Y668261D01*
X1614938Y667312D01*
X1614823Y666339D01*
X1538445Y663583D02*
X1539278Y664017D01*
X1539782Y664810D01*
X1539823Y665748D01*
X1535886Y687205D02*
X1534916Y687150D01*
X1533959Y686988D01*
X1533025Y686719D01*
X1532128Y686347D01*
X1531278Y685877D01*
X1530486Y685315D01*
X1529761Y684668D01*
X1529114Y683944D01*
X1528552Y683151D01*
X1528082Y682301D01*
X1527710Y681404D01*
X1527442Y680471D01*
X1527279Y679513D01*
X1527224Y678543D01*
X1563445Y673425D02*
X1564319Y673560D01*
X1565074Y674019D01*
X1565597Y674732D01*
X1565807Y675591D01*
X1547697Y673425D02*
X1546717Y673413D01*
X1545747Y673272D01*
X1544804Y673006D01*
X1543904Y672620D01*
X1543062Y672119D01*
X1542292Y671513D01*
X1541608Y670811D01*
X1541022Y670026D01*
X1540543Y669171D01*
X1540180Y668261D01*
X1539938Y667312D01*
X1539823Y666339D01*
X1547697Y748425D02*
X1546717Y748413D01*
X1545747Y748272D01*
X1544804Y748006D01*
X1543904Y747620D01*
X1543062Y747119D01*
X1542292Y746513D01*
X1541608Y745811D01*
X1541022Y745026D01*
X1540543Y744171D01*
X1540180Y743261D01*
X1539938Y742312D01*
X1539823Y741339D01*
X1563445Y748425D02*
X1564319Y748560D01*
X1565074Y749019D01*
X1565597Y749732D01*
X1565807Y750591D01*
X1535886Y762205D02*
X1534916Y762150D01*
X1533959Y761988D01*
X1533025Y761719D01*
X1532128Y761347D01*
X1531278Y760877D01*
X1530486Y760315D01*
X1529761Y759668D01*
X1529114Y758944D01*
X1528552Y758151D01*
X1528082Y757301D01*
X1527710Y756404D01*
X1527442Y755471D01*
X1527279Y754513D01*
X1527224Y753543D01*
X1538445Y738583D02*
X1539278Y739017D01*
X1539782Y739810D01*
X1539823Y740748D01*
X1613445Y738583D02*
X1614278Y739017D01*
X1614782Y739810D01*
X1614823Y740748D01*
X1610886Y762205D02*
X1609916Y762150D01*
X1608958Y761988D01*
X1608025Y761719D01*
X1607128Y761347D01*
X1606278Y760877D01*
X1605486Y760315D01*
X1604761Y759668D01*
X1604114Y758944D01*
X1603552Y758151D01*
X1603082Y757301D01*
X1602710Y756404D01*
X1602442Y755471D01*
X1602279Y754513D01*
X1602224Y753543D01*
X1638445Y748425D02*
X1639319Y748560D01*
X1640074Y749019D01*
X1640597Y749732D01*
X1640807Y750591D01*
X1622697Y748425D02*
X1621717Y748413D01*
X1620747Y748272D01*
X1619804Y748006D01*
X1618904Y747620D01*
X1618062Y747119D01*
X1617292Y746513D01*
X1616608Y745811D01*
X1616022Y745026D01*
X1615543Y744171D01*
X1615180Y743261D01*
X1614938Y742312D01*
X1614823Y741339D01*
X1688445Y738583D02*
X1689278Y739017D01*
X1689782Y739810D01*
X1689823Y740748D01*
X1685886Y762205D02*
X1684916Y762150D01*
X1683958Y761988D01*
X1683025Y761719D01*
X1682128Y761347D01*
X1681278Y760877D01*
X1680486Y760315D01*
X1679761Y759668D01*
X1679114Y758944D01*
X1678552Y758151D01*
X1678082Y757301D01*
X1677711Y756404D01*
X1677442Y755471D01*
X1677279Y754513D01*
X1677224Y753543D01*
X1713445Y748425D02*
X1714319Y748560D01*
X1715074Y749019D01*
X1715597Y749732D01*
X1715807Y750591D01*
X1697697Y748425D02*
X1696717Y748413D01*
X1695747Y748272D01*
X1694804Y748006D01*
X1693904Y747620D01*
X1693062Y747119D01*
X1692292Y746513D01*
X1691608Y745811D01*
X1691022Y745026D01*
X1690543Y744171D01*
X1690180Y743261D01*
X1689938Y742312D01*
X1689823Y741339D01*
X1763445Y738583D02*
X1764278Y739017D01*
X1764782Y739810D01*
X1764823Y740748D01*
X1760886Y762205D02*
X1759916Y762150D01*
X1758958Y761988D01*
X1758025Y761719D01*
X1757128Y761347D01*
X1756278Y760877D01*
X1755486Y760315D01*
X1754761Y759668D01*
X1754114Y758944D01*
X1753552Y758151D01*
X1753082Y757301D01*
X1752711Y756404D01*
X1752442Y755471D01*
X1752279Y754513D01*
X1752224Y753543D01*
X1788445Y748425D02*
X1789319Y748560D01*
X1790074Y749019D01*
X1790597Y749732D01*
X1790807Y750591D01*
X1772697Y748425D02*
X1771717Y748413D01*
X1770747Y748272D01*
X1769804Y748006D01*
X1768904Y747620D01*
X1768062Y747119D01*
X1767292Y746513D01*
X1766608Y745811D01*
X1766022Y745026D01*
X1765543Y744171D01*
X1765180Y743261D01*
X1764938Y742312D01*
X1764823Y741339D01*
X1852028Y708138D02*
X1852462Y707305D01*
X1853254Y706800D01*
X1854193Y706760D01*
X1875650Y710697D02*
X1875595Y711667D01*
X1875432Y712624D01*
X1875164Y713557D01*
X1874792Y714455D01*
X1874322Y715305D01*
X1873760Y716097D01*
X1873113Y716821D01*
X1872388Y717469D01*
X1871596Y718031D01*
X1870746Y718501D01*
X1869849Y718872D01*
X1868916Y719141D01*
X1867958Y719304D01*
X1866988Y719358D01*
X1861870Y683138D02*
X1862005Y682264D01*
X1862464Y681508D01*
X1863177Y680986D01*
X1864035Y680776D01*
X1861870Y698886D02*
X1861857Y699866D01*
X1861717Y700835D01*
X1861451Y701778D01*
X1861065Y702679D01*
X1860564Y703521D01*
X1859958Y704290D01*
X1859256Y704974D01*
X1858471Y705561D01*
X1857616Y706040D01*
X1856706Y706403D01*
X1855757Y706644D01*
X1854783Y706760D01*
X1847697Y823425D02*
X1846717Y823413D01*
X1845747Y823272D01*
X1844804Y823007D01*
X1843904Y822620D01*
X1843062Y822119D01*
X1842292Y821513D01*
X1841608Y820811D01*
X1841022Y820026D01*
X1840543Y819171D01*
X1840180Y818261D01*
X1839938Y817312D01*
X1839823Y816339D01*
X1863445Y823425D02*
X1864319Y823560D01*
X1865074Y824019D01*
X1865597Y824732D01*
X1865807Y825591D01*
X1835886Y837205D02*
X1834916Y837150D01*
X1833958Y836988D01*
X1833025Y836719D01*
X1832128Y836347D01*
X1831278Y835877D01*
X1830486Y835315D01*
X1829761Y834668D01*
X1829114Y833944D01*
X1828552Y833152D01*
X1828082Y832301D01*
X1827711Y831404D01*
X1827442Y830471D01*
X1827279Y829513D01*
X1827224Y828543D01*
X1838445Y813583D02*
X1839278Y814017D01*
X1839782Y814810D01*
X1839823Y815748D01*
X1772697Y823425D02*
X1771717Y823413D01*
X1770747Y823272D01*
X1769804Y823007D01*
X1768904Y822620D01*
X1768062Y822119D01*
X1767292Y821513D01*
X1766608Y820811D01*
X1766022Y820026D01*
X1765543Y819171D01*
X1765180Y818261D01*
X1764938Y817312D01*
X1764823Y816339D01*
X1788445Y823425D02*
X1789319Y823560D01*
X1790074Y824019D01*
X1790597Y824732D01*
X1790807Y825591D01*
X1760886Y837205D02*
X1759916Y837150D01*
X1758958Y836988D01*
X1758025Y836719D01*
X1757128Y836347D01*
X1756278Y835877D01*
X1755486Y835315D01*
X1754761Y834668D01*
X1754114Y833944D01*
X1753552Y833152D01*
X1753082Y832301D01*
X1752711Y831404D01*
X1752442Y830471D01*
X1752279Y829513D01*
X1752224Y828543D01*
X1763445Y813583D02*
X1764278Y814017D01*
X1764782Y814810D01*
X1764823Y815748D01*
X1697697Y823425D02*
X1696717Y823413D01*
X1695747Y823272D01*
X1694804Y823007D01*
X1693904Y822620D01*
X1693062Y822119D01*
X1692292Y821513D01*
X1691608Y820811D01*
X1691022Y820026D01*
X1690543Y819171D01*
X1690180Y818261D01*
X1689938Y817312D01*
X1689823Y816339D01*
X1713445Y823425D02*
X1714319Y823560D01*
X1715074Y824019D01*
X1715597Y824732D01*
X1715807Y825591D01*
X1685886Y837205D02*
X1684916Y837150D01*
X1683958Y836988D01*
X1683025Y836719D01*
X1682128Y836347D01*
X1681278Y835877D01*
X1680486Y835315D01*
X1679761Y834668D01*
X1679114Y833944D01*
X1678552Y833152D01*
X1678082Y832301D01*
X1677711Y831404D01*
X1677442Y830471D01*
X1677279Y829513D01*
X1677224Y828543D01*
X1688445Y813583D02*
X1689278Y814017D01*
X1689782Y814810D01*
X1689823Y815748D01*
X1622697Y823425D02*
X1621717Y823413D01*
X1620747Y823272D01*
X1619804Y823007D01*
X1618904Y822620D01*
X1618062Y822119D01*
X1617292Y821513D01*
X1616608Y820811D01*
X1616022Y820026D01*
X1615543Y819171D01*
X1615180Y818261D01*
X1614938Y817312D01*
X1614823Y816339D01*
X1638445Y823425D02*
X1639319Y823560D01*
X1640074Y824019D01*
X1640597Y824732D01*
X1640807Y825591D01*
X1610886Y837205D02*
X1609916Y837150D01*
X1608958Y836988D01*
X1608025Y836719D01*
X1607128Y836347D01*
X1606278Y835877D01*
X1605486Y835315D01*
X1604761Y834668D01*
X1604114Y833944D01*
X1603552Y833152D01*
X1603082Y832301D01*
X1602710Y831404D01*
X1602442Y830471D01*
X1602279Y829513D01*
X1602224Y828543D01*
X1613445Y813583D02*
X1614278Y814017D01*
X1614782Y814810D01*
X1614823Y815748D01*
X1852028Y558138D02*
Y569358D01*
X1866988D01*
X1875650Y530776D02*
Y560697D01*
X1864035Y530776D02*
X1875650D01*
X1861870Y533138D02*
Y548886D01*
X1752224Y513583D02*
X1763445D01*
X1752224D02*
Y528543D01*
X1760886Y537205D02*
X1790807D01*
Y525591D02*
Y537205D01*
X1772697Y523425D02*
X1788445D01*
X1677224Y513583D02*
X1688445D01*
X1677224D02*
Y528543D01*
X1685886Y537205D02*
X1715807D01*
Y525591D02*
Y537205D01*
X1697697Y523425D02*
X1713445D01*
X1602224Y513583D02*
X1613445D01*
X1602224D02*
Y528543D01*
X1610886Y537205D02*
X1640807D01*
Y525591D02*
Y537205D01*
X1622697Y523425D02*
X1638445D01*
X1527224Y513583D02*
X1538445D01*
X1527224D02*
Y528543D01*
X1535886Y537205D02*
X1565807D01*
Y525591D02*
Y537205D01*
X1547697Y523425D02*
X1563445D01*
X1527224Y588583D02*
X1538445D01*
X1527224D02*
Y603543D01*
X1535886Y612205D02*
X1565807D01*
Y600591D02*
Y612205D01*
X1547697Y598425D02*
X1563445D01*
X1602224Y588583D02*
X1613445D01*
X1602224D02*
Y603543D01*
X1610886Y612205D02*
X1640807D01*
Y600591D02*
Y612205D01*
X1622697Y598425D02*
X1638445D01*
X1677224Y588583D02*
X1688445D01*
X1677224D02*
Y603543D01*
X1685886Y612205D02*
X1715807D01*
Y600591D02*
Y612205D01*
X1697697Y598425D02*
X1713445D01*
X1752224Y588583D02*
X1763445D01*
X1752224D02*
Y603543D01*
X1760886Y612205D02*
X1790807D01*
Y600591D02*
Y612205D01*
X1772697Y598425D02*
X1788445D01*
X1752224Y663583D02*
X1763445D01*
X1752224D02*
Y678543D01*
X1760886Y687205D02*
X1790807D01*
Y675591D02*
Y687205D01*
X1772697Y673425D02*
X1788445D01*
X1677224Y663583D02*
X1688445D01*
X1677224D02*
Y678543D01*
X1685886Y687205D02*
X1715807D01*
Y675591D02*
Y687205D01*
X1697697Y673425D02*
X1713445D01*
X1602224Y663583D02*
X1613445D01*
X1602224D02*
Y678543D01*
X1610886Y687205D02*
X1640807D01*
Y675591D02*
Y687205D01*
X1622697Y673425D02*
X1638445D01*
X1527224Y663583D02*
X1538445D01*
X1527224D02*
Y678543D01*
X1535886Y687205D02*
X1565807D01*
Y675591D02*
Y687205D01*
X1547697Y673425D02*
X1563445D01*
X1547697Y748425D02*
X1563445D01*
X1565807Y750591D02*
Y762205D01*
X1535886D02*
X1565807D01*
X1527224Y738583D02*
Y753543D01*
Y738583D02*
X1538445D01*
X1602224D02*
X1613445D01*
X1602224D02*
Y753543D01*
X1610886Y762205D02*
X1640807D01*
Y750591D02*
Y762205D01*
X1622697Y748425D02*
X1638445D01*
X1677224Y738583D02*
X1688445D01*
X1677224D02*
Y753543D01*
X1685886Y762205D02*
X1715807D01*
Y750591D02*
Y762205D01*
X1697697Y748425D02*
X1713445D01*
X1752224Y738583D02*
X1763445D01*
X1752224D02*
Y753543D01*
X1760886Y762205D02*
X1790807D01*
Y750591D02*
Y762205D01*
X1772697Y748425D02*
X1788445D01*
X1852028Y708138D02*
Y719358D01*
X1866988D01*
X1875650Y680776D02*
Y710697D01*
X1864035Y680776D02*
X1875650D01*
X1861870Y683138D02*
Y698886D01*
X1847697Y823425D02*
X1863445D01*
X1865807Y825591D02*
Y837205D01*
X1835886D02*
X1865807D01*
X1827224Y813583D02*
Y828543D01*
Y813583D02*
X1838445D01*
X1772697Y823425D02*
X1788445D01*
X1790807Y825591D02*
Y837205D01*
X1760886D02*
X1790807D01*
X1752224Y813583D02*
Y828543D01*
Y813583D02*
X1763445D01*
X1697697Y823425D02*
X1713445D01*
X1715807Y825591D02*
Y837205D01*
X1685886D02*
X1715807D01*
X1677224Y813583D02*
Y828543D01*
Y813583D02*
X1688445D01*
X1622697Y823425D02*
X1638445D01*
X1640807Y825591D02*
Y837205D01*
X1610886D02*
X1640807D01*
X1602224Y813583D02*
Y828543D01*
Y813583D02*
X1613445D01*
D52*
X1761344Y492250D02*
D03*
X1686541Y492250D02*
D03*
X1836146Y791463D02*
D03*
X1536933Y716659D02*
D03*
X1611736Y791463D02*
D03*
X1611737Y492250D02*
D03*
X1536934Y492250D02*
D03*
X1836146Y527683D02*
D03*
X1761342Y567053D02*
D03*
X1686539D02*
D03*
X1611736Y567053D02*
D03*
X1536933Y567053D02*
D03*
X1836146Y677289D02*
D03*
X1761342Y641856D02*
D03*
X1686539D02*
D03*
X1611736Y641856D02*
D03*
X1536933D02*
D03*
X1761342Y716659D02*
D03*
X1686539Y716659D02*
D03*
X1611736Y716659D02*
D03*
X1803177Y920168D02*
D03*
X1775417Y920301D02*
D03*
X1761342Y791463D02*
D03*
X1686540Y791462D02*
D03*
M02*
