%FSTAX23Y23*%
%MOIN*%
%SFA1B1*%

%IPPOS*%
%AMD22*
4,1,8,0.000000,0.092500,0.000000,0.092500,-0.051200,0.041300,-0.051200,-0.041300,0.000000,-0.092500,0.000000,-0.092500,0.051200,-0.041300,0.051200,0.041300,0.000000,0.092500,0.0*
1,1,0.102360,0.000000,0.041300*
1,1,0.102360,0.000000,0.041300*
1,1,0.102360,0.000000,-0.041300*
1,1,0.102360,0.000000,-0.041300*
%
%ADD14R,0.061020X0.066930*%
%ADD15R,0.125980X0.039370*%
%ADD16C,0.162910*%
%ADD17C,0.125910*%
%ADD18C,0.122130*%
%ADD19C,0.071020*%
%ADD20C,0.161020*%
%ADD21C,0.131890*%
G04~CAMADD=22~8~0.0~0.0~1023.6~1850.4~511.8~0.0~15~0.0~0.0~0.0~0.0~0~0.0~0.0~0.0~0.0~0~0.0~0.0~0.0~0.0~1023.6~1850.4*
%ADD22D22*%
%ADD23C,0.061020*%
%ADD24R,0.061020X0.061020*%
%ADD25R,0.064960X0.064960*%
%ADD26C,0.064960*%
%ADD27C,0.079910*%
%ADD28C,0.055910*%
%LNnumpadpcb-1*%
%LPD*%
G54D14*
X1571Y09226D03*
X15785D03*
G54D15*
X15572Y0933D03*
X15305D03*
X15572Y09488D03*
X15305D03*
G54D16*
X18163Y07447D03*
Y06507D03*
Y05947D03*
Y05007D03*
G54D17*
X18688Y06507D03*
X18763Y07447D03*
Y05947D03*
Y05007D03*
G54D18*
X18588Y05627D03*
X18688Y05377D03*
X17588Y05204D03*
X17838Y05304D03*
X16838Y05204D03*
X17088Y05304D03*
X16088Y05204D03*
X16338Y05304D03*
X15338Y05204D03*
X15588Y05304D03*
X15338Y05954D03*
X15588Y06054D03*
X16088Y05954D03*
X16338Y06054D03*
X16838Y05954D03*
X17088Y06054D03*
X17588Y05954D03*
X17838Y06054D03*
X17588Y06704D03*
X17838Y06804D03*
X16838Y06704D03*
X17088Y06804D03*
X16088Y06704D03*
X16338Y06804D03*
X15338Y06704D03*
X15588Y06804D03*
Y07554D03*
X15338Y07454D03*
X16088D03*
X16338Y07554D03*
X16838Y07454D03*
X17088Y07554D03*
X17588Y07454D03*
X17838Y07554D03*
X18588Y07127D03*
X18688Y06877D03*
X18588Y08304D03*
X18338Y08204D03*
X17838Y08304D03*
X17588Y08204D03*
X17088Y08304D03*
X16838Y08204D03*
X16338Y08304D03*
X16088Y08204D03*
G54D19*
X18488Y05277D03*
Y05677D03*
X17938Y05104D03*
X17538D03*
X17188D03*
X16788D03*
X16438D03*
X16038D03*
X15688D03*
X15288D03*
X15688Y05854D03*
X15288D03*
X16438D03*
X16038D03*
X17188D03*
X16788D03*
X17938D03*
X17538D03*
X17938Y06604D03*
X17538D03*
X17188D03*
X16788D03*
X16438D03*
X16038D03*
X15688D03*
X15288D03*
Y07354D03*
X15688D03*
X16438D03*
X16038D03*
X17188D03*
X16788D03*
X17938D03*
X17538D03*
X18488Y06777D03*
Y07177D03*
X18288Y08104D03*
X18688D03*
X17538D03*
X17938D03*
X16788D03*
X17188D03*
X16038D03*
X16438D03*
G54D20*
X18488Y05477D03*
X17738Y05104D03*
X16988D03*
X16238D03*
X15488D03*
Y05854D03*
X16238D03*
X16988D03*
X17738D03*
Y06604D03*
X16988D03*
X16238D03*
X15488D03*
Y07354D03*
X16238D03*
X16988D03*
X17738D03*
X18488Y06977D03*
Y08104D03*
X17738D03*
X16988D03*
X16238D03*
G54D21*
X15515Y06232D03*
X18651Y0936D03*
X16338Y08877D03*
X18467Y06124D03*
G54D22*
X18708Y0884D03*
X18267D03*
G54D23*
X18586Y09116D03*
X18389D03*
X18586Y08545D03*
X18488D03*
G54D24*
X18389Y08545D03*
G54D25*
X17213Y09565D03*
G54D26*
X17313Y09565D03*
X17413D03*
X17513D03*
X17491Y08808D03*
Y08631D03*
X17235D03*
Y08808D03*
G54D27*
X15788Y09008D03*
Y08908D03*
Y08808D03*
Y08708D03*
Y08608D03*
Y08508D03*
Y08408D03*
Y08308D03*
Y08208D03*
Y08108D03*
Y08008D03*
Y07908D03*
X15188Y09008D03*
Y08908D03*
Y08808D03*
Y08708D03*
Y08608D03*
Y08508D03*
Y08408D03*
Y08308D03*
Y08208D03*
Y08108D03*
Y08008D03*
Y07908D03*
G54D28*
X16161Y06338D03*
X15196Y0933D03*
X15561Y09094D03*
X17293Y09202D03*
Y09271D03*
X17854Y08562D03*
X15413Y07106D03*
X15797Y07047D03*
X16161D03*
X16545D03*
X16643D03*
X16909D03*
X18408Y07798D03*
X17657Y07057D03*
X17421Y07834D03*
X17657D03*
X16909D03*
X16161D03*
X17568Y0873D03*
X15806Y06338D03*
X15413D03*
X15905D03*
X18405Y06692D03*
X16909Y06338D03*
X17657D03*
X15413Y0559D03*
X16161D03*
X16909D03*
X17657D03*
X1841Y05142D03*
X16574Y07901D03*
X17321Y07948D03*
X15965Y08404D03*
X18048Y0818D03*
X17251Y0841D03*
X15438Y0901D03*
X15745Y09451D03*
X15188Y04829D03*
M02*