%FSTAX23Y23*%
%MOIN*%
%SFA1B1*%

%IPPOS*%
%AMD21*
4,1,8,0.000000,-0.092500,0.000000,-0.092500,0.051200,-0.041300,0.051200,0.041300,0.000000,0.092500,0.000000,0.092500,-0.051200,0.041300,-0.051200,-0.041300,0.000000,-0.092500,0.0*
1,1,0.102360,0.000000,-0.041300*
1,1,0.102360,0.000000,-0.041300*
1,1,0.102360,0.000000,0.041300*
1,1,0.102360,0.000000,0.041300*
%
%ADD14R,0.037400X0.053150*%
G04~CAMADD=21~8~0.0~0.0~1023.6~1850.4~511.8~0.0~15~0.0~0.0~0.0~0.0~0~0.0~0.0~0.0~0.0~0~0.0~0.0~0.0~180.0~1024.0~1849.0*
%ADD21D21*%
%ADD22C,0.061020*%
%ADD23R,0.061020X0.061020*%
%ADD27C,0.020000*%
%ADD28C,0.118110*%
%ADD29C,0.067000*%
%ADD30C,0.157000*%
%ADD31R,0.125980X0.110240*%
%ADD32C,0.125980*%
%ADD33C,0.074000*%
%ADD34C,0.157010*%
%ADD35C,0.120000*%
%ADD36C,0.050000*%
%LNnumpadpcb-1*%
%LPD*%
G36*
X19645Y07194D02*
X1908D01*
Y07307*
X1908*
X19078Y07323*
X19073Y07339*
X19066Y07354*
X19055Y07367*
X19042Y07377*
X19038Y0738*
Y07381*
X19035Y07392*
X19029Y07402*
X19021Y07409*
X19012Y07415*
X19001Y07418*
X1899*
X18979Y07415*
X1897Y07409*
X18962Y07402*
X18956Y07392*
X18954Y07381*
Y0737*
X18956Y0736*
X18962Y0735*
X1897Y07342*
X18979Y07337*
X1899Y07334*
X19001*
X19012Y07337*
X19021Y07342*
X19028Y07349*
X19034Y07345*
X19042Y07334*
X19048Y07321*
X19049Y07308*
X19049Y07307*
Y07194*
X18956*
X18863*
Y07232*
X18863Y07232*
X18864Y07239*
X18867Y07246*
X18872Y07252*
X18878Y07257*
X18884Y0726*
X18892Y07261*
X18892Y07261*
X18956*
X18956Y0726*
X18962Y0725*
X1897Y07242*
X18979Y07237*
X1899Y07234*
X19001*
X19012Y07237*
X19021Y07242*
X19029Y0725*
X19035Y0726*
X19038Y0727*
Y07281*
X19035Y07292*
X19029Y07302*
X19021Y07309*
X19012Y07315*
X19001Y07318*
X1899*
X18979Y07315*
X1897Y07309*
X18962Y07302*
X18956Y07292*
X18956Y07291*
X18892*
X18892Y07291*
X1888Y0729*
X18869Y07287*
X18859Y07281*
X1885Y07274*
X18843Y07265*
X18837Y07255*
X18834Y07243*
X18833Y07232*
X18833Y07232*
Y06849*
X18828Y06848*
X18827Y06852*
X18823Y06858*
X18817Y06864*
X1881Y06868*
X18803Y0687*
X18795*
X18787Y06868*
X1878Y06864*
X18775Y06858*
X18773Y06855*
X18706*
X18705Y06858*
X18699Y06864*
X18692Y06868*
X18685Y0687*
X18677*
X18669Y06868*
X18662Y06864*
X18657Y06858*
X18653Y06852*
X18651Y06844*
Y06836*
X18653Y06828*
X18657Y06822*
X18662Y06816*
X18669Y06812*
X18677Y0681*
X18685*
X18692Y06812*
X18699Y06816*
X18705Y06822*
X18706Y06825*
X18773*
X18775Y06822*
X1878Y06816*
X18787Y06812*
X18795Y0681*
X18803*
X1881Y06812*
X18817Y06816*
X18823Y06822*
X18827Y06828*
X18828Y06832*
X18833Y06831*
Y06738*
X1883Y06736*
X18824Y06731*
X1882Y06724*
X18818Y06716*
Y06708*
X1882Y06701*
X18824Y06694*
X1883Y06688*
X18836Y06684*
X18844Y06682*
X18852*
X18854Y06683*
X18858Y0668*
Y06645*
X18857Y06644*
X18844Y06633*
X1883Y06625*
X18814Y06621*
X18798Y06619*
X18797Y06619*
X18682*
Y06619*
X18668Y06617*
X18654Y06612*
X18642Y06603*
X18633Y06591*
X18628Y06577*
X18626Y06563*
X18626*
Y05925*
X18626Y05924*
X18624Y05907*
X18619Y05889*
X1861Y05873*
X18599Y05859*
X18585Y05847*
X18569Y05839*
X18551Y05833*
X18534Y05832*
X18533Y05832*
X18454*
Y05832*
X18436Y0583*
X18419Y05826*
X18403Y05819*
X18387Y0581*
X18374Y05798*
X18362Y05785*
X18353Y0577*
X18346Y05753*
X18342Y05736*
X1834Y05718*
X18341*
Y05695*
X18337Y05693*
X18332Y05687*
X18328Y0568*
X18326Y05673*
Y05665*
X18328Y05657*
X18332Y0565*
X18333Y05649*
X18331Y05645*
X18331Y05644*
X18318Y05642*
X18305Y05636*
X18294Y05629*
X18284Y05619*
X18277Y05608*
X18272Y05595*
X18269Y05582*
Y05569*
X18272Y05555*
X18277Y05543*
X18284Y05531*
X18292Y05524*
X1829Y05519*
X18282*
X18271Y05516*
X18261Y0551*
X18253Y05502*
X18248Y05492*
X18245Y05481*
Y0547*
X18248Y05459*
X18253Y05449*
X18261Y05441*
X18271Y05435*
X18282Y05432*
X18294*
X18305Y05435*
X18315Y05441*
X18323Y05449*
X18328Y05459*
X18331Y0547*
Y05481*
X18328Y05492*
X18323Y05502*
X18321Y05503*
X18324Y05508*
X18331Y05506*
X18345*
X18358Y05509*
X18371Y05514*
X18382Y05522*
X18392Y05531*
X18399Y05543*
X18404Y05555*
X18407Y05569*
Y05582*
X18404Y05595*
X18399Y05608*
X18392Y05619*
X18382Y05629*
X18371Y05636*
X1837Y05637*
X1837Y05642*
X18374Y05645*
X1838Y0565*
X18384Y05657*
X18386Y05665*
Y05673*
X18384Y0568*
X1838Y05687*
X18374Y05693*
X18371Y05695*
Y05718*
X18371Y05719*
X18373Y05734*
X18377Y0575*
X18385Y05764*
X18395Y05777*
X18408Y05787*
X18422Y05795*
X18438Y058*
X18454Y05801*
X18454Y05801*
X18533*
Y05801*
X18552Y05803*
X18571Y05807*
X18589Y05815*
X18606Y05825*
X1862Y05837*
X18633Y05852*
X18643Y05869*
X18651Y05886*
X18655Y05905*
X18657Y05925*
X18657*
Y06563*
X18656Y06564*
X18658Y06573*
X18664Y06581*
X18672Y06587*
X18681Y06589*
X18682Y06589*
X18797*
Y06588*
X18815Y0659*
X18833Y06594*
X1885Y06601*
X18853Y06603*
X18858Y06601*
Y04734*
X15127*
Y08326*
X15169*
Y08005*
X15169*
X15171Y0799*
X15177Y07976*
X15186Y07964*
X15198Y07954*
X15212Y07949*
X15227Y07947*
Y07947*
X15279*
X15281Y07944*
X15286Y07938*
X15291Y07935*
Y0793*
X15286Y07927*
X15281Y07921*
X15277Y07915*
X15275Y07907*
Y07899*
X15277Y07891*
X15281Y07885*
X15286Y07879*
X15289Y07877*
Y0783*
X15286Y07829*
X15281Y07823*
X15277Y07816*
X15275Y07809*
Y07801*
X15277Y07793*
X15281Y07786*
X15286Y07781*
X15293Y07777*
X15301Y07775*
X15309*
X15316Y07777*
X15323Y07781*
X15329Y07786*
X15333Y07793*
X15335Y07801*
Y07809*
X15333Y07816*
X15329Y07823*
X15323Y07829*
X1532Y0783*
Y07877*
X15323Y07879*
X15329Y07885*
X15333Y07891*
X15335Y07899*
Y07907*
X15333Y07915*
X15329Y07921*
X15323Y07927*
X15318Y0793*
Y07935*
X15323Y07938*
X15329Y07944*
X15333Y07951*
X15335Y07958*
Y07966*
X15333Y07974*
X15329Y07981*
X15323Y07986*
X15316Y0799*
X15309Y07992*
X15301*
X15293Y0799*
X15286Y07986*
X15281Y07981*
X15279Y07977*
X15227*
X15227Y07977*
X1522Y07978*
X15214Y07981*
X15208Y07985*
X15204Y07991*
X15201Y07998*
X152Y08005*
X152Y08005*
Y08326*
X15518*
X15522Y08321*
X15519Y0831*
Y08297*
X15522Y08283*
X15527Y08271*
X15535Y0826*
X15544Y0825*
X15556Y08242*
X15568Y08237*
X15581Y08235*
X15595*
X15608Y08237*
X15621Y08242*
X15632Y0825*
X15642Y0826*
X15649Y08271*
X15655Y08283*
X15657Y08297*
Y0831*
X15655Y08321*
X15658Y08326*
X15809*
X15812Y08321*
X1581Y08318*
X15808Y08311*
Y08303*
X1581Y08295*
X15814Y08288*
X1582Y08283*
X15823Y08281*
Y0758*
X1582Y07579*
X15814Y07573*
X1581Y07566*
X15808Y07559*
Y07551*
X1581Y07543*
X15814Y07536*
X1582Y07531*
X15823Y07529*
Y06828*
X1582Y06827*
X15814Y06821*
X1581Y06814*
X15808Y06807*
Y06799*
X1581Y06791*
X15814Y06784*
X1582Y06779*
X15823Y06777*
Y0608*
X1582Y06079*
X15814Y06073*
X1581Y06066*
X15808Y06059*
Y06051*
X1581Y06043*
X15814Y06036*
X1582Y06031*
X15823Y06029*
Y05325*
X1582Y05323*
X15814Y05317*
X1581Y0531*
X15808Y05303*
Y05295*
X1581Y05287*
X15814Y0528*
X1582Y05275*
X15827Y05271*
X15834Y05269*
X15842*
X1585Y05271*
X15857Y05275*
X15862Y0528*
X15866Y05287*
X15868Y05295*
Y05303*
X15866Y0531*
X15862Y05317*
X15857Y05323*
X15853Y05325*
Y06029*
X15857Y06031*
X15862Y06036*
X15866Y06043*
X15868Y06051*
Y06059*
X15866Y06066*
X15862Y06073*
X15857Y06079*
X15853Y0608*
Y06777*
X15857Y06779*
X15862Y06784*
X15866Y06791*
X15868Y06799*
Y06807*
X15866Y06814*
X15862Y06821*
X15857Y06827*
X15853Y06828*
Y07529*
X15857Y07531*
X15862Y07536*
X15866Y07543*
X15868Y07551*
Y07559*
X15866Y07566*
X15862Y07573*
X15857Y07579*
X15853Y0758*
Y08281*
X15857Y08283*
X15862Y08288*
X15866Y08295*
X15868Y08303*
Y08311*
X15866Y08318*
X15864Y08321*
X15867Y08326*
X16268*
X16272Y08321*
X16269Y0831*
Y08297*
X16272Y08283*
X16277Y08271*
X16285Y0826*
X16294Y0825*
X16306Y08242*
X16318Y08237*
X16331Y08235*
X16345*
X16358Y08237*
X16371Y08242*
X16382Y0825*
X16392Y0826*
X16399Y08271*
X16405Y08283*
X16407Y08297*
Y0831*
X16405Y08321*
X16408Y08326*
X16561*
X16564Y08321*
X16562Y08318*
X1656Y08311*
Y08303*
X16562Y08295*
X16566Y08288*
X16572Y08283*
X16575Y08281*
Y07584*
X16572Y07583*
X16566Y07577*
X16562Y0757*
X1656Y07563*
Y07555*
X16562Y07547*
X16566Y0754*
X16572Y07535*
X16575Y07533*
Y0684*
X16572Y06838*
X16566Y06833*
X16562Y06826*
X1656Y06818*
Y06811*
X16562Y06803*
X16566Y06796*
X16572Y0679*
X16575Y06789*
Y06084*
X16572Y06083*
X16566Y06077*
X16562Y0607*
X1656Y06063*
Y06055*
X16562Y06047*
X16566Y0604*
X16572Y06035*
X16575Y06033*
Y05317*
X16572Y05315*
X16566Y05309*
X16562Y05302*
X1656Y05295*
Y05287*
X16562Y05279*
X16566Y05272*
X16572Y05267*
X16578Y05263*
X16586Y05261*
X16594*
X16602Y05263*
X16608Y05267*
X16614Y05272*
X16618Y05279*
X1662Y05287*
Y05295*
X16618Y05302*
X16614Y05309*
X16608Y05315*
X16605Y05317*
Y06033*
X16608Y06035*
X16614Y0604*
X16618Y06047*
X1662Y06055*
Y06063*
X16618Y0607*
X16614Y06077*
X16608Y06083*
X16605Y06084*
Y06789*
X16608Y0679*
X16614Y06796*
X16618Y06803*
X1662Y06811*
Y06818*
X16618Y06826*
X16614Y06833*
X16608Y06838*
X16605Y0684*
Y07533*
X16608Y07535*
X16614Y0754*
X16618Y07547*
X1662Y07555*
Y07563*
X16618Y0757*
X16614Y07577*
X16608Y07583*
X16605Y07584*
Y08281*
X16608Y08283*
X16614Y08288*
X16618Y08295*
X1662Y08303*
Y08311*
X16618Y08318*
X16616Y08321*
X16619Y08326*
X17018*
X17022Y08321*
X17019Y0831*
Y08297*
X17022Y08283*
X17027Y08271*
X17035Y0826*
X17044Y0825*
X17056Y08242*
X17068Y08237*
X17081Y08235*
X17095*
X17108Y08237*
X17121Y08242*
X17132Y0825*
X17142Y0826*
X17149Y08271*
X17155Y08283*
X17157Y08297*
Y0831*
X17155Y08321*
X17158Y08326*
X1732*
X17322Y08321*
X17318Y08317*
X17314Y0831*
X17312Y08303*
Y08295*
X17314Y08287*
X17318Y0828*
X17324Y08275*
X17327Y08273*
Y07584*
X17324Y07583*
X17318Y07577*
X17314Y0757*
X17312Y07563*
Y07555*
X17314Y07547*
X17318Y0754*
X17324Y07535*
X17327Y07533*
Y06832*
X17324Y06831*
X17318Y06825*
X17314Y06818*
X17312Y06811*
Y06803*
X17314Y06795*
X17318Y06788*
X17324Y06783*
X17327Y06781*
Y06084*
X17324Y06083*
X17318Y06077*
X17314Y0607*
X17312Y06063*
Y06055*
X17314Y06047*
X17318Y0604*
X17324Y06035*
X17327Y06033*
Y05309*
X17324Y05307*
X17318Y05301*
X17314Y05295*
X17312Y05287*
Y05279*
X17314Y05271*
X17318Y05265*
X17324Y05259*
X1733Y05255*
X17338Y05253*
X17346*
X17354Y05255*
X1736Y05259*
X17366Y05265*
X1737Y05271*
X17372Y05279*
Y05287*
X1737Y05295*
X17366Y05301*
X1736Y05307*
X17357Y05309*
Y06033*
X1736Y06035*
X17366Y0604*
X1737Y06047*
X17372Y06055*
Y06063*
X1737Y0607*
X17366Y06077*
X1736Y06083*
X17357Y06084*
Y06781*
X1736Y06783*
X17366Y06788*
X1737Y06795*
X17372Y06803*
Y06811*
X1737Y06818*
X17366Y06825*
X1736Y06831*
X17357Y06832*
Y07533*
X1736Y07535*
X17366Y0754*
X1737Y07547*
X17372Y07555*
Y07563*
X1737Y0757*
X17366Y07577*
X1736Y07583*
X17357Y07584*
Y08273*
X1736Y08275*
X17366Y0828*
X1737Y08287*
X17372Y08295*
Y08303*
X1737Y0831*
X17366Y08317*
X17362Y08321*
X17364Y08326*
X17768*
X17772Y08321*
X17769Y0831*
Y08297*
X17772Y08283*
X17777Y08271*
X17785Y0826*
X17794Y0825*
X17806Y08242*
X17818Y08237*
X17831Y08235*
X17845*
X17858Y08237*
X17871Y08242*
X17882Y0825*
X17892Y0826*
X17899Y08271*
X17905Y08283*
X17907Y08297*
Y0831*
X17905Y08321*
X17908Y08326*
X18061*
X18065Y08321*
X18064Y08318*
Y08311*
X18066Y08303*
X1807Y08296*
X18076Y0829*
X18079Y08289*
Y07573*
X18076Y07572*
X1807Y07566*
X18066Y07559*
X18064Y07552*
Y07544*
X18066Y07536*
X1807Y07529*
X18076Y07524*
X18082Y0752*
X1809Y07518*
X18098*
X18104Y07519*
X18107Y07515*
X18095Y07503*
X18085Y07488*
X18078Y07472*
X18075Y07455*
Y07438*
X18078Y07421*
X18085Y07405*
X18095Y0739*
X18107Y07378*
X18121Y07368*
X18138Y07362*
X18155Y07358*
X18172*
X18189Y07362*
X18205Y07368*
X1822Y07378*
X18232Y0739*
X18242Y07405*
X18248Y07421*
X18252Y07438*
Y07455*
X18248Y07472*
X18242Y07488*
X18232Y07503*
X1822Y07515*
X18205Y07525*
X18189Y07532*
X18172Y07535*
X18155*
X18138Y07532*
X18121Y07525*
X18119Y07523*
X18116Y07527*
X18118Y07529*
X18122Y07536*
X18124Y07544*
Y07552*
X18122Y07559*
X18118Y07566*
X18112Y07572*
X18109Y07573*
Y08289*
X18112Y0829*
X18118Y08296*
X18122Y08303*
X18124Y08311*
Y08318*
X18123Y08321*
X18127Y08326*
X18518*
X18521Y08321*
X18519Y0831*
Y08297*
X18522Y08283*
X18527Y08271*
X18534Y0826*
X18544Y0825*
X18555Y08242*
X18568Y08237*
X18581Y08235*
X18595*
X18608Y08237*
X18621Y08242*
X18632Y0825*
X18642Y0826*
X18649Y08271*
X18654Y08283*
X18657Y08297*
Y0831*
X18655Y08321*
X18658Y08326*
X19272*
Y07405*
X19271*
X19273Y07382*
X19279Y0736*
X19287Y07339*
X19299Y0732*
X19314Y07303*
X19331Y07288*
X1935Y07276*
X19371Y07268*
X19393Y07262*
X19416Y0726*
Y07261*
X19556*
X19556Y0726*
X19562Y0725*
X1957Y07242*
X19579Y07237*
X1959Y07234*
X19601*
X19612Y07237*
X19621Y07242*
X19629Y0725*
X19635Y0726*
X19638Y0727*
Y07281*
X19635Y07292*
X19629Y07302*
X19621Y07309*
X19612Y07315*
X19601Y07318*
X1959*
X19579Y07315*
X1957Y07309*
X19562Y07302*
X19556Y07292*
X19556Y07291*
X19416*
X19416Y07291*
X19398Y07292*
X19381Y07297*
X19364Y07303*
X19349Y07313*
X19335Y07324*
X19324Y07338*
X19314Y07353*
X19308Y0737*
X19303Y07387*
X19302Y07404*
X19302Y07405*
Y07472*
X19307Y07472*
X1931Y0746*
X19319Y07439*
X19331Y0742*
X19345Y07403*
X19363Y07388*
X19382Y07376*
X19403Y07368*
X19425Y07362*
X19448Y0736*
Y07361*
X19556*
X19556Y0736*
X19562Y0735*
X1957Y07342*
X19579Y07337*
X1959Y07334*
X19601*
X19612Y07337*
X19621Y07342*
X19629Y0735*
X19635Y0736*
X19638Y0737*
Y07381*
X19635Y07392*
X19629Y07402*
X19621Y07409*
X19612Y07415*
X19601Y07418*
X1959*
X19579Y07415*
X1957Y07409*
X19562Y07402*
X19556Y07392*
X19556Y07391*
X19448*
X19447Y07391*
X1943Y07392*
X19412Y07397*
X19396Y07403*
X19381Y07413*
X19367Y07424*
X19355Y07438*
X19346Y07453*
X19339Y0747*
X19335Y07487*
X19334Y07504*
X19334Y07505*
Y07541*
X19339Y07542*
X19344Y07529*
X19354Y07512*
X19367Y07497*
X19382Y07484*
X19399Y07474*
X19417Y07467*
X19436Y07462*
X19455Y0746*
Y07461*
X19556*
X19556Y0746*
X19562Y0745*
X1957Y07442*
X19579Y07437*
X1959Y07434*
X19601*
X19612Y07437*
X19621Y07442*
X19629Y0745*
X19635Y0746*
X19638Y0747*
Y07481*
X19635Y07492*
X19629Y07502*
X19621Y07509*
X19612Y07515*
X19601Y07518*
X1959*
X19579Y07515*
X1957Y07509*
X19562Y07502*
X19556Y07492*
X19556Y07491*
X19455*
X19455Y07491*
X19437Y07493*
X19419Y07498*
X19403Y07507*
X19389Y07519*
X19377Y07533*
X19368Y07549*
X19363Y07567*
X19361Y07584*
X19361Y07585*
Y07641*
X19366Y07642*
X19372Y07629*
X19382Y07612*
X19395Y07597*
X1941Y07584*
X19426Y07574*
X19444Y07567*
X19463Y07562*
X19483Y0756*
Y07561*
X19556*
X19556Y0756*
X19562Y0755*
X1957Y07542*
X19579Y07537*
X1959Y07534*
X19601*
X19612Y07537*
X19621Y07542*
X19629Y0755*
X19635Y0756*
X19638Y0757*
Y07581*
X19635Y07592*
X19629Y07602*
X19621Y07609*
X19612Y07615*
X19601Y07618*
X1959*
X19579Y07615*
X1957Y07609*
X19562Y07602*
X19556Y07592*
X19556Y07591*
X19483*
X19482Y07591*
X19465Y07593*
X19447Y07598*
X19431Y07607*
X19416Y07619*
X19404Y07633*
X19396Y07649*
X1939Y07667*
X19389Y07684*
X19389Y07685*
Y0771*
X19394Y07711*
X194Y07699*
X19411Y07686*
X19424Y07675*
X19439Y07667*
X19455Y07662*
X19472Y0766*
Y07661*
X19556*
X19556Y0766*
X19562Y0765*
X1957Y07642*
X19579Y07637*
X1959Y07634*
X19601*
X19612Y07637*
X19621Y07642*
X19629Y0765*
X19635Y0766*
X19638Y0767*
Y07681*
X19635Y07692*
X19629Y07702*
X19621Y07709*
X19612Y07715*
X19601Y07718*
X1959*
X19579Y07715*
X1957Y07709*
X19562Y07702*
X19556Y07692*
X19556Y07691*
X19472*
X19471Y07691*
X19458Y07693*
X19444Y07698*
X19433Y07707*
X19424Y07719*
X19418Y07732*
X19416Y07746*
X19416Y07747*
Y08326*
X19645*
Y07194*
G37*
%LNnumpadpcb-2*%
%LPC*%
G36*
X19601Y08318D02*
X1959D01*
X19579Y08315*
X1957Y08309*
X19562Y08302*
X19556Y08292*
X19554Y08281*
Y0827*
X19556Y0826*
X19562Y0825*
X1957Y08242*
X19579Y08237*
X1959Y08234*
X19601*
X19612Y08237*
X19621Y08242*
X19629Y0825*
X19635Y0826*
X19638Y0827*
Y08281*
X19635Y08292*
X19629Y08302*
X19621Y08309*
X19612Y08315*
X19601Y08318*
G37*
G36*
X19001D02*
X1899D01*
X18979Y08315*
X1897Y08309*
X18962Y08302*
X18956Y08292*
X18954Y08281*
Y0827*
X18956Y0826*
X18962Y0825*
X1897Y08242*
X18979Y08237*
X1899Y08234*
X19001*
X19012Y08237*
X19021Y08242*
X19029Y0825*
X19035Y0826*
X19038Y0827*
Y08281*
X19035Y08292*
X19029Y08302*
X19021Y08309*
X19012Y08315*
X19001Y08318*
G37*
G36*
X18345Y08272D02*
X18331D01*
X18318Y0827*
X18305Y08265*
X18294Y08257*
X18284Y08247*
X18277Y08236*
X18272Y08224*
X18269Y0821*
Y08197*
X18272Y08183*
X18277Y08171*
X18284Y0816*
X18292Y08152*
X1829Y08147*
X18282*
X18271Y08144*
X18261Y08138*
X18253Y0813*
X18248Y0812*
X18245Y08109*
Y08098*
X18248Y08087*
X18253Y08077*
X18261Y08069*
X18271Y08063*
X18282Y0806*
X18294*
X18305Y08063*
X18315Y08069*
X18323Y08077*
X18328Y08087*
X18331Y08098*
Y08109*
X18328Y0812*
X18323Y0813*
X18321Y08131*
X18324Y08136*
X18331Y08135*
X18345*
X18358Y08137*
X18371Y08142*
X18382Y0815*
X18392Y0816*
X18399Y08171*
X18404Y08183*
X18407Y08197*
Y0821*
X18404Y08224*
X18399Y08236*
X18392Y08247*
X18382Y08257*
X18371Y08265*
X18358Y0827*
X18345Y08272*
G37*
G36*
X17595D02*
X17581D01*
X17568Y0827*
X17556Y08265*
X17544Y08257*
X17535Y08247*
X17527Y08236*
X17522Y08224*
X17519Y0821*
Y08197*
X17522Y08183*
X17527Y08171*
X17535Y0816*
X17543Y08152*
X1754Y08147*
X17533*
X17522Y08144*
X17512Y08138*
X17504Y0813*
X17498Y0812*
X17495Y08109*
Y08098*
X17498Y08087*
X17504Y08077*
X17512Y08069*
X17522Y08063*
X17533Y0806*
X17544*
X17555Y08063*
X17565Y08069*
X17573Y08077*
X17579Y08087*
X17582Y08098*
Y08109*
X17579Y0812*
X17573Y0813*
X17572Y08131*
X17574Y08136*
X17581Y08135*
X17595*
X17608Y08137*
X17621Y08142*
X17632Y0815*
X17642Y0816*
X17649Y08171*
X17655Y08183*
X17657Y08197*
Y0821*
X17655Y08224*
X17649Y08236*
X17642Y08247*
X17632Y08257*
X17621Y08265*
X17608Y0827*
X17595Y08272*
G37*
G36*
X16845D02*
X16831D01*
X16818Y0827*
X16806Y08265*
X16794Y08257*
X16785Y08247*
X16777Y08236*
X16772Y08224*
X16769Y0821*
Y08197*
X16772Y08183*
X16777Y08171*
X16785Y0816*
X16793Y08152*
X1679Y08147*
X16783*
X16772Y08144*
X16762Y08138*
X16754Y0813*
X16748Y0812*
X16745Y08109*
Y08098*
X16748Y08087*
X16754Y08077*
X16762Y08069*
X16772Y08063*
X16783Y0806*
X16794*
X16805Y08063*
X16815Y08069*
X16823Y08077*
X16829Y08087*
X16832Y08098*
Y08109*
X16829Y0812*
X16823Y0813*
X16822Y08131*
X16824Y08136*
X16831Y08135*
X16845*
X16858Y08137*
X16871Y08142*
X16882Y0815*
X16892Y0816*
X16899Y08171*
X16905Y08183*
X16907Y08197*
Y0821*
X16905Y08224*
X16899Y08236*
X16892Y08247*
X16882Y08257*
X16871Y08265*
X16858Y0827*
X16845Y08272*
G37*
G36*
X16095D02*
X16081D01*
X16068Y0827*
X16056Y08265*
X16044Y08257*
X16035Y08247*
X16027Y08236*
X16022Y08224*
X16019Y0821*
Y08197*
X16022Y08183*
X16027Y08171*
X16035Y0816*
X16043Y08152*
X1604Y08147*
X16033*
X16022Y08144*
X16012Y08138*
X16004Y0813*
X15998Y0812*
X15995Y08109*
Y08098*
X15998Y08087*
X16004Y08077*
X16012Y08069*
X16022Y08063*
X16033Y0806*
X16044*
X16055Y08063*
X16065Y08069*
X16073Y08077*
X16079Y08087*
X16082Y08098*
Y08109*
X16079Y0812*
X16073Y0813*
X16072Y08131*
X16074Y08136*
X16081Y08135*
X16095*
X16108Y08137*
X16121Y08142*
X16132Y0815*
X16142Y0816*
X16149Y08171*
X16155Y08183*
X16157Y08197*
Y0821*
X16155Y08224*
X16149Y08236*
X16142Y08247*
X16132Y08257*
X16121Y08265*
X16108Y0827*
X16095Y08272*
G37*
G36*
X15345D02*
X15331D01*
X15318Y0827*
X15306Y08265*
X15294Y08257*
X15285Y08247*
X15277Y08236*
X15272Y08224*
X15269Y0821*
Y08197*
X15272Y08183*
X15277Y08171*
X15285Y0816*
X15293Y08152*
X1529Y08147*
X15283*
X15272Y08144*
X15262Y08138*
X15254Y0813*
X15248Y0812*
X15245Y08109*
Y08098*
X15248Y08087*
X15254Y08077*
X15262Y08069*
X15272Y08063*
X15283Y0806*
X15294*
X15305Y08063*
X15315Y08069*
X15323Y08077*
X15329Y08087*
X15332Y08098*
Y08109*
X15329Y0812*
X15323Y0813*
X15322Y08131*
X15324Y08136*
X15331Y08135*
X15345*
X15358Y08137*
X15371Y08142*
X15382Y0815*
X15392Y0816*
X15399Y08171*
X15405Y08183*
X15407Y08197*
Y0821*
X15405Y08224*
X15399Y08236*
X15392Y08247*
X15382Y08257*
X15371Y08265*
X15358Y0827*
X15345Y08272*
G37*
G36*
X19601Y08218D02*
X1959D01*
X19579Y08215*
X1957Y08209*
X19562Y08202*
X19556Y08192*
X19554Y08181*
Y0817*
X19556Y0816*
X19562Y0815*
X1957Y08142*
X19579Y08137*
X1959Y08134*
X19601*
X19612Y08137*
X19621Y08142*
X19629Y0815*
X19635Y0816*
X19638Y0817*
Y08181*
X19635Y08192*
X19629Y08202*
X19621Y08209*
X19612Y08215*
X19601Y08218*
G37*
G36*
X19001D02*
X1899D01*
X18979Y08215*
X1897Y08209*
X18962Y08202*
X18956Y08192*
X18954Y08181*
Y0817*
X18956Y0816*
X18962Y0815*
X1897Y08142*
X18979Y08137*
X1899Y08134*
X19001*
X19012Y08137*
X19021Y08142*
X19029Y0815*
X19035Y0816*
X19038Y0817*
Y08181*
X19035Y08192*
X19029Y08202*
X19021Y08209*
X19012Y08215*
X19001Y08218*
G37*
G36*
X19601Y08118D02*
X19598D01*
Y08078*
X19638*
Y08081*
X19635Y08092*
X19629Y08102*
X19621Y08109*
X19612Y08115*
X19601Y08118*
G37*
G36*
X19593D02*
X1959D01*
X19579Y08115*
X1957Y08109*
X19562Y08102*
X19556Y08092*
X19554Y08081*
Y08078*
X19593*
Y08118*
G37*
G36*
X18694Y08147D02*
X18682D01*
X18671Y08144*
X18661Y08138*
X18653Y0813*
X18648Y0812*
X18645Y08109*
Y08098*
X18648Y08087*
X18653Y08077*
X18661Y08069*
X18671Y08063*
X18682Y0806*
X18694*
X18705Y08063*
X18715Y08069*
X18723Y08077*
X18728Y08087*
X18731Y08098*
Y08109*
X18728Y0812*
X18723Y0813*
X18715Y08138*
X18705Y08144*
X18694Y08147*
G37*
G36*
X17944D02*
X17933D01*
X17922Y08144*
X17912Y08138*
X17904Y0813*
X17898Y0812*
X17895Y08109*
Y08098*
X17898Y08087*
X17904Y08077*
X17912Y08069*
X17922Y08063*
X17933Y0806*
X17944*
X17955Y08063*
X17965Y08069*
X17973Y08077*
X17979Y08087*
X17982Y08098*
Y08109*
X17979Y0812*
X17973Y0813*
X17965Y08138*
X17955Y08144*
X17944Y08147*
G37*
G36*
X17194D02*
X17183D01*
X17172Y08144*
X17162Y08138*
X17154Y0813*
X17148Y0812*
X17145Y08109*
Y08098*
X17148Y08087*
X17154Y08077*
X17162Y08069*
X17172Y08063*
X17183Y0806*
X17194*
X17205Y08063*
X17215Y08069*
X17223Y08077*
X17229Y08087*
X17232Y08098*
Y08109*
X17229Y0812*
X17223Y0813*
X17215Y08138*
X17205Y08144*
X17194Y08147*
G37*
G36*
X16444D02*
X16433D01*
X16422Y08144*
X16412Y08138*
X16404Y0813*
X16398Y0812*
X16395Y08109*
Y08098*
X16398Y08087*
X16404Y08077*
X16412Y08069*
X16422Y08063*
X16433Y0806*
X16444*
X16455Y08063*
X16465Y08069*
X16473Y08077*
X16479Y08087*
X16482Y08098*
Y08109*
X16479Y0812*
X16473Y0813*
X16465Y08138*
X16455Y08144*
X16444Y08147*
G37*
G36*
X15694D02*
X15683D01*
X15672Y08144*
X15662Y08138*
X15654Y0813*
X15648Y0812*
X15645Y08109*
Y08098*
X15648Y08087*
X15654Y08077*
X15662Y08069*
X15672Y08063*
X15683Y0806*
X15694*
X15705Y08063*
X15715Y08069*
X15723Y08077*
X15729Y08087*
X15732Y08098*
Y08109*
X15729Y0812*
X15723Y0813*
X15715Y08138*
X15705Y08144*
X15694Y08147*
G37*
G36*
X19638Y08073D02*
X19598D01*
Y08034*
X19601*
X19612Y08037*
X19621Y08042*
X19629Y0805*
X19635Y0806*
X19638Y0807*
Y08073*
G37*
G36*
X19593D02*
X19554D01*
Y0807*
X19556Y0806*
X19562Y0805*
X1957Y08042*
X19579Y08037*
X1959Y08034*
X19593*
Y08073*
G37*
G36*
X19001Y08118D02*
X1899D01*
X18979Y08115*
X1897Y08109*
X18962Y08102*
X18956Y08092*
X18954Y08081*
Y0807*
X18956Y0806*
X18962Y0805*
X1897Y08042*
X18979Y08037*
X1899Y08034*
X19001*
X19012Y08037*
X19021Y08042*
X19029Y0805*
X19035Y0806*
X19038Y0807*
Y08081*
X19035Y08092*
X19029Y08102*
X19021Y08109*
X19012Y08115*
X19001Y08118*
G37*
G36*
X18497Y08192D02*
X18479D01*
X18462Y08188*
X18446Y08182*
X18432Y08172*
X18419Y0816*
X1841Y08145*
X18403Y08129*
X184Y08112*
Y08095*
X18403Y08078*
X1841Y08062*
X18419Y08047*
X18432Y08035*
X18446Y08025*
X18462Y08019*
X18479Y08015*
X18497*
X18514Y08019*
X1853Y08025*
X18544Y08035*
X18557Y08047*
X18566Y08062*
X18573Y08078*
X18576Y08095*
Y08112*
X18573Y08129*
X18566Y08145*
X18557Y0816*
X18544Y08172*
X1853Y08182*
X18514Y08188*
X18497Y08192*
G37*
G36*
X17747D02*
X1773D01*
X17713Y08188*
X17696Y08182*
X17682Y08172*
X1767Y0816*
X1766Y08145*
X17653Y08129*
X1765Y08112*
Y08095*
X17653Y08078*
X1766Y08062*
X1767Y08047*
X17682Y08035*
X17696Y08025*
X17713Y08019*
X1773Y08015*
X17747*
X17764Y08019*
X1778Y08025*
X17795Y08035*
X17807Y08047*
X17817Y08062*
X17823Y08078*
X17827Y08095*
Y08112*
X17823Y08129*
X17817Y08145*
X17807Y0816*
X17795Y08172*
X1778Y08182*
X17764Y08188*
X17747Y08192*
G37*
G36*
X16997D02*
X1698D01*
X16963Y08188*
X16946Y08182*
X16932Y08172*
X1692Y0816*
X1691Y08145*
X16903Y08129*
X169Y08112*
Y08095*
X16903Y08078*
X1691Y08062*
X1692Y08047*
X16932Y08035*
X16946Y08025*
X16963Y08019*
X1698Y08015*
X16997*
X17014Y08019*
X1703Y08025*
X17045Y08035*
X17057Y08047*
X17067Y08062*
X17073Y08078*
X17077Y08095*
Y08112*
X17073Y08129*
X17067Y08145*
X17057Y0816*
X17045Y08172*
X1703Y08182*
X17014Y08188*
X16997Y08192*
G37*
G36*
X16247D02*
X1623D01*
X16213Y08188*
X16196Y08182*
X16182Y08172*
X1617Y0816*
X1616Y08145*
X16153Y08129*
X1615Y08112*
Y08095*
X16153Y08078*
X1616Y08062*
X1617Y08047*
X16182Y08035*
X16196Y08025*
X16213Y08019*
X1623Y08015*
X16247*
X16264Y08019*
X1628Y08025*
X16295Y08035*
X16307Y08047*
X16317Y08062*
X16323Y08078*
X16327Y08095*
Y08112*
X16323Y08129*
X16317Y08145*
X16307Y0816*
X16295Y08172*
X1628Y08182*
X16264Y08188*
X16247Y08192*
G37*
G36*
X15497D02*
X1548D01*
X15463Y08188*
X15446Y08182*
X15432Y08172*
X1542Y0816*
X1541Y08145*
X15403Y08129*
X154Y08112*
Y08095*
X15403Y08078*
X1541Y08062*
X1542Y08047*
X15432Y08035*
X15446Y08025*
X15463Y08019*
X1548Y08015*
X15497*
X15514Y08019*
X1553Y08025*
X15545Y08035*
X15557Y08047*
X15567Y08062*
X15573Y08078*
X15577Y08095*
Y08112*
X15573Y08129*
X15567Y08145*
X15557Y0816*
X15545Y08172*
X1553Y08182*
X15514Y08188*
X15497Y08192*
G37*
G36*
X19601Y08018D02*
X1959D01*
X19579Y08015*
X1957Y08009*
X19562Y08002*
X19556Y07992*
X19554Y07981*
Y0797*
X19556Y0796*
X19562Y0795*
X1957Y07942*
X19579Y07937*
X1959Y07934*
X19601*
X19612Y07937*
X19621Y07942*
X19629Y0795*
X19635Y0796*
X19638Y0797*
Y07981*
X19635Y07992*
X19629Y08002*
X19621Y08009*
X19612Y08015*
X19601Y08018*
G37*
G36*
X19001D02*
X1899D01*
X18979Y08015*
X1897Y08009*
X18962Y08002*
X18956Y07992*
X18954Y07981*
Y0797*
X18956Y0796*
X18962Y0795*
X1897Y07942*
X18979Y07937*
X1899Y07934*
X19001*
X19012Y07937*
X19021Y07942*
X19029Y0795*
X19035Y0796*
X19038Y0797*
Y07981*
X19035Y07992*
X19029Y08002*
X19021Y08009*
X19012Y08015*
X19001Y08018*
G37*
G36*
X18551Y08002D02*
X18425D01*
X18421Y08002*
X18418Y07999*
X18416Y07996*
X18415Y07992*
Y07882*
X18416Y07878*
X18418Y07875*
X18421Y07873*
X18425Y07872*
X18551*
X18555Y07873*
X18558Y07875*
X18561Y07878*
X18561Y07882*
Y07992*
X18561Y07996*
X18558Y07999*
X18555Y08002*
X18551Y08002*
G37*
G36*
X17801D02*
X17675D01*
X17671Y08002*
X17668Y07999*
X17666Y07996*
X17665Y07992*
Y07882*
X17666Y07878*
X17668Y07875*
X17671Y07873*
X17675Y07872*
X17801*
X17805Y07873*
X17808Y07875*
X17811Y07878*
X17811Y07882*
Y07992*
X17811Y07996*
X17808Y07999*
X17805Y08002*
X17801Y08002*
G37*
G36*
X17051D02*
X16925D01*
X16921Y08002*
X16918Y07999*
X16916Y07996*
X16915Y07992*
Y07882*
X16916Y07878*
X16918Y07875*
X16921Y07873*
X16925Y07872*
X17051*
X17055Y07873*
X17058Y07875*
X17061Y07878*
X17061Y07882*
Y07992*
X17061Y07996*
X17058Y07999*
X17055Y08002*
X17051Y08002*
G37*
G36*
X16301D02*
X16175D01*
X16171Y08002*
X16168Y07999*
X16166Y07996*
X16165Y07992*
Y07882*
X16166Y07878*
X16168Y07875*
X16171Y07873*
X16175Y07872*
X16301*
X16305Y07873*
X16308Y07875*
X16311Y07878*
X16311Y07882*
Y07992*
X16311Y07996*
X16308Y07999*
X16305Y08002*
X16301Y08002*
G37*
G36*
X15551D02*
X15425D01*
X15421Y08002*
X15418Y07999*
X15416Y07996*
X15415Y07992*
Y07882*
X15416Y07878*
X15418Y07875*
X15421Y07873*
X15425Y07872*
X15551*
X15555Y07873*
X15558Y07875*
X15561Y07878*
X15561Y07882*
Y07992*
X15561Y07996*
X15558Y07999*
X15555Y08002*
X15551Y08002*
G37*
G36*
X19601Y07918D02*
X1959D01*
X19579Y07915*
X1957Y07909*
X19562Y07902*
X19556Y07892*
X19554Y07881*
Y0787*
X19556Y0786*
X19562Y0785*
X1957Y07842*
X19579Y07837*
X1959Y07834*
X19601*
X19612Y07837*
X19621Y07842*
X19629Y0785*
X19635Y0786*
X19638Y0787*
Y07881*
X19635Y07892*
X19629Y07902*
X19621Y07909*
X19612Y07915*
X19601Y07918*
G37*
G36*
X19001D02*
X1899D01*
X18979Y07915*
X1897Y07909*
X18962Y07902*
X18956Y07892*
X18954Y07881*
Y0787*
X18956Y0786*
X18962Y0785*
X1897Y07842*
X18979Y07837*
X1899Y07834*
X19001*
X19012Y07837*
X19021Y07842*
X19029Y0785*
X19035Y0786*
X19038Y0787*
Y07881*
X19035Y07892*
X19029Y07902*
X19021Y07909*
X19012Y07915*
X19001Y07918*
G37*
G36*
X16795Y07933D02*
X16787D01*
X16779Y07931*
X16772Y07927*
X16767Y07921*
X16763Y07915*
X16761Y07907*
Y07899*
X16763Y07891*
X16767Y07885*
X16772Y07879*
X16776Y07877*
Y0783*
X16772Y07829*
X16767Y07823*
X16763Y07816*
X16761Y07809*
Y07801*
X16763Y07793*
X16767Y07786*
X16772Y07781*
X16779Y07777*
X16787Y07775*
X16795*
X16802Y07777*
X16809Y07781*
X16815Y07786*
X16819Y07793*
X16821Y07801*
Y07809*
X16819Y07816*
X16815Y07823*
X16809Y07829*
X16806Y0783*
Y07877*
X16809Y07879*
X16815Y07885*
X16819Y07891*
X16821Y07899*
Y07907*
X16819Y07915*
X16815Y07921*
X16809Y07927*
X16802Y07931*
X16795Y07933*
G37*
G36*
X16057D02*
X16049D01*
X16041Y07931*
X16034Y07927*
X16029Y07921*
X16025Y07915*
X16023Y07907*
Y07899*
X16025Y07891*
X16029Y07885*
X16034Y07879*
X16037Y07877*
Y0783*
X16034Y07829*
X16029Y07823*
X16025Y07816*
X16023Y07809*
Y07801*
X16025Y07793*
X16029Y07786*
X16034Y07781*
X16041Y07777*
X16049Y07775*
X16057*
X16064Y07777*
X16071Y07781*
X16077Y07786*
X16081Y07793*
X16083Y07801*
Y07809*
X16081Y07816*
X16077Y07823*
X16071Y07829*
X16068Y0783*
Y07877*
X16071Y07879*
X16077Y07885*
X16081Y07891*
X16083Y07899*
Y07907*
X16081Y07915*
X16077Y07921*
X16071Y07927*
X16064Y07931*
X16057Y07933*
G37*
G36*
X18596Y08061D02*
X18588D01*
X1858Y08059*
X18574Y08055*
X18568Y08049*
X18564Y08043*
X18562Y08035*
Y08027*
X18564Y08019*
X18568Y08013*
X18574Y08007*
X18577Y08005*
Y07808*
X18577Y07807*
X18576Y07796*
X18572Y07785*
X18567Y07775*
X1856Y07766*
X18551Y07759*
X18546Y07756*
X18542Y07759*
Y07765*
X18494*
Y07702*
X18542*
Y07722*
X18552Y07725*
X18568Y07733*
X18581Y07744*
X18592Y07758*
X18601Y07773*
X18606Y0779*
X18607Y07808*
X18607*
Y08005*
X1861Y08007*
X18616Y08013*
X1862Y08019*
X18622Y08027*
Y08035*
X1862Y08043*
X18616Y08049*
X1861Y08055*
X18604Y08059*
X18596Y08061*
G37*
G36*
X17938Y07765D02*
X17917D01*
Y07736*
X17938*
Y07765*
G37*
G36*
X17187D02*
X17166D01*
Y07736*
X17187*
Y07765*
G37*
G36*
X15689D02*
X15667D01*
Y07736*
X15689*
Y07765*
G37*
G36*
X18482D02*
X18461D01*
Y07736*
X18482*
Y07765*
G37*
G36*
X16439D02*
X16417D01*
Y07736*
X16439*
Y07765*
G37*
G36*
X18456D02*
X18435D01*
Y07736*
X18456*
Y07765*
G37*
G36*
X16412D02*
X16391D01*
Y07736*
X16412*
Y07765*
G37*
G36*
X15662D02*
X15641D01*
Y07736*
X15662*
Y07765*
G37*
G36*
X17161D02*
X1714D01*
Y07736*
X17161*
Y07765*
G37*
G36*
X17912D02*
X17891D01*
Y07736*
X17912*
Y07765*
G37*
G36*
X19601Y07818D02*
X1959D01*
X19579Y07815*
X1957Y07809*
X19562Y07802*
X19556Y07792*
X19554Y07781*
Y0777*
X19556Y0776*
X19562Y0775*
X1957Y07742*
X19579Y07737*
X1959Y07734*
X19601*
X19612Y07737*
X19621Y07742*
X19629Y0775*
X19635Y0776*
X19638Y0777*
Y07781*
X19635Y07792*
X19629Y07802*
X19621Y07809*
X19612Y07815*
X19601Y07818*
G37*
G36*
X19001D02*
X1899D01*
X18979Y07815*
X1897Y07809*
X18962Y07802*
X18956Y07792*
X18954Y07781*
Y0777*
X18956Y0776*
X18962Y0775*
X1897Y07742*
X18979Y07737*
X1899Y07734*
X19001*
X19012Y07737*
X19021Y07742*
X19029Y0775*
X19035Y0776*
X19038Y0777*
Y07781*
X19035Y07792*
X19029Y07802*
X19021Y07809*
X19012Y07815*
X19001Y07818*
G37*
G36*
X18855Y07868D02*
X18841D01*
X18827Y07865*
X18813Y07859*
X18802Y07851*
X18791Y07841*
X18783Y07829*
X18778Y07816*
X18775Y07802*
Y07788*
X18778Y07774*
X18783Y0776*
X18791Y07748*
X18802Y07738*
X18813Y0773*
X18827Y07725*
X18841Y07722*
X18855*
X18869Y07725*
X18882Y0773*
X18894Y07738*
X18905Y07748*
X18912Y0776*
X18918Y07774*
X18921Y07788*
Y07802*
X18918Y07816*
X18912Y07829*
X18905Y07841*
X18894Y07851*
X18882Y07859*
X18869Y07865*
X18855Y07868*
G37*
G36*
X18482Y07731D02*
X18461D01*
Y07702*
X18482*
Y07731*
G37*
G36*
X18456D02*
X18435D01*
Y07702*
X18456*
Y07731*
G37*
G36*
X17948Y07997D02*
X1794D01*
X17933Y07995*
X17926Y07991*
X1792Y07985*
X17916Y07978*
X17914Y07971*
Y07963*
X17916Y07955*
X1792Y07948*
X17926Y07943*
X17933Y07939*
X1794Y07937*
X17948*
X17953Y07938*
X17954Y07938*
X17958Y07935*
X17958Y07934*
Y07765*
X1795*
Y07702*
X17997*
Y07765*
X17989*
Y07937*
X17989*
X17988Y07949*
X17983Y0796*
X17976Y07969*
X17974Y0797*
Y07971*
X17972Y07978*
X17968Y07985*
X17963Y07991*
X17956Y07995*
X17948Y07997*
G37*
G36*
X17938Y07731D02*
X17917D01*
Y07702*
X17938*
Y07731*
G37*
G36*
X17912D02*
X17891D01*
Y07702*
X17912*
Y07731*
G37*
G36*
X17197Y07994D02*
X17189D01*
X17182Y07992*
X17175Y07988*
X17169Y07982*
X17165Y07975*
X17163Y07967*
Y0796*
X17165Y07952*
X17169Y07945*
X17175Y0794*
X17182Y07936*
X17189Y07934*
X17197*
X17202Y07935*
X17203Y07935*
X17207Y07932*
X17208Y07931*
Y07765*
X17199*
Y07702*
X17247*
Y07765*
X17238*
Y07934*
X17238*
X17237Y07946*
X17232Y07956*
X17225Y07966*
X17223Y07967*
Y07967*
X17221Y07975*
X17217Y07982*
X17212Y07988*
X17205Y07992*
X17197Y07994*
G37*
G36*
X17187Y07731D02*
X17166D01*
Y07702*
X17187*
Y07731*
G37*
G36*
X17161D02*
X1714D01*
Y07702*
X17161*
Y07731*
G37*
G36*
X16448Y07993D02*
X1644D01*
X16433Y07991*
X16426Y07987*
X1642Y07981*
X16416Y07975*
X16414Y07967*
Y07959*
X16416Y07951*
X1642Y07945*
X16426Y07939*
X16433Y07935*
X1644Y07933*
X16448*
X16453Y07934*
X16454Y07934*
X16458Y07932*
X16459Y07931*
Y07765*
X1645*
Y07702*
X16498*
Y07765*
X16489*
Y07934*
X16489*
X16488Y07946*
X16483Y07957*
X16476Y07967*
X16474Y07968*
X16472Y07975*
X16468Y07981*
X16463Y07987*
X16456Y07991*
X16448Y07993*
G37*
G36*
X16439Y07731D02*
X16417D01*
Y07702*
X16439*
Y07731*
G37*
G36*
X16412D02*
X16391D01*
Y07702*
X16412*
Y07731*
G37*
G36*
X15702Y07992D02*
X15694D01*
X15687Y0799*
X1568Y07986*
X15674Y07981*
X1567Y07974*
X15668Y07966*
Y07958*
X1567Y07951*
X15674Y07944*
X1568Y07938*
X15687Y07934*
X15694Y07932*
X15702*
X15705Y07933*
X15709Y0793*
Y07765*
X157*
Y07702*
X15748*
Y07765*
X15739*
Y07937*
X15739*
X15738Y07947*
X15734Y07957*
X15728Y07964*
Y07966*
X15726Y07974*
X15722Y07981*
X15717Y07986*
X1571Y0799*
X15702Y07992*
G37*
G36*
X15689Y07731D02*
X15667D01*
Y07702*
X15689*
Y07731*
G37*
G36*
X15662D02*
X15641D01*
Y07702*
X15662*
Y07731*
G37*
G36*
X15522Y07806D02*
X15508D01*
X15494Y07804*
X15481Y07798*
X15469Y0779*
X15459Y0778*
X15451Y07768*
X15445Y07755*
X15442Y07741*
Y07726*
X15445Y07712*
X15451Y07699*
X15459Y07687*
X15469Y07677*
X15481Y07669*
X15494Y07663*
X15508Y07661*
X15522*
X15536Y07663*
X1555Y07669*
X15562Y07677*
X15572Y07687*
X1558Y07699*
X15585Y07712*
X15588Y07726*
Y07741*
X15585Y07755*
X1558Y07768*
X15572Y0778*
X15562Y0779*
X1555Y07798*
X15536Y07804*
X15522Y07806*
G37*
G36*
X18212Y07762D02*
X18204D01*
X18197Y0776*
X1819Y07756*
X18184Y0775*
X1818Y07743*
X18178Y07736*
Y07728*
X1818Y0772*
X18184Y07713*
X1819Y07708*
X18197Y07704*
X18199Y07703*
X18205Y07692*
X18214Y07681*
X18224Y07673*
X18237Y07666*
X1825Y07662*
X18251Y07662*
X18251Y07657*
X18246Y07655*
X18239Y07651*
X18233Y07646*
X18229Y07639*
X18227Y07631*
Y07624*
X18229Y07616*
X18233Y07609*
X18239Y07603*
X18246Y076*
X18253Y07597*
X18261*
X18269Y076*
X18276Y07603*
X18281Y07609*
X18283Y07612*
X1833*
X18332Y07609*
X18337Y07603*
X18344Y076*
X18352Y07597*
X1836*
X18367Y076*
X18374Y07603*
X1838Y07609*
X18384Y07616*
X18386Y07624*
Y07631*
X18384Y07639*
X1838Y07646*
X18374Y07651*
X18367Y07655*
X18367Y07656*
X18367Y07661*
X18531*
X18532Y07656*
X18531Y07655*
X18524Y07651*
X18519Y07646*
X18515Y07639*
X18513Y07631*
Y07624*
X18515Y07616*
X18519Y07609*
X18524Y07603*
X18531Y076*
X18539Y07597*
X18547*
X18554Y076*
X18561Y07603*
X18567Y07609*
X18569Y07612*
X18615*
X18617Y07609*
X18623Y07603*
X1863Y076*
X18637Y07597*
X18645*
X18653Y076*
X1866Y07603*
X18665Y07609*
X18669Y07616*
X18671Y07624*
Y07631*
X18669Y07639*
X18665Y07646*
X1866Y07651*
X18653Y07655*
X18652Y07656*
X18653Y07661*
X18956*
X18956Y0766*
X18962Y0765*
X1897Y07642*
X18979Y07637*
X1899Y07634*
X19001*
X19012Y07637*
X19021Y07642*
X19029Y0765*
X19035Y0766*
X19038Y0767*
Y07681*
X19035Y07692*
X19029Y07702*
X19021Y07709*
X19012Y07715*
X19001Y07718*
X1899*
X18979Y07715*
X1897Y07709*
X18962Y07702*
X18956Y07692*
X18956Y07691*
X18264*
X18264Y07691*
X18254Y07692*
X18244Y07696*
X18235Y07703*
X18229Y07711*
X18232Y07713*
X18236Y0772*
X18238Y07728*
Y07736*
X18236Y07743*
X18232Y0775*
X18227Y07756*
X1822Y0776*
X18212Y07762*
G37*
G36*
X19001Y07618D02*
X1899D01*
X18979Y07615*
X1897Y07609*
X18962Y07602*
X18956Y07592*
X18956Y07591*
X18377*
Y07591*
X18361Y0759*
X18344Y07585*
X1833Y07577*
X18316Y07566*
X18306Y07553*
X18298Y07538*
X18293Y07522*
X18291Y07505*
X18291*
Y07415*
X18288Y07413*
X18283Y07408*
X18279Y07401*
X18278Y07399*
X18277Y07399*
X18263Y07391*
X18251Y07382*
X18241Y0737*
X18234Y07356*
X1823Y07342*
X18228Y07326*
X18228*
Y07141*
X18228Y0714*
X18227Y07132*
X18222Y07125*
X18215Y07121*
X18207Y07119*
X18207Y07119*
X18171*
X18169Y07119*
X1816Y07118*
X18156Y07119*
X17808*
X17807Y07124*
X17808Y07125*
X17811Y07128*
X17811Y07132*
Y07243*
X17811Y07246*
X17808Y0725*
X17805Y07252*
X17801Y07253*
X17675*
X17671Y07252*
X17668Y0725*
X17666Y07246*
X17665Y07243*
Y07132*
X17666Y07128*
X17668Y07125*
X1767Y07124*
X17668Y07119*
X17549*
X17547Y07122*
X17542Y07128*
X17535Y07132*
X17527Y07134*
X17519*
X17512Y07132*
X17505Y07128*
X17499Y07122*
X17495Y07115*
X17493Y07108*
Y071*
X17495Y07092*
X17499Y07085*
X17505Y0708*
X17512Y07076*
X17519Y07074*
X17527*
X17535Y07076*
X17542Y0708*
X17547Y07085*
X17549Y07089*
X18113*
X18116Y07084*
X18113Y07076*
X18111Y07062*
X18111*
Y06754*
X18108Y06752*
X18102Y06746*
X18099Y06739*
X18096Y06732*
Y06724*
X18099Y06716*
X18102Y06709*
X18108Y06704*
X18115Y067*
X18123Y06698*
X1813*
X18138Y067*
X18145Y06704*
X1815Y06709*
X18154Y06716*
X18156Y06724*
Y06732*
X18154Y06739*
X1815Y06746*
X18145Y06752*
X18142Y06754*
Y07062*
X18142Y07062*
X18143Y07069*
X18145Y07075*
X1815Y07081*
X18155Y07085*
X18162Y07088*
X18164Y07088*
X18169Y07089*
X18174*
X18207*
Y07088*
X1822Y0709*
X18233Y07095*
X18244Y07104*
X18252Y07115*
X18257Y07127*
X18259Y07141*
X18259*
Y07326*
X18259Y07327*
X1826Y07339*
X18265Y0735*
X18273Y0736*
X18283Y07368*
X18285Y07369*
X18288Y07365*
X18295Y07361*
X18303Y07359*
X18311*
X18318Y07361*
X18325Y07365*
X18331Y07371*
X18335Y07378*
X18337Y07385*
Y07393*
X18335Y07401*
X18331Y07408*
X18325Y07413*
X18322Y07415*
Y07505*
X18322Y07506*
X18324Y07519*
X18329Y07533*
X18338Y07545*
X1835Y07553*
X18363Y07559*
X18377Y07561*
X18377Y07561*
X18956*
X18956Y0756*
X18962Y0755*
X1897Y07542*
X18979Y07537*
X1899Y07534*
X19001*
X19012Y07537*
X19021Y07542*
X19029Y0755*
X19035Y0756*
X19038Y0757*
Y07581*
X19035Y07592*
X19029Y07602*
X19021Y07609*
X19012Y07615*
X19001Y07618*
G37*
G36*
X17845Y07623D02*
X17831D01*
X17818Y0762*
X17806Y07615*
X17794Y07607*
X17785Y07598*
X17777Y07586*
X17772Y07574*
X17769Y07561*
Y07547*
X17772Y07534*
X17777Y07521*
X17785Y0751*
X17794Y075*
X17806Y07493*
X17818Y07488*
X17831Y07485*
X17845*
X17858Y07488*
X17871Y07493*
X17882Y075*
X17892Y0751*
X17899Y07521*
X17905Y07534*
X17907Y07547*
Y07561*
X17905Y07574*
X17899Y07586*
X17892Y07598*
X17882Y07607*
X17871Y07615*
X17858Y0762*
X17845Y07623*
G37*
G36*
X17095D02*
X17081D01*
X17068Y0762*
X17056Y07615*
X17044Y07607*
X17035Y07598*
X17027Y07586*
X17022Y07574*
X17019Y07561*
Y07547*
X17022Y07534*
X17027Y07521*
X17035Y0751*
X17044Y075*
X17056Y07493*
X17068Y07488*
X17081Y07485*
X17095*
X17108Y07488*
X17121Y07493*
X17132Y075*
X17142Y0751*
X17149Y07521*
X17155Y07534*
X17157Y07547*
Y07561*
X17155Y07574*
X17149Y07586*
X17142Y07598*
X17132Y07607*
X17121Y07615*
X17108Y0762*
X17095Y07623*
G37*
G36*
X16345D02*
X16331D01*
X16318Y0762*
X16306Y07615*
X16294Y07607*
X16285Y07598*
X16277Y07586*
X16272Y07574*
X16269Y07561*
Y07547*
X16272Y07534*
X16277Y07521*
X16285Y0751*
X16294Y075*
X16306Y07493*
X16318Y07488*
X16331Y07485*
X16345*
X16358Y07488*
X16371Y07493*
X16382Y075*
X16392Y0751*
X16399Y07521*
X16405Y07534*
X16407Y07547*
Y07561*
X16405Y07574*
X16399Y07586*
X16392Y07598*
X16382Y07607*
X16371Y07615*
X16358Y0762*
X16345Y07623*
G37*
G36*
X15595D02*
X15581D01*
X15568Y0762*
X15556Y07615*
X15544Y07607*
X15535Y07598*
X15527Y07586*
X15522Y07574*
X15519Y07561*
Y07547*
X15522Y07534*
X15527Y07521*
X15535Y0751*
X15544Y075*
X15556Y07493*
X15568Y07488*
X15581Y07485*
X15595*
X15608Y07488*
X15621Y07493*
X15632Y075*
X15642Y0751*
X15649Y07521*
X15655Y07534*
X15657Y07547*
Y07561*
X15655Y07574*
X15649Y07586*
X15642Y07598*
X15632Y07607*
X15621Y07615*
X15608Y0762*
X15595Y07623*
G37*
G36*
X19001Y07518D02*
X1899D01*
X18979Y07515*
X1897Y07509*
X18962Y07502*
X18957Y07493*
X18952Y07491*
X18935Y0749*
X18918Y07484*
X18902Y07476*
X18888Y07465*
X18877Y07451*
X18869Y07436*
X18864Y07419*
X18862Y07401*
X18862*
Y07393*
X18862Y07392*
X18861Y07376*
X18856Y0736*
X18848Y07346*
X18837Y07333*
X18825Y07322*
X1881Y07314*
X18794Y0731*
X18778Y07308*
X18777Y07308*
X185*
X18498Y07311*
X18492Y07317*
X18485Y07321*
X18478Y07323*
X1847*
X18462Y07321*
X18455Y07317*
X1845Y07311*
X18446Y07304*
X18444Y07297*
Y07289*
X18446Y07281*
X1845Y07274*
X18455Y07269*
X18462Y07265*
X1847Y07263*
X18478*
X18485Y07265*
X18492Y07269*
X18498Y07274*
X185Y07278*
X18777*
Y07277*
X18796Y07279*
X18813Y07283*
X1883Y0729*
X18845Y07299*
X18859Y07311*
X18871Y07325*
X1888Y0734*
X18887Y07357*
X18891Y07375*
X18893Y07393*
X18893*
Y07401*
X18893Y07401*
X18894Y07413*
X18897Y07424*
X18903Y07434*
X1891Y07443*
X18919Y07451*
X18929Y07456*
X18941Y0746*
X18952Y07461*
X18952Y07461*
X18956*
X18956Y0746*
X18962Y0745*
X1897Y07442*
X18979Y07437*
X1899Y07434*
X19001*
X19012Y07437*
X19021Y07442*
X19029Y0745*
X19035Y0746*
X19038Y0747*
Y07481*
X19035Y07492*
X19029Y07502*
X19021Y07509*
X19012Y07515*
X19001Y07518*
G37*
G36*
X17595Y07523D02*
X17581D01*
X17568Y0752*
X17556Y07515*
X17544Y07507*
X17535Y07498*
X17527Y07486*
X17522Y07474*
X17519Y07461*
Y07447*
X17522Y07434*
X17527Y07421*
X17535Y0741*
X17543Y07402*
X1754Y07397*
X17533*
X17522Y07394*
X17512Y07389*
X17504Y0738*
X17498Y07371*
X17495Y0736*
Y07348*
X17498Y07337*
X17504Y07327*
X17512Y07319*
X17522Y07313*
X17533Y0731*
X17544*
X17555Y07313*
X17565Y07319*
X17573Y07327*
X17579Y07337*
X17582Y07348*
Y0736*
X17579Y07371*
X17573Y0738*
X17572Y07382*
X17574Y07386*
X17581Y07385*
X17595*
X17608Y07388*
X17621Y07393*
X17632Y074*
X17642Y0741*
X17649Y07421*
X17655Y07434*
X17657Y07447*
Y07461*
X17655Y07474*
X17649Y07486*
X17642Y07498*
X17632Y07507*
X17621Y07515*
X17608Y0752*
X17595Y07523*
G37*
G36*
X16845D02*
X16831D01*
X16818Y0752*
X16806Y07515*
X16794Y07507*
X16785Y07498*
X16777Y07486*
X16772Y07474*
X16769Y07461*
Y07447*
X16772Y07434*
X16777Y07421*
X16785Y0741*
X16793Y07402*
X1679Y07397*
X16783*
X16772Y07394*
X16762Y07389*
X16754Y0738*
X16748Y07371*
X16745Y0736*
Y07348*
X16748Y07337*
X16754Y07327*
X16762Y07319*
X16772Y07313*
X16783Y0731*
X16794*
X16805Y07313*
X16815Y07319*
X16823Y07327*
X16829Y07337*
X16832Y07348*
Y0736*
X16829Y07371*
X16823Y0738*
X16822Y07382*
X16824Y07386*
X16831Y07385*
X16845*
X16858Y07388*
X16871Y07393*
X16882Y074*
X16892Y0741*
X16899Y07421*
X16905Y07434*
X16907Y07447*
Y07461*
X16905Y07474*
X16899Y07486*
X16892Y07498*
X16882Y07507*
X16871Y07515*
X16858Y0752*
X16845Y07523*
G37*
G36*
X16095D02*
X16081D01*
X16068Y0752*
X16056Y07515*
X16044Y07507*
X16035Y07498*
X16027Y07486*
X16022Y07474*
X16019Y07461*
Y07447*
X16022Y07434*
X16027Y07421*
X16035Y0741*
X16043Y07402*
X1604Y07397*
X16033*
X16022Y07394*
X16012Y07389*
X16004Y0738*
X15998Y07371*
X15995Y0736*
Y07348*
X15998Y07337*
X16004Y07327*
X16012Y07319*
X16022Y07313*
X16033Y0731*
X16044*
X16055Y07313*
X16065Y07319*
X16073Y07327*
X16079Y07337*
X16082Y07348*
Y0736*
X16079Y07371*
X16073Y0738*
X16072Y07382*
X16074Y07386*
X16081Y07385*
X16095*
X16108Y07388*
X16121Y07393*
X16132Y074*
X16142Y0741*
X16149Y07421*
X16155Y07434*
X16157Y07447*
Y07461*
X16155Y07474*
X16149Y07486*
X16142Y07498*
X16132Y07507*
X16121Y07515*
X16108Y0752*
X16095Y07523*
G37*
G36*
X15345D02*
X15331D01*
X15318Y0752*
X15306Y07515*
X15294Y07507*
X15285Y07498*
X15277Y07486*
X15272Y07474*
X15269Y07461*
Y07447*
X15272Y07434*
X15277Y07421*
X15285Y0741*
X15293Y07402*
X1529Y07397*
X15283*
X15272Y07394*
X15262Y07389*
X15254Y0738*
X15248Y07371*
X15245Y0736*
Y07348*
X15248Y07337*
X15254Y07327*
X15262Y07319*
X15272Y07313*
X15283Y0731*
X15294*
X15305Y07313*
X15315Y07319*
X15323Y07327*
X15329Y07337*
X15332Y07348*
Y0736*
X15329Y07371*
X15323Y0738*
X15322Y07382*
X15324Y07386*
X15331Y07385*
X15345*
X15358Y07388*
X15371Y07393*
X15382Y074*
X15392Y0741*
X15399Y07421*
X15405Y07434*
X15407Y07447*
Y07461*
X15405Y07474*
X15399Y07486*
X15392Y07498*
X15382Y07507*
X15371Y07515*
X15358Y0752*
X15345Y07523*
G37*
G36*
X1877Y07516D02*
X18756D01*
X18743Y07514*
X1873Y07508*
X18719Y07501*
X18709Y07491*
X18701Y0748*
X18696Y07467*
X18693Y07453*
Y0744*
X18696Y07426*
X18701Y07413*
X18709Y07402*
X18719Y07392*
X1873Y07385*
X18743Y07379*
X18756Y07377*
X1877*
X18784Y07379*
X18796Y07385*
X18808Y07392*
X18818Y07402*
X18825Y07413*
X1883Y07426*
X18833Y0744*
Y07453*
X1883Y07467*
X18825Y0748*
X18818Y07491*
X18808Y07501*
X18796Y07508*
X18784Y07514*
X1877Y07516*
G37*
G36*
X17944Y07397D02*
X17933D01*
X17922Y07394*
X17912Y07389*
X17904Y0738*
X17898Y07371*
X17895Y0736*
Y07348*
X17898Y07337*
X17904Y07327*
X17912Y07319*
X17922Y07313*
X17933Y0731*
X17944*
X17955Y07313*
X17965Y07319*
X17973Y07327*
X17979Y07337*
X17982Y07348*
Y0736*
X17979Y07371*
X17973Y0738*
X17965Y07389*
X17955Y07394*
X17944Y07397*
G37*
G36*
X17194D02*
X17183D01*
X17172Y07394*
X17162Y07389*
X17154Y0738*
X17148Y07371*
X17145Y0736*
Y07348*
X17148Y07337*
X17154Y07327*
X17162Y07319*
X17172Y07313*
X17183Y0731*
X17194*
X17205Y07313*
X17215Y07319*
X17223Y07327*
X17229Y07337*
X17232Y07348*
Y0736*
X17229Y07371*
X17223Y0738*
X17215Y07389*
X17205Y07394*
X17194Y07397*
G37*
G36*
X16444D02*
X16433D01*
X16422Y07394*
X16412Y07389*
X16404Y0738*
X16398Y07371*
X16395Y0736*
Y07348*
X16398Y07337*
X16404Y07327*
X16412Y07319*
X16422Y07313*
X16433Y0731*
X16444*
X16455Y07313*
X16465Y07319*
X16473Y07327*
X16479Y07337*
X16482Y07348*
Y0736*
X16479Y07371*
X16473Y0738*
X16465Y07389*
X16455Y07394*
X16444Y07397*
G37*
G36*
X15694D02*
X15683D01*
X15672Y07394*
X15662Y07389*
X15654Y0738*
X15648Y07371*
X15645Y0736*
Y07348*
X15648Y07337*
X15654Y07327*
X15662Y07319*
X15672Y07313*
X15683Y0731*
X15694*
X15705Y07313*
X15715Y07319*
X15723Y07327*
X15729Y07337*
X15732Y07348*
Y0736*
X15729Y07371*
X15723Y0738*
X15715Y07389*
X15705Y07394*
X15694Y07397*
G37*
G36*
X17747Y07442D02*
X1773D01*
X17713Y07439*
X17696Y07432*
X17682Y07422*
X1767Y0741*
X1766Y07396*
X17653Y0738*
X1765Y07363*
Y07345*
X17653Y07328*
X1766Y07312*
X1767Y07298*
X17682Y07285*
X17696Y07276*
X17713Y07269*
X1773Y07265*
X17747*
X17764Y07269*
X1778Y07276*
X17795Y07285*
X17807Y07298*
X17817Y07312*
X17823Y07328*
X17827Y07345*
Y07363*
X17823Y0738*
X17817Y07396*
X17807Y0741*
X17795Y07422*
X1778Y07432*
X17764Y07439*
X17747Y07442*
G37*
G36*
X16997D02*
X1698D01*
X16963Y07439*
X16946Y07432*
X16932Y07422*
X1692Y0741*
X1691Y07396*
X16903Y0738*
X169Y07363*
Y07345*
X16903Y07328*
X1691Y07312*
X1692Y07298*
X16932Y07285*
X16946Y07276*
X16963Y07269*
X1698Y07265*
X16997*
X17014Y07269*
X1703Y07276*
X17045Y07285*
X17057Y07298*
X17067Y07312*
X17073Y07328*
X17077Y07345*
Y07363*
X17073Y0738*
X17067Y07396*
X17057Y0741*
X17045Y07422*
X1703Y07432*
X17014Y07439*
X16997Y07442*
G37*
G36*
X16247D02*
X1623D01*
X16213Y07439*
X16196Y07432*
X16182Y07422*
X1617Y0741*
X1616Y07396*
X16153Y0738*
X1615Y07363*
Y07345*
X16153Y07328*
X1616Y07312*
X1617Y07298*
X16182Y07285*
X16196Y07276*
X16213Y07269*
X1623Y07265*
X16247*
X16264Y07269*
X1628Y07276*
X16295Y07285*
X16307Y07298*
X16317Y07312*
X16323Y07328*
X16327Y07345*
Y07363*
X16323Y0738*
X16317Y07396*
X16307Y0741*
X16295Y07422*
X1628Y07432*
X16264Y07439*
X16247Y07442*
G37*
G36*
X15497D02*
X1548D01*
X15463Y07439*
X15446Y07432*
X15432Y07422*
X1542Y0741*
X1541Y07396*
X15403Y0738*
X154Y07363*
Y07345*
X15403Y07328*
X1541Y07312*
X1542Y07298*
X15432Y07285*
X15446Y07276*
X15463Y07269*
X1548Y07265*
X15497*
X15514Y07269*
X1553Y07276*
X15545Y07285*
X15557Y07298*
X15567Y07312*
X15573Y07328*
X15577Y07345*
Y07363*
X15573Y0738*
X15567Y07396*
X15557Y0741*
X15545Y07422*
X1553Y07432*
X15514Y07439*
X15497Y07442*
G37*
G36*
X17553Y07195D02*
X17545D01*
X17537Y07193*
X1753Y07189*
X17525Y07183*
X17523Y0718*
X17498*
Y0718*
X17484Y07179*
X17469Y07174*
X17456Y07168*
X17445Y07158*
X17436Y07147*
X17429Y07134*
X17424Y0712*
X17423Y07105*
X17423*
Y07069*
X17423*
X17425Y07049*
X1743Y0703*
X1744Y07013*
X17452Y06998*
X17467Y06985*
X17485Y06976*
X17503Y0697*
X17523Y06968*
Y06969*
X17553*
Y06952*
X176*
Y07015*
X17553*
Y06999*
X17523*
X17523Y06999*
X17509Y07*
X17496Y07004*
X17484Y07011*
X17474Y07019*
X17465Y0703*
X17459Y07042*
X17455Y07055*
X17453Y07068*
X17454Y07069*
Y07105*
X17453Y07105*
X17455Y07116*
X17459Y07127*
X17467Y07137*
X17476Y07144*
X17487Y07148*
X17498Y0715*
X17498Y0715*
X17523*
X17525Y07146*
X1753Y07141*
X17537Y07137*
X17545Y07135*
X17553*
X1756Y07137*
X17567Y07141*
X17573Y07146*
X17577Y07153*
X17579Y07161*
Y07169*
X17577Y07176*
X17573Y07183*
X17567Y07189*
X1756Y07193*
X17553Y07195*
G37*
G36*
X18039Y07305D02*
X18031D01*
X18023Y07303*
X18017Y07299*
X18011Y07294*
X18007Y07287*
X18005Y07279*
Y07271*
X18007Y07264*
X18011Y07257*
X18017Y07251*
X1802Y07249*
Y07191*
X18017Y07189*
X18011Y07183*
X18007Y07176*
X18005Y07169*
Y07161*
X18007Y07153*
X18011Y07146*
X18017Y07141*
X18023Y07137*
X18031Y07135*
X18039*
X18047Y07137*
X18053Y07141*
X18059Y07146*
X18063Y07153*
X18065Y07161*
Y07169*
X18063Y07176*
X18059Y07183*
X18053Y07189*
X1805Y07191*
Y07249*
X18053Y07251*
X18059Y07257*
X18063Y07264*
X18065Y07271*
Y07279*
X18063Y07287*
X18059Y07294*
X18053Y07299*
X18047Y07303*
X18039Y07305*
G37*
G36*
X17051Y07253D02*
X16925D01*
X16921Y07252*
X16918Y0725*
X16916Y07246*
X16915Y07243*
Y07132*
X16916Y07128*
X16918Y07125*
X16921Y07123*
X16925Y07122*
X17051*
X17055Y07123*
X17058Y07125*
X17061Y07128*
X17061Y07132*
Y07243*
X17061Y07246*
X17058Y0725*
X17055Y07252*
X17051Y07253*
G37*
G36*
X16301D02*
X16175D01*
X16171Y07252*
X16168Y0725*
X16166Y07246*
X16165Y07243*
Y07132*
X16166Y07128*
X16168Y07125*
X16171Y07123*
X16175Y07122*
X16301*
X16305Y07123*
X16308Y07125*
X16311Y07128*
X16311Y07132*
Y07243*
X16311Y07246*
X16308Y0725*
X16305Y07252*
X16301Y07253*
G37*
G36*
X15551D02*
X15425D01*
X15421Y07252*
X15418Y0725*
X15416Y07246*
X15415Y07243*
Y07132*
X15416Y07128*
X15418Y07125*
X15421Y07123*
X15425Y07122*
X15551*
X15555Y07123*
X15558Y07125*
X15561Y07128*
X15561Y07132*
Y07243*
X15561Y07246*
X15558Y0725*
X15555Y07252*
X15551Y07253*
G37*
G36*
X18595Y07247D02*
X18581D01*
X18568Y07244*
X18555Y07239*
X18544Y07231*
X18534Y07222*
X18527Y0721*
X18522Y07198*
X18519Y07185*
Y07171*
X18522Y07158*
X18527Y07145*
X18534Y07134*
X18544Y07124*
X18555Y07117*
X18568Y07112*
X18581Y07109*
X18595*
X18608Y07112*
X18621Y07117*
X18632Y07124*
X18642Y07134*
X18649Y07145*
X18654Y07158*
X18657Y07171*
Y07185*
X18654Y07198*
X18649Y0721*
X18642Y07222*
X18632Y07231*
X18621Y07239*
X18608Y07244*
X18595Y07247*
G37*
G36*
X18345Y07147D02*
X18331D01*
X18318Y07144*
X18305Y07139*
X18294Y07131*
X18284Y07122*
X18277Y0711*
X18272Y07098*
X18269Y07085*
Y07071*
X18272Y07058*
X18277Y07045*
X18284Y07034*
X18292Y07026*
X1829Y07021*
X18282*
X18271Y07018*
X18261Y07013*
X18253Y07004*
X18248Y06995*
X18245Y06984*
Y06972*
X18248Y06961*
X18253Y06951*
X18261Y06943*
X18271Y06937*
X18282Y06935*
X18294*
X18305Y06937*
X18315Y06943*
X18323Y06951*
X18328Y06961*
X18331Y06972*
Y06984*
X18328Y06995*
X18323Y07004*
X18321Y07006*
X18324Y0701*
X18331Y07009*
X18345*
X18358Y07012*
X18371Y07017*
X18382Y07024*
X18392Y07034*
X18399Y07045*
X18404Y07058*
X18407Y07071*
Y07085*
X18404Y07098*
X18399Y0711*
X18392Y07122*
X18382Y07131*
X18371Y07139*
X18358Y07144*
X18345Y07147*
G37*
G36*
X17659Y07015D02*
X17638D01*
Y06986*
X17659*
Y07015*
G37*
G36*
X17633D02*
X17612D01*
Y06986*
X17633*
Y07015*
G37*
G36*
X16911D02*
X1689D01*
Y06986*
X16911*
Y07015*
G37*
G36*
X16885D02*
X16864D01*
Y06986*
X16885*
Y07015*
G37*
G36*
X16167D02*
X16146D01*
Y06986*
X16167*
Y07015*
G37*
G36*
X16141D02*
X1612D01*
Y06986*
X16141*
Y07015*
G37*
G36*
X15407D02*
X15386D01*
Y06986*
X15407*
Y07015*
G37*
G36*
X15381D02*
X1536D01*
Y06986*
X15381*
Y07015*
G37*
G36*
X17659Y06981D02*
X17638D01*
Y06952*
X17659*
Y06981*
G37*
G36*
X17633D02*
X17612D01*
Y06952*
X17633*
Y06981*
G37*
G36*
X16911D02*
X1689D01*
Y06952*
X16911*
Y06981*
G37*
G36*
X16885D02*
X16864D01*
Y06952*
X16885*
Y06981*
G37*
G36*
X16805Y07185D02*
X16797D01*
X16789Y07183*
X16782Y07179*
X16777Y07173*
X16773Y07167*
X16771Y07159*
Y07151*
X16773Y07143*
X16777Y07137*
X16782Y07131*
X16785Y07129*
Y07011*
X16785*
X16787Y07*
X16791Y0699*
X16798Y06981*
X16805Y06976*
Y06952*
X16852*
Y07015*
X16816*
Y07129*
X16819Y07131*
X16825Y07137*
X16829Y07143*
X16831Y07151*
Y07159*
X16829Y07167*
X16825Y07173*
X16819Y07179*
X16812Y07183*
X16805Y07185*
G37*
G36*
X16167Y06981D02*
X16146D01*
Y06952*
X16167*
Y06981*
G37*
G36*
X16141D02*
X1612D01*
Y06952*
X16141*
Y06981*
G37*
G36*
X16047Y07185D02*
X16039D01*
X16031Y07183*
X16024Y07179*
X16019Y07173*
X16015Y07167*
X16013Y07159*
Y07151*
X16015Y07143*
X16019Y07137*
X16024Y07131*
X16028Y07129*
Y07025*
X16027*
X16029Y0701*
X16035Y06997*
X16044Y06985*
X16056Y06976*
X1606Y06974*
Y06952*
X16108*
Y07015*
X1606*
X16059Y0702*
X16058Y07025*
X16058Y07025*
Y07129*
X16061Y07131*
X16067Y07137*
X16071Y07143*
X16073Y07151*
Y07159*
X16071Y07167*
X16067Y07173*
X16061Y07179*
X16054Y07183*
X16047Y07185*
G37*
G36*
X15407Y06981D02*
X15386D01*
Y06952*
X15407*
Y06981*
G37*
G36*
X15381D02*
X1536D01*
Y06952*
X15381*
Y06981*
G37*
G36*
X15309Y07185D02*
X15301D01*
X15293Y07183*
X15286Y07179*
X15281Y07173*
X15277Y07167*
X15275Y07159*
Y07151*
X15277Y07143*
X15281Y07137*
X15286Y07131*
X15289Y07129*
Y07004*
X15291Y06994*
X15294Y06986*
X153Y06979*
X15301Y06978*
Y06952*
X15348*
Y07015*
X1532*
Y07129*
X15323Y07131*
X15329Y07137*
X15333Y07143*
X15335Y07151*
Y07159*
X15333Y07167*
X15329Y07173*
X15323Y07179*
X15316Y07183*
X15309Y07185*
G37*
G36*
X18694Y07021D02*
X18682D01*
X18671Y07018*
X18661Y07013*
X18653Y07004*
X18648Y06995*
X18645Y06984*
Y06972*
X18648Y06961*
X18653Y06951*
X18661Y06943*
X18671Y06937*
X18682Y06935*
X18694*
X18705Y06937*
X18715Y06943*
X18723Y06951*
X18728Y06961*
X18731Y06972*
Y06984*
X18728Y06995*
X18723Y07004*
X18715Y07013*
X18705Y07018*
X18694Y07021*
G37*
G36*
X17034Y07051D02*
X1702D01*
X17006Y07048*
X16993Y07042*
X16981Y07034*
X1697Y07024*
X16963Y07012*
X16957Y06999*
X16954Y06985*
Y06971*
X16957Y06957*
X16963Y06943*
X1697Y06931*
X16981Y06921*
X16993Y06913*
X17006Y06908*
X1702Y06905*
X17034*
X17048Y06908*
X17062Y06913*
X17073Y06921*
X17084Y06931*
X17092Y06943*
X17097Y06957*
X171Y06971*
Y06985*
X17097Y06999*
X17092Y07012*
X17084Y07024*
X17073Y07034*
X17062Y07042*
X17048Y07048*
X17034Y07051*
G37*
G36*
X18497Y07066D02*
X18479D01*
X18462Y07063*
X18446Y07056*
X18432Y07046*
X18419Y07034*
X1841Y0702*
X18403Y07004*
X184Y06987*
Y06969*
X18403Y06952*
X1841Y06936*
X18419Y06922*
X18432Y06909*
X18446Y069*
X18462Y06893*
X18479Y0689*
X18497*
X18514Y06893*
X1853Y069*
X18544Y06909*
X18557Y06922*
X18566Y06936*
X18573Y06952*
X18576Y06969*
Y06987*
X18573Y07004*
X18566Y0702*
X18557Y07034*
X18544Y07046*
X1853Y07056*
X18514Y07063*
X18497Y07066*
G37*
G36*
X18551Y06875D02*
X18425D01*
X18421Y06874*
X18418Y06872*
X18416Y06869*
X18415Y06865*
Y06755*
X18416Y06751*
X18418Y06748*
X18421Y06746*
X18425Y06745*
X18551*
X18555Y06746*
X18558Y06748*
X18561Y06751*
X18561Y06755*
Y06865*
X18561Y06869*
X18558Y06872*
X18555Y06874*
X18551Y06875*
G37*
G36*
X17845Y06872D02*
X17831D01*
X17818Y06869*
X17806Y06864*
X17794Y06856*
X17785Y06847*
X17777Y06835*
X17772Y06823*
X17769Y0681*
Y06796*
X17772Y06783*
X17777Y0677*
X17785Y06759*
X17794Y06749*
X17806Y06742*
X17818Y06737*
X17831Y06734*
X17845*
X17858Y06737*
X17871Y06742*
X17882Y06749*
X17892Y06759*
X17899Y0677*
X17905Y06783*
X17907Y06796*
Y0681*
X17905Y06823*
X17899Y06835*
X17892Y06847*
X17882Y06856*
X17871Y06864*
X17858Y06869*
X17845Y06872*
G37*
G36*
X17095D02*
X17081D01*
X17068Y06869*
X17056Y06864*
X17044Y06856*
X17035Y06847*
X17027Y06835*
X17022Y06823*
X17019Y0681*
Y06796*
X17022Y06783*
X17027Y0677*
X17035Y06759*
X17044Y06749*
X17056Y06742*
X17068Y06737*
X17081Y06734*
X17095*
X17108Y06737*
X17121Y06742*
X17132Y06749*
X17142Y06759*
X17149Y0677*
X17155Y06783*
X17157Y06796*
Y0681*
X17155Y06823*
X17149Y06835*
X17142Y06847*
X17132Y06856*
X17121Y06864*
X17108Y06869*
X17095Y06872*
G37*
G36*
X16345D02*
X16331D01*
X16318Y06869*
X16306Y06864*
X16294Y06856*
X16285Y06847*
X16277Y06835*
X16272Y06823*
X16269Y0681*
Y06796*
X16272Y06783*
X16277Y0677*
X16285Y06759*
X16294Y06749*
X16306Y06742*
X16318Y06737*
X16331Y06734*
X16345*
X16358Y06737*
X16371Y06742*
X16382Y06749*
X16392Y06759*
X16399Y0677*
X16405Y06783*
X16407Y06796*
Y0681*
X16405Y06823*
X16399Y06835*
X16392Y06847*
X16382Y06856*
X16371Y06864*
X16358Y06869*
X16345Y06872*
G37*
G36*
X15595D02*
X15581D01*
X15568Y06869*
X15556Y06864*
X15544Y06856*
X15535Y06847*
X15527Y06835*
X15522Y06823*
X15519Y0681*
Y06796*
X15522Y06783*
X15527Y0677*
X15535Y06759*
X15544Y06749*
X15556Y06742*
X15568Y06737*
X15581Y06734*
X15595*
X15608Y06737*
X15621Y06742*
X15632Y06749*
X15642Y06759*
X15649Y0677*
X15655Y06783*
X15657Y06796*
Y0681*
X15655Y06823*
X15649Y06835*
X15642Y06847*
X15632Y06856*
X15621Y06864*
X15608Y06869*
X15595Y06872*
G37*
G36*
X18596Y06752D02*
X18588D01*
X1858Y0675*
X18574Y06746*
X18568Y0674*
X18564Y06734*
X18562Y06726*
Y06718*
X18564Y0671*
X18568Y06704*
X18574Y06698*
X18574Y06692*
X18573Y06691*
X1857Y06689*
X18565Y06688*
X18565Y06688*
X18124*
Y06688*
X18106Y06687*
X18088Y06682*
X18072Y06676*
X18056Y06666*
X18042Y06654*
X18031Y06641*
X18021Y06625*
X18014Y06608*
X1801Y06591*
X18009Y06573*
X18009*
Y06436*
X18009Y06436*
X18007Y06428*
X18003Y06421*
X17996Y06417*
X17988Y06415*
X17987Y06415*
X1797*
X17968Y06418*
X17963Y06424*
X17956Y06428*
X17948Y0643*
X1794*
X17933Y06428*
X17926Y06424*
X1792Y06418*
X17916Y06411*
X17914Y06404*
Y06396*
X17916Y06388*
X1792Y06381*
X17926Y06376*
X17933Y06372*
X1794Y0637*
X17948*
X17956Y06372*
X17963Y06376*
X17968Y06381*
X1797Y06385*
X17987*
Y06384*
X18001Y06386*
X18013Y06391*
X18024Y064*
X18032Y0641*
X18038Y06423*
X18039Y06436*
X18039*
Y06573*
X18039Y06573*
X18041Y06589*
X18046Y06605*
X18053Y0662*
X18064Y06633*
X18077Y06643*
X18091Y06651*
X18107Y06656*
X18123Y06658*
X18124Y06657*
X18565*
Y06657*
X18576Y06659*
X18586Y06663*
X18595Y0667*
X18602Y06678*
X18606Y06689*
X18607Y06696*
X1861Y06698*
X18616Y06704*
X1862Y0671*
X18622Y06718*
Y06726*
X1862Y06734*
X18616Y0674*
X1861Y06746*
X18604Y0675*
X18596Y06752*
G37*
G36*
X17595Y06772D02*
X17581D01*
X17568Y06769*
X17556Y06764*
X17544Y06756*
X17535Y06747*
X17527Y06735*
X17522Y06723*
X17519Y0671*
Y06696*
X17522Y06683*
X17527Y0667*
X17535Y06659*
X17543Y06651*
X1754Y06646*
X17533*
X17522Y06643*
X17512Y06638*
X17504Y06629*
X17498Y0662*
X17495Y06609*
Y06597*
X17498Y06586*
X17504Y06576*
X17512Y06568*
X17522Y06562*
X17533Y0656*
X17544*
X17555Y06562*
X17565Y06568*
X17573Y06576*
X17579Y06586*
X17582Y06597*
Y06609*
X17579Y0662*
X17573Y06629*
X17572Y06631*
X17574Y06635*
X17581Y06634*
X17595*
X17608Y06637*
X17621Y06642*
X17632Y06649*
X17642Y06659*
X17649Y0667*
X17655Y06683*
X17657Y06696*
Y0671*
X17655Y06723*
X17649Y06735*
X17642Y06747*
X17632Y06756*
X17621Y06764*
X17608Y06769*
X17595Y06772*
G37*
G36*
X16845D02*
X16831D01*
X16818Y06769*
X16806Y06764*
X16794Y06756*
X16785Y06747*
X16777Y06735*
X16772Y06723*
X16769Y0671*
Y06696*
X16772Y06683*
X16777Y0667*
X16785Y06659*
X16793Y06651*
X1679Y06646*
X16783*
X16772Y06643*
X16762Y06638*
X16754Y06629*
X16748Y0662*
X16745Y06609*
Y06597*
X16748Y06586*
X16754Y06576*
X16762Y06568*
X16772Y06562*
X16783Y0656*
X16794*
X16805Y06562*
X16815Y06568*
X16823Y06576*
X16829Y06586*
X16832Y06597*
Y06609*
X16829Y0662*
X16823Y06629*
X16822Y06631*
X16824Y06635*
X16831Y06634*
X16845*
X16858Y06637*
X16871Y06642*
X16882Y06649*
X16892Y06659*
X16899Y0667*
X16905Y06683*
X16907Y06696*
Y0671*
X16905Y06723*
X16899Y06735*
X16892Y06747*
X16882Y06756*
X16871Y06764*
X16858Y06769*
X16845Y06772*
G37*
G36*
X16095D02*
X16081D01*
X16068Y06769*
X16056Y06764*
X16044Y06756*
X16035Y06747*
X16027Y06735*
X16022Y06723*
X16019Y0671*
Y06696*
X16022Y06683*
X16027Y0667*
X16035Y06659*
X16043Y06651*
X1604Y06646*
X16033*
X16022Y06643*
X16012Y06638*
X16004Y06629*
X15998Y0662*
X15995Y06609*
Y06597*
X15998Y06586*
X16004Y06576*
X16012Y06568*
X16022Y06562*
X16033Y0656*
X16044*
X16055Y06562*
X16065Y06568*
X16073Y06576*
X16079Y06586*
X16082Y06597*
Y06609*
X16079Y0662*
X16073Y06629*
X16072Y06631*
X16074Y06635*
X16081Y06634*
X16095*
X16108Y06637*
X16121Y06642*
X16132Y06649*
X16142Y06659*
X16149Y0667*
X16155Y06683*
X16157Y06696*
Y0671*
X16155Y06723*
X16149Y06735*
X16142Y06747*
X16132Y06756*
X16121Y06764*
X16108Y06769*
X16095Y06772*
G37*
G36*
X15345D02*
X15331D01*
X15318Y06769*
X15306Y06764*
X15294Y06756*
X15285Y06747*
X15277Y06735*
X15272Y06723*
X15269Y0671*
Y06696*
X15272Y06683*
X15277Y0667*
X15285Y06659*
X15293Y06651*
X1529Y06646*
X15283*
X15272Y06643*
X15262Y06638*
X15254Y06629*
X15248Y0662*
X15245Y06609*
Y06597*
X15248Y06586*
X15254Y06576*
X15262Y06568*
X15272Y06562*
X15283Y0656*
X15294*
X15305Y06562*
X15315Y06568*
X15323Y06576*
X15329Y06586*
X15332Y06597*
Y06609*
X15329Y0662*
X15323Y06629*
X15322Y06631*
X15324Y06635*
X15331Y06634*
X15345*
X15358Y06637*
X15371Y06642*
X15382Y06649*
X15392Y06659*
X15399Y0667*
X15405Y06683*
X15407Y06696*
Y0671*
X15405Y06723*
X15399Y06735*
X15392Y06747*
X15382Y06756*
X15371Y06764*
X15358Y06769*
X15345Y06772*
G37*
G36*
X17944Y06646D02*
X17933D01*
X17922Y06643*
X17912Y06638*
X17904Y06629*
X17898Y0662*
X17895Y06609*
Y06597*
X17898Y06586*
X17904Y06576*
X17912Y06568*
X17922Y06562*
X17933Y0656*
X17944*
X17955Y06562*
X17965Y06568*
X17973Y06576*
X17979Y06586*
X17982Y06597*
Y06609*
X17979Y0662*
X17973Y06629*
X17965Y06638*
X17955Y06643*
X17944Y06646*
G37*
G36*
X17194D02*
X17183D01*
X17172Y06643*
X17162Y06638*
X17154Y06629*
X17148Y0662*
X17145Y06609*
Y06597*
X17148Y06586*
X17154Y06576*
X17162Y06568*
X17172Y06562*
X17183Y0656*
X17194*
X17205Y06562*
X17215Y06568*
X17223Y06576*
X17229Y06586*
X17232Y06597*
Y06609*
X17229Y0662*
X17223Y06629*
X17215Y06638*
X17205Y06643*
X17194Y06646*
G37*
G36*
X16444D02*
X16433D01*
X16422Y06643*
X16412Y06638*
X16404Y06629*
X16398Y0662*
X16395Y06609*
Y06597*
X16398Y06586*
X16404Y06576*
X16412Y06568*
X16422Y06562*
X16433Y0656*
X16444*
X16455Y06562*
X16465Y06568*
X16473Y06576*
X16479Y06586*
X16482Y06597*
Y06609*
X16479Y0662*
X16473Y06629*
X16465Y06638*
X16455Y06643*
X16444Y06646*
G37*
G36*
X15694D02*
X15683D01*
X15672Y06643*
X15662Y06638*
X15654Y06629*
X15648Y0662*
X15645Y06609*
Y06597*
X15648Y06586*
X15654Y06576*
X15662Y06568*
X15672Y06562*
X15683Y0656*
X15694*
X15705Y06562*
X15715Y06568*
X15723Y06576*
X15729Y06586*
X15732Y06597*
Y06609*
X15729Y0662*
X15723Y06629*
X15715Y06638*
X15705Y06643*
X15694Y06646*
G37*
G36*
X16997Y06691D02*
X1698D01*
X16963Y06688*
X16946Y06681*
X16932Y06671*
X1692Y06659*
X1691Y06645*
X16903Y06629*
X169Y06612*
Y06594*
X16903Y06577*
X1691Y06561*
X1692Y06547*
X16932Y06534*
X16946Y06525*
X16963Y06518*
X1698Y06515*
X16997*
X17014Y06518*
X1703Y06525*
X17045Y06534*
X17057Y06547*
X17067Y06561*
X17073Y06577*
X17077Y06594*
Y06612*
X17073Y06629*
X17067Y06645*
X17057Y06659*
X17045Y06671*
X1703Y06681*
X17014Y06688*
X16997Y06691*
G37*
G36*
X16247D02*
X1623D01*
X16213Y06688*
X16196Y06681*
X16182Y06671*
X1617Y06659*
X1616Y06645*
X16153Y06629*
X1615Y06612*
Y06594*
X16153Y06577*
X1616Y06561*
X1617Y06547*
X16182Y06534*
X16196Y06525*
X16213Y06518*
X1623Y06515*
X16247*
X16264Y06518*
X1628Y06525*
X16295Y06534*
X16307Y06547*
X16317Y06561*
X16323Y06577*
X16327Y06594*
Y06612*
X16323Y06629*
X16317Y06645*
X16307Y06659*
X16295Y06671*
X1628Y06681*
X16264Y06688*
X16247Y06691*
G37*
G36*
X15497D02*
X1548D01*
X15463Y06688*
X15446Y06681*
X15432Y06671*
X1542Y06659*
X1541Y06645*
X15403Y06629*
X154Y06612*
Y06594*
X15403Y06577*
X1541Y06561*
X1542Y06547*
X15432Y06534*
X15446Y06525*
X15463Y06518*
X1548Y06515*
X15497*
X15514Y06518*
X1553Y06525*
X15545Y06534*
X15557Y06547*
X15567Y06561*
X15573Y06577*
X15577Y06594*
Y06612*
X15573Y06629*
X15567Y06645*
X15557Y06659*
X15545Y06671*
X1553Y06681*
X15514Y06688*
X15497Y06691*
G37*
G36*
X17948Y06497D02*
X1794D01*
X17933Y06495*
X17926Y06491*
X1792Y06485*
X17916Y06479*
X17915Y06475*
X17907Y06471*
X17897Y06463*
X17889Y06453*
X17883Y06441*
X17879Y06429*
X17878Y06416*
X17878*
Y06354*
X17878*
X17879Y06341*
X17883Y06328*
X17889Y06317*
X17897Y06307*
X17907Y06299*
X17919Y06293*
X17931Y06289*
X17944Y06288*
X17949Y06287*
X1795Y06287*
X17954Y06283*
X17957Y06279*
X17958Y06273*
X17958Y06273*
Y06264*
X1795*
Y06201*
X17997*
Y06264*
X17989*
Y06273*
X17989*
X17988Y06285*
X17983Y06296*
X17976Y06305*
X17967Y06312*
X17956Y06317*
X17944Y06318*
X17939Y06319*
X17935Y06319*
X17926Y06323*
X17919Y06329*
X17913Y06336*
X1791Y06345*
X17908Y06353*
X17908Y06354*
Y06416*
X17908Y06416*
X1791Y06425*
X17913Y06434*
X17919Y06441*
X17924Y06445*
X17926Y06443*
X17933Y06439*
X1794Y06437*
X17948*
X17956Y06439*
X17963Y06443*
X17968Y06449*
X17972Y06455*
X17974Y06463*
Y06471*
X17972Y06479*
X17968Y06485*
X17963Y06491*
X17956Y06495*
X17948Y06497*
G37*
G36*
X1877Y06576D02*
X18756D01*
X18743Y06574*
X1873Y06568*
X18719Y06561*
X18709Y06551*
X18701Y0654*
X18696Y06527*
X18693Y06513*
Y065*
X18696Y06486*
X18701Y06473*
X18709Y06462*
X18719Y06452*
X1873Y06445*
X18743Y06439*
X18756Y06437*
X1877*
X18784Y06439*
X18796Y06445*
X18808Y06452*
X18818Y06462*
X18825Y06473*
X1883Y06486*
X18833Y065*
Y06513*
X1883Y06527*
X18825Y0654*
X18818Y06551*
X18808Y06561*
X18796Y06568*
X18784Y06574*
X1877Y06576*
G37*
G36*
X15192Y07188D02*
X15184D01*
X15177Y07186*
X1517Y07182*
X15164Y07176*
X1516Y07169*
X15158Y07162*
Y07154*
X1516Y07146*
X15164Y07139*
X1517Y07134*
X15173Y07132*
Y06566*
X15173*
X15174Y06548*
X15179Y0653*
X15186Y06514*
X15195Y06498*
X15207Y06484*
X1522Y06473*
X15236Y06463*
X15253Y06456*
X15268Y06453*
X15271Y06448*
X15276Y06442*
X15283Y06438*
X15291Y06436*
X15299*
X15306Y06438*
X15313Y06442*
X15319Y06448*
X15323Y06454*
X15325Y06462*
Y0647*
X15323Y06478*
X15319Y06484*
X15313Y0649*
X15306Y06494*
X15299Y06496*
X15291*
X15283Y06494*
X15276Y0649*
X15271Y06484*
X1527Y06483*
X15256Y06488*
X15241Y06495*
X15228Y06506*
X15218Y06519*
X1521Y06534*
X15205Y06549*
X15203Y06565*
X15204Y06566*
Y07132*
X15207Y07134*
X15212Y07139*
X15216Y07146*
X15218Y07154*
Y07162*
X15216Y07169*
X15212Y07176*
X15207Y07182*
X152Y07186*
X15192Y07188*
G37*
G36*
X18172Y06595D02*
X18155D01*
X18138Y06592*
X18121Y06585*
X18107Y06575*
X18095Y06563*
X18085Y06548*
X18078Y06532*
X18075Y06515*
Y06498*
X18078Y06481*
X18085Y06465*
X18095Y0645*
X18107Y06438*
X18121Y06428*
X18138Y06422*
X18155Y06418*
X18172*
X18189Y06422*
X18205Y06428*
X1822Y06438*
X18232Y0645*
X18242Y06465*
X18248Y06481*
X18252Y06498*
Y06515*
X18248Y06532*
X18242Y06548*
X18232Y06563*
X1822Y06575*
X18205Y06585*
X18189Y06592*
X18172Y06595*
G37*
G36*
X17801Y06502D02*
X17675D01*
X17671Y06501*
X17668Y06499*
X17666Y06495*
X17665Y06492*
Y06381*
X17666Y06377*
X17668Y06374*
X17671Y06372*
X17675Y06371*
X17801*
X17805Y06372*
X17808Y06374*
X17811Y06377*
X17811Y06381*
Y06492*
X17811Y06495*
X17808Y06499*
X17805Y06501*
X17801Y06502*
G37*
G36*
X17051D02*
X16925D01*
X16921Y06501*
X16918Y06499*
X16916Y06495*
X16915Y06492*
Y06381*
X16916Y06377*
X16918Y06374*
X16921Y06372*
X16925Y06371*
X17051*
X17055Y06372*
X17058Y06374*
X17061Y06377*
X17061Y06381*
Y06492*
X17061Y06495*
X17058Y06499*
X17055Y06501*
X17051Y06502*
G37*
G36*
X16301D02*
X16175D01*
X16171Y06501*
X16168Y06499*
X16166Y06495*
X16165Y06492*
Y06381*
X16166Y06377*
X16168Y06374*
X16171Y06372*
X16175Y06371*
X16301*
X16305Y06372*
X16308Y06374*
X16311Y06377*
X16311Y06381*
Y06492*
X16311Y06495*
X16308Y06499*
X16305Y06501*
X16301Y06502*
G37*
G36*
X15551D02*
X15425D01*
X15421Y06501*
X15418Y06499*
X15416Y06495*
X15415Y06492*
Y06381*
X15416Y06377*
X15418Y06374*
X15421Y06372*
X15425Y06371*
X15551*
X15555Y06372*
X15558Y06374*
X15561Y06377*
X15561Y06381*
Y06492*
X15561Y06495*
X15558Y06499*
X15555Y06501*
X15551Y06502*
G37*
G36*
X17553Y06427D02*
X17545D01*
X17537Y06425*
X1753Y06421*
X17525Y06416*
X17521Y06409*
X17519Y06401*
Y06393*
X17521Y06386*
X17525Y06379*
X1753Y06373*
X17533Y06371*
Y06325*
X1753Y06323*
X17525Y06317*
X17521Y0631*
X17519Y06303*
Y06295*
X17521Y06287*
X17525Y0628*
X1753Y06275*
X17537Y06271*
X17545Y06269*
X17553*
X1756Y06271*
X17567Y06275*
X17573Y0628*
X17577Y06287*
X17579Y06295*
Y06303*
X17577Y0631*
X17573Y06317*
X17567Y06323*
X17564Y06325*
Y06371*
X17567Y06373*
X17573Y06379*
X17577Y06386*
X17579Y06393*
Y06401*
X17577Y06409*
X17573Y06416*
X17567Y06421*
X1756Y06425*
X17553Y06427*
G37*
G36*
X16805D02*
X16797D01*
X16789Y06425*
X16782Y06421*
X16777Y06416*
X16773Y06409*
X16771Y06401*
Y06393*
X16773Y06386*
X16777Y06379*
X16782Y06373*
X16785Y06371*
Y06325*
X16782Y06323*
X16777Y06317*
X16773Y0631*
X16771Y06303*
Y06295*
X16773Y06287*
X16777Y0628*
X16782Y06275*
X16789Y06271*
X16797Y06269*
X16805*
X16812Y06271*
X16819Y06275*
X16825Y0628*
X16829Y06287*
X16831Y06295*
Y06303*
X16829Y0631*
X16825Y06317*
X16819Y06323*
X16816Y06325*
Y06371*
X16819Y06373*
X16825Y06379*
X16829Y06386*
X16831Y06393*
Y06401*
X16829Y06409*
X16825Y06416*
X16819Y06421*
X16812Y06425*
X16805Y06427*
G37*
G36*
X16057D02*
X16049D01*
X16041Y06425*
X16034Y06421*
X16029Y06416*
X16025Y06409*
X16023Y06401*
Y06393*
X16025Y06386*
X16029Y06379*
X16034Y06373*
X16037Y06371*
Y06325*
X16034Y06323*
X16029Y06317*
X16025Y0631*
X16023Y06303*
Y06295*
X16025Y06287*
X16029Y0628*
X16034Y06275*
X16041Y06271*
X16049Y06269*
X16057*
X16064Y06271*
X16071Y06275*
X16077Y0628*
X16081Y06287*
X16083Y06295*
Y06303*
X16081Y0631*
X16077Y06317*
X16071Y06323*
X16068Y06325*
Y06371*
X16071Y06373*
X16077Y06379*
X16081Y06386*
X16083Y06393*
Y06401*
X16081Y06409*
X16077Y06416*
X16071Y06421*
X16064Y06425*
X16057Y06427*
G37*
G36*
X15299D02*
X15291D01*
X15283Y06425*
X15276Y06421*
X15271Y06416*
X15267Y06409*
X15265Y06401*
Y06393*
X15267Y06386*
X15271Y06379*
X15276Y06373*
X15279Y06371*
Y06325*
X15276Y06323*
X15271Y06317*
X15267Y0631*
X15265Y06303*
Y06295*
X15267Y06287*
X15271Y0628*
X15276Y06275*
X15283Y06271*
X15291Y06269*
X15299*
X15306Y06271*
X15313Y06275*
X15319Y0628*
X15323Y06287*
X15325Y06295*
Y06303*
X15323Y0631*
X15319Y06317*
X15313Y06323*
X1531Y06325*
Y06371*
X15313Y06373*
X15319Y06379*
X15323Y06386*
X15325Y06393*
Y06401*
X15323Y06409*
X15319Y06416*
X15313Y06421*
X15306Y06425*
X15299Y06427*
G37*
G36*
X17938Y06264D02*
X17917D01*
Y06235*
X17938*
Y06264*
G37*
G36*
X17187D02*
X17166D01*
Y06235*
X17187*
Y06264*
G37*
G36*
X15689D02*
X15667D01*
Y06235*
X15689*
Y06264*
G37*
G36*
X16439D02*
X16417D01*
Y06235*
X16439*
Y06264*
G37*
G36*
X16412D02*
X16391D01*
Y06235*
X16412*
Y06264*
G37*
G36*
X15662D02*
X15641D01*
Y06235*
X15662*
Y06264*
G37*
G36*
X17161D02*
X1714D01*
Y06235*
X17161*
Y06264*
G37*
G36*
X17912D02*
X17891D01*
Y06235*
X17912*
Y06264*
G37*
G36*
X17938Y0623D02*
X17917D01*
Y06201*
X17938*
Y0623*
G37*
G36*
X17912D02*
X17891D01*
Y06201*
X17912*
Y0623*
G37*
G36*
X17179Y06496D02*
X17171D01*
X17163Y06494*
X17156Y0649*
X17151Y06484*
X17147Y06478*
X17145Y0647*
Y06462*
X17147Y06454*
X17151Y06448*
X17156Y06442*
X17163Y06438*
X17171Y06436*
X17179*
X17186Y06438*
X17193Y06442*
X17193Y06442*
X17198Y06441*
X17203Y06434*
X17206Y06426*
X17208Y06418*
X17208Y06418*
Y06264*
X17199*
Y06201*
X17247*
Y06264*
X17238*
Y06418*
X17238*
X17237Y0643*
X17233Y06442*
X17227Y06453*
X1722Y06463*
X1721Y06471*
X17204Y06474*
X17203Y06478*
X17199Y06484*
X17193Y0649*
X17186Y06494*
X17179Y06496*
G37*
G36*
X17187Y0623D02*
X17166D01*
Y06201*
X17187*
Y0623*
G37*
G36*
X17161D02*
X1714D01*
Y06201*
X17161*
Y0623*
G37*
G36*
X16421Y06496D02*
X16413D01*
X16405Y06494*
X16398Y0649*
X16393Y06484*
X16389Y06478*
X16387Y0647*
Y06462*
X16389Y06454*
X16393Y06448*
X16398Y06442*
X16405Y06438*
X16413Y06436*
X16421*
X16428Y06438*
X16435Y06442*
X16438Y06445*
X16446Y06439*
X16453Y0643*
X16457Y0642*
X16459Y06409*
X16459Y06409*
Y06264*
X1645*
Y06201*
X16498*
Y06264*
X16489*
Y06409*
X16489*
X16488Y06423*
X16484Y06437*
X16477Y06449*
X16468Y0646*
X16457Y06469*
X16445Y06475*
X16445Y06478*
X16441Y06484*
X16435Y0649*
X16428Y06494*
X16421Y06496*
G37*
G36*
X16439Y0623D02*
X16417D01*
Y06201*
X16439*
Y0623*
G37*
G36*
X16412D02*
X16391D01*
Y06201*
X16412*
Y0623*
G37*
G36*
X15683Y06496D02*
X15675D01*
X15667Y06494*
X1566Y0649*
X15655Y06484*
X15651Y06478*
X15649Y0647*
Y06462*
X15651Y06454*
X15655Y06448*
X1566Y06442*
X15667Y06438*
X15675Y06436*
X15683*
X1569Y06438*
X15697Y06442*
X15702Y0644*
X15705Y06436*
X15708Y06429*
X15709Y06421*
X15709Y06421*
Y06264*
X157*
Y06201*
X15748*
Y06264*
X15739*
Y06421*
Y06421*
X15738Y06433*
X15735Y06444*
X15729Y06454*
X15721Y06464*
X15712Y06471*
X15708Y06474*
X15707Y06478*
X15703Y06484*
X15697Y0649*
X1569Y06494*
X15683Y06496*
G37*
G36*
X15689Y0623D02*
X15667D01*
Y06201*
X15689*
Y0623*
G37*
G36*
X15662D02*
X15641D01*
Y06201*
X15662*
Y0623*
G37*
G36*
X15522Y06305D02*
X15508D01*
X15494Y06302*
X15481Y06296*
X15469Y06288*
X15459Y06278*
X15451Y06266*
X15445Y06253*
X15442Y06239*
Y06225*
X15445Y06211*
X15451Y06197*
X15459Y06185*
X15469Y06175*
X15481Y06167*
X15494Y06162*
X15508Y06159*
X15522*
X15536Y06162*
X1555Y06167*
X15562Y06175*
X15572Y06185*
X1558Y06197*
X15585Y06211*
X15588Y06225*
Y06239*
X15585Y06253*
X1558Y06266*
X15572Y06278*
X15562Y06288*
X1555Y06296*
X15536Y06302*
X15522Y06305*
G37*
G36*
X17845Y06123D02*
X17831D01*
X17818Y06121*
X17806Y06115*
X17794Y06108*
X17785Y06098*
X17777Y06087*
X17772Y06075*
X17769Y06061*
Y06048*
X17772Y06034*
X17777Y06022*
X17785Y06011*
X17794Y06001*
X17806Y05993*
X17818Y05988*
X17831Y05986*
X17845*
X17858Y05988*
X17871Y05993*
X17882Y06001*
X17892Y06011*
X17899Y06022*
X17905Y06034*
X17907Y06048*
Y06061*
X17905Y06075*
X17899Y06087*
X17892Y06098*
X17882Y06108*
X17871Y06115*
X17858Y06121*
X17845Y06123*
G37*
G36*
X17095Y06123D02*
X17081D01*
X17068Y0612*
X17056Y06115*
X17044Y06107*
X17035Y06098*
X17027Y06086*
X17022Y06074*
X17019Y06061*
Y06047*
X17022Y06034*
X17027Y06021*
X17035Y0601*
X17044Y06*
X17056Y05993*
X17068Y05988*
X17081Y05985*
X17095*
X17108Y05988*
X17121Y05993*
X17132Y06*
X17142Y0601*
X17149Y06021*
X17155Y06034*
X17157Y06047*
Y06061*
X17155Y06074*
X17149Y06086*
X17142Y06098*
X17132Y06107*
X17121Y06115*
X17108Y0612*
X17095Y06123*
G37*
G36*
X16345D02*
X16331D01*
X16318Y0612*
X16306Y06115*
X16294Y06107*
X16285Y06098*
X16277Y06086*
X16272Y06074*
X16269Y06061*
Y06047*
X16272Y06034*
X16277Y06021*
X16285Y0601*
X16294Y06*
X16306Y05993*
X16318Y05988*
X16331Y05985*
X16345*
X16358Y05988*
X16371Y05993*
X16382Y06*
X16392Y0601*
X16399Y06021*
X16405Y06034*
X16407Y06047*
Y06061*
X16405Y06074*
X16399Y06086*
X16392Y06098*
X16382Y06107*
X16371Y06115*
X16358Y0612*
X16345Y06123*
G37*
G36*
X15595D02*
X15581D01*
X15568Y0612*
X15556Y06115*
X15544Y06107*
X15535Y06098*
X15527Y06086*
X15522Y06074*
X15519Y06061*
Y06047*
X15522Y06034*
X15527Y06021*
X15535Y0601*
X15544Y06*
X15556Y05993*
X15568Y05988*
X15581Y05985*
X15595*
X15608Y05988*
X15621Y05993*
X15632Y06*
X15642Y0601*
X15649Y06021*
X15655Y06034*
X15657Y06047*
Y06061*
X15655Y06074*
X15649Y06086*
X15642Y06098*
X15632Y06107*
X15621Y06115*
X15608Y0612*
X15595Y06123*
G37*
G36*
X17595Y06023D02*
X17581D01*
X17568Y06021*
X17556Y06015*
X17544Y06008*
X17535Y05998*
X17527Y05987*
X17522Y05975*
X17519Y05961*
Y05948*
X17522Y05934*
X17527Y05922*
X17535Y05911*
X17543Y05903*
X1754Y05898*
X17533*
X17522Y05895*
X17512Y05889*
X17504Y05881*
X17498Y05871*
X17495Y0586*
Y05849*
X17498Y05838*
X17504Y05828*
X17512Y0582*
X17522Y05814*
X17533Y05811*
X17544*
X17555Y05814*
X17565Y0582*
X17573Y05828*
X17579Y05838*
X17582Y05849*
Y0586*
X17579Y05871*
X17573Y05881*
X17572Y05882*
X17574Y05887*
X17581Y05886*
X17595*
X17608Y05888*
X17621Y05893*
X17632Y05901*
X17642Y05911*
X17649Y05922*
X17655Y05934*
X17657Y05948*
Y05961*
X17655Y05975*
X17649Y05987*
X17642Y05998*
X17632Y06008*
X17621Y06015*
X17608Y06021*
X17595Y06023*
G37*
G36*
X16845Y06023D02*
X16831D01*
X16818Y0602*
X16806Y06015*
X16794Y06007*
X16785Y05998*
X16777Y05986*
X16772Y05974*
X16769Y05961*
Y05947*
X16772Y05934*
X16777Y05921*
X16785Y0591*
X16793Y05902*
X1679Y05897*
X16783*
X16772Y05894*
X16762Y05889*
X16754Y0588*
X16748Y05871*
X16745Y0586*
Y05848*
X16748Y05837*
X16754Y05827*
X16762Y05819*
X16772Y05813*
X16783Y0581*
X16794*
X16805Y05813*
X16815Y05819*
X16823Y05827*
X16829Y05837*
X16832Y05848*
Y0586*
X16829Y05871*
X16823Y0588*
X16822Y05882*
X16824Y05886*
X16831Y05885*
X16845*
X16858Y05888*
X16871Y05893*
X16882Y059*
X16892Y0591*
X16899Y05921*
X16905Y05934*
X16907Y05947*
Y05961*
X16905Y05974*
X16899Y05986*
X16892Y05998*
X16882Y06007*
X16871Y06015*
X16858Y0602*
X16845Y06023*
G37*
G36*
X16095D02*
X16081D01*
X16068Y0602*
X16056Y06015*
X16044Y06007*
X16035Y05998*
X16027Y05986*
X16022Y05974*
X16019Y05961*
Y05947*
X16022Y05934*
X16027Y05921*
X16035Y0591*
X16043Y05902*
X1604Y05897*
X16033*
X16022Y05894*
X16012Y05889*
X16004Y0588*
X15998Y05871*
X15995Y0586*
Y05848*
X15998Y05837*
X16004Y05827*
X16012Y05819*
X16022Y05813*
X16033Y0581*
X16044*
X16055Y05813*
X16065Y05819*
X16073Y05827*
X16079Y05837*
X16082Y05848*
Y0586*
X16079Y05871*
X16073Y0588*
X16072Y05882*
X16074Y05886*
X16081Y05885*
X16095*
X16108Y05888*
X16121Y05893*
X16132Y059*
X16142Y0591*
X16149Y05921*
X16155Y05934*
X16157Y05947*
Y05961*
X16155Y05974*
X16149Y05986*
X16142Y05998*
X16132Y06007*
X16121Y06015*
X16108Y0602*
X16095Y06023*
G37*
G36*
X15345D02*
X15331D01*
X15318Y0602*
X15306Y06015*
X15294Y06007*
X15285Y05998*
X15277Y05986*
X15272Y05974*
X15269Y05961*
Y05947*
X15272Y05934*
X15277Y05921*
X15285Y0591*
X15293Y05902*
X1529Y05897*
X15283*
X15272Y05894*
X15262Y05889*
X15254Y0588*
X15248Y05871*
X15245Y0586*
Y05848*
X15248Y05837*
X15254Y05827*
X15262Y05819*
X15272Y05813*
X15283Y0581*
X15294*
X15305Y05813*
X15315Y05819*
X15323Y05827*
X15329Y05837*
X15332Y05848*
Y0586*
X15329Y05871*
X15323Y0588*
X15322Y05882*
X15324Y05886*
X15331Y05885*
X15345*
X15358Y05888*
X15371Y05893*
X15382Y059*
X15392Y0591*
X15399Y05921*
X15405Y05934*
X15407Y05947*
Y05961*
X15405Y05974*
X15399Y05986*
X15392Y05998*
X15382Y06007*
X15371Y06015*
X15358Y0602*
X15345Y06023*
G37*
G36*
X1877Y06016D02*
X18756D01*
X18743Y06014*
X1873Y06008*
X18719Y06001*
X18709Y05991*
X18701Y0598*
X18696Y05967*
X18693Y05953*
Y0594*
X18696Y05926*
X18701Y05913*
X18709Y05902*
X18719Y05892*
X1873Y05885*
X18743Y05879*
X18756Y05877*
X1877*
X18784Y05879*
X18796Y05885*
X18808Y05892*
X18818Y05902*
X18825Y05913*
X1883Y05926*
X18833Y0594*
Y05953*
X1883Y05967*
X18825Y0598*
X18818Y05991*
X18808Y06001*
X18796Y06008*
X18784Y06014*
X1877Y06016*
G37*
G36*
X17747Y06691D02*
X1773D01*
X17713Y06688*
X17696Y06681*
X17682Y06671*
X1767Y06659*
X1766Y06645*
X17653Y06629*
X1765Y06612*
Y06594*
X17653Y06577*
X1766Y06561*
X1767Y06547*
X17682Y06534*
X17696Y06525*
X17713Y06518*
X1773Y06515*
X17747*
X17764Y06518*
X1778Y06525*
X17795Y06534*
X17807Y06547*
X17817Y06561*
X17819Y06567*
X17824Y06566*
Y06559*
X17826Y06551*
X1783Y06544*
X17835Y06538*
X17839Y06537*
Y062*
X17839*
X1784Y06188*
X17843Y06176*
X17849Y06166*
X17857Y06156*
X17866Y06148*
X17877Y06143*
X17889Y06139*
X17901Y06138*
Y06138*
X17962*
X17964Y06135*
X17969Y06129*
X17976Y06125*
X17984Y06123*
X17992*
X17999Y06125*
X18006Y06129*
X1801Y06133*
X18016Y06131*
X18027Y06122*
X18036Y0611*
X18042Y06097*
X18043Y06083*
X18043Y06082*
Y05435*
X1804Y05433*
X18035Y05427*
X18031Y05421*
X1803Y05417*
X18024*
X18024Y05421*
X1802Y05427*
X18014Y05433*
X18007Y05437*
X18Y05439*
X17992*
X17984Y05437*
X17977Y05433*
X17972Y05427*
X17968Y05421*
X17966Y05413*
Y05405*
X17968Y05397*
X17972Y05391*
X17977Y05385*
X1798Y05383*
Y053*
X1798*
X17982Y05282*
X17986Y05265*
X17993Y05248*
X18002Y05232*
X18014Y05219*
X18028Y05207*
X18043Y05198*
X1806Y05191*
X18078Y05186*
X18096Y05185*
Y05185*
X18155*
X18157Y05182*
X18162Y05176*
X18169Y05172*
X18177Y0517*
X18185*
X18192Y05172*
X18199Y05176*
X18205Y05182*
X18209Y05189*
X18211Y05196*
Y05204*
X18209Y05212*
X18205Y05219*
X18199Y05224*
X18192Y05228*
X18185Y0523*
X18177*
X18169Y05228*
X18162Y05224*
X18157Y05219*
X18155Y05216*
X18096*
X18095Y05215*
X18079Y05217*
X18063Y05222*
X18048Y0523*
X18036Y0524*
X18025Y05253*
X18017Y05268*
X18012Y05284*
X18011Y053*
X18011Y053*
Y05383*
X18014Y05385*
X1802Y05391*
X18024Y05397*
X18024Y05401*
X1803*
X18031Y05397*
X18035Y05391*
X1804Y05385*
X18047Y05381*
X18055Y05379*
X18063*
X1807Y05381*
X18077Y05385*
X18083Y05391*
X18087Y05397*
X18089Y05405*
Y05413*
X18087Y05421*
X18083Y05427*
X18077Y05433*
X18074Y05435*
Y05919*
X18079Y0592*
X18085Y05905*
X18095Y0589*
X18107Y05878*
X18121Y05868*
X18138Y05862*
X18155Y05858*
X18172*
X18189Y05862*
X18205Y05868*
X1822Y05878*
X18232Y0589*
X18242Y05905*
X18248Y05921*
X18252Y05938*
Y05955*
X18248Y05972*
X18242Y05988*
X18232Y06003*
X1822Y06015*
X18205Y06025*
X18189Y06032*
X18172Y06035*
X18155*
X18138Y06032*
X18121Y06025*
X18107Y06015*
X18095Y06003*
X18085Y05988*
X18079Y05974*
X18074Y05975*
Y06082*
X18074*
X18072Y06099*
X18067Y06115*
X18059Y0613*
X18049Y06143*
X18036Y06154*
X18021Y06162*
X18016Y06163*
X18016Y06165*
X18012Y06171*
X18006Y06177*
X17999Y06181*
X17992Y06183*
X17984*
X17976Y06181*
X17969Y06177*
X17964Y06171*
X17962Y06168*
X17901*
X17901Y06168*
X17893Y06169*
X17885Y06173*
X17878Y06178*
X17873Y06184*
X1787Y06192*
X17869Y062*
X17869Y062*
Y06537*
X17872Y06538*
X17878Y06544*
X17882Y06551*
X17884Y06559*
Y06566*
X17882Y06574*
X17878Y06581*
X17872Y06587*
X17865Y0659*
X17858Y06592*
X1785*
X17842Y0659*
X17835Y06587*
X1783Y06581*
X17829Y06579*
X17824Y06581*
X17827Y06594*
Y06612*
X17823Y06629*
X17817Y06645*
X17807Y06659*
X17795Y06671*
X1778Y06681*
X17764Y06688*
X17747Y06691*
G37*
G36*
X17944Y05898D02*
X17933D01*
X17922Y05895*
X17912Y05889*
X17904Y05881*
X17898Y05871*
X17895Y0586*
Y05849*
X17898Y05838*
X17904Y05828*
X17912Y0582*
X17922Y05814*
X17933Y05811*
X17944*
X17955Y05814*
X17965Y0582*
X17973Y05828*
X17979Y05838*
X17982Y05849*
Y0586*
X17979Y05871*
X17973Y05881*
X17965Y05889*
X17955Y05895*
X17944Y05898*
G37*
G36*
X17194Y05897D02*
X17183D01*
X17172Y05894*
X17162Y05889*
X17154Y0588*
X17148Y05871*
X17145Y0586*
Y05848*
X17148Y05837*
X17154Y05827*
X17162Y05819*
X17172Y05813*
X17183Y0581*
X17194*
X17205Y05813*
X17215Y05819*
X17223Y05827*
X17229Y05837*
X17232Y05848*
Y0586*
X17229Y05871*
X17223Y0588*
X17215Y05889*
X17205Y05894*
X17194Y05897*
G37*
G36*
X16444D02*
X16433D01*
X16422Y05894*
X16412Y05889*
X16404Y0588*
X16398Y05871*
X16395Y0586*
Y05848*
X16398Y05837*
X16404Y05827*
X16412Y05819*
X16422Y05813*
X16433Y0581*
X16444*
X16455Y05813*
X16465Y05819*
X16473Y05827*
X16479Y05837*
X16482Y05848*
Y0586*
X16479Y05871*
X16473Y0588*
X16465Y05889*
X16455Y05894*
X16444Y05897*
G37*
G36*
X15694D02*
X15683D01*
X15672Y05894*
X15662Y05889*
X15654Y0588*
X15648Y05871*
X15645Y0586*
Y05848*
X15648Y05837*
X15654Y05827*
X15662Y05819*
X15672Y05813*
X15683Y0581*
X15694*
X15705Y05813*
X15715Y05819*
X15723Y05827*
X15729Y05837*
X15732Y05848*
Y0586*
X15729Y05871*
X15723Y0588*
X15715Y05889*
X15705Y05894*
X15694Y05897*
G37*
G36*
X17747Y05943D02*
X1773D01*
X17713Y05939*
X17696Y05933*
X17682Y05923*
X1767Y05911*
X1766Y05896*
X17653Y0588*
X1765Y05863*
Y05846*
X17653Y05829*
X1766Y05813*
X1767Y05798*
X17682Y05786*
X17696Y05776*
X17713Y05769*
X1773Y05766*
X17747*
X17764Y05769*
X1778Y05776*
X17795Y05786*
X17807Y05798*
X17817Y05813*
X17823Y05829*
X17827Y05846*
Y05863*
X17823Y0588*
X17817Y05896*
X17807Y05911*
X17795Y05923*
X1778Y05933*
X17764Y05939*
X17747Y05943*
G37*
G36*
X16997Y05942D02*
X1698D01*
X16963Y05939*
X16946Y05932*
X16932Y05922*
X1692Y0591*
X1691Y05896*
X16903Y0588*
X169Y05863*
Y05845*
X16903Y05828*
X1691Y05812*
X1692Y05798*
X16932Y05785*
X16946Y05776*
X16963Y05769*
X1698Y05765*
X16997*
X17014Y05769*
X1703Y05776*
X17045Y05785*
X17057Y05798*
X17067Y05812*
X17073Y05828*
X17077Y05845*
Y05863*
X17073Y0588*
X17067Y05896*
X17057Y0591*
X17045Y05922*
X1703Y05932*
X17014Y05939*
X16997Y05942*
G37*
G36*
X16247D02*
X1623D01*
X16213Y05939*
X16196Y05932*
X16182Y05922*
X1617Y0591*
X1616Y05896*
X16153Y0588*
X1615Y05863*
Y05845*
X16153Y05828*
X1616Y05812*
X1617Y05798*
X16182Y05785*
X16196Y05776*
X16213Y05769*
X1623Y05765*
X16247*
X16264Y05769*
X1628Y05776*
X16295Y05785*
X16307Y05798*
X16317Y05812*
X16323Y05828*
X16327Y05845*
Y05863*
X16323Y0588*
X16317Y05896*
X16307Y0591*
X16295Y05922*
X1628Y05932*
X16264Y05939*
X16247Y05942*
G37*
G36*
X15497D02*
X1548D01*
X15463Y05939*
X15446Y05932*
X15432Y05922*
X1542Y0591*
X1541Y05896*
X15403Y0588*
X154Y05863*
Y05845*
X15403Y05828*
X1541Y05812*
X1542Y05798*
X15432Y05785*
X15446Y05776*
X15463Y05769*
X1548Y05765*
X15497*
X15514Y05769*
X1553Y05776*
X15545Y05785*
X15557Y05798*
X15567Y05812*
X15573Y05828*
X15577Y05845*
Y05863*
X15573Y0588*
X15567Y05896*
X15557Y0591*
X15545Y05922*
X1553Y05932*
X15514Y05939*
X15497Y05942*
G37*
G36*
X17801Y05753D02*
X17675D01*
X17671Y05752*
X17668Y0575*
X17666Y05747*
X17665Y05743*
Y05633*
X17666Y05629*
X17668Y05626*
X17671Y05624*
X17675Y05623*
X17801*
X17805Y05624*
X17808Y05626*
X17811Y05629*
X17811Y05633*
Y05743*
X17811Y05747*
X17808Y0575*
X17805Y05752*
X17801Y05753*
G37*
G36*
X17051D02*
X16925D01*
X16921Y05752*
X16918Y0575*
X16916Y05747*
X16915Y05743*
Y05633*
X16916Y05629*
X16918Y05626*
X16921Y05624*
X16925Y05623*
X17051*
X17055Y05624*
X17058Y05626*
X17061Y05629*
X17061Y05633*
Y05743*
X17061Y05747*
X17058Y0575*
X17055Y05752*
X17051Y05753*
G37*
G36*
X16301D02*
X16175D01*
X16171Y05752*
X16168Y0575*
X16166Y05747*
X16165Y05743*
Y05633*
X16166Y05629*
X16168Y05626*
X16171Y05624*
X16175Y05623*
X16301*
X16305Y05624*
X16308Y05626*
X16311Y05629*
X16311Y05633*
Y05743*
X16311Y05747*
X16308Y0575*
X16305Y05752*
X16301Y05753*
G37*
G36*
X15551D02*
X15425D01*
X15421Y05752*
X15418Y0575*
X15416Y05747*
X15415Y05743*
Y05633*
X15416Y05629*
X15418Y05626*
X15421Y05624*
X15425Y05623*
X15551*
X15555Y05624*
X15558Y05626*
X15561Y05629*
X15561Y05633*
Y05743*
X15561Y05747*
X15558Y0575*
X15555Y05752*
X15551Y05753*
G37*
G36*
X18595Y05744D02*
X18581D01*
X18568Y05742*
X18555Y05736*
X18544Y05729*
X18534Y05719*
X18527Y05708*
X18522Y05695*
X18519Y05682*
Y05669*
X18522Y05655*
X18527Y05643*
X18534Y05631*
X18544Y05622*
X18555Y05614*
X18568Y05609*
X18581Y05606*
X18595*
X18608Y05609*
X18621Y05614*
X18632Y05622*
X18642Y05631*
X18649Y05643*
X18654Y05655*
X18657Y05669*
Y05682*
X18654Y05695*
X18649Y05708*
X18642Y05719*
X18632Y05729*
X18621Y05736*
X18608Y05742*
X18595Y05744*
G37*
G36*
X17659Y05516D02*
X17638D01*
Y05487*
X17659*
Y05516*
G37*
G36*
X17633D02*
X17612D01*
Y05487*
X17633*
Y05516*
G37*
G36*
X16911Y05515D02*
X1689D01*
Y05486*
X16911*
Y05515*
G37*
G36*
X16885D02*
X16864D01*
Y05486*
X16885*
Y05515*
G37*
G36*
X16167D02*
X16146D01*
Y05486*
X16167*
Y05515*
G37*
G36*
X16141D02*
X1612D01*
Y05486*
X16141*
Y05515*
G37*
G36*
X15407D02*
X15386D01*
Y05486*
X15407*
Y05515*
G37*
G36*
X15381D02*
X1536D01*
Y05486*
X15381*
Y05515*
G37*
G36*
X17659Y05482D02*
X17638D01*
Y05453*
X17659*
Y05482*
G37*
G36*
X17633D02*
X17612D01*
Y05453*
X17633*
Y05482*
G37*
G36*
X17553Y05689D02*
X17545D01*
X17537Y05687*
X1753Y05683*
X17525Y05677*
X17521Y05671*
X17519Y05663*
Y05655*
X17521Y05647*
X17525Y05641*
X1753Y05635*
X17533Y05633*
Y05512*
X17533*
X17535Y05501*
X17539Y05491*
X17546Y05482*
X17553Y05477*
Y05453*
X176*
Y05516*
X17564*
Y05633*
X17567Y05635*
X17573Y05641*
X17577Y05647*
X17579Y05655*
Y05663*
X17577Y05671*
X17573Y05677*
X17567Y05683*
X1756Y05687*
X17553Y05689*
G37*
G36*
X16911Y05481D02*
X1689D01*
Y05452*
X16911*
Y05481*
G37*
G36*
X16885D02*
X16864D01*
Y05452*
X16885*
Y05481*
G37*
G36*
X16803Y05689D02*
X16795D01*
X16787Y05687*
X1678Y05683*
X16775Y05677*
X16771Y05671*
X16769Y05663*
Y05655*
X16771Y05647*
X16775Y05641*
X1678Y05635*
X16783Y05633*
Y05513*
X16783*
X16785Y05502*
X16789Y05491*
X16796Y05482*
X16805Y05475*
Y05452*
X16852*
Y05515*
X16814*
Y05633*
X16817Y05635*
X16823Y05641*
X16827Y05647*
X16829Y05655*
Y05663*
X16827Y05671*
X16823Y05677*
X16817Y05683*
X1681Y05687*
X16803Y05689*
G37*
G36*
X16167Y05481D02*
X16146D01*
Y05452*
X16167*
Y05481*
G37*
G36*
X16141D02*
X1612D01*
Y05452*
X16141*
Y05481*
G37*
G36*
X16057Y05689D02*
X16049D01*
X16041Y05687*
X16034Y05683*
X16029Y05677*
X16025Y05671*
X16023Y05663*
Y05655*
X16025Y05647*
X16029Y05641*
X16034Y05635*
X16037Y05633*
Y05515*
X16037*
X16039Y05503*
X16044Y05492*
X16051Y05482*
X1606Y05475*
Y05452*
X16108*
Y05515*
X16068*
Y05633*
X16071Y05635*
X16077Y05641*
X16081Y05647*
X16083Y05655*
Y05663*
X16081Y05671*
X16077Y05677*
X16071Y05683*
X16064Y05687*
X16057Y05689*
G37*
G36*
X15407Y05481D02*
X15386D01*
Y05452*
X15407*
Y05481*
G37*
G36*
X15381D02*
X1536D01*
Y05452*
X15381*
Y05481*
G37*
G36*
X15309Y05689D02*
X15301D01*
X15293Y05687*
X15286Y05683*
X15281Y05677*
X15277Y05671*
X15275Y05663*
Y05655*
X15277Y05647*
X15281Y05641*
X15286Y05635*
X15289Y05633*
Y05504*
X15291Y05494*
X15294Y05486*
X153Y05479*
X15301Y05478*
Y05452*
X15348*
Y05515*
X1532*
Y05633*
X15323Y05635*
X15329Y05641*
X15333Y05647*
X15335Y05655*
Y05663*
X15333Y05671*
X15329Y05677*
X15323Y05683*
X15316Y05687*
X15309Y05689*
G37*
G36*
X18694Y05519D02*
X18682D01*
X18671Y05516*
X18661Y0551*
X18653Y05502*
X18648Y05492*
X18645Y05481*
Y0547*
X18648Y05459*
X18653Y05449*
X18661Y05441*
X18671Y05435*
X18682Y05432*
X18694*
X18705Y05435*
X18715Y05441*
X18723Y05449*
X18728Y05459*
X18731Y0547*
Y05481*
X18728Y05492*
X18723Y05502*
X18715Y0551*
X18705Y05516*
X18694Y05519*
G37*
G36*
X18497Y05564D02*
X18479D01*
X18462Y0556*
X18446Y05554*
X18432Y05544*
X18419Y05532*
X1841Y05517*
X18403Y05501*
X184Y05484*
Y05467*
X18403Y0545*
X1841Y05433*
X18419Y05419*
X18432Y05407*
X18446Y05397*
X18462Y0539*
X18479Y05387*
X18497*
X18514Y0539*
X1853Y05397*
X18544Y05407*
X18557Y05419*
X18566Y05433*
X18573Y0545*
X18576Y05467*
Y05484*
X18573Y05501*
X18566Y05517*
X18557Y05532*
X18544Y05544*
X1853Y05554*
X18514Y0556*
X18497Y05564*
G37*
G36*
X18551Y0537D02*
X18425D01*
X18421Y05369*
X18418Y05367*
X18416Y05363*
X18415Y0536*
Y05249*
X18416Y05246*
X18418Y05242*
X18421Y0524*
X18425Y05239*
X18551*
X18555Y0524*
X18558Y05242*
X18561Y05246*
X18561Y05249*
Y0536*
X18561Y05363*
X18558Y05367*
X18555Y05369*
X18551Y0537*
G37*
G36*
X17845Y05373D02*
X17831D01*
X17818Y0537*
X17806Y05365*
X17794Y05357*
X17785Y05348*
X17777Y05336*
X17772Y05324*
X17769Y05311*
Y05297*
X17772Y05284*
X17777Y05271*
X17785Y0526*
X17794Y0525*
X17806Y05243*
X17818Y05238*
X17831Y05235*
X17845*
X17858Y05238*
X17871Y05243*
X17882Y0525*
X17892Y0526*
X17899Y05271*
X17905Y05284*
X17907Y05297*
Y05311*
X17905Y05324*
X17899Y05336*
X17892Y05348*
X17882Y05357*
X17871Y05365*
X17858Y0537*
X17845Y05373*
G37*
G36*
X17095D02*
X17081D01*
X17068Y0537*
X17056Y05365*
X17044Y05357*
X17035Y05348*
X17027Y05336*
X17022Y05324*
X17019Y05311*
Y05297*
X17022Y05284*
X17027Y05271*
X17035Y0526*
X17044Y0525*
X17056Y05243*
X17068Y05238*
X17081Y05235*
X17095*
X17108Y05238*
X17121Y05243*
X17132Y0525*
X17142Y0526*
X17149Y05271*
X17155Y05284*
X17157Y05297*
Y05311*
X17155Y05324*
X17149Y05336*
X17142Y05348*
X17132Y05357*
X17121Y05365*
X17108Y0537*
X17095Y05373*
G37*
G36*
X16345D02*
X16331D01*
X16318Y0537*
X16306Y05365*
X16294Y05357*
X16285Y05348*
X16277Y05336*
X16272Y05324*
X16269Y05311*
Y05297*
X16272Y05284*
X16277Y05271*
X16285Y0526*
X16294Y0525*
X16306Y05243*
X16318Y05238*
X16331Y05235*
X16345*
X16358Y05238*
X16371Y05243*
X16382Y0525*
X16392Y0526*
X16399Y05271*
X16405Y05284*
X16407Y05297*
Y05311*
X16405Y05324*
X16399Y05336*
X16392Y05348*
X16382Y05357*
X16371Y05365*
X16358Y0537*
X16345Y05373*
G37*
G36*
X15595D02*
X15581D01*
X15568Y0537*
X15556Y05365*
X15544Y05357*
X15535Y05348*
X15527Y05336*
X15522Y05324*
X15519Y05311*
Y05297*
X15522Y05284*
X15527Y05271*
X15535Y0526*
X15544Y0525*
X15556Y05243*
X15568Y05238*
X15581Y05235*
X15595*
X15608Y05238*
X15621Y05243*
X15632Y0525*
X15642Y0526*
X15649Y05271*
X15655Y05284*
X15657Y05297*
Y05311*
X15655Y05324*
X15649Y05336*
X15642Y05348*
X15632Y05357*
X15621Y05365*
X15608Y0537*
X15595Y05373*
G37*
G36*
X17595Y05273D02*
X17581D01*
X17568Y0527*
X17556Y05265*
X17544Y05257*
X17535Y05248*
X17527Y05236*
X17522Y05224*
X17519Y05211*
Y05197*
X17522Y05184*
X17527Y05171*
X17535Y0516*
X17543Y05152*
X1754Y05147*
X17533*
X17522Y05144*
X17512Y05139*
X17504Y0513*
X17498Y05121*
X17495Y0511*
Y05098*
X17498Y05087*
X17504Y05077*
X17512Y05069*
X17522Y05063*
X17533Y0506*
X17544*
X17555Y05063*
X17565Y05069*
X17573Y05077*
X17579Y05087*
X17582Y05098*
Y0511*
X17579Y05121*
X17573Y0513*
X17572Y05132*
X17574Y05136*
X17581Y05135*
X17595*
X17608Y05138*
X17621Y05143*
X17632Y0515*
X17642Y0516*
X17649Y05171*
X17655Y05184*
X17657Y05197*
Y05211*
X17655Y05224*
X17649Y05236*
X17642Y05248*
X17632Y05257*
X17621Y05265*
X17608Y0527*
X17595Y05273*
G37*
G36*
X16845D02*
X16831D01*
X16818Y0527*
X16806Y05265*
X16794Y05257*
X16785Y05248*
X16777Y05236*
X16772Y05224*
X16769Y05211*
Y05197*
X16772Y05184*
X16777Y05171*
X16785Y0516*
X16793Y05152*
X1679Y05147*
X16783*
X16772Y05144*
X16762Y05139*
X16754Y0513*
X16748Y05121*
X16745Y0511*
Y05098*
X16748Y05087*
X16754Y05077*
X16762Y05069*
X16772Y05063*
X16783Y0506*
X16794*
X16805Y05063*
X16815Y05069*
X16823Y05077*
X16829Y05087*
X16832Y05098*
Y0511*
X16829Y05121*
X16823Y0513*
X16822Y05132*
X16824Y05136*
X16831Y05135*
X16845*
X16858Y05138*
X16871Y05143*
X16882Y0515*
X16892Y0516*
X16899Y05171*
X16905Y05184*
X16907Y05197*
Y05211*
X16905Y05224*
X16899Y05236*
X16892Y05248*
X16882Y05257*
X16871Y05265*
X16858Y0527*
X16845Y05273*
G37*
G36*
X16095D02*
X16081D01*
X16068Y0527*
X16056Y05265*
X16044Y05257*
X16035Y05248*
X16027Y05236*
X16022Y05224*
X16019Y05211*
Y05197*
X16022Y05184*
X16027Y05171*
X16035Y0516*
X16043Y05152*
X1604Y05147*
X16033*
X16022Y05144*
X16012Y05139*
X16004Y0513*
X15998Y05121*
X15995Y0511*
Y05098*
X15998Y05087*
X16004Y05077*
X16012Y05069*
X16022Y05063*
X16033Y0506*
X16044*
X16055Y05063*
X16065Y05069*
X16073Y05077*
X16079Y05087*
X16082Y05098*
Y0511*
X16079Y05121*
X16073Y0513*
X16072Y05132*
X16074Y05136*
X16081Y05135*
X16095*
X16108Y05138*
X16121Y05143*
X16132Y0515*
X16142Y0516*
X16149Y05171*
X16155Y05184*
X16157Y05197*
Y05211*
X16155Y05224*
X16149Y05236*
X16142Y05248*
X16132Y05257*
X16121Y05265*
X16108Y0527*
X16095Y05273*
G37*
G36*
X15345D02*
X15331D01*
X15318Y0527*
X15306Y05265*
X15294Y05257*
X15285Y05248*
X15277Y05236*
X15272Y05224*
X15269Y05211*
Y05197*
X15272Y05184*
X15277Y05171*
X15285Y0516*
X15293Y05152*
X1529Y05147*
X15283*
X15272Y05144*
X15262Y05139*
X15254Y0513*
X15248Y05121*
X15245Y0511*
Y05098*
X15248Y05087*
X15254Y05077*
X15262Y05069*
X15272Y05063*
X15283Y0506*
X15294*
X15305Y05063*
X15315Y05069*
X15323Y05077*
X15329Y05087*
X15332Y05098*
Y0511*
X15329Y05121*
X15323Y0513*
X15322Y05132*
X15324Y05136*
X15331Y05135*
X15345*
X15358Y05138*
X15371Y05143*
X15382Y0515*
X15392Y0516*
X15399Y05171*
X15405Y05184*
X15407Y05197*
Y05211*
X15405Y05224*
X15399Y05236*
X15392Y05248*
X15382Y05257*
X15371Y05265*
X15358Y0527*
X15345Y05273*
G37*
G36*
X17944Y05147D02*
X17933D01*
X17922Y05144*
X17912Y05139*
X17904Y0513*
X17898Y05121*
X17895Y0511*
Y05098*
X17898Y05087*
X17904Y05077*
X17912Y05069*
X17922Y05063*
X17933Y0506*
X17944*
X17955Y05063*
X17965Y05069*
X17973Y05077*
X17979Y05087*
X17982Y05098*
Y0511*
X17979Y05121*
X17973Y0513*
X17965Y05139*
X17955Y05144*
X17944Y05147*
G37*
G36*
X17194D02*
X17183D01*
X17172Y05144*
X17162Y05139*
X17154Y0513*
X17148Y05121*
X17145Y0511*
Y05098*
X17148Y05087*
X17154Y05077*
X17162Y05069*
X17172Y05063*
X17183Y0506*
X17194*
X17205Y05063*
X17215Y05069*
X17223Y05077*
X17229Y05087*
X17232Y05098*
Y0511*
X17229Y05121*
X17223Y0513*
X17215Y05139*
X17205Y05144*
X17194Y05147*
G37*
G36*
X16444D02*
X16433D01*
X16422Y05144*
X16412Y05139*
X16404Y0513*
X16398Y05121*
X16395Y0511*
Y05098*
X16398Y05087*
X16404Y05077*
X16412Y05069*
X16422Y05063*
X16433Y0506*
X16444*
X16455Y05063*
X16465Y05069*
X16473Y05077*
X16479Y05087*
X16482Y05098*
Y0511*
X16479Y05121*
X16473Y0513*
X16465Y05139*
X16455Y05144*
X16444Y05147*
G37*
G36*
X15694D02*
X15683D01*
X15672Y05144*
X15662Y05139*
X15654Y0513*
X15648Y05121*
X15645Y0511*
Y05098*
X15648Y05087*
X15654Y05077*
X15662Y05069*
X15672Y05063*
X15683Y0506*
X15694*
X15705Y05063*
X15715Y05069*
X15723Y05077*
X15729Y05087*
X15732Y05098*
Y0511*
X15729Y05121*
X15723Y0513*
X15715Y05139*
X15705Y05144*
X15694Y05147*
G37*
G36*
X17747Y05192D02*
X1773D01*
X17713Y05189*
X17696Y05182*
X17682Y05172*
X1767Y0516*
X1766Y05146*
X17653Y0513*
X1765Y05113*
Y05095*
X17653Y05078*
X1766Y05062*
X1767Y05048*
X17682Y05035*
X17696Y05026*
X17713Y05019*
X1773Y05015*
X17747*
X17764Y05019*
X1778Y05026*
X17795Y05035*
X17807Y05048*
X17817Y05062*
X17823Y05078*
X17827Y05095*
Y05113*
X17823Y0513*
X17817Y05146*
X17807Y0516*
X17795Y05172*
X1778Y05182*
X17764Y05189*
X17747Y05192*
G37*
G36*
X16997D02*
X1698D01*
X16963Y05189*
X16946Y05182*
X16932Y05172*
X1692Y0516*
X1691Y05146*
X16903Y0513*
X169Y05113*
Y05095*
X16903Y05078*
X1691Y05062*
X1692Y05048*
X16932Y05035*
X16946Y05026*
X16963Y05019*
X1698Y05015*
X16997*
X17014Y05019*
X1703Y05026*
X17045Y05035*
X17057Y05048*
X17067Y05062*
X17073Y05078*
X17077Y05095*
Y05113*
X17073Y0513*
X17067Y05146*
X17057Y0516*
X17045Y05172*
X1703Y05182*
X17014Y05189*
X16997Y05192*
G37*
G36*
X16247D02*
X1623D01*
X16213Y05189*
X16196Y05182*
X16182Y05172*
X1617Y0516*
X1616Y05146*
X16153Y0513*
X1615Y05113*
Y05095*
X16153Y05078*
X1616Y05062*
X1617Y05048*
X16182Y05035*
X16196Y05026*
X16213Y05019*
X1623Y05015*
X16247*
X16264Y05019*
X1628Y05026*
X16295Y05035*
X16307Y05048*
X16317Y05062*
X16323Y05078*
X16327Y05095*
Y05113*
X16323Y0513*
X16317Y05146*
X16307Y0516*
X16295Y05172*
X1628Y05182*
X16264Y05189*
X16247Y05192*
G37*
G36*
X15497D02*
X1548D01*
X15463Y05189*
X15446Y05182*
X15432Y05172*
X1542Y0516*
X1541Y05146*
X15403Y0513*
X154Y05113*
Y05095*
X15403Y05078*
X1541Y05062*
X1542Y05048*
X15432Y05035*
X15446Y05026*
X15463Y05019*
X1548Y05015*
X15497*
X15514Y05019*
X1553Y05026*
X15545Y05035*
X15557Y05048*
X15567Y05062*
X15573Y05078*
X15577Y05095*
Y05113*
X15573Y0513*
X15567Y05146*
X15557Y0516*
X15545Y05172*
X1553Y05182*
X15514Y05189*
X15497Y05192*
G37*
G36*
X1877Y05076D02*
X18756D01*
X18743Y05074*
X1873Y05068*
X18719Y05061*
X18709Y05051*
X18701Y0504*
X18696Y05027*
X18693Y05013*
Y05*
X18696Y04986*
X18701Y04973*
X18709Y04962*
X18719Y04952*
X1873Y04945*
X18743Y04939*
X18756Y04937*
X1877*
X18784Y04939*
X18796Y04945*
X18808Y04952*
X18818Y04962*
X18825Y04973*
X1883Y04986*
X18833Y05*
Y05013*
X1883Y05027*
X18825Y0504*
X18818Y05051*
X18808Y05061*
X18796Y05068*
X18784Y05074*
X1877Y05076*
G37*
G36*
X15188Y05691D02*
X15181D01*
X15173Y05689*
X15166Y05685*
X15161Y05679*
X15157Y05673*
X15155Y05665*
Y05657*
X15157Y05649*
X15161Y05643*
X15166Y05637*
X15169Y05635*
Y05005*
X15169*
X15171Y04991*
X15176Y04978*
X15185Y04966*
X15196Y04958*
X1521Y04952*
X15224Y0495*
Y04951*
X15247*
X15247Y04949*
X15251Y04942*
X15257Y04936*
X15264Y04932*
X15271Y0493*
X15279*
X15287Y04932*
X15294Y04936*
X15299Y04942*
X15303Y04949*
X15305Y04956*
Y04964*
X15303Y04972*
X15299Y04979*
X15294Y04984*
X15287Y04988*
X15279Y0499*
X15271*
X15264Y04988*
X15257Y04984*
X15254Y04981*
X15224*
X15223Y04981*
X15214Y04983*
X15207Y04988*
X15201Y04996*
X152Y05004*
X152Y05005*
Y05635*
X15203Y05637*
X15209Y05643*
X15212Y05649*
X15215Y05657*
Y05665*
X15212Y05673*
X15209Y05679*
X15203Y05685*
X15196Y05689*
X15188Y05691*
G37*
G36*
X18172Y05095D02*
X18155D01*
X18138Y05092*
X18121Y05085*
X18107Y05075*
X18095Y05063*
X18085Y05048*
X18078Y05032*
X18075Y05015*
Y04998*
X18078Y04981*
X18085Y04965*
X18095Y0495*
X18107Y04938*
X18121Y04928*
X18138Y04922*
X18155Y04918*
X18172*
X18189Y04922*
X18205Y04928*
X1822Y04938*
X18232Y0495*
X18242Y04965*
X18248Y04981*
X18252Y04998*
Y05015*
X18248Y05032*
X18242Y05048*
X18232Y05063*
X1822Y05075*
X18205Y05085*
X18189Y05092*
X18172Y05095*
G37*
G36*
X17801Y05003D02*
X17675D01*
X17671Y05002*
X17668Y05*
X17666Y04996*
X17665Y04993*
Y04882*
X17666Y04879*
X17668Y04875*
X17671Y04873*
X17675Y04872*
X17801*
X17805Y04873*
X17808Y04875*
X17811Y04879*
X17811Y04882*
Y04993*
X17811Y04996*
X17808Y05*
X17805Y05002*
X17801Y05003*
G37*
G36*
X17051D02*
X16925D01*
X16921Y05002*
X16918Y05*
X16916Y04996*
X16915Y04993*
Y04882*
X16916Y04879*
X16918Y04875*
X16921Y04873*
X16925Y04872*
X17051*
X17055Y04873*
X17058Y04875*
X17061Y04879*
X17061Y04882*
Y04993*
X17061Y04996*
X17058Y05*
X17055Y05002*
X17051Y05003*
G37*
G36*
X16301D02*
X16175D01*
X16171Y05002*
X16168Y05*
X16166Y04996*
X16165Y04993*
Y04882*
X16166Y04879*
X16168Y04875*
X16171Y04873*
X16175Y04872*
X16301*
X16305Y04873*
X16308Y04875*
X16311Y04879*
X16311Y04882*
Y04993*
X16311Y04996*
X16308Y05*
X16305Y05002*
X16301Y05003*
G37*
G36*
X15551D02*
X15425D01*
X15421Y05002*
X15418Y05*
X15416Y04996*
X15415Y04993*
Y04882*
X15416Y04879*
X15418Y04875*
X15421Y04873*
X15425Y04872*
X15551*
X15555Y04873*
X15558Y04875*
X15561Y04879*
X15561Y04882*
Y04993*
X15561Y04996*
X15558Y05*
X15555Y05002*
X15551Y05003*
G37*
G36*
X15673Y05D02*
X15665D01*
X15657Y04998*
X1565Y04994*
X15645Y04988*
X15641Y04982*
X15639Y04974*
Y04966*
X15641Y04958*
X15645Y04952*
X1565Y04946*
X15654Y04944*
Y0486*
X15654Y04859*
X15652Y04847*
X15649Y04835*
X15643Y04823*
X15634Y04813*
X15624Y04805*
X15617Y04801*
X15612Y04804*
Y04811*
X15564*
Y04747*
X15612*
Y04767*
X15625Y04771*
X15642Y0478*
X15656Y04792*
X15668Y04806*
X15677Y04823*
X15682Y04841*
X15684Y0486*
X15684*
Y04944*
X15687Y04946*
X15693Y04952*
X15697Y04958*
X15699Y04966*
Y04974*
X15697Y04982*
X15693Y04988*
X15687Y04994*
X1568Y04998*
X15673Y05*
G37*
G36*
X17197Y05D02*
X17189D01*
X17182Y04998*
X17175Y04994*
X17169Y04988*
X17165Y04982*
X17163Y04974*
Y04966*
X17165Y04958*
X17169Y04952*
X17175Y04946*
X17178Y04944*
Y04879*
X17178Y04878*
X17177Y04862*
X17172Y04847*
X17164Y04832*
X17153Y04819*
X1714Y04808*
X17126Y04801*
X1712Y04799*
X17116Y04802*
Y04811*
X17068*
Y04747*
X17116*
Y04766*
X17129Y04769*
X17146Y04776*
X17161Y04786*
X17175Y04797*
X17187Y04811*
X17196Y04827*
X17203Y04843*
X17207Y04861*
X17209Y04879*
X17209*
Y04944*
X17212Y04946*
X17217Y04952*
X17221Y04958*
X17223Y04966*
Y04974*
X17221Y04982*
X17217Y04988*
X17212Y04994*
X17205Y04998*
X17197Y05*
G37*
G36*
X16448Y04998D02*
X1644D01*
X16433Y04996*
X16426Y04992*
X1642Y04986*
X16416Y0498*
X16414Y04972*
Y04964*
X16416Y04956*
X1642Y0495*
X16426Y04944*
X16429Y04942*
Y04879*
X16429Y04878*
X16428Y04862*
X16423Y04847*
X16415Y04832*
X16404Y04819*
X16392Y04808*
X16377Y04801*
X16368Y04798*
X16364Y04801*
Y04811*
X16316*
Y04747*
X16364*
Y04765*
X1638Y04769*
X16397Y04776*
X16412Y04786*
X16426Y04797*
X16438Y04811*
X16447Y04827*
X16454Y04843*
X16458Y04861*
X1646Y04879*
X1646*
Y04942*
X16463Y04944*
X16468Y0495*
X16472Y04956*
X16474Y04964*
Y04972*
X16472Y0498*
X16468Y04986*
X16463Y04992*
X16456Y04996*
X16448Y04998*
G37*
G36*
X17948Y04999D02*
X1794D01*
X17933Y04997*
X17926Y04993*
X1792Y04987*
X17916Y04981*
X17914Y04973*
Y04965*
X17916Y04957*
X1792Y04951*
X17926Y04945*
X17929Y04943*
Y04875*
X17929Y04874*
X17927Y04859*
X17923Y04843*
X17915Y04828*
X17904Y04815*
X17891Y04804*
X17877Y04797*
X17866Y04793*
X17862Y04796*
Y04807*
X17814*
Y04744*
X17862*
Y04761*
X17862Y04761*
X1788Y04765*
X17897Y04772*
X17912Y04782*
X17926Y04794*
X17937Y04807*
X17947Y04823*
X17954Y04839*
X17958Y04857*
X1796Y04875*
X17959*
Y04943*
X17963Y04945*
X17968Y04951*
X17972Y04957*
X17974Y04965*
Y04973*
X17972Y04981*
X17968Y04987*
X17963Y04993*
X17956Y04997*
X17948Y04999*
G37*
G36*
X17553Y04941D02*
X17545D01*
X17537Y04939*
X1753Y04935*
X17525Y04929*
X17521Y04923*
X17519Y04915*
Y04907*
X17521Y04899*
X17525Y04893*
X1753Y04887*
X17533Y04885*
Y04838*
X1753Y04837*
X17525Y04831*
X17521Y04824*
X17519Y04816*
Y04809*
X17521Y04801*
X17525Y04794*
X1753Y04788*
X17537Y04785*
X17545Y04782*
X17553*
X1756Y04785*
X17567Y04788*
X17573Y04794*
X17577Y04801*
X17579Y04809*
Y04816*
X17577Y04824*
X17573Y04831*
X17567Y04837*
X17564Y04838*
Y04885*
X17567Y04887*
X17573Y04893*
X17577Y04899*
X17579Y04907*
Y04915*
X17577Y04923*
X17573Y04929*
X17567Y04935*
X1756Y04939*
X17553Y04941*
G37*
G36*
X15553Y04811D02*
X15532D01*
Y04782*
X15553*
Y04811*
G37*
G36*
X16305D02*
X16284D01*
Y04782*
X16305*
Y04811*
G37*
G36*
X17057D02*
X17035D01*
Y04782*
X17057*
Y04811*
G37*
G36*
X1703D02*
X17009D01*
Y04782*
X1703*
Y04811*
G37*
G36*
X16279D02*
X16257D01*
Y04782*
X16279*
Y04811*
G37*
G36*
X15527D02*
X15505D01*
Y04782*
X15527*
Y04811*
G37*
G36*
X17803Y04807D02*
X17782D01*
Y04778*
X17803*
Y04807*
G37*
G36*
X17777D02*
X17755D01*
Y04778*
X17777*
Y04807*
G37*
G36*
X16805Y04931D02*
X16797D01*
X16789Y04929*
X16782Y04925*
X16777Y04919*
X16773Y04913*
X16771Y04905*
Y04897*
X16773Y0489*
X16777Y04883*
X16782Y04877*
X16785Y04875*
Y04828*
X16782Y04827*
X16777Y04821*
X16773Y04814*
X16771Y04807*
Y04799*
X16773Y04791*
X16777Y04784*
X16782Y04779*
X16789Y04775*
X16797Y04773*
X16805*
X16812Y04775*
X16819Y04779*
X16825Y04784*
X16829Y04791*
X16831Y04799*
Y04807*
X16829Y04814*
X16825Y04821*
X16819Y04827*
X16816Y04828*
Y04875*
X16819Y04877*
X16825Y04883*
X16829Y0489*
X16831Y04897*
Y04905*
X16829Y04913*
X16825Y04919*
X16819Y04925*
X16812Y04929*
X16805Y04931*
G37*
G36*
X16047D02*
X16039D01*
X16031Y04929*
X16024Y04925*
X16019Y04919*
X16015Y04913*
X16013Y04905*
Y04897*
X16015Y0489*
X16019Y04883*
X16024Y04877*
X16028Y04875*
Y04828*
X16024Y04827*
X16019Y04821*
X16015Y04814*
X16013Y04807*
Y04799*
X16015Y04791*
X16019Y04784*
X16024Y04779*
X16031Y04775*
X16039Y04773*
X16047*
X16054Y04775*
X16061Y04779*
X16067Y04784*
X16071Y04791*
X16073Y04799*
Y04807*
X16071Y04814*
X16067Y04821*
X16061Y04827*
X16058Y04828*
Y04875*
X16061Y04877*
X16067Y04883*
X16071Y0489*
X16073Y04897*
Y04905*
X16071Y04913*
X16067Y04919*
X16061Y04925*
X16054Y04929*
X16047Y04931*
G37*
G36*
X15318D02*
X15311D01*
X15303Y04929*
X15296Y04925*
X1529Y04919*
X15287Y04913*
X15284Y04905*
Y04897*
X15287Y0489*
X1529Y04883*
X15296Y04877*
X15299Y04875*
Y04828*
X15296Y04827*
X1529Y04821*
X15287Y04814*
X15284Y04807*
Y04799*
X15287Y04791*
X1529Y04784*
X15296Y04779*
X15303Y04775*
X15311Y04773*
X15318*
X15326Y04775*
X15333Y04779*
X15338Y04784*
X15342Y04791*
X15344Y04799*
Y04807*
X15342Y04814*
X15338Y04821*
X15333Y04827*
X1533Y04828*
Y04875*
X15333Y04877*
X15338Y04883*
X15342Y0489*
X15344Y04897*
Y04905*
X15342Y04913*
X15338Y04919*
X15333Y04925*
X15326Y04929*
X15318Y04931*
G37*
G36*
X17057Y04777D02*
X17035D01*
Y04747*
X17057*
Y04777*
G37*
G36*
X1703D02*
X17009D01*
Y04747*
X1703*
Y04777*
G37*
G36*
X16305D02*
X16284D01*
Y04747*
X16305*
Y04777*
G37*
G36*
X16279D02*
X16257D01*
Y04747*
X16279*
Y04777*
G37*
G36*
X15553D02*
X15532D01*
Y04747*
X15553*
Y04777*
G37*
G36*
X15527D02*
X15505D01*
Y04747*
X15527*
Y04777*
G37*
G36*
X17803Y04773D02*
X17782D01*
Y04744*
X17803*
Y04773*
G37*
G36*
X17777D02*
X17755D01*
Y04744*
X17777*
Y04773*
G37*
G36*
X1847Y04888D02*
X18456D01*
X18442Y04885*
X18429Y04879*
X18417Y04871*
X18407Y04861*
X18399Y04849*
X18393Y04836*
X1839Y04822*
Y04808*
X18393Y04794*
X18399Y0478*
X18407Y04768*
X18417Y04758*
X18429Y0475*
X18442Y04745*
X18456Y04742*
X1847*
X18484Y04745*
X18498Y0475*
X1851Y04758*
X1852Y04768*
X18528Y0478*
X18533Y04794*
X18536Y04808*
Y04822*
X18533Y04836*
X18528Y04849*
X1852Y04861*
X1851Y04871*
X18498Y04879*
X18484Y04885*
X1847Y04888*
G37*
%LNnumpadpcb-3*%
%LPD*%
G54D14*
X1634Y04779D03*
X16281D03*
X17092D03*
X17033D03*
X17838Y04775D03*
X17779D03*
X15588Y04779D03*
X15529D03*
X15383Y05484D03*
X15324D03*
X16143D03*
X16084D03*
X16887D03*
X16828D03*
X17635Y05484D03*
X17576D03*
X17915Y06233D03*
X17974D03*
X17164D03*
X17223D03*
X16415D03*
X16474D03*
X15665D03*
X15724D03*
X15383Y06984D03*
X15324D03*
X16143D03*
X16084D03*
X16887D03*
X16828D03*
X17635D03*
X17576D03*
X18459Y07734D03*
X18518D03*
X17915D03*
X17974D03*
X17164D03*
X17223D03*
X16415D03*
X16474D03*
X15665D03*
X15724D03*
G54D21*
X19082Y06854D03*
X19523D03*
G54D22*
X19204Y06578D03*
X19401D03*
X19204Y07149D03*
X19303D03*
G54D23*
X19401Y07149D03*
G54D27*
X18208Y07732D02*
X18209Y07722D01*
X18212Y07713*
X18216Y07704*
X18221Y07696*
X18228Y07689*
X18236Y07683*
X18245Y07679*
X18254Y07677*
X18264Y07676*
X18307Y07389D02*
X18297Y07388D01*
X18287Y07386*
X18278Y07382*
X1827Y07377*
X18262Y07371*
X18256Y07363*
X1825Y07355*
X18247Y07346*
X18244Y07336*
X18244Y07326*
X18207Y07104D02*
X18216Y07105D01*
X18225Y07109*
X18233Y07115*
X18239Y07122*
X18242Y07131*
X18244Y07141*
X18156Y07102D02*
X18146Y07097D01*
X18138Y07091*
X18132Y07082*
X18128Y07072*
X18126Y07062*
X18169Y07104D02*
X18156Y07102D01*
X17844Y04775D02*
X17854Y04776D01*
X17864Y04777*
X17873Y04779*
X17882Y04783*
X17891Y04787*
X179Y04792*
X17908Y04798*
X17915Y04804*
X17921Y04812*
X17927Y0482*
X17932Y04828*
X17937Y04837*
X1794Y04846*
X17942Y04856*
X17944Y04865*
X17944Y04875*
X17093Y04779D02*
X17103Y0478D01*
X17113Y04781*
X17122Y04783*
X17132Y04787*
X1714Y04791*
X17149Y04796*
X17157Y04802*
X17164Y04808*
X17171Y04816*
X17176Y04823*
X17181Y04832*
X17186Y04841*
X17189Y0485*
X17191Y0486*
X17193Y04869*
X17193Y04879*
X16344Y04779D02*
X16354Y0478D01*
X16364Y04781*
X16373Y04783*
X16383Y04787*
X16392Y04791*
X164Y04796*
X16408Y04802*
X16415Y04808*
X16422Y04816*
X16428Y04823*
X16433Y04832*
X16437Y04841*
X1644Y0485*
X16442Y0486*
X16444Y04869*
X16444Y04879*
X15588Y04779D02*
X15598Y0478D01*
X15607Y04781*
X15617Y04784*
X15626Y04788*
X15634Y04793*
X15642Y04799*
X15648Y04806*
X15655Y04814*
X1566Y04822*
X15664Y04831*
X15666Y0484*
X15668Y0485*
X15669Y0486*
X15185Y05005D02*
X15186Y04995D01*
X1519Y04985*
X15196Y04977*
X15204Y04971*
X15214Y04967*
X15224Y04966*
X15305Y05504D02*
X15307Y05494D01*
X15314Y05486*
X15324Y05484*
X16053Y05515D02*
X16054Y05506D01*
X16059Y05497*
X16066Y0549*
X16074Y05485*
X16084Y05484*
X16799Y05513D02*
X168Y05504D01*
X16804Y05496*
X16811Y05489*
X16819Y05485*
X16828Y05484*
X17549Y05512D02*
X17551Y05501D01*
X17557Y05492*
X17566Y05487*
X17576Y05484*
X18565Y06673D02*
X18575Y06675D01*
X18584Y06681*
X1859Y06689*
X18592Y067*
X17944Y06467D02*
X17934Y06466D01*
X17925Y06463*
X17916Y06458*
X17908Y06452*
X17902Y06444*
X17897Y06436*
X17894Y06426*
X17893Y06416*
X17974Y06273D02*
X17972Y06282D01*
X17968Y06291*
X17962Y06297*
X17953Y06301*
X17944Y06303*
X17893Y06354D02*
X17894Y06344D01*
X17897Y06334*
X17902Y06325*
X17908Y06318*
X17916Y06311*
X17925Y06307*
X17934Y06304*
X17944Y06303*
X18124Y06673D02*
X18114Y06672D01*
X18104Y06671*
X18095Y06668*
X18086Y06665*
X18077Y06661*
X18068Y06656*
X18061Y0665*
X18053Y06643*
X18047Y06636*
X18041Y06628*
X18036Y0662*
X18032Y06611*
X18028Y06602*
X18026Y06592*
X18024Y06583*
X18024Y06573*
X17987Y064D02*
X17997Y06401D01*
X18006Y06405*
X18013Y06411*
X18019Y06418*
X18023Y06427*
X18024Y06436*
X17223Y06418D02*
X17222Y06427D01*
X17219Y06436*
X17215Y06445*
X17209Y06452*
X17201Y06458*
X17193Y06462*
X17184Y06465*
X17175Y06466*
X16474Y06409D02*
X16473Y06419D01*
X1647Y06428*
X16466Y06437*
X16461Y06446*
X16454Y06453*
X16445Y06458*
X16436Y06463*
X16427Y06465*
X16417Y06466*
X15724Y06421D02*
X15723Y06431D01*
X15719Y0644*
X15714Y06449*
X15707Y06456*
X15698Y06462*
X15689Y06465*
X15679Y06466*
X15188Y06566D02*
X15189Y06556D01*
X1519Y06547*
X15193Y06537*
X15196Y06528*
X152Y06519*
X15205Y0651*
X15211Y06503*
X15218Y06495*
X15225Y06489*
X15233Y06483*
X15241Y06478*
X1525Y06474*
X15259Y0647*
X15269Y06468*
X15278Y06467*
X15288Y06466*
X15305Y07004D02*
X15307Y06994D01*
X15314Y06986*
X15324Y06984*
X16043Y07025D02*
X16044Y07014D01*
X16048Y07005*
X16055Y06996*
X16063Y06989*
X16073Y06985*
X16084Y06984*
X16801Y07011D02*
X16803Y07001D01*
X16809Y06992*
X16818Y06986*
X16828Y06984*
X17498Y07165D02*
X17488Y07164D01*
X17478Y07161*
X17468Y07157*
X1746Y07151*
X17452Y07143*
X17446Y07135*
X17442Y07125*
X17439Y07115*
X17438Y07105*
Y07069D02*
X17439Y07058D01*
X17441Y07048*
X17444Y07039*
X17448Y07029*
X17453Y0702*
X1746Y07012*
X17467Y07005*
X17475Y06999*
X17484Y06994*
X17493Y06989*
X17503Y06986*
X17513Y06984*
X17523Y06984*
X18518Y07734D02*
X18527Y07734D01*
X18537Y07736*
X18546Y07739*
X18555Y07743*
X18563Y07749*
X1857Y07755*
X18577Y07763*
X18582Y07771*
X18586Y07779*
X18589Y07789*
X18591Y07798*
X18592Y07808*
X17974Y07937D02*
X17972Y07946D01*
X17968Y07954*
X17962Y07961*
X17953Y07965*
X17944Y07967*
X17223Y07934D02*
X17221Y07943D01*
X17217Y07951*
X17211Y07958*
X17202Y07962*
X17193Y07964*
X16474Y07934D02*
X16472Y07943D01*
X16468Y07952*
X16461Y07959*
X16452Y07963*
X16443Y07965*
X16444Y07963*
X15724Y07937D02*
X15722Y07946D01*
X15716Y07955*
X15708Y0796*
X15698Y07962*
X15185Y08005D02*
X15186Y07995D01*
X15189Y07986*
X15194Y07978*
X15201Y07971*
X15209Y07966*
X15218Y07963*
X15227Y07962*
X18533Y05816D02*
X18543Y05817D01*
X18553Y05818*
X18563Y05821*
X18572Y05824*
X18581Y05828*
X1859Y05833*
X18598Y05838*
X18606Y05845*
X18613Y05852*
X18619Y05859*
X18625Y05868*
X1863Y05876*
X18634Y05886*
X18637Y05895*
X18639Y05905*
X18641Y05915*
X18641Y05925*
X18682Y06604D02*
X18672Y06602D01*
X18662Y06598*
X18653Y06592*
X18647Y06583*
X18643Y06573*
X18641Y06563*
X18952Y07476D02*
X18942Y07475D01*
X18933Y07473*
X18924Y0747*
X18915Y07466*
X18907Y0746*
X18899Y07454*
X18893Y07447*
X18887Y07438*
X18883Y0743*
X1888Y0742*
X18878Y07411*
X18877Y07401*
X18777Y07293D02*
X18787Y07293D01*
X18797Y07295*
X18806Y07297*
X18816Y073*
X18825Y07305*
X18833Y0731*
X18841Y07316*
X18848Y07322*
X18855Y07329*
X18861Y07337*
X18866Y07346*
X1887Y07355*
X18873Y07364*
X18876Y07373*
X18877Y07383*
X18877Y07393*
X18454Y05816D02*
X18444Y05816D01*
X18434Y05814*
X18424Y05812*
X18414Y05808*
X18405Y05803*
X18396Y05798*
X18388Y05791*
X18381Y05784*
X18375Y05776*
X18369Y05767*
X18364Y05758*
X18361Y05748*
X18358Y05738*
X18356Y05728*
X18356Y05718*
X18892Y07276D02*
X18882Y07275D01*
X18873Y07272*
X18864Y07266*
X18858Y07259*
X18852Y07251*
X18849Y07242*
X18848Y07232*
X18976Y07017D02*
X18966Y07017D01*
X18956Y07015*
X18946Y07011*
X18937Y07007*
X18928Y07001*
X1892Y06994*
X18913Y06986*
X18908Y06978*
X18903Y06969*
X189Y06959*
X18898Y06949*
X18897Y06938*
X18797Y06604D02*
X18807Y06604D01*
X18817Y06606*
X18826Y06608*
X18835Y06611*
X18844Y06616*
X18853Y06621*
X18861Y06627*
X18868Y06633*
X18874Y0664*
X1888Y06648*
X18885Y06657*
X1889Y06666*
X18893Y06675*
X18895Y06684*
X18897Y06694*
X18897Y06704*
X19064Y07307D02*
X19064Y07317D01*
X19062Y07326*
X19058Y07336*
X19054Y07344*
X19048Y07352*
X19041Y07359*
X19033Y07365*
X19024Y0737*
X19015Y07373*
X19005Y07375*
X18996Y07376*
X19005Y07017D02*
X19016Y07018D01*
X19026Y07021*
X19035Y07025*
X19043Y07031*
X19051Y07038*
X19057Y07047*
X19061Y07056*
X19064Y07066*
X19064Y07076*
X17996Y053D02*
X17996Y0529D01*
X17997Y05281*
X18Y05271*
X18003Y05262*
X18007Y05253*
X18012Y05245*
X18018Y05237*
X18025Y0523*
X18032Y05223*
X1804Y05217*
X18048Y05212*
X18057Y05208*
X18067Y05205*
X18076Y05202*
X18086Y05201*
X18096Y052*
X19287Y08433D02*
X19283Y08445D01*
X19287Y07405D02*
X19287Y07395D01*
X19288Y07385*
X1929Y07375*
X19293Y07365*
X19297Y07356*
X19301Y07346*
X19306Y07338*
X19312Y07329*
X19318Y07321*
X19325Y07314*
X19332Y07307*
X1934Y07301*
X19349Y07295*
X19357Y0729*
X19367Y07286*
X19376Y07282*
X19386Y07279*
X19396Y07277*
X19406Y07276*
X19416Y07276*
X19279Y08448D02*
X19267Y08452D01*
X18799D02*
X18788Y08451D01*
X18778Y08448*
X18769Y08442*
X18762Y08434*
X18756Y08426*
X18753Y08416*
X18751Y08405*
X18194Y0848D02*
X18184Y08479D01*
X18174Y08478*
X18165Y08476*
X18156Y08472*
X18147Y08468*
X18138Y08463*
X18131Y08457*
X18123Y08451*
X18117Y08443*
X18111Y08435*
X18106Y08427*
X18102Y08418*
X18098Y08409*
X18096Y08399*
X18094Y0839*
X18094Y0838*
X17442Y08507D02*
X17432Y08507D01*
X17423Y08505*
X17413Y08503*
X17404Y085*
X17395Y08496*
X17386Y08491*
X17379Y08485*
X17371Y08478*
X17365Y08471*
X17359Y08463*
X17354Y08455*
X1735Y08446*
X17346Y08436*
X17344Y08427*
X17343Y08417*
X17342Y08407*
X1669Y08535D02*
X1668Y08534D01*
X16671Y08533*
X16661Y08531*
X16652Y08527*
X16643Y08523*
X16634Y08518*
X16627Y08512*
X16619Y08506*
X16613Y08498*
X16607Y0849*
X16602Y08482*
X16598Y08473*
X16594Y08464*
X16592Y08454*
X16591Y08445*
X1659Y08435*
X15938Y08562D02*
X15928Y08562D01*
X15919Y08561*
X15909Y08558*
X159Y08555*
X15891Y08551*
X15883Y08546*
X15875Y0854*
X15867Y08533*
X15861Y08526*
X15855Y08518*
X1585Y0851*
X15846Y08501*
X15842Y08492*
X1584Y08482*
X15839Y08472*
X15838Y08462*
X18377Y07576D02*
X18367Y07575D01*
X18357Y07573*
X18348Y07569*
X18339Y07565*
X18331Y07559*
X18324Y07551*
X18318Y07543*
X18313Y07534*
X18309Y07525*
X18307Y07515*
X18307Y07505*
X19318D02*
X19319Y07495D01*
X1932Y07485*
X19322Y07475*
X19325Y07465*
X19328Y07456*
X19332Y07446*
X19337Y07438*
X19343Y07429*
X19349Y07421*
X19356Y07414*
X19364Y07407*
X19372Y07401*
X1938Y07395*
X19389Y0739*
X19398Y07386*
X19408Y07382*
X19417Y07379*
X19427Y07377*
X19437Y07376*
X19448Y07376*
X19346Y07585D02*
X19346Y07575D01*
X19348Y07565*
X1935Y07555*
X19353Y07546*
X19357Y07537*
X19362Y07528*
X19368Y07519*
X19375Y07512*
X19382Y07504*
X19389Y07498*
X19398Y07492*
X19407Y07487*
X19416Y07483*
X19425Y0748*
X19435Y07478*
X19445Y07476*
X19455Y07476*
X19374Y07685D02*
X19374Y07675D01*
X19375Y07665*
X19378Y07655*
X19381Y07646*
X19385Y07637*
X1939Y07628*
X19396Y07619*
X19402Y07612*
X19409Y07604*
X19417Y07598*
X19425Y07592*
X19434Y07587*
X19443Y07583*
X19453Y0758*
X19463Y07578*
X19473Y07576*
X19483Y07576*
X19401Y07747D02*
X19402Y07737D01*
X19404Y07727*
X19407Y07717*
X19412Y07709*
X19418Y077*
X19426Y07693*
X19434Y07687*
X19443Y07682*
X19452Y07679*
X19462Y07677*
X19472Y07676*
X19318Y08455D02*
X19316Y08466D01*
X1931Y08474*
X193Y0848*
X19401Y08503D02*
X194Y08514D01*
X19398Y08524*
X19393Y08533*
X19387Y08541*
X1938Y08549*
X19372Y08555*
X19362Y08559*
X19352Y08562*
X19342Y08562*
X19374Y08488D02*
X19372Y08498D01*
X19369Y08508*
X19363Y08517*
X19356Y08525*
X19347Y0853*
X19337Y08534*
X19326Y08535*
X19346Y08472D02*
X19345Y08481D01*
X19341Y0849*
X19336Y08497*
X19328Y08503*
X1932Y08506*
X19311Y08507*
X18059Y06082D02*
X18058Y06092D01*
X18056Y06102*
X18052Y06112*
X18047Y0612*
X18041Y06129*
X18034Y06136*
X18026Y06142*
X18017Y06147*
X18008Y0615*
X17998Y06152*
X17988Y06153*
X17854Y062D02*
X17855Y0619D01*
X17859Y0618*
X17864Y06171*
X17872Y06163*
X17881Y06158*
X17891Y06154*
X17901Y06153*
X18126Y06728D02*
Y07062D01*
X18307Y07389D02*
Y07505D01*
X18244Y07141D02*
Y07326D01*
X18171Y07104D02*
X18207D01*
X17523D02*
X18156D01*
X18952Y07476D02*
X18996D01*
X18257Y07627D02*
X18356D01*
X18543D02*
X18641D01*
X16791Y07805D02*
Y07903D01*
X16053Y07805D02*
Y07903D01*
X15305Y07805D02*
Y07903D01*
X19416Y07276D02*
X19596D01*
X17549Y04812D02*
Y04911D01*
X16801Y04803D02*
Y04901D01*
X16043Y04803D02*
Y04901D01*
X15314Y04803D02*
Y04901D01*
X17549Y06299D02*
Y06397D01*
X16801Y06299D02*
Y06397D01*
X16053Y06299D02*
Y06397D01*
X15295Y06299D02*
Y06397D01*
X18681Y0684D02*
X18799D01*
X17838Y04775D02*
X17844D01*
X17944Y04875D02*
Y04969D01*
X17092Y04779D02*
X17093D01*
X17193Y04879D02*
Y0497D01*
X1634Y04779D02*
X16344D01*
X16444Y04879D02*
Y04968D01*
X15669Y0486D02*
Y0497D01*
X15224Y04966D02*
X15269D01*
X15185Y05005D02*
Y05661D01*
X15269Y04966D02*
X15275Y0496D01*
X15305Y05504D02*
Y05659D01*
X16053Y05515D02*
Y05659D01*
X16799Y05513D02*
Y05659D01*
X17549Y05512D02*
Y05659D01*
X18124Y06673D02*
X18565D01*
X18592Y067D02*
Y06722D01*
X17974Y06233D02*
Y06273D01*
X17893Y06354D02*
Y06416D01*
X17944Y064D02*
X17987D01*
X18024Y06436D02*
Y06573D01*
X17223Y06233D02*
Y06418D01*
X16474Y06233D02*
Y06409D01*
X15724Y06233D02*
Y06421D01*
X15288Y06466D02*
X15295D01*
X15188Y06566D02*
Y07158D01*
X15289Y0646D02*
X15295Y06466D01*
X15305Y07004D02*
Y07155D01*
X16043Y07025D02*
Y07155D01*
X16801Y07011D02*
Y07155D01*
X17498Y07165D02*
X17549D01*
X17523Y06984D02*
X17576D01*
X17438Y07069D02*
Y07105D01*
X18592Y07808D02*
Y08031D01*
X17974Y07734D02*
Y07937D01*
X17944Y07958D02*
Y07967D01*
X17223Y07734D02*
Y07934D01*
X17193Y07955D02*
Y07964D01*
X16474Y07734D02*
Y07934D01*
X16444Y07955D02*
Y07963D01*
X15698Y07954D02*
Y07962D01*
X15724Y07734D02*
Y07937D01*
X15227Y07962D02*
X15305D01*
X15185Y08005D02*
Y08437D01*
X18641Y05925D02*
Y06563D01*
X18474Y07293D02*
X18777D01*
X18877Y07393D02*
Y07401D01*
X18848Y06712D02*
Y07232D01*
X18454Y05816D02*
X18533D01*
X18356Y05669D02*
Y05718D01*
X18682Y06604D02*
X18797D01*
X18897Y06704D02*
Y06938D01*
X19064Y07076D02*
Y07307D01*
X18976Y07017D02*
X19005D01*
X18096Y052D02*
X18181D01*
X17996Y053D02*
Y05409D01*
X19287Y07405D02*
Y08433D01*
X19279Y08448D02*
X19283Y08445D01*
X18799Y08452D02*
X19267D01*
X193Y0848D02*
D01*
X19228D02*
X193D01*
X18194D02*
X19228D01*
X18094Y08314D02*
Y0838D01*
X17442Y08507D02*
X19311D01*
X17342Y08299D02*
Y08407D01*
X1669Y08535D02*
X19326D01*
X1659Y08307D02*
Y08435D01*
X15938Y08562D02*
X19342D01*
X15838Y08307D02*
Y08462D01*
X18892Y07276D02*
X18996D01*
X18377Y07576D02*
X18996D01*
X18264Y07676D02*
X18996D01*
X19448Y07376D02*
X19596D01*
X19455Y07476D02*
X19596D01*
X19483Y07576D02*
X19596D01*
X19472Y07676D02*
X19596D01*
X19401Y07747D02*
Y08503D01*
X19318Y07505D02*
Y08455D01*
X19374Y07685D02*
Y08488D01*
X19346Y07585D02*
Y08472D01*
X18059Y05409D02*
Y06082D01*
X17901Y06153D02*
X17988D01*
X17854Y062D02*
Y06562D01*
X18035Y07165D02*
Y07275D01*
X18094Y07548D02*
Y08314D01*
X17342Y07559D02*
Y08299D01*
Y06807D02*
Y07559D01*
Y06059D02*
Y06807D01*
Y05283D02*
Y06059D01*
X1659Y07559D02*
Y08307D01*
Y06814D02*
Y07559D01*
Y06059D02*
Y06814D01*
Y05291D02*
Y06059D01*
X15838Y07555D02*
Y08307D01*
Y06803D02*
Y07555D01*
Y06055D02*
Y06803D01*
Y05299D02*
Y06055D01*
G54D28*
X18338Y08204D03*
X18588Y08304D03*
X18338Y07078D03*
X18588Y07178D03*
X17588Y05204D03*
X17838Y05304D03*
X16838Y05204D03*
X17088Y05304D03*
X16088Y05204D03*
X16338Y05304D03*
X15338Y05204D03*
X15588Y05304D03*
X18338Y05575D03*
X18588Y05675D03*
X17588Y05954D03*
X17838Y06054D03*
X16838Y05954D03*
X17088Y06054D03*
X16088Y05954D03*
X16338Y06054D03*
X15338Y05954D03*
X15588Y06054D03*
X17588Y06703D03*
X17838Y06803D03*
X16838Y06703D03*
X17088Y06803D03*
X16088Y06703D03*
X16338Y06803D03*
X15338Y06703D03*
X15588Y06803D03*
X17588Y07454D03*
X17838Y07554D03*
X16838Y07454D03*
X17088Y07554D03*
X16088Y07454D03*
X16338Y07554D03*
X15338Y07454D03*
X15588Y07554D03*
X17588Y08204D03*
X17838Y08304D03*
X16838Y08204D03*
X17088Y08304D03*
X16088Y08204D03*
X16338Y08304D03*
X15338Y08204D03*
X15588Y08304D03*
G54D29*
X18688Y08104D03*
X18288D03*
X18688Y06978D03*
X18288D03*
X17938Y05104D03*
X17538D03*
X17188D03*
X16788D03*
X16438D03*
X16038D03*
X15688D03*
X15288D03*
X18688Y05475D03*
X18288D03*
X17938Y05854D03*
X17538D03*
X17188Y05854D03*
X16788D03*
X16438D03*
X16038D03*
X15688D03*
X15288D03*
X17938Y06603D03*
X17538D03*
X17188D03*
X16788D03*
X16438D03*
X16038D03*
X15688D03*
X15288D03*
X17938Y07354D03*
X17538D03*
X17188D03*
X16788D03*
X16438D03*
X16038D03*
X15688D03*
X15288D03*
X17938Y08104D03*
X17538D03*
X17188D03*
X16788D03*
X16438D03*
X16038D03*
X15688D03*
X15288D03*
G54D30*
X18488Y08104D03*
Y06978D03*
X17738Y05104D03*
X16988D03*
X16238D03*
X15488D03*
X18488Y05475D03*
X17738Y05854D03*
X16988Y05854D03*
X16238D03*
X15488D03*
X17738Y06603D03*
X16988D03*
X16238D03*
X15488D03*
X17738Y07354D03*
X16988D03*
X16238D03*
X15488D03*
X17738Y08104D03*
X16988D03*
X16238D03*
X15488D03*
G54D31*
X18488Y05305D03*
X17738Y04937D03*
X16988D03*
X16238D03*
X15488D03*
Y05688D03*
X16238D03*
X16988D03*
X17738D03*
X18488Y0681D03*
X17738Y06436D03*
X16988D03*
X16238D03*
X15488D03*
Y07187D03*
X16238D03*
X16988D03*
X17738D03*
X18488Y07937D03*
X17738D03*
X16988D03*
X16238D03*
X15488D03*
G54D32*
X17027Y06978D03*
X15515Y06232D03*
Y07734D03*
X18463Y04815D03*
X18848Y07795D03*
G54D33*
X18996Y07276D03*
Y07376D03*
Y07476D03*
Y07576D03*
Y07676D03*
Y07776D03*
Y07876D03*
Y07976D03*
Y08076D03*
Y08176D03*
Y08276D03*
Y08376D03*
X19596Y07276D03*
Y07376D03*
Y07476D03*
Y07576D03*
Y07676D03*
Y07776D03*
Y07876D03*
Y07976D03*
Y08076D03*
Y08176D03*
Y08276D03*
Y08376D03*
G54D34*
X18163Y06507D03*
Y05007D03*
Y05947D03*
Y07447D03*
G54D35*
X18763Y05947D03*
Y06507D03*
Y05007D03*
Y07447D03*
G54D36*
X18126Y06728D03*
X18356Y07627D03*
X18257D03*
X18641D03*
X18543D03*
X16791Y07805D03*
Y07903D03*
X16053Y07805D03*
Y07903D03*
X15305Y07805D03*
Y07903D03*
X17549Y04812D03*
Y04911D03*
X16801Y04803D03*
Y04901D03*
X16043Y04803D03*
Y04901D03*
X15314Y04803D03*
Y04901D03*
X17549Y06397D03*
Y06299D03*
X16801Y06397D03*
Y06299D03*
X16053D03*
Y06397D03*
X15295Y06299D03*
Y06397D03*
X18799Y0684D03*
X18681D03*
X17944Y04969D03*
X17193Y0497D03*
X16444Y04968D03*
X15669Y0497D03*
X15275Y0496D03*
X16053Y05659D03*
X16799D03*
X17549D03*
X18592Y06722D03*
X17944Y06467D03*
Y064D03*
X17175Y06466D03*
X15679D03*
X15295D03*
X15305Y07155D03*
X16043D03*
X17549Y07165D03*
X17523Y07104D03*
X18592Y08031D03*
X17944Y07967D03*
X17193Y07964D03*
X16444Y07963D03*
X15698Y07962D03*
X15305D03*
X18474Y07293D03*
X18356Y05669D03*
X18848Y06712D03*
X18523Y06515D03*
X18751Y08405D03*
X15185Y08437D03*
X18208Y07732D03*
X18059Y05409D03*
X17988Y06153D03*
X17854Y06562D03*
X18035Y07275D03*
Y07165D03*
X18094Y07548D03*
Y08314D03*
X17342Y05283D03*
Y06059D03*
Y06807D03*
Y07559D03*
Y08299D03*
X1659Y05291D03*
Y06059D03*
Y06814D03*
Y07559D03*
Y08307D03*
X15185Y05661D03*
X15838Y08307D03*
Y07555D03*
Y06803D03*
Y06055D03*
Y05299D03*
X15305Y05659D03*
X16801Y07155D03*
X16417Y06466D03*
X18448Y05153D03*
X18181Y052D03*
X17996Y05409D03*
X15188Y07158D03*
X18307Y07389D03*
M02*