G04*
G04 #@! TF.GenerationSoftware,Altium Limited,Altium Designer,22.1.2 (22)*
G04*
G04 Layer_Color=65535*
%FSLAX25Y25*%
%MOIN*%
G70*
G04*
G04 #@! TF.SameCoordinates,D61C2380-B101-4CEB-8AB1-AF92B03338ED*
G04*
G04*
G04 #@! TF.FilePolarity,Positive*
G04*
G01*
G75*
%ADD10C,0.00984*%
%ADD11C,0.01500*%
%ADD12C,0.00787*%
%ADD13C,0.01000*%
G36*
X1842709Y639531D02*
Y638731D01*
X1841909D01*
Y639531D01*
Y640331D01*
X1842709D01*
Y639531D01*
D02*
G37*
G36*
X1845909D02*
Y638731D01*
X1845109D01*
Y637931D01*
X1845909D01*
Y637131D01*
Y636331D01*
Y635531D01*
X1847509D01*
Y634731D01*
X1852309D01*
Y633931D01*
X1853109D01*
Y633131D01*
X1854709D01*
Y632331D01*
X1855509D01*
Y631531D01*
X1856309D01*
Y630731D01*
X1857109D01*
Y629931D01*
X1857909D01*
Y629131D01*
Y628331D01*
X1858709D01*
Y627531D01*
Y626731D01*
X1859509D01*
Y625931D01*
X1860309D01*
Y625131D01*
Y624331D01*
Y623531D01*
Y622731D01*
Y621931D01*
Y621131D01*
Y620331D01*
Y619531D01*
Y618731D01*
X1859509D01*
Y617931D01*
Y617131D01*
X1858709D01*
Y616331D01*
Y615531D01*
X1857909D01*
Y614731D01*
Y613931D01*
X1857109D01*
Y613131D01*
X1856309D01*
Y612331D01*
X1854709D01*
Y611531D01*
X1853909D01*
Y610731D01*
X1853109D01*
Y609931D01*
X1849909D01*
Y609131D01*
Y608331D01*
X1849109D01*
Y607531D01*
X1848309D01*
Y606731D01*
X1847509D01*
Y607531D01*
X1846709D01*
Y606731D01*
X1845109D01*
Y607531D01*
X1844309D01*
Y608331D01*
X1841909D01*
Y609131D01*
X1839509D01*
Y609931D01*
X1837909D01*
Y610731D01*
X1837109D01*
Y611531D01*
X1835509D01*
Y612331D01*
X1834709D01*
Y613131D01*
X1833909D01*
Y613931D01*
Y614731D01*
X1833109D01*
Y615531D01*
X1832309D01*
Y616331D01*
Y617131D01*
X1831509D01*
Y617931D01*
Y618731D01*
Y619531D01*
Y620331D01*
Y621131D01*
Y621931D01*
Y622731D01*
Y623531D01*
Y624331D01*
Y625131D01*
Y625931D01*
Y626731D01*
X1832309D01*
Y625931D01*
Y625131D01*
Y624331D01*
Y623531D01*
Y622731D01*
Y621931D01*
Y621131D01*
Y620331D01*
Y619531D01*
X1833109D01*
Y618731D01*
Y617931D01*
Y617131D01*
X1833909D01*
Y616331D01*
Y615531D01*
X1834709D01*
Y614731D01*
X1835509D01*
Y613931D01*
X1836309D01*
Y613131D01*
X1837109D01*
Y612331D01*
X1837909D01*
Y611531D01*
X1838709D01*
Y612331D01*
X1837909D01*
Y613131D01*
X1837109D01*
Y613931D01*
Y614731D01*
X1836309D01*
Y615531D01*
X1837109D01*
Y614731D01*
X1837909D01*
Y613931D01*
Y613131D01*
X1838709D01*
Y612331D01*
X1840309D01*
Y611531D01*
X1841109D01*
Y610731D01*
X1842709D01*
Y609931D01*
X1843509D01*
Y610731D01*
X1842709D01*
Y611531D01*
Y612331D01*
X1841909D01*
Y613131D01*
X1841109D01*
Y613931D01*
X1841909D01*
Y613131D01*
X1842709D01*
Y612331D01*
X1843509D01*
Y611531D01*
Y610731D01*
X1845109D01*
Y609931D01*
X1846709D01*
Y610731D01*
X1845909D01*
Y611531D01*
X1846709D01*
Y610731D01*
X1847509D01*
Y611531D01*
Y612331D01*
Y613131D01*
Y613931D01*
Y614731D01*
Y615531D01*
Y616331D01*
Y617131D01*
Y617931D01*
Y618731D01*
X1848309D01*
Y617931D01*
Y617131D01*
Y616331D01*
Y615531D01*
Y614731D01*
Y613931D01*
Y613131D01*
Y612331D01*
Y611531D01*
Y610731D01*
X1849909D01*
Y611531D01*
Y612331D01*
X1851509D01*
Y613131D01*
X1852309D01*
Y613931D01*
X1853109D01*
Y614731D01*
X1853909D01*
Y613931D01*
X1854709D01*
Y614731D01*
X1853909D01*
Y615531D01*
Y616331D01*
Y617131D01*
X1854709D01*
Y616331D01*
Y615531D01*
X1855509D01*
Y614731D01*
X1856309D01*
Y615531D01*
X1855509D01*
Y616331D01*
Y617131D01*
X1856309D01*
Y617931D01*
X1857109D01*
Y617131D01*
Y616331D01*
X1857909D01*
Y617131D01*
Y617931D01*
Y618731D01*
Y619531D01*
X1858709D01*
Y620331D01*
Y621131D01*
Y621931D01*
Y622731D01*
Y623531D01*
Y624331D01*
Y625131D01*
X1857909D01*
Y625931D01*
Y626731D01*
Y627531D01*
Y628331D01*
X1857109D01*
Y629131D01*
X1856309D01*
Y629931D01*
X1855509D01*
Y630731D01*
X1854709D01*
Y631531D01*
X1853909D01*
Y632331D01*
X1853109D01*
Y633131D01*
X1852309D01*
Y632331D01*
X1853109D01*
Y631531D01*
X1853909D01*
Y630731D01*
X1854709D01*
Y629931D01*
X1853909D01*
Y630731D01*
X1853109D01*
Y631531D01*
X1852309D01*
Y632331D01*
X1850709D01*
Y633131D01*
X1849909D01*
Y633931D01*
X1846709D01*
Y633131D01*
X1848309D01*
Y632331D01*
X1849109D01*
Y631531D01*
X1848309D01*
Y632331D01*
X1846709D01*
Y633131D01*
X1845909D01*
Y633931D01*
X1845109D01*
Y634731D01*
X1844309D01*
Y635531D01*
X1843509D01*
Y636331D01*
Y637131D01*
X1842709D01*
Y637931D01*
X1844309D01*
Y637131D01*
Y636331D01*
Y635531D01*
X1845109D01*
Y636331D01*
Y637131D01*
Y637931D01*
X1844309D01*
Y638731D01*
X1843509D01*
Y639531D01*
X1844309D01*
Y640331D01*
X1845909D01*
Y639531D01*
D02*
G37*
G36*
X1842709Y636331D02*
Y635531D01*
Y634731D01*
X1843509D01*
Y633931D01*
X1844309D01*
Y633131D01*
Y632331D01*
X1843509D01*
Y633131D01*
Y633931D01*
X1842709D01*
Y634731D01*
X1841909D01*
Y633931D01*
X1842709D01*
Y633131D01*
X1841909D01*
Y633931D01*
X1841109D01*
Y633131D01*
X1840309D01*
Y632331D01*
X1838709D01*
Y631531D01*
X1837909D01*
Y630731D01*
X1837109D01*
Y629931D01*
X1836309D01*
Y630731D01*
X1835509D01*
Y629931D01*
X1834709D01*
Y629131D01*
X1833909D01*
Y629931D01*
Y630731D01*
X1834709D01*
Y631531D01*
X1835509D01*
Y632331D01*
X1837109D01*
Y633131D01*
X1837909D01*
Y633931D01*
X1838709D01*
Y633131D01*
X1839509D01*
Y633931D01*
Y634731D01*
X1841109D01*
Y635531D01*
Y636331D01*
X1841909D01*
Y637131D01*
X1842709D01*
Y636331D01*
D02*
G37*
G36*
X1850709Y630731D02*
X1851509D01*
Y629931D01*
X1852309D01*
Y629131D01*
X1851509D01*
Y629931D01*
X1850709D01*
Y630731D01*
X1849909D01*
Y631531D01*
X1850709D01*
Y630731D01*
D02*
G37*
G36*
X1833909Y628331D02*
Y627531D01*
X1833109D01*
Y626731D01*
X1832309D01*
Y627531D01*
Y628331D01*
X1833109D01*
Y629131D01*
X1833909D01*
Y628331D01*
D02*
G37*
G36*
X1845109Y614731D02*
Y613931D01*
X1845909D01*
Y613131D01*
X1845109D01*
Y613931D01*
X1844309D01*
Y614731D01*
Y615531D01*
X1845109D01*
Y614731D01*
D02*
G37*
%LPC*%
G36*
X1857109Y616331D02*
X1856309D01*
Y615531D01*
X1857109D01*
Y616331D01*
D02*
G37*
G36*
X1845109Y609931D02*
X1844309D01*
Y609131D01*
X1845109D01*
Y609931D01*
D02*
G37*
%LPD*%
D10*
X1940650Y720276D02*
X1939911Y720702D01*
Y719849D01*
X1940650Y720276D01*
D11*
X1823878Y722705D02*
X1830878D01*
X1866878D02*
X1873878D01*
Y715705D02*
Y722705D01*
Y672705D02*
Y679705D01*
X1866878Y672705D02*
X1873878D01*
X1823878D02*
X1830878D01*
X1823878D02*
Y679705D01*
Y715705D02*
Y722705D01*
X1823850Y828402D02*
Y835402D01*
Y785402D02*
Y792402D01*
Y785402D02*
X1830850D01*
X1866850D02*
X1873850D01*
Y792402D01*
Y828402D02*
Y835402D01*
X1866850D02*
X1873850D01*
X1823850D02*
X1830850D01*
X1748878Y528433D02*
Y535433D01*
Y485433D02*
Y492433D01*
Y485433D02*
X1755878D01*
X1791878D02*
X1798878D01*
Y492433D01*
Y528433D02*
Y535433D01*
X1791878D02*
X1798878D01*
X1748878D02*
X1755878D01*
X1673878Y528433D02*
Y535433D01*
Y485433D02*
Y492433D01*
Y485433D02*
X1680878D01*
X1716878D02*
X1723878D01*
Y492433D01*
Y528433D02*
Y535433D01*
X1716878D02*
X1723878D01*
X1673878D02*
X1680878D01*
X1598878Y528433D02*
Y535433D01*
Y485433D02*
Y492433D01*
Y485433D02*
X1605878D01*
X1641878D02*
X1648878D01*
Y492433D01*
Y528433D02*
Y535433D01*
X1641878D02*
X1648878D01*
X1598878D02*
X1605878D01*
X1523878Y528433D02*
Y535433D01*
Y485433D02*
Y492433D01*
Y485433D02*
X1530878D01*
X1566878D02*
X1573878D01*
Y492433D01*
Y528433D02*
Y535433D01*
X1566878D02*
X1573878D01*
X1523878D02*
X1530878D01*
X1823878Y565705D02*
Y572705D01*
Y522705D02*
Y529705D01*
Y522705D02*
X1830878D01*
X1866878D02*
X1873878D01*
Y529705D01*
Y565705D02*
Y572705D01*
X1866878D02*
X1873878D01*
X1823878D02*
X1830878D01*
X1748878Y603492D02*
Y610492D01*
Y560492D02*
Y567492D01*
Y560492D02*
X1755878D01*
X1791878D02*
X1798878D01*
Y567492D01*
Y603492D02*
Y610492D01*
X1791878D02*
X1798878D01*
X1748878D02*
X1755878D01*
X1673878Y603433D02*
Y610433D01*
Y560433D02*
Y567433D01*
Y560433D02*
X1680878D01*
X1716878D02*
X1723878D01*
Y567433D01*
Y603433D02*
Y610433D01*
X1716878D02*
X1723878D01*
X1673878D02*
X1680878D01*
X1598878Y603433D02*
Y610433D01*
Y560433D02*
Y567433D01*
Y560433D02*
X1605878D01*
X1641878D02*
X1648878D01*
Y567433D01*
Y603433D02*
Y610433D01*
X1641878D02*
X1648878D01*
X1598878D02*
X1605878D01*
X1523878Y603433D02*
Y610433D01*
Y560433D02*
Y567433D01*
Y560433D02*
X1530878D01*
X1566878D02*
X1573878D01*
Y567433D01*
Y603433D02*
Y610433D01*
X1566878D02*
X1573878D01*
X1523878D02*
X1530878D01*
X1748878Y678335D02*
Y685335D01*
Y635335D02*
Y642335D01*
Y635335D02*
X1755878D01*
X1791878D02*
X1798878D01*
Y642335D01*
Y678335D02*
Y685335D01*
X1791878D02*
X1798878D01*
X1748878D02*
X1755878D01*
X1673878Y678335D02*
Y685335D01*
Y635335D02*
Y642335D01*
Y635335D02*
X1680878D01*
X1716878D02*
X1723878D01*
Y642335D01*
Y678335D02*
Y685335D01*
X1716878D02*
X1723878D01*
X1673878D02*
X1680878D01*
X1598878Y678335D02*
Y685335D01*
Y635335D02*
Y642335D01*
Y635335D02*
X1605878D01*
X1641878D02*
X1648878D01*
Y642335D01*
Y678335D02*
Y685335D01*
X1641878D02*
X1648878D01*
X1598878D02*
X1605878D01*
X1523878Y678335D02*
Y685335D01*
Y635335D02*
Y642335D01*
Y635335D02*
X1530878D01*
X1566878D02*
X1573878D01*
Y642335D01*
Y678335D02*
Y685335D01*
X1566878D02*
X1573878D01*
X1523878D02*
X1530878D01*
X1748878Y753433D02*
Y760433D01*
Y710433D02*
Y717433D01*
Y710433D02*
X1755878D01*
X1791878D02*
X1798878D01*
Y717433D01*
Y753433D02*
Y760433D01*
X1791878D02*
X1798878D01*
X1748878D02*
X1755878D01*
X1673878Y753433D02*
Y760433D01*
Y710433D02*
Y717433D01*
Y710433D02*
X1680878D01*
X1716878D02*
X1723878D01*
Y717433D01*
Y753433D02*
Y760433D01*
X1716878D02*
X1723878D01*
X1673878D02*
X1680878D01*
X1598878Y753433D02*
Y760433D01*
Y710433D02*
Y717433D01*
Y710433D02*
X1605878D01*
X1641878D02*
X1648878D01*
Y717433D01*
Y753433D02*
Y760433D01*
X1641878D02*
X1648878D01*
X1598878D02*
X1605878D01*
X1523878Y753433D02*
Y760433D01*
Y710433D02*
Y717433D01*
Y710433D02*
X1530878D01*
X1566878D02*
X1573878D01*
Y717433D01*
Y753433D02*
Y760433D01*
X1566878D02*
X1573878D01*
X1523878D02*
X1530878D01*
X1748878Y828402D02*
Y835402D01*
Y785402D02*
Y792402D01*
Y785402D02*
X1755878D01*
X1791878D02*
X1798878D01*
Y792402D01*
Y828402D02*
Y835402D01*
X1791878D02*
X1798878D01*
X1748878D02*
X1755878D01*
X1673878Y828402D02*
Y835402D01*
Y785402D02*
Y792402D01*
Y785402D02*
X1680878D01*
X1716878D02*
X1723878D01*
Y792402D01*
Y828402D02*
Y835402D01*
X1716878D02*
X1723878D01*
X1673878D02*
X1680878D01*
X1598878Y828402D02*
Y835402D01*
Y785402D02*
Y792402D01*
Y785402D02*
X1605878D01*
X1641878D02*
X1648878D01*
Y792402D01*
Y828402D02*
Y835402D01*
X1641878D02*
X1648878D01*
X1598878D02*
X1605878D01*
X1523878Y828402D02*
Y835402D01*
Y785402D02*
Y792402D01*
Y785402D02*
X1530878D01*
X1566878D02*
X1573878D01*
Y792402D01*
Y828402D02*
Y835402D01*
X1566878D02*
X1573878D01*
X1523878D02*
X1530878D01*
D12*
X1626772Y473721D02*
X1635433D01*
X1626772Y482185D02*
X1635433D01*
X1701969Y473721D02*
X1710630D01*
X1701969Y482185D02*
X1710630D01*
X1776575Y473327D02*
X1785236D01*
X1776575Y481791D02*
X1785236D01*
X1551575Y473721D02*
X1560236D01*
X1551575Y482185D02*
X1560236D01*
X1955709Y658071D02*
Y674705D01*
Y696161D02*
Y712795D01*
X1904921D02*
X1915945D01*
X1944685D02*
X1955709D01*
X1904921Y658071D02*
Y674705D01*
Y696161D02*
Y712795D01*
Y658071D02*
X1915945D01*
X1944685D02*
X1955709D01*
X1531102Y544201D02*
X1539764D01*
X1531102Y552665D02*
X1539764D01*
X1607087Y544201D02*
X1615748D01*
X1607087Y552665D02*
X1615748D01*
X1681496Y544201D02*
X1690158D01*
X1681496Y552665D02*
X1690158D01*
X1756299Y544260D02*
X1764961D01*
X1756299Y552724D02*
X1764961D01*
X1790134Y627567D02*
X1798796D01*
X1790134Y619102D02*
X1798796D01*
X1715049Y627567D02*
X1723711D01*
X1715049Y619102D02*
X1723711D01*
X1640158Y627567D02*
X1648819D01*
X1640158Y619102D02*
X1648819D01*
X1565158Y627567D02*
X1573819D01*
X1565158Y619102D02*
X1573819D01*
X1531102Y694201D02*
X1539764D01*
X1531102Y702665D02*
X1539764D01*
X1607087Y694201D02*
X1615748D01*
X1607087Y702665D02*
X1615748D01*
X1681496Y694201D02*
X1690158D01*
X1681496Y702665D02*
X1690158D01*
X1756299Y694201D02*
X1764961D01*
X1756299Y702665D02*
X1764961D01*
X1844547Y777634D02*
X1853209D01*
X1844547Y769169D02*
X1853209D01*
X1790134Y777634D02*
X1798796D01*
X1790134Y769169D02*
X1798796D01*
X1715049Y777634D02*
X1723711D01*
X1715049Y769169D02*
X1723711D01*
X1640158Y777634D02*
X1648819D01*
X1640158Y769169D02*
X1648819D01*
X1565158Y777634D02*
X1573819D01*
X1565158Y769169D02*
X1573819D01*
D13*
X1894606Y852638D02*
X1964606D01*
Y722638D02*
Y852638D01*
X1894606Y722638D02*
X1964606D01*
X1894606D02*
Y852638D01*
X1822907Y734153D02*
X1821907Y735153D01*
X1819908D01*
X1818908Y734153D01*
Y733153D01*
X1819908Y732154D01*
X1821907D01*
X1822907Y731154D01*
Y730154D01*
X1821907Y729154D01*
X1819908D01*
X1818908Y730154D01*
X1824906Y729154D02*
X1826905D01*
X1825906D01*
Y735153D01*
X1824906Y734153D01*
X1829904D02*
X1830904Y735153D01*
X1832903D01*
X1833903Y734153D01*
Y730154D01*
X1832903Y729154D01*
X1830904D01*
X1829904Y730154D01*
Y734153D01*
X1822622Y846684D02*
X1821623Y847684D01*
X1819623D01*
X1818624Y846684D01*
Y845685D01*
X1819623Y844685D01*
X1821623D01*
X1822622Y843685D01*
Y842686D01*
X1821623Y841686D01*
X1819623D01*
X1818624Y842686D01*
X1828620Y847684D02*
X1824622D01*
Y844685D01*
X1826621Y845685D01*
X1827621D01*
X1828620Y844685D01*
Y842686D01*
X1827621Y841686D01*
X1825621D01*
X1824622Y842686D01*
X1682525Y692846D02*
X1681525Y693846D01*
X1679526D01*
X1678526Y692846D01*
Y691846D01*
X1679526Y690846D01*
X1681525D01*
X1682525Y689847D01*
Y688847D01*
X1681525Y687847D01*
X1679526D01*
X1678526Y688847D01*
X1684524Y687847D02*
X1686523D01*
X1685524D01*
Y693846D01*
X1684524Y692846D01*
X1689523D02*
X1690522Y693846D01*
X1692521D01*
X1693521Y692846D01*
Y691846D01*
X1692521Y690846D01*
X1691522D01*
X1692521D01*
X1693521Y689847D01*
Y688847D01*
X1692521Y687847D01*
X1690522D01*
X1689523Y688847D01*
X1655375Y625621D02*
X1654375Y626621D01*
X1652376D01*
X1651376Y625621D01*
Y621623D01*
X1652376Y620623D01*
X1654375D01*
X1655375Y621623D01*
X1657374Y620623D02*
X1659373D01*
X1658374D01*
Y626621D01*
X1657374Y625621D01*
X1662373Y620623D02*
X1664372D01*
X1663372D01*
Y626621D01*
X1662373Y625621D01*
X1772878Y700432D02*
X1771879Y701432D01*
X1769879D01*
X1768880Y700432D01*
Y696434D01*
X1769879Y695434D01*
X1771879D01*
X1772878Y696434D01*
X1778876Y701432D02*
X1776877Y700432D01*
X1774878Y698433D01*
Y696434D01*
X1775877Y695434D01*
X1777877D01*
X1778876Y696434D01*
Y697433D01*
X1777877Y698433D01*
X1774878D01*
X1672229Y700818D02*
X1671229Y701818D01*
X1669230D01*
X1668230Y700818D01*
Y696819D01*
X1669230Y695820D01*
X1671229D01*
X1672229Y696819D01*
X1674228Y701818D02*
X1678227D01*
Y700818D01*
X1674228Y696819D01*
Y695820D01*
X1622878Y700432D02*
X1621879Y701432D01*
X1619879D01*
X1618880Y700432D01*
Y696434D01*
X1619879Y695434D01*
X1621879D01*
X1622878Y696434D01*
X1624878Y700432D02*
X1625877Y701432D01*
X1627877D01*
X1628876Y700432D01*
Y699433D01*
X1627877Y698433D01*
X1628876Y697433D01*
Y696434D01*
X1627877Y695434D01*
X1625877D01*
X1624878Y696434D01*
Y697433D01*
X1625877Y698433D01*
X1624878Y699433D01*
Y700432D01*
X1625877Y698433D02*
X1627877D01*
X1546688Y700432D02*
X1545688Y701432D01*
X1543689D01*
X1542689Y700432D01*
Y696434D01*
X1543689Y695434D01*
X1545688D01*
X1546688Y696434D01*
X1548687D02*
X1549687Y695434D01*
X1551686D01*
X1552686Y696434D01*
Y700432D01*
X1551686Y701432D01*
X1549687D01*
X1548687Y700432D01*
Y699433D01*
X1549687Y698433D01*
X1552686D01*
X1860083Y775143D02*
X1859083Y776143D01*
X1857084D01*
X1856084Y775143D01*
Y771144D01*
X1857084Y770145D01*
X1859083D01*
X1860083Y771144D01*
X1866081Y776143D02*
X1862082D01*
Y773143D01*
X1864082Y774143D01*
X1865081D01*
X1866081Y773143D01*
Y771144D01*
X1865081Y770145D01*
X1863082D01*
X1862082Y771144D01*
X1567367Y480346D02*
X1566368Y481346D01*
X1564368D01*
X1563369Y480346D01*
Y476347D01*
X1564368Y475347D01*
X1566368D01*
X1567367Y476347D01*
X1569367Y475347D02*
X1571366D01*
X1570366D01*
Y481346D01*
X1569367Y480346D01*
X1574365Y476347D02*
X1575365Y475347D01*
X1577364D01*
X1578364Y476347D01*
Y480346D01*
X1577364Y481346D01*
X1575365D01*
X1574365Y480346D01*
Y479346D01*
X1575365Y478346D01*
X1578364D01*
X1546501Y550424D02*
X1545502Y551424D01*
X1543502D01*
X1542502Y550424D01*
Y546426D01*
X1543502Y545426D01*
X1545502D01*
X1546501Y546426D01*
X1548501Y545426D02*
X1550500D01*
X1549500D01*
Y551424D01*
X1548501Y550424D01*
X1553499D02*
X1554499Y551424D01*
X1556498D01*
X1557498Y550424D01*
Y549425D01*
X1556498Y548425D01*
X1557498Y547426D01*
Y546426D01*
X1556498Y545426D01*
X1554499D01*
X1553499Y546426D01*
Y547426D01*
X1554499Y548425D01*
X1553499Y549425D01*
Y550424D01*
X1554499Y548425D02*
X1556498D01*
X1622485Y550424D02*
X1621486Y551424D01*
X1619486D01*
X1618487Y550424D01*
Y546426D01*
X1619486Y545426D01*
X1621486D01*
X1622485Y546426D01*
X1624485Y545426D02*
X1626484D01*
X1625484D01*
Y551424D01*
X1624485Y550424D01*
X1629483Y551424D02*
X1633482D01*
Y550424D01*
X1629483Y546426D01*
Y545426D01*
X1696806Y550424D02*
X1695807Y551424D01*
X1693807D01*
X1692808Y550424D01*
Y546426D01*
X1693807Y545426D01*
X1695807D01*
X1696806Y546426D01*
X1698806Y545426D02*
X1700805D01*
X1699805D01*
Y551424D01*
X1698806Y550424D01*
X1707803Y551424D02*
X1705803Y550424D01*
X1703804Y548425D01*
Y546426D01*
X1704804Y545426D01*
X1706803D01*
X1707803Y546426D01*
Y547426D01*
X1706803Y548425D01*
X1703804D01*
X1772092Y550424D02*
X1771092Y551424D01*
X1769093D01*
X1768093Y550424D01*
Y546426D01*
X1769093Y545426D01*
X1771092D01*
X1772092Y546426D01*
X1774091Y545426D02*
X1776090D01*
X1775091D01*
Y551424D01*
X1774091Y550424D01*
X1783088Y551424D02*
X1779089D01*
Y548425D01*
X1781089Y549425D01*
X1782088D01*
X1783088Y548425D01*
Y546426D01*
X1782088Y545426D01*
X1780089D01*
X1779089Y546426D01*
X1730359Y625228D02*
X1729360Y626227D01*
X1727360D01*
X1726361Y625228D01*
Y621229D01*
X1727360Y620229D01*
X1729360D01*
X1730359Y621229D01*
X1732359Y620229D02*
X1734358D01*
X1733358D01*
Y626227D01*
X1732359Y625228D01*
X1741356Y620229D02*
X1737357D01*
X1741356Y624228D01*
Y625228D01*
X1740356Y626227D01*
X1738357D01*
X1737357Y625228D01*
X1805433Y625728D02*
X1804433Y626727D01*
X1802434D01*
X1801434Y625728D01*
Y621729D01*
X1802434Y620729D01*
X1804433D01*
X1805433Y621729D01*
X1807432Y620729D02*
X1809431D01*
X1808432D01*
Y626727D01*
X1807432Y625728D01*
X1812430D02*
X1813430Y626727D01*
X1815429D01*
X1816429Y625728D01*
Y624728D01*
X1815429Y623728D01*
X1814430D01*
X1815429D01*
X1816429Y622729D01*
Y621729D01*
X1815429Y620729D01*
X1813430D01*
X1812430Y621729D01*
X1580603Y624932D02*
X1579603Y625932D01*
X1577604D01*
X1576604Y624932D01*
Y620934D01*
X1577604Y619934D01*
X1579603D01*
X1580603Y620934D01*
X1582602Y619934D02*
X1584601D01*
X1583602D01*
Y625932D01*
X1582602Y624932D01*
X1587600D02*
X1588600Y625932D01*
X1590599D01*
X1591599Y624932D01*
Y620934D01*
X1590599Y619934D01*
X1588600D01*
X1587600Y620934D01*
Y624932D01*
X1806261Y775143D02*
X1805261Y776143D01*
X1803262D01*
X1802262Y775143D01*
Y771144D01*
X1803262Y770145D01*
X1805261D01*
X1806261Y771144D01*
X1811259Y770145D02*
Y776143D01*
X1808260Y773143D01*
X1812259D01*
X1730226Y775401D02*
X1729227Y776401D01*
X1727227D01*
X1726228Y775401D01*
Y771402D01*
X1727227Y770402D01*
X1729227D01*
X1730226Y771402D01*
X1732226Y775401D02*
X1733225Y776401D01*
X1735225D01*
X1736225Y775401D01*
Y774401D01*
X1735225Y773402D01*
X1734225D01*
X1735225D01*
X1736225Y772402D01*
Y771402D01*
X1735225Y770402D01*
X1733225D01*
X1732226Y771402D01*
X1655339Y775401D02*
X1654339Y776401D01*
X1652340D01*
X1651340Y775401D01*
Y771402D01*
X1652340Y770402D01*
X1654339D01*
X1655339Y771402D01*
X1661337Y770402D02*
X1657338D01*
X1661337Y774401D01*
Y775401D01*
X1660337Y776401D01*
X1658338D01*
X1657338Y775401D01*
X1582480D02*
X1581481Y776401D01*
X1579481D01*
X1578482Y775401D01*
Y771402D01*
X1579481Y770402D01*
X1581481D01*
X1582480Y771402D01*
X1584480Y770402D02*
X1586479D01*
X1585479D01*
Y776401D01*
X1584480Y775401D01*
X1756828Y543338D02*
X1755828Y544338D01*
X1753829D01*
X1752829Y543338D01*
Y542338D01*
X1753829Y541339D01*
X1755828D01*
X1756828Y540339D01*
Y539339D01*
X1755828Y538340D01*
X1753829D01*
X1752829Y539339D01*
X1762826Y538340D02*
X1758828D01*
X1762826Y542338D01*
Y543338D01*
X1761827Y544338D01*
X1759827D01*
X1758828Y543338D01*
X1764825D02*
X1765825Y544338D01*
X1767825D01*
X1768824Y543338D01*
Y542338D01*
X1767825Y541339D01*
X1766825D01*
X1767825D01*
X1768824Y540339D01*
Y539339D01*
X1767825Y538340D01*
X1765825D01*
X1764825Y539339D01*
X1759630Y842157D02*
X1758631Y843157D01*
X1756631D01*
X1755631Y842157D01*
Y841157D01*
X1756631Y840158D01*
X1758631D01*
X1759630Y839158D01*
Y838158D01*
X1758631Y837158D01*
X1756631D01*
X1755631Y838158D01*
X1764629Y837158D02*
Y843157D01*
X1761630Y840158D01*
X1765628D01*
X1533268Y842519D02*
X1532268Y843519D01*
X1530269D01*
X1529269Y842519D01*
Y841519D01*
X1530269Y840520D01*
X1532268D01*
X1533268Y839520D01*
Y838520D01*
X1532268Y837521D01*
X1530269D01*
X1529269Y838520D01*
X1535267Y837521D02*
X1537266D01*
X1536267D01*
Y843519D01*
X1535267Y842519D01*
X1684040Y767747D02*
X1683040Y768747D01*
X1681041D01*
X1680041Y767747D01*
Y766748D01*
X1681041Y765748D01*
X1683040D01*
X1684040Y764748D01*
Y763749D01*
X1683040Y762749D01*
X1681041D01*
X1680041Y763749D01*
X1686039Y767747D02*
X1687039Y768747D01*
X1689038D01*
X1690038Y767747D01*
Y766748D01*
X1689038Y765748D01*
X1690038Y764748D01*
Y763749D01*
X1689038Y762749D01*
X1687039D01*
X1686039Y763749D01*
Y764748D01*
X1687039Y765748D01*
X1686039Y766748D01*
Y767747D01*
X1687039Y765748D02*
X1689038D01*
X1608706Y692846D02*
X1607706Y693846D01*
X1605707D01*
X1604707Y692846D01*
Y691846D01*
X1605707Y690846D01*
X1607706D01*
X1608706Y689847D01*
Y688847D01*
X1607706Y687847D01*
X1605707D01*
X1604707Y688847D01*
X1610705Y687847D02*
X1612705D01*
X1611705D01*
Y693846D01*
X1610705Y692846D01*
X1619702Y687847D02*
X1615704D01*
X1619702Y691846D01*
Y692846D01*
X1618703Y693846D01*
X1616703D01*
X1615704Y692846D01*
X1793245Y480346D02*
X1792246Y481346D01*
X1790246D01*
X1789247Y480346D01*
Y476347D01*
X1790246Y475347D01*
X1792246D01*
X1793245Y476347D01*
X1799243Y475347D02*
X1795245D01*
X1799243Y479346D01*
Y480346D01*
X1798244Y481346D01*
X1796244D01*
X1795245Y480346D01*
X1805242Y475347D02*
X1801243D01*
X1805242Y479346D01*
Y480346D01*
X1804242Y481346D01*
X1802242D01*
X1801243Y480346D01*
X1718458D02*
X1717458Y481346D01*
X1715459D01*
X1714459Y480346D01*
Y476347D01*
X1715459Y475347D01*
X1717458D01*
X1718458Y476347D01*
X1724456Y475347D02*
X1720457D01*
X1724456Y479346D01*
Y480346D01*
X1723456Y481346D01*
X1721457D01*
X1720457Y480346D01*
X1726455Y475347D02*
X1728454D01*
X1727455D01*
Y481346D01*
X1726455Y480346D01*
X1642655D02*
X1641655Y481346D01*
X1639656D01*
X1638656Y480346D01*
Y476347D01*
X1639656Y475347D01*
X1641655D01*
X1642655Y476347D01*
X1648653Y475347D02*
X1644654D01*
X1648653Y479346D01*
Y480346D01*
X1647653Y481346D01*
X1645654D01*
X1644654Y480346D01*
X1650652D02*
X1651652Y481346D01*
X1653651D01*
X1654651Y480346D01*
Y476347D01*
X1653651Y475347D01*
X1651652D01*
X1650652Y476347D01*
Y480346D01*
X1608221Y543338D02*
X1607222Y544338D01*
X1605222D01*
X1604223Y543338D01*
Y542338D01*
X1605222Y541339D01*
X1607222D01*
X1608221Y540339D01*
Y539339D01*
X1607222Y538340D01*
X1605222D01*
X1604223Y539339D01*
X1614219Y538340D02*
X1610221D01*
X1614219Y542338D01*
Y543338D01*
X1613220Y544338D01*
X1611221D01*
X1610221Y543338D01*
X1616219Y538340D02*
X1618218D01*
X1617219D01*
Y544338D01*
X1616219Y543338D01*
X1681041D02*
X1680041Y544338D01*
X1678042D01*
X1677042Y543338D01*
Y542338D01*
X1678042Y541339D01*
X1680041D01*
X1681041Y540339D01*
Y539339D01*
X1680041Y538340D01*
X1678042D01*
X1677042Y539339D01*
X1687039Y538340D02*
X1683040D01*
X1687039Y542338D01*
Y543338D01*
X1686039Y544338D01*
X1684040D01*
X1683040Y543338D01*
X1693037Y538340D02*
X1689038D01*
X1693037Y542338D01*
Y543338D01*
X1692037Y544338D01*
X1690038D01*
X1689038Y543338D01*
X1531434D02*
X1530435Y544338D01*
X1528435D01*
X1527436Y543338D01*
Y542338D01*
X1528435Y541339D01*
X1530435D01*
X1531434Y540339D01*
Y539339D01*
X1530435Y538340D01*
X1528435D01*
X1527436Y539339D01*
X1537432Y538340D02*
X1533434D01*
X1537432Y542338D01*
Y543338D01*
X1536433Y544338D01*
X1534433D01*
X1533434Y543338D01*
X1539432D02*
X1540431Y544338D01*
X1542431D01*
X1543431Y543338D01*
Y539339D01*
X1542431Y538340D01*
X1540431D01*
X1539432Y539339D01*
Y543338D01*
X1832131Y579755D02*
X1831131Y580755D01*
X1829132D01*
X1828132Y579755D01*
Y578756D01*
X1829132Y577756D01*
X1831131D01*
X1832131Y576756D01*
Y575757D01*
X1831131Y574757D01*
X1829132D01*
X1828132Y575757D01*
X1834130Y574757D02*
X1836130D01*
X1835130D01*
Y580755D01*
X1834130Y579755D01*
X1839129Y575757D02*
X1840129Y574757D01*
X1842128D01*
X1843127Y575757D01*
Y579755D01*
X1842128Y580755D01*
X1840129D01*
X1839129Y579755D01*
Y578756D01*
X1840129Y577756D01*
X1843127D01*
X1607722Y618141D02*
X1606722Y619141D01*
X1604723D01*
X1603723Y618141D01*
Y617141D01*
X1604723Y616142D01*
X1606722D01*
X1607722Y615142D01*
Y614142D01*
X1606722Y613143D01*
X1604723D01*
X1603723Y614142D01*
X1609721Y613143D02*
X1611720D01*
X1610721D01*
Y619141D01*
X1609721Y618141D01*
X1618718Y619141D02*
X1616719Y618141D01*
X1614719Y616142D01*
Y614142D01*
X1615719Y613143D01*
X1617718D01*
X1618718Y614142D01*
Y615142D01*
X1617718Y616142D01*
X1614719D01*
X1682525Y618141D02*
X1681525Y619141D01*
X1679526D01*
X1678526Y618141D01*
Y617141D01*
X1679526Y616142D01*
X1681525D01*
X1682525Y615142D01*
Y614142D01*
X1681525Y613143D01*
X1679526D01*
X1678526Y614142D01*
X1684524Y613143D02*
X1686523D01*
X1685524D01*
Y619141D01*
X1684524Y618141D01*
X1689523Y619141D02*
X1693521D01*
Y618141D01*
X1689523Y614142D01*
Y613143D01*
X1758312Y618200D02*
X1757313Y619200D01*
X1755313D01*
X1754313Y618200D01*
Y617201D01*
X1755313Y616201D01*
X1757313D01*
X1758312Y615201D01*
Y614201D01*
X1757313Y613202D01*
X1755313D01*
X1754313Y614201D01*
X1760312Y613202D02*
X1762311D01*
X1761311D01*
Y619200D01*
X1760312Y618200D01*
X1765310D02*
X1766310Y619200D01*
X1768309D01*
X1769309Y618200D01*
Y617201D01*
X1768309Y616201D01*
X1769309Y615201D01*
Y614201D01*
X1768309Y613202D01*
X1766310D01*
X1765310Y614201D01*
Y615201D01*
X1766310Y616201D01*
X1765310Y617201D01*
Y618200D01*
X1766310Y616201D02*
X1768309D01*
X1532918Y618141D02*
X1531919Y619141D01*
X1529919D01*
X1528920Y618141D01*
Y617141D01*
X1529919Y616142D01*
X1531919D01*
X1532918Y615142D01*
Y614142D01*
X1531919Y613143D01*
X1529919D01*
X1528920Y614142D01*
X1534918Y613143D02*
X1536917D01*
X1535917D01*
Y619141D01*
X1534918Y618141D01*
X1543915Y619141D02*
X1539916D01*
Y616142D01*
X1541916Y617141D01*
X1542915D01*
X1543915Y616142D01*
Y614142D01*
X1542915Y613143D01*
X1540916D01*
X1539916Y614142D01*
X1757328Y692846D02*
X1756328Y693846D01*
X1754329D01*
X1753329Y692846D01*
Y691846D01*
X1754329Y690846D01*
X1756328D01*
X1757328Y689847D01*
Y688847D01*
X1756328Y687847D01*
X1754329D01*
X1753329Y688847D01*
X1759327Y687847D02*
X1761327D01*
X1760327D01*
Y693846D01*
X1759327Y692846D01*
X1767325Y687847D02*
Y693846D01*
X1764326Y690846D01*
X1768324D01*
X1531950Y692846D02*
X1530950Y693846D01*
X1528951D01*
X1527951Y692846D01*
Y691846D01*
X1528951Y690846D01*
X1530950D01*
X1531950Y689847D01*
Y688847D01*
X1530950Y687847D01*
X1528951D01*
X1527951Y688847D01*
X1533949Y687847D02*
X1535948D01*
X1534949D01*
Y693846D01*
X1533949Y692846D01*
X1538947Y687847D02*
X1540947D01*
X1539947D01*
Y693846D01*
X1538947Y692846D01*
X1608252Y767747D02*
X1607253Y768747D01*
X1605253D01*
X1604254Y767747D01*
Y766748D01*
X1605253Y765748D01*
X1607253D01*
X1608252Y764748D01*
Y763749D01*
X1607253Y762749D01*
X1605253D01*
X1604254Y763749D01*
X1610252Y768747D02*
X1614250D01*
Y767747D01*
X1610252Y763749D01*
Y762749D01*
X1757859Y767747D02*
X1756859Y768747D01*
X1754860D01*
X1753860Y767747D01*
Y766748D01*
X1754860Y765748D01*
X1756859D01*
X1757859Y764748D01*
Y763749D01*
X1756859Y762749D01*
X1754860D01*
X1753860Y763749D01*
X1759858D02*
X1760858Y762749D01*
X1762857D01*
X1763857Y763749D01*
Y767747D01*
X1762857Y768747D01*
X1760858D01*
X1759858Y767747D01*
Y766748D01*
X1760858Y765748D01*
X1763857D01*
X1533449Y767747D02*
X1532450Y768747D01*
X1530450D01*
X1529450Y767747D01*
Y766748D01*
X1530450Y765748D01*
X1532450D01*
X1533449Y764748D01*
Y763749D01*
X1532450Y762749D01*
X1530450D01*
X1529450Y763749D01*
X1539447Y768747D02*
X1537448Y767747D01*
X1535448Y765748D01*
Y763749D01*
X1536448Y762749D01*
X1538447D01*
X1539447Y763749D01*
Y764748D01*
X1538447Y765748D01*
X1535448D01*
X1683843Y842519D02*
X1682843Y843519D01*
X1680844D01*
X1679844Y842519D01*
Y841519D01*
X1680844Y840520D01*
X1682843D01*
X1683843Y839520D01*
Y838520D01*
X1682843Y837521D01*
X1680844D01*
X1679844Y838520D01*
X1685842Y842519D02*
X1686842Y843519D01*
X1688841D01*
X1689841Y842519D01*
Y841519D01*
X1688841Y840520D01*
X1687841D01*
X1688841D01*
X1689841Y839520D01*
Y838520D01*
X1688841Y837521D01*
X1686842D01*
X1685842Y838520D01*
X1884190Y852487D02*
Y847489D01*
X1885190Y846489D01*
X1887189D01*
X1888189Y847489D01*
Y852487D01*
X1890188Y846489D02*
X1892188D01*
X1891188D01*
Y852487D01*
X1890188Y851488D01*
X1941246Y651424D02*
X1937247D01*
Y645426D01*
X1941246D01*
X1937247Y648425D02*
X1939247D01*
X1943245Y645426D02*
Y651424D01*
X1947244Y645426D01*
Y651424D01*
X1953242Y650424D02*
X1952242Y651424D01*
X1950243D01*
X1949243Y650424D01*
Y646426D01*
X1950243Y645426D01*
X1952242D01*
X1953242Y646426D01*
X1955242Y645426D02*
X1957241D01*
X1956241D01*
Y651424D01*
X1955242Y650424D01*
X1609040Y842519D02*
X1608040Y843519D01*
X1606041D01*
X1605041Y842519D01*
Y841519D01*
X1606041Y840520D01*
X1608040D01*
X1609040Y839520D01*
Y838520D01*
X1608040Y837521D01*
X1606041D01*
X1605041Y838520D01*
X1615038Y837521D02*
X1611039D01*
X1615038Y841519D01*
Y842519D01*
X1614038Y843519D01*
X1612039D01*
X1611039Y842519D01*
M02*
