%FSTAX23Y23*%
%MOIN*%
%SFA1B1*%

%IPPOS*%
%AMD21*
4,1,8,0.000000,-0.092500,0.000000,-0.092500,0.051200,-0.041300,0.051200,0.041300,0.000000,0.092500,0.000000,0.092500,-0.051200,0.041300,-0.051200,-0.041300,0.000000,-0.092500,0.0*
1,1,0.102360,0.000000,-0.041300*
1,1,0.102360,0.000000,-0.041300*
1,1,0.102360,0.000000,0.041300*
1,1,0.102360,0.000000,0.041300*
%
%ADD14R,0.037400X0.053150*%
%ADD15C,0.122130*%
%ADD16C,0.071020*%
%ADD17C,0.161020*%
%ADD18R,0.130000X0.114250*%
%ADD19C,0.131890*%
%ADD20C,0.079910*%
G04~CAMADD=21~8~0.0~0.0~1023.6~1850.4~511.8~0.0~15~0.0~0.0~0.0~0.0~0~0.0~0.0~0.0~0.0~0~0.0~0.0~0.0~180.0~1024.0~1849.0*
%ADD21D21*%
%ADD22C,0.061020*%
%ADD23R,0.061020X0.061020*%
%ADD24C,0.162910*%
%ADD25C,0.125910*%
%ADD26C,0.055910*%
%ADD42R,0.043310X0.041340*%
%ADD43R,0.122130X0.102440*%
%ADD44R,0.067010X0.036300*%
%ADD45R,0.066930X0.061020*%
%LNnumpadpcb-1*%
%LPD*%
G54D14*
X18529Y05153D03*
X18588D03*
X18518Y06606D03*
X18459D03*
G54D15*
X18338Y08204D03*
X18588Y08304D03*
X18338Y07078D03*
X18588Y07178D03*
X17588Y05204D03*
X17838Y05304D03*
X16838Y05204D03*
X17088Y05304D03*
X16088Y05204D03*
X16338Y05304D03*
X15338Y05204D03*
X15588Y05304D03*
X18338Y05575D03*
X18588Y05675D03*
X17588Y05954D03*
X17838Y06054D03*
X16838Y05954D03*
X17088Y06054D03*
X16088Y05954D03*
X16338Y06054D03*
X15338Y05954D03*
X15588Y06054D03*
X17588Y06703D03*
X17838Y06803D03*
X16838Y06703D03*
X17088Y06803D03*
X16088Y06703D03*
X16338Y06803D03*
X15338Y06703D03*
X15588Y06803D03*
X17588Y07454D03*
X17838Y07554D03*
X16838Y07454D03*
X17088Y07554D03*
X16088Y07454D03*
X16338Y07554D03*
X15338Y07454D03*
X15588Y07554D03*
X17588Y08204D03*
X17838Y08304D03*
X16838Y08204D03*
X17088Y08304D03*
X16088Y08204D03*
X16338Y08304D03*
X15338Y08204D03*
X15588Y08304D03*
G54D16*
X18688Y08104D03*
X18288D03*
X18688Y06978D03*
X18288D03*
X17938Y05104D03*
X17538D03*
X17188D03*
X16788D03*
X16438D03*
X16038D03*
X15688D03*
X15288D03*
X18688Y05475D03*
X18288D03*
X17938Y05854D03*
X17538D03*
X17188Y05854D03*
X16788D03*
X16438D03*
X16038D03*
X15688D03*
X15288D03*
X17938Y06603D03*
X17538D03*
X17188D03*
X16788D03*
X16438D03*
X16038D03*
X15688D03*
X15288D03*
X17938Y07354D03*
X17538D03*
X17188D03*
X16788D03*
X16438D03*
X16038D03*
X15688D03*
X15288D03*
X17938Y08104D03*
X17538D03*
X17188D03*
X16788D03*
X16438D03*
X16038D03*
X15688D03*
X15288D03*
G54D17*
X18488Y08104D03*
Y06978D03*
X17738Y05104D03*
X16988D03*
X16238D03*
X15488D03*
X18488Y05475D03*
X17738Y05854D03*
X16988Y05854D03*
X16238D03*
X15488D03*
X17738Y06603D03*
X16988D03*
X16238D03*
X15488D03*
X17738Y07354D03*
X16988D03*
X16238D03*
X15488D03*
X17738Y08104D03*
X16988D03*
X16238D03*
X15488D03*
G54D18*
X18488Y05305D03*
X17738Y04937D03*
X16988D03*
X16238D03*
X15488D03*
Y05688D03*
X16238D03*
X16988D03*
X17738D03*
X18488Y0681D03*
X17738Y06436D03*
X16988D03*
X16238D03*
X15488D03*
Y07187D03*
X16238D03*
X16988D03*
X17738D03*
X18488Y07937D03*
X17738D03*
X16988D03*
X16238D03*
X15488D03*
G54D19*
X17027Y06978D03*
X15515Y06232D03*
Y07734D03*
X18463Y04815D03*
X18848Y07795D03*
G54D20*
X18996Y07276D03*
Y07376D03*
Y07476D03*
Y07576D03*
Y07676D03*
Y07776D03*
Y07876D03*
Y07976D03*
Y08076D03*
Y08176D03*
Y08276D03*
Y08376D03*
X19596Y07276D03*
Y07376D03*
Y07476D03*
Y07576D03*
Y07676D03*
Y07776D03*
Y07876D03*
Y07976D03*
Y08076D03*
Y08176D03*
Y08276D03*
Y08376D03*
G54D21*
X19082Y06854D03*
X19523D03*
G54D22*
X19204Y06578D03*
X19401D03*
X19204Y07149D03*
X19303D03*
G54D23*
X19401Y07149D03*
G54D24*
X18163Y06507D03*
Y05007D03*
Y05947D03*
Y07447D03*
G54D25*
X18763Y05947D03*
Y06507D03*
Y05007D03*
Y07447D03*
G54D26*
X18126Y06728D03*
X18356Y07627D03*
X18257D03*
X18641D03*
X18543D03*
X16791Y07805D03*
Y07903D03*
X16053Y07805D03*
Y07903D03*
X15305Y07805D03*
Y07903D03*
X17549Y04812D03*
Y04911D03*
X16801Y04803D03*
Y04901D03*
X16043Y04803D03*
Y04901D03*
X15314Y04803D03*
Y04901D03*
X17549Y06397D03*
Y06299D03*
X16801Y06397D03*
Y06299D03*
X16053D03*
Y06397D03*
X15295Y06299D03*
Y06397D03*
X18799Y0684D03*
X18681D03*
X17944Y04969D03*
X17193Y0497D03*
X16444Y04968D03*
X15669Y0497D03*
X15275Y0496D03*
X16053Y05659D03*
X16799D03*
X17549D03*
X18592Y06722D03*
X17944Y06467D03*
Y064D03*
X17175Y06466D03*
X15679D03*
X15295D03*
X15305Y07155D03*
X16043D03*
X17549Y07165D03*
X17523Y07104D03*
X18592Y08031D03*
X17944Y07967D03*
X17193Y07964D03*
X16444Y07963D03*
X15698Y07962D03*
X15305D03*
X18474Y07293D03*
X18356Y05669D03*
X18848Y06712D03*
X18523Y06515D03*
X18751Y08405D03*
X15185Y08437D03*
X18208Y07732D03*
X18059Y05409D03*
X17988Y06153D03*
X17854Y06562D03*
X18035Y07275D03*
Y07165D03*
X18094Y07548D03*
Y08314D03*
X17342Y05283D03*
Y06059D03*
Y06807D03*
Y07559D03*
Y08299D03*
X1659Y05291D03*
Y06059D03*
Y06814D03*
Y07559D03*
Y08307D03*
X15185Y05661D03*
X15838Y08307D03*
Y07555D03*
Y06803D03*
Y06055D03*
Y05299D03*
X15305Y05659D03*
X16801Y07155D03*
X16417Y06466D03*
X18448Y05153D03*
X18181Y052D03*
X17996Y05409D03*
X15188Y07158D03*
X18307Y07389D03*
G54D42*
X18181Y06857D03*
Y06733D03*
X18182Y07853D03*
Y07977D03*
X18948Y06579D03*
X17429Y04987D03*
Y04863D03*
X16682Y04983D03*
Y04859D03*
X15932Y04983D03*
Y04859D03*
X15182Y04983D03*
Y04859D03*
X18181Y05384D03*
Y0526D03*
X17432Y0573D03*
Y05606D03*
X16682Y0573D03*
Y05606D03*
X15932Y0573D03*
Y05606D03*
X15182Y0573D03*
Y05606D03*
X18948Y06703D03*
X17432Y06478D03*
Y06354D03*
X16682Y06478D03*
Y06354D03*
X15932Y06478D03*
Y06354D03*
X15182Y06478D03*
Y06354D03*
X17432Y07229D03*
Y07105D03*
X16682Y07229D03*
Y07105D03*
X15932Y07229D03*
Y07105D03*
X15182Y07229D03*
Y07105D03*
X17432Y07977D03*
Y07853D03*
X16682Y07977D03*
Y07853D03*
X15932Y07977D03*
Y07853D03*
X15182Y07977D03*
Y07853D03*
G54D43*
X18181Y08204D03*
X18748Y08304D03*
X18181Y07078D03*
X18748Y07178D03*
X17431Y05204D03*
X17998Y05304D03*
X16681Y05204D03*
X17248Y05304D03*
X15931Y05204D03*
X16498Y05304D03*
X15181Y05204D03*
X15748Y05304D03*
X18181Y05575D03*
X18748Y05675D03*
X17431Y05954D03*
X17998Y06054D03*
X16681Y05954D03*
X17248Y06054D03*
X15931Y05954D03*
X16498Y06054D03*
X15181Y05954D03*
X15748Y06054D03*
X17431Y06703D03*
X17998Y06803D03*
X16681Y06703D03*
X17248Y06803D03*
X15931Y06703D03*
X16498Y06803D03*
X15181Y06703D03*
X15748Y06803D03*
X17431Y07454D03*
X17998Y07554D03*
X16681Y07454D03*
X17248Y07554D03*
X15931Y07454D03*
X16498Y07554D03*
X15181Y07454D03*
X15748Y07554D03*
X17431Y08204D03*
X17998Y08304D03*
X16681Y08204D03*
X17248Y08304D03*
X15931Y08204D03*
X16498Y08304D03*
X15181Y08204D03*
X15748Y08304D03*
G54D44*
X18384Y05271D03*
X18593Y05334D03*
Y05271D03*
X18384Y05334D03*
X17634Y04904D03*
X17843Y04967D03*
Y04904D03*
X17634Y04967D03*
X16884Y04904D03*
X17093Y04967D03*
Y04904D03*
X16884Y04967D03*
X16134Y04904D03*
X16343Y04967D03*
Y04904D03*
X16134Y04967D03*
X15384Y04904D03*
X15593Y04967D03*
Y04904D03*
X15384Y04967D03*
X15593Y05722D03*
X15384Y05659D03*
Y05722D03*
X15593Y05659D03*
X16343Y05722D03*
X16134Y05659D03*
Y05722D03*
X16343Y05659D03*
X17093Y05722D03*
X16884Y05659D03*
Y05722D03*
X17093Y05659D03*
X17843Y05722D03*
X17634Y05659D03*
Y05722D03*
X17843Y05659D03*
X18593Y06844D03*
X18384Y06781D03*
Y06844D03*
X18593Y06781D03*
X17634Y06403D03*
X17843Y06466D03*
Y06403D03*
X17634Y06466D03*
X16884Y06403D03*
X17093Y06466D03*
Y06403D03*
X16884Y06466D03*
X16134Y06403D03*
X16343Y06466D03*
Y06403D03*
X16134Y06466D03*
X15384Y06403D03*
X15593Y06466D03*
Y06403D03*
X15384Y06466D03*
X15593Y07221D03*
X15384Y07158D03*
Y07221D03*
X15593Y07158D03*
X16343Y07221D03*
X16134Y07158D03*
Y07221D03*
X16343Y07158D03*
X17093Y07221D03*
X16884Y07158D03*
Y07221D03*
X17093Y07158D03*
X17843Y07221D03*
X17634Y07158D03*
Y07221D03*
X17843Y07158D03*
X18384Y07904D03*
X18593Y07967D03*
Y07904D03*
X18384Y07967D03*
X17634Y07904D03*
X17843Y07967D03*
Y07904D03*
X17634Y07967D03*
X16884Y07904D03*
X17093Y07967D03*
Y07904D03*
X16884Y07967D03*
X16134Y07904D03*
X16343Y07967D03*
Y07904D03*
X16134Y07967D03*
X15384Y07904D03*
X15593Y07967D03*
Y07904D03*
X15384Y07967D03*
G54D45*
X19456Y08094D03*
Y08169D03*
M02*