%FSTAX23Y23*%
%MOIN*%
%SFA1B1*%

%IPPOS*%
%AMD21*
4,1,8,0.000000,-0.092500,0.000000,-0.092500,0.051200,-0.041300,0.051200,0.041300,0.000000,0.092500,0.000000,0.092500,-0.051200,0.041300,-0.051200,-0.041300,0.000000,-0.092500,0.0*
1,1,0.102360,0.000000,-0.041300*
1,1,0.102360,0.000000,-0.041300*
1,1,0.102360,0.000000,0.041300*
1,1,0.102360,0.000000,0.041300*
%
%ADD14R,0.037400X0.053150*%
%ADD15C,0.122130*%
%ADD16C,0.071020*%
%ADD17C,0.161020*%
%ADD18R,0.130000X0.114250*%
%ADD19C,0.131890*%
%ADD20C,0.079910*%
G04~CAMADD=21~8~0.0~0.0~1023.6~1850.4~511.8~0.0~15~0.0~0.0~0.0~0.0~0~0.0~0.0~0.0~0.0~0~0.0~0.0~0.0~180.0~1024.0~1849.0*
%ADD21D21*%
%ADD22C,0.061020*%
%ADD23R,0.061020X0.061020*%
%ADD24C,0.162910*%
%ADD25C,0.125910*%
%ADD26C,0.055910*%
%LNnumpadpcb-1*%
%LPD*%
G54D14*
X1634Y04779D03*
X16281D03*
X17092D03*
X17033D03*
X17838Y04775D03*
X17779D03*
X15588Y04779D03*
X15529D03*
X15383Y05484D03*
X15324D03*
X16143D03*
X16084D03*
X16887D03*
X16828D03*
X17635Y05484D03*
X17576D03*
X17915Y06233D03*
X17974D03*
X17164D03*
X17223D03*
X16415D03*
X16474D03*
X15665D03*
X15724D03*
X15383Y06984D03*
X15324D03*
X16143D03*
X16084D03*
X16887D03*
X16828D03*
X17635D03*
X17576D03*
X18459Y07734D03*
X18518D03*
X17915D03*
X17974D03*
X17164D03*
X17223D03*
X16415D03*
X16474D03*
X15665D03*
X15724D03*
G54D15*
X18338Y08204D03*
X18588Y08304D03*
X18338Y07078D03*
X18588Y07178D03*
X17588Y05204D03*
X17838Y05304D03*
X16838Y05204D03*
X17088Y05304D03*
X16088Y05204D03*
X16338Y05304D03*
X15338Y05204D03*
X15588Y05304D03*
X18338Y05575D03*
X18588Y05675D03*
X17588Y05954D03*
X17838Y06054D03*
X16838Y05954D03*
X17088Y06054D03*
X16088Y05954D03*
X16338Y06054D03*
X15338Y05954D03*
X15588Y06054D03*
X17588Y06703D03*
X17838Y06803D03*
X16838Y06703D03*
X17088Y06803D03*
X16088Y06703D03*
X16338Y06803D03*
X15338Y06703D03*
X15588Y06803D03*
X17588Y07454D03*
X17838Y07554D03*
X16838Y07454D03*
X17088Y07554D03*
X16088Y07454D03*
X16338Y07554D03*
X15338Y07454D03*
X15588Y07554D03*
X17588Y08204D03*
X17838Y08304D03*
X16838Y08204D03*
X17088Y08304D03*
X16088Y08204D03*
X16338Y08304D03*
X15338Y08204D03*
X15588Y08304D03*
G54D16*
X18688Y08104D03*
X18288D03*
X18688Y06978D03*
X18288D03*
X17938Y05104D03*
X17538D03*
X17188D03*
X16788D03*
X16438D03*
X16038D03*
X15688D03*
X15288D03*
X18688Y05475D03*
X18288D03*
X17938Y05854D03*
X17538D03*
X17188Y05854D03*
X16788D03*
X16438D03*
X16038D03*
X15688D03*
X15288D03*
X17938Y06603D03*
X17538D03*
X17188D03*
X16788D03*
X16438D03*
X16038D03*
X15688D03*
X15288D03*
X17938Y07354D03*
X17538D03*
X17188D03*
X16788D03*
X16438D03*
X16038D03*
X15688D03*
X15288D03*
X17938Y08104D03*
X17538D03*
X17188D03*
X16788D03*
X16438D03*
X16038D03*
X15688D03*
X15288D03*
G54D17*
X18488Y08104D03*
Y06978D03*
X17738Y05104D03*
X16988D03*
X16238D03*
X15488D03*
X18488Y05475D03*
X17738Y05854D03*
X16988Y05854D03*
X16238D03*
X15488D03*
X17738Y06603D03*
X16988D03*
X16238D03*
X15488D03*
X17738Y07354D03*
X16988D03*
X16238D03*
X15488D03*
X17738Y08104D03*
X16988D03*
X16238D03*
X15488D03*
G54D18*
X18488Y05305D03*
X17738Y04937D03*
X16988D03*
X16238D03*
X15488D03*
Y05688D03*
X16238D03*
X16988D03*
X17738D03*
X18488Y0681D03*
X17738Y06436D03*
X16988D03*
X16238D03*
X15488D03*
Y07187D03*
X16238D03*
X16988D03*
X17738D03*
X18488Y07937D03*
X17738D03*
X16988D03*
X16238D03*
X15488D03*
G54D19*
X17027Y06978D03*
X15515Y06232D03*
Y07734D03*
X18463Y04815D03*
X18848Y07795D03*
G54D20*
X18996Y07276D03*
Y07376D03*
Y07476D03*
Y07576D03*
Y07676D03*
Y07776D03*
Y07876D03*
Y07976D03*
Y08076D03*
Y08176D03*
Y08276D03*
Y08376D03*
X19596Y07276D03*
Y07376D03*
Y07476D03*
Y07576D03*
Y07676D03*
Y07776D03*
Y07876D03*
Y07976D03*
Y08076D03*
Y08176D03*
Y08276D03*
Y08376D03*
G54D21*
X19082Y06854D03*
X19523D03*
G54D22*
X19204Y06578D03*
X19401D03*
X19204Y07149D03*
X19303D03*
G54D23*
X19401Y07149D03*
G54D24*
X18163Y06507D03*
Y05007D03*
Y05947D03*
Y07447D03*
G54D25*
X18763Y05947D03*
Y06507D03*
Y05007D03*
Y07447D03*
G54D26*
X18126Y06728D03*
X18356Y07627D03*
X18257D03*
X18641D03*
X18543D03*
X16791Y07805D03*
Y07903D03*
X16053Y07805D03*
Y07903D03*
X15305Y07805D03*
Y07903D03*
X17549Y04812D03*
Y04911D03*
X16801Y04803D03*
Y04901D03*
X16043Y04803D03*
Y04901D03*
X15314Y04803D03*
Y04901D03*
X17549Y06397D03*
Y06299D03*
X16801Y06397D03*
Y06299D03*
X16053D03*
Y06397D03*
X15295Y06299D03*
Y06397D03*
X18799Y0684D03*
X18681D03*
X17944Y04969D03*
X17193Y0497D03*
X16444Y04968D03*
X15669Y0497D03*
X15275Y0496D03*
X16053Y05659D03*
X16799D03*
X17549D03*
X18592Y06722D03*
X17944Y06467D03*
Y064D03*
X17175Y06466D03*
X15679D03*
X15295D03*
X15305Y07155D03*
X16043D03*
X17549Y07165D03*
X17523Y07104D03*
X18592Y08031D03*
X17944Y07967D03*
X17193Y07964D03*
X16444Y07963D03*
X15698Y07962D03*
X15305D03*
X18474Y07293D03*
X18356Y05669D03*
X18848Y06712D03*
X18523Y06515D03*
X18751Y08405D03*
X15185Y08437D03*
X18208Y07732D03*
X18059Y05409D03*
X17988Y06153D03*
X17854Y06562D03*
X18035Y07275D03*
Y07165D03*
X18094Y07548D03*
Y08314D03*
X17342Y05283D03*
Y06059D03*
Y06807D03*
Y07559D03*
Y08299D03*
X1659Y05291D03*
Y06059D03*
Y06814D03*
Y07559D03*
Y08307D03*
X15185Y05661D03*
X15838Y08307D03*
Y07555D03*
Y06803D03*
Y06055D03*
Y05299D03*
X15305Y05659D03*
X16801Y07155D03*
X16417Y06466D03*
X18448Y05153D03*
X18181Y052D03*
X17996Y05409D03*
X15188Y07158D03*
X18307Y07389D03*
M02*