%FSTAX23Y23*%
%MOIN*%
%SFA1B1*%

%IPPOS*%
%ADD10C,0.009840*%
%ADD11C,0.015000*%
%ADD12C,0.007870*%
%ADD13C,0.010000*%
%LNnumpadpcb-1*%
%LPD*%
G36*
X18427Y06395D02*
Y06387D01*
X18419*
Y06395*
Y06403*
X18427*
Y06395*
G37*
G36*
X18459D02*
Y06387D01*
X18451*
Y06379*
X18459*
Y06371*
Y06363*
Y06355*
X18475*
Y06347*
X18523*
Y06339*
X18531*
Y06331*
X18547*
Y06323*
X18555*
Y06315*
X18563*
Y06307*
X18571*
Y06299*
X18579*
Y06291*
Y06283*
X18587*
Y06275*
Y06267*
X18595*
Y06259*
X18603*
Y06251*
Y06243*
Y06235*
Y06227*
Y06219*
Y06211*
Y06203*
Y06195*
Y06187*
X18595*
Y06179*
Y06171*
X18587*
Y06163*
Y06155*
X18579*
Y06147*
Y06139*
X18571*
Y06131*
X18563*
Y06123*
X18547*
Y06115*
X18539*
Y06107*
X18531*
Y06099*
X18499*
Y06091*
Y06083*
X18491*
Y06075*
X18483*
Y06067*
X18475*
Y06075*
X18467*
Y06067*
X18451*
Y06075*
X18443*
Y06083*
X18419*
Y06091*
X18395*
Y06099*
X18379*
Y06107*
X18371*
Y06115*
X18355*
Y06123*
X18347*
Y06131*
X18339*
Y06139*
Y06147*
X18331*
Y06155*
X18323*
Y06163*
Y06171*
X18315*
Y06179*
Y06187*
Y06195*
Y06203*
Y06211*
Y06219*
Y06227*
Y06235*
Y06243*
Y06251*
Y06259*
Y06267*
X18323*
Y06259*
Y06251*
Y06243*
Y06235*
Y06227*
Y06219*
Y06211*
Y06203*
Y06195*
X18331*
Y06187*
Y06179*
Y06171*
X18339*
Y06163*
Y06155*
X18347*
Y06147*
X18355*
Y06139*
X18363*
Y06131*
X18371*
Y06123*
X18379*
Y06115*
X18387*
Y06123*
X18379*
Y06131*
X18371*
Y06139*
Y06147*
X18363*
Y06155*
X18371*
Y06147*
X18379*
Y06139*
Y06131*
X18387*
Y06123*
X18403*
Y06115*
X18411*
Y06107*
X18427*
Y06099*
X18435*
Y06107*
X18427*
Y06115*
Y06123*
X18419*
Y06131*
X18411*
Y06139*
X18419*
Y06131*
X18427*
Y06123*
X18435*
Y06115*
Y06107*
X18451*
Y06099*
X18467*
Y06107*
X18459*
Y06115*
X18467*
Y06107*
X18475*
Y06115*
Y06123*
Y06131*
Y06139*
Y06147*
Y06155*
Y06163*
Y06171*
Y06179*
Y06187*
X18483*
Y06179*
Y06171*
Y06163*
Y06155*
Y06147*
Y06139*
Y06131*
Y06123*
Y06115*
Y06107*
X18499*
Y06115*
Y06123*
X18515*
Y06131*
X18523*
Y06139*
X18531*
Y06147*
X18539*
Y06139*
X18547*
Y06147*
X18539*
Y06155*
Y06163*
Y06171*
X18547*
Y06163*
Y06155*
X18555*
Y06147*
X18563*
Y06155*
X18555*
Y06163*
Y06171*
X18563*
Y06179*
X18571*
Y06171*
Y06163*
X18579*
Y06171*
Y06179*
Y06187*
Y06195*
X18587*
Y06203*
Y06211*
Y06219*
Y06227*
Y06235*
Y06243*
Y06251*
X18579*
Y06259*
Y06267*
Y06275*
Y06283*
X18571*
Y06291*
X18563*
Y06299*
X18555*
Y06307*
X18547*
Y06315*
X18539*
Y06323*
X18531*
Y06331*
X18523*
Y06323*
X18531*
Y06315*
X18539*
Y06307*
X18547*
Y06299*
X18539*
Y06307*
X18531*
Y06315*
X18523*
Y06323*
X18507*
Y06331*
X18499*
Y06339*
X18467*
Y06331*
X18483*
Y06323*
X18491*
Y06315*
X18483*
Y06323*
X18467*
Y06331*
X18459*
Y06339*
X18451*
Y06347*
X18443*
Y06355*
X18435*
Y06363*
Y06371*
X18427*
Y06379*
X18443*
Y06371*
Y06363*
Y06355*
X18451*
Y06363*
Y06371*
Y06379*
X18443*
Y06387*
X18435*
Y06395*
X18443*
Y06403*
X18459*
Y06395*
G37*
G36*
X18427Y06363D02*
Y06355D01*
Y06347*
X18435*
Y06339*
X18443*
Y06331*
Y06323*
X18435*
Y06331*
Y06339*
X18427*
Y06347*
X18419*
Y06339*
X18427*
Y06331*
X18419*
Y06339*
X18411*
Y06331*
X18403*
Y06323*
X18387*
Y06315*
X18379*
Y06307*
X18371*
Y06299*
X18363*
Y06307*
X18355*
Y06299*
X18347*
Y06291*
X18339*
Y06299*
Y06307*
X18347*
Y06315*
X18355*
Y06323*
X18371*
Y06331*
X18379*
Y06339*
X18387*
Y06331*
X18395*
Y06339*
Y06347*
X18411*
Y06355*
Y06363*
X18419*
Y06371*
X18427*
Y06363*
G37*
G36*
X18507Y06307D02*
X18515D01*
Y06299*
X18523*
Y06291*
X18515*
Y06299*
X18507*
Y06307*
X18499*
Y06315*
X18507*
Y06307*
G37*
G36*
X18339Y06283D02*
Y06275D01*
X18331*
Y06267*
X18323*
Y06275*
Y06283*
X18331*
Y06291*
X18339*
Y06283*
G37*
G36*
X18451Y06147D02*
Y06139D01*
X18459*
Y06131*
X18451*
Y06139*
X18443*
Y06147*
Y06155*
X18451*
Y06147*
G37*
%LNnumpadpcb-2*%
%LPC*%
G36*
X18571Y06163D02*
X18563D01*
Y06155*
X18571*
Y06163*
G37*
G36*
X18451Y06099D02*
X18443D01*
Y06091*
X18451*
Y06099*
G37*
%LNnumpadpcb-3*%
%LPD*%
G54D10*
X19406Y07202D02*
X19399Y07207D01*
Y07198*
X19406Y07202*
G54D11*
X18238Y08284D02*
Y08354D01*
Y07854D02*
Y07924D01*
Y07854D02*
X18308D01*
X18668D02*
X18738D01*
Y07924*
Y08284D02*
Y08354D01*
X18668D02*
X18738D01*
X18238D02*
X18308D01*
X18238Y07158D02*
Y07228D01*
Y06728D02*
Y06798D01*
Y06728D02*
X18308D01*
X18668D02*
X18738D01*
Y06798*
Y07158D02*
Y07228D01*
X18668D02*
X18738D01*
X18238D02*
X18308D01*
X17488Y05284D02*
Y05354D01*
Y04854D02*
Y04924D01*
Y04854D02*
X17558D01*
X17918D02*
X17988D01*
Y04924*
Y05284D02*
Y05354D01*
X17918D02*
X17988D01*
X17488D02*
X17558D01*
X16738Y05284D02*
Y05354D01*
Y04854D02*
Y04924D01*
Y04854D02*
X16808D01*
X17168D02*
X17238D01*
Y04924*
Y05284D02*
Y05354D01*
X17168D02*
X17238D01*
X16738D02*
X16808D01*
X15988Y05284D02*
Y05354D01*
Y04854D02*
Y04924D01*
Y04854D02*
X16058D01*
X16418D02*
X16488D01*
Y04924*
Y05284D02*
Y05354D01*
X16418D02*
X16488D01*
X15988D02*
X16058D01*
X15238Y05284D02*
Y05354D01*
Y04854D02*
Y04924D01*
Y04854D02*
X15308D01*
X15668D02*
X15738D01*
Y04924*
Y05284D02*
Y05354D01*
X15668D02*
X15738D01*
X15238D02*
X15308D01*
X18238Y05655D02*
Y05725D01*
Y05225D02*
Y05295D01*
Y05225D02*
X18308D01*
X18668D02*
X18738D01*
Y05295*
Y05655D02*
Y05725D01*
X18668D02*
X18738D01*
X18238D02*
X18308D01*
X17488Y06034D02*
Y06104D01*
Y05604D02*
Y05674D01*
Y05604D02*
X17558D01*
X17918D02*
X17988D01*
Y05674*
Y06034D02*
Y06104D01*
X17918D02*
X17988D01*
X17488D02*
X17558D01*
X16738Y06034D02*
Y06104D01*
Y05604D02*
Y05674D01*
Y05604D02*
X16808D01*
X17168D02*
X17238D01*
Y05674*
Y06034D02*
Y06104D01*
X17168D02*
X17238D01*
X16738D02*
X16808D01*
X15988Y06034D02*
Y06104D01*
Y05604D02*
Y05674D01*
Y05604D02*
X16058D01*
X16418D02*
X16488D01*
Y05674*
Y06034D02*
Y06104D01*
X16418D02*
X16488D01*
X15988D02*
X16058D01*
X15238Y06034D02*
Y06104D01*
Y05604D02*
Y05674D01*
Y05604D02*
X15308D01*
X15668D02*
X15738D01*
Y05674*
Y06034D02*
Y06104D01*
X15668D02*
X15738D01*
X15238D02*
X15308D01*
X17488Y06783D02*
Y06853D01*
Y06353D02*
Y06423D01*
Y06353D02*
X17558D01*
X17918D02*
X17988D01*
Y06423*
Y06783D02*
Y06853D01*
X17918D02*
X17988D01*
X17488D02*
X17558D01*
X16738Y06783D02*
Y06853D01*
Y06353D02*
Y06423D01*
Y06353D02*
X16808D01*
X17168D02*
X17238D01*
Y06423*
Y06783D02*
Y06853D01*
X17168D02*
X17238D01*
X16738D02*
X16808D01*
X15988Y06783D02*
Y06853D01*
Y06353D02*
Y06423D01*
Y06353D02*
X16058D01*
X16418D02*
X16488D01*
Y06423*
Y06783D02*
Y06853D01*
X16418D02*
X16488D01*
X15988D02*
X16058D01*
X15238Y06783D02*
Y06853D01*
Y06353D02*
Y06423D01*
Y06353D02*
X15308D01*
X15668D02*
X15738D01*
Y06423*
Y06783D02*
Y06853D01*
X15668D02*
X15738D01*
X15238D02*
X15308D01*
X17488Y07534D02*
Y07604D01*
Y07104D02*
Y07174D01*
Y07104D02*
X17558D01*
X17918D02*
X17988D01*
Y07174*
Y07534D02*
Y07604D01*
X17918D02*
X17988D01*
X17488D02*
X17558D01*
X16738Y07534D02*
Y07604D01*
Y07104D02*
Y07174D01*
Y07104D02*
X16808D01*
X17168D02*
X17238D01*
Y07174*
Y07534D02*
Y07604D01*
X17168D02*
X17238D01*
X16738D02*
X16808D01*
X15988Y07534D02*
Y07604D01*
Y07104D02*
Y07174D01*
Y07104D02*
X16058D01*
X16418D02*
X16488D01*
Y07174*
Y07534D02*
Y07604D01*
X16418D02*
X16488D01*
X15988D02*
X16058D01*
X15238Y07534D02*
Y07604D01*
Y07104D02*
Y07174D01*
Y07104D02*
X15308D01*
X15668D02*
X15738D01*
Y07174*
Y07534D02*
Y07604D01*
X15668D02*
X15738D01*
X15238D02*
X15308D01*
X17488Y08284D02*
Y08354D01*
Y07854D02*
Y07924D01*
Y07854D02*
X17558D01*
X17918D02*
X17988D01*
Y07924*
Y08284D02*
Y08354D01*
X17918D02*
X17988D01*
X17488D02*
X17558D01*
X16738Y08284D02*
Y08354D01*
Y07854D02*
Y07924D01*
Y07854D02*
X16808D01*
X17168D02*
X17238D01*
Y07924*
Y08284D02*
Y08354D01*
X17168D02*
X17238D01*
X16738D02*
X16808D01*
X15988Y08284D02*
Y08354D01*
Y07854D02*
Y07924D01*
Y07854D02*
X16058D01*
X16418D02*
X16488D01*
Y07924*
Y08284D02*
Y08354D01*
X16418D02*
X16488D01*
X15988D02*
X16058D01*
X15238Y08284D02*
Y08354D01*
Y07854D02*
Y07924D01*
Y07854D02*
X15308D01*
X15668D02*
X15738D01*
Y07924*
Y08284D02*
Y08354D01*
X15668D02*
X15738D01*
X15238D02*
X15308D01*
G54D12*
X16267Y04737D02*
X16354D01*
X16267Y04821D02*
X16354D01*
X17019Y04737D02*
X17106D01*
X17019Y04821D02*
X17106D01*
X17765Y04733D02*
X17852D01*
X17765Y04817D02*
X17852D01*
X15515Y04737D02*
X15602D01*
X15515Y04821D02*
X15602D01*
X19557Y0658D02*
Y06747D01*
Y06961D02*
Y07127D01*
X19049D02*
X19159D01*
X19446D02*
X19557D01*
X19049Y0658D02*
Y06747D01*
Y06961D02*
Y07127D01*
Y0658D02*
X19159D01*
X19446D02*
X19557D01*
X15311Y05442D02*
X15397D01*
X15311Y05526D02*
X15397D01*
X1607Y05442D02*
X16157D01*
X1607Y05526D02*
X16157D01*
X16814Y05442D02*
X16901D01*
X16814Y05526D02*
X16901D01*
X17562Y05442D02*
X17649D01*
X17562Y05527D02*
X17649D01*
X17901Y06275D02*
X17987D01*
X17901Y06191D02*
X17987D01*
X1715Y06275D02*
X17237D01*
X1715Y06191D02*
X17237D01*
X16401Y06275D02*
X16488D01*
X16401Y06191D02*
X16488D01*
X15651Y06275D02*
X15738D01*
X15651Y06191D02*
X15738D01*
X15311Y06942D02*
X15397D01*
X15311Y07026D02*
X15397D01*
X1607Y06942D02*
X16157D01*
X1607Y07026D02*
X16157D01*
X16814Y06942D02*
X16901D01*
X16814Y07026D02*
X16901D01*
X17562Y06942D02*
X17649D01*
X17562Y07026D02*
X17649D01*
X18445Y07776D02*
X18532D01*
X18445Y07691D02*
X18532D01*
X17901Y07776D02*
X17987D01*
X17901Y07691D02*
X17987D01*
X1715Y07776D02*
X17237D01*
X1715Y07691D02*
X17237D01*
X16401Y07776D02*
X16488D01*
X16401Y07691D02*
X16488D01*
X15651Y07776D02*
X15738D01*
X15651Y07691D02*
X15738D01*
G54D13*
X18946Y08526D02*
X19646D01*
Y07226D02*
Y08526D01*
X18946Y07226D02*
X19646D01*
X18946D02*
Y08526D01*
X18226Y08466D02*
X18216Y08476D01*
X18196*
X18186Y08466*
Y08456*
X18196Y08446*
X18216*
X18226Y08436*
Y08426*
X18216Y08416*
X18196*
X18186Y08426*
X18286Y08476D02*
X18246D01*
Y08446*
X18266Y08456*
X18276*
X18286Y08446*
Y08426*
X18276Y08416*
X18256*
X18246Y08426*
X18228Y07342D02*
X18218Y07352D01*
X18198*
X18188Y07342*
Y07332*
X18198Y07322*
X18218*
X18228Y07312*
Y07302*
X18218Y07292*
X18198*
X18188Y07302*
X18248Y07292D02*
X18268D01*
X18258*
Y07352*
X18248Y07342*
X18298D02*
X18308Y07352D01*
X18328*
X18338Y07342*
Y07302*
X18328Y07292*
X18308*
X18298Y07302*
Y07342*
X15334Y07677D02*
X15324Y07687D01*
X15304*
X15294Y07677*
Y07667*
X15304Y07657*
X15324*
X15334Y07647*
Y07637*
X15324Y07627*
X15304*
X15294Y07637*
X15394Y07687D02*
X15374Y07677D01*
X15354Y07657*
Y07637*
X15364Y07627*
X15384*
X15394Y07637*
Y07647*
X15384Y07657*
X15354*
X16082Y07677D02*
X16072Y07687D01*
X16052*
X16042Y07677*
Y07667*
X16052Y07657*
X16072*
X16082Y07647*
Y07637*
X16072Y07627*
X16052*
X16042Y07637*
X16102Y07687D02*
X16142D01*
Y07677*
X16102Y07637*
Y07627*
X1684Y07677D02*
X1683Y07687D01*
X1681*
X168Y07677*
Y07667*
X1681Y07657*
X1683*
X1684Y07647*
Y07637*
X1683Y07627*
X1681*
X168Y07637*
X1686Y07677D02*
X1687Y07687D01*
X1689*
X169Y07677*
Y07667*
X1689Y07657*
X169Y07647*
Y07637*
X1689Y07627*
X1687*
X1686Y07637*
Y07647*
X1687Y07657*
X1686Y07667*
Y07677*
X1687Y07657D02*
X1689D01*
X17578Y07677D02*
X17568Y07687D01*
X17548*
X17538Y07677*
Y07667*
X17548Y07657*
X17568*
X17578Y07647*
Y07637*
X17568Y07627*
X17548*
X17538Y07637*
X17598D02*
X17608Y07627D01*
X17628*
X17638Y07637*
Y07677*
X17628Y07687*
X17608*
X17598Y07677*
Y07667*
X17608Y07657*
X17638*
X15319Y06928D02*
X15309Y06938D01*
X15289*
X15279Y06928*
Y06918*
X15289Y06908*
X15309*
X15319Y06898*
Y06888*
X15309Y06878*
X15289*
X15279Y06888*
X15339Y06878D02*
X15359D01*
X15349*
Y06938*
X15339Y06928*
X15389Y06878D02*
X15409D01*
X15399*
Y06938*
X15389Y06928*
X16087D02*
X16077Y06938D01*
X16057*
X16047Y06928*
Y06918*
X16057Y06908*
X16077*
X16087Y06898*
Y06888*
X16077Y06878*
X16057*
X16047Y06888*
X16107Y06878D02*
X16127D01*
X16117*
Y06938*
X16107Y06928*
X16197Y06878D02*
X16157D01*
X16197Y06918*
Y06928*
X16187Y06938*
X16167*
X16157Y06928*
X16825D02*
X16815Y06938D01*
X16795*
X16785Y06928*
Y06918*
X16795Y06908*
X16815*
X16825Y06898*
Y06888*
X16815Y06878*
X16795*
X16785Y06888*
X16845Y06878D02*
X16865D01*
X16855*
Y06938*
X16845Y06928*
X16895D02*
X16905Y06938D01*
X16925*
X16935Y06928*
Y06918*
X16925Y06908*
X16915*
X16925*
X16935Y06898*
Y06888*
X16925Y06878*
X16905*
X16895Y06888*
X17573Y06928D02*
X17563Y06938D01*
X17543*
X17533Y06928*
Y06918*
X17543Y06908*
X17563*
X17573Y06898*
Y06888*
X17563Y06878*
X17543*
X17533Y06888*
X17593Y06878D02*
X17613D01*
X17603*
Y06938*
X17593Y06928*
X17673Y06878D02*
Y06938D01*
X17643Y06908*
X17683*
X16426Y04803D02*
X16416Y04813D01*
X16396*
X16386Y04803*
Y04763*
X16396Y04753*
X16416*
X16426Y04763*
X16486Y04753D02*
X16446D01*
X16486Y04793*
Y04803*
X16476Y04813*
X16456*
X16446Y04803*
X16506D02*
X16516Y04813D01*
X16536*
X16546Y04803*
Y04763*
X16536Y04753*
X16516*
X16506Y04763*
Y04803*
X17184D02*
X17174Y04813D01*
X17154*
X17144Y04803*
Y04763*
X17154Y04753*
X17174*
X17184Y04763*
X17244Y04753D02*
X17204D01*
X17244Y04793*
Y04803*
X17234Y04813*
X17214*
X17204Y04803*
X17264Y04753D02*
X17284D01*
X17274*
Y04813*
X17264Y04803*
X17932D02*
X17922Y04813D01*
X17902*
X17892Y04803*
Y04763*
X17902Y04753*
X17922*
X17932Y04763*
X17992Y04753D02*
X17952D01*
X17992Y04793*
Y04803*
X17982Y04813*
X17962*
X17952Y04803*
X18052Y04753D02*
X18012D01*
X18052Y04793*
Y04803*
X18042Y04813*
X18022*
X18012Y04803*
X15673D02*
X15663Y04813D01*
X15643*
X15633Y04803*
Y04763*
X15643Y04753*
X15663*
X15673Y04763*
X15693Y04753D02*
X15713D01*
X15703*
Y04813*
X15693Y04803*
X15743Y04763D02*
X15753Y04753D01*
X15773*
X15783Y04763*
Y04803*
X15773Y04813*
X15753*
X15743Y04803*
Y04793*
X15753Y04783*
X15783*
X16553Y06256D02*
X16543Y06266D01*
X16523*
X16513Y06256*
Y06216*
X16523Y06206*
X16543*
X16553Y06216*
X16573Y06206D02*
X16593D01*
X16583*
Y06266*
X16573Y06256*
X16623Y06206D02*
X16643D01*
X16633*
Y06266*
X16623Y06256*
X17728Y07004D02*
X17718Y07014D01*
X17698*
X17688Y07004*
Y06964*
X17698Y06954*
X17718*
X17728Y06964*
X17788Y07014D02*
X17768Y07004D01*
X17748Y06984*
Y06964*
X17758Y06954*
X17778*
X17788Y06964*
Y06974*
X17778Y06984*
X17748*
X16722Y07008D02*
X16712Y07018D01*
X16692*
X16682Y07008*
Y06968*
X16692Y06958*
X16712*
X16722Y06968*
X16742Y07018D02*
X16782D01*
Y07008*
X16742Y06968*
Y06958*
X16228Y07004D02*
X16218Y07014D01*
X16198*
X16188Y07004*
Y06964*
X16198Y06954*
X16218*
X16228Y06964*
X16248Y07004D02*
X16258Y07014D01*
X16278*
X16288Y07004*
Y06994*
X16278Y06984*
X16288Y06974*
Y06964*
X16278Y06954*
X16258*
X16248Y06964*
Y06974*
X16258Y06984*
X16248Y06994*
Y07004*
X16258Y06984D02*
X16278D01*
X15466Y07004D02*
X15456Y07014D01*
X15436*
X15426Y07004*
Y06964*
X15436Y06954*
X15456*
X15466Y06964*
X15486D02*
X15496Y06954D01*
X15516*
X15526Y06964*
Y07004*
X15516Y07014*
X15496*
X15486Y07004*
Y06994*
X15496Y06984*
X15526*
X186Y07751D02*
X1859Y07761D01*
X1857*
X1856Y07751*
Y07711*
X1857Y07701*
X1859*
X186Y07711*
X1866Y07761D02*
X1862D01*
Y07731*
X1864Y07741*
X1865*
X1866Y07731*
Y07711*
X1865Y07701*
X1863*
X1862Y07711*
X15465Y05504D02*
X15455Y05514D01*
X15435*
X15425Y05504*
Y05464*
X15435Y05454*
X15455*
X15465Y05464*
X15485Y05454D02*
X15505D01*
X15495*
Y05514*
X15485Y05504*
X15534D02*
X15544Y05514D01*
X15564*
X15574Y05504*
Y05494*
X15564Y05484*
X15574Y05474*
Y05464*
X15564Y05454*
X15544*
X15534Y05464*
Y05474*
X15544Y05484*
X15534Y05494*
Y05504*
X15544Y05484D02*
X15564D01*
X16224Y05504D02*
X16214Y05514D01*
X16194*
X16184Y05504*
Y05464*
X16194Y05454*
X16214*
X16224Y05464*
X16244Y05454D02*
X16264D01*
X16254*
Y05514*
X16244Y05504*
X16294Y05514D02*
X16334D01*
Y05504*
X16294Y05464*
Y05454*
X16968Y05504D02*
X16958Y05514D01*
X16938*
X16928Y05504*
Y05464*
X16938Y05454*
X16958*
X16968Y05464*
X16988Y05454D02*
X17008D01*
X16998*
Y05514*
X16988Y05504*
X17078Y05514D02*
X17058Y05504D01*
X17038Y05484*
Y05464*
X17048Y05454*
X17068*
X17078Y05464*
Y05474*
X17068Y05484*
X17038*
X1772Y05504D02*
X1771Y05514D01*
X1769*
X1768Y05504*
Y05464*
X1769Y05454*
X1771*
X1772Y05464*
X1774Y05454D02*
X1776D01*
X1775*
Y05514*
X1774Y05504*
X1783Y05514D02*
X1779D01*
Y05484*
X1781Y05494*
X1782*
X1783Y05484*
Y05464*
X1782Y05454*
X178*
X1779Y05464*
X17303Y06252D02*
X17293Y06262D01*
X17273*
X17263Y06252*
Y06212*
X17273Y06202*
X17293*
X17303Y06212*
X17323Y06202D02*
X17343D01*
X17333*
Y06262*
X17323Y06252*
X17413Y06202D02*
X17373D01*
X17413Y06242*
Y06252*
X17403Y06262*
X17383*
X17373Y06252*
X18054Y06257D02*
X18044Y06267D01*
X18024*
X18014Y06257*
Y06217*
X18024Y06207*
X18044*
X18054Y06217*
X18074Y06207D02*
X18094D01*
X18084*
Y06267*
X18074Y06257*
X18124D02*
X18134Y06267D01*
X18154*
X18164Y06257*
Y06247*
X18154Y06237*
X18144*
X18154*
X18164Y06227*
Y06217*
X18154Y06207*
X18134*
X18124Y06217*
X15806Y06249D02*
X15796Y06259D01*
X15776*
X15766Y06249*
Y06209*
X15776Y06199*
X15796*
X15806Y06209*
X15826Y06199D02*
X15846D01*
X15836*
Y06259*
X15826Y06249*
X15876D02*
X15886Y06259D01*
X15905*
X15915Y06249*
Y06209*
X15905Y06199*
X15886*
X15876Y06209*
Y06249*
X18062Y07751D02*
X18052Y07761D01*
X18032*
X18022Y07751*
Y07711*
X18032Y07701*
X18052*
X18062Y07711*
X18112Y07701D02*
Y07761D01*
X18082Y07731*
X18122*
X17302Y07754D02*
X17292Y07764D01*
X17272*
X17262Y07754*
Y07714*
X17272Y07704*
X17292*
X17302Y07714*
X17322Y07754D02*
X17332Y07764D01*
X17352*
X17362Y07754*
Y07744*
X17352Y07734*
X17342*
X17352*
X17362Y07724*
Y07714*
X17352Y07704*
X17332*
X17322Y07714*
X16553Y07754D02*
X16543Y07764D01*
X16523*
X16513Y07754*
Y07714*
X16523Y07704*
X16543*
X16553Y07714*
X16613Y07704D02*
X16573D01*
X16613Y07744*
Y07754*
X16603Y07764*
X16583*
X16573Y07754*
X15824D02*
X15814Y07764D01*
X15794*
X15784Y07754*
Y07714*
X15794Y07704*
X15814*
X15824Y07714*
X15844Y07704D02*
X15864D01*
X15854*
Y07764*
X15844Y07754*
X17568Y05433D02*
X17558Y05443D01*
X17538*
X17528Y05433*
Y05423*
X17538Y05413*
X17558*
X17568Y05403*
Y05393*
X17558Y05383*
X17538*
X17528Y05393*
X17628Y05383D02*
X17588D01*
X17628Y05423*
Y05433*
X17618Y05443*
X17598*
X17588Y05433*
X17648D02*
X17658Y05443D01*
X17678*
X17688Y05433*
Y05423*
X17678Y05413*
X17668*
X17678*
X17688Y05403*
Y05393*
X17678Y05383*
X17658*
X17648Y05393*
X17596Y08421D02*
X17586Y08431D01*
X17566*
X17556Y08421*
Y08411*
X17566Y08401*
X17586*
X17596Y08391*
Y08381*
X17586Y08371*
X17566*
X17556Y08381*
X17646Y08371D02*
Y08431D01*
X17616Y08401*
X17656*
X15332Y08425D02*
X15322Y08435D01*
X15302*
X15292Y08425*
Y08415*
X15302Y08405*
X15322*
X15332Y08395*
Y08385*
X15322Y08375*
X15302*
X15292Y08385*
X15352Y08375D02*
X15372D01*
X15362*
Y08435*
X15352Y08425*
X16082Y05433D02*
X16072Y05443D01*
X16052*
X16042Y05433*
Y05423*
X16052Y05413*
X16072*
X16082Y05403*
Y05393*
X16072Y05383*
X16052*
X16042Y05393*
X16142Y05383D02*
X16102D01*
X16142Y05423*
Y05433*
X16132Y05443*
X16112*
X16102Y05433*
X16162Y05383D02*
X16182D01*
X16172*
Y05443*
X16162Y05433*
X1681D02*
X168Y05443D01*
X1678*
X1677Y05433*
Y05423*
X1678Y05413*
X168*
X1681Y05403*
Y05393*
X168Y05383*
X1678*
X1677Y05393*
X1687Y05383D02*
X1683D01*
X1687Y05423*
Y05433*
X1686Y05443*
X1684*
X1683Y05433*
X1693Y05383D02*
X1689D01*
X1693Y05423*
Y05433*
X1692Y05443*
X169*
X1689Y05433*
X15314D02*
X15304Y05443D01*
X15284*
X15274Y05433*
Y05423*
X15284Y05413*
X15304*
X15314Y05403*
Y05393*
X15304Y05383*
X15284*
X15274Y05393*
X15374Y05383D02*
X15334D01*
X15374Y05423*
Y05433*
X15364Y05443*
X15344*
X15334Y05433*
X15394D02*
X15404Y05443D01*
X15424*
X15434Y05433*
Y05393*
X15424Y05383*
X15404*
X15394Y05393*
Y05433*
X18321Y05796D02*
X18311Y05806D01*
X18291*
X18281Y05796*
Y05786*
X18291Y05776*
X18311*
X18321Y05766*
Y05756*
X18311Y05746*
X18291*
X18281Y05756*
X18341Y05746D02*
X18361D01*
X18351*
Y05806*
X18341Y05796*
X18391Y05756D02*
X18401Y05746D01*
X18421*
X18431Y05756*
Y05796*
X18421Y05806*
X18401*
X18391Y05796*
Y05786*
X18401Y05776*
X18431*
X16077Y06181D02*
X16067Y06191D01*
X16047*
X16037Y06181*
Y06171*
X16047Y06161*
X16067*
X16077Y06151*
Y06141*
X16067Y06131*
X16047*
X16037Y06141*
X16097Y06131D02*
X16117D01*
X16107*
Y06191*
X16097Y06181*
X16187Y06191D02*
X16167Y06181D01*
X16147Y06161*
Y06141*
X16157Y06131*
X16177*
X16187Y06141*
Y06151*
X16177Y06161*
X16147*
X16825Y06181D02*
X16815Y06191D01*
X16795*
X16785Y06181*
Y06171*
X16795Y06161*
X16815*
X16825Y06151*
Y06141*
X16815Y06131*
X16795*
X16785Y06141*
X16845Y06131D02*
X16865D01*
X16855*
Y06191*
X16845Y06181*
X16895Y06191D02*
X16935D01*
Y06181*
X16895Y06141*
Y06131*
X17583Y06182D02*
X17573Y06192D01*
X17553*
X17543Y06182*
Y06172*
X17553Y06162*
X17573*
X17583Y06152*
Y06142*
X17573Y06132*
X17553*
X17543Y06142*
X17603Y06132D02*
X17623D01*
X17613*
Y06192*
X17603Y06182*
X17653D02*
X17663Y06192D01*
X17683*
X17693Y06182*
Y06172*
X17683Y06162*
X17693Y06152*
Y06142*
X17683Y06132*
X17663*
X17653Y06142*
Y06152*
X17663Y06162*
X17653Y06172*
Y06182*
X17663Y06162D02*
X17683D01*
X15329Y06181D02*
X15319Y06191D01*
X15299*
X15289Y06181*
Y06171*
X15299Y06161*
X15319*
X15329Y06151*
Y06141*
X15319Y06131*
X15299*
X15289Y06141*
X15349Y06131D02*
X15369D01*
X15359*
Y06191*
X15349Y06181*
X15439Y06191D02*
X15399D01*
Y06161*
X15419Y06171*
X15429*
X15439Y06161*
Y06141*
X15429Y06131*
X15409*
X15399Y06141*
X16838Y08425D02*
X16828Y08435D01*
X16808*
X16798Y08425*
Y08415*
X16808Y08405*
X16828*
X16838Y08395*
Y08385*
X16828Y08375*
X16808*
X16798Y08385*
X16858Y08425D02*
X16868Y08435D01*
X16888*
X16898Y08425*
Y08415*
X16888Y08405*
X16878*
X16888*
X16898Y08395*
Y08385*
X16888Y08375*
X16868*
X16858Y08385*
X18841Y08524D02*
Y08474D01*
X18851Y08464*
X18871*
X18881Y08474*
Y08524*
X18901Y08464D02*
X18921D01*
X18911*
Y08524*
X18901Y08514*
X19412Y06514D02*
X19372D01*
Y06454*
X19412*
X19372Y06484D02*
X19392D01*
X19432Y06454D02*
Y06514D01*
X19472Y06454*
Y06514*
X19532Y06504D02*
X19522Y06514D01*
X19502*
X19492Y06504*
Y06464*
X19502Y06454*
X19522*
X19532Y06464*
X19552Y06454D02*
X19572D01*
X19562*
Y06514*
X19552Y06504*
X1609Y08425D02*
X1608Y08435D01*
X1606*
X1605Y08425*
Y08415*
X1606Y08405*
X1608*
X1609Y08395*
Y08385*
X1608Y08375*
X1606*
X1605Y08385*
X1615Y08375D02*
X1611D01*
X1615Y08415*
Y08425*
X1614Y08435*
X1612*
X1611Y08425*
M02*